<svg width="41" height="60" viewBox="0 0 41 60" fill="none" xmlns="http://www.w3.org/2000/svg">
<path d="M22.0358 0C23.3106 0.234852 24.5966 0.418037 25.8556 0.718647C27.7304 1.19027 29.5196 1.94772 31.1592 2.96383C31.8124 3.35682 32.0022 3.814 31.7254 4.29466C31.4486 4.77533 30.9156 4.83952 30.2339 4.46219C23.1161 0.522937 16.0647 0.679505 9.44202 5.4016C3.7478 9.47237 1.30244 15.2294 1.88452 22.1763C2.17239 25.6208 3.46625 28.713 5.55888 31.4796C6.00492 32.0714 5.98594 32.5849 5.52566 32.9153C5.06538 33.2457 4.59086 33.0969 4.16379 32.5521C-4.07069 22.0229 0.435654 6.15939 13.0072 1.40911C14.8078 0.710004 16.6994 0.267204 18.6255 0.0939408C18.739 0.0730373 18.8502 0.0415843 18.9577 0L22.0358 0Z" fill="#25A9EE"/>
<path d="M13.1947 43.3489H17.3895C17.1506 42.0556 16.9149 40.7796 16.6777 39.5067C16.2601 37.3022 15.8457 35.0977 15.4123 32.898C15.3601 32.6427 15.1624 32.4048 14.9931 32.1871C14.4633 31.5045 13.9128 30.836 13.3039 30.0797C11.8218 30.7389 10.1958 30.695 8.73108 29.5364C7.2664 28.3778 6.87097 26.8466 7.2142 25.0852C2.5307 22.8432 2.56075 16.6164 7.1794 14.4041C6.86306 10.2629 9.77977 7.9504 13.4794 9.47538C13.9761 7.99894 14.9267 6.94367 16.5005 6.582C18.0744 6.22033 19.3682 6.73857 20.4897 7.90343C21.5969 6.76988 22.9081 6.21406 24.4883 6.582C26.0415 6.94367 27.0048 7.96293 27.4936 9.47224C29.1702 8.73794 30.7804 8.76612 32.2387 9.90124C33.6971 11.0364 34.1273 12.5739 33.7762 14.3869C35.959 15.4954 37.2655 17.2396 37.2718 19.7102C37.2781 22.1809 35.9969 23.9376 33.792 25.0523C34.5829 28.9509 30.8753 31.6 27.4825 29.9921C27.2068 30.9568 26.5978 31.7952 25.7616 32.3609C25.6661 32.4579 25.6074 32.5846 25.5955 32.7195C24.9264 36.2454 24.2621 39.765 23.5898 43.3426H27.7878C27.7878 42.2639 27.8479 41.2102 27.7751 40.1658C27.647 38.3277 28.4631 37.1441 30.0401 36.2156C40.5333 30.0437 42.3539 15.8383 33.7888 7.25054L33.6228 7.08302C33.1625 6.60079 33.1182 6.05593 33.5104 5.69269C33.9027 5.32945 34.4089 5.39991 34.8692 5.84926C36.5996 7.51353 38.0084 9.47677 39.0259 11.6423C43.5576 21.3041 40.0208 32.4893 30.7266 37.8659C29.9041 38.3356 29.5387 38.9462 29.5482 39.9012C29.5846 43.5524 29.5767 47.2051 29.5593 50.861C29.5371 55.2449 26.6647 58.8648 22.5269 59.776C16.7663 61.0458 11.4722 56.856 11.4184 50.9549C11.3857 47.3017 11.3894 43.6484 11.4295 39.9952C11.4406 38.9665 11.0388 38.3277 10.1736 37.8032C9.19769 37.2192 8.27554 36.5366 7.36605 35.8618C6.82984 35.4688 6.75866 34.974 7.09399 34.5482C7.42932 34.1223 7.91965 34.1207 8.45428 34.4934C9.43653 35.1791 10.4156 35.8696 11.42 36.5209C12.562 37.2631 13.1963 38.2604 13.1868 39.6335C13.19 40.8641 13.1947 42.0885 13.1947 43.3489ZM21.4197 22.8385C21.4197 25.0758 21.3707 27.2224 21.4403 29.3658C21.4767 30.4539 22.5348 31.2446 23.6547 31.2195C24.2132 31.2078 24.7463 30.9866 25.1462 30.6006C25.5462 30.2146 25.7831 29.6926 25.809 29.1403C25.8327 28.7693 25.7979 28.3966 25.828 28.0271C25.8723 27.4838 26.3626 27.0783 26.8419 27.2443C27.1279 27.3607 27.3785 27.5484 27.5695 27.7891C28.5264 28.8945 30.124 29.0573 31.2185 28.1367C31.6522 27.7756 31.9524 27.282 32.0718 26.7336C32.1912 26.1852 32.123 25.613 31.8781 25.1071C31.3545 24.0284 30.1951 23.4898 28.9614 23.7497C28.2354 23.9063 27.7783 23.6902 27.647 23.1344C27.522 22.6036 27.8716 22.1871 28.596 22.0384C30.1398 21.7065 31.4953 22.0775 32.6168 23.1751C32.9046 23.4569 33.1103 23.46 33.4203 23.2737C34.8881 22.3907 35.6347 21.099 35.4924 19.4127C35.3342 17.6247 34.3076 16.438 32.5851 15.868C31.7152 15.5784 31.5918 15.2167 31.8591 14.3697C32.0521 13.8044 32.1064 13.2016 32.0173 12.6114C31.799 11.4904 30.7519 10.7624 29.5941 10.7608C29.0267 10.75 28.4724 10.9298 28.0217 11.2711C27.5709 11.6123 27.2504 12.0948 27.1124 12.6396C26.8071 13.7826 27.2974 14.8895 28.3872 15.5173C29.0373 15.8931 29.2398 16.3487 28.9709 16.8372C28.702 17.3257 28.18 17.3977 27.522 17.0517C26.551 16.5374 25.8143 15.6763 25.4618 14.6435C25.1092 13.6108 25.1672 12.4839 25.6239 11.492C26.0352 10.562 25.8675 9.693 25.2064 8.93835C24.9173 8.6145 24.5348 8.38622 24.1106 8.28431C23.6863 8.1824 23.2407 8.21176 22.8338 8.36844C22.4027 8.5224 22.0319 8.8073 21.7742 9.18241C21.5166 9.55753 21.3853 10.0037 21.3991 10.4571C21.3817 13.4647 21.3754 16.4724 21.3991 19.4801C21.4086 20.7451 22.3371 21.6611 23.5329 21.6877C24.7287 21.7143 25.6825 20.8657 25.8169 19.6132C25.8865 18.9556 26.2155 18.608 26.747 18.633C27.2784 18.6581 27.6248 19.0918 27.5869 19.7556C27.5278 20.5794 27.2115 21.3646 26.6819 22.0027C26.1523 22.6408 25.4355 23.1003 24.6306 23.3176C23.5266 23.6025 22.4858 23.4209 21.4245 22.8385H21.4197ZM19.5501 22.8651C19.3144 22.97 19.123 23.0623 18.9269 23.1438C16.4214 24.1849 13.5759 22.4486 13.4035 19.7744C13.3592 19.1043 13.6708 18.6784 14.2228 18.6346C14.7749 18.5908 15.0675 18.9477 15.1845 19.5912C15.2493 20.0118 15.396 20.4159 15.6163 20.7812C15.867 21.1485 16.2293 21.4273 16.6507 21.5774C17.0721 21.7274 17.5308 21.7408 17.9605 21.6157C18.8652 21.3667 19.5533 20.6559 19.5628 19.7368C19.5991 16.5538 19.5786 13.3708 19.5707 10.1862C19.5604 9.99134 19.5149 9.79989 19.4362 9.62098C19.3312 9.3518 19.1729 9.1061 18.9706 8.89831C18.7683 8.69051 18.5261 8.5248 18.2583 8.41089C17.9904 8.29699 17.7023 8.2372 17.4107 8.23501C17.1192 8.23283 16.8302 8.28831 16.5606 8.39819C15.4218 8.85693 14.8207 10.277 15.2953 11.373C15.4749 11.7835 15.6101 12.2118 15.6986 12.6506C16.0292 14.4261 14.9536 16.3941 13.2817 17.1284C12.7313 17.3695 12.2283 17.2333 12.0068 16.784C11.7854 16.3346 11.9752 15.8743 12.4924 15.5659C12.6982 15.4557 12.8945 15.329 13.0793 15.187C13.5601 14.786 13.8729 14.2222 13.9568 13.6055C14.0408 12.9887 13.8897 12.3631 13.5332 11.8505C13.1775 11.3349 12.6414 10.9679 12.0285 10.8203C11.4156 10.6726 10.7692 10.7549 10.2139 11.0511C9.65857 11.3473 9.23373 11.8366 9.02126 12.4245C8.8088 13.0124 8.82375 13.6574 9.06324 14.235C9.47924 15.2214 9.32739 15.5408 8.31825 15.8884C6.7207 16.4395 5.75427 17.548 5.52491 19.2045C5.3098 20.742 5.88239 22.004 7.11613 22.9621C7.88485 23.5555 7.88802 23.5321 8.61561 22.9355C9.81298 21.9538 11.1733 21.683 12.6648 22.0979C13.1757 22.2404 13.4415 22.6725 13.3497 23.114C13.2469 23.6009 12.8325 23.8687 12.2789 23.7982C12.1634 23.7841 12.0495 23.7434 11.9341 23.7215C11.3842 23.6111 10.8128 23.6828 10.3082 23.9257C9.80355 24.1686 9.39368 24.5691 9.1418 25.0654C8.88993 25.5617 8.81004 26.1263 8.91448 26.672C9.01891 27.2177 9.30185 27.7143 9.71966 28.0851C10.8269 29.0793 12.4877 28.9196 13.4794 27.703C13.7768 27.3382 14.101 27.0924 14.5866 27.2709C15.0722 27.4494 15.1956 27.8377 15.1766 28.3058C15.1671 28.5595 15.1766 28.8147 15.1766 29.0683C15.1811 29.3919 15.2578 29.7105 15.4014 30.0012C15.545 30.292 15.7519 30.5476 16.0071 30.7498C16.2624 30.9521 16.5597 31.0958 16.8777 31.1708C17.1958 31.2458 17.5266 31.2501 17.8466 31.1835C18.881 30.9894 19.5865 30.1048 19.6007 28.9227C19.6181 27.0439 19.6007 25.1729 19.6007 23.2972C19.5937 23.1503 19.5784 23.004 19.5549 22.8588L19.5501 22.8651ZM27.753 50.1564V45.1823H13.1963C13.1963 46.701 13.1963 48.179 13.1963 49.6586C13.1963 49.8151 13.2232 49.9607 13.2422 50.1564H13.9192C15.3981 50.1564 16.877 50.1564 18.3559 50.1564C18.9759 50.1564 19.3413 50.4774 19.3587 50.9941C19.3761 51.5108 18.9965 51.9006 18.3654 51.9069C17.2012 51.9194 16.0387 51.9069 14.8745 51.9069H13.2865C13.6028 55.4516 16.9244 58.3027 20.5988 58.2432C24.2273 58.1868 27.5157 55.2684 27.6865 51.9131C26.051 51.9131 24.4166 51.9131 22.7832 51.9131C22.0429 51.9131 21.6348 51.5906 21.6348 51.0301C21.6348 50.4696 22.0318 50.158 22.7847 50.1564C24.4203 50.1549 26.0558 50.1564 27.7577 50.1564H27.753ZM17.2408 32.9919C17.9035 36.499 18.5505 39.92 19.199 43.3536H21.7898C22.4415 39.8997 23.0884 36.4646 23.7433 32.9903C23.1261 32.9976 22.5149 32.8707 21.9527 32.6186C21.3905 32.3664 20.891 31.9952 20.4897 31.5311C19.6371 32.4909 18.5947 32.9668 17.2408 32.9919Z" fill="#25A9EE"/>
</svg>
