<?xml version="1.0" encoding="utf-8"?>
<!-- Generator: Adobe Illustrator 25.2.0, SVG Export Plug-In . SVG Version: 6.00 Build 0)  -->
<svg version="1.1" id="Layer_1" xmlns="http://www.w3.org/2000/svg" xmlns:xlink="http://www.w3.org/1999/xlink" x="0px" y="0px"
	 viewBox="0 0 242.2 115.3" style="enable-background:new 0 0 242.2 115.3;" xml:space="preserve">
<style type="text/css">
	.st0{fill:#25A9EE;}
	.st1{fill:#FFFFFF;}
</style>
<path d="M20.2,31.7V19H23v10.4h5.7v2.3H20.2z M34.3,31.9c-0.9,0-1.8-0.2-2.5-0.6c-0.7-0.4-1.3-0.9-1.6-1.6c-0.4-0.7-0.6-1.5-0.6-2.4
	c0-0.9,0.2-1.7,0.6-2.4c0.4-0.7,0.9-1.2,1.6-1.6c0.7-0.4,1.5-0.6,2.5-0.6c0.9,0,1.8,0.2,2.5,0.6c0.7,0.4,1.3,0.9,1.6,1.6
	c0.4,0.7,0.6,1.5,0.6,2.4c0,0.9-0.2,1.8-0.6,2.4c-0.4,0.7-0.9,1.2-1.6,1.6C36.1,31.7,35.3,31.9,34.3,31.9z M34.3,29.8
	c1.3,0,2-0.8,2-2.5c0-0.9-0.2-1.5-0.5-1.9c-0.3-0.4-0.8-0.6-1.5-0.6c-1.3,0-2,0.8-2,2.5C32.4,28.9,33,29.8,34.3,29.8z M47.1,24.9
	l-1.5,0.2c-0.8,0.1-1.3,0.3-1.6,0.6c-0.3,0.3-0.5,0.8-0.5,1.4v4.6h-2.7v-8.8h2.6v1.5c0.4-1,1.4-1.6,2.8-1.7l0.8-0.1L47.1,24.9z
	 M55.9,27.8h-5.8c0.1,0.7,0.3,1.2,0.7,1.5c0.4,0.3,0.9,0.5,1.6,0.5c0.5,0,0.9-0.1,1.3-0.2c0.5-0.2,0.9-0.4,1.2-0.6l0.7,1.8
	c-0.4,0.3-1,0.6-1.6,0.8c-0.6,0.2-1.2,0.3-1.9,0.3c-1.5,0-2.7-0.4-3.5-1.2c-0.9-0.8-1.3-1.9-1.3-3.4c0-0.9,0.2-1.7,0.6-2.4
	c0.4-0.7,0.9-1.2,1.5-1.6c0.7-0.4,1.4-0.6,2.2-0.6c1.2,0,2.2,0.4,2.9,1.2c0.7,0.8,1.1,1.9,1.1,3.3V27.8z M51.9,24.5
	c-0.5,0-0.9,0.2-1.2,0.5c-0.3,0.3-0.5,0.8-0.6,1.4h3.5c0-0.6-0.2-1.1-0.5-1.4C52.8,24.7,52.4,24.5,51.9,24.5z M68.5,22.7
	c1,0,1.8,0.3,2.2,0.9c0.5,0.6,0.7,1.5,0.7,2.8v5.3h-2.7v-5.2c0-0.6-0.1-1-0.3-1.3c-0.2-0.3-0.5-0.4-0.9-0.4c-0.5,0-0.9,0.2-1.2,0.5
	c-0.3,0.4-0.4,0.9-0.4,1.5v4.9h-2.7v-5.2c0-0.6-0.1-1-0.3-1.3c-0.2-0.3-0.5-0.4-0.9-0.4c-0.5,0-0.9,0.2-1.2,0.5
	c-0.3,0.4-0.4,0.9-0.4,1.5v4.9h-2.7v-8.8h2.6v1.2c0.3-0.5,0.6-0.8,1.1-1c0.5-0.2,1-0.4,1.6-0.4c1.3,0,2.2,0.5,2.6,1.6
	c0.3-0.5,0.7-0.9,1.2-1.2C67.3,22.8,67.9,22.7,68.5,22.7z M78.7,31.7v-8.8h2.7v8.8H78.7z M78.6,18.6h2.9v2.5h-2.9V18.6z M89.1,22.7
	c0.8,0,1.4,0.2,2,0.6c0.6,0.4,1.1,0.9,1.4,1.6c0.3,0.7,0.5,1.5,0.5,2.4s-0.2,1.7-0.5,2.4c-0.3,0.7-0.8,1.2-1.4,1.6
	c-0.6,0.4-1.3,0.6-2,0.6c-0.6,0-1.1-0.1-1.6-0.4c-0.5-0.3-0.9-0.6-1.1-1V35h-2.7V22.9h2.7v1.2c0.3-0.5,0.6-0.8,1.1-1.1
	C87.9,22.8,88.5,22.7,89.1,22.7z M88.3,29.8c0.6,0,1.1-0.2,1.5-0.6c0.3-0.4,0.5-1.1,0.5-1.9c0-0.8-0.2-1.4-0.5-1.9
	c-0.3-0.5-0.8-0.7-1.5-0.7s-1.1,0.2-1.5,0.7c-0.3,0.4-0.5,1.1-0.5,1.9c0,0.8,0.2,1.4,0.5,1.9C87.2,29.6,87.7,29.8,88.3,29.8z
	 M98.1,31.9c-0.8,0-1.6-0.1-2.2-0.3c-0.7-0.2-1.3-0.5-1.7-0.8l0.7-1.9c0.5,0.3,1,0.6,1.6,0.8c0.6,0.2,1.2,0.3,1.7,0.3
	c0.4,0,0.7-0.1,1-0.2c0.2-0.1,0.4-0.3,0.4-0.6c0-0.2-0.1-0.4-0.3-0.5c-0.2-0.1-0.5-0.2-0.9-0.3L96.9,28c-0.9-0.2-1.5-0.5-1.9-0.9
	c-0.4-0.4-0.6-1-0.6-1.7c0-0.6,0.2-1,0.5-1.5c0.3-0.4,0.8-0.8,1.3-1c0.6-0.2,1.3-0.4,2-0.4c0.6,0,1.3,0.1,1.9,0.3
	c0.6,0.2,1.1,0.5,1.6,0.8l-0.7,1.8c-0.9-0.6-1.9-1-2.8-1c-0.4,0-0.8,0.1-1,0.2c-0.2,0.1-0.4,0.3-0.4,0.6c0,0.2,0.1,0.3,0.2,0.4
	c0.1,0.1,0.4,0.2,0.8,0.3l1.5,0.3c0.9,0.2,1.6,0.5,2,0.9c0.4,0.4,0.6,1,0.6,1.7c0,0.9-0.3,1.5-1,2C100.3,31.6,99.3,31.9,98.1,31.9z
	 M112.1,22.9v8.8h-2.6v-1.3c-0.3,0.5-0.6,0.8-1.1,1c-0.4,0.2-0.9,0.4-1.5,0.4c-1.1,0-1.9-0.3-2.5-0.9c-0.5-0.6-0.8-1.6-0.8-2.8v-5.3
	h2.7v5.3c0,0.5,0.1,0.9,0.3,1.2c0.2,0.3,0.6,0.4,1,0.4c0.5,0,1-0.2,1.3-0.5c0.3-0.4,0.5-0.8,0.5-1.4v-4.9H112.1z M125.2,22.7
	c1,0,1.8,0.3,2.2,0.9s0.7,1.5,0.7,2.8v5.3h-2.7v-5.2c0-0.6-0.1-1-0.3-1.3c-0.2-0.3-0.5-0.4-0.9-0.4c-0.5,0-0.9,0.2-1.2,0.5
	c-0.3,0.4-0.4,0.9-0.4,1.5v4.9h-2.7v-5.2c0-0.6-0.1-1-0.3-1.3c-0.2-0.3-0.5-0.4-0.9-0.4c-0.5,0-0.9,0.2-1.2,0.5
	c-0.3,0.4-0.4,0.9-0.4,1.5v4.9h-2.7v-8.8h2.6v1.2c0.3-0.5,0.6-0.8,1.1-1c0.5-0.2,1-0.4,1.6-0.4c1.3,0,2.2,0.5,2.6,1.6
	c0.3-0.5,0.7-0.9,1.2-1.2C124,22.8,124.6,22.7,125.2,22.7z"/>
<path d="M44,68.3c2,0.6,3.5,1.6,4.5,3c1.1,1.4,1.6,3.1,1.6,5.2c0,3-1.2,5.4-3.5,7.1c-2.3,1.7-5.5,2.5-9.6,2.5s-7.2-0.8-9.6-2.5
	c-2.3-1.7-3.5-4-3.5-7.1c0-2.1,0.5-3.9,1.6-5.3c1.1-1.4,2.6-2.4,4.6-2.9c-1.7-0.6-3-1.6-3.9-3C25.4,64,25,62.4,25,60.6
	c0-2.8,1.1-5,3.3-6.7c2.2-1.7,5.1-2.5,8.9-2.5c3.8,0,6.7,0.8,8.9,2.4c2.2,1.6,3.3,3.9,3.3,6.7c0,1.8-0.5,3.4-1.4,4.8
	C47,66.8,45.7,67.8,44,68.3z M37.1,57.2c-3.4,0-5.1,1.4-5.1,4.3c0,2.9,1.7,4.3,5.1,4.3s5.1-1.4,5.1-4.3
	C42.3,58.6,40.6,57.2,37.1,57.2z M37.1,80.4c4,0,6-1.5,6-4.5s-2-4.5-6-4.5s-6,1.5-6,4.5S33.1,80.4,37.1,80.4z M66.2,86.2
	c-4.1,0-7.2-1.5-9.4-4.5c-2.1-3-3.2-7.3-3.2-12.9c0-5.6,1.1-9.8,3.3-12.8c2.2-3,5.3-4.5,9.4-4.5s7.2,1.5,9.4,4.5
	c2.2,2.9,3.3,7.2,3.3,12.8c0,5.6-1.1,9.9-3.3,12.9C73.4,84.7,70.2,86.2,66.2,86.2z M66.2,80.4c1.9,0,3.2-0.9,4-2.8
	c0.9-1.9,1.3-4.8,1.3-8.9c0-4-0.4-7-1.3-8.8c-0.8-1.8-2.2-2.7-4-2.7c-1.9,0-3.2,0.9-4.1,2.7c-0.8,1.8-1.2,4.8-1.2,8.8
	c0,4.1,0.4,7,1.2,8.9C62.9,79.5,64.3,80.4,66.2,80.4z M89.7,66.5c-2.7,0-4.7-0.7-6.1-2.1c-1.4-1.4-2.1-3.2-2.1-5.3
	c0-2.1,0.7-3.9,2.1-5.3c1.4-1.4,3.5-2.1,6.1-2.1c2.7,0,4.7,0.7,6.1,2.1c1.4,1.4,2.1,3.2,2.1,5.3c0,2.1-0.7,3.9-2.1,5.3
	C94.5,65.8,92.4,66.5,89.7,66.5z M89.7,61.8c0.8,0,1.4-0.2,1.8-0.7c0.4-0.5,0.7-1.2,0.7-2.1c0-0.9-0.2-1.6-0.7-2.1
	c-0.4-0.5-1-0.7-1.8-0.7c-1.6,0-2.4,0.9-2.4,2.8c0,0.9,0.2,1.6,0.6,2.1C88.4,61.6,89,61.8,89.7,61.8z"/>
<path class="st0" d="M140.3,56.7h69c5.5,0,10,4.5,10,10v7c0,5.5-4.5,10-10,10h-69c-5.5,0-10-4.5-10-10v-7
	C130.3,61.2,134.8,56.7,140.3,56.7z"/>
<path class="st1" d="M154.3,69.9v1.3h-3.7V75h-1.3v-3.7h-3.7v-1.3h3.7v-3.7h1.3v3.7H154.3z M168.7,74.2h2.8v1.5h-7.4v-1.5h2.8v-8.9
	l-2.2,1.3l-0.8-1.4l3.5-2.2h1.3V74.2z M179.6,67.7c0.8,0,1.5,0.2,2.1,0.5c0.6,0.3,1.1,0.8,1.4,1.4c0.3,0.6,0.5,1.3,0.5,2.1
	c0,0.8-0.2,1.5-0.6,2.2c-0.4,0.6-0.9,1.1-1.6,1.5c-0.7,0.3-1.5,0.5-2.4,0.5c-0.8,0-1.6-0.1-2.3-0.4c-0.8-0.3-1.4-0.6-1.9-1.1
	l0.6-1.4c1.1,0.9,2.3,1.4,3.6,1.4c0.8,0,1.5-0.2,2-0.7c0.5-0.5,0.7-1.1,0.7-1.9c0-0.8-0.2-1.4-0.7-1.9s-1.1-0.7-1.9-0.7
	c-1.1,0-2,0.4-2.8,1.3h-1.2V63h7.8v1.5h-5.9v4C177.7,68,178.6,67.7,179.6,67.7z M190.6,76.2l-1.3-0.7l7.5-12.9l1.3,0.7L190.6,76.2z
	 M189.3,70.6c-1,0-1.7-0.3-2.3-1c-0.6-0.7-0.8-1.6-0.8-2.9c0-1.3,0.3-2.2,0.8-2.9c0.6-0.7,1.3-1,2.3-1c1,0,1.8,0.3,2.3,1
	c0.6,0.6,0.8,1.6,0.8,2.9c0,1.3-0.3,2.3-0.8,2.9C191,70.3,190.2,70.6,189.3,70.6z M189.3,69.4c0.5,0,0.9-0.2,1.2-0.6
	c0.3-0.4,0.4-1.1,0.4-2c0-0.9-0.1-1.6-0.4-2c-0.3-0.4-0.6-0.6-1.2-0.6s-0.9,0.2-1.2,0.6c-0.2,0.4-0.4,1.1-0.4,2c0,0.9,0.1,1.6,0.4,2
	C188.3,69.2,188.7,69.4,189.3,69.4z M198.1,75.8c-1,0-1.8-0.3-2.3-1c-0.6-0.7-0.8-1.6-0.8-2.9c0-1.3,0.3-2.2,0.8-2.9
	c0.6-0.7,1.3-1,2.3-1c1,0,1.7,0.3,2.3,1c0.6,0.6,0.8,1.6,0.8,2.9c0,1.3-0.3,2.2-0.8,2.9C199.9,75.5,199.1,75.8,198.1,75.8z
	 M198.1,74.6c0.5,0,0.9-0.2,1.2-0.6c0.3-0.4,0.4-1.1,0.4-2c0-0.9-0.1-1.6-0.4-2c-0.3-0.4-0.6-0.6-1.2-0.6c-0.5,0-0.9,0.2-1.2,0.6
	s-0.4,1.1-0.4,2c0,0.9,0.1,1.6,0.4,2C197.2,74.4,197.6,74.6,198.1,74.6z"/>
</svg>
