<svg width="320" height="94" viewBox="0 0 320 94" fill="none" xmlns="http://www.w3.org/2000/svg">
<path d="M0 15C0 6.71573 6.71573 0 15 0H305C313.284 0 320 6.71573 320 15V79C320 87.2843 313.284 94 305 94H15C6.71573 94 0 87.2843 0 79V15Z" fill="#222222"/>
<path fill-rule="evenodd" clip-rule="evenodd" d="M305 1.5H15C7.54416 1.5 1.5 7.54415 1.5 15V79C1.5 86.4558 7.54416 92.5 15 92.5H305C312.456 92.5 318.5 86.4558 318.5 79V15C318.5 7.54416 312.456 1.5 305 1.5ZM15 0C6.71573 0 0 6.71573 0 15V79C0 87.2843 6.71573 94 15 94H305C313.284 94 320 87.2843 320 79V15C320 6.71573 313.284 0 305 0H15Z" fill="#343434"/>
<path d="M90.9338 18.3101H92.7518V31.0001H90.6998V22.6121L87.3518 28.9481H85.8038L82.4378 22.7021L82.4558 31.0001H80.4038V18.3101H82.2398L86.5958 26.6081L90.9338 18.3101Z" fill="white"/>
<path d="M103.567 27.0041H97.5726C97.6446 27.8201 97.8906 28.4261 98.3106 28.8221C98.7306 29.2181 99.3306 29.4161 100.111 29.4161C101.083 29.4161 101.971 29.1041 102.775 28.4801L103.423 30.0281C103.015 30.3641 102.499 30.6341 101.875 30.8381C101.263 31.0421 100.645 31.1441 100.021 31.1441C98.5806 31.1441 97.4406 30.7361 96.6006 29.9201C95.7726 29.1041 95.3586 27.9881 95.3586 26.5721C95.3586 25.6721 95.5386 24.8741 95.8986 24.1781C96.2586 23.4821 96.7626 22.9421 97.4106 22.5581C98.0706 22.1741 98.8146 21.9821 99.6426 21.9821C100.855 21.9821 101.809 22.3721 102.505 23.1521C103.213 23.9321 103.567 25.0061 103.567 26.3741V27.0041ZM99.6966 23.5661C99.0966 23.5661 98.6106 23.7581 98.2386 24.1421C97.8786 24.5261 97.6566 25.0781 97.5726 25.7981H101.641C101.617 25.0661 101.437 24.5141 101.101 24.1421C100.765 23.7581 100.297 23.5661 99.6966 23.5661Z" fill="white"/>
<path d="M116.405 21.9821C117.401 21.9821 118.145 22.2821 118.637 22.8821C119.129 23.4701 119.375 24.3761 119.375 25.6001V31.0001H117.125V25.6901C117.125 25.0181 117.011 24.5321 116.783 24.2321C116.555 23.9201 116.189 23.7641 115.685 23.7641C115.085 23.7641 114.617 23.9681 114.281 24.3761C113.945 24.7841 113.777 25.3541 113.777 26.0861V31.0001H111.527V25.6901C111.527 25.0181 111.413 24.5321 111.185 24.2321C110.969 23.9201 110.603 23.7641 110.087 23.7641C109.499 23.7641 109.037 23.9681 108.701 24.3761C108.365 24.7841 108.197 25.3541 108.197 26.0861V31.0001H105.947V22.1981H108.143V23.4401C108.407 22.9601 108.773 22.6001 109.241 22.3601C109.709 22.1081 110.243 21.9821 110.843 21.9821C112.175 21.9821 113.057 22.5341 113.489 23.6381C113.765 23.1221 114.161 22.7201 114.677 22.4321C115.193 22.1321 115.769 21.9821 116.405 21.9821Z" fill="white"/>
<path d="M126.216 31.1441C125.316 31.1441 124.524 30.9581 123.84 30.5861C123.168 30.2141 122.646 29.6801 122.274 28.9841C121.902 28.2881 121.716 27.4781 121.716 26.5541C121.716 25.6301 121.902 24.8261 122.274 24.1421C122.646 23.4461 123.168 22.9121 123.84 22.5401C124.524 22.1681 125.316 21.9821 126.216 21.9821C127.116 21.9821 127.902 22.1681 128.574 22.5401C129.258 22.9121 129.78 23.4461 130.14 24.1421C130.512 24.8261 130.698 25.6301 130.698 26.5541C130.698 27.4781 130.512 28.2881 130.14 28.9841C129.78 29.6801 129.258 30.2141 128.574 30.5861C127.902 30.9581 127.116 31.1441 126.216 31.1441ZM126.198 29.3981C126.93 29.3981 127.488 29.1581 127.872 28.6781C128.256 28.1981 128.448 27.4901 128.448 26.5541C128.448 25.6301 128.256 24.9281 127.872 24.4481C127.488 23.9561 126.936 23.7101 126.216 23.7101C125.496 23.7101 124.938 23.9561 124.542 24.4481C124.158 24.9281 123.966 25.6301 123.966 26.5541C123.966 27.4901 124.158 28.1981 124.542 28.6781C124.926 29.1581 125.478 29.3981 126.198 29.3981Z" fill="white"/>
<path d="M138.891 23.8541L137.577 23.9801C136.089 24.1361 135.345 24.8921 135.345 26.2481V31.0001H133.095V22.1981H135.237V23.7461C135.693 22.6901 136.635 22.1141 138.063 22.0181L138.747 21.9641L138.891 23.8541Z" fill="white"/>
<path d="M140.526 31.0001V22.1981H142.776V31.0001H140.526ZM140.4 18.1121H142.884V20.3261H140.4V18.1121Z" fill="white"/>
<path d="M149.416 21.9821C150.652 21.9821 151.57 22.2821 152.17 22.8821C152.77 23.4821 153.07 24.4061 153.07 25.6541V31.0001H150.928V29.6501C150.724 30.1181 150.4 30.4841 149.956 30.7481C149.524 31.0121 149.02 31.1441 148.444 31.1441C147.856 31.1441 147.322 31.0241 146.842 30.7841C146.362 30.5441 145.984 30.2141 145.708 29.7941C145.432 29.3741 145.294 28.9061 145.294 28.3901C145.294 27.7421 145.456 27.2321 145.78 26.8601C146.116 26.4881 146.656 26.2181 147.4 26.0501C148.144 25.8821 149.17 25.7981 150.478 25.7981H150.928V25.3841C150.928 24.7841 150.796 24.3521 150.532 24.0881C150.28 23.8241 149.854 23.6921 149.254 23.6921C148.786 23.6921 148.294 23.7761 147.778 23.9441C147.274 24.1001 146.776 24.3221 146.284 24.6101L145.654 23.0621C146.146 22.7501 146.74 22.4921 147.436 22.2881C148.132 22.0841 148.792 21.9821 149.416 21.9821ZM148.894 29.5241C149.494 29.5241 149.98 29.3261 150.352 28.9301C150.736 28.5221 150.928 28.0001 150.928 27.3641V26.9861H150.604C149.8 26.9861 149.176 27.0221 148.732 27.0941C148.288 27.1661 147.97 27.2921 147.778 27.4721C147.586 27.6521 147.49 27.8981 147.49 28.2101C147.49 28.5941 147.622 28.9121 147.886 29.1641C148.15 29.4041 148.486 29.5241 148.894 29.5241Z" fill="white"/>
<path d="M264.787 29.7581H267.577V31.0001H260.521V29.7581H263.311V20.1461L261.079 21.5501L260.395 20.4161L263.725 18.3101H264.787V29.7581Z" fill="#3E3E3E"/>
<path d="M275.454 23.0441C276.258 23.0441 276.954 23.2121 277.542 23.5481C278.142 23.8841 278.604 24.3581 278.927 24.9701C279.251 25.5701 279.413 26.2661 279.413 27.0581C279.413 27.8621 279.234 28.5701 278.874 29.1821C278.526 29.7941 278.027 30.2741 277.379 30.6221C276.731 30.9581 275.975 31.1261 275.111 31.1261C274.343 31.1261 273.582 30.9881 272.826 30.7121C272.082 30.4241 271.452 30.0401 270.936 29.5601L271.493 28.4261C272.669 29.3981 273.875 29.8841 275.111 29.8841C275.999 29.8841 276.696 29.6321 277.2 29.1281C277.704 28.6241 277.955 27.9401 277.955 27.0761C277.955 26.2361 277.704 25.5581 277.2 25.0421C276.708 24.5261 276.047 24.2681 275.219 24.2681C274.007 24.2681 273.042 24.7601 272.322 25.7441H271.295V18.3101H278.91V19.5341H272.753V24.0521C273.089 23.7281 273.485 23.4821 273.941 23.3141C274.409 23.1341 274.914 23.0441 275.454 23.0441Z" fill="#3E3E3E"/>
<path d="M281.98 22.2341H283.816V24.0881H281.98V22.2341ZM281.98 29.1641H283.816V31.0001H281.98V29.1641Z" fill="#3E3E3E"/>
<path d="M295.652 27.0221V28.2461H293.744V31.0001H292.286V28.2461H286.418V27.1301L292.538 18.3101H293.744V27.0221H295.652ZM287.948 27.0221H292.286V20.7761L287.948 27.0221Z" fill="#3E3E3E"/>
<path d="M302.773 23.0441C303.577 23.0441 304.273 23.2121 304.861 23.5481C305.461 23.8841 305.923 24.3581 306.247 24.9701C306.571 25.5701 306.733 26.2661 306.733 27.0581C306.733 27.8621 306.553 28.5701 306.193 29.1821C305.845 29.7941 305.347 30.2741 304.699 30.6221C304.051 30.9581 303.295 31.1261 302.431 31.1261C301.663 31.1261 300.901 30.9881 300.145 30.7121C299.401 30.4241 298.771 30.0401 298.255 29.5601L298.813 28.4261C299.989 29.3981 301.195 29.8841 302.431 29.8841C303.319 29.8841 304.015 29.6321 304.519 29.1281C305.023 28.6241 305.275 27.9401 305.275 27.0761C305.275 26.2361 305.023 25.5581 304.519 25.0421C304.027 24.5261 303.367 24.2681 302.539 24.2681C301.327 24.2681 300.361 24.7601 299.641 25.7441H298.615V18.3101H306.229V19.5341H300.073V24.0521C300.409 23.7281 300.805 23.4821 301.261 23.3141C301.729 23.1341 302.233 23.0441 302.773 23.0441Z" fill="#3E3E3E"/>
<path d="M14 22C14 19.2386 16.2386 17 19 17H67C69.7614 17 72 19.2386 72 22V70C72 72.7614 69.7614 75 67 75H19C16.2386 75 14 72.7614 14 70V22Z" fill="url(#paint0_linear)"/>
<path d="M22.7002 49.2479C22.9251 48.9288 23.1684 48.6231 23.429 48.3324C30.7681 40.9852 38.1106 33.644 45.4565 26.309C46.2583 25.497 46.8572 25.497 47.6489 26.309C48.0549 26.7149 48.4609 27.1392 48.8851 27.5777C49.0881 27.3889 49.2485 27.2224 49.4231 27.0682C49.9387 26.6114 50.5761 26.5992 51.0633 27.0803C52.7726 28.772 54.473 30.4718 56.1647 32.1797C56.4976 32.5126 56.4875 32.8049 56.1647 33.1521C56.0226 33.3084 55.8622 33.4484 55.7262 33.6108C55.6477 33.7025 55.6066 33.8203 55.6109 33.9409C55.6152 34.0615 55.6646 34.1761 55.7494 34.2619C55.8343 34.3477 55.9482 34.3986 56.0688 34.4043C56.1893 34.4101 56.3076 34.3703 56.4002 34.2929C56.5321 34.1833 56.6478 34.0554 56.7717 33.9356C57.204 33.5114 57.4903 33.5073 57.9186 33.9356C59.2056 35.2118 60.4886 36.4887 61.7675 37.7663C62.1329 38.1296 62.5003 38.491 62.8596 38.8604C63.4382 39.4491 63.4503 40.0926 62.8759 40.6691C61.2925 42.2634 59.7043 43.8522 58.1115 45.4356C57.7846 45.7604 57.4294 45.7989 57.1675 45.5553C56.9056 45.3117 56.9036 44.9463 57.2548 44.585C58.7651 43.0693 60.2781 41.5556 61.7939 40.0439C61.8771 39.9607 61.9542 39.8714 62.0131 39.8105L57.3259 35.1151C56.9199 35.4845 56.3799 35.7383 55.779 35.582C55.4372 35.4909 55.1234 35.3165 54.8655 35.0745C54.224 34.4655 54.2565 33.7326 54.8878 32.6649C53.3349 31.1099 51.784 29.5569 50.1255 27.9025C50.0634 28.041 49.9843 28.1713 49.89 28.2902C43.4292 34.7578 36.9643 41.2233 30.4954 47.6868C30.3798 47.812 30.2534 47.9268 30.1178 48.0299C30.0089 48.1203 29.8693 48.165 29.7282 48.1548C29.5871 48.1446 29.4553 48.0802 29.3606 47.9751C29.2498 47.8773 29.182 47.7399 29.1717 47.5925C29.1615 47.4451 29.2096 47.2996 29.3058 47.1875C29.4044 47.0631 29.5131 46.947 29.6306 46.8403C35.6475 40.8275 41.6651 34.8133 47.6834 28.7977C47.7886 28.7009 47.8998 28.6107 48.0163 28.5277L46.5141 27.0337L45.8422 27.7117C46.0066 27.8822 46.2096 28.0832 46.4004 28.2943C46.6948 28.6171 46.7049 28.95 46.439 29.2058C46.173 29.4615 45.8462 29.427 45.5539 29.1509C45.3509 28.9622 45.1763 28.7449 45.0139 28.5683L43.7756 29.8046C43.9299 29.9345 44.1431 30.0908 44.3278 30.2756C44.6505 30.5983 44.681 30.9617 44.4293 31.2175C44.1776 31.4733 43.8203 31.4651 43.4874 31.1403C43.2986 30.9597 43.126 30.7607 42.9352 30.5577C42.8236 30.6572 42.7545 30.714 42.6896 30.777L41.6746 31.7311C41.9182 31.9523 42.1232 32.1168 42.3039 32.3035C42.6388 32.6446 42.6652 32.9714 42.4013 33.2434C42.1374 33.5154 41.7923 33.4728 41.4574 33.1622C41.3585 33.0745 41.2649 32.981 41.1772 32.8821C41.0899 32.7826 41.0189 32.6791 40.9377 32.5613C40.826 32.6547 40.7733 32.6933 40.7347 32.74C40.4018 33.0607 40.0729 33.3835 39.673 33.7712C39.876 33.9559 40.079 34.1123 40.2414 34.2848C40.6088 34.6522 40.6474 35.0156 40.3693 35.2836C40.0912 35.5515 39.7603 35.5048 39.3989 35.1496C39.2305 34.9831 39.0701 34.8085 38.8305 34.5589C38.6275 34.7923 38.455 35.0055 38.2642 35.2003C38.0734 35.3952 37.8785 35.5536 37.6329 35.7748C37.8988 36.0245 38.1221 36.2113 38.317 36.4204C38.5951 36.7188 38.5971 37.0578 38.3494 37.3034C38.1018 37.549 37.7587 37.5287 37.4623 37.2628C37.3547 37.1654 37.2593 37.0598 37.1538 36.9543C37.0482 36.8487 36.9792 36.7513 36.9142 36.6802L35.6759 37.9388C35.8887 38.0915 36.0921 38.2569 36.2849 38.4341C36.5712 38.7224 36.5793 39.0675 36.3438 39.3151C36.1083 39.5628 35.7348 39.5689 35.4344 39.2745C35.2314 39.0837 35.0669 38.8685 34.9106 38.6818L33.6439 39.9099C33.8347 40.0804 34.0641 40.2611 34.2631 40.4682C34.3254 40.5229 34.3759 40.5897 34.4115 40.6646C34.4471 40.7395 34.4671 40.8208 34.4701 40.9037C34.4731 40.9866 34.4592 41.0692 34.4292 41.1465C34.3992 41.2238 34.3537 41.2942 34.2955 41.3533C34.0479 41.5948 33.7068 41.5887 33.4105 41.3106C33.2075 41.1218 33.0288 40.9046 32.8745 40.7402L31.6322 41.9805C31.841 42.1407 32.0409 42.3121 32.231 42.4941C32.5173 42.7864 32.5193 43.1254 32.2757 43.3751C32.217 43.4334 32.1471 43.479 32.0702 43.5094C31.9934 43.5397 31.9111 43.5541 31.8285 43.5516C31.7459 43.5491 31.6646 43.5299 31.5897 43.495C31.5148 43.4601 31.4477 43.4104 31.3926 43.3487C31.1896 43.1457 31.0069 42.9164 30.8283 42.7113L29.588 43.9476C29.791 44.1323 30.0183 44.3171 30.2152 44.5282C30.2753 44.5815 30.3243 44.6461 30.3593 44.7184C30.3943 44.7907 30.4146 44.8692 30.4191 44.9494C30.4237 45.0296 30.4123 45.1099 30.3856 45.1857C30.359 45.2614 30.3177 45.3312 30.264 45.3909C30.2093 45.4541 30.1416 45.5048 30.0656 45.5395C29.9896 45.5743 29.907 45.5922 29.8235 45.5922C29.7399 45.5922 29.6573 45.5743 29.5813 45.5395C29.5053 45.5048 29.4376 45.4541 29.3829 45.3909C29.1492 45.1519 28.9276 44.9012 28.7191 44.6398C28.4918 44.9098 28.3334 45.1189 28.1568 45.3077C27.9802 45.4965 27.7772 45.6751 27.5478 45.8903C27.7508 46.1095 27.9538 46.2963 28.1325 46.4993C28.4532 46.8403 28.4776 47.1773 28.2055 47.4412C27.9335 47.7051 27.5965 47.6605 27.29 47.3641C27.0992 47.1834 26.9287 46.9804 26.681 46.7226C26.4679 46.956 26.2913 47.1631 26.0984 47.3539C25.9056 47.5447 25.7066 47.7071 25.4468 47.9406C25.7127 48.1801 25.938 48.3588 26.1349 48.5679C26.409 48.8582 26.4191 49.2154 26.1857 49.4529C25.9523 49.6905 25.597 49.7026 25.2722 49.4083C25.1646 49.3108 25.0692 49.2053 24.9616 49.1018C24.854 48.9982 24.7708 48.9251 24.6937 48.8521L24.042 49.5321L25.5117 50.9836C25.9035 50.5776 26.3522 50.1269 26.8069 49.6702C26.9161 49.5532 27.0364 49.4471 27.1662 49.3535C27.272 49.2701 27.405 49.2292 27.5394 49.2385C27.6737 49.2479 27.7997 49.307 27.8929 49.4042C28.0052 49.491 28.0787 49.6186 28.0973 49.7593C28.116 49.9 28.0782 50.0423 27.9924 50.1553C27.8714 50.3141 27.7355 50.461 27.5864 50.5938C26.8048 51.3814 26.0172 52.165 25.2336 52.9506C25.1423 53.042 25.055 53.1374 24.9839 53.2105C26.5552 54.7837 28.1061 56.3326 29.6529 57.8795C30.5543 57.1466 31.5307 57.2908 32.1316 57.9058C32.773 58.5615 32.7629 59.3268 32.1316 60.3094L36.8757 65.0433C36.9472 64.9244 37.0294 64.8123 37.1213 64.7084C42.9406 58.889 48.7599 53.0697 54.5793 47.2504C54.6956 47.1251 54.8234 47.011 54.9609 46.9094C55.0739 46.8381 55.2077 46.8074 55.3404 46.8222C55.4731 46.837 55.5968 46.8966 55.6913 46.991C55.7857 47.0854 55.8452 47.2092 55.86 47.3419C55.8749 47.4746 55.8441 47.6084 55.7729 47.7214C55.6965 47.828 55.6101 47.9273 55.5151 48.0177C49.5916 53.9413 43.6667 59.8634 37.7404 65.7843C37.5243 65.9741 37.2935 66.1465 37.0502 66.2999H36.5042C36.3168 66.2082 36.1398 66.0966 35.9764 65.967C34.2536 64.2618 32.5403 62.5525 30.8364 60.8392C30.5157 60.5164 30.5319 60.2018 30.8364 59.8628C30.9887 59.6963 31.1633 59.5501 31.2972 59.3735C31.3397 59.3304 31.372 59.2784 31.3917 59.2212C31.4115 59.164 31.4182 59.1031 31.4114 59.0429C31.4046 58.9828 31.3844 58.925 31.3524 58.8736C31.3203 58.8223 31.2772 58.7788 31.2262 58.7463C31.1316 58.7009 31.0286 58.6757 30.9238 58.6722C30.819 58.6687 30.7146 58.687 30.6172 58.726C30.4142 58.8072 30.2924 59.0244 30.1259 59.1746C29.7788 59.4872 29.4844 59.4974 29.1515 59.1746C27.4463 57.4775 25.7472 55.7771 24.0542 54.0732C23.5731 53.588 23.5853 52.9466 24.04 52.435C24.1963 52.2604 24.3628 52.096 24.4947 51.958L22.7002 49.8853V49.2479Z" fill="white"/>
<path d="M38.0829 47.1436C38.5518 46.7376 38.8644 46.6869 39.1405 46.9548C39.4166 47.2228 39.3801 47.5192 38.9761 48.0206L39.9769 48.9747C40.527 48.5971 40.7889 48.5687 41.0528 48.8732C41.2862 49.1493 41.2294 49.4355 40.866 49.8638L41.8343 50.7956C42.0843 50.7004 42.3407 50.6231 42.6017 50.5642C42.6971 50.5459 42.8432 50.6637 42.9244 50.755C43.1701 51.025 43.1051 51.3051 42.7032 51.7801L43.7669 52.7139C44.0227 52.5109 44.3759 52.1861 44.8002 52.6267C45.058 52.8946 45.0032 53.1301 44.5972 53.668C44.6054 53.6919 44.617 53.7145 44.6317 53.735C45.4964 54.6993 45.4863 55.0708 44.5647 55.9904L42.0617 58.4771C41.3106 59.2282 40.799 59.2343 40.0317 58.5055C39.985 58.4609 39.9343 58.4223 39.9403 58.4264C39.6441 58.5697 39.3397 58.6958 39.0289 58.8039C38.9396 58.8283 38.7812 58.7227 38.6939 58.6375C38.4118 58.3614 38.4909 58.0488 38.9761 57.5047L37.9266 56.5709C37.3541 57.0094 37.0821 57.0663 36.806 56.7618C36.53 56.4573 36.603 56.2055 37.0882 55.6412L36.0732 54.677C35.5292 55.1276 35.2612 55.1926 34.9669 54.9145C34.6725 54.6364 34.7354 54.3278 35.2003 53.7817L34.2076 52.7911C33.9052 53.0469 33.5682 53.4671 33.079 53.0184C32.7887 52.7525 32.876 52.4703 33.3591 51.8695C32.8069 51.1143 32.8414 50.6515 33.5032 49.9978L36.1646 47.3345C36.8649 46.624 37.2709 46.5834 38.0829 47.1436ZM43.8724 54.8576L37.1471 48.1343C36.2214 49.062 35.2531 50.0323 34.3376 50.9458L41.0528 57.659L43.8724 54.8576Z" fill="white"/>
<path d="M39.6731 47.2972L38.6844 46.3126C38.3373 46.5928 37.9638 47.0617 37.501 46.5461C37.095 46.1015 37.4847 45.7523 37.7933 45.4478C37.231 44.5587 37.2736 44.2116 38.0227 43.4625L40.6008 40.8844C41.291 40.1962 41.6949 40.1536 42.5049 40.6814C43.0388 40.2998 43.3169 40.2571 43.5828 40.515C43.8488 40.7728 43.8102 41.0691 43.4022 41.5909L44.3806 42.5592C44.9186 42.1532 45.2089 42.1166 45.4748 42.4049C45.7407 42.6931 45.6778 42.9631 45.284 43.4645L46.299 44.3963C46.8207 44.0329 47.0968 43.9903 47.3546 44.2826C47.6124 44.5749 47.5576 44.8531 47.1516 45.3118L48.1361 46.2842C48.7147 45.9249 48.9745 45.8782 49.2161 46.1482C49.4576 46.4182 49.4191 46.7186 49.0131 47.218C49.1328 47.3439 49.2587 47.4718 49.3764 47.6078C49.7824 48.0706 49.8129 48.6837 49.3927 49.1181C48.3533 50.1899 47.2984 51.2462 46.2279 52.2869C45.7773 52.7234 45.1662 52.6929 44.6871 52.2666C44.5613 52.155 44.4395 52.0352 44.3177 51.9215C43.6925 52.4128 43.4204 52.4757 43.1423 52.2016C42.8642 51.9276 42.9271 51.6393 43.3859 51.0608L42.4318 50.1168C42.1769 50.2603 41.9116 50.3845 41.6381 50.4883C41.5386 50.5188 41.362 50.4051 41.2625 50.3137C40.9804 50.0498 41.0433 49.7981 41.5305 49.1506L40.5297 48.2046C40.2069 48.4441 39.8456 48.9313 39.3503 48.3974C39.0844 48.1173 39.1676 47.8696 39.6731 47.2972ZM48.3066 48.4157L41.5934 41.7025L38.7372 44.5222L45.4728 51.2577L48.3066 48.4157Z" fill="white"/>
<path d="M49.9427 33.2679C50.4523 32.8619 50.7669 32.8152 51.0328 33.0933C51.2988 33.3714 51.2358 33.6718 50.8765 34.1083L51.853 35.0583C52.081 34.9565 52.3165 34.8723 52.5574 34.8066C52.6548 34.7843 52.8091 34.8838 52.8984 34.967C53.1704 35.2228 53.1176 35.4988 52.7319 36.0266L53.6881 37.0092C54.2402 36.6032 54.5001 36.5585 54.768 36.8265C55.036 37.0944 55.0035 37.3908 54.5935 37.9003L55.6085 38.8402C56.1423 38.485 56.4103 38.4484 56.6641 38.7245C56.9178 39.0006 56.8549 39.2848 56.4611 39.7903C56.5808 39.9202 56.7087 40.0501 56.8265 40.1963C57.0238 40.3981 57.1344 40.6691 57.1344 40.9514C57.1344 41.2337 57.0238 41.5048 56.8265 41.7066C55.7871 42.7757 54.7322 43.83 53.6617 44.8693C53.4588 45.0654 53.1877 45.175 52.9055 45.175C52.6234 45.175 52.3522 45.0654 52.1493 44.8693C52.0113 44.7516 51.8834 44.6217 51.7433 44.4999C51.108 45.0074 50.8603 45.0642 50.572 44.782C50.2838 44.4999 50.3345 44.2299 50.8319 43.6168L49.8392 42.7114C49.5778 42.8471 49.3063 42.9624 49.0272 43.0565C48.9298 43.0849 48.7552 42.9631 48.6618 42.8657C48.3999 42.6018 48.475 42.3359 48.9562 41.733L47.9412 40.7992C47.3159 41.2458 47.048 41.2985 46.7841 41.0022C46.5202 40.7058 46.5811 40.4358 47.0743 39.8715L46.033 38.9295C45.4788 39.3843 45.221 39.4431 44.9347 39.1589C44.6485 38.8747 44.7135 38.5844 45.1824 38.0039C44.6384 37.0822 44.679 36.7859 45.4503 36.0104C46.3178 35.1416 47.186 34.2734 48.0548 33.4059C48.7329 32.7563 49.1937 32.7198 49.9427 33.2679ZM55.7891 40.9433L49.0678 34.226C48.1178 35.1781 47.1454 36.1566 46.2258 37.068L52.9471 43.7894L55.7891 40.9433Z" fill="white"/>
<path d="M89.0162 53L87.7682 50.104H81.8802L80.6322 53H79.2882L84.2482 41.72H85.3842L90.3442 53H89.0162ZM82.3442 49.016H87.3042L84.8242 43.24L82.3442 49.016Z" fill="#7B7B7B"/>
<path d="M92.3052 53V41.72H93.6012V53H92.3052Z" fill="#7B7B7B"/>
<path d="M99.9279 52.072C100.163 52.072 100.397 52.056 100.632 52.024L100.568 53.048C100.323 53.0907 100.056 53.112 99.7679 53.112C98.8292 53.112 98.1199 52.8667 97.6399 52.376C97.1706 51.8854 96.9359 51.2027 96.9359 50.328V46.232H95.4159V45.208H96.9359V42.84H98.2319V45.208H100.44V46.232H98.2319V50.232C98.2319 51.4587 98.7972 52.072 99.9279 52.072Z" fill="#7B7B7B"/>
<path d="M105.653 53.112C104.917 53.112 104.267 52.9467 103.701 52.616C103.147 52.2854 102.715 51.816 102.405 51.208C102.107 50.5894 101.957 49.8747 101.957 49.064C101.957 48.2534 102.107 47.544 102.405 46.936C102.715 46.3174 103.147 45.8427 103.701 45.512C104.267 45.1814 104.917 45.016 105.653 45.016C106.389 45.016 107.04 45.1814 107.605 45.512C108.171 45.8427 108.603 46.3174 108.901 46.936C109.211 47.544 109.365 48.2534 109.365 49.064C109.365 49.8747 109.211 50.5894 108.901 51.208C108.603 51.816 108.171 52.2854 107.605 52.616C107.04 52.9467 106.389 53.112 105.653 53.112ZM105.653 52.04C106.421 52.04 107.008 51.7894 107.413 51.288C107.829 50.776 108.037 50.0347 108.037 49.064C108.037 48.1147 107.829 47.384 107.413 46.872C106.997 46.3494 106.411 46.088 105.653 46.088C104.896 46.088 104.309 46.3494 103.893 46.872C103.477 47.384 103.269 48.1147 103.269 49.064C103.269 50.024 103.472 50.76 103.877 51.272C104.293 51.784 104.885 52.04 105.653 52.04Z" fill="#7B7B7B"/>
<path d="M119.677 53.112C118.909 53.112 118.243 52.9467 117.677 52.616C117.112 52.2854 116.675 51.8214 116.365 51.224C116.067 50.616 115.917 49.9067 115.917 49.096C115.917 48.2854 116.072 47.576 116.381 46.968C116.701 46.3494 117.144 45.8694 117.709 45.528C118.285 45.1867 118.957 45.016 119.725 45.016C120.248 45.016 120.76 45.112 121.261 45.304C121.763 45.4854 122.168 45.7307 122.477 46.04L122.045 47C121.309 46.4027 120.563 46.104 119.805 46.104C119.005 46.104 118.381 46.3654 117.933 46.888C117.485 47.4107 117.261 48.1467 117.261 49.096C117.261 50.0347 117.485 50.76 117.933 51.272C118.381 51.784 119.005 52.04 119.805 52.04C120.563 52.04 121.309 51.7414 122.045 51.144L122.477 52.104C122.147 52.4134 121.731 52.6587 121.229 52.84C120.728 53.0214 120.211 53.112 119.677 53.112Z" fill="#7B7B7B"/>
<path d="M127.75 53.112C127.014 53.112 126.363 52.9467 125.798 52.616C125.243 52.2854 124.811 51.816 124.502 51.208C124.203 50.5894 124.054 49.8747 124.054 49.064C124.054 48.2534 124.203 47.544 124.502 46.936C124.811 46.3174 125.243 45.8427 125.798 45.512C126.363 45.1814 127.014 45.016 127.75 45.016C128.486 45.016 129.136 45.1814 129.702 45.512C130.267 45.8427 130.699 46.3174 130.998 46.936C131.307 47.544 131.462 48.2534 131.462 49.064C131.462 49.8747 131.307 50.5894 130.998 51.208C130.699 51.816 130.267 52.2854 129.702 52.616C129.136 52.9467 128.486 53.112 127.75 53.112ZM127.75 52.04C128.518 52.04 129.104 51.7894 129.51 51.288C129.926 50.776 130.134 50.0347 130.134 49.064C130.134 48.1147 129.926 47.384 129.51 46.872C129.094 46.3494 128.507 46.088 127.75 46.088C126.992 46.088 126.406 46.3494 125.99 46.872C125.574 47.384 125.366 48.1147 125.366 49.064C125.366 50.024 125.568 50.76 125.974 51.272C126.39 51.784 126.982 52.04 127.75 52.04Z" fill="#7B7B7B"/>
<path d="M137.793 45.016C139.659 45.016 140.593 46.0454 140.593 48.104V53H139.297V48.184C139.297 47.4587 139.153 46.9307 138.865 46.6C138.587 46.2694 138.139 46.104 137.521 46.104C136.806 46.104 136.235 46.3227 135.809 46.76C135.382 47.1974 135.169 47.7894 135.169 48.536V53H133.873V45.208H135.153V46.488C135.409 46.008 135.766 45.6454 136.225 45.4C136.683 45.144 137.206 45.016 137.793 45.016Z" fill="#7B7B7B"/>
<path d="M146.086 53.112C144.774 53.112 143.734 52.776 142.966 52.104L143.398 51.144C143.814 51.4747 144.236 51.7147 144.662 51.864C145.1 52.0027 145.59 52.072 146.134 52.072C146.71 52.072 147.148 51.976 147.446 51.784C147.756 51.5814 147.91 51.2934 147.91 50.92C147.91 50.6107 147.809 50.3654 147.606 50.184C147.404 50.0027 147.068 49.8587 146.598 49.752L145.286 49.448C144.625 49.2987 144.118 49.0427 143.766 48.68C143.414 48.3174 143.238 47.8694 143.238 47.336C143.238 46.6427 143.51 46.0827 144.054 45.656C144.598 45.2294 145.324 45.016 146.23 45.016C146.774 45.016 147.292 45.1067 147.782 45.288C148.273 45.4587 148.684 45.7094 149.014 46.04L148.582 46.984C147.868 46.376 147.084 46.072 146.23 46.072C145.686 46.072 145.26 46.1787 144.95 46.392C144.652 46.5947 144.502 46.8827 144.502 47.256C144.502 47.5654 144.593 47.816 144.774 48.008C144.966 48.1894 145.27 48.328 145.686 48.424L147.014 48.744C147.74 48.9147 148.278 49.176 148.63 49.528C148.982 49.8694 149.158 50.3174 149.158 50.872C149.158 51.5547 148.881 52.0987 148.326 52.504C147.782 52.9094 147.036 53.112 146.086 53.112Z" fill="#7B7B7B"/>
<path d="M158.174 45.208V53H156.91V51.672C156.665 52.1414 156.318 52.4987 155.87 52.744C155.433 52.9894 154.937 53.112 154.382 53.112C153.454 53.112 152.755 52.856 152.286 52.344C151.817 51.8214 151.582 51.0534 151.582 50.04V45.208H152.878V50.008C152.878 50.7014 153.017 51.2134 153.294 51.544C153.571 51.864 154.009 52.024 154.606 52.024C155.289 52.024 155.838 51.8054 156.254 51.368C156.67 50.92 156.878 50.3334 156.878 49.608V45.208H158.174Z" fill="#7B7B7B"/>
<path d="M169.735 45.016C171.463 45.016 172.327 46.0454 172.327 48.104V53H171.031V48.168C171.031 47.4534 170.903 46.9307 170.647 46.6C170.401 46.2694 170.001 46.104 169.447 46.104C168.796 46.104 168.284 46.3227 167.911 46.76C167.537 47.1974 167.351 47.7947 167.351 48.552V53H166.055V48.168C166.055 47.4427 165.927 46.92 165.671 46.6C165.415 46.2694 165.009 46.104 164.455 46.104C163.804 46.104 163.292 46.3227 162.919 46.76C162.545 47.1974 162.359 47.7947 162.359 48.552V53H161.063V45.208H162.343V46.44C162.577 45.9814 162.903 45.6294 163.319 45.384C163.735 45.1387 164.215 45.016 164.759 45.016C165.964 45.016 166.759 45.528 167.143 46.552C167.367 46.072 167.708 45.6987 168.167 45.432C168.625 45.1547 169.148 45.016 169.735 45.016Z" fill="#7B7B7B"/>
<path d="M178.4 53.112C177.664 53.112 177.013 52.9467 176.448 52.616C175.893 52.2854 175.461 51.816 175.152 51.208C174.853 50.5894 174.704 49.8747 174.704 49.064C174.704 48.2534 174.853 47.544 175.152 46.936C175.461 46.3174 175.893 45.8427 176.448 45.512C177.013 45.1814 177.664 45.016 178.4 45.016C179.136 45.016 179.786 45.1814 180.352 45.512C180.917 45.8427 181.349 46.3174 181.648 46.936C181.957 47.544 182.112 48.2534 182.112 49.064C182.112 49.8747 181.957 50.5894 181.648 51.208C181.349 51.816 180.917 52.2854 180.352 52.616C179.786 52.9467 179.136 53.112 178.4 53.112ZM178.4 52.04C179.168 52.04 179.754 51.7894 180.16 51.288C180.576 50.776 180.784 50.0347 180.784 49.064C180.784 48.1147 180.576 47.384 180.16 46.872C179.744 46.3494 179.157 46.088 178.4 46.088C177.642 46.088 177.056 46.3494 176.64 46.872C176.224 47.384 176.016 48.1147 176.016 49.064C176.016 50.024 176.218 50.76 176.624 51.272C177.04 51.784 177.632 52.04 178.4 52.04Z" fill="#7B7B7B"/>
<path d="M196.04 41.72V53H194.744V51.576C194.509 52.0667 194.162 52.4454 193.704 52.712C193.256 52.9787 192.728 53.112 192.12 53.112C191.437 53.112 190.834 52.9414 190.312 52.6C189.789 52.2587 189.384 51.784 189.096 51.176C188.808 50.5574 188.664 49.8427 188.664 49.032C188.664 48.232 188.808 47.528 189.096 46.92C189.384 46.312 189.789 45.8427 190.312 45.512C190.834 45.1814 191.437 45.016 192.12 45.016C192.728 45.016 193.256 45.1494 193.704 45.416C194.162 45.6827 194.509 46.0614 194.744 46.552V41.72H196.04ZM192.376 52.04C193.133 52.04 193.714 51.784 194.12 51.272C194.536 50.7494 194.744 50.0134 194.744 49.064C194.744 48.1147 194.536 47.384 194.12 46.872C193.714 46.36 193.133 46.104 192.376 46.104C191.618 46.104 191.026 46.36 190.6 46.872C190.184 47.384 189.976 48.104 189.976 49.032C189.976 49.9814 190.184 50.7227 190.6 51.256C191.026 51.7787 191.618 52.04 192.376 52.04Z" fill="#7B7B7B"/>
<path d="M205.448 49.304H199.752C199.795 50.2107 200.04 50.8987 200.488 51.368C200.936 51.8267 201.571 52.056 202.392 52.056C203.299 52.056 204.131 51.7467 204.888 51.128L205.32 52.072C204.979 52.392 204.541 52.648 204.008 52.84C203.475 53.0214 202.931 53.112 202.376 53.112C201.16 53.112 200.2 52.7547 199.496 52.04C198.803 51.3254 198.456 50.3387 198.456 49.08C198.456 48.28 198.611 47.576 198.92 46.968C199.229 46.3494 199.661 45.8694 200.216 45.528C200.781 45.1867 201.421 45.016 202.136 45.016C203.171 45.016 203.981 45.3574 204.568 46.04C205.155 46.712 205.448 47.64 205.448 48.824V49.304ZM202.152 46.024C201.469 46.024 200.92 46.2374 200.504 46.664C200.099 47.0907 199.859 47.6934 199.784 48.472H204.312C204.291 47.6827 204.093 47.08 203.72 46.664C203.347 46.2374 202.824 46.024 202.152 46.024Z" fill="#7B7B7B"/>
<path d="M221.115 45.016C222.843 45.016 223.707 46.0454 223.707 48.104V53H222.411V48.168C222.411 47.4534 222.283 46.9307 222.027 46.6C221.781 46.2694 221.381 46.104 220.827 46.104C220.176 46.104 219.664 46.3227 219.291 46.76C218.917 47.1974 218.731 47.7947 218.731 48.552V53H217.435V48.168C217.435 47.4427 217.307 46.92 217.051 46.6C216.795 46.2694 216.389 46.104 215.835 46.104C215.184 46.104 214.672 46.3227 214.299 46.76C213.925 47.1974 213.739 47.7947 213.739 48.552V53H212.443V45.208H213.723V46.44C213.957 45.9814 214.283 45.6294 214.699 45.384C215.115 45.1387 215.595 45.016 216.139 45.016C217.344 45.016 218.139 45.528 218.523 46.552C218.747 46.072 219.088 45.6987 219.547 45.432C220.005 45.1547 220.528 45.016 221.115 45.016Z" fill="#7B7B7B"/>
<path d="M233.076 49.304H227.38C227.422 50.2107 227.668 50.8987 228.116 51.368C228.564 51.8267 229.198 52.056 230.02 52.056C230.926 52.056 231.758 51.7467 232.516 51.128L232.948 52.072C232.606 52.392 232.169 52.648 231.636 52.84C231.102 53.0214 230.558 53.112 230.004 53.112C228.788 53.112 227.828 52.7547 227.124 52.04C226.43 51.3254 226.084 50.3387 226.084 49.08C226.084 48.28 226.238 47.576 226.548 46.968C226.857 46.3494 227.289 45.8694 227.844 45.528C228.409 45.1867 229.049 45.016 229.764 45.016C230.798 45.016 231.609 45.3574 232.196 46.04C232.782 46.712 233.076 47.64 233.076 48.824V49.304ZM229.78 46.024C229.097 46.024 228.548 46.2374 228.132 46.664C227.726 47.0907 227.486 47.6934 227.412 48.472H231.94C231.918 47.6827 231.721 47.08 231.348 46.664C230.974 46.2374 230.452 46.024 229.78 46.024Z" fill="#7B7B7B"/>
<path d="M244.137 45.016C245.865 45.016 246.729 46.0454 246.729 48.104V53H245.433V48.168C245.433 47.4534 245.305 46.9307 245.049 46.6C244.804 46.2694 244.404 46.104 243.849 46.104C243.198 46.104 242.686 46.3227 242.313 46.76C241.94 47.1974 241.753 47.7947 241.753 48.552V53H240.457V48.168C240.457 47.4427 240.329 46.92 240.073 46.6C239.817 46.2694 239.412 46.104 238.857 46.104C238.206 46.104 237.694 46.3227 237.321 46.76C236.948 47.1974 236.761 47.7947 236.761 48.552V53H235.465V45.208H236.745V46.44C236.98 45.9814 237.305 45.6294 237.721 45.384C238.137 45.1387 238.617 45.016 239.161 45.016C240.366 45.016 241.161 45.528 241.545 46.552C241.769 46.072 242.11 45.6987 242.569 45.432C243.028 45.1547 243.55 45.016 244.137 45.016Z" fill="#7B7B7B"/>
<path d="M252.802 53.112C252.066 53.112 251.415 52.9467 250.85 52.616C250.295 52.2854 249.863 51.816 249.554 51.208C249.255 50.5894 249.106 49.8747 249.106 49.064C249.106 48.2534 249.255 47.544 249.554 46.936C249.863 46.3174 250.295 45.8427 250.85 45.512C251.415 45.1814 252.066 45.016 252.802 45.016C253.538 45.016 254.189 45.1814 254.754 45.512C255.319 45.8427 255.751 46.3174 256.05 46.936C256.359 47.544 256.514 48.2534 256.514 49.064C256.514 49.8747 256.359 50.5894 256.05 51.208C255.751 51.816 255.319 52.2854 254.754 52.616C254.189 52.9467 253.538 53.112 252.802 53.112ZM252.802 52.04C253.57 52.04 254.157 51.7894 254.562 51.288C254.978 50.776 255.186 50.0347 255.186 49.064C255.186 48.1147 254.978 47.384 254.562 46.872C254.146 46.3494 253.559 46.088 252.802 46.088C252.045 46.088 251.458 46.3494 251.042 46.872C250.626 47.384 250.418 48.1147 250.418 49.064C250.418 50.024 250.621 50.76 251.026 51.272C251.442 51.784 252.034 52.04 252.802 52.04ZM253.25 44.184H252.354L253.938 40.952H255.426L253.25 44.184Z" fill="#7B7B7B"/>
<path d="M263.341 46.136L262.493 46.216C261.693 46.2907 261.112 46.5414 260.749 46.968C260.397 47.3947 260.221 47.9227 260.221 48.552V53H258.925V45.208H260.189V46.568C260.626 45.6614 261.485 45.1547 262.765 45.048L263.229 45.016L263.341 46.136Z" fill="#7B7B7B"/>
<path d="M265.046 53V45.208H266.342V53H265.046ZM264.918 41.832H266.486V43.288H264.918V41.832Z" fill="#7B7B7B"/>
<path d="M272.413 45.016C273.405 45.016 274.141 45.272 274.621 45.784C275.111 46.2854 275.357 47.0534 275.357 48.088V53H274.093V51.672C273.89 52.1307 273.581 52.488 273.165 52.744C272.749 52.9894 272.269 53.112 271.725 53.112C271.223 53.112 270.759 53.0107 270.333 52.808C269.917 52.6054 269.586 52.3227 269.341 51.96C269.095 51.5974 268.973 51.1974 268.973 50.76C268.973 50.1734 269.122 49.72 269.421 49.4C269.719 49.0694 270.21 48.8347 270.893 48.696C271.575 48.5467 272.525 48.472 273.741 48.472H274.093V47.944C274.093 47.2934 273.959 46.824 273.693 46.536C273.426 46.2374 272.994 46.088 272.397 46.088C271.501 46.088 270.61 46.3654 269.725 46.92L269.293 45.976C269.698 45.688 270.183 45.4587 270.749 45.288C271.325 45.1067 271.879 45.016 272.413 45.016ZM271.901 52.088C272.541 52.088 273.063 51.8747 273.469 51.448C273.885 51.0107 274.093 50.4507 274.093 49.768V49.304H273.805C272.866 49.304 272.151 49.3467 271.661 49.432C271.17 49.5067 270.818 49.64 270.605 49.832C270.402 50.0134 270.301 50.2854 270.301 50.648C270.301 51.064 270.45 51.4107 270.749 51.688C271.058 51.9547 271.442 52.088 271.901 52.088Z" fill="#7B7B7B"/>
<path d="M279.649 51.368V52.52C279.649 52.968 279.574 53.3734 279.425 53.736C279.286 54.1094 279.041 54.472 278.689 54.824L278.081 54.36C278.497 53.9014 278.732 53.448 278.785 53H278.017V51.368H279.649Z" fill="#7B7B7B"/>
<path d="M85.7842 64.224H87.0802L83.7202 72H82.5042L79.1602 64.224H80.5362L83.1442 70.592L85.7842 64.224Z" fill="#7B7B7B"/>
<path d="M95.3332 68.304H89.6372C89.6798 69.2107 89.9252 69.8987 90.3732 70.368C90.8212 70.8267 91.4558 71.056 92.2772 71.056C93.1838 71.056 94.0158 70.7467 94.7732 70.128L95.2052 71.072C94.8638 71.392 94.4265 71.648 93.8932 71.84C93.3598 72.0214 92.8158 72.112 92.2612 72.112C91.0452 72.112 90.0852 71.7547 89.3812 71.04C88.6878 70.3254 88.3412 69.3387 88.3412 68.08C88.3412 67.28 88.4958 66.576 88.8052 65.968C89.1145 65.3494 89.5465 64.8694 90.1012 64.528C90.6665 64.1867 91.3065 64.016 92.0212 64.016C93.0558 64.016 93.8665 64.3574 94.4532 65.04C95.0398 65.712 95.3332 66.64 95.3332 67.824V68.304ZM92.0372 65.024C91.3545 65.024 90.8052 65.2374 90.3892 65.664C89.9838 66.0907 89.7438 66.6934 89.6692 67.472H94.1972C94.1758 66.6827 93.9785 66.08 93.6052 65.664C93.2318 65.2374 92.7092 65.024 92.0372 65.024Z" fill="#7B7B7B"/>
<path d="M102.139 65.136L101.291 65.216C100.491 65.2907 99.9093 65.5414 99.5467 65.968C99.1947 66.3947 99.0187 66.9227 99.0187 67.552V72H97.7227V64.208H98.9867V65.568C99.424 64.6614 100.283 64.1547 101.563 64.048L102.027 64.016L102.139 65.136Z" fill="#7B7B7B"/>
<path d="M103.843 72V64.208H105.139V72H103.843ZM103.715 60.832H105.283V62.288H103.715V60.832Z" fill="#7B7B7B"/>
<path d="M109.77 64.208H114.57V72H113.274V65.232H109.77V72H108.474V65.232H106.954V64.208H108.474V63.952C108.474 62.9067 108.735 62.1174 109.258 61.584C109.781 61.0507 110.581 60.7574 111.658 60.704L112.25 60.672L112.33 61.68L111.594 61.728C110.954 61.7707 110.49 61.9574 110.202 62.288C109.914 62.6187 109.77 63.1147 109.77 63.776V64.208ZM113.13 60.816H114.73V62.304H113.13V60.816Z" fill="#7B7B7B"/>
<path d="M124.372 64.208V74.88H123.076V70.576C122.841 71.0667 122.494 71.4454 122.036 71.712C121.588 71.9787 121.06 72.112 120.452 72.112C119.758 72.112 119.15 71.9467 118.628 71.616C118.116 71.2854 117.716 70.8214 117.428 70.224C117.14 69.616 116.996 68.9067 116.996 68.096C116.996 67.2854 117.14 66.576 117.428 65.968C117.716 65.3494 118.121 64.8694 118.644 64.528C119.166 64.1867 119.769 64.016 120.452 64.016C121.06 64.016 121.588 64.1494 122.036 64.416C122.494 64.6827 122.841 65.0614 123.076 65.552V64.208H124.372ZM120.708 71.04C121.465 71.04 122.046 70.784 122.452 70.272C122.868 69.7494 123.076 69.0134 123.076 68.064C123.076 67.1147 122.868 66.384 122.452 65.872C122.046 65.36 121.465 65.104 120.708 65.104C119.95 65.104 119.358 65.3707 118.932 65.904C118.516 66.4267 118.308 67.1574 118.308 68.096C118.308 69.0347 118.516 69.76 118.932 70.272C119.358 70.784 119.95 71.04 120.708 71.04Z" fill="#7B7B7B"/>
<path d="M133.812 64.208V72H132.548V70.672C132.303 71.1414 131.956 71.4987 131.508 71.744C131.071 71.9894 130.575 72.112 130.02 72.112C129.092 72.112 128.393 71.856 127.924 71.344C127.455 70.8214 127.22 70.0534 127.22 69.04V64.208H128.516V69.008C128.516 69.7014 128.655 70.2134 128.932 70.544C129.209 70.864 129.647 71.024 130.244 71.024C130.927 71.024 131.476 70.8054 131.892 70.368C132.308 69.92 132.516 69.3334 132.516 68.608V64.208H133.812Z" fill="#7B7B7B"/>
<path d="M143.229 68.304H137.533C137.575 69.2107 137.821 69.8987 138.269 70.368C138.717 70.8267 139.351 71.056 140.173 71.056C141.079 71.056 141.911 70.7467 142.669 70.128L143.101 71.072C142.759 71.392 142.322 71.648 141.789 71.84C141.255 72.0214 140.711 72.112 140.157 72.112C138.941 72.112 137.981 71.7547 137.277 71.04C136.583 70.3254 136.237 69.3387 136.237 68.08C136.237 67.28 136.391 66.576 136.701 65.968C137.01 65.3494 137.442 64.8694 137.997 64.528C138.562 64.1867 139.202 64.016 139.917 64.016C140.951 64.016 141.762 64.3574 142.349 65.04C142.935 65.712 143.229 66.64 143.229 67.824V68.304ZM139.933 65.024C139.25 65.024 138.701 65.2374 138.285 65.664C137.879 66.0907 137.639 66.6934 137.565 67.472H142.093C142.071 66.6827 141.874 66.08 141.501 65.664C141.127 65.2374 140.605 65.024 139.933 65.024Z" fill="#7B7B7B"/>
<path d="M153.455 72.112C152.719 72.112 152.069 71.9467 151.503 71.616C150.949 71.2854 150.517 70.816 150.207 70.208C149.909 69.5894 149.759 68.8747 149.759 68.064C149.759 67.2534 149.909 66.544 150.207 65.936C150.517 65.3174 150.949 64.8427 151.503 64.512C152.069 64.1814 152.719 64.016 153.455 64.016C154.191 64.016 154.842 64.1814 155.407 64.512C155.973 64.8427 156.405 65.3174 156.703 65.936C157.013 66.544 157.167 67.2534 157.167 68.064C157.167 68.8747 157.013 69.5894 156.703 70.208C156.405 70.816 155.973 71.2854 155.407 71.616C154.842 71.9467 154.191 72.112 153.455 72.112ZM153.455 71.04C154.223 71.04 154.81 70.7894 155.215 70.288C155.631 69.776 155.839 69.0347 155.839 68.064C155.839 67.1147 155.631 66.384 155.215 65.872C154.799 65.3494 154.213 65.088 153.455 65.088C152.698 65.088 152.111 65.3494 151.695 65.872C151.279 66.384 151.071 67.1147 151.071 68.064C151.071 69.024 151.274 69.76 151.679 70.272C152.095 70.784 152.687 71.04 153.455 71.04Z" fill="#7B7B7B"/>
<path d="M167.607 71.072C167.842 71.072 168.077 71.056 168.311 71.024L168.247 72.048C168.002 72.0907 167.735 72.112 167.447 72.112C166.509 72.112 165.799 71.8667 165.319 71.376C164.85 70.8854 164.615 70.2027 164.615 69.328V65.232H163.095V64.208H164.615V61.84H165.911V64.208H168.119V65.232H165.911V69.232C165.911 70.4587 166.477 71.072 167.607 71.072Z" fill="#7B7B7B"/>
<path d="M173.333 72.112C172.597 72.112 171.946 71.9467 171.381 71.616C170.826 71.2854 170.394 70.816 170.085 70.208C169.786 69.5894 169.637 68.8747 169.637 68.064C169.637 67.2534 169.786 66.544 170.085 65.936C170.394 65.3174 170.826 64.8427 171.381 64.512C171.946 64.1814 172.597 64.016 173.333 64.016C174.069 64.016 174.719 64.1814 175.285 64.512C175.85 64.8427 176.282 65.3174 176.581 65.936C176.89 66.544 177.045 67.2534 177.045 68.064C177.045 68.8747 176.89 69.5894 176.581 70.208C176.282 70.816 175.85 71.2854 175.285 71.616C174.719 71.9467 174.069 72.112 173.333 72.112ZM173.333 71.04C174.101 71.04 174.687 70.7894 175.093 70.288C175.509 69.776 175.717 69.0347 175.717 68.064C175.717 67.1147 175.509 66.384 175.093 65.872C174.677 65.3494 174.09 65.088 173.333 65.088C172.575 65.088 171.989 65.3494 171.573 65.872C171.157 66.384 170.949 67.1147 170.949 68.064C170.949 69.024 171.151 69.76 171.557 70.272C171.973 70.784 172.565 71.04 173.333 71.04Z" fill="#7B7B7B"/>
<path d="M182.864 71.072C183.099 71.072 183.333 71.056 183.568 71.024L183.504 72.048C183.259 72.0907 182.992 72.112 182.704 72.112C181.765 72.112 181.056 71.8667 180.576 71.376C180.107 70.8854 179.872 70.2027 179.872 69.328V65.232H178.352V64.208H179.872V61.84H181.168V64.208H183.376V65.232H181.168V69.232C181.168 70.4587 181.733 71.072 182.864 71.072Z" fill="#7B7B7B"/>
<path d="M191.886 68.304H186.19C186.232 69.2107 186.478 69.8987 186.926 70.368C187.374 70.8267 188.008 71.056 188.83 71.056C189.736 71.056 190.568 70.7467 191.326 70.128L191.758 71.072C191.416 71.392 190.979 71.648 190.446 71.84C189.912 72.0214 189.368 72.112 188.814 72.112C187.598 72.112 186.638 71.7547 185.934 71.04C185.24 70.3254 184.894 69.3387 184.894 68.08C184.894 67.28 185.048 66.576 185.358 65.968C185.667 65.3494 186.099 64.8694 186.654 64.528C187.219 64.1867 187.859 64.016 188.574 64.016C189.608 64.016 190.419 64.3574 191.006 65.04C191.592 65.712 191.886 66.64 191.886 67.824V68.304ZM188.59 65.024C187.907 65.024 187.358 65.2374 186.942 65.664C186.536 66.0907 186.296 66.6934 186.222 67.472H190.75C190.728 66.6827 190.531 66.08 190.158 65.664C189.784 65.2374 189.262 65.024 188.59 65.024Z" fill="#7B7B7B"/>
<path d="M202.947 64.016C204.675 64.016 205.539 65.0454 205.539 67.104V72H204.243V67.168C204.243 66.4534 204.115 65.9307 203.859 65.6C203.614 65.2694 203.214 65.104 202.659 65.104C202.008 65.104 201.496 65.3227 201.123 65.76C200.75 66.1974 200.563 66.7947 200.563 67.552V72H199.267V67.168C199.267 66.4427 199.139 65.92 198.883 65.6C198.627 65.2694 198.222 65.104 197.667 65.104C197.016 65.104 196.504 65.3227 196.131 65.76C195.758 66.1974 195.571 66.7947 195.571 67.552V72H194.275V64.208H195.555V65.44C195.79 64.9814 196.115 64.6294 196.531 64.384C196.947 64.1387 197.427 64.016 197.971 64.016C199.176 64.016 199.971 64.528 200.355 65.552C200.579 65.072 200.92 64.6987 201.379 64.432C201.838 64.1547 202.36 64.016 202.947 64.016Z" fill="#7B7B7B"/>
<path d="M218.137 66.208C218.798 66.4 219.305 66.7307 219.657 67.2C220.009 67.6587 220.185 68.24 220.185 68.944C220.185 69.9254 219.849 70.6987 219.177 71.264C218.516 71.8294 217.614 72.112 216.473 72.112C215.748 72.112 215.049 71.9894 214.377 71.744C213.705 71.4987 213.14 71.1574 212.681 70.72L213.177 69.712C214.201 70.576 215.289 71.008 216.441 71.008C217.241 71.008 217.849 70.832 218.265 70.48C218.681 70.1174 218.889 69.5894 218.889 68.896C218.889 67.52 218.025 66.832 216.297 66.832H215.001V65.728H216.041C216.873 65.728 217.513 65.5467 217.961 65.184C218.409 64.8107 218.633 64.2774 218.633 63.584C218.633 62.976 218.452 62.512 218.089 62.192C217.726 61.8614 217.209 61.696 216.537 61.696C215.449 61.696 214.382 62.128 213.337 62.992L212.841 61.984C213.3 61.5467 213.86 61.2054 214.521 60.96C215.182 60.7147 215.87 60.592 216.585 60.592C217.609 60.592 218.42 60.8534 219.017 61.376C219.625 61.888 219.929 62.5814 219.929 63.456C219.929 64.1067 219.769 64.6774 219.449 65.168C219.14 65.648 218.702 65.9947 218.137 66.208Z" fill="#7B7B7B"/>
<defs>
<linearGradient id="paint0_linear" x1="14" y1="45.9989" x2="71.9952" y2="45.9989" gradientUnits="userSpaceOnUse">
<stop stop-color="#836FFF"/>
<stop offset="1" stop-color="#E486EC"/>
</linearGradient>
</defs>
</svg>
