<svg width="230" height="183" viewBox="0 0 230 183" fill="none" xmlns="http://www.w3.org/2000/svg">
<path d="M0 15C0 6.71573 6.71573 0 15 0H215C223.284 0 230 6.71573 230 15V168C230 176.284 223.284 183 215 183H15C6.71572 183 0 176.284 0 168V15Z" fill="#222222"/>
<path fill-rule="evenodd" clip-rule="evenodd" d="M215 1.5H15C7.54416 1.5 1.5 7.54416 1.5 15V168C1.5 175.456 7.54415 181.5 15 181.5H215C222.456 181.5 228.5 175.456 228.5 168V15C228.5 7.54416 222.456 1.5 215 1.5ZM15 0C6.71573 0 0 6.71573 0 15V168C0 176.284 6.71572 183 15 183H215C223.284 183 230 176.284 230 168V15C230 6.71573 223.284 0 215 0H15Z" fill="#343434"/>
<path d="M19 23C19 20.2386 21.2386 18 24 18H54C56.7614 18 59 20.2386 59 23V53C59 55.7614 56.7614 58 54 58H24C21.2386 58 19 55.7614 19 53V23Z" fill="url(#paint0_linear)"/>
<path d="M79.9338 29.3101H81.7518V42.0001H79.6998V33.6121L76.3518 39.9481H74.8038L71.4378 33.7021L71.4558 42.0001H69.4038V29.3101H71.2398L75.5958 37.6081L79.9338 29.3101Z" fill="#5C5C5C"/>
<path d="M92.5666 38.0041H86.5726C86.6446 38.8201 86.8906 39.4261 87.3106 39.8221C87.7306 40.2181 88.3306 40.4161 89.1106 40.4161C90.0826 40.4161 90.9706 40.1041 91.7746 39.4801L92.4226 41.0281C92.0146 41.3641 91.4986 41.6341 90.8746 41.8381C90.2626 42.0421 89.6446 42.1441 89.0206 42.1441C87.5806 42.1441 86.4406 41.7361 85.6006 40.9201C84.7726 40.1041 84.3586 38.9881 84.3586 37.5721C84.3586 36.6721 84.5386 35.8741 84.8986 35.1781C85.2586 34.4821 85.7626 33.9421 86.4106 33.5581C87.0706 33.1741 87.8146 32.9821 88.6426 32.9821C89.8546 32.9821 90.8086 33.3721 91.5046 34.1521C92.2126 34.9321 92.5666 36.0061 92.5666 37.3741V38.0041ZM88.6966 34.5661C88.0966 34.5661 87.6106 34.7581 87.2386 35.1421C86.8786 35.5261 86.6566 36.0781 86.5726 36.7981H90.6406C90.6166 36.0661 90.4366 35.5141 90.1006 35.1421C89.7646 34.7581 89.2966 34.5661 88.6966 34.5661Z" fill="#5C5C5C"/>
<path d="M105.405 32.9821C106.401 32.9821 107.145 33.2821 107.637 33.8821C108.129 34.4701 108.375 35.3761 108.375 36.6001V42.0001H106.125V36.6901C106.125 36.0181 106.011 35.5321 105.783 35.2321C105.555 34.9201 105.189 34.7641 104.685 34.7641C104.085 34.7641 103.617 34.9681 103.281 35.3761C102.945 35.7841 102.777 36.3541 102.777 37.0861V42.0001H100.527V36.6901C100.527 36.0181 100.413 35.5321 100.185 35.2321C99.9691 34.9201 99.6031 34.7641 99.0871 34.7641C98.4991 34.7641 98.0371 34.9681 97.7011 35.3761C97.3651 35.7841 97.1971 36.3541 97.1971 37.0861V42.0001H94.9471V33.1981H97.1431V34.4401C97.4071 33.9601 97.7731 33.6001 98.2411 33.3601C98.7091 33.1081 99.2431 32.9821 99.8431 32.9821C101.175 32.9821 102.057 33.5341 102.489 34.6381C102.765 34.1221 103.161 33.7201 103.677 33.4321C104.193 33.1321 104.769 32.9821 105.405 32.9821Z" fill="#5C5C5C"/>
<path d="M115.216 42.1441C114.316 42.1441 113.524 41.9581 112.84 41.5861C112.168 41.2141 111.646 40.6801 111.274 39.9841C110.902 39.2881 110.716 38.4781 110.716 37.5541C110.716 36.6301 110.902 35.8261 111.274 35.1421C111.646 34.4461 112.168 33.9121 112.84 33.5401C113.524 33.1681 114.316 32.9821 115.216 32.9821C116.116 32.9821 116.902 33.1681 117.574 33.5401C118.258 33.9121 118.78 34.4461 119.14 35.1421C119.512 35.8261 119.698 36.6301 119.698 37.5541C119.698 38.4781 119.512 39.2881 119.14 39.9841C118.78 40.6801 118.258 41.2141 117.574 41.5861C116.902 41.9581 116.116 42.1441 115.216 42.1441ZM115.198 40.3981C115.93 40.3981 116.488 40.1581 116.872 39.6781C117.256 39.1981 117.448 38.4901 117.448 37.5541C117.448 36.6301 117.256 35.9281 116.872 35.4481C116.488 34.9561 115.936 34.7101 115.216 34.7101C114.496 34.7101 113.938 34.9561 113.542 35.4481C113.158 35.9281 112.966 36.6301 112.966 37.5541C112.966 38.4901 113.158 39.1981 113.542 39.6781C113.926 40.1581 114.478 40.3981 115.198 40.3981Z" fill="#5C5C5C"/>
<path d="M127.891 34.8541L126.577 34.9801C125.089 35.1361 124.345 35.8921 124.345 37.2481V42.0001H122.095V33.1981H124.237V34.7461C124.693 33.6901 125.635 33.1141 127.063 33.0181L127.747 32.9641L127.891 34.8541Z" fill="#5C5C5C"/>
<path d="M129.526 42.0001V33.1981H131.776V42.0001H129.526ZM129.4 29.1121H131.884V31.3261H129.4V29.1121Z" fill="#5C5C5C"/>
<path d="M138.416 32.9821C139.652 32.9821 140.57 33.2821 141.17 33.8821C141.77 34.4821 142.07 35.4061 142.07 36.6541V42.0001H139.928V40.6501C139.724 41.1181 139.4 41.4841 138.956 41.7481C138.524 42.0121 138.02 42.1441 137.444 42.1441C136.856 42.1441 136.322 42.0241 135.842 41.7841C135.362 41.5441 134.984 41.2141 134.708 40.7941C134.432 40.3741 134.294 39.9061 134.294 39.3901C134.294 38.7421 134.456 38.2321 134.78 37.8601C135.116 37.4881 135.656 37.2181 136.4 37.0501C137.144 36.8821 138.17 36.7981 139.478 36.7981H139.928V36.3841C139.928 35.7841 139.796 35.3521 139.532 35.0881C139.28 34.8241 138.854 34.6921 138.254 34.6921C137.786 34.6921 137.294 34.7761 136.778 34.9441C136.274 35.1001 135.776 35.3221 135.284 35.6101L134.654 34.0621C135.146 33.7501 135.74 33.4921 136.436 33.2881C137.132 33.0841 137.792 32.9821 138.416 32.9821ZM137.894 40.5241C138.494 40.5241 138.98 40.3261 139.352 39.9301C139.736 39.5221 139.928 39.0001 139.928 38.3641V37.9861H139.604C138.8 37.9861 138.176 38.0221 137.732 38.0941C137.288 38.1661 136.97 38.2921 136.778 38.4721C136.586 38.6521 136.49 38.8981 136.49 39.2101C136.49 39.5941 136.622 39.9121 136.886 40.1641C137.15 40.4041 137.486 40.5241 137.894 40.5241Z" fill="#5C5C5C"/>
<path d="M20.2178 164V154.13H26.4618V155.082H21.3518V158.512H26.1818V159.464H21.3518V163.048H26.4618V164H20.2178Z" fill="#5C5C5C"/>
<path d="M31.2082 164.098C30.0602 164.098 29.1502 163.804 28.4782 163.216L28.8562 162.376C29.2202 162.665 29.5889 162.875 29.9622 163.006C30.3449 163.127 30.7742 163.188 31.2502 163.188C31.7542 163.188 32.1369 163.104 32.3982 162.936C32.6689 162.759 32.8042 162.507 32.8042 162.18C32.8042 161.909 32.7155 161.695 32.5382 161.536C32.3609 161.377 32.0669 161.251 31.6562 161.158L30.5082 160.892C29.9295 160.761 29.4862 160.537 29.1782 160.22C28.8702 159.903 28.7162 159.511 28.7162 159.044C28.7162 158.437 28.9542 157.947 29.4302 157.574C29.9062 157.201 30.5409 157.014 31.3342 157.014C31.8102 157.014 32.2629 157.093 32.6922 157.252C33.1215 157.401 33.4809 157.621 33.7702 157.91L33.3922 158.736C32.7669 158.204 32.0809 157.938 31.3342 157.938C30.8582 157.938 30.4849 158.031 30.2142 158.218C29.9529 158.395 29.8222 158.647 29.8222 158.974C29.8222 159.245 29.9015 159.464 30.0602 159.632C30.2282 159.791 30.4942 159.912 30.8582 159.996L32.0202 160.276C32.6549 160.425 33.1262 160.654 33.4342 160.962C33.7422 161.261 33.8962 161.653 33.8962 162.138C33.8962 162.735 33.6535 163.211 33.1682 163.566C32.6922 163.921 32.0389 164.098 31.2082 164.098Z" fill="#5C5C5C"/>
<path d="M39.2524 163.188C39.4577 163.188 39.6631 163.174 39.8684 163.146L39.8124 164.042C39.5977 164.079 39.3644 164.098 39.1124 164.098C38.2911 164.098 37.6704 163.883 37.2504 163.454C36.8397 163.025 36.6344 162.427 36.6344 161.662V158.078H35.3044V157.182H36.6344V155.11H37.7684V157.182H39.7004V158.078H37.7684V161.578C37.7684 162.651 38.2631 163.188 39.2524 163.188Z" fill="#5C5C5C"/>
<path d="M44.4862 157.014C45.3542 157.014 45.9982 157.238 46.4182 157.686C46.8476 158.125 47.0622 158.797 47.0622 159.702V164H45.9562V162.838C45.7789 163.239 45.5082 163.552 45.1442 163.776C44.7802 163.991 44.3602 164.098 43.8842 164.098C43.4456 164.098 43.0396 164.009 42.6662 163.832C42.3022 163.655 42.0129 163.407 41.7982 163.09C41.5836 162.773 41.4762 162.423 41.4762 162.04C41.4762 161.527 41.6069 161.13 41.8682 160.85C42.1296 160.561 42.5589 160.355 43.1562 160.234C43.7536 160.103 44.5842 160.038 45.6482 160.038H45.9562V159.576C45.9562 159.007 45.8396 158.596 45.6062 158.344C45.3729 158.083 44.9949 157.952 44.4722 157.952C43.6882 157.952 42.9089 158.195 42.1342 158.68L41.7562 157.854C42.1109 157.602 42.5356 157.401 43.0302 157.252C43.5342 157.093 44.0196 157.014 44.4862 157.014ZM44.0382 163.202C44.5982 163.202 45.0556 163.015 45.4102 162.642C45.7742 162.259 45.9562 161.769 45.9562 161.172V160.766H45.7042C44.8829 160.766 44.2576 160.803 43.8282 160.878C43.3989 160.943 43.0909 161.06 42.9042 161.228C42.7269 161.387 42.6382 161.625 42.6382 161.942C42.6382 162.306 42.7689 162.609 43.0302 162.852C43.3009 163.085 43.6369 163.202 44.0382 163.202Z" fill="#5C5C5C"/>
<path d="M55.8861 154.13V164H54.7521V162.754C54.5467 163.183 54.2434 163.515 53.8421 163.748C53.4501 163.981 52.9881 164.098 52.4561 164.098C51.8587 164.098 51.3314 163.949 50.8741 163.65C50.4167 163.351 50.0621 162.936 49.8101 162.404C49.5581 161.863 49.4321 161.237 49.4321 160.528C49.4321 159.828 49.5581 159.212 49.8101 158.68C50.0621 158.148 50.4167 157.737 50.8741 157.448C51.3314 157.159 51.8587 157.014 52.4561 157.014C52.9881 157.014 53.4501 157.131 53.8421 157.364C54.2434 157.597 54.5467 157.929 54.7521 158.358V154.13H55.8861ZM52.6801 163.16C53.3427 163.16 53.8514 162.936 54.2061 162.488C54.5701 162.031 54.7521 161.387 54.7521 160.556C54.7521 159.725 54.5701 159.086 54.2061 158.638C53.8514 158.19 53.3427 157.966 52.6801 157.966C52.0174 157.966 51.4994 158.19 51.1261 158.638C50.7621 159.086 50.5801 159.716 50.5801 160.528C50.5801 161.359 50.7621 162.007 51.1261 162.474C51.4994 162.931 52.0174 163.16 52.6801 163.16Z" fill="#5C5C5C"/>
<path d="M61.5145 164.098C60.8705 164.098 60.3012 163.953 59.8065 163.664C59.3212 163.375 58.9432 162.964 58.6725 162.432C58.4112 161.891 58.2805 161.265 58.2805 160.556C58.2805 159.847 58.4112 159.226 58.6725 158.694C58.9432 158.153 59.3212 157.737 59.8065 157.448C60.3012 157.159 60.8705 157.014 61.5145 157.014C62.1585 157.014 62.7278 157.159 63.2225 157.448C63.7172 157.737 64.0952 158.153 64.3565 158.694C64.6272 159.226 64.7625 159.847 64.7625 160.556C64.7625 161.265 64.6272 161.891 64.3565 162.432C64.0952 162.964 63.7172 163.375 63.2225 163.664C62.7278 163.953 62.1585 164.098 61.5145 164.098ZM61.5145 163.16C62.1865 163.16 62.6998 162.941 63.0545 162.502C63.4185 162.054 63.6005 161.405 63.6005 160.556C63.6005 159.725 63.4185 159.086 63.0545 158.638C62.6905 158.181 62.1772 157.952 61.5145 157.952C60.8518 157.952 60.3385 158.181 59.9745 158.638C59.6105 159.086 59.4285 159.725 59.4285 160.556C59.4285 161.396 59.6058 162.04 59.9605 162.488C60.3245 162.936 60.8425 163.16 61.5145 163.16Z" fill="#5C5C5C"/>
<path d="M74.3455 164.098C73.6735 164.098 73.0902 163.953 72.5955 163.664C72.1008 163.375 71.7182 162.969 71.4475 162.446C71.1862 161.914 71.0555 161.293 71.0555 160.584C71.0555 159.875 71.1908 159.254 71.4615 158.722C71.7415 158.181 72.1288 157.761 72.6235 157.462C73.1275 157.163 73.7155 157.014 74.3875 157.014C74.8448 157.014 75.2928 157.098 75.7315 157.266C76.1702 157.425 76.5248 157.639 76.7955 157.91L76.4175 158.75C75.7735 158.227 75.1202 157.966 74.4575 157.966C73.7575 157.966 73.2115 158.195 72.8195 158.652C72.4275 159.109 72.2315 159.753 72.2315 160.584C72.2315 161.405 72.4275 162.04 72.8195 162.488C73.2115 162.936 73.7575 163.16 74.4575 163.16C75.1202 163.16 75.7735 162.899 76.4175 162.376L76.7955 163.216C76.5062 163.487 76.1422 163.701 75.7035 163.86C75.2648 164.019 74.8122 164.098 74.3455 164.098Z" fill="#5C5C5C"/>
<path d="M82.7247 157.994L81.9827 158.064C81.2827 158.129 80.774 158.349 80.4567 158.722C80.1487 159.095 79.9947 159.557 79.9947 160.108V164H78.8607V157.182H79.9667V158.372C80.3494 157.579 81.1007 157.135 82.2207 157.042L82.6267 157.014L82.7247 157.994Z" fill="#5C5C5C"/>
<path d="M84.4963 164V157.182H85.6303V164H84.4963ZM85.4623 156.286H84.6783L86.0643 153.458H87.3663L85.4623 156.286Z" fill="#5C5C5C"/>
<path d="M91.4462 163.188C91.6515 163.188 91.8568 163.174 92.0622 163.146L92.0062 164.042C91.7915 164.079 91.5582 164.098 91.3062 164.098C90.4848 164.098 89.8642 163.883 89.4442 163.454C89.0335 163.025 88.8282 162.427 88.8282 161.662V158.078H87.4982V157.182H88.8282V155.11H89.9622V157.182H91.8942V158.078H89.9622V161.578C89.9622 162.651 90.4568 163.188 91.4462 163.188Z" fill="#5C5C5C"/>
<path d="M93.908 164V157.182H95.042V164H93.908ZM93.796 154.228H95.168V155.502H93.796V154.228Z" fill="#5C5C5C"/>
<path d="M100.746 164.098C100.074 164.098 99.4905 163.953 98.9959 163.664C98.5012 163.375 98.1186 162.969 97.8479 162.446C97.5866 161.914 97.4559 161.293 97.4559 160.584C97.4559 159.875 97.5912 159.254 97.8619 158.722C98.1419 158.181 98.5292 157.761 99.0239 157.462C99.5279 157.163 100.116 157.014 100.788 157.014C101.245 157.014 101.693 157.098 102.132 157.266C102.571 157.425 102.925 157.639 103.196 157.91L102.818 158.75C102.174 158.227 101.521 157.966 100.858 157.966C100.158 157.966 99.6119 158.195 99.2199 158.652C98.8279 159.109 98.6319 159.753 98.6319 160.584C98.6319 161.405 98.8279 162.04 99.2199 162.488C99.6119 162.936 100.158 163.16 100.858 163.16C101.521 163.16 102.174 162.899 102.818 162.376L103.196 163.216C102.907 163.487 102.543 163.701 102.104 163.86C101.665 164.019 101.213 164.098 100.746 164.098Z" fill="#5C5C5C"/>
<path d="M108.089 164.098C107.445 164.098 106.876 163.953 106.381 163.664C105.896 163.375 105.518 162.964 105.247 162.432C104.986 161.891 104.855 161.265 104.855 160.556C104.855 159.847 104.986 159.226 105.247 158.694C105.518 158.153 105.896 157.737 106.381 157.448C106.876 157.159 107.445 157.014 108.089 157.014C108.733 157.014 109.302 157.159 109.797 157.448C110.292 157.737 110.67 158.153 110.931 158.694C111.202 159.226 111.337 159.847 111.337 160.556C111.337 161.265 111.202 161.891 110.931 162.432C110.67 162.964 110.292 163.375 109.797 163.664C109.302 163.953 108.733 164.098 108.089 164.098ZM108.089 163.16C108.761 163.16 109.274 162.941 109.629 162.502C109.993 162.054 110.175 161.405 110.175 160.556C110.175 159.725 109.993 159.086 109.629 158.638C109.265 158.181 108.752 157.952 108.089 157.952C107.426 157.952 106.913 158.181 106.549 158.638C106.185 159.086 106.003 159.725 106.003 160.556C106.003 161.396 106.18 162.04 106.535 162.488C106.899 162.936 107.417 163.16 108.089 163.16Z" fill="#5C5C5C"/>
<path d="M166.94 84.9H177.08V87.22L170.8 99H167.48L173.74 87.4H166.94V84.9Z" fill="#FB4B4B"/>
<path d="M187.472 91.74C188.285 91.98 188.912 92.4 189.352 93C189.792 93.5866 190.012 94.3066 190.012 95.16C190.012 96.4133 189.532 97.3933 188.572 98.1C187.612 98.8066 186.285 99.16 184.592 99.16C182.899 99.16 181.572 98.8066 180.612 98.1C179.652 97.3933 179.172 96.4133 179.172 95.16C179.172 94.28 179.392 93.5466 179.832 92.96C180.272 92.3733 180.905 91.9666 181.732 91.74C181.039 91.4733 180.499 91.06 180.112 90.5C179.725 89.94 179.532 89.2866 179.532 88.54C179.532 87.3666 179.985 86.44 180.892 85.76C181.799 85.0666 183.032 84.72 184.592 84.72C186.165 84.72 187.399 85.06 188.292 85.74C189.199 86.42 189.652 87.3533 189.652 88.54C189.652 89.3 189.459 89.9666 189.072 90.54C188.685 91.1133 188.152 91.5133 187.472 91.74ZM184.592 87.1C183.165 87.1 182.452 87.6933 182.452 88.88C182.452 90.08 183.165 90.68 184.592 90.68C186.019 90.68 186.732 90.08 186.732 88.88C186.732 87.6933 186.019 87.1 184.592 87.1ZM184.592 96.78C186.272 96.78 187.112 96.16 187.112 94.92C187.112 93.68 186.272 93.06 184.592 93.06C182.912 93.06 182.072 93.68 182.072 94.92C182.072 96.16 182.912 96.78 184.592 96.78Z" fill="#FB4B4B"/>
<path d="M194.924 90.98C193.804 90.98 192.951 90.6866 192.364 90.1C191.778 89.5 191.484 88.76 191.484 87.88C191.484 87 191.778 86.2666 192.364 85.68C192.951 85.0933 193.804 84.8 194.924 84.8C196.044 84.8 196.891 85.0933 197.464 85.68C198.051 86.2666 198.344 87 198.344 87.88C198.344 88.76 198.051 89.5 197.464 90.1C196.891 90.6866 196.044 90.98 194.924 90.98ZM194.924 89.04C195.244 89.04 195.491 88.94 195.664 88.74C195.851 88.5266 195.944 88.24 195.944 87.88C195.944 87.4933 195.851 87.2066 195.664 87.02C195.491 86.82 195.244 86.72 194.924 86.72C194.271 86.72 193.944 87.1066 193.944 87.88C193.944 88.2533 194.031 88.54 194.204 88.74C194.378 88.94 194.618 89.04 194.924 89.04Z" fill="#FB4B4B"/>
<path d="M175.26 126.5H178.3V129H169.1V126.5H172.14V118.36L169.74 119.76L168.56 117.52L173.04 114.9H175.26V126.5Z" fill="#FB4B4B"/>
<path d="M186.612 119.84C187.439 119.84 188.172 120.033 188.812 120.42C189.466 120.807 189.972 121.347 190.332 122.04C190.706 122.733 190.892 123.52 190.892 124.4C190.892 125.32 190.686 126.147 190.272 126.88C189.859 127.6 189.286 128.167 188.552 128.58C187.819 128.98 186.992 129.18 186.072 129.18C184.246 129.18 182.832 128.573 181.832 127.36C180.832 126.147 180.332 124.413 180.332 122.16C180.332 120.613 180.572 119.287 181.052 118.18C181.532 117.06 182.219 116.207 183.112 115.62C184.006 115.02 185.066 114.72 186.292 114.72C187.159 114.72 187.999 114.86 188.812 115.14C189.626 115.407 190.319 115.793 190.892 116.3L189.892 118.52C188.666 117.613 187.506 117.16 186.412 117.16C185.506 117.16 184.792 117.533 184.272 118.28C183.766 119.013 183.486 120.087 183.432 121.5C183.739 120.993 184.172 120.593 184.732 120.3C185.292 119.993 185.919 119.84 186.612 119.84ZM185.892 126.76C186.519 126.76 187.019 126.553 187.392 126.14C187.779 125.727 187.972 125.18 187.972 124.5C187.972 123.833 187.779 123.293 187.392 122.88C187.019 122.467 186.519 122.26 185.892 122.26C185.266 122.26 184.759 122.467 184.372 122.88C183.986 123.293 183.792 123.833 183.792 124.5C183.792 125.167 183.986 125.713 184.372 126.14C184.759 126.553 185.266 126.76 185.892 126.76Z" fill="#FB4B4B"/>
<path d="M46.1198 107.22C48.5598 107.94 50.4198 109.18 51.6998 110.94C53.0198 112.66 53.6798 114.8 53.6798 117.36C53.6798 121.16 52.1798 124.14 49.1798 126.3C46.2198 128.42 42.1598 129.48 36.9998 129.48C31.8398 129.48 27.7598 128.42 24.7598 126.3C21.7998 124.14 20.3198 121.16 20.3198 117.36C20.3198 114.72 20.9798 112.54 22.2998 110.82C23.6198 109.06 25.4998 107.86 27.9398 107.22C25.8598 106.42 24.2598 105.2 23.1398 103.56C22.0198 101.88 21.4598 99.92 21.4598 97.68C21.4598 94.12 22.8598 91.32 25.6598 89.28C28.4598 87.2 32.2398 86.16 36.9998 86.16C41.7998 86.16 45.5798 87.2 48.3398 89.28C51.1398 91.32 52.5398 94.12 52.5398 97.68C52.5398 100 51.9598 102 50.7998 103.68C49.6798 105.36 48.1198 106.54 46.1198 107.22ZM36.9998 94.5C35.1998 94.5 33.8598 94.86 32.9798 95.58C32.0998 96.26 31.6598 97.38 31.6598 98.94C31.6598 100.5 32.0998 101.64 32.9798 102.36C33.8598 103.08 35.1998 103.44 36.9998 103.44C38.7998 103.44 40.1398 103.08 41.0198 102.36C41.8998 101.64 42.3398 100.5 42.3398 98.94C42.3398 97.38 41.8998 96.26 41.0198 95.58C40.1398 94.86 38.7998 94.5 36.9998 94.5ZM36.9998 121.14C41.3598 121.14 43.5398 119.58 43.5398 116.46C43.5398 113.34 41.3598 111.78 36.9998 111.78C32.6398 111.78 30.4598 113.34 30.4598 116.46C30.4598 119.58 32.6398 121.14 36.9998 121.14Z" fill="#FB4B4B"/>
<path d="M74.7764 129.54C69.5364 129.54 65.5364 127.68 62.7764 123.96C60.0164 120.24 58.6364 114.86 58.6364 107.82C58.6364 100.9 60.0164 95.58 62.7764 91.86C65.5764 88.14 69.5764 86.28 74.7764 86.28C79.9764 86.28 83.9564 88.14 86.7164 91.86C89.5164 95.58 90.9164 100.9 90.9164 107.82C90.9164 114.86 89.5364 120.24 86.7764 123.96C84.0164 127.68 80.0164 129.54 74.7764 129.54ZM74.7764 121.2C76.6964 121.2 78.0764 120.16 78.9164 118.08C79.7564 116 80.1764 112.58 80.1764 107.82C80.1764 103.14 79.7564 99.78 78.9164 97.74C78.0764 95.66 76.6964 94.62 74.7764 94.62C72.8564 94.62 71.4764 95.66 70.6364 97.74C69.7964 99.78 69.3764 103.14 69.3764 107.82C69.3764 112.58 69.7964 116 70.6364 118.08C71.4764 120.16 72.8564 121.2 74.7764 121.2Z" fill="#FB4B4B"/>
<path d="M114.593 130.92L107.873 126.96L132.353 84.78L139.073 88.74L114.593 130.92ZM107.573 111.84C104.053 111.84 101.293 110.72 99.2929 108.48C97.2929 106.24 96.2929 103.02 96.2929 98.82C96.2929 94.7 97.2929 91.54 99.2929 89.34C101.293 87.1 104.053 85.98 107.573 85.98C111.093 85.98 113.853 87.1 115.853 89.34C117.853 91.54 118.853 94.72 118.853 98.88C118.853 103.08 117.853 106.3 115.853 108.54C113.853 110.74 111.093 111.84 107.573 111.84ZM107.573 105.36C108.493 105.36 109.153 104.88 109.553 103.92C109.993 102.92 110.213 101.24 110.213 98.88C110.213 96.6 109.993 94.98 109.553 94.02C109.113 93.02 108.453 92.52 107.573 92.52C106.653 92.52 105.973 93.02 105.533 94.02C105.133 94.98 104.933 96.6 104.933 98.88C104.933 101.24 105.133 102.92 105.533 103.92C105.973 104.88 106.653 105.36 107.573 105.36ZM139.313 129.42C135.793 129.42 133.033 128.3 131.033 126.06C129.033 123.82 128.033 120.6 128.033 116.4C128.033 112.28 129.033 109.12 131.033 106.92C133.033 104.68 135.793 103.56 139.313 103.56C142.833 103.56 145.593 104.68 147.593 106.92C149.593 109.12 150.593 112.3 150.593 116.46C150.593 120.66 149.593 123.88 147.593 126.12C145.593 128.32 142.833 129.42 139.313 129.42ZM139.313 122.94C140.233 122.94 140.893 122.46 141.293 121.5C141.733 120.5 141.953 118.82 141.953 116.46C141.953 114.18 141.733 112.54 141.293 111.54C140.853 110.54 140.193 110.04 139.313 110.04C138.393 110.04 137.713 110.54 137.273 111.54C136.873 112.5 136.673 114.14 136.673 116.46C136.673 118.82 136.873 120.5 137.273 121.5C137.713 122.46 138.393 122.94 139.313 122.94Z" fill="#FB4B4B"/>
<path d="M25 40.24C25.1551 40.0199 25.3229 39.8091 25.5026 39.6086C30.5641 34.5415 35.6278 29.4787 40.694 24.42C41.247 23.86 41.66 23.86 42.206 24.42C42.486 24.7 42.766 24.9926 43.0586 25.295C43.1986 25.1648 43.3092 25.05 43.4296 24.9436C43.7852 24.6286 44.2248 24.6202 44.5608 24.952C45.7396 26.1187 46.9123 27.2909 48.079 28.4688C48.3086 28.6984 48.3016 28.9 48.079 29.1394C47.981 29.2472 47.8704 29.3438 47.7766 29.4558C47.7224 29.519 47.694 29.6003 47.697 29.6834C47.7 29.7666 47.7341 29.8456 47.7926 29.9048C47.8511 29.964 47.9297 29.999 48.0128 30.003C48.0959 30.007 48.1775 29.9796 48.2414 29.9262C48.3324 29.8506 48.4122 29.7624 48.4976 29.6798C48.7958 29.3872 48.9932 29.3844 49.2886 29.6798C50.1762 30.5599 51.061 31.4405 51.943 32.3216C52.195 32.5722 52.4484 32.8214 52.6962 33.0762C53.0952 33.4822 53.1036 33.926 52.7074 34.3236C51.6154 35.423 50.5201 36.5188 49.4216 37.6108C49.1962 37.8348 48.9512 37.8614 48.7706 37.6934C48.59 37.5254 48.5886 37.2734 48.8308 37.0242C49.8724 35.9788 50.9158 34.9349 51.9612 33.8924C52.0186 33.835 52.0718 33.7734 52.1124 33.7314L48.8798 30.4932C48.5998 30.748 48.2274 30.923 47.813 30.8152C47.5773 30.7524 47.3608 30.6321 47.183 30.4652C46.7406 30.0452 46.763 29.5398 47.1984 28.8034C46.1274 27.731 45.0578 26.66 43.914 25.519C43.8712 25.6145 43.8166 25.7044 43.7516 25.7864C39.2958 30.2468 34.8373 34.7058 30.376 39.1634C30.2963 39.2497 30.2091 39.3289 30.1156 39.4C30.0405 39.4623 29.9442 39.4932 29.8469 39.4861C29.7496 39.4791 29.6587 39.4347 29.5934 39.3622C29.517 39.2948 29.4702 39.2 29.4631 39.0983C29.4561 38.9967 29.4893 38.8963 29.5556 38.819C29.6236 38.7332 29.6985 38.6531 29.7796 38.5796C33.9292 34.4328 38.0792 30.2851 42.2298 26.1364C42.3023 26.0696 42.379 26.0074 42.4594 25.9502L41.4234 24.9198L40.96 25.3874C41.0734 25.505 41.2134 25.6436 41.345 25.7892C41.548 26.0118 41.555 26.2414 41.3716 26.4178C41.1882 26.5942 40.9628 26.5704 40.7612 26.38C40.6212 26.2498 40.5008 26.1 40.3888 25.9782L39.5348 26.8308C39.6412 26.9204 39.7882 27.0282 39.9156 27.1556C40.1382 27.3782 40.1592 27.6288 39.9856 27.8052C39.812 27.9816 39.5656 27.976 39.336 27.752C39.2058 27.6274 39.0868 27.4902 38.9552 27.3502C38.8782 27.4188 38.8306 27.458 38.7858 27.5014L38.0858 28.1594C38.2538 28.312 38.3952 28.4254 38.5198 28.5542C38.7508 28.7894 38.769 29.0148 38.587 29.2024C38.405 29.39 38.167 29.3606 37.936 29.1464C37.8678 29.0859 37.8033 29.0214 37.7428 28.9532C37.6826 28.8846 37.6336 28.8132 37.5776 28.732C37.5006 28.7964 37.4642 28.823 37.4376 28.8552C37.208 29.0764 36.9812 29.299 36.7054 29.5664C36.8454 29.6938 36.9854 29.8016 37.0974 29.9206C37.3508 30.174 37.3774 30.4246 37.1856 30.6094C36.9938 30.7942 36.7656 30.762 36.5164 30.517C36.4002 30.4022 36.2896 30.2818 36.1244 30.1096C35.9844 30.2706 35.8654 30.4176 35.7338 30.552C35.6022 30.6864 35.4678 30.7956 35.2984 30.9482C35.4818 31.1204 35.6358 31.2492 35.7702 31.3934C35.962 31.5992 35.9634 31.833 35.7926 32.0024C35.6218 32.1718 35.3852 32.1578 35.1808 31.9744C35.1066 31.9072 35.0408 31.8344 34.968 31.7616C34.8952 31.6888 34.8476 31.6216 34.8028 31.5726L33.9488 32.4406C34.0955 32.5459 34.2358 32.66 34.3688 32.7822C34.5662 32.981 34.5718 33.219 34.4094 33.3898C34.247 33.5606 33.9894 33.5648 33.7822 33.3618C33.6422 33.2302 33.5288 33.0818 33.421 32.953L32.5474 33.8C32.679 33.9176 32.8372 34.0422 32.9744 34.185C33.0174 34.2227 33.0522 34.2688 33.0768 34.3204C33.1013 34.3721 33.1151 34.4282 33.1172 34.4854C33.1193 34.5425 33.1097 34.5995 33.089 34.6528C33.0683 34.7061 33.0369 34.7546 32.9968 34.7954C32.826 34.962 32.5908 34.9578 32.3864 34.766C32.2464 34.6358 32.1232 34.486 32.0168 34.3726L31.16 35.228C31.304 35.3384 31.4419 35.4567 31.573 35.5822C31.7704 35.7838 31.7718 36.0176 31.6038 36.1898C31.5633 36.2299 31.5151 36.2614 31.4621 36.2824C31.4091 36.3033 31.3524 36.3132 31.2954 36.3115C31.2384 36.3098 31.1824 36.2965 31.1307 36.2725C31.079 36.2484 31.0328 36.2141 30.9948 36.1716C30.8548 36.0316 30.7288 35.8734 30.6056 35.732L29.7502 36.5846C29.8902 36.712 30.047 36.8394 30.1828 36.985C30.2242 37.0217 30.258 37.0663 30.2821 37.1162C30.3062 37.166 30.3203 37.2202 30.3234 37.2755C30.3265 37.3308 30.3187 37.3862 30.3003 37.4384C30.2819 37.4907 30.2534 37.5388 30.2164 37.58C30.1787 37.6236 30.132 37.6585 30.0796 37.6825C30.0272 37.7064 29.9702 37.7188 29.9126 37.7188C29.855 37.7188 29.798 37.7064 29.7456 37.6825C29.6932 37.6585 29.6465 37.6236 29.6088 37.58C29.4476 37.4151 29.2948 37.2422 29.151 37.062C28.9942 37.2482 28.885 37.3924 28.7632 37.5226C28.6414 37.6528 28.5014 37.776 28.3432 37.9244C28.4832 38.0756 28.6232 38.2044 28.7464 38.3444C28.9676 38.5796 28.9844 38.812 28.7968 38.994C28.6092 39.176 28.3768 39.1452 28.1654 38.9408C28.0338 38.8162 27.9162 38.6762 27.7454 38.4984C27.5984 38.6594 27.4766 38.8022 27.3436 38.9338C27.2106 39.0654 27.0734 39.1774 26.8942 39.3384C27.0776 39.5036 27.233 39.6268 27.3688 39.771C27.5578 39.9712 27.5648 40.2176 27.4038 40.3814C27.2428 40.5452 26.9978 40.5536 26.7738 40.3506C26.6996 40.2834 26.6338 40.2106 26.5596 40.1392C26.4854 40.0678 26.428 40.0174 26.3748 39.967L25.9254 40.436L26.939 41.437C27.2092 41.157 27.5186 40.8462 27.8322 40.5312C27.9075 40.4505 27.9905 40.3774 28.08 40.3128C28.153 40.2553 28.2447 40.227 28.3374 40.2335C28.43 40.24 28.5169 40.2807 28.5812 40.3478C28.6586 40.4076 28.7093 40.4956 28.7222 40.5926C28.735 40.6897 28.709 40.7878 28.6498 40.8658C28.5664 40.9753 28.4726 41.0766 28.3698 41.1682C27.8308 41.7114 27.2876 42.2518 26.7472 42.7936C26.6842 42.8566 26.624 42.9224 26.575 42.9728C27.6586 44.0578 28.7282 45.126 29.795 46.1928C30.4166 45.6874 31.09 45.7868 31.5044 46.211C31.9468 46.6632 31.9398 47.191 31.5044 47.8686L34.7762 51.1334C34.8255 51.0514 34.8822 50.974 34.9456 50.9024C38.9589 46.889 42.9722 42.8757 46.9856 38.8624C47.0658 38.776 47.1539 38.6973 47.2488 38.6272C47.3267 38.578 47.4189 38.5568 47.5105 38.5671C47.602 38.5773 47.6873 38.6184 47.7525 38.6835C47.8176 38.7486 47.8586 38.8339 47.8689 38.9255C47.8791 39.017 47.8579 39.1093 47.8088 39.1872C47.756 39.2607 47.6965 39.3292 47.631 39.3916C43.5458 43.4768 39.4596 47.561 35.3726 51.6444C35.2235 51.7753 35.0644 51.8942 34.8966 52H34.52C34.3908 51.9367 34.2687 51.8597 34.156 51.7704C32.9679 50.5944 31.7863 49.4156 30.6112 48.234C30.39 48.0114 30.4012 47.7944 30.6112 47.5606C30.7162 47.4458 30.8366 47.345 30.929 47.2232C30.9583 47.1934 30.9805 47.1575 30.9942 47.1181C31.0078 47.0786 31.0124 47.0366 31.0077 46.9952C31.003 46.9537 30.9891 46.9138 30.967 46.8784C30.9449 46.843 30.9152 46.813 30.88 46.7906C30.8148 46.7593 30.7438 46.7419 30.6715 46.7395C30.5992 46.737 30.5271 46.7497 30.46 46.7766C30.32 46.8326 30.236 46.9824 30.1212 47.086C29.8818 47.3016 29.6788 47.3086 29.4492 47.086C28.2732 45.9156 27.1014 44.7428 25.9338 43.5678C25.602 43.2332 25.6104 42.7908 25.924 42.438C26.0318 42.3176 26.1466 42.2042 26.2376 42.109L25 40.6796V40.24Z" fill="white"/>
<path d="M33.5398 39.4785C33.8632 39.1985 34.0788 39.1635 34.2692 39.3483C34.4596 39.5331 34.4344 39.7375 34.1558 40.0833L34.846 40.7413C35.2254 40.4809 35.406 40.4613 35.588 40.6713C35.749 40.8617 35.7098 41.0591 35.4592 41.3545L36.127 41.9971C36.2995 41.9314 36.4763 41.8781 36.6562 41.8375C36.722 41.8249 36.8228 41.9061 36.8788 41.9691C37.0482 42.1553 37.0034 42.3485 36.7262 42.6761L37.4598 43.3201C37.6362 43.1801 37.8798 42.9561 38.1724 43.2599C38.3502 43.4447 38.3124 43.6071 38.0324 43.9781C38.0381 43.9945 38.0461 44.0101 38.0562 44.0243C38.6526 44.6893 38.6456 44.9455 38.01 45.5797L36.2838 47.2947C35.7658 47.8127 35.413 47.8169 34.8838 47.3143C34.8516 47.2835 34.8166 47.2569 34.8208 47.2597C34.6165 47.3585 34.4066 47.4455 34.1922 47.5201C34.1306 47.5369 34.0214 47.4641 33.9612 47.4053C33.7666 47.2149 33.8212 46.9993 34.1558 46.6241L33.432 45.9801C33.0372 46.2825 32.8496 46.3217 32.6592 46.1117C32.4688 45.9017 32.5192 45.7281 32.8538 45.3389L32.1538 44.6739C31.7786 44.9847 31.5939 45.0295 31.3909 44.8377C31.1879 44.6459 31.2313 44.4331 31.5519 44.0565L30.8673 43.3733C30.6587 43.5497 30.4263 43.8395 30.0889 43.5301C29.8887 43.3467 29.9489 43.1521 30.2821 42.7377C29.9013 42.2169 29.9251 41.8977 30.3815 41.4469L32.2168 39.6101C32.6998 39.1201 32.9798 39.0921 33.5398 39.4785ZM37.5326 44.7985L32.8944 40.1617C32.256 40.8015 31.5883 41.4707 30.9569 42.1007L35.588 46.7305L37.5326 44.7985Z" fill="white"/>
<path d="M36.7056 38.8946L36.0238 38.2156C35.7844 38.4088 35.5268 38.7322 35.2076 38.3766C34.9276 38.07 35.1964 37.8292 35.4092 37.6192C35.0214 37.006 35.0508 36.7666 35.5674 36.25L37.3454 34.472C37.8214 33.9974 38.1 33.968 38.6586 34.332C39.0268 34.0688 39.2186 34.0394 39.402 34.2172C39.5854 34.395 39.5588 34.5994 39.2774 34.9592L39.9522 35.627C40.3232 35.347 40.5234 35.3218 40.7068 35.5206C40.8902 35.7194 40.8468 35.9056 40.5752 36.2514L41.2752 36.894C41.635 36.6434 41.8254 36.614 42.0032 36.8156C42.181 37.0172 42.1432 37.209 41.8632 37.5254L42.5422 38.196C42.9412 37.9482 43.1204 37.916 43.287 38.1022C43.4536 38.2884 43.427 38.4956 43.147 38.84C43.2296 38.9268 43.3164 39.015 43.3976 39.1088C43.6776 39.428 43.6986 39.8508 43.4088 40.1504C42.692 40.8896 41.9645 41.6181 41.2262 42.3358C40.9154 42.6368 40.494 42.6158 40.1636 42.3218C40.0768 42.2448 39.9928 42.1622 39.9088 42.0838C39.4776 42.4226 39.29 42.466 39.0982 42.277C38.9064 42.088 38.9498 41.8892 39.2662 41.4902L38.6082 40.8392C38.4324 40.9382 38.2494 41.0238 38.0608 41.0954C37.9922 41.1164 37.8704 41.038 37.8018 40.975C37.6072 40.793 37.6506 40.6194 37.9866 40.1728L37.2964 39.5204C37.0738 39.6856 36.8246 40.0216 36.483 39.6534C36.2996 39.4602 36.357 39.2894 36.7056 38.8946ZM42.6598 39.666L38.03 35.0362L36.0602 36.9808L40.7054 41.626L42.6598 39.666Z" fill="white"/>
<path d="M43.7879 29.2192C44.1393 28.9392 44.3563 28.907 44.5397 29.0988C44.7231 29.2906 44.6797 29.4978 44.4319 29.7988L45.1053 30.454C45.2626 30.3838 45.425 30.3258 45.5911 30.2804C45.6583 30.265 45.7647 30.3336 45.8263 30.391C46.0139 30.5674 45.9775 30.7578 45.7115 31.1218L46.3709 31.7994C46.7517 31.5194 46.9309 31.4886 47.1157 31.6734C47.3005 31.8582 47.2781 32.0626 46.9953 32.414L47.6953 33.0622C48.0635 32.8172 48.2483 32.792 48.4233 32.9824C48.5983 33.1728 48.5549 33.3688 48.2833 33.7174C48.3659 33.807 48.4541 33.8966 48.5353 33.9974C48.6714 34.1366 48.7477 34.3235 48.7477 34.5182C48.7477 34.7129 48.6714 34.8999 48.5353 35.039C47.8185 35.7764 47.091 36.5034 46.3527 37.2202C46.2128 37.3555 46.0258 37.4311 45.8312 37.4311C45.6366 37.4311 45.4496 37.3555 45.3097 37.2202C45.2145 37.139 45.1263 37.0494 45.0297 36.9654C44.5915 37.3154 44.4207 37.3546 44.2219 37.16C44.0231 36.9654 44.0581 36.7792 44.4011 36.3564L43.7165 35.732C43.5362 35.8256 43.349 35.9051 43.1565 35.97C43.0893 35.9896 42.9689 35.9056 42.9045 35.8384C42.7239 35.6564 42.7757 35.473 43.1075 35.0572L42.4075 34.4132C41.9763 34.7212 41.7915 34.7576 41.6095 34.5532C41.4275 34.3488 41.4695 34.1626 41.8097 33.7734L41.0915 33.1238C40.7093 33.4374 40.5315 33.478 40.3341 33.282C40.1367 33.086 40.1815 32.8858 40.5049 32.4854C40.1297 31.8498 40.1577 31.6454 40.6897 31.1106C41.288 30.5114 41.8867 29.9127 42.4859 29.3144C42.9535 28.8664 43.2713 28.8412 43.7879 29.2192ZM47.8199 34.5126L43.1845 29.88C42.5293 30.5366 41.8587 31.2114 41.2245 31.84L45.8599 36.4754L47.8199 34.5126Z" fill="white"/>
<defs>
<linearGradient id="paint0_linear" x1="19" y1="37.9993" x2="58.9967" y2="37.9993" gradientUnits="userSpaceOnUse">
<stop stop-color="#836FFF"/>
<stop offset="1" stop-color="#E486EC"/>
</linearGradient>
</defs>
</svg>
