<svg width="192" height="293" viewBox="0 0 192 293" fill="none" xmlns="http://www.w3.org/2000/svg">
<path d="M81.0982 271.926L91.4678 273.808L91.7431 279.291L79.7446 279.176L81.0982 271.926Z" fill="white"/>
<path d="M91.7434 279.727L79.722 279.612C79.5844 279.612 79.4696 279.543 79.4008 279.451C79.3091 279.36 79.2861 279.222 79.3091 279.107L80.6626 271.858C80.7085 271.628 80.9379 271.468 81.1673 271.513L91.5369 273.372C91.7434 273.418 91.881 273.578 91.881 273.762L92.1563 279.245C92.1563 279.359 92.1105 279.474 92.0416 279.566C91.9728 279.681 91.8581 279.727 91.7434 279.727ZM80.2497 278.763L91.2846 278.878L91.0322 274.175L81.4197 272.431L80.2497 278.763Z" fill="#262424"/>
<path d="M117.965 289.821C117.323 290.67 116.359 291.427 115.189 291.931C112.803 293.01 109.569 293.056 106.747 290.876C102.572 287.664 89.9766 280.415 89.9766 280.415C91.5596 274.221 88.6919 272.271 88.6919 272.271C90.6419 269.586 93.6014 266.535 95.712 264.516C97.1573 263.117 98.1897 262.199 98.1897 262.199C107.206 269.953 117.965 289.821 117.965 289.821Z" fill="#161616"/>
<path d="M117.966 289.821C117.323 290.67 116.36 291.427 115.19 291.931C107.711 277.111 98.3736 267.178 95.7124 264.493C97.1577 263.094 98.1901 262.176 98.1901 262.176C107.206 269.953 117.966 289.821 117.966 289.821Z" fill="white"/>
<path d="M115.213 292.367C115.052 292.367 114.914 292.276 114.823 292.138C107.412 277.432 98.0982 267.499 95.414 264.815C95.3223 264.723 95.2993 264.631 95.2993 264.516C95.2993 264.402 95.3452 264.287 95.437 264.218C96.8823 262.819 97.9147 261.901 97.9376 261.878C98.0982 261.74 98.3505 261.74 98.5111 261.878C107.458 269.609 118.264 289.431 118.379 289.637C118.447 289.775 118.447 289.959 118.356 290.096C117.667 291.037 116.635 291.817 115.419 292.344C115.327 292.367 115.258 292.367 115.213 292.367ZM96.3317 264.516C99.36 267.59 108.215 277.272 115.396 291.381C116.222 290.968 116.933 290.417 117.461 289.775C116.199 287.504 106.449 270.068 98.2129 262.75C97.8458 263.094 97.1805 263.713 96.3317 264.516Z" fill="#262424"/>
<path d="M72.61 267.568C72.61 267.568 74.583 265.755 78.0472 266.673C81.5113 267.568 85.0214 270.871 83.3237 277.891C81.626 284.911 73.5277 287.343 69.0999 281.126C64.6722 274.886 72.61 267.568 72.61 267.568Z" fill="#836FFF"/>
<path d="M94.2441 234.096L71.7155 266.948C75.5697 268.072 80.4333 271.032 79.7451 276.354C79.0568 281.677 74.652 282.571 74.652 282.571C74.652 282.571 65.7737 282.571 58.5012 281.562C57.9735 281.493 57.4917 281.401 56.987 281.332C51.5728 280.438 47.5122 278.212 47.8563 270.412C47.971 267.453 48.751 263.69 50.311 258.896C55.9547 241.46 74.8815 199.202 74.8815 199.202C81.4427 184.703 101.608 182.546 101.838 201.358C102.067 220.17 94.2441 234.096 94.2441 234.096Z" fill="#161616"/>
<path d="M74.6058 212.21C73.7569 212.21 72.8851 211.98 71.9445 211.498C71.7151 211.384 71.6463 211.108 71.7381 210.902C71.8528 210.672 72.1281 210.604 72.3345 210.695C73.7569 211.43 75.0416 211.498 76.1428 210.925C79.3317 209.273 80.2723 202.941 80.2953 202.872C80.3411 202.62 80.5476 202.459 80.8 202.505C81.0523 202.551 81.2129 202.758 81.167 203.01C81.1212 203.285 80.1347 209.869 76.5558 211.728C75.9593 212.049 75.294 212.21 74.6058 212.21Z" fill="#262424"/>
<path d="M60.13 276.767C60.13 278.58 59.5106 280.231 58.4782 281.562C57.9506 281.493 57.4688 281.401 56.9641 281.332C51.5499 280.438 47.4892 278.212 47.8333 270.412C49.0951 269.518 50.6552 268.99 52.3299 268.99C56.6429 268.99 60.13 272.477 60.13 276.767Z" fill="white"/>
<path d="M77.1295 272.821C77.1066 272.821 77.0836 272.821 77.0377 272.821L65.934 270.779C65.7964 270.756 65.6587 270.665 65.6128 270.527C65.544 270.389 65.567 270.229 65.6358 270.114L91.0092 230.242C91.1468 230.035 91.4221 229.966 91.6286 230.104C91.8351 230.242 91.9039 230.517 91.7662 230.723L66.7599 270.045L77.1983 271.972C77.4507 272.018 77.6113 272.248 77.5654 272.5C77.5425 272.684 77.3589 272.821 77.1295 272.821Z" fill="#262424"/>
<path d="M61.9652 272.546C61.7817 272.546 61.6211 272.454 61.5523 272.271C61.4605 272.041 61.5523 271.789 61.7817 271.674L65.8194 269.931L70.0865 266.948C70.293 266.81 70.5683 266.856 70.7059 267.063C70.8436 267.269 70.7977 267.545 70.5912 267.682L66.2782 270.688C66.2553 270.711 66.2323 270.711 66.2094 270.733L62.1258 272.5C62.0799 272.546 62.0111 272.546 61.9652 272.546Z" fill="#262424"/>
<path d="M162.679 269.747C158.159 270.986 151.162 257.152 149.304 250.981C147.422 244.787 147.813 238.065 147.996 237.124C148.111 236.413 149.579 234.211 151.208 232.765C151.208 232.765 151.231 232.742 151.254 232.742C151.736 232.306 152.217 231.939 152.676 231.687C157.173 229.301 161.325 234.394 163.55 245.268C165.73 256.166 167.175 268.485 162.679 269.747Z" fill="#161616"/>
<path d="M162.679 269.747C164.812 267.109 164.331 259.492 161.669 246.576C158.045 229.14 151.805 232.398 151.254 232.742C151.736 232.306 152.217 231.939 152.676 231.687C157.173 229.301 161.325 234.394 163.551 245.268C165.73 256.166 167.175 268.485 162.679 269.747Z" fill="white"/>
<path d="M162.679 270.183C162.495 270.183 162.358 270.091 162.289 269.931C162.22 269.77 162.243 269.609 162.335 269.472C164.308 267.04 163.963 259.79 161.233 246.645C159.215 236.963 156.439 233.889 154.466 233.018C152.883 232.329 151.667 232.949 151.46 233.086C151.277 233.201 151.024 233.155 150.887 232.972C150.749 232.788 150.772 232.559 150.933 232.398C151.46 231.916 151.965 231.549 152.447 231.297C153.915 230.517 155.36 230.448 156.737 231.113C159.834 232.559 162.38 237.56 163.941 245.177C167.061 260.639 166.671 269.036 162.771 270.137C162.748 270.183 162.702 270.183 162.679 270.183ZM153.296 231.87C153.754 231.893 154.282 232.008 154.81 232.26C157.953 233.637 160.408 238.432 162.082 246.507C164.445 257.955 165.042 264.906 163.849 268.416C165.845 265.709 165.615 257.703 163.115 245.383C161.623 238.042 159.238 233.247 156.393 231.916C155.383 231.435 154.351 231.435 153.296 231.87Z" fill="#262424"/>
<path d="M144.188 243.754L149.281 237.124C149.281 237.124 151.873 235.174 152.859 239.258L150.015 248.182L144.188 243.754Z" fill="white"/>
<path d="M150.038 248.595C149.946 248.595 149.854 248.572 149.786 248.503L143.935 244.075C143.844 244.007 143.775 243.915 143.775 243.8C143.775 243.685 143.798 243.571 143.867 243.479L148.96 236.849C148.983 236.826 149.006 236.78 149.051 236.757C149.097 236.711 150.199 235.908 151.392 236.321C152.286 236.642 152.952 237.583 153.319 239.12C153.342 239.189 153.342 239.281 153.319 239.349L150.474 248.274C150.428 248.411 150.336 248.503 150.199 248.549C150.13 248.595 150.084 248.595 150.038 248.595ZM144.807 243.662L149.831 247.448L152.447 239.212C152.149 238.065 151.69 237.353 151.093 237.147C150.451 236.918 149.786 237.308 149.602 237.422L144.807 243.662Z" fill="#262424"/>
<path d="M136.732 249.329C136.732 249.329 136.847 247.287 137.466 246.209C138.085 245.131 141.435 242.699 143.913 242.424C146.413 242.148 152.585 244.236 153.365 249.329C154.145 254.422 151.713 257.817 151.208 258.552C150.703 259.286 149.029 261.465 147.606 261.075C146.184 260.708 136.732 249.329 136.732 249.329Z" fill="#836FFF"/>
<path d="M149.74 256.647C149.74 256.647 144.83 267.086 141.779 272.546C141.251 273.464 140.816 274.221 140.448 274.771C138.292 278.052 132.373 280.805 125.192 276.446C123.724 275.551 122.21 274.358 120.65 272.821C111.473 263.759 95.0471 231.825 95.0471 231.825C95.0471 231.825 93.7853 193.053 103.1 189.566C119.067 183.578 125.422 201.794 128.473 213.127C131.524 224.46 135.722 250.384 135.722 250.384C139.347 246.438 142.972 244.167 147.17 247.677C151.323 251.21 149.74 256.647 149.74 256.647Z" fill="#161616"/>
<path d="M94.9322 225.883C94.9092 225.883 94.8634 225.883 94.8404 225.86C94.7028 225.837 91.3992 225.034 90.8256 223.038C90.298 221.226 90.6192 210.007 90.6421 209.525C90.6421 209.273 90.8486 209.089 91.078 209.089C91.078 209.089 91.078 209.089 91.1009 209.089C91.3533 209.089 91.5368 209.296 91.5368 209.548C91.4451 212.76 91.2845 221.386 91.6974 222.786C92.0645 224.024 94.2439 224.782 95.0698 224.988C95.2992 225.034 95.4598 225.286 95.391 225.516C95.3222 225.745 95.1387 225.883 94.9322 225.883Z" fill="#262424"/>
<path d="M94.8405 229.852C94.5881 229.852 94.3816 229.645 94.4046 229.393L94.8405 210.787C94.8405 210.535 95.0469 210.351 95.2993 210.351C95.5517 210.351 95.7352 210.558 95.7352 210.81L95.2993 229.416C95.2764 229.645 95.0699 229.852 94.8405 229.852Z" fill="#262424"/>
<path d="M121.934 214.412C121.062 214.412 120.259 214.205 119.525 213.815C116.428 212.118 115.786 207.507 115.763 207.323C115.74 207.071 115.901 206.864 116.153 206.818C116.405 206.795 116.612 206.956 116.658 207.208C116.658 207.254 117.254 211.567 119.961 213.035C121.315 213.77 122.99 213.678 124.985 212.737C125.215 212.622 125.467 212.737 125.582 212.944C125.697 213.173 125.582 213.425 125.375 213.54C124.137 214.114 122.99 214.412 121.934 214.412Z" fill="#262424"/>
<path d="M141.779 272.523C141.251 273.441 140.816 274.198 140.449 274.748C138.292 278.029 132.373 280.782 125.192 276.423C125.169 276.194 125.169 275.941 125.169 275.712C125.169 270.963 129.024 267.086 133.795 267.086C137.42 267.109 140.517 269.357 141.779 272.523Z" fill="white"/>
<path d="M136.273 263.645C136.25 263.645 136.227 263.645 136.204 263.645C136.021 263.622 135.883 263.484 135.837 263.323L122.6 213.976C122.531 213.747 122.669 213.494 122.921 213.425C123.15 213.357 123.403 213.494 123.471 213.747L136.456 262.153L145.197 249.145C145.335 248.939 145.61 248.893 145.817 249.031C146.023 249.168 146.069 249.444 145.931 249.65L136.64 263.461C136.548 263.576 136.411 263.645 136.273 263.645Z" fill="#262424"/>
<path d="M135.952 266.627H135.929C135.677 266.604 135.493 266.398 135.516 266.145C135.86 261.121 135.516 252.77 135.516 252.678C135.516 252.426 135.7 252.22 135.952 252.22C136.204 252.197 136.411 252.403 136.411 252.656C136.411 252.747 136.755 261.144 136.411 266.214C136.388 266.443 136.181 266.627 135.952 266.627Z" fill="#262424"/>
<path d="M72.6102 132.832L65.8195 145.863C65.8195 145.863 52.4445 133.405 51.2057 131.019C49.9668 128.633 48.5445 107.229 48.5445 107.229C48.5445 107.229 43.9561 104.889 41.7308 102.847C39.4825 100.805 37.5325 95.1616 37.5325 95.1616C37.2801 93.854 40.6526 89.5639 41.272 89.6098C41.8914 89.6557 45.7226 94.7487 45.8603 94.9093C45.8144 94.7487 44.0479 89.4492 43.8644 88.6692C43.6808 87.8892 44.392 87.155 45.0803 87.6368C45.7685 88.1186 49.7145 95.7122 49.898 95.9187C50.0815 96.1252 53.7981 98.0523 53.7981 98.0523L55.1746 96.8823C55.0828 93.3722 56.5281 93.2804 56.8264 93.9687C57.1246 94.6569 57.3999 99.7041 57.2164 100.599C57.0328 101.471 55.6563 104.682 55.6563 104.682L61.1853 123.862L72.6102 132.832Z" fill="white"/>
<path d="M65.8199 146.298C65.7051 146.298 65.6134 146.252 65.5216 146.184C64.971 145.679 52.0779 133.635 50.8161 131.226C49.6002 128.909 48.2925 110.005 48.109 107.504C47.1684 106.999 43.4289 105.004 41.41 103.168C39.1159 101.081 37.1888 95.5287 37.097 95.2993C37.097 95.2763 37.0741 95.2534 37.0741 95.2304C36.8446 93.9916 38.8176 91.3304 39.8041 90.2292C40.6759 89.2656 41.02 89.1509 41.2953 89.1739C41.4788 89.1968 41.9377 89.2198 44.6448 92.661C43.9107 90.4127 43.5206 89.128 43.4289 88.7839C43.2912 88.2103 43.4977 87.5909 43.9795 87.2697C44.3924 86.9944 44.8971 87.0174 45.3101 87.3156C45.7689 87.6368 46.9619 89.7474 49.1643 93.7851C49.6231 94.634 50.059 95.4369 50.1966 95.6434C50.4949 95.8499 52.1696 96.7446 53.7296 97.5705L54.7161 96.7217C54.6932 93.8769 55.6567 93.3492 56.0926 93.2575C56.5515 93.1657 57.0103 93.3951 57.1938 93.831C57.515 94.5881 57.8362 99.727 57.6068 100.713C57.4232 101.516 56.345 104.109 56.0926 104.728L61.5298 123.632L72.8629 132.488C73.0235 132.625 73.0694 132.832 72.9776 133.015L66.1869 146.046C66.1181 146.161 66.0034 146.253 65.8887 146.275C65.8657 146.275 65.8428 146.298 65.8199 146.298ZM37.9458 95.0469C38.1064 95.5287 39.9647 100.668 42.0065 102.526C44.186 104.522 48.6825 106.816 48.7284 106.839C48.866 106.908 48.9578 107.045 48.9578 107.183C49.3478 113.102 50.5866 128.909 51.5731 130.79C52.5137 132.556 60.9792 140.724 65.6822 145.128L72.06 132.923L60.9104 124.183C60.8415 124.137 60.7956 124.045 60.7727 123.953L55.2438 104.774C55.2208 104.682 55.2208 104.568 55.2667 104.499C55.6338 103.604 56.6432 101.172 56.8038 100.484C56.9873 99.7041 56.6891 94.7028 56.4367 94.1293C56.4138 94.1063 56.3909 94.0375 56.322 94.0604C56.0926 94.1063 55.542 94.7028 55.6109 96.8822C55.6109 97.0199 55.565 97.1346 55.4503 97.2264L54.0738 98.3964C53.9361 98.5111 53.7526 98.534 53.592 98.4423C51.0914 97.1346 49.7608 96.3775 49.6002 96.2169C49.5084 96.1252 49.4166 95.9875 48.4301 94.1751C47.3978 92.2939 45.2642 88.348 44.8054 87.9809C44.6907 87.8891 44.553 87.8891 44.4383 87.958C44.3007 88.0497 44.1859 88.3021 44.2548 88.5545C44.3695 88.9903 44.9889 90.9633 46.136 94.4275C46.2048 94.611 46.2507 94.7487 46.2507 94.7716C46.3195 94.9781 46.2277 95.1846 46.0442 95.2763C45.8607 95.3681 45.6313 95.3222 45.5166 95.1616C43.5436 92.5463 41.7771 90.4357 41.2494 90.0686C40.4694 90.5274 37.8311 94.0604 37.9458 95.0469Z" fill="#262424"/>
<path d="M70.4539 130.17L62.4702 144.692L78.6899 161.004C78.6899 161.004 87.7748 143.247 87.7748 142.995C87.7748 142.742 70.4539 130.17 70.4539 130.17Z" fill="#836FFF"/>
<path d="M65.8195 146.298C65.7507 146.298 65.6818 146.275 65.613 146.253C65.3836 146.138 65.3148 145.862 65.4295 145.656L71.8531 133.336C71.9678 133.107 72.2431 133.038 72.4496 133.153C72.679 133.268 72.7479 133.543 72.6331 133.749L66.2095 146.069C66.1177 146.23 65.9801 146.298 65.8195 146.298Z" fill="#262424"/>
<path d="M118.218 119.847C114.892 121.315 117.897 128.22 119.182 130.4C120.467 132.579 118.998 138.98 123.38 140.953C127.762 142.926 120.008 151.736 131.111 160.155C139.669 166.648 153.892 161.096 151.667 153.823C149.442 146.574 137.65 143.545 135.7 136.892C134.461 132.648 136.067 126.408 128.909 124.389C123.587 122.898 120.857 118.677 118.218 119.847Z" fill="#262424"/>
<path d="M86.2605 141.779C86.2605 141.779 77.428 158.549 77.0838 162.289C76.7397 166.028 82.6128 173.324 82.6128 173.324L72.2432 199.408C72.2432 199.408 83.2092 214.182 95.0012 215.123C106.816 216.064 128.473 203.996 128.473 203.996L121.751 176.719L129.138 161.004L125.399 141.779C125.399 141.779 114.364 146.826 106.793 147.675C99.2454 148.524 86.2605 141.779 86.2605 141.779Z" fill="#836FFF"/>
<path d="M78.2308 158.985C78.162 158.985 78.1161 158.962 78.0473 158.939C77.8179 158.847 77.7261 158.572 77.8179 158.343C79.7909 153.915 85.1592 142.88 85.2051 142.788C85.3198 142.559 85.5721 142.467 85.8015 142.582C86.031 142.697 86.1227 142.949 86.008 143.178C85.9621 143.293 80.5938 154.305 78.6208 158.71C78.575 158.893 78.4144 158.985 78.2308 158.985Z" fill="#262424"/>
<path d="M95.9648 212.944C95.7584 212.944 95.5519 212.944 95.3454 212.921C86.3064 212.462 75.7992 199.179 75.3633 198.605C75.2027 198.422 75.2486 198.123 75.4321 197.986C75.6157 197.825 75.9139 197.871 76.0516 198.055C76.1663 198.192 86.7423 211.59 95.3684 212.026C104.109 212.462 124.917 202.299 125.124 202.207C125.353 202.092 125.605 202.184 125.72 202.413C125.835 202.643 125.743 202.895 125.514 203.01C124.711 203.446 105.21 212.944 95.9648 212.944Z" fill="#262424"/>
<path d="M104.04 144.44C99.1764 144.05 96.0563 147.721 95.7122 151.69C95.3681 155.659 99.727 157.471 99.727 157.471C99.727 157.471 101.425 153.273 102.962 152.951C104.499 152.607 106.128 158.044 106.128 158.044C106.128 158.044 111.404 156.852 112.368 151.713C113.331 146.528 108.353 144.784 104.04 144.44Z" fill="#161616"/>
<path d="M101.081 137.214L100.048 147.147C100.048 147.147 101.494 149.969 103.857 150.084C106.22 150.198 108.514 147.652 108.514 147.652V136.617L101.081 137.214Z" fill="white"/>
<path d="M104.04 150.543C103.971 150.543 103.925 150.543 103.857 150.543C101.264 150.428 99.75 147.491 99.6811 147.354C99.6353 147.285 99.6353 147.193 99.6353 147.124L100.668 137.191C100.691 136.984 100.851 136.824 101.058 136.801L108.491 136.204C108.605 136.204 108.72 136.227 108.812 136.319C108.904 136.411 108.95 136.525 108.95 136.64V147.675C108.95 147.79 108.904 147.881 108.835 147.95C108.743 148.065 106.495 150.543 104.04 150.543ZM100.507 147.078C100.782 147.56 102.067 149.602 103.902 149.694C105.761 149.786 107.642 147.996 108.101 147.514V137.099L101.471 137.626L100.507 147.078Z" fill="#262424"/>
<path d="M115.144 121.453L116.474 121.246C116.887 121.177 117.323 121.338 117.599 121.682C117.897 122.072 118.264 122.646 118.402 123.265C118.539 123.976 118.287 124.664 118.035 125.077C117.874 125.353 117.622 125.536 117.323 125.628L115.855 126.041C115.144 126.247 114.41 125.743 114.364 125.009L114.18 122.714C114.112 122.095 114.524 121.544 115.144 121.453Z" fill="white"/>
<path d="M115.511 126.546C115.189 126.546 114.868 126.454 114.593 126.247C114.203 125.972 113.951 125.536 113.905 125.032L113.721 122.737C113.652 121.889 114.249 121.131 115.075 120.994L116.405 120.787C116.979 120.696 117.575 120.925 117.942 121.384C118.264 121.797 118.677 122.439 118.814 123.15C118.975 123.999 118.677 124.779 118.401 125.284C118.195 125.651 117.851 125.926 117.415 126.041L115.947 126.454C115.809 126.523 115.648 126.546 115.511 126.546ZM115.212 121.889C114.845 121.957 114.57 122.301 114.593 122.669L114.777 124.963C114.799 125.192 114.914 125.376 115.098 125.513C115.281 125.628 115.511 125.674 115.717 125.628L117.185 125.215C117.369 125.169 117.53 125.032 117.621 124.871C117.828 124.504 118.057 123.93 117.942 123.357C117.828 122.806 117.484 122.279 117.231 121.957C117.071 121.751 116.795 121.659 116.543 121.682L115.212 121.889Z" fill="#262424"/>
<path d="M95.6666 130.996C94.6801 135.264 95.1389 140.655 100.255 141.985C104.017 142.972 109.454 139.668 111.427 134.093C113.377 128.519 113.813 123.357 106.885 121.728C106.266 121.59 105.21 121.43 104.637 121.384C100.415 121.109 98.8096 121.017 96.2631 128.725C96.0107 129.413 95.8501 130.193 95.6666 130.996Z" fill="white"/>
<path d="M101.471 142.582C101.012 142.582 100.576 142.536 100.163 142.421C94.8865 141.045 94.1753 135.562 95.2536 130.905L95.3224 130.606C95.483 129.895 95.6436 129.23 95.85 128.61C97.1348 124.71 98.236 122.714 99.5895 121.728C100.966 120.719 102.526 120.833 104.683 120.971C104.935 120.994 105.118 121.2 105.095 121.453C105.073 121.705 104.866 121.889 104.614 121.866C100.507 121.59 99.1307 121.499 96.6759 128.909C96.4924 129.482 96.3318 130.125 96.1712 130.813L96.1024 131.134C95.6206 133.199 94.5194 140.058 100.37 141.595C101.54 141.894 103.008 141.687 105.004 140.907C105.233 140.815 105.485 140.93 105.577 141.159C105.669 141.389 105.554 141.641 105.325 141.733C103.788 142.307 102.549 142.582 101.471 142.582Z" fill="#262424"/>
<path d="M109.317 134.323C107.826 133.038 107.596 131.501 107.803 130.17C107.894 129.643 108.055 128.978 108.124 128.312C104.224 130.4 98.1213 130.469 95.483 130.377C94.6342 130.354 93.8771 129.803 93.6477 129C92.2024 123.953 98.1213 117.14 103.421 119.044C110.877 116.818 116.979 122.21 116.314 127.67C115.58 133.726 110.785 135.585 109.317 134.323Z" fill="#262424"/>
<path d="M109.614 133.841C109.614 133.841 113.193 131.799 115.832 133.566C118.47 135.332 115.396 141.825 108.49 138.888L109.614 133.841Z" fill="white"/>
<path d="M111.817 140.081C110.762 140.081 109.592 139.852 108.307 139.301C108.078 139.209 107.963 138.934 108.078 138.728C108.169 138.498 108.445 138.384 108.651 138.498C112.505 140.127 114.96 138.705 115.901 136.984C116.543 135.791 116.406 134.506 115.58 133.956C113.217 132.373 109.867 134.231 109.844 134.254C109.638 134.369 109.362 134.3 109.225 134.093C109.11 133.887 109.179 133.612 109.385 133.474C109.546 133.382 113.24 131.318 116.061 133.222C117.3 134.048 117.553 135.814 116.681 137.42C115.878 138.911 114.157 140.081 111.817 140.081Z" fill="#262424"/>
<path d="M136.938 134.415L143.087 127.785L157.563 103.26C157.563 103.26 156.554 99.4058 156.554 97.8229C156.554 96.2399 159.628 90.6651 160.935 90.2292C162.243 89.7933 161.991 91.2157 161.784 91.9269C161.578 92.6381 160.798 94.3587 160.798 94.3587L161.257 96.8134C161.257 96.8134 166.35 94.6569 167.038 93.9228C167.726 93.2116 169.286 88.2792 169.745 87.7286C170.204 87.178 170.984 88.738 170.984 88.738C170.984 88.738 172.842 90.8257 173.622 92.4316C174.379 94.0375 171.924 102.319 171.374 102.709C170.823 103.099 164.193 106.403 164.193 106.403C164.193 106.403 157.104 130.4 155.223 133.13C153.365 135.837 142.49 146.987 142.49 146.987L136.938 134.415Z" fill="white"/>
<path d="M142.49 147.423C142.467 147.423 142.444 147.423 142.422 147.423C142.284 147.4 142.169 147.308 142.1 147.17L136.548 134.598C136.48 134.438 136.503 134.254 136.617 134.139L142.72 127.555L157.081 103.214C156.875 102.434 156.095 99.2911 156.095 97.8458C156.095 96.0793 159.261 90.3439 160.775 89.8392C161.44 89.6327 161.83 89.8163 162.037 89.9998C162.427 90.3668 162.472 91.078 162.174 92.0645C161.991 92.7069 161.417 94.0146 161.234 94.4275L161.578 96.2399C163.528 95.391 166.304 94.1063 166.717 93.6704C167.038 93.3263 167.749 91.5139 168.254 90.1833C168.85 88.6692 169.171 87.7744 169.424 87.4991C169.584 87.2927 169.814 87.2009 170.066 87.2468C170.64 87.3156 171.144 88.1645 171.351 88.5545C171.626 88.8756 173.278 90.7798 174.012 92.3169C174.494 93.3263 173.943 96.0793 173.416 98.2129C173.37 98.3964 172.268 102.686 171.626 103.145C171.098 103.512 165.753 106.197 164.56 106.793C163.849 109.156 157.402 130.813 155.59 133.451C153.732 136.158 143.247 146.895 142.812 147.354C142.72 147.377 142.605 147.423 142.49 147.423ZM137.443 134.506L142.628 146.253C144.693 144.142 153.273 135.263 154.879 132.923C156.691 130.285 163.711 106.564 163.78 106.334C163.803 106.219 163.895 106.128 164.01 106.082C166.602 104.774 170.594 102.755 171.098 102.434C171.718 101.631 173.874 94.0375 173.232 92.661C172.521 91.101 170.708 89.0592 170.686 89.0362C170.663 89.0133 170.64 88.9674 170.617 88.9445C170.456 88.6003 170.204 88.2333 170.043 88.0956C169.837 88.4398 169.424 89.541 169.08 90.4586C168.323 92.4545 167.772 93.8081 167.382 94.244C166.671 95.001 162.335 96.8593 161.463 97.2264C161.348 97.2723 161.211 97.2723 161.096 97.2034C160.981 97.1346 160.912 97.0428 160.867 96.9052L160.408 94.4504C160.385 94.3587 160.408 94.2669 160.431 94.1981C160.431 94.1751 161.188 92.5234 161.394 91.8351C161.601 91.101 161.555 90.711 161.486 90.6192C161.463 90.5963 161.348 90.5733 161.096 90.6651C160.018 91.0092 157.012 96.3087 157.012 97.8458C157.012 99.3599 157.999 103.145 158.022 103.168C158.045 103.283 158.045 103.398 157.976 103.489L143.5 128.014C143.477 128.037 143.477 128.06 143.454 128.083L137.443 134.506Z" fill="#262424"/>
<path d="M121.636 143.362L137.305 132.12L145.22 146.39L129.161 161.004C124.045 159.192 118.057 153.135 121.636 143.362Z" fill="#836FFF"/>
<path d="M127.739 160.843C127.67 160.843 127.601 160.82 127.532 160.797C122.852 158.457 118.287 152.722 120.856 144.28C120.925 144.05 121.178 143.912 121.407 143.981C121.636 144.05 121.774 144.302 121.705 144.532C119.296 152.424 123.334 157.7 127.922 159.995C128.152 160.109 128.221 160.362 128.129 160.591C128.06 160.752 127.899 160.843 127.739 160.843Z" fill="#262424"/>
<path d="M141.641 147.445C141.481 147.445 141.32 147.354 141.251 147.193L134.897 134.896C134.782 134.667 134.874 134.415 135.08 134.3C135.31 134.185 135.562 134.277 135.677 134.483L142.009 146.78C142.123 147.01 142.031 147.262 141.825 147.377C141.779 147.423 141.71 147.445 141.641 147.445Z" fill="#262424"/>
<path d="M177.178 168.942L174.379 171.741C173.691 172.429 172.613 172.429 171.925 171.741L165.019 164.835C164.331 164.147 164.331 163.069 165.019 162.38L167.818 159.582C168.506 158.893 169.584 158.893 170.273 159.582L177.178 166.487C177.843 167.152 177.843 168.253 177.178 168.942Z" fill="#836FFF"/>
<path d="M183.556 148.019L187.892 152.355C189.497 153.961 189.497 156.599 187.892 158.205L181.881 164.216C181.078 165.019 179.793 165.019 178.99 164.216L172.222 157.448C171.832 157.058 171.626 156.553 171.626 156.003V145.977C171.626 145.335 172.131 144.83 172.773 144.83C173.232 144.83 173.668 145.105 173.828 145.541L176.444 152.011L180.458 147.996C181.307 147.17 182.707 147.17 183.556 148.019Z" fill="#836FFF"/>
<path d="M1.65192 140.425C0.0460128 141.389 -0.481643 143.477 0.481903 145.082C1.72075 147.17 3.69372 148.547 5.87317 149.074C8.05262 149.625 10.4385 149.35 12.5262 148.088L15.4398 146.344L9.17676 135.906L1.65192 140.425ZM6.44671 146.872C4.81786 146.459 3.37254 145.45 2.45488 143.912C2.1337 143.385 2.31723 142.719 2.84488 142.398L8.41969 139.072L12.3198 145.564L11.3791 146.138C9.81912 147.055 8.05262 147.262 6.44671 146.872Z" fill="#836FFF"/>
<path d="M20.3721 129.207L26.6351 139.645L29.5487 137.902C31.6364 136.64 33.0129 134.69 33.5635 132.511C34.1141 130.331 33.8388 127.945 32.577 125.857C31.6134 124.252 29.5258 123.724 27.9198 124.687L20.3721 129.207ZM28.3787 135.952L27.4381 136.525L23.538 130.033L29.1128 126.706C29.6405 126.385 30.3058 126.569 30.627 127.096C31.5446 128.633 31.7511 130.377 31.3381 132.006C30.9252 133.566 29.9158 135.011 28.3787 135.952Z" fill="#836FFF"/>
<path d="M22.2078 126.431L26.2914 133.268C28.7461 137.374 27.7367 142.605 24.1349 145.518L29.8473 155.062C32.8297 154.282 36.0186 156.347 36.0186 156.347L25.7178 162.518C25.7178 162.518 25.4196 158.733 27.5073 156.462L21.7948 146.918C17.5048 148.73 12.4117 147.17 9.95698 143.041L5.87338 136.204C5.59808 135.745 5.75867 135.126 6.21751 134.851L20.8772 126.087C21.3131 125.835 21.9325 125.972 22.2078 126.431Z" fill="#836FFF"/>
<path d="M16.174 134.071L18.4682 135.539C18.6058 135.631 18.7664 135.631 18.9041 135.585L21.4047 134.529C21.7718 134.369 22.1388 134.713 22.047 135.08L21.3588 137.695C21.3129 137.833 21.3588 137.994 21.4506 138.131L23.2171 140.196C23.4694 140.494 23.2859 140.953 22.8959 140.976L20.1658 141.114C20.0052 141.114 19.8676 141.205 19.7988 141.343L18.3764 143.66C18.1699 143.981 17.6881 143.958 17.5505 143.591L16.564 141.068C16.5181 140.93 16.3805 140.815 16.2428 140.792L13.6045 140.173C13.2375 140.081 13.1228 139.599 13.421 139.347L15.5316 137.626C15.6463 137.535 15.7152 137.374 15.6922 137.236L15.4628 134.529C15.4169 134.116 15.8528 133.864 16.174 134.071Z" fill="#E486EC"/>
<path d="M33.2197 43.3137C33.2197 43.3137 37.808 42.7172 40.6987 38.3812L44.2776 41.9601C44.2776 41.9601 41.2952 47.8332 33.8391 47.9938L33.2197 43.3137Z" fill="#E486EC"/>
<path d="M32.0264 182.867C32.0264 182.867 34.2059 186.951 39.276 188.144L37.1883 192.732C37.1883 192.732 30.65 192.021 27.874 185.07L32.0264 182.867Z" fill="#E486EC"/>
<path d="M161.463 195.256C161.463 195.256 159.283 191.172 154.213 189.979L156.301 185.391C156.301 185.391 162.839 186.102 165.615 193.053L161.463 195.256Z" fill="#E486EC"/>
<path d="M184.45 83.9662C184.45 83.9662 186.63 88.0498 191.7 89.2427L189.612 93.831C189.612 93.831 183.074 93.1198 180.298 86.1685L184.45 83.9662Z" fill="#836FFF"/>
<path d="M59.9003 4.81773C61.2538 4.22125 62.3321 3.143 62.9286 1.78944L63.7086 0L64.4886 1.78944C65.0851 3.143 66.1633 4.22125 67.5169 4.81773L69.3063 5.59774L67.5169 6.37776C66.1633 6.97424 65.0851 8.05249 64.4886 9.40604L63.7086 11.1955L62.9286 9.40604C62.3321 8.05249 61.2538 6.97424 59.9003 6.37776L58.1108 5.59774L59.9003 4.81773Z" fill="#836FFF"/>
<path d="M14.7744 80.9149C15.9215 80.4102 16.8391 79.4926 17.3439 78.3455L18.0092 76.8313L18.6745 78.3455C19.1792 79.4926 20.0968 80.4102 21.2439 80.9149L22.7581 81.5802L21.2439 82.2455C20.0968 82.7503 19.1792 83.6679 18.6745 84.815L18.0092 86.3291L17.3439 84.815C16.8391 83.6679 15.9215 82.7503 14.7744 82.2455L13.2603 81.5802L14.7744 80.9149Z" fill="#836FFF"/>
<path d="M30.7417 241.827C31.7512 241.391 32.5541 240.588 32.99 239.579L33.5636 238.248L34.1371 239.579C34.573 240.588 35.3759 241.391 36.3854 241.827L37.716 242.401L36.3854 242.974C35.3759 243.41 34.573 244.213 34.1371 245.222L33.5636 246.553L32.99 245.222C32.5541 244.213 31.7512 243.41 30.7417 242.974L29.4111 242.401L30.7417 241.827Z" fill="#836FFF"/>
<path d="M172.819 40.5148C174.241 39.8954 175.365 38.7713 175.985 37.3489L176.811 35.4677L177.636 37.3489C178.256 38.7713 179.38 39.8954 180.802 40.5148L182.684 41.3407L180.802 42.1666C179.38 42.786 178.256 43.9102 177.636 45.3325L176.811 47.2138L175.985 45.3325C175.365 43.9102 174.241 42.786 172.819 42.1666L170.938 41.3407L172.819 40.5148Z" fill="#E486EC"/>
<path d="M158.343 11.1955C160.535 11.1955 162.312 9.41854 162.312 7.22658C162.312 5.03462 160.535 3.25769 158.343 3.25769C156.151 3.25769 154.374 5.03462 154.374 7.22658C154.374 9.41854 156.151 11.1955 158.343 11.1955Z" fill="#836FFF"/>
<path d="M176.811 228.498C178.496 228.498 179.862 227.132 179.862 225.447C179.862 223.762 178.496 222.396 176.811 222.396C175.126 222.396 173.76 223.762 173.76 225.447C173.76 227.132 175.126 228.498 176.811 228.498Z" fill="#836FFF"/>
<path d="M83.3241 74.5601C68.2056 88.4856 59.5337 105.99 59.5337 105.99H71.7157L76.0287 118.057C76.0287 118.057 84.7006 100.553 99.8191 86.6274L83.3241 74.5601Z" fill="#E486EC"/>
<path d="M127.028 74.5601C142.146 88.4856 150.818 105.99 150.818 105.99H138.636L134.323 118.057C134.323 118.057 125.651 100.553 110.533 86.6274L127.028 74.5601Z" fill="#E486EC"/>
<path d="M140.357 24.2951L142.788 36.4312C142.972 37.3948 143.362 38.2895 143.89 39.1154L150.749 49.4161C152.424 51.9397 152.424 55.2204 150.749 57.721L143.89 68.0218C143.339 68.8247 142.972 69.7424 142.788 70.7059L140.357 82.842C139.76 85.8015 137.443 88.1186 134.484 88.7151L122.347 91.1469C121.384 91.3304 120.489 91.7204 119.663 92.2481L109.363 99.1076C106.839 100.782 103.558 100.782 101.058 99.1076L90.7569 92.2481C89.954 91.6975 89.0363 91.3304 88.0728 91.1469L75.9367 88.7151C72.9772 88.1186 70.6601 85.8015 70.0636 82.842L67.6318 70.7059C67.4483 69.7424 67.0583 68.8477 66.5306 68.0218L59.6711 57.721C57.9964 55.1974 57.9964 51.9168 59.6711 49.4161L66.5306 39.1154C67.0812 38.3124 67.4483 37.3948 67.6318 36.4312L70.0636 24.2951C70.6601 21.3357 72.9772 19.0186 75.9367 18.4221L88.0728 15.9903C89.0363 15.8067 89.931 15.4167 90.7569 14.8891L101.058 8.02955C103.581 6.35481 106.862 6.35481 109.363 8.02955L119.663 14.8891C120.466 15.4397 121.384 15.8067 122.347 15.9903L134.484 18.4221C137.443 19.0186 139.76 21.3357 140.357 24.2951Z" fill="#836FFF"/>
<path d="M105.187 87.7286C124.041 87.7286 139.324 72.4449 139.324 53.5915C139.324 34.7381 124.041 19.4545 105.187 19.4545C86.334 19.4545 71.0503 34.7381 71.0503 53.5915C71.0503 72.4449 86.334 87.7286 105.187 87.7286Z" fill="white"/>
<path d="M105.187 83.9661C121.963 83.9661 135.562 70.3669 135.562 53.5915C135.562 36.816 121.963 23.2169 105.187 23.2169C88.4117 23.2169 74.8125 36.816 74.8125 53.5915C74.8125 70.3669 88.4117 83.9661 105.187 83.9661Z" fill="#E486EC"/>
<path d="M124.986 47.1679L111.289 45.172L105.187 53.5915L124.986 47.1679Z" fill="#836FFF"/>
<path d="M105.187 53.5915L115.075 56.8033L124.986 47.1679L105.187 53.5915Z" fill="white"/>
<path d="M105.187 53.5915L117.415 70.4306L115.075 56.8033L105.187 53.5915Z" fill="#836FFF"/>
<path d="M92.936 70.4306L105.187 64.007V53.5915L92.936 70.4306Z" fill="#836FFF"/>
<path d="M105.187 53.5915L95.2761 56.8033L92.936 70.4306L105.187 53.5915Z" fill="white"/>
<path d="M105.187 53.5915V64.007L117.415 70.4306L105.187 53.5915Z" fill="white"/>
<path d="M105.187 32.7835L99.0615 45.172L105.187 53.5915V32.7835Z" fill="#836FFF"/>
<path d="M105.187 53.5915L85.3882 47.1679L95.276 56.8033L105.187 53.5915Z" fill="#836FFF"/>
<path d="M105.187 53.5915L111.289 45.172L105.187 32.7835V53.5915Z" fill="white"/>
<path d="M105.187 53.5915L99.0614 45.172L85.3882 47.1679L105.187 53.5915Z" fill="white"/>
<path d="M105.233 15.8067C106.246 15.8067 107.068 14.985 107.068 13.9714C107.068 12.9578 106.246 12.1361 105.233 12.1361C104.219 12.1361 103.397 12.9578 103.397 13.9714C103.397 14.985 104.219 15.8067 105.233 15.8067Z" fill="white"/>
<path d="M105.233 16.2426C103.971 16.2426 102.962 15.2332 102.962 13.9714C102.962 12.7096 103.971 11.7002 105.233 11.7002C106.495 11.7002 107.504 12.7096 107.504 13.9714C107.504 15.2332 106.472 16.2426 105.233 16.2426ZM105.233 12.549C104.453 12.549 103.811 13.1914 103.811 13.9714C103.811 14.7514 104.453 15.3938 105.233 15.3938C106.013 15.3938 106.656 14.7514 106.656 13.9714C106.656 13.1914 106.013 12.549 105.233 12.549Z" fill="#262424"/>
<path d="M77.1981 27.3693C78.2117 27.3693 79.0334 26.5476 79.0334 25.534C79.0334 24.5204 78.2117 23.6987 77.1981 23.6987C76.1845 23.6987 75.3628 24.5204 75.3628 25.534C75.3628 26.5476 76.1845 27.3693 77.1981 27.3693Z" fill="white"/>
<path d="M77.1983 27.8052C76.6248 27.8052 76.0283 27.5758 75.5924 27.1399C74.6977 26.2452 74.6977 24.7998 75.5924 23.9281C76.4871 23.0333 77.9325 23.0333 78.8042 23.9281C79.699 24.8228 79.699 26.2681 78.8042 27.1399C78.3454 27.5987 77.7719 27.8052 77.1983 27.8052ZM77.1983 24.1345C76.8083 24.1345 76.4642 24.2722 76.1889 24.5475C75.9136 24.8228 75.776 25.1669 75.776 25.5569C75.776 25.9469 75.9136 26.291 76.1889 26.5663C76.4642 26.8416 76.8083 26.9793 77.1983 26.9793C77.5883 26.9793 77.9325 26.8416 78.2078 26.5663C78.4831 26.291 78.6207 25.9469 78.6207 25.5569C78.6207 25.1669 78.4831 24.8228 78.2078 24.5475C77.9325 24.2722 77.5654 24.1345 77.1983 24.1345Z" fill="#262424"/>
<path d="M65.5443 55.381C66.5579 55.381 67.3796 54.5593 67.3796 53.5456C67.3796 52.532 66.5579 51.7103 65.5443 51.7103C64.5307 51.7103 63.709 52.532 63.709 53.5456C63.709 54.5593 64.5307 55.381 65.5443 55.381Z" fill="white"/>
<path d="M65.5442 55.8168C64.2824 55.8168 63.2729 54.8074 63.2729 53.5456C63.2729 52.2838 64.2824 51.2744 65.5442 51.2744C66.806 51.2744 67.8154 52.2838 67.8154 53.5456C67.8154 54.8074 66.806 55.8168 65.5442 55.8168ZM65.5442 52.1233C64.7642 52.1233 64.1218 52.7656 64.1218 53.5456C64.1218 54.3256 64.7642 54.968 65.5442 54.968C66.3242 54.968 66.9665 54.3256 66.9665 53.5456C66.9665 52.7656 66.3242 52.1233 65.5442 52.1233Z" fill="#262424"/>
<path d="M77.1298 83.4156C78.1434 83.4156 78.9651 82.5939 78.9651 81.5802C78.9651 80.5666 78.1434 79.7449 77.1298 79.7449C76.1161 79.7449 75.2944 80.5666 75.2944 81.5802C75.2944 82.5939 76.1161 83.4156 77.1298 83.4156Z" fill="white"/>
<path d="M77.1295 83.8514C76.556 83.8514 75.9595 83.622 75.5236 83.1861C74.6289 82.2914 74.6289 80.8461 75.5236 79.9743C76.4183 79.0796 77.8636 79.0796 78.7354 79.9743C79.6301 80.869 79.6301 82.3144 78.7354 83.1861C78.2995 83.645 77.703 83.8514 77.1295 83.8514ZM77.1295 80.1579C76.7395 80.1579 76.3954 80.2955 76.1201 80.5708C75.8448 80.8461 75.7071 81.1902 75.7071 81.5802C75.7071 81.9702 75.8448 82.3144 76.1201 82.5897C76.3954 82.865 76.7395 83.0026 77.1295 83.0026C77.5195 83.0026 77.8636 82.865 78.1389 82.5897C78.4142 82.3144 78.5519 81.9702 78.5519 81.5802C78.5519 81.1902 78.4142 80.8461 78.1389 80.5708C77.8636 80.2955 77.4966 80.1579 77.1295 80.1579Z" fill="#262424"/>
<path d="M105.141 95.0469C106.155 95.0469 106.976 94.2252 106.976 93.2116C106.976 92.198 106.155 91.3763 105.141 91.3763C104.127 91.3763 103.306 92.198 103.306 93.2116C103.306 94.2252 104.127 95.0469 105.141 95.0469Z" fill="white"/>
<path d="M105.141 95.4828C103.88 95.4828 102.87 94.4734 102.87 93.2116C102.87 91.9498 103.88 90.9404 105.141 90.9404C106.403 90.9404 107.413 91.9498 107.413 93.2116C107.413 94.4734 106.38 95.4828 105.141 95.4828ZM105.141 91.8122C104.361 91.8122 103.719 92.4545 103.719 93.2346C103.719 94.0146 104.361 94.6569 105.141 94.6569C105.921 94.6569 106.564 94.0146 106.564 93.2346C106.564 92.4545 105.921 91.8122 105.141 91.8122Z" fill="#262424"/>
<path d="M133.176 83.4844C134.189 83.4844 135.011 82.6627 135.011 81.6491C135.011 80.6354 134.189 79.8137 133.176 79.8137C132.162 79.8137 131.34 80.6354 131.34 81.6491C131.34 82.6627 132.162 83.4844 133.176 83.4844Z" fill="white"/>
<path d="M133.176 83.9203C132.58 83.9203 132.006 83.6909 131.57 83.255C131.134 82.8191 130.905 82.2455 130.905 81.6491C130.905 81.0526 131.134 80.479 131.57 80.0431C132.006 79.6073 132.58 79.3778 133.176 79.3778C133.772 79.3778 134.346 79.6073 134.782 80.0431C135.218 80.479 135.447 81.0526 135.447 81.6491C135.447 82.2455 135.218 82.8191 134.782 83.255C134.346 83.6909 133.772 83.9203 133.176 83.9203ZM133.176 80.2267C132.786 80.2267 132.442 80.3643 132.167 80.6396C131.891 80.9149 131.754 81.259 131.754 81.6491C131.754 82.0391 131.891 82.3832 132.167 82.6585C132.442 82.9338 132.786 83.0714 133.176 83.0714C133.566 83.0714 133.91 82.9338 134.185 82.6585C134.461 82.3832 134.598 82.0391 134.598 81.6491C134.598 81.259 134.461 80.9149 134.185 80.6396C133.91 80.3643 133.543 80.2267 133.176 80.2267Z" fill="#262424"/>
<path d="M144.807 55.4727C145.821 55.4727 146.643 54.651 146.643 53.6374C146.643 52.6238 145.821 51.8021 144.807 51.8021C143.794 51.8021 142.972 52.6238 142.972 53.6374C142.972 54.651 143.794 55.4727 144.807 55.4727Z" fill="white"/>
<path d="M144.807 55.9086C143.546 55.9086 142.536 54.8992 142.536 53.6374C142.536 52.3756 143.546 51.3662 144.807 51.3662C146.069 51.3662 147.079 52.3756 147.079 53.6374C147.079 54.8992 146.069 55.9086 144.807 55.9086ZM144.807 52.215C144.027 52.215 143.385 52.8574 143.385 53.6374C143.385 54.4174 144.027 55.0598 144.807 55.0598C145.587 55.0598 146.23 54.4174 146.23 53.6374C146.23 52.8574 145.587 52.215 144.807 52.215Z" fill="#262424"/>
<path d="M133.222 27.4381C134.236 27.4381 135.057 26.6164 135.057 25.6028C135.057 24.5892 134.236 23.7675 133.222 23.7675C132.208 23.7675 131.387 24.5892 131.387 25.6028C131.387 26.6164 132.208 27.4381 133.222 27.4381Z" fill="white"/>
<path d="M133.222 27.874C132.625 27.874 132.052 27.6446 131.616 27.2087C131.18 26.7728 130.951 26.1993 130.951 25.6028C130.951 25.0063 131.18 24.4328 131.616 23.9969C132.052 23.561 132.625 23.3316 133.222 23.3316C133.818 23.3316 134.392 23.561 134.828 23.9969C135.723 24.8916 135.723 26.3369 134.828 27.2087C134.415 27.6446 133.841 27.874 133.222 27.874ZM133.222 24.1804C132.832 24.1804 132.488 24.3181 132.212 24.5934C131.937 24.8687 131.8 25.2128 131.8 25.6028C131.8 25.9928 131.937 26.3369 132.212 26.6122C132.488 26.8875 132.832 27.0252 133.222 27.0252C133.612 27.0252 133.956 26.8875 134.231 26.6122C134.782 26.0616 134.782 25.1669 134.231 24.6163C133.956 24.341 133.612 24.1804 133.222 24.1804Z" fill="#262424"/>
</svg>
