<svg width="723" height="847" viewBox="0 0 723 847" fill="none" xmlns="http://www.w3.org/2000/svg">
<path d="M720.796 55.4765L716.038 87.4429L687.223 281.034C686.564 285.473 684.334 289.527 680.941 292.458C677.547 295.388 673.215 297 668.734 297H353.687C351 297.001 348.344 296.421 345.901 295.3C343.458 294.179 341.285 292.543 339.531 290.504C337.777 288.466 336.482 286.072 335.735 283.487C334.989 280.901 334.808 278.185 335.205 275.523L363.19 87.4497L368.765 49.9664C369.424 45.5273 371.653 41.4729 375.047 38.5422C378.441 35.6115 382.773 33.9995 387.254 34H702.3C704.988 33.9986 707.645 34.5779 710.089 35.6984C712.533 36.8189 714.707 38.4542 716.463 40.4928C718.219 42.5314 719.515 44.9252 720.262 47.5111C721.01 50.0969 721.192 52.8138 720.796 55.4765Z" fill="white"/>
<path d="M669.315 298H354.049C351.166 298 348.316 297.379 345.695 296.18C343.074 294.98 340.743 293.23 338.86 291.05C336.978 288.869 335.589 286.309 334.789 283.544C333.988 280.779 333.794 277.874 334.22 275.028L367.836 50.0687C368.569 45.3325 370.969 41.0121 374.606 37.8836C378.243 34.7551 382.878 33.0236 387.679 33H702.938C705.823 32.9993 708.673 33.6196 711.295 34.8186C713.918 36.0175 716.25 37.7669 718.133 39.9474C720.017 42.1279 721.407 44.6882 722.209 47.4537C723.011 50.2192 723.206 53.1249 722.781 55.9725L689.158 280.931C688.424 285.667 686.024 289.987 682.387 293.115C678.751 296.243 674.116 297.975 669.315 298ZM387.672 35.6975C383.506 35.6748 379.472 37.1584 376.316 39.874C373.161 42.5895 371.097 46.3535 370.505 50.4703L336.896 275.443C336.527 277.906 336.696 280.419 337.389 282.811C338.082 285.204 339.284 287.418 340.913 289.305C342.542 291.191 344.559 292.705 346.827 293.742C349.096 294.779 351.561 295.316 354.056 295.316H669.322C673.478 295.3 677.491 293.802 680.639 291.094C683.786 288.385 685.861 284.644 686.489 280.543L720.072 55.5842C720.439 53.1208 720.27 50.6073 719.576 48.215C718.882 45.8227 717.679 43.608 716.05 41.7218C714.42 39.8355 712.402 38.3222 710.134 37.2849C707.866 36.2476 705.4 35.7107 702.905 35.7109H387.645L387.672 35.6975Z" fill="#262424"/>
<path d="M720 52.2976C720.001 53.1655 719.936 54.0322 719.805 54.8902L715.042 86.799V87H364L369.563 49.7854C370.176 45.6744 372.251 41.9201 375.407 39.2062C378.564 36.4924 382.594 34.9997 386.762 35H702.613C707.216 35.0035 711.63 36.8258 714.889 40.0678C718.148 43.3098 719.986 47.7074 720 52.2976Z" fill="#25A9EE"/>
<path d="M406.5 69C410.642 69 414 65.4183 414 61C414 56.5817 410.642 53 406.5 53C402.358 53 399 56.5817 399 61C399 65.4183 402.358 69 406.5 69Z" fill="white"/>
<path d="M444 69C448.418 69 452 65.4183 452 61C452 56.5817 448.418 53 444 53C439.582 53 436 56.5817 436 61C436 65.4183 439.582 69 444 69Z" fill="white"/>
<path d="M481.5 69C485.642 69 489 65.4183 489 61C489 56.5817 485.642 53 481.5 53C477.358 53 474 56.5817 474 61C474 65.4183 477.358 69 481.5 69Z" fill="white"/>
<path d="M482.786 263.443C478.192 281.354 473.283 300.982 465.637 317.626C455.872 333.419 434.256 357.96 419.407 355.279C400.065 351.766 412.7 304.012 415.718 292.602C415.859 292.066 432.15 254.058 441.539 227.915C450.929 201.772 468.554 198.822 468.554 198.822C468.554 198.822 493.182 222.887 482.786 263.443Z" fill="#25A9EE"/>
<path d="M590.993 205.794C590.993 205.794 546.058 180.227 468.554 198.822C468.554 198.822 447.334 218.771 448.32 268.98C449.339 320.884 444.705 404.602 444.705 404.602L605.943 409.798C605.943 409.798 615.252 317.814 590.993 205.794Z" fill="#25A9EE"/>
<path d="M598.927 399.863L455.268 396.511C454.912 396.511 454.571 396.37 454.32 396.119C454.068 395.867 453.927 395.526 453.927 395.171C453.927 394.815 454.068 394.474 454.32 394.223C454.571 393.971 454.912 393.83 455.268 393.83L598.927 397.182C599.283 397.182 599.624 397.323 599.876 397.574C600.127 397.826 600.269 398.167 600.269 398.522C600.269 398.878 600.127 399.219 599.876 399.47C599.624 399.722 599.283 399.863 598.927 399.863Z" fill="#262424"/>
<path d="M447.91 326.019C447.731 326.019 447.554 325.983 447.389 325.914C447.224 325.844 447.075 325.742 446.95 325.614C446.825 325.486 446.726 325.334 446.661 325.168C446.596 325.001 446.564 324.823 446.569 324.645L447.964 247.355C447.962 247.31 447.962 247.265 447.964 247.221C450.895 222.572 459.446 208.14 464.275 201.731C464.491 201.445 464.812 201.257 465.167 201.207C465.522 201.157 465.883 201.251 466.169 201.467C466.456 201.683 466.645 202.004 466.694 202.359C466.744 202.714 466.65 203.074 466.434 203.36C461.74 209.548 453.517 223.471 450.653 247.475L449.251 324.685C449.25 325.039 449.108 325.378 448.856 325.628C448.605 325.878 448.265 326.019 447.91 326.019Z" fill="#262424"/>
<path d="M549.317 198.688C547.291 203.449 544.244 207.707 540.39 211.161C536.537 214.615 531.972 217.181 527.017 218.678C525.354 209.561 520.773 198.092 520.773 198.092C515.682 205.09 512.993 214.354 512.329 218.577C495.851 214.052 493.973 198.219 493.973 198.219C495.985 182.352 509.633 170.407 521.35 170.809C547.251 171.687 549.317 198.688 549.317 198.688Z" fill="white"/>
<path d="M527.025 220.032C526.706 220.036 526.396 219.928 526.15 219.725C525.905 219.523 525.739 219.239 525.683 218.926C524.516 212.524 521.854 204.848 520.439 201.021C517.14 206.493 514.848 212.512 513.672 218.791C513.644 218.98 513.575 219.161 513.472 219.322C513.368 219.482 513.232 219.619 513.071 219.722C512.91 219.826 512.729 219.894 512.54 219.922C512.351 219.95 512.158 219.937 511.975 219.884C494.819 215.192 492.659 198.547 492.639 198.38C492.626 198.271 492.626 198.16 492.639 198.051C494.839 180.703 509.574 169.066 521.404 169.461C548.198 170.373 550.646 198.286 550.666 198.594C550.688 198.823 550.652 199.054 550.559 199.265C548.445 204.197 545.279 208.61 541.283 212.193C537.286 215.776 532.555 218.445 527.42 220.011C527.29 220.038 527.157 220.044 527.025 220.032ZM520.781 196.744H520.948C521.188 196.773 521.416 196.866 521.607 197.014C521.798 197.161 521.946 197.357 522.035 197.582C522.216 198.031 526.206 208.073 528.071 216.894C532.474 215.348 536.513 212.913 539.935 209.74C543.357 206.568 546.089 202.726 547.963 198.453C547.635 195.33 544.482 172.927 521.337 172.143H520.828C510.305 172.143 497.354 183.089 495.342 198.212C495.583 199.841 497.837 212.37 511.277 216.841C512.236 212.256 514.852 203.937 519.681 197.294C519.806 197.12 519.972 196.979 520.163 196.882C520.354 196.785 520.566 196.735 520.781 196.737V196.744Z" fill="#262424"/>
<path d="M536.52 138.827L536.098 154.734L535.38 181.95C526.219 188.351 517.312 189.022 508.721 182.573L509.982 169.931L511.886 150.779L536.52 138.827Z" fill="white"/>
<path d="M521.156 188.445C516.587 188.445 512.171 186.85 507.91 183.659C507.724 183.52 507.578 183.335 507.485 183.122C507.392 182.91 507.356 182.677 507.38 182.446L510.546 150.652C510.569 150.422 510.65 150.202 510.783 150.012C510.916 149.823 511.095 149.672 511.304 149.572L535.945 137.614C536.153 137.508 536.386 137.459 536.62 137.471C536.853 137.484 537.08 137.557 537.276 137.684C537.473 137.81 537.633 137.986 537.741 138.194C537.848 138.401 537.9 138.634 537.89 138.867L536.749 181.99C536.745 182.202 536.69 182.409 536.59 182.595C536.49 182.782 536.347 182.942 536.173 183.062C530.988 186.649 526.005 188.445 521.156 188.445ZM510.144 181.943C517.628 187.245 525.462 187.011 534.047 181.232L535.113 141.012L513.155 151.671L510.144 181.943Z" fill="#262424"/>
<path d="M490.868 141.763C491.739 154.888 494.999 170.661 510.787 168.764C529.566 166.505 542.074 153.729 542.852 135.978C543.63 118.227 535.783 107.924 514.442 109.265C512.635 109.373 510.84 109.631 509.076 110.036C496.723 112.912 490.217 122.839 490.572 134.765C490.613 136.903 490.693 139.283 490.868 141.763Z" fill="white"/>
<path d="M508.285 170.266C504.66 170.365 501.119 169.161 498.306 166.874C491.545 161.27 490.056 149.908 489.52 141.843C489.345 139.343 489.271 136.984 489.204 134.778C488.809 121.586 496.3 111.591 508.748 108.695C509.098 108.614 509.465 108.674 509.77 108.863C510.075 109.052 510.293 109.355 510.374 109.704C510.456 110.053 510.396 110.421 510.207 110.726C510.017 111.031 509.715 111.248 509.365 111.33C498.245 113.917 491.552 122.873 491.927 134.704C491.994 136.883 492.068 139.216 492.236 141.669C492.739 149.237 494.094 159.862 500.049 164.803C502.812 167.088 506.273 167.946 510.639 167.424C517.398 166.719 523.844 164.214 529.304 160.171C529.445 160.062 529.606 159.983 529.778 159.937C529.949 159.891 530.128 159.879 530.305 159.902C530.481 159.925 530.651 159.982 530.805 160.071C530.959 160.16 531.094 160.278 531.202 160.419C531.311 160.559 531.39 160.72 531.436 160.892C531.483 161.063 531.494 161.242 531.471 161.418C531.448 161.595 531.391 161.765 531.302 161.918C531.213 162.072 531.095 162.207 530.954 162.316C525.111 166.656 518.208 169.348 510.968 170.112C510.078 170.217 509.182 170.268 508.285 170.266Z" fill="#262424"/>
<path d="M548.291 139.511C546.403 142.05 544.298 144.421 542 146.596L532.563 146.858L530.786 140.154C530.786 140.154 524.824 139.685 523.724 135.609C523.695 135.515 523.673 135.418 523.657 135.321C523.388 133.98 522.362 128.061 523.57 118.945C523.57 118.945 508.989 124.79 501.142 125.346C498.319 125.548 495.106 124.354 492.068 122.739C486.032 119.508 481.049 109.332 482.343 102.629V102.501C484.355 92.6809 489.278 99.6994 489.278 99.6994C489.278 99.6994 491.022 91.7961 496.025 91.4006C501.028 91.0051 503.952 98.4525 503.952 98.4525C513.595 96.5511 523.51 96.4761 533.18 98.2313C552.342 101.831 547.097 114.929 547.097 114.929C547.097 114.929 561.134 119.99 548.291 139.511Z" fill="#262424"/>
<path d="M534.65 145.919C534.1 138.472 539.546 131.762 546.997 131.172C548.579 131.036 550.173 131.204 551.691 131.668C560.799 134.463 557.654 155.8 535.213 153.373L534.65 145.919Z" fill="white"/>
<path d="M538.56 154.895C537.39 154.892 536.222 154.827 535.059 154.701C534.703 154.662 534.377 154.484 534.153 154.206C533.928 153.927 533.824 153.571 533.862 153.216C533.9 152.86 534.078 152.534 534.357 152.31C534.635 152.086 534.992 151.981 535.348 152.019C547.862 153.36 553.684 147.119 554.864 141.374C555.683 137.352 554.194 133.846 551.276 132.955C549.924 132.544 548.506 132.394 547.098 132.512C543.867 132.822 540.888 134.393 538.809 136.884C536.729 139.375 535.717 142.586 535.991 145.819C536.005 145.995 535.983 146.172 535.928 146.339C535.873 146.507 535.785 146.662 535.67 146.796C535.554 146.93 535.414 147.04 535.256 147.119C535.099 147.199 534.927 147.247 534.751 147.26C534.574 147.273 534.397 147.251 534.23 147.196C534.062 147.141 533.907 147.053 533.773 146.938C533.639 146.823 533.529 146.683 533.449 146.525C533.37 146.367 533.322 146.196 533.309 146.02C532.692 137.741 538.788 130.468 546.89 129.818C548.639 129.669 550.401 129.856 552.081 130.367C556.34 131.674 558.627 136.528 557.52 141.917C556.132 148.641 549.767 154.895 538.56 154.895Z" fill="#262424"/>
<path d="M400.795 227.915C400.795 227.915 393.585 179.201 393.364 176.299C393.143 173.396 398.508 164.682 410.352 163.784C422.196 162.885 424.886 166.914 424.886 170.715C424.886 174.516 426.677 188.593 426.677 188.593C426.677 188.593 426.227 170.715 426.455 168.034C426.683 165.352 433.383 163.79 433.833 168.255C434.282 172.719 436.066 204.674 436.066 204.674C436.066 204.674 451.492 199.982 455.516 199.761C459.54 199.539 459.09 206.015 457.078 207.134C455.066 208.254 420.748 232.607 420.748 232.607L400.795 227.915Z" fill="white"/>
<path d="M420.748 233.948C420.644 233.949 420.541 233.937 420.44 233.914L400.487 229.222C400.223 229.161 399.983 229.021 399.8 228.821C399.617 228.622 399.499 228.371 399.461 228.103C399.166 226.092 392.244 179.309 392.016 176.393C391.875 174.616 393.049 172.049 395.068 169.689C397.087 167.33 401.929 163.046 410.252 162.423C416.805 161.927 421.412 162.872 423.954 165.232C424.489 165.737 424.942 166.322 425.295 166.968C426.033 165.178 428.354 164.092 430.446 164.072C431.019 164.026 431.595 164.094 432.142 164.272C432.688 164.449 433.194 164.733 433.63 165.107C434.067 165.481 434.425 165.937 434.684 166.45C434.943 166.962 435.099 167.521 435.141 168.094C435.53 171.995 436.905 196.114 437.287 202.864C441.418 201.638 452.042 198.574 455.395 198.387C456.36 198.311 457.32 198.587 458.099 199.162C458.877 199.737 459.422 200.573 459.634 201.517C460.305 203.836 459.634 207.222 457.696 208.287C456.267 209.078 435.262 223.906 421.479 233.68C421.267 233.839 421.013 233.933 420.748 233.948ZM401.969 226.795L420.433 231.139C425.691 227.405 454.443 207.007 456.388 205.941C456.878 205.673 457.488 203.81 457.059 202.281C456.743 201.182 456.126 201.068 455.57 201.095C452.404 201.269 440.687 204.661 436.435 205.955C436.239 206.017 436.031 206.032 435.828 206.001C435.624 205.97 435.431 205.892 435.262 205.774C435.094 205.656 434.955 205.501 434.856 205.321C434.757 205.141 434.7 204.94 434.692 204.735C434.692 204.413 432.901 172.759 432.458 168.369C432.418 167.973 432.297 166.767 430.513 166.767C429.105 166.767 427.83 167.605 427.83 168.107C427.656 170.172 427.904 182.359 428.059 188.519C428.085 188.875 427.969 189.226 427.737 189.497C427.504 189.767 427.174 189.934 426.818 189.96C426.462 189.987 426.11 189.871 425.84 189.639C425.569 189.406 425.403 189.076 425.376 188.72C425.302 188.144 423.578 174.516 423.578 170.675C423.609 170.026 423.498 169.378 423.254 168.777C423.009 168.175 422.637 167.633 422.163 167.189C420.225 165.392 416.188 164.669 410.5 165.098C403.123 165.654 398.991 169.301 397.167 171.432C395.343 173.564 394.706 175.454 394.759 176.158C394.88 178.417 399.474 209.749 402.003 226.809L401.969 226.795Z" fill="#262424"/>
<path d="M398.616 224.06L424.773 231.267C424.773 231.267 427.455 279.531 429.467 299.641C431.479 319.751 431.815 352.263 419.407 355.279C407 358.296 375.578 341.108 380.843 310.366C389.227 261.432 398.616 224.06 398.616 224.06Z" fill="#25A9EE"/>
<path d="M427.254 347.59C427.036 347.593 426.82 347.543 426.626 347.444C426.432 347.345 426.264 347.2 426.139 347.021C426.013 346.843 425.933 346.637 425.905 346.421C425.878 346.204 425.903 345.985 425.979 345.78C430.869 332.139 428.857 307.115 428.119 299.768L425.906 271.614C425.892 271.438 425.912 271.261 425.967 271.093C426.021 270.925 426.108 270.769 426.223 270.635C426.337 270.5 426.477 270.39 426.635 270.309C426.792 270.229 426.963 270.18 427.14 270.166C427.316 270.152 427.493 270.173 427.661 270.227C427.829 270.282 427.985 270.369 428.12 270.483C428.254 270.598 428.365 270.738 428.445 270.895C428.526 271.052 428.574 271.224 428.588 271.4L430.802 299.554C431.761 309.12 433.484 332.923 428.515 346.719C428.419 346.975 428.246 347.197 428.021 347.352C427.796 347.508 427.528 347.591 427.254 347.59Z" fill="#262424"/>
<path d="M421.587 247.033C421.474 247.034 421.362 247.02 421.252 246.993L398.114 241.127C397.942 241.083 397.78 241.006 397.638 240.899C397.495 240.793 397.375 240.659 397.285 240.506C397.194 240.354 397.135 240.184 397.109 240.009C397.084 239.833 397.094 239.654 397.138 239.482C397.182 239.309 397.259 239.148 397.366 239.006C397.473 238.863 397.606 238.744 397.759 238.653C397.912 238.562 398.081 238.503 398.257 238.478C398.433 238.452 398.612 238.462 398.784 238.506L421.923 244.372C422.276 244.416 422.597 244.599 422.815 244.88C423.033 245.161 423.131 245.517 423.086 245.87C423.042 246.223 422.859 246.544 422.578 246.762C422.297 246.98 421.941 247.077 421.587 247.033Z" fill="#262424"/>
<path d="M405.081 236.736C407.126 236.736 408.783 235.08 408.783 233.036C408.783 230.993 407.126 229.336 405.081 229.336C403.036 229.336 401.379 230.993 401.379 233.036C401.379 235.08 403.036 236.736 405.081 236.736Z" fill="white"/>
<path d="M405.081 238.091C404.083 238.091 403.106 237.795 402.276 237.24C401.445 236.685 400.798 235.897 400.416 234.975C400.033 234.052 399.933 233.037 400.128 232.058C400.323 231.079 400.804 230.18 401.51 229.474C402.217 228.768 403.117 228.287 404.096 228.092C405.076 227.898 406.091 227.998 407.014 228.38C407.937 228.762 408.726 229.409 409.28 230.239C409.835 231.069 410.132 232.045 410.132 233.043C410.13 234.381 409.597 235.664 408.651 236.61C407.704 237.557 406.42 238.089 405.081 238.091ZM405.081 230.717C404.617 230.717 404.163 230.855 403.777 231.112C403.391 231.37 403.09 231.737 402.913 232.165C402.735 232.594 402.689 233.066 402.779 233.521C402.87 233.976 403.093 234.394 403.422 234.722C403.75 235.05 404.168 235.274 404.623 235.364C405.079 235.455 405.551 235.408 405.98 235.231C406.409 235.053 406.775 234.752 407.033 234.367C407.291 233.981 407.429 233.527 407.429 233.063C407.432 232.753 407.374 232.445 407.258 232.157C407.141 231.869 406.969 231.607 406.751 231.387C406.532 231.166 406.273 230.991 405.986 230.871C405.699 230.752 405.392 230.69 405.081 230.69V230.717Z" fill="#262424"/>
<path d="M590.994 205.794C590.994 205.794 636.761 228.652 632.737 409.637H573.556C573.556 409.637 574.274 289.392 569.981 260.761C564.609 225.012 579.814 206.685 590.994 205.794Z" fill="#25A9EE"/>
<path d="M573.595 387.241C573.239 387.241 572.898 387.099 572.647 386.848C572.395 386.597 572.254 386.256 572.254 385.9C572.22 347.972 571.704 281.327 568.652 260.969C564.051 230.321 574.199 212.564 584.286 206.672C584.439 206.584 584.608 206.527 584.783 206.504C584.959 206.481 585.137 206.493 585.307 206.539C585.478 206.586 585.638 206.665 585.778 206.773C585.918 206.88 586.035 207.015 586.123 207.168C586.212 207.321 586.269 207.49 586.291 207.665C586.314 207.84 586.302 208.018 586.256 208.189C586.21 208.36 586.131 208.519 586.023 208.659C585.915 208.799 585.78 208.917 585.627 209.005C575.527 214.91 567.183 233.137 571.301 260.58C574.38 281.093 574.903 347.905 574.937 385.934C574.937 386.289 574.795 386.63 574.544 386.882C574.292 387.133 573.951 387.274 573.595 387.274V387.241Z" fill="#262424"/>
<path d="M632.5 278C651.554 278 667 262.554 667 243.5C667 224.446 651.554 209 632.5 209C613.446 209 598 224.446 598 243.5C598 262.554 613.446 278 632.5 278Z" fill="black"/>
<path d="M640.635 252.636C640.635 252.636 631.499 261.772 620.301 263.947C619.544 264.061 618.77 263.99 618.046 263.741C617.323 263.492 616.67 263.071 616.144 262.515L612.503 258.874C610.749 257.12 610.495 254.544 611.927 253.111L616.137 248.902C617.57 247.469 620.153 247.73 621.9 249.477L623.908 251.485C625.111 251.314 626.283 250.971 627.389 250.468C629.878 249.445 632.139 247.939 634.042 246.037C635.944 244.134 637.451 241.873 638.473 239.385C638.977 238.279 639.319 237.107 639.491 235.904L637.483 233.897C635.729 232.143 635.475 229.566 636.9 228.134L641.11 223.924C642.543 222.492 645.126 222.753 646.873 224.507L650.514 228.147C651.071 228.673 651.492 229.326 651.741 230.05C651.99 230.773 652.061 231.547 651.947 232.304C649.772 243.507 640.635 252.636 640.635 252.636Z" fill="white"/>
<path d="M173 46.5519V107.654C173 113.102 175.167 118.328 179.025 122.181C182.882 126.034 188.114 128.199 193.569 128.199H280.256L296.401 144.325C296.723 144.647 297.134 144.867 297.581 144.956C298.029 145.045 298.492 144.999 298.914 144.825C299.335 144.65 299.695 144.355 299.949 143.976C300.202 143.597 300.337 143.152 300.337 142.697V128.199H317.431C320.132 128.199 322.807 127.667 325.302 126.635C327.798 125.602 330.065 124.089 331.975 122.181C333.886 120.273 335.401 118.009 336.434 115.516C337.468 113.023 338 110.352 338 107.654V46.5519C338.001 43.8533 337.469 41.181 336.436 38.6875C335.403 36.1941 333.888 33.9284 331.978 32.0199C330.068 30.1114 327.8 28.5975 325.304 27.5645C322.808 26.5316 320.133 26 317.431 26H193.569C190.867 26 188.192 26.5316 185.696 27.5645C183.2 28.5975 180.932 30.1114 179.022 32.0199C177.112 33.9284 175.597 36.1941 174.564 38.6875C173.53 41.181 172.999 43.8533 173 46.5519Z" fill="black"/>
<path d="M321 20.7246V82.3397C321 87.8344 318.833 93.1041 314.976 96.9894C311.119 100.875 305.887 103.058 300.433 103.058H213.706L197.562 119.32C197.24 119.644 196.829 119.866 196.382 119.955C195.935 120.045 195.471 119.999 195.05 119.823C194.628 119.647 194.268 119.35 194.015 118.968C193.762 118.586 193.627 118.137 193.627 117.677V103.058H176.567C171.113 103.058 165.881 100.875 162.024 96.9894C158.167 93.1041 156 87.8344 156 82.3397V20.7246C155.999 18.0033 156.53 15.3085 157.564 12.7941C158.597 10.2798 160.112 7.99505 162.022 6.0705C163.932 4.14596 166.199 2.61929 168.695 1.57769C171.191 0.536104 173.866 -1.43617e-07 176.567 0H300.433C303.134 -1.43617e-07 305.809 0.536104 308.305 1.57769C310.801 2.61929 313.068 4.14596 314.978 6.0705C316.888 7.99505 318.403 10.2798 319.436 12.7941C320.47 15.3085 321.001 18.0033 321 20.7246Z" fill="#25A9EE"/>
<path d="M293.518 30H184.482C180.902 30 178 32.9101 178 36.5C178 40.0898 180.902 43 184.482 43H293.518C297.098 43 300 40.0898 300 36.5C300 32.9101 297.098 30 293.518 30Z" fill="white"/>
<path d="M223.599 59H184.401C180.866 59 178 61.9102 178 65.5C178 69.0899 180.866 72 184.401 72H223.599C227.134 72 230 69.0899 230 65.5C230 61.9102 227.134 59 223.599 59Z" fill="white"/>
<path d="M139.143 750.895L135 787H156.405L164 750L139.143 750.895Z" fill="white"/>
<path d="M156.231 788H135.356C135.165 788.001 134.976 787.963 134.801 787.887C134.626 787.81 134.47 787.699 134.342 787.559C134.215 787.419 134.119 787.254 134.062 787.075C134.005 786.895 133.987 786.706 134.01 786.52L138.05 751.063C138.084 750.745 138.234 750.45 138.473 750.232C138.712 750.015 139.024 749.89 139.35 749.88L163.591 749.001C163.796 748.992 164.001 749.029 164.19 749.109C164.378 749.19 164.546 749.312 164.679 749.465C164.812 749.619 164.908 749.801 164.959 749.996C165.009 750.192 165.013 750.396 164.971 750.594L157.564 786.93C157.504 787.233 157.338 787.506 157.095 787.701C156.851 787.897 156.545 788.002 156.231 788ZM136.872 785.357H155.113L161.961 751.75L140.595 752.51L136.872 785.357Z" fill="#262424"/>
<path d="M191.065 368.491C203.06 435.136 202.55 509.125 198.094 571.682C196.861 588.892 195.34 605.192 193.699 620.311C187.474 677.405 179.808 727 179.808 727H138.632C132.708 632.871 99.6396 465.368 99.6396 465.368C75.9657 437.22 67 392.987 67 392.987C75.6842 310.955 182.488 320.961 191.065 368.491Z" fill="black"/>
<path d="M159.458 711.999C159.28 711.999 159.104 711.963 158.941 711.893C158.777 711.824 158.629 711.721 158.506 711.593C158.382 711.464 158.285 711.312 158.221 711.145C158.156 710.977 158.126 710.799 158.131 710.62C161.109 578.525 122.415 374.659 122.024 372.617C121.957 372.262 122.033 371.895 122.234 371.596C122.436 371.297 122.746 371.091 123.098 371.024C123.45 370.956 123.814 371.033 124.11 371.236C124.406 371.44 124.61 371.753 124.677 372.109C125.068 374.157 163.809 578.318 160.837 710.687C160.834 710.865 160.795 711.041 160.724 711.204C160.652 711.366 160.549 711.513 160.421 711.636C160.292 711.758 160.141 711.853 159.976 711.915C159.81 711.978 159.634 712.006 159.458 711.999Z" fill="white"/>
<path d="M132.411 429C132.135 429.005 131.863 428.931 131.631 428.786C131.399 428.64 131.217 428.431 131.11 428.185C131.002 427.939 130.973 427.667 131.026 427.405C131.079 427.143 131.213 426.902 131.409 426.714L138.518 419.603C140.264 417.866 141.581 415.769 142.37 413.469C143.158 411.169 143.398 408.726 143.07 406.323L137.778 366.518C137.732 366.163 137.833 365.805 138.059 365.523C138.285 365.24 138.618 365.056 138.984 365.011C139.35 364.966 139.72 365.063 140.013 365.282C140.305 365.501 140.495 365.823 140.542 366.177L145.834 405.983C146.216 408.786 145.937 411.638 145.017 414.322C144.097 417.006 142.56 419.454 140.521 421.481L133.412 428.592C133.283 428.722 133.127 428.825 132.955 428.895C132.783 428.965 132.597 429.001 132.411 429Z" fill="#262424"/>
<path d="M198 572.235C196.735 589.494 195.174 605.838 193.49 621C182.076 620.133 173.041 609.575 173 596.591C172.959 583.042 182.784 572.034 194.933 572C195.961 571.997 196.986 572.076 198 572.235Z" fill="white"/>
<path d="M134.172 720H184.825C185.58 720 186.325 720.167 187.01 720.49C187.694 720.813 188.3 721.284 188.786 721.87C189.272 722.457 189.625 723.144 189.822 723.883C190.018 724.623 190.053 725.397 189.923 726.152L184.959 755.632C184.754 756.854 184.13 757.963 183.197 758.762C182.264 759.561 181.082 760 179.861 760H134.172C132.801 760 131.485 759.447 130.515 758.462C129.545 757.478 129 756.143 129 754.75V725.27C128.997 724.579 129.129 723.894 129.388 723.255C129.647 722.615 130.027 722.034 130.508 721.545C130.988 721.055 131.559 720.667 132.188 720.402C132.817 720.136 133.491 720 134.172 720Z" fill="#25A9EE"/>
<path d="M223 847H121C121.067 843.195 121.216 839.457 121.438 835.82C122.537 816.646 125.471 797.619 130.2 779H164.431C176.313 802.709 199.256 814.513 211.879 819.446C214.562 820.501 216.896 822.278 218.623 824.578C220.35 826.878 221.401 829.611 221.659 832.471L221.962 835.827L223 847Z" fill="black"/>
<path d="M61 750.895L57 787H77.6667L85 750L61 750.895Z" fill="white"/>
<path d="M78.2308 788H57.3565C57.1652 788.001 56.9757 787.963 56.8008 787.887C56.6259 787.81 56.4696 787.699 56.3421 787.559C56.2147 787.419 56.1192 787.254 56.0619 787.075C56.0045 786.895 55.9868 786.706 56.0097 786.52L60.0499 751.063C60.084 750.745 60.2345 750.45 60.4735 750.232C60.7125 750.015 61.0237 749.89 61.3495 749.88L85.5907 749.001C85.7962 748.992 86.0011 749.029 86.1898 749.109C86.3784 749.19 86.5458 749.312 86.6791 749.465C86.8124 749.619 86.908 749.801 86.9586 749.996C87.0092 750.192 87.0135 750.396 86.9711 750.594L79.5641 786.93C79.5043 787.233 79.3382 787.506 79.0947 787.701C78.8511 787.897 78.5455 788.002 78.2308 788ZM58.8715 785.357H77.1063L83.9544 751.75L62.602 752.523L58.8715 785.357Z" fill="#262424"/>
<path d="M189.971 388.871C187.135 456.497 170.441 528.495 152.346 588.514C147.37 605.026 142.299 620.653 137.383 634.969C118.776 689.257 102.426 725.661 102.426 725.661L60 727C74.8153 633.931 79.0781 463.413 79.0781 463.413C62.0203 430.832 62.9159 385.744 62.9159 385.744C89.4084 307.633 191.991 340.662 189.971 388.871Z" fill="black"/>
<path d="M152 588.331C147.002 604.919 141.91 620.618 136.973 635C126.207 631.717 119.857 619.455 122.663 606.789C125.598 593.544 137.44 584.887 149.112 587.449C150.097 587.665 151.063 587.959 152 588.331Z" fill="white"/>
<path d="M133.363 647C133.145 647.002 132.93 646.952 132.736 646.853C132.542 646.755 132.375 646.612 132.249 646.435C132.123 646.259 132.042 646.055 132.012 645.84C131.983 645.626 132.006 645.408 132.08 645.205C133.255 641.877 134.44 638.472 135.637 634.988C140.955 619.5 145.99 603.877 150.619 588.556C173.181 513.745 185.848 446.645 188.271 389.139C188.448 384.599 187.685 380.07 186.03 375.834C185.902 375.499 185.912 375.127 186.059 374.8C186.207 374.473 186.479 374.217 186.817 374.089C187.154 373.961 187.529 373.971 187.859 374.118C188.188 374.264 188.446 374.535 188.575 374.869C190.355 379.449 191.17 384.342 190.971 389.246C188.548 446.98 175.84 514.301 153.177 589.326C148.541 604.681 143.493 620.33 138.168 635.852C136.971 639.34 135.786 642.753 134.611 646.089C134.523 646.35 134.355 646.577 134.132 646.74C133.908 646.903 133.64 646.994 133.363 647Z" fill="#262424"/>
<path d="M84.3857 716.999C84.1771 717.006 83.9699 716.964 83.7805 716.877C83.5911 716.79 83.4246 716.66 83.2942 716.497C83.1639 716.335 83.0734 716.144 83.0297 715.94C82.9861 715.737 82.9906 715.526 83.0428 715.324C114.895 586.991 121.247 379.35 121.314 377.3C121.319 377.124 121.359 376.951 121.431 376.791C121.504 376.63 121.607 376.485 121.736 376.365C121.864 376.244 122.015 376.15 122.18 376.087C122.345 376.025 122.52 375.995 122.697 376.001C122.873 376.006 123.047 376.046 123.208 376.118C123.369 376.19 123.514 376.293 123.635 376.421C123.756 376.55 123.85 376.7 123.913 376.865C123.975 377.029 124.005 377.205 123.999 377.381C123.939 379.464 117.581 587.366 85.6882 715.988C85.615 716.277 85.447 716.534 85.2111 716.717C84.9751 716.9 84.6846 716.999 84.3857 716.999Z" fill="white"/>
<path d="M119.485 434.995C119.173 435.022 118.86 434.943 118.6 434.771C118.34 434.599 118.149 434.345 118.058 434.052C117.967 433.758 117.983 433.443 118.103 433.16C118.222 432.876 118.438 432.642 118.714 432.495L127.151 427.07C129.226 425.744 130.967 423.975 132.24 421.897C133.514 419.819 134.287 417.485 134.503 415.073L138.264 375.215C138.297 374.862 138.473 374.536 138.753 374.309C139.033 374.082 139.393 373.973 139.755 374.006C140.117 374.038 140.451 374.21 140.684 374.483C140.916 374.756 141.028 375.108 140.994 375.462L137.233 415.319C136.982 418.134 136.08 420.856 134.595 423.281C133.11 425.705 131.08 427.769 128.659 429.316L120.222 434.742C120.007 434.894 119.751 434.982 119.485 434.995Z" fill="white"/>
<path d="M56.1723 720H106.825C107.58 720 108.325 720.163 109.01 720.478C109.694 720.793 110.3 721.253 110.786 721.824C111.272 722.396 111.625 723.066 111.822 723.788C112.018 724.509 112.053 725.264 111.923 726L106.959 754.753C106.751 755.945 106.124 757.025 105.188 757.802C104.252 758.579 103.069 759.004 101.848 759H56.1723C54.8005 759 53.4849 758.461 52.5149 757.5C51.5449 756.54 51 755.238 51 753.88V725.127C50.9991 724.454 51.1322 723.787 51.3918 723.165C51.6513 722.543 52.0322 721.978 52.5126 721.502C52.9929 721.026 53.5634 720.648 54.1914 720.39C54.8194 720.133 55.4925 720 56.1723 720Z" fill="#25A9EE"/>
<path d="M145 847H43C43.0674 843.195 43.2157 839.457 43.4381 835.82C44.5374 816.646 47.4712 797.619 52.1998 779H86.4312C98.3135 802.709 121.256 814.513 133.879 819.446C136.562 820.501 138.896 822.278 140.623 824.578C142.35 826.878 143.401 829.611 143.659 832.471L143.962 835.827L145 847Z" fill="black"/>
<path d="M203.195 225.703L210.55 231.742L238.409 194.837C238.409 194.837 232.165 178.961 232.165 176.948C232.165 174.935 241.304 156.819 244.199 154.356C247.094 151.893 249.099 154.135 249.099 156.59C249.099 159.046 245.757 171.876 245.757 171.876C245.757 171.876 270.942 148.988 275.842 146.754C280.743 144.519 282.307 147.646 279.633 151.001C276.959 154.356 267.599 162.858 267.599 162.858C267.599 162.858 285.429 153.242 288.104 153.464C290.778 153.685 300.807 162.857 297.243 170.46C293.68 178.062 256.012 200.655 256.012 200.655C256.012 200.655 241.304 273.176 233.06 280.751C224.817 288.327 179 258.964 179 258.964L203.195 225.703Z" fill="white"/>
<path d="M228.388 283C222.899 283 214.098 279.867 201.758 273.586C189.418 267.306 177.762 259.829 177.628 259.755C177.471 259.656 177.336 259.526 177.232 259.372C177.128 259.219 177.057 259.045 177.023 258.863C176.989 258.68 176.993 258.492 177.035 258.312C177.077 258.131 177.155 257.96 177.266 257.812L201.517 224.447C201.624 224.296 201.761 224.169 201.92 224.074C202.078 223.979 202.255 223.918 202.438 223.895C202.621 223.872 202.807 223.887 202.984 223.939C203.161 223.991 203.326 224.079 203.467 224.198L209.754 229.355L236.371 194.094C234.635 189.656 230.298 178.366 230.298 176.376C230.298 173.807 239.682 155.363 242.839 152.7C245.004 150.865 246.727 151.241 247.565 151.631C248.331 152.057 248.963 152.69 249.39 153.457C249.816 154.225 250.02 155.097 249.978 155.975C249.978 157.649 248.677 163.251 247.679 167.298C254.75 160.964 270.884 146.696 274.879 144.874C278.873 143.051 280.656 144.531 281.219 145.264C282.379 146.763 282.024 149.043 280.288 151.214C278.692 153.075 277.001 154.85 275.22 156.533C280.455 153.924 286.132 151.349 287.835 151.483C289.987 151.665 294.451 155.289 296.991 159.687C299.216 163.546 299.598 167.265 298.11 170.445C294.625 177.956 262.512 197.55 256.788 201C254.777 210.803 241.646 273.916 233.482 281.413C232.349 282.469 230.64 283 228.388 283ZM180.316 258.215C197.87 269.316 226.324 284.318 231.659 279.416C238.174 273.432 250.186 219.968 254.261 199.877C254.297 199.692 254.372 199.516 254.481 199.362C254.59 199.208 254.729 199.079 254.891 198.982C265.294 192.742 292.909 175.253 295.697 169.309C297.071 166.377 295.925 163.257 294.725 161.132C292.46 157.152 288.599 154.294 287.647 154.2C286.012 154.2 276.306 158.907 267.854 163.459C267.71 163.561 267.548 163.634 267.376 163.673C267.204 163.712 267.026 163.716 266.852 163.686C266.679 163.656 266.513 163.592 266.364 163.498C266.215 163.404 266.086 163.281 265.984 163.136C265.779 162.845 265.697 162.483 265.757 162.131C265.818 161.78 266.015 161.466 266.306 161.26C266.399 161.173 275.643 152.781 278.223 149.54C279.235 148.276 279.363 147.24 279.128 146.945C278.893 146.649 277.875 146.521 276.038 147.362C272.164 149.13 253.202 165.967 246.224 172.308C246.011 172.511 245.737 172.638 245.445 172.67C245.152 172.701 244.858 172.636 244.606 172.483C244.355 172.33 244.161 172.098 244.053 171.824C243.946 171.549 243.931 171.247 244.012 170.963C245.292 166.061 247.317 157.663 247.317 155.989C247.348 155.628 247.287 155.265 247.137 154.935C246.988 154.605 246.757 154.32 246.465 154.106C246.036 153.904 245.366 154.153 244.622 154.778C241.941 157.031 233.274 174.312 233.033 176.43C233.093 177.627 236.21 186.227 239.2 193.818C239.291 194.038 239.322 194.279 239.291 194.515C239.259 194.752 239.165 194.975 239.019 195.163L211.088 232.146C210.979 232.292 210.842 232.414 210.684 232.505C210.527 232.596 210.353 232.654 210.172 232.676C209.991 232.697 209.808 232.681 209.634 232.63C209.46 232.578 209.298 232.491 209.158 232.374L202.857 227.203L180.316 258.215Z" fill="#262424"/>
<path d="M147.709 174.142C162.823 178.438 208 224.124 208 224.124L181.734 271C181.734 271 130.866 239.417 116.902 218.472C102.938 197.527 108.703 163.065 147.709 174.142Z" fill="#25A9EE"/>
<path d="M170.388 265C170.146 265.003 169.908 264.945 169.697 264.831C169.486 264.717 169.311 264.551 169.188 264.351C169.066 264.151 169.001 263.923 169 263.691C168.999 263.458 169.062 263.23 169.183 263.029L194.41 219.673C194.5 219.521 194.62 219.388 194.764 219.28C194.907 219.173 195.071 219.094 195.247 219.048C195.422 219.001 195.605 218.989 195.786 219.01C195.966 219.032 196.141 219.087 196.299 219.174C196.457 219.26 196.596 219.375 196.708 219.513C196.82 219.651 196.902 219.808 196.95 219.977C196.999 220.145 197.012 220.321 196.989 220.494C196.967 220.668 196.909 220.835 196.819 220.987L171.599 264.304C171.482 264.514 171.308 264.691 171.094 264.813C170.881 264.936 170.637 265 170.388 265Z" fill="#262424"/>
<path d="M105.495 165.168C85.1821 166.877 69.8822 177.678 69.8822 177.678L67.6446 236.865L83.4485 296.286C83.4485 296.286 63.1628 364.177 56 395H198C198 395 189.487 328.443 173.81 279.3C173.81 279.3 183.668 243.117 182.324 229.266C180.98 215.416 147.833 173.43 147.833 173.43C147.833 173.43 124.087 163.607 105.495 165.168Z" fill="#25A9EE"/>
<path d="M113.951 158.45C126.784 160.55 134.108 169.713 134.914 176.656C135.72 183.6 130.721 189.47 125.971 190.377C125.971 190.377 121.221 176.815 117.586 176.464C113.951 176.113 111.297 191 111.297 191C111.297 191 94.1032 189.291 89.494 174.364C86.3093 164.062 98.9946 155.972 113.951 158.45Z" fill="white"/>
<path d="M110.788 192H110.653C110.471 192 92.4045 189.993 87.5517 174.248C86.9228 172.283 86.8297 170.189 87.282 168.177C87.7342 166.165 88.7157 164.308 90.1268 162.793C94.9188 157.379 104.165 154.897 113.681 156.463C126.847 158.631 134.958 168.152 135.897 176.028C136.823 183.75 131.322 190.314 125.807 191.371C125.484 191.435 125.149 191.381 124.864 191.219C124.579 191.056 124.364 190.796 124.259 190.488C121.859 183.622 118.46 177.473 116.973 177.326C115.689 177.533 113.323 184.131 112.127 190.896C112.071 191.207 111.906 191.488 111.661 191.69C111.416 191.892 111.107 192.002 110.788 192ZM108.017 158.691C101.407 158.691 95.5001 160.812 92.1747 164.566C91.0657 165.732 90.2927 167.172 89.9361 168.735C89.5795 170.298 89.6524 171.926 90.1471 173.452C93.7563 185.188 105.767 188.373 109.673 189.109C110.856 182.994 113.255 174.228 117.236 174.623C121.021 174.997 124.813 184.104 126.388 188.38C129.977 186.995 133.89 182.284 133.147 176.336C132.322 169.444 125.036 161.073 113.188 159.119C111.477 158.837 109.745 158.694 108.011 158.691H108.017Z" fill="#262424"/>
<path d="M122 166.571C122 166.571 121.558 170.928 116.085 173C113.264 172.988 110.474 172.412 107.883 171.308C105.291 170.203 102.95 168.592 101 166.571L102.527 139L107.732 140.083L120.399 142.739L121.739 162.566L122 166.571Z" fill="white"/>
<path d="M116.316 174C113.327 173.948 110.378 173.31 107.64 172.123C104.903 170.936 102.431 169.224 100.369 167.086C100.242 166.953 100.144 166.796 100.081 166.624C100.018 166.453 99.9914 166.27 100.002 166.088L101.542 138.278C101.551 138.083 101.604 137.892 101.695 137.719C101.787 137.546 101.916 137.395 102.073 137.276C102.23 137.157 102.411 137.074 102.604 137.032C102.797 136.989 102.997 136.989 103.191 137.032L121.282 140.783C121.575 140.842 121.84 140.995 122.037 141.218C122.233 141.44 122.349 141.721 122.367 142.016L123.995 166.074C124.002 166.15 124.002 166.226 123.995 166.302C123.995 166.517 123.391 171.555 117.13 173.913C116.996 173.964 116.854 173.993 116.71 174H116.323H116.316ZM102.75 165.646C106.381 169.164 111.231 171.185 116.316 171.3C120.386 169.672 121.105 166.697 121.207 166.108L119.654 143.215L104.133 140L102.75 165.646Z" fill="#262424"/>
<path d="M122 162C107.245 160.549 106 141.763 106 141.763C106.752 141.125 107.544 140.536 108.372 140L120.697 142.603L122 162Z" fill="#262424"/>
<path d="M188.656 387H70.3444C69.9879 387 69.6459 386.842 69.3938 386.561C69.1416 386.279 69 385.898 69 385.5C69 385.102 69.1416 384.721 69.3938 384.439C69.6459 384.158 69.9879 384 70.3444 384H188.656C189.012 384 189.354 384.158 189.606 384.439C189.858 384.721 190 385.102 190 385.5C190 385.898 189.858 386.279 189.606 386.561C189.354 386.842 189.012 387 188.656 387Z" fill="#262424"/>
<path d="M178.125 260C177.924 260.004 177.726 259.963 177.543 259.878C177.361 259.794 177.2 259.668 177.073 259.511C176.946 259.354 176.855 259.17 176.808 258.972C176.761 258.774 176.76 258.569 176.803 258.37C179.546 245.024 180.722 235.139 180.213 229.78C179.552 222.698 169.353 205.349 152.266 182.165C152.161 182.023 152.085 181.861 152.042 181.689C151.998 181.516 151.989 181.337 152.014 181.161C152.038 180.985 152.097 180.816 152.186 180.663C152.276 180.51 152.394 180.377 152.534 180.27C152.674 180.164 152.834 180.086 153.003 180.042C153.173 179.998 153.35 179.988 153.523 180.014C153.697 180.039 153.863 180.099 154.014 180.189C154.165 180.28 154.296 180.4 154.401 180.542C164.607 194.384 181.879 219.151 182.871 229.499C183.413 235.206 182.249 245.098 179.414 258.9C179.358 259.207 179.199 259.484 178.964 259.685C178.729 259.886 178.432 259.997 178.125 260Z" fill="#262424"/>
<path d="M31.9185 273.123C31.9185 273.123 24.3291 305.396 26.3387 313.765C28.3482 322.134 73.6364 352.249 110.813 367.004C110.813 367.004 116.915 374.983 123.754 376.462C130.593 377.94 138.725 375.164 138.725 375.164C138.725 375.164 150.923 381.839 154.621 380.912C158.318 379.984 165.338 368.14 165.526 364.214C165.713 360.288 155.726 355.865 155.726 355.865C155.726 355.865 167.783 357.324 169.792 354.924C171.802 352.524 158.686 345.849 153.421 344.552C148.157 343.254 126.166 351.227 126.166 351.227L70.3273 296.691L76.6239 279.623C76.6239 279.623 83.0946 259.591 60.9093 255.511C38.7241 251.431 31.9185 273.123 31.9185 273.123Z" fill="white"/>
<path d="M153.522 382C149.245 382 140.92 377.755 138.207 376.311C136.193 376.926 129.203 378.785 123.053 377.461C116.493 376.05 110.773 369.379 109.531 367.854C71.7427 352.907 26.5893 323.125 24.3736 314.107C22.2855 305.59 29.6175 274.397 29.9263 273.074V272.974C30.0002 272.746 37.4127 250.304 60.5501 254.529C67.7813 255.866 72.9043 258.935 75.7579 263.708C80.2228 271.155 77.4633 279.886 77.3424 280.254L71.2996 296.458L126.034 349.497C130.472 347.926 148.238 341.85 153.341 343.1C157.806 344.196 169.664 349.691 170.865 353.381C171.001 353.754 171.035 354.155 170.964 354.545C170.893 354.935 170.72 355.299 170.463 355.601C169.12 357.198 165.091 357.533 161.432 357.453C164.118 359.231 166.629 361.584 166.515 364.024C166.306 368.389 159.028 380.737 154.556 381.873C154.218 381.955 153.871 381.997 153.522 382ZM138.348 373.51C138.583 373.506 138.814 373.564 139.02 373.677C143.908 376.351 151.777 379.821 153.979 379.272C156.9 378.544 163.721 367.353 163.889 363.897C163.983 361.972 158.713 358.589 154.872 356.891C154.558 356.773 154.3 356.543 154.148 356.246C153.996 355.949 153.961 355.605 154.05 355.284C154.14 354.962 154.346 354.685 154.63 354.508C154.914 354.33 155.254 354.265 155.584 354.324C161.284 354.992 166.998 354.852 168.287 354.01C167.226 352.004 157.82 346.95 152.777 345.714C149.225 344.844 134.615 349.303 126.236 352.312C125.997 352.399 125.739 352.417 125.49 352.364C125.242 352.31 125.014 352.188 124.832 352.011L68.8355 297.768C68.6463 297.587 68.5149 297.353 68.4577 297.098C68.4004 296.842 68.4197 296.576 68.5132 296.331L74.8246 279.358C74.8246 279.358 77.3022 271.443 73.4817 265.058C71.0377 260.994 66.5459 258.373 60.1204 257.17C39.5949 253.426 33.0149 272.399 32.5919 273.729C32.2495 275.18 25.139 305.704 27.0459 313.452C28.852 320.805 72.6626 350.406 110.907 365.461C111.136 365.551 111.336 365.701 111.484 365.896C111.545 365.969 117.386 373.457 123.664 374.807C130.076 376.191 137.872 373.584 137.952 373.557C138.081 373.522 138.215 373.506 138.348 373.51Z" fill="#262424"/>
<path d="M69.8384 178C59.3853 184.442 25 274.039 25 274.039L78.6746 289C78.6746 289 95.5351 230.353 97.2191 219.911C103.499 180.911 69.8384 178 69.8384 178Z" fill="#25A9EE"/>
<path d="M83.6755 272C83.4683 272.002 83.2636 271.955 83.0776 271.862C82.8916 271.77 82.7295 271.634 82.6044 271.466C82.4792 271.299 82.3945 271.104 82.3569 270.897C82.3194 270.69 82.33 270.477 82.388 270.275L85.0426 260.756C91.2212 238.269 94.8579 224.041 95.5614 219.622C99.8087 192.917 85.0758 183.741 75.9175 180.649C75.7506 180.593 75.5963 180.504 75.4632 180.387C75.3302 180.271 75.2212 180.128 75.1423 179.969C75.0634 179.809 75.0163 179.636 75.0035 179.458C74.9908 179.28 75.0127 179.101 75.068 178.931C75.1234 178.762 75.211 178.605 75.326 178.47C75.441 178.335 75.5811 178.225 75.7383 178.144C75.8954 178.064 76.0666 178.017 76.2419 178.004C76.4173 177.991 76.5934 178.013 76.7603 178.069C86.715 181.437 102.762 191.361 98.2027 220.046C97.4727 224.634 93.9156 238.572 87.6176 261.484L84.963 271.01C84.8856 271.295 84.7175 271.547 84.4847 271.726C84.252 271.906 83.9676 272.002 83.6755 272Z" fill="#262424"/>
<path d="M74.4934 277.99C74.3662 277.99 74.2397 277.972 74.1177 277.936L31.979 265.673C31.808 265.624 31.6485 265.541 31.5095 265.429C31.3705 265.317 31.2547 265.179 31.1687 265.022C31.0827 264.866 31.0283 264.693 31.0084 264.515C30.9886 264.337 31.0038 264.157 31.0531 263.985C31.1025 263.813 31.185 263.653 31.296 263.513C31.407 263.373 31.5443 263.256 31.7 263.17C31.8558 263.083 32.0269 263.028 32.2037 263.008C32.3805 262.989 32.5594 263.004 32.7304 263.053L74.8691 275.316C75.2165 275.371 75.5284 275.562 75.7374 275.847C75.9465 276.132 76.036 276.488 75.9868 276.839C75.9375 277.189 75.7534 277.506 75.4741 277.722C75.1947 277.937 74.8426 278.033 74.4934 277.99Z" fill="#262424"/>
<path d="M82.2637 75.3456C91.4663 78.5407 84.9331 97.7109 82.0168 103.834C79.1005 109.956 84.3725 126.767 73.1546 133.043C61.9366 139.32 84.5527 161.177 56.7047 186.176C35.2431 205.453 -4.02315 193.709 0.334568 173.783C4.69229 153.858 35.53 143.19 39.2604 124.909C41.6362 113.278 35.9238 96.9221 54.6092 89.9439C68.5833 84.7369 74.9964 72.8257 82.2637 75.3456Z" fill="black"/>
<path d="M131 123.791C131 123.791 136.299 115.862 142.003 118.56C147.706 121.259 145.785 140.362 131.755 137.757L131 123.791Z" fill="white"/>
<path d="M134.719 139C133.769 138.996 132.821 138.906 131.888 138.73C131.586 138.677 131.312 138.524 131.109 138.294C130.907 138.065 130.788 137.775 130.773 137.469L130.002 123.31C129.985 123.013 130.065 122.719 130.232 122.474C130.482 122.109 136.374 113.519 143.164 116.709C147.104 118.556 147.806 125.103 146.191 130.106C144.367 135.831 140.171 139 134.719 139ZM133.435 136.215C140.333 136.95 142.833 131.691 143.604 129.304C145.077 124.726 143.955 120.114 142.009 119.19C137.955 117.275 133.8 122.258 132.752 123.66L133.435 136.215Z" fill="#262424"/>
<path d="M91.2113 86.8933L88.016 85.3163C87.5144 85.0672 86.9577 84.9621 86.4038 85.0121C85.8499 85.0621 85.319 85.2653 84.8664 85.6006C83.5536 86.5272 82.461 87.7515 81.6711 89.1809C80.9612 90.7713 80.809 92.5691 81.2407 94.2637C81.3295 94.6814 81.4981 95.0764 81.7367 95.4251C81.9753 95.7739 82.279 96.0694 82.6297 96.2941L86.0662 98.514C86.4577 98.7658 86.898 98.9245 87.3556 98.9789C87.8131 99.0333 88.2766 98.9821 88.7129 98.8288C89.1491 98.6755 89.5473 98.424 89.8788 98.0923C90.2104 97.7605 90.4672 97.3568 90.6309 96.91L92.7893 90.9947C93.0743 90.2306 93.07 89.3829 92.7773 88.6219C92.4845 87.861 91.925 87.2434 91.2113 86.8933Z" fill="white"/>
<path d="M87.2125 99.9999C86.3654 100.005 85.5336 99.7807 84.8115 99.351L81.287 97.2228C80.782 96.9183 80.3446 96.5194 80.0001 96.0493C79.6557 95.5792 79.4111 95.0473 79.2806 94.4846C78.7625 92.5542 78.9663 90.5081 79.8557 88.7097C80.7642 87.1579 82.0243 85.8266 83.5408 84.8165C84.2006 84.3613 84.9736 84.0852 85.7802 84.0168C86.5867 83.9483 87.3975 84.09 88.1287 84.4272L91.4058 85.9391C92.4341 86.4182 93.2408 87.2528 93.6677 88.2791C94.0945 89.3054 94.1107 90.4495 93.7131 91.4868L91.4794 97.1449C91.1516 97.9852 90.5677 98.7087 89.8053 99.2187C89.043 99.7288 88.1385 100.001 87.2125 99.9999ZM86.1424 86.6074C85.761 86.6072 85.3891 86.723 85.079 86.9383C83.9048 87.7101 82.9243 88.7279 82.2099 89.9166C81.631 91.1663 81.5175 92.5723 81.8889 93.8941C81.9436 94.1209 82.0446 94.3348 82.1859 94.5231C82.3272 94.7114 82.5059 94.8704 82.7115 94.9907L86.236 97.119C86.4685 97.26 86.7303 97.3492 87.0025 97.3801C87.2748 97.4111 87.5508 97.3831 87.8105 97.298C88.0703 97.213 88.3074 97.0731 88.5046 96.8884C88.7019 96.7037 88.8545 96.4788 88.9513 96.23L91.165 90.559C91.3261 90.137 91.3195 89.672 91.1464 89.2545C90.9733 88.837 90.6461 88.4971 90.2287 88.3009L86.9516 86.7891C86.7014 86.6712 86.4272 86.6092 86.1491 86.6074H86.1424Z" fill="#262424"/>
<path d="M134.762 126.75C134.089 138.653 128.804 152.381 114.375 151.992C103.764 151.724 92.0305 138.982 91.1429 122.887C90.2553 106.792 93.0525 93.0581 112.445 94.0507C114.516 94.1846 116.576 94.4557 118.611 94.8621C129.853 97.3434 134.15 98.3426 134.984 120.406C135.051 122.344 134.896 124.503 134.762 126.75Z" fill="white"/>
<path d="M114.986 153H114.324C103.661 152.71 91.1122 140.104 90.1525 122.484C89.6892 113.974 89.9341 103.402 95.9835 97.2101C99.69 93.4167 105.25 91.6783 112.53 92.0489C114.642 92.1868 116.743 92.4682 118.818 92.8911C130.93 95.5863 135.16 97.6885 135.98 119.843C136.046 121.615 135.934 123.501 135.821 125.496L135.768 126.358C135.093 139.309 129.249 153 114.986 153ZM110.617 94.7103C104.978 94.7103 100.809 96.159 97.9228 99.1169C93.8391 103.301 92.2307 110.672 92.8595 122.322C93.7133 138.001 104.952 150.015 114.436 150.271C130.566 150.702 132.823 131.951 133.134 126.19L133.187 125.321C133.3 123.394 133.406 121.574 133.346 119.93C132.565 98.7531 128.964 97.9445 118.275 95.5391C116.346 95.1466 114.394 94.8832 112.431 94.7508C111.804 94.7238 111.198 94.7103 110.611 94.7103H110.617Z" fill="#262424"/>
<path d="M95.4964 120.357L95.5111 120.351C97.283 119.674 98.8369 118.533 100.008 117.05C101.18 115.567 101.926 113.797 102.168 111.928L102.169 111.918L102.171 111.907C102.228 111.524 102.283 111.071 102.342 110.578C102.479 109.442 102.641 108.09 102.932 106.878L103.36 105.101L104.626 106.419C108.596 110.552 114.38 113.918 120.073 116.502C125.75 119.08 131.255 120.844 134.599 121.807L134.608 121.809L134.616 121.812C135.471 122.074 136.388 122.062 137.236 121.777C138.081 121.493 138.813 120.953 139.33 120.234C142.995 114.846 142.709 106.833 139.556 100.111C136.405 93.3924 130.581 88.3488 123.583 88.5425L123.257 88.5516L122.988 88.3666C106.318 76.8897 87.2389 85.3811 84.5573 98.8994L95.4964 120.357ZM95.4964 120.357L95.4818 120.363M95.4964 120.357L95.4818 120.363M95.4818 120.363C94.631 120.72 93.3742 120.655 91.8993 119.95M95.4818 120.363L91.8993 119.95M91.8993 119.95C90.4437 119.254 88.8847 117.98 87.5352 116.141M91.8993 119.95L87.5352 116.141M87.5352 116.141C84.8483 112.479 83.0289 106.618 84.5572 98.8997L87.5352 116.141Z" fill="black" stroke="black" stroke-width="2"/>
<path d="M96.1622 122.93C96.1622 122.93 88.2338 114.922 79.883 117.518C71.5323 120.114 76.3888 139.188 97 136.792L96.1622 122.93Z" fill="white"/>
<path d="M94.1001 139C83.0957 139 76.6926 132.773 75.2827 126.404C74.251 121.732 76.1011 117.791 79.8907 116.601C89.0312 113.727 97.3945 122.077 97.7728 122.435C97.8997 122.564 97.9995 122.716 98.0666 122.883C98.1338 123.05 98.1668 123.228 98.164 123.407C98.1611 123.586 98.1223 123.763 98.0499 123.928C97.9775 124.092 97.8728 124.241 97.7418 124.366C97.6109 124.49 97.4562 124.589 97.2866 124.655C97.1171 124.721 96.9359 124.753 96.7536 124.75C96.5713 124.747 96.3913 124.709 96.2239 124.638C96.0566 124.567 95.9051 124.464 95.7782 124.335C95.6819 124.241 88.2128 116.844 80.7642 119.204C78.0475 120.056 77.4285 123.145 78.0131 125.829C79.313 131.705 85.95 137.418 97.4495 136.079C97.8143 136.036 98.1816 136.137 98.4705 136.361C98.7594 136.584 98.9463 136.911 98.9901 137.269C99.0339 137.628 98.9309 137.989 98.7039 138.273C98.4769 138.557 98.1445 138.741 97.7796 138.784C96.5586 138.927 95.3299 139 94.1001 139Z" fill="#262424"/>
<path d="M283.5 701C288.747 701 293 696.747 293 691.5C293 686.253 288.747 682 283.5 682C278.253 682 274 686.253 274 691.5C274 696.747 278.253 701 283.5 701Z" fill="#25A9EE"/>
<path d="M720.796 402.395L716.038 434.24L687.223 627.094C686.564 631.517 684.334 635.555 680.941 638.475C677.547 641.395 673.215 643 668.734 643H353.687C351 643.001 348.344 642.423 345.901 641.306C343.458 640.189 341.285 638.56 339.531 636.529C337.777 634.498 336.482 632.114 335.735 629.538C334.989 626.963 334.808 624.257 335.205 621.605L363.19 434.246L368.765 396.906C369.424 392.483 371.653 388.445 375.047 385.525C378.441 382.605 382.773 381 387.254 381H702.3C704.988 380.999 707.645 381.576 710.089 382.692C712.533 383.808 714.707 385.437 716.463 387.468C718.219 389.499 719.514 391.884 720.262 394.46C721.01 397.036 721.192 399.742 720.796 402.395Z" fill="white"/>
<path d="M669.315 645H354.049C351.166 645 348.316 644.377 345.695 643.173C343.074 641.969 340.743 640.212 338.86 638.024C336.978 635.835 335.589 633.265 334.789 630.49C333.988 627.714 333.794 624.798 334.22 621.941L367.836 396.133C368.57 391.38 370.971 387.044 374.607 383.904C378.244 380.764 382.878 379.025 387.679 379H702.938C705.823 378.999 708.673 379.622 711.295 380.825C713.918 382.029 716.25 383.785 718.133 385.974C720.017 388.162 721.407 390.732 722.209 393.508C723.011 396.284 723.206 399.201 722.781 402.059L689.198 627.867C688.463 632.627 686.057 636.969 682.412 640.109C678.767 643.25 674.123 644.985 669.315 645ZM387.672 381.708C383.517 381.724 379.503 383.227 376.356 385.946C373.208 388.664 371.133 392.42 370.505 396.536L336.896 622.344C336.527 624.816 336.696 627.339 337.389 629.741C338.082 632.142 339.284 634.365 340.913 636.259C342.542 638.152 344.559 639.671 346.827 640.713C349.096 641.754 351.561 642.293 354.056 642.292H669.322C673.478 642.276 677.491 640.773 680.639 638.054C683.786 635.336 685.861 631.58 686.489 627.464L720.072 401.656C720.439 399.183 720.27 396.66 719.576 394.259C718.882 391.858 717.679 389.635 716.05 387.741C714.42 385.848 712.402 384.329 710.134 383.288C707.866 382.246 705.4 381.707 702.905 381.708H387.645H387.672Z" fill="#262424"/>
<path d="M720 399.298C720.001 400.166 719.936 401.032 719.805 401.89L715.042 433.799V434H364L369.563 396.785C370.176 392.674 372.251 388.92 375.407 386.206C378.564 383.492 382.594 382 386.762 382H702.613C707.216 382.004 711.63 383.826 714.889 387.068C718.148 390.31 719.986 394.707 720 399.298Z" fill="#25A9EE"/>
<path d="M406.5 415C410.642 415 414 411.642 414 407.5C414 403.358 410.642 400 406.5 400C402.358 400 399 403.358 399 407.5C399 411.642 402.358 415 406.5 415Z" fill="white"/>
<path d="M444 415C448.418 415 452 411.642 452 407.5C452 403.358 448.418 400 444 400C439.582 400 436 403.358 436 407.5C436 411.642 439.582 415 444 415Z" fill="white"/>
<path d="M481.5 415C485.642 415 489 411.642 489 407.5C489 403.358 485.642 400 481.5 400C477.358 400 474 403.358 474 407.5C474 411.642 477.358 415 481.5 415Z" fill="white"/>
<path d="M517.394 547.23C481.881 545.675 479.165 528.97 486.16 503.839C480.855 495.601 474.759 485.586 480.185 466.75C485.215 449.18 517.434 429.378 541.887 451.848C542.45 452.002 560.478 457.251 560.807 490.902C561.169 525.096 557.366 549.007 517.394 547.23Z" fill="#262424"/>
<path d="M480.687 610.678C476.092 628.589 471.183 648.217 463.537 664.861C453.779 680.654 432.156 705.215 417.307 702.514C397.965 699.001 410.601 651.247 413.619 639.837C413.76 639.301 433.216 605.985 442.605 579.842C451.995 553.699 474.986 546.057 474.986 546.057C474.986 546.057 491.082 570.122 480.687 610.678Z" fill="#25A9EE"/>
<path d="M588.887 553.029C588.887 553.029 552.489 527.462 474.986 546.057C474.986 546.057 446.147 583.972 445.007 622.637C444.718 632.41 450.312 650.59 450.171 661.851C449.71 691.984 447.183 722.05 442.605 751.838L603.843 757.033C603.843 757.033 613.152 665.042 588.887 553.029Z" fill="#25A9EE"/>
<path d="M449.923 674.259H449.883C449.702 674.259 449.523 674.223 449.357 674.152C449.191 674.082 449.04 673.978 448.915 673.848C448.79 673.718 448.692 673.563 448.628 673.395C448.564 673.226 448.534 673.046 448.542 672.865C448.662 669.131 448.743 665.418 448.79 661.825C448.857 656.241 447.449 648.8 446.107 641.6C444.766 634.401 443.471 627.523 443.619 622.583C444.524 591.861 462.673 561.669 470.446 550.113C470.646 549.815 470.956 549.609 471.309 549.54C471.661 549.471 472.026 549.544 472.324 549.744C472.622 549.944 472.828 550.254 472.897 550.606C472.966 550.958 472.893 551.323 472.693 551.621C465.061 562.983 447.207 592.639 446.335 622.677C446.194 627.369 447.449 634.032 448.776 641.118C450.118 648.445 451.573 656.019 451.499 661.898C451.452 665.511 451.372 669.272 451.251 672.986C451.234 673.327 451.087 673.649 450.84 673.886C450.593 674.123 450.265 674.256 449.923 674.259Z" fill="#262424"/>
<path d="M596.828 747.098L453.169 743.747C452.993 743.743 452.819 743.704 452.658 743.633C452.497 743.562 452.351 743.46 452.229 743.333C452.108 743.205 452.012 743.055 451.948 742.891C451.885 742.727 451.854 742.552 451.858 742.376C451.862 742.2 451.9 742.026 451.971 741.865C452.042 741.704 452.145 741.558 452.272 741.437C452.399 741.315 452.549 741.219 452.714 741.156C452.878 741.092 453.053 741.061 453.229 741.065L596.889 744.417C597.244 744.425 597.582 744.574 597.828 744.831C598.074 745.088 598.208 745.432 598.2 745.788C598.192 746.143 598.043 746.481 597.785 746.727C597.528 746.973 597.184 747.106 596.828 747.098Z" fill="#262424"/>
<path d="M547.219 545.923C545.197 550.68 542.155 554.936 538.307 558.39C534.46 561.844 529.901 564.412 524.953 565.913C523.289 556.796 518.708 545.327 518.708 545.327C513.618 552.325 510.929 561.589 510.265 565.812C493.786 561.287 491.908 545.454 491.908 545.454C493.92 529.587 507.569 517.642 519.285 518.044C545.153 518.915 547.219 545.923 547.219 545.923Z" fill="white"/>
<path d="M524.952 567.26C524.633 567.265 524.322 567.155 524.076 566.951C523.83 566.747 523.665 566.462 523.611 566.147C522.444 559.746 519.782 552.07 518.366 548.243C515.068 553.715 512.776 559.733 511.599 566.013C511.571 566.202 511.503 566.383 511.4 566.544C511.296 566.704 511.159 566.841 510.999 566.944C510.838 567.048 510.657 567.116 510.468 567.144C510.279 567.171 510.086 567.159 509.902 567.106C492.746 562.414 490.587 545.769 490.567 545.601C490.553 545.492 490.553 545.382 490.567 545.273C492.767 527.925 507.501 516.254 519.332 516.683C546.126 517.595 548.574 545.508 548.594 545.816C548.61 546.034 548.574 546.252 548.486 546.453C546.377 551.392 543.213 555.811 539.216 559.4C535.219 562.989 530.486 565.663 525.348 567.233C525.218 567.262 525.085 567.271 524.952 567.26ZM518.708 543.973H518.876C519.116 544.001 519.343 544.095 519.535 544.242C519.726 544.39 519.874 544.586 519.963 544.81C520.144 545.26 524.134 555.301 525.999 564.123C530.401 562.577 534.439 560.142 537.861 556.971C541.283 553.8 544.016 549.96 545.891 545.689C545.562 542.565 542.41 520.162 519.265 519.378C508.655 519.029 495.335 530.103 493.296 545.434C493.538 547.063 495.791 559.591 509.232 564.063C510.191 559.477 512.806 551.159 517.635 544.515C517.757 544.351 517.914 544.217 518.096 544.123C518.277 544.029 518.477 543.977 518.682 543.973H518.708Z" fill="#262424"/>
<path d="M534.422 486.055L533.999 501.962L533.281 529.178C524.12 535.58 515.213 536.25 506.622 529.802L507.883 517.159L509.788 498.007L534.422 486.055Z" fill="white"/>
<path d="M519.057 535.674C514.487 535.674 510.072 534.078 505.811 530.887C505.625 530.748 505.478 530.563 505.385 530.351C505.293 530.138 505.257 529.905 505.281 529.674L508.446 497.88C508.469 497.65 508.551 497.43 508.683 497.241C508.816 497.052 508.996 496.9 509.204 496.801L533.845 484.842C534.054 484.737 534.287 484.688 534.52 484.7C534.754 484.712 534.98 484.785 535.177 484.912C535.373 485.039 535.533 485.215 535.641 485.422C535.749 485.63 535.8 485.862 535.79 486.096L534.65 529.218C534.645 529.43 534.591 529.637 534.49 529.824C534.39 530.01 534.247 530.17 534.073 530.291C528.915 533.884 523.906 535.674 519.057 535.674ZM508.044 529.171C515.529 534.474 523.362 534.239 531.947 528.461L533.013 488.241L511.055 498.899L508.044 529.171Z" fill="#262424"/>
<path d="M488.734 488.991C489.606 502.117 492.866 517.89 508.654 515.993C527.433 513.734 539.941 500.957 540.719 483.206C541.497 465.456 533.67 455.159 512.342 456.5C510.535 456.608 508.741 456.866 506.977 457.271C494.623 460.147 488.117 470.074 488.473 482C488.513 484.131 488.594 486.518 488.734 488.991Z" fill="white"/>
<path d="M506.172 517.501C502.547 517.599 499.006 516.396 496.193 514.109C489.432 508.505 487.943 497.143 487.407 489.078C487.232 486.578 487.159 484.219 487.092 482.013C486.703 468.821 494.187 458.826 506.635 455.93C506.985 455.848 507.352 455.909 507.657 456.098C507.962 456.287 508.18 456.59 508.262 456.939C508.343 457.288 508.283 457.656 508.094 457.961C507.904 458.266 507.602 458.483 507.252 458.565C496.132 461.152 489.446 470.108 489.815 481.939C489.882 484.118 489.955 486.444 490.123 488.904C490.626 496.472 491.981 507.097 497.936 512.038C500.7 514.33 504.16 515.188 508.533 514.659C515.292 513.954 521.738 511.45 527.198 507.406C527.339 507.297 527.5 507.218 527.672 507.172C527.843 507.126 528.022 507.114 528.199 507.137C528.375 507.16 528.545 507.217 528.699 507.306C528.853 507.395 528.988 507.513 529.096 507.654C529.205 507.794 529.284 507.955 529.33 508.127C529.376 508.298 529.388 508.477 529.365 508.653C529.342 508.83 529.285 509 529.196 509.153C529.107 509.307 528.989 509.442 528.848 509.551C523.004 513.891 516.102 516.583 508.862 517.347C507.969 517.452 507.071 517.503 506.172 517.501Z" fill="#262424"/>
<path d="M491.881 461.414C491.881 461.414 493.45 490.687 532.564 490.908C532.564 490.908 555.803 483.756 547.99 461.414C540.176 439.071 501.74 433.709 491.881 461.414Z" fill="#262424"/>
<path d="M398.696 575.15C398.696 575.15 391.487 526.436 391.265 523.534C391.044 520.631 396.409 511.917 408.254 511.019C420.098 510.12 422.787 514.149 422.787 517.943C422.787 521.737 424.578 535.821 424.578 535.821C424.578 535.821 424.129 517.943 424.357 515.262C424.585 512.581 431.285 511.019 431.734 515.483C432.183 519.948 433.967 551.903 433.967 551.903C433.967 551.903 449.393 547.21 453.417 546.989C457.441 546.768 456.992 553.243 454.98 554.363C452.968 555.482 418.649 579.835 418.649 579.835L398.696 575.15Z" fill="white"/>
<path d="M418.649 581.183C418.538 581.197 418.425 581.197 418.314 581.183L398.361 576.491C398.097 576.43 397.857 576.29 397.674 576.09C397.491 575.89 397.373 575.64 397.335 575.371C397.04 573.36 390.118 526.577 389.89 523.661C389.749 521.885 390.923 519.317 392.942 516.958C394.961 514.598 399.803 510.315 408.126 509.691C414.672 509.202 419.286 510.14 421.828 512.5C422.363 513.005 422.816 513.591 423.169 514.236C423.907 512.446 426.228 511.361 428.32 511.34H428.374C430.949 511.34 432.767 512.916 433.008 515.362C433.397 519.264 434.772 543.383 435.154 550.133C439.286 548.906 449.909 545.843 453.263 545.655C454.228 545.58 455.188 545.855 455.966 546.43C456.745 547.005 457.29 547.841 457.501 548.785C458.172 551.105 457.501 554.49 455.563 555.556C454.134 556.347 433.129 571.175 419.346 580.948C419.14 581.09 418.899 581.171 418.649 581.183ZM399.87 574.03L418.334 578.374C423.592 574.64 452.344 554.242 454.289 553.176C454.778 552.908 455.389 551.045 454.959 549.516C454.644 548.417 454.027 548.303 453.471 548.33C450.305 548.504 438.588 551.896 434.343 553.19C434.147 553.252 433.939 553.267 433.735 553.236C433.532 553.205 433.338 553.127 433.17 553.009C433.001 552.891 432.862 552.736 432.763 552.556C432.664 552.376 432.608 552.175 432.599 551.97C432.599 551.648 430.808 519.994 430.366 515.61C430.325 515.215 430.205 514.008 428.421 514.008C427.012 514.008 425.738 514.846 425.738 515.349C425.564 517.414 425.812 529.6 425.966 535.761C425.993 536.116 425.877 536.468 425.644 536.738C425.412 537.009 425.081 537.175 424.725 537.202C424.37 537.229 424.018 537.113 423.747 536.88C423.477 536.648 423.31 536.317 423.283 535.962C423.21 535.385 421.486 521.757 421.486 517.916C421.516 517.268 421.405 516.62 421.161 516.018C420.917 515.417 420.545 514.875 420.071 514.431C418.133 512.634 414.095 511.91 408.408 512.339C401.03 512.896 396.899 516.542 395.075 518.674C393.25 520.806 392.613 522.696 392.667 523.4C392.781 525.645 397.375 556.977 399.897 574.044L399.87 574.03Z" fill="#262424"/>
<path d="M396.516 571.295L422.673 578.502C422.673 578.502 425.356 626.766 427.368 646.876C429.38 666.986 429.715 699.498 417.307 702.514C404.9 705.531 373.479 688.343 378.743 657.601C387.127 608.667 396.516 571.295 396.516 571.295Z" fill="#25A9EE"/>
<path d="M425.155 694.825C424.937 694.828 424.721 694.778 424.527 694.679C424.333 694.58 424.166 694.435 424.04 694.256C423.915 694.078 423.835 693.872 423.807 693.656C423.779 693.439 423.804 693.22 423.881 693.015C428.77 679.367 426.758 654.35 426.02 647.003L423.807 618.849C423.779 618.494 423.893 618.141 424.124 617.87C424.355 617.598 424.685 617.43 425.041 617.401C425.397 617.373 425.749 617.487 426.021 617.718C426.293 617.949 426.461 618.279 426.49 618.635L428.703 646.789C429.662 656.355 431.386 680.158 426.416 693.954C426.32 694.21 426.148 694.432 425.922 694.587C425.697 694.743 425.429 694.826 425.155 694.825Z" fill="#262424"/>
<path d="M419.488 594.261C419.375 594.262 419.262 594.248 419.153 594.221L396.014 588.356C395.842 588.312 395.68 588.234 395.538 588.128C395.396 588.021 395.276 587.888 395.185 587.735C395.095 587.582 395.035 587.413 395.01 587.237C394.985 587.061 394.994 586.882 395.038 586.71C395.082 586.538 395.16 586.376 395.266 586.234C395.373 586.092 395.507 585.972 395.659 585.881C395.812 585.791 395.982 585.731 396.158 585.706C396.333 585.681 396.513 585.691 396.685 585.735L419.823 591.6C420.176 591.644 420.497 591.827 420.715 592.108C420.934 592.389 421.031 592.745 420.987 593.098C420.942 593.451 420.759 593.772 420.478 593.99C420.197 594.208 419.841 594.306 419.488 594.261Z" fill="#262424"/>
<path d="M402.982 583.971C405.027 583.971 406.685 582.315 406.685 580.271C406.685 578.228 405.027 576.571 402.982 576.571C400.938 576.571 399.28 578.228 399.28 580.271C399.28 582.315 400.938 583.971 402.982 583.971Z" fill="white"/>
<path d="M402.982 585.319C401.983 585.319 401.007 585.023 400.176 584.468C399.346 583.914 398.698 583.125 398.316 582.203C397.934 581.281 397.834 580.266 398.029 579.287C398.224 578.307 398.705 577.408 399.411 576.702C400.117 575.996 401.017 575.515 401.997 575.321C402.976 575.126 403.992 575.226 404.914 575.608C405.837 575.99 406.626 576.637 407.181 577.467C407.736 578.297 408.032 579.273 408.032 580.271C408.03 581.609 407.498 582.892 406.551 583.839C405.604 584.785 404.321 585.317 402.982 585.319ZM402.982 577.945C402.518 577.945 402.064 578.083 401.678 578.341C401.292 578.598 400.991 578.965 400.813 579.394C400.635 579.822 400.589 580.294 400.68 580.749C400.77 581.204 400.994 581.622 401.322 581.95C401.65 582.279 402.069 582.502 402.524 582.593C402.979 582.683 403.451 582.637 403.88 582.459C404.309 582.281 404.676 581.981 404.934 581.595C405.192 581.209 405.329 580.755 405.329 580.291C405.332 579.982 405.273 579.674 405.156 579.387C405.04 579.1 404.867 578.839 404.649 578.619C404.431 578.399 404.171 578.225 403.885 578.106C403.599 577.986 403.292 577.925 402.982 577.925V577.945Z" fill="#262424"/>
<path d="M588.888 553.029C588.888 553.029 634.655 575.887 630.631 756.872H571.45C571.45 756.872 572.175 636.62 567.875 607.996C562.51 572.241 577.714 553.92 588.888 553.029Z" fill="#25A9EE"/>
<path d="M571.496 734.476C571.141 734.476 570.8 734.334 570.548 734.083C570.296 733.832 570.155 733.491 570.155 733.135C570.122 695.207 569.605 628.562 566.554 608.204C561.953 577.556 572.1 559.799 582.187 553.907C582.34 553.819 582.509 553.762 582.685 553.739C582.86 553.716 583.038 553.728 583.209 553.774C583.379 553.821 583.539 553.9 583.679 554.008C583.819 554.115 583.937 554.25 584.025 554.403C584.113 554.556 584.17 554.725 584.192 554.9C584.215 555.075 584.203 555.253 584.157 555.424C584.111 555.595 584.032 555.754 583.924 555.894C583.816 556.034 583.682 556.152 583.528 556.24C573.428 562.145 565.085 580.372 569.203 607.815C572.281 628.328 572.804 695.14 572.838 733.169C572.838 733.524 572.696 733.865 572.445 734.116C572.193 734.368 571.852 734.509 571.496 734.509V734.476Z" fill="#262424"/>
<path d="M532.55 493.147C532 485.7 537.446 478.99 544.897 478.4C546.479 478.264 548.073 478.433 549.592 478.896C558.7 481.691 555.554 503.028 533.113 500.602L532.55 493.147Z" fill="white"/>
<path d="M536.461 502.13C535.291 502.128 534.122 502.063 532.96 501.935C532.604 501.897 532.278 501.719 532.053 501.441C531.829 501.162 531.724 500.806 531.763 500.451C531.801 500.095 531.979 499.769 532.257 499.545C532.536 499.32 532.892 499.216 533.248 499.254C545.77 500.595 551.591 494.354 552.772 488.609C553.59 484.587 552.101 481.081 549.183 480.19C547.832 479.778 546.413 479.628 545.005 479.747C541.774 480.057 538.795 481.628 536.716 484.119C534.637 486.61 533.624 489.821 533.899 493.053C533.925 493.409 533.81 493.761 533.577 494.031C533.344 494.301 533.014 494.468 532.658 494.495C532.302 494.521 531.95 494.406 531.68 494.173C531.409 493.941 531.243 493.61 531.216 493.255C530.599 484.976 536.695 477.703 544.797 477.053C546.547 476.904 548.309 477.091 549.988 477.602C554.247 478.909 556.534 483.763 555.427 489.152C554.032 495.876 547.681 502.13 536.461 502.13Z" fill="#262424"/>
<path d="M632.5 624C651.554 624 667 608.778 667 590C667 571.222 651.554 556 632.5 556C613.446 556 598 571.222 598 590C598 608.778 613.446 624 632.5 624Z" fill="black"/>
<path d="M640.635 598.636C640.635 598.636 631.499 607.772 620.301 609.947C619.544 610.061 618.77 609.991 618.046 609.741C617.323 609.492 616.67 609.071 616.144 608.515L612.503 604.874C610.749 603.12 610.495 600.544 611.927 599.111L616.137 594.902C617.57 593.469 620.153 593.73 621.9 595.477L623.908 597.485C625.111 597.314 626.283 596.971 627.389 596.468C629.878 595.445 632.139 593.939 634.042 592.037C635.944 590.134 637.451 587.873 638.473 585.385C638.977 584.279 639.319 583.107 639.491 581.904L637.483 579.897C635.729 578.143 635.475 575.566 636.9 574.134L641.11 569.924C642.543 568.492 645.126 568.753 646.873 570.507L650.514 574.147C651.071 574.673 651.492 575.326 651.741 576.05C651.99 576.773 652.061 577.547 651.947 578.304C649.772 589.507 640.635 598.636 640.635 598.636Z" fill="white"/>
<path d="M229 374.641V415.2C229 418.818 230.432 422.288 232.98 424.846C235.529 427.404 238.985 428.841 242.589 428.841H299.88L310.521 439.549C310.733 439.764 311.005 439.911 311.301 439.97C311.597 440.03 311.904 440 312.182 439.883C312.461 439.767 312.699 439.571 312.866 439.318C313.033 439.066 313.122 438.77 313.12 438.467V428.841H324.411C328.015 428.841 331.471 427.404 334.02 424.846C336.568 422.288 338 418.818 338 415.2V374.641C338 371.023 336.568 367.553 334.02 364.995C331.471 362.437 328.015 361 324.411 361H242.582C238.979 361.002 235.525 362.44 232.978 364.998C230.431 367.556 229 371.024 229 374.641Z" fill="#25A9EE"/>
<path d="M248.251 390H319.749C322.097 390 324 387.985 324 385.5C324 383.015 322.097 381 319.749 381H248.251C245.903 381 244 383.015 244 385.5C244 387.985 245.903 390 248.251 390Z" fill="white"/>
<path d="M293.308 409H319.692C322.071 409 324 407.209 324 405C324 402.791 322.071 401 319.692 401H293.308C290.929 401 289 402.791 289 405C289 407.209 290.929 409 293.308 409Z" fill="white"/>
<path d="M632.5 810C638.851 810 644 804.851 644 798.5C644 792.149 638.851 787 632.5 787C626.149 787 621 792.149 621 798.5C621 804.851 626.149 810 632.5 810Z" fill="#25A9EE"/>
</svg>
