<svg id="Layer_1" data-name="Layer 1" xmlns="http://www.w3.org/2000/svg" viewBox="0 0 159.71 189"><defs><style>.cls-1{fill:#fefefe;}.cls-2{fill:#6e56ff;}.cls-3{fill:#d7d0ff;}.cls-4{fill:#c3b9ff;}</style></defs><path class="cls-1" d="M59.31,162.06l6.44,6.61L68.2,166l-5.89-7.26Z" transform="translate(0 0)"/><path class="cls-2" d="M65.75,169a.35.35,0,0,1-.14,0,.28.28,0,0,1-.11-.08l-6.44-6.6a.35.35,0,0,1-.1-.25.31.31,0,0,1,.1-.24l3-3.3.12-.09a.36.36,0,0,1,.15,0,.32.32,0,0,1,.14,0,.4.4,0,0,1,.12.1l5.89,7.27a.29.29,0,0,1,.08.23.32.32,0,0,1-.09.23L66,168.9a.42.42,0,0,1-.12.08.32.32,0,0,1-.14,0Zm-6-7,6,6.11,2-2.13L62.3,159.3Z" transform="translate(0 0)"/><path class="cls-3" d="M66.34,187.69l1.28,1L79.5,172.81s-.63-.55-1.72-1.44a109.49,109.49,0,0,0-10.11-7.44l-4.6,4.44s1.26,7.72,1.88,14.21a20.15,20.15,0,0,1,.11,2.06A3.71,3.71,0,0,0,66.34,187.69Z" transform="translate(0 0)"/><path class="cls-2" d="M68.47,178a.32.32,0,0,1-.23-.09.35.35,0,0,1-.12-.21,38.71,38.71,0,0,0-2.75-9.73.65.65,0,0,1,0-.13.59.59,0,0,1,0-.14.75.75,0,0,1,.07-.12l.11-.08.14,0,.13,0a.35.35,0,0,1,.12.07.44.44,0,0,1,.08.11,38.31,38.31,0,0,1,2.82,9.92.66.66,0,0,1,0,.14.43.43,0,0,1,0,.12.52.52,0,0,1-.11.1l-.12,0Z" transform="translate(0 0)"/><path class="cls-1" d="M73.31,172.11a2,2,0,1,0-2.62.23A1.86,1.86,0,0,0,73.31,172.11Z" transform="translate(0 0)"/><path class="cls-2" d="M71.94,173.11a2.41,2.41,0,0,1-1.46-.5h0a2.36,2.36,0,0,1-.94-1.46,2,2,0,0,1,0-.84,1.93,1.93,0,0,1,.35-.77,2,2,0,0,1,.64-.56,2.11,2.11,0,0,1,.82-.24,2.49,2.49,0,0,1,1.66.49,2.45,2.45,0,0,1,.93,1.46,2,2,0,0,1-1,2.17,2,2,0,0,1-.81.24Zm-.38-3.66h-.14a1.29,1.29,0,0,0-.54.15,1.21,1.21,0,0,0-.42.36,1.34,1.34,0,0,0-.23.5,1.45,1.45,0,0,0,0,.55,1.71,1.71,0,0,0,.66,1h0a1.74,1.74,0,0,0,1.18.35,1.24,1.24,0,0,0,.53-.15,1.22,1.22,0,0,0,.42-.36,1.34,1.34,0,0,0,.23-.5,1.18,1.18,0,0,0,0-.56,1.69,1.69,0,0,0-.66-1,1.74,1.74,0,0,0-1-.34Z" transform="translate(0 0)"/><path class="cls-1" d="M66.34,187.69l1.28,1L79.5,172.81s-.63-.55-1.72-1.44l-6.27,8.36s-4.13-2.26-6.56,2.86a19.81,19.81,0,0,1,.11,2A3.71,3.71,0,0,0,66.34,187.69Z" transform="translate(0 0)"/><path class="cls-2" d="M67.62,189a.33.33,0,0,1-.21-.07l-1.28-1a4,4,0,0,1-1.42-3.32c0-.65,0-1.34-.11-2a.36.36,0,0,1,0-.18A5.86,5.86,0,0,1,68,179.1a5,5,0,0,1,3.41.19l6.1-8.13a.28.28,0,0,1,.1-.09.34.34,0,0,1,.14,0,.34.34,0,0,1,.14,0,.29.29,0,0,1,.12.07c1.08.88,1.73,1.44,1.73,1.46a.35.35,0,0,1,.12.23.31.31,0,0,1-.07.24L67.91,188.87l-.13.1A.41.41,0,0,1,67.62,189Zm-1.07-1.59,1,.74L79,172.87c-.24-.21-.64-.55-1.18-1l-6,8.06a.3.3,0,0,1-.21.13.34.34,0,0,1-.24,0,4.38,4.38,0,0,0-3.14-.27,5.19,5.19,0,0,0-2.89,2.88c.06.68.1,1.35.1,2a3.34,3.34,0,0,0,1.14,2.76Z" transform="translate(0 0)"/><path class="cls-3" d="M76.46,122.4,54.81,144.3,65.1,156.59c-1.07,6-8.16,8.41-8.16,8.41s-9.9-7.8-15.55-12.89c-2.17-2-3.72-3.51-3.83-4.07-.2-1,.22-2.76,1-5,3.76-10.29,16-30.53,16-30.53,5.08-8.81,16.17-12.29,21-4.54A14.49,14.49,0,0,1,76.46,122.4Z" transform="translate(0 0)"/><path class="cls-1" d="M43.49,148a5,5,0,0,1-.55,2.29,5.11,5.11,0,0,1-1.54,1.79c-2.18-2-3.72-3.52-3.84-4.07-.19-1,.22-2.76,1-5a5,5,0,0,1,4.89,5Z" transform="translate(0 0)"/><path class="cls-2" d="M59.68,159.13a.26.26,0,0,1-.15,0,.31.31,0,0,1-.13-.1L48.59,145.55a.37.37,0,0,1,0-.48l23.32-24.45a.35.35,0,0,1,.11-.1.34.34,0,0,1,.14,0l.15,0a.57.57,0,0,1,.13.08.27.27,0,0,1,.09.12.26.26,0,0,1,0,.15.32.32,0,0,1,0,.14.27.27,0,0,1-.09.12l-23.1,24.24L60,158.54a.34.34,0,0,1,.07.19.36.36,0,0,1-.35.4Z" transform="translate(0 0)"/><path class="cls-2" d="M75.14,121.88h0l-2.65-.25a.27.27,0,0,1-.15,0,.34.34,0,0,1-.12-.12c-1.66-2.76-5.48-8.65-5.52-8.71a.39.39,0,0,1,0-.26.4.4,0,0,1,.16-.22.34.34,0,0,1,.26,0,.37.37,0,0,1,.22.14c0,.06,3.73,5.74,5.44,8.57l2.46.23a.37.37,0,0,1,.24.12.38.38,0,0,1,.09.25.41.41,0,0,1-.11.24.35.35,0,0,1-.25.1Z" transform="translate(0 0)"/><path class="cls-2" d="M46,146.16a.38.38,0,0,1-.25-.09.37.37,0,0,1-.12-.24.44.44,0,0,1,.08-.25.36.36,0,0,1,.23-.13l7.47-1.14h.14a.31.31,0,0,1,.13.06.28.28,0,0,1,.09.1.35.35,0,0,1,0,.13.22.22,0,0,1,0,.14.5.5,0,0,1-.05.13.52.52,0,0,1-.11.1.28.28,0,0,1-.13,0l-7.47,1.14Z" transform="translate(0 0)"/><path class="cls-2" d="M55.23,162.31a.34.34,0,0,1-.25-.11.36.36,0,0,1-.11-.25.36.36,0,0,1,.11-.26.37.37,0,0,1,.25-.1,8,8,0,0,0,7-5.38.37.37,0,0,1,.19-.2.39.39,0,0,1,.28,0,.35.35,0,0,1,.19.19.32.32,0,0,1,0,.27,8.86,8.86,0,0,1-7.64,5.84Z" transform="translate(0 0)"/><path class="cls-1" d="M133.69,138.43l9.19.82.15-3.59L133.82,134Z" transform="translate(0 0)"/><path class="cls-2" d="M142.88,139.61h0l-9.2-.83a.37.37,0,0,1-.23-.12.34.34,0,0,1-.09-.24l.13-4.45a.4.4,0,0,1,0-.15l.1-.12a.35.35,0,0,1,.14-.06.25.25,0,0,1,.15,0l9.21,1.69a.38.38,0,0,1,.21.12.34.34,0,0,1,.07.24l-.14,3.59a.57.57,0,0,1,0,.14.44.44,0,0,1-.08.11.35.35,0,0,1-.23.09Zm-8.83-1.5,8.49.76.11-2.92-8.5-1.55Z" transform="translate(0 0)"/><path class="cls-3" d="M157.79,150.79l1.58-.33-4-19.38s-.83.11-2.22.33a109.09,109.09,0,0,0-12.29,2.6l.27,6.39s6.62,4.19,11.89,8c.54.41,1.08.83,1.61,1.29A3.72,3.72,0,0,0,157.79,150.79Z" transform="translate(0 0)"/><path class="cls-2" d="M151.66,142.85a.38.38,0,0,1-.19,0,38.84,38.84,0,0,0-9.11-4.41.34.34,0,0,1-.21-.16.42.42,0,0,1,0-.27.36.36,0,0,1,.17-.21.36.36,0,0,1,.27,0,39.39,39.39,0,0,1,9.29,4.49.37.37,0,0,1,.14.18.33.33,0,0,1,0,.22.32.32,0,0,1-.12.18.33.33,0,0,1-.21.07Z" transform="translate(0 0)"/><path class="cls-1" d="M149.19,137.34a1.77,1.77,0,1,0-2.27-1.33A1.85,1.85,0,0,0,149.19,137.34Z" transform="translate(0 0)"/><path class="cls-2" d="M148.75,137.74a2.41,2.41,0,0,1-1.2-.33,2,2,0,0,1-.63-.56,1.88,1.88,0,0,1-.34-.78,2.24,2.24,0,1,1,2.17,1.67Zm.17-3.53a1.46,1.46,0,0,0-.36,0,1.53,1.53,0,0,0-1.3,1.7,1.34,1.34,0,0,0,.23.5,1.25,1.25,0,0,0,.42.37,1.74,1.74,0,0,0,1.21.18h0a1.52,1.52,0,0,0,1.29-1.69,1.46,1.46,0,0,0-1.49-1.09Z" transform="translate(0 0)"/><path class="cls-1" d="M157.79,150.79l1.58-.33-4-19.38s-.83.11-2.22.33l2.08,10.23s-4.42,1.59-2.21,6.79c.55.41,1.08.83,1.61,1.29A3.72,3.72,0,0,0,157.79,150.79Z" transform="translate(0 0)"/><path class="cls-2" d="M157.25,151.2a4.35,4.35,0,0,1-2.82-1.21c-.49-.43-1-.86-1.59-1.27a.44.44,0,0,1-.12-.15,5.84,5.84,0,0,1-.26-4.72,5.06,5.06,0,0,1,2.4-2.42l-2-10a.33.33,0,0,1,0-.14.26.26,0,0,1,.06-.13.24.24,0,0,1,.1-.1.29.29,0,0,1,.13-.05c1.38-.22,2.23-.32,2.23-.32a.32.32,0,0,1,.25.06.3.3,0,0,1,.14.22l4,19.38a.34.34,0,0,1,0,.26.24.24,0,0,1-.1.1.26.26,0,0,1-.12.05l-1.57.33a3.15,3.15,0,0,1-.61.06Zm-3.91-3a19.65,19.65,0,0,1,1.55,1.25,3.39,3.39,0,0,0,2.83,1l1.22-.25-3.82-18.71c-.31,0-.83.11-1.52.22l2,9.88a.29.29,0,0,1,0,.24.4.4,0,0,1-.18.16,4.33,4.33,0,0,0-2.29,2.17A5.13,5.13,0,0,0,153.34,148.21Z" transform="translate(0 0)"/><path class="cls-3" d="M134.46,141l-16.26-1.75-4.56-.48c-.29,0-2-.74-4.59-1.85-10.17-4.38-33.59-15-33.59-15s-7.68-14.57-7.76-14.8c-3-7.67,3-12.07,13.85-12.79s15.69,12,15.69,12l19.2,20.23,17.93,3.51C138.14,134.23,134.46,141,134.46,141Z" transform="translate(0 0)"/><path class="cls-2" d="M75.46,122.28a.41.41,0,0,1-.19,0,.38.38,0,0,1-.14-.14l-5-9.5a.37.37,0,0,1,0-.27.37.37,0,0,1,.18-.21.42.42,0,0,1,.27,0,.36.36,0,0,1,.21.17l5,9.5a.39.39,0,0,1,0,.18.41.41,0,0,1,0,.18.39.39,0,0,1-.31.17Z" transform="translate(0 0)"/><path class="cls-1" d="M118.2,139.29l-4.56-.49a46.73,46.73,0,0,1-4.59-1.85c.33-1.79,1.9-3.19,4.83-2.47C118.26,135.55,119,137.58,118.2,139.29Z" transform="translate(0 0)"/><path class="cls-2" d="M132,133.55h0l-16.25-2.64a.37.37,0,0,1-.18-.08L86.35,105.32a.54.54,0,0,1-.09-.12.31.31,0,0,1,0-.13.31.31,0,0,1,.09-.26.33.33,0,0,1,.24-.12.31.31,0,0,1,.26.09l29.06,25.44L132,132.85a.3.3,0,0,1,.23.13.35.35,0,0,1,0,.49.34.34,0,0,1-.24.09Z" transform="translate(0 0)"/><path class="cls-2" d="M90.13,111.57a2.46,2.46,0,0,1-1.46-.48l-5-3.69a.4.4,0,0,1-.12-.23.41.41,0,0,1,.07-.26.39.39,0,0,1,.23-.14.42.42,0,0,1,.25,0l4.95,3.69a1.55,1.55,0,0,0,.65.3,1.7,1.7,0,0,0,.71,0l2.5-.49a.37.37,0,0,1,.27.06.34.34,0,0,1,.15.22.35.35,0,0,1-.06.28.38.38,0,0,1-.22.15l-2.5.48A1.88,1.88,0,0,1,90.13,111.57Z" transform="translate(0 0)"/><path class="cls-2" d="M132.29,140a.33.33,0,0,1-.23-.09.24.24,0,0,1-.09-.11.28.28,0,0,1,0-.13.32.32,0,0,1,0-.14.35.35,0,0,1,.07-.12c2.7-3.15.37-8.28.35-8.33a.48.48,0,0,1-.05-.14.77.77,0,0,1,0-.15.36.36,0,0,1,.19-.21.32.32,0,0,1,.14,0,.26.26,0,0,1,.15,0l.12.08a.83.83,0,0,1,.08.12c.1.23,2.54,5.61-.46,9.1a.29.29,0,0,1-.12.1.33.33,0,0,1-.15,0Z" transform="translate(0 0)"/><path class="cls-3" d="M7.13,100.71l1,.55,24.15-6L28.7,79.55,6.59,90.4Z" transform="translate(0 0)"/><path class="cls-3" d="M20.66,90.08s-6,7.78-12.54,11.19c-.22.06-.43.12-.65.16-3.92.81-8.2-1.5-7.36-6.52v0C1,89.61,8.65,87,8.65,87l9.66-3.52Z" transform="translate(0 0)"/><path class="cls-2" d="M10.84,99.94a.33.33,0,0,1-.21-.07.4.4,0,0,1-.13-.18.33.33,0,0,1,0-.22.32.32,0,0,1,.13-.18A53.24,53.24,0,0,0,20.26,90L18,83.6a.37.37,0,0,1,0-.25.38.38,0,0,1,.19-.16.36.36,0,0,1,.45.17L21,90a.36.36,0,0,1,0,.18.56.56,0,0,1-.07.16A54.64,54.64,0,0,1,11,99.88a.34.34,0,0,1-.2.06Z" transform="translate(0 0)"/><path class="cls-1" d="M7.47,101.42c-3.92.81-8.2-1.49-7.36-6.51v0A6.41,6.41,0,0,1,3,93.69c3.05-.45,5.82,1.22,6.19,3.72A4.38,4.38,0,0,1,7.47,101.42Z" transform="translate(0 0)"/><path class="cls-2" d="M18.16,91.65a.33.33,0,0,1-.19-.06c-3.11-1.93-3.31-6.14-3.32-6.31a.39.39,0,0,1,0-.15.29.29,0,0,1,.07-.12.31.31,0,0,1,.11-.09l.14,0a.4.4,0,0,1,.15,0,.23.23,0,0,1,.12.08.25.25,0,0,1,.08.12.32.32,0,0,1,0,.14s.19,4,3,5.73a.36.36,0,0,1,.14.18.3.3,0,0,1,0,.23.29.29,0,0,1-.13.18.32.32,0,0,1-.21.08Z" transform="translate(0 0)"/><path class="cls-1" d="M19.21,90.14a.78.78,0,1,0-1,0A.73.73,0,0,0,19.21,90.14Z" transform="translate(0 0)"/><path class="cls-3" d="M98.38,42.49H13.31a42.54,42.54,0,0,1,85.07,0Z" transform="translate(0 0)"/><path class="cls-4" d="M73.92,42.49H37.77C37.77,19,45.87,0,55.85,0S73.92,19,73.92,42.49Z" transform="translate(0 0)"/><path class="cls-1" d="M98.38,42.49S83.06,52,55.85,52s-42.54-9.49-42.54-9.49S28.63,33,55.85,33,98.38,42.49,98.38,42.49Z" transform="translate(0 0)"/><path class="cls-2" d="M55.85,52.33a101.93,101.93,0,0,1-31.58-4.77,57.34,57.34,0,0,1-11.14-4.77.49.49,0,0,1-.12-.13.37.37,0,0,1,0-.17.41.41,0,0,1,0-.18.34.34,0,0,1,.12-.12,56.18,56.18,0,0,1,11.14-4.78,101.68,101.68,0,0,1,31.58-4.76,102,102,0,0,1,31.57,4.76,56.18,56.18,0,0,1,11.14,4.78.37.37,0,0,1,.13.12.58.58,0,0,1,0,.18.53.53,0,0,1,0,.17.53.53,0,0,1-.13.13,57.34,57.34,0,0,1-11.14,4.77A101.6,101.6,0,0,1,55.85,52.33ZM14,42.49a61.65,61.65,0,0,0,10.5,4.41,100.92,100.92,0,0,0,31.33,4.72A101,101,0,0,0,87.18,46.9a61,61,0,0,0,10.49-4.41,61.1,61.1,0,0,0-10.49-4.42,101.33,101.33,0,0,0-31.33-4.72,101.28,101.28,0,0,0-31.33,4.72A61.35,61.35,0,0,0,14,42.49Z" transform="translate(0 0)"/><path class="cls-2" d="M55.85,74.1a.34.34,0,0,1-.22-.07L13.1,42.78a.37.37,0,0,1-.14-.24.35.35,0,0,1,.07-.26.36.36,0,0,1,.23-.15.38.38,0,0,1,.27.07L55,72.64l-17.34-38a.39.39,0,0,1,0-.26.37.37,0,0,1,.18-.19.39.39,0,0,1,.26,0,.34.34,0,0,1,.2.17L56.17,73.6a.32.32,0,0,1,0,.17.34.34,0,0,1-.05.17.49.49,0,0,1-.13.12.35.35,0,0,1-.17,0Z" transform="translate(0 0)"/><path class="cls-2" d="M55.85,74.1a.39.39,0,0,1-.18,0,.34.34,0,0,1-.12-.12.27.27,0,0,1-.06-.17.47.47,0,0,1,0-.17L73.43,34.3a.35.35,0,0,1,.2-.16.43.43,0,0,1,.25,0,.35.35,0,0,1,.18.18.39.39,0,0,1,0,.26l-17.34,38L98.16,42.2a.31.31,0,0,1,.13-.06h.14l.13,0a.48.48,0,0,1,.11.09.69.69,0,0,1,0,.13.23.23,0,0,1,0,.14.29.29,0,0,1,0,.13.31.31,0,0,1-.09.11L56.06,74A.33.33,0,0,1,55.85,74.1Z" transform="translate(0 0)"/><path class="cls-3" d="M90.23,97.42A12.4,12.4,0,0,1,90,99.7c-1.1,6-6.19,10.59-16.39,13.58s-21.38,1.6-21.38,1.6S40.76,103.4,33.66,97.2,24.3,83.57,27.83,78.4a54.65,54.65,0,0,1,14.23-4.16c8.09-1.2,12-1.3,15.89.1s29.57,16,29.57,16a9.78,9.78,0,0,1,2.41,4.55c-1.28-.49-4-1.45-4.49-.88S88.58,96.56,90.23,97.42Z" transform="translate(0 0)"/><path class="cls-2" d="M30.4,94.24a.26.26,0,0,1-.15,0,.38.38,0,0,1-.13-.09C25.9,89,24.72,83.42,27,79.19a.34.34,0,0,1,.21-.18.32.32,0,0,1,.27,0,.34.34,0,0,1,.18.21.32.32,0,0,1,0,.27c-2.09,4-.93,9.26,3.09,14.14a.34.34,0,0,1,.08.26.38.38,0,0,1-.13.24.35.35,0,0,1-.22.08Z" transform="translate(0 0)"/><path class="cls-2" d="M87.2,93.31a.37.37,0,0,1-.21-.06.4.4,0,0,1-.14-.18,10.87,10.87,0,0,0-.59-1.46.74.74,0,0,1,0-.14.68.68,0,0,1,0-.14.42.42,0,0,1,.08-.12l.11-.08a.33.33,0,0,1,.13,0l.14,0a.36.36,0,0,1,.21.19,14,14,0,0,1,.63,1.55.36.36,0,0,1,0,.27.34.34,0,0,1-.21.18.22.22,0,0,1-.11,0Z" transform="translate(0 0)"/><path class="cls-2" d="M52.49,112.78a.35.35,0,0,1-.26-.1.33.33,0,0,1-.11-.25.38.38,0,0,1,.09-.25.42.42,0,0,1,.26-.12c.2,0,21-1.54,27.23-4.82,4.34-2.27,7.12-5.8,7.62-9.65a.33.33,0,0,1,0-.13.29.29,0,0,1,.09-.1l.13-.07h.14l.13,0a.32.32,0,0,1,.17.22.61.61,0,0,1,0,.14c-.53,4.08-3.44,7.8-8,10.18-6.37,3.35-26.65,4.84-27.51,4.91Z" transform="translate(0 0)"/><path class="cls-1" d="M42.2,77.38a7.79,7.79,0,0,1-3.3,5.69,29.82,29.82,0,0,0-2.71-3.87,11.64,11.64,0,0,0-.37,4.85,5.55,5.55,0,0,1-5.22-3c-.66-3.46,1.38-6.88,3.85-7.6C39.93,71.88,42.2,77.38,42.2,77.38Z" transform="translate(0 0)"/><path class="cls-2" d="M35.53,84.41a6,6,0,0,1-5.25-3.22l0-.08c-.73-3.8,1.58-7.27,4.11-8,5.71-1.64,8.14,4.07,8.16,4.13a.32.32,0,0,1,0,.17,8.28,8.28,0,0,1-1.06,3.35,8.14,8.14,0,0,1-2.39,2.6.31.31,0,0,1-.13.06.38.38,0,0,1-.15,0,.61.61,0,0,1-.14-.07.48.48,0,0,1-.09-.11A26.48,26.48,0,0,0,36.35,80a11.94,11.94,0,0,0-.18,4,.26.26,0,0,1,0,.15.31.31,0,0,1-.06.13.27.27,0,0,1-.12.09.23.23,0,0,1-.14,0Zm-4.59-3.48a5.14,5.14,0,0,0,4.48,2.77,12.21,12.21,0,0,1,.44-4.62.39.39,0,0,1,.1-.16.35.35,0,0,1,.16-.08.39.39,0,0,1,.34.12A29.15,29.15,0,0,1,39,82.55,7.56,7.56,0,0,0,41,80.28a7.36,7.36,0,0,0,.89-2.85c-.3-.67-2.48-5-7.29-3.64C32.33,74.44,30.33,77.62,30.94,80.93Z" transform="translate(0 0)"/><path class="cls-3" d="M65.88,97.52a7.58,7.58,0,0,1-3.59,4.55,7.22,7.22,0,0,1-5.4.43c-7.75-2-17-12.43-17-12.43l1.63-6.6,10,3.52c-2.23-6.52-2.74-11.45,1.11-12.34,3.35-.77,6.95.94,9.61,4.54C64.32,81.94,67.86,91.3,65.88,97.52Z" transform="translate(0 0)"/><path class="cls-1" d="M65.88,97.52a7.58,7.58,0,0,1-3.59,4.55,7.22,7.22,0,0,1-5.4.43c-1.12-2.22-2-5.34.42-7.11S64,94.88,65.88,97.52Z" transform="translate(0 0)"/><path class="cls-2" d="M59.26,103.18a9.73,9.73,0,0,1-2.46-.34C49,100.86,40,90.74,39.63,90.31a.28.28,0,0,1-.08-.15.25.25,0,0,1,0-.17l1.62-6.6a.31.31,0,0,1,.06-.13.29.29,0,0,1,.12-.1.33.33,0,0,1,.14,0,.26.26,0,0,1,.15,0L51,86.41C49.31,81.31,49,78,50.1,76.09a3.65,3.65,0,0,1,2.49-1.79c3.49-.81,7.22.94,10,4.68a25.9,25.9,0,0,1,3.36,8c.75,2.92,1.41,7.13.29,10.66a8,8,0,0,1-3.76,4.76,6.65,6.65,0,0,1-3.2.79ZM40.29,90c1.13,1.24,9.62,10.36,16.68,12.17a6.85,6.85,0,0,0,5.14-.39,7.26,7.26,0,0,0,3.43-4.35c1.94-6.09-1.6-15.38-3.54-18-2.58-3.5-6-5.15-9.24-4.41a2.9,2.9,0,0,0-2,1.44c-1,1.8-.62,5.22,1.17,10.43a.46.46,0,0,1,0,.2.35.35,0,0,1-.27.27.34.34,0,0,1-.2,0l-9.67-3.39Z" transform="translate(0 0)"/><path class="cls-2" d="M59.17,93.31a.34.34,0,0,1-.19,0,.35.35,0,0,1-.13-.14C56.92,89.3,52.43,88,52.39,88a.31.31,0,0,1-.13-.06l-.09-.11a.65.65,0,0,1,0-.13.32.32,0,0,1,0-.14.33.33,0,0,1,.07-.13.22.22,0,0,1,.1-.09.33.33,0,0,1,.14,0,.34.34,0,0,1,.14,0c.19,0,4.83,1.4,6.9,5.5a.39.39,0,0,1,0,.18.27.27,0,0,1-.06.17.33.33,0,0,1-.13.13.33.33,0,0,1-.17,0Z" transform="translate(0 0)"/><path class="cls-2" d="M42.53,91.65a.35.35,0,0,1-.34-.26.33.33,0,0,1,0-.22.3.3,0,0,1,.13-.18c2.58-1.72,2.34-5.66,2.34-5.7a.32.32,0,0,1,0-.14.24.24,0,0,1,.07-.12.31.31,0,0,1,.11-.09l.13,0,.14,0a.35.35,0,0,1,.12.07.31.31,0,0,1,.09.11.57.57,0,0,1,0,.14c0,.17.27,4.4-2.66,6.35a.47.47,0,0,1-.2.06Z" transform="translate(0 0)"/><path class="cls-1" d="M41.85,90.33a.73.73,0,1,0-.72-.72A.72.72,0,0,0,41.85,90.33Z" transform="translate(0 0)"/><path class="cls-1" d="M26.78,78c1.73,2.9,4.31,6.12,7.69,3.84,4-2.7,5.39-7.07,3.5-11.21s-4.89-5.58-9.6-2.79a9.06,9.06,0,0,0-1.14.81,6,6,0,0,0-1.34,7.8C26.15,76.93,26.45,77.47,26.78,78Z" transform="translate(0 0)"/><path class="cls-2" d="M32.21,83a3.72,3.72,0,0,1-.81-.09c-2.2-.49-3.86-2.92-4.93-4.69l-.89-1.58A6.31,6.31,0,0,1,27,68.38a8.17,8.17,0,0,1,1.19-.83c2.32-1.37,4.36-1.8,6.06-1.26s3,1.93,4,4.2c2,4.29.54,8.87-3.62,11.66A4.42,4.42,0,0,1,32.21,83Zm.54-16.21a8.51,8.51,0,0,0-4.2,1.38,9.42,9.42,0,0,0-1.1.77,5.65,5.65,0,0,0-1.26,7.36c.27.49.56,1,.89,1.55,1,1.67,2.54,3.94,4.48,4.37a3.4,3.4,0,0,0,2.72-.64c3.85-2.59,5.17-6.82,3.37-10.77-1-2.12-2.15-3.37-3.61-3.83a4.08,4.08,0,0,0-1.29-.19Z" transform="translate(0 0)"/><path class="cls-2" d="M39.62,70.81A13.53,13.53,0,0,1,39,73.16l-2.12,1.16L35.7,73s-1.42.59-2.14-.21l-.05-.06A13.09,13.09,0,0,1,31.58,69a27,27,0,0,1-4.38,4.07,4.48,4.48,0,0,1-2.37.47,5.64,5.64,0,0,1-4.56-3.45v0c-.69-2.48,1.25-1.45,1.25-1.45s-.52-2,.58-2.68,2.63.69,2.63.69a20.12,20.12,0,0,1,6.65-3.46c4.79-1.41,5.12,2.19,5.12,2.19S40.27,64.86,39.62,70.81Z" transform="translate(0 0)"/><path class="cls-1" d="M37.26,73.86a3.49,3.49,0,0,1,1.09-4.8,3.31,3.31,0,0,1,1.13-.43c2.4-.42,4.17,4.8-1.23,6.87Z" transform="translate(0 0)"/><path class="cls-2" d="M38.25,75.9a.4.4,0,0,1-.26-.1.42.42,0,0,1-.14-.24.37.37,0,0,1,0-.27.39.39,0,0,1,.2-.18c3-1.14,3.58-3.21,3.18-4.63-.27-1-1-1.59-1.73-1.46a2.79,2.79,0,0,0-1,.38,3.1,3.1,0,0,0-1,4.25.52.52,0,0,1,.07.15.29.29,0,0,1,0,.16.39.39,0,0,1-.06.15.32.32,0,0,1-.12.11.44.44,0,0,1-.16.06.43.43,0,0,1-.16,0,.55.55,0,0,1-.15-.08.29.29,0,0,1-.1-.12,3.9,3.9,0,0,1,1.23-5.36,3.65,3.65,0,0,1,1.27-.49,2.49,2.49,0,0,1,2.66,2c.52,1.89-.41,4.36-3.68,5.6a.32.32,0,0,1-.14,0Z" transform="translate(0 0)"/><path class="cls-1" d="M31.77,79.88h-4.2V82.2h4.2Z" transform="translate(0 0)"/><path class="cls-2" d="M31.76,82.55H27.57a.36.36,0,0,1-.35-.36V79.88a.34.34,0,0,1,.35-.35h4.19a.36.36,0,0,1,.36.35V82.2a.32.32,0,0,1-.11.24.33.33,0,0,1-.25.11Zm-3.84-.7h3.49V80.23H27.92Z" transform="translate(0 0)"/><path class="cls-1" d="M31.77,81.31h-4.2v.89h4.2Z" transform="translate(0 0)"/><path class="cls-2" d="M31.76,82.54H27.57a.35.35,0,0,1-.25-.1.39.39,0,0,1-.1-.25v-.88a.36.36,0,0,1,.1-.25.35.35,0,0,1,.25-.1h4.19a.32.32,0,0,1,.25.1.33.33,0,0,1,.11.25v.88a.36.36,0,0,1-.11.25.32.32,0,0,1-.25.1Zm-3.84-.69h3.49v-.18H27.92Z" transform="translate(0 0)"/><path class="cls-1" d="M40.83,86.64l-10.28,1,1.69-11.13a1.8,1.8,0,0,1,.52-1.15,1.76,1.76,0,0,1,1.14-.53,1.83,1.83,0,0,1,1.22.32,1.86,1.86,0,0,1,.71,1Z" transform="translate(0 0)"/><path class="cls-2" d="M30.55,88a.4.4,0,0,1-.15,0l-.12-.09a.37.37,0,0,1-.07-.14.26.26,0,0,1,0-.15l1.69-11.12a2.18,2.18,0,0,1,2-2,2.17,2.17,0,0,1,1.44.38A2.22,2.22,0,0,1,36.17,76l5,10.48a.32.32,0,0,1,0,.17.32.32,0,0,1,0,.16.34.34,0,0,1-.12.12.28.28,0,0,1-.16,0L30.58,88Zm3.51-12.84a1.49,1.49,0,0,0-1,.4,1.45,1.45,0,0,0-.47,1v0L31,87.2l9.33-.86L35.52,76.28a.14.14,0,0,1,0-.07h0a1.53,1.53,0,0,0-.53-.79,1.49,1.49,0,0,0-.91-.31Z" transform="translate(0 0)"/><path class="cls-1" d="M35.85,94.3a5.45,5.45,0,1,0-5.45-5.45A5.45,5.45,0,0,0,35.85,94.3Z" transform="translate(0 0)"/><path class="cls-2" d="M35.85,94.65A5.8,5.8,0,1,1,40,93,5.76,5.76,0,0,1,35.85,94.65Zm0-10.89a5.1,5.1,0,0,0-1,10.09,5.22,5.22,0,0,0,2.95-.29,5.09,5.09,0,0,0-1.95-9.8Z" transform="translate(0 0)"/><path class="cls-1" d="M35.85,92.21a3.36,3.36,0,1,0-3.36-3.36A3.35,3.35,0,0,0,35.85,92.21Z" transform="translate(0 0)"/><path class="cls-2" d="M35.85,92.57a3.73,3.73,0,0,1-2.07-.63,3.79,3.79,0,0,1-1.37-1.67,3.72,3.72,0,0,1-.21-2.14,3.76,3.76,0,0,1,1-1.9,3.69,3.69,0,0,1,1.9-1,3.72,3.72,0,0,1,3.82,1.58,3.7,3.7,0,0,1,.63,2.06,3.72,3.72,0,0,1-3.72,3.72Zm0-6.72a3,3,0,0,0-1.67.5,2.93,2.93,0,0,0-1.11,1.35,3,3,0,0,0-.17,1.74A2.94,2.94,0,0,0,33.72,91a3,3,0,0,0,5.14-2.13,3,3,0,0,0-3-3Z" transform="translate(0 0)"/><path class="cls-1" d="M18.59,86.64l10.28,1L27.18,76.46a1.8,1.8,0,0,0-.52-1.15,1.76,1.76,0,0,0-1.14-.53,1.79,1.79,0,0,0-1.21.32,1.83,1.83,0,0,0-.72,1Z" transform="translate(0 0)"/><path class="cls-2" d="M28.87,88h0L18.56,87a.3.3,0,0,1-.16,0,.34.34,0,0,1-.12-.12.41.41,0,0,1,0-.33l5-10.48a2.18,2.18,0,0,1,4.28.41l1.69,11.12a.26.26,0,0,1,0,.15.21.21,0,0,1-.07.13.27.27,0,0,1-.12.09.24.24,0,0,1-.15,0Zm-9.74-1.61,9.34.86L26.84,76.51v0a1.44,1.44,0,0,0-.41-1,1.46,1.46,0,0,0-.93-.44,1.46,1.46,0,0,0-1.57,1.13h0s0,0,0,.07h0Z" transform="translate(0 0)"/><path class="cls-1" d="M23.57,94.3a5.45,5.45,0,1,0-5.45-5.45A5.45,5.45,0,0,0,23.57,94.3Z" transform="translate(0 0)"/><path class="cls-2" d="M23.57,94.65a5.82,5.82,0,0,1-5.36-3.58,5.79,5.79,0,0,1,1.26-6.32,5.81,5.81,0,0,1,9.91,4.1A5.84,5.84,0,0,1,27.67,93a5.77,5.77,0,0,1-4.1,1.7Zm0-10.89a5.12,5.12,0,0,0-4.71,3.14,5.22,5.22,0,0,0-.29,2.95,5.13,5.13,0,0,0,4,4,5.1,5.1,0,0,0,5.23-2.17,5.09,5.09,0,0,0-4.24-7.92Z" transform="translate(0 0)"/><path class="cls-1" d="M23.57,92.21a3.36,3.36,0,1,0-3.36-3.36A3.36,3.36,0,0,0,23.57,92.21Z" transform="translate(0 0)"/><path class="cls-2" d="M23.57,92.57a3.7,3.7,0,0,1-2.06-.63,3.74,3.74,0,0,1-1.59-3.81,3.76,3.76,0,0,1,1-1.9,3.69,3.69,0,0,1,1.9-1,3.72,3.72,0,0,1,3.82,1.58,3.7,3.7,0,0,1-.46,4.69,3.79,3.79,0,0,1-2.63,1.09Zm0-6.72a3,3,0,0,0-2.78,1.85,3,3,0,0,0,3.93,3.93,3,3,0,0,0,1.86-2.78,3,3,0,0,0-3-3Z" transform="translate(0 0)"/><path class="cls-1" d="M34.22,78.94s-2.23-.37-.71-1.68,4.73-.74,5.55.75c0,0,1.74,0,3.12,2.5,1,1.86.16,3.76-.91,5.36-.28.4-.65.24-.73-.24-.76-1.42-1.09-3.29-3.08-3.31C34.33,82.28,33.25,81.5,34.22,78.94Z" transform="translate(0 0)"/><path class="cls-2" d="M40.92,86.45l-.14,0a.81.81,0,0,1-.58-.68c-.15-.29-.28-.59-.41-.88-.52-1.17-1-2.18-2.33-2.2-2,0-3.11-.35-3.62-1.1a2.63,2.63,0,0,1-.08-2.38,1.51,1.51,0,0,1-1.1-.88c-.12-.42.09-.86.62-1.31a4.25,4.25,0,0,1,3.5-.73,3.8,3.8,0,0,1,2.49,1.4c.54.08,2,.49,3.22,2.67s0,4.3-.93,5.73a.87.87,0,0,1-.27.27A.94.94,0,0,1,40.92,86.45Zm-5.11-9.56a3.2,3.2,0,0,0-2.07.65c-.34.29-.43.48-.4.59s.59.4.94.46a.35.35,0,0,1,.14.06.32.32,0,0,1,.11.12.33.33,0,0,1,0,.14.29.29,0,0,1,0,.16c-.38,1-.42,1.68-.13,2.1s1.32.78,3,.81,2.44,1.39,3,2.61c.14.3.27.6.42.88a.28.28,0,0,1,0,.12.74.74,0,0,0,0,.14l0,0c1.38-2,1.66-3.61.9-5-1.25-2.27-2.76-2.32-2.81-2.32a.35.35,0,0,1-.18-.05.4.4,0,0,1-.13-.13A3,3,0,0,0,36.65,77a4.78,4.78,0,0,0-.84-.08Z" transform="translate(0 0)"/><path class="cls-2" d="M34.65,79.07a.35.35,0,0,1-.22-.08.39.39,0,0,1-.13-.2.37.37,0,0,1,0-.23.37.37,0,0,1,.16-.17,7.61,7.61,0,0,1,3.64-.71.35.35,0,0,1,.14,0,.31.31,0,0,1,.11.09.24.24,0,0,1,.07.12.32.32,0,0,1,0,.14.31.31,0,0,1,0,.13.24.24,0,0,1-.09.11.25.25,0,0,1-.12.08l-.14,0a7,7,0,0,0-3.27.63.35.35,0,0,1-.17,0Z" transform="translate(0 0)"/><path class="cls-1" d="M25,79.58s2.24-.37.71-1.67-4.73-.75-5.54.74c0,0-1.75,0-3.13,2.51-1,1.85-.16,3.75.92,5.35.27.4.65.24.72-.24.77-1.42,1.09-3.28,3.09-3.31C24.89,82.93,26,82.15,25,79.58Z" transform="translate(0 0)"/><path class="cls-2" d="M18.3,87.1a.89.89,0,0,1-.36-.11.9.9,0,0,1-.27-.28c-1-1.42-2.12-3.56-.94-5.72A4.66,4.66,0,0,1,20,78.32a3.78,3.78,0,0,1,2.49-1.4,4.25,4.25,0,0,1,3.49.72q.79.69.63,1.32a1.57,1.57,0,0,1-1.1.88,2.63,2.63,0,0,1-.08,2.37c-.51.76-1.6,1.09-3.62,1.11-1.36,0-1.81,1-2.33,2.2-.13.29-.27.59-.42.88a.86.86,0,0,1-.18.43.82.82,0,0,1-.39.25l-.15,0ZM20.17,79c-.06,0-1.57,0-2.82,2.32-.76,1.38-.47,3,.9,5l0,.05a.37.37,0,0,0,0-.14.56.56,0,0,1,0-.12c.15-.28.29-.58.42-.88.54-1.22,1.16-2.6,3-2.61s2.69-.28,3-.81.24-1.1-.14-2.1a.78.78,0,0,1,0-.16.34.34,0,0,1,.05-.14.29.29,0,0,1,.1-.12.47.47,0,0,1,.15-.06c.34-.06.88-.26.94-.46s-.07-.3-.41-.59a3.59,3.59,0,0,0-2.91-.57,3,3,0,0,0-2.09,1.21.44.44,0,0,1-.13.14.41.41,0,0,1-.18.05Z" transform="translate(0 0)"/><path class="cls-2" d="M24.57,79.71a.32.32,0,0,1-.16,0h0A7,7,0,0,0,21.13,79L21,79a.35.35,0,0,1-.12-.07.27.27,0,0,1-.09-.12.28.28,0,0,1,0-.13.23.23,0,0,1,0-.14.37.37,0,0,1,.07-.12l.11-.08a.33.33,0,0,1,.14,0,7.56,7.56,0,0,1,3.65.72.38.38,0,0,1,.16.17.36.36,0,0,1,0,.23.34.34,0,0,1-.13.2.34.34,0,0,1-.22.07Z" transform="translate(0 0)"/><path class="cls-2" d="M112.18,88.09a.34.34,0,0,1-.33-.33v-2.2a.33.33,0,0,1,.1-.23.32.32,0,0,1,.23-.09.33.33,0,0,1,.23.09.32.32,0,0,1,.09.23v2.2a.59.59,0,0,1,0,.13.36.36,0,0,1-.07.1.26.26,0,0,1-.11.07.27.27,0,0,1-.12,0Z" transform="translate(0 0)"/><path class="cls-2" d="M115.5,89.21h-2.2a.33.33,0,0,1-.23-.1.32.32,0,0,1-.09-.23.33.33,0,0,1,.09-.23.32.32,0,0,1,.23-.09h2.2a.32.32,0,0,1,.23.09.34.34,0,0,1,.1.23.34.34,0,0,1-.33.33Z" transform="translate(0 0)"/><path class="cls-2" d="M112.18,92.52a.32.32,0,0,1-.23-.09.33.33,0,0,1-.1-.23V90a.34.34,0,0,1,.33-.33.34.34,0,0,1,.23.1.32.32,0,0,1,.09.23v2.2a.5.5,0,0,1,0,.12.3.3,0,0,1-.18.18A.25.25,0,0,1,112.18,92.52Z" transform="translate(0 0)"/><path class="cls-2" d="M111.06,89.21h-2.2a.34.34,0,0,1-.33-.33.34.34,0,0,1,.1-.23.32.32,0,0,1,.23-.09h2.2a.32.32,0,0,1,.23.09.34.34,0,0,1,.1.23.34.34,0,0,1-.33.33Z" transform="translate(0 0)"/><path class="cls-2" d="M98.38,158.14a.33.33,0,0,1-.23-.1.32.32,0,0,1-.1-.22v-1.88a.34.34,0,0,1,.33-.33.34.34,0,0,1,.23.1.32.32,0,0,1,.09.23v1.87a.51.51,0,0,1,0,.13.36.36,0,0,1-.07.1l-.11.08-.12,0Z" transform="translate(0 0)"/><path class="cls-2" d="M101.21,159.1H99.33a.34.34,0,0,1-.23-.1.32.32,0,0,1-.09-.23.31.31,0,0,1,.32-.32h1.88a.32.32,0,0,1,.23.09.34.34,0,0,1,.1.23.34.34,0,0,1-.33.33Z" transform="translate(0 0)"/><path class="cls-2" d="M98.38,161.92a.32.32,0,0,1-.23-.09.33.33,0,0,1-.1-.23v-1.88a.33.33,0,0,1,.1-.23.32.32,0,0,1,.23-.09.33.33,0,0,1,.23.09.32.32,0,0,1,.09.23v1.88a.25.25,0,0,1,0,.12.3.3,0,0,1-.18.18A.25.25,0,0,1,98.38,161.92Z" transform="translate(0 0)"/><path class="cls-2" d="M97.42,159.1H95.54a.34.34,0,0,1-.23-.1.32.32,0,0,1-.09-.23.31.31,0,0,1,.32-.32h1.88a.32.32,0,0,1,.23.09.34.34,0,0,1,.1.23.34.34,0,0,1-.33.33Z" transform="translate(0 0)"/></svg>