<svg width="227" height="219" viewBox="0 0 227 219" fill="none" xmlns="http://www.w3.org/2000/svg">
<path d="M171.413 29.7068H112.587C107.844 29.7068 104 33.455 104 38.0786V122.335C104 126.959 107.844 130.707 112.587 130.707H171.413C176.156 130.707 180 126.959 180 122.335V38.0786C180 33.455 176.156 29.7068 171.413 29.7068Z" fill="white"/>
<path d="M170.503 131.707H113.497C110.979 131.704 108.565 130.7 106.785 128.915C105.005 127.13 104.003 124.71 104 122.186V38.2279C104.003 35.7037 105.005 33.2838 106.785 31.4989C108.565 29.714 110.979 28.7099 113.497 28.7068H170.503C173.021 28.7099 175.435 29.714 177.215 31.4989C178.995 33.2838 179.997 35.7037 180 38.2279V122.186C179.997 124.71 178.995 127.13 177.215 128.915C175.435 130.7 173.021 131.704 170.503 131.707ZM113.497 31.0576C111.603 31.0607 109.787 31.8165 108.447 33.1594C107.108 34.5023 106.354 36.3228 106.351 38.222V122.18C106.354 124.079 107.108 125.899 108.447 127.242C109.787 128.585 111.603 129.341 113.497 129.344H170.503C172.397 129.341 174.213 128.585 175.553 127.242C176.892 125.899 177.646 124.079 177.649 122.18V38.2279C177.646 36.3287 176.892 34.5082 175.553 33.1653C174.213 31.8224 172.397 31.0666 170.503 31.0635H113.497V31.0576Z" fill="#262424"/>
<path d="M117.616 29.7068H42.3841C37.7537 29.7068 34 33.455 34 38.0786V122.335C34 126.959 37.7537 130.707 42.3841 130.707H117.616C122.246 130.707 126 126.959 126 122.335V38.0786C126 33.455 122.246 29.7068 117.616 29.7068Z" fill="white"/>
<path d="M118.364 131.707H42.636C40.0813 131.704 37.6322 130.7 35.8258 128.915C34.0194 127.13 33.0032 124.71 33 122.186V38.2279C33.0032 35.7037 34.0194 33.2838 35.8258 31.4989C37.6322 29.714 40.0813 28.7099 42.636 28.7068H118.364C120.919 28.7099 123.368 29.714 125.174 31.4989C126.981 33.2838 127.997 35.7037 128 38.2279V122.186C127.997 124.71 126.981 127.13 125.174 128.915C123.368 130.7 120.919 131.704 118.364 131.707ZM42.636 31.0576C40.7139 31.0607 38.8715 31.8165 37.5123 33.1594C36.1532 34.5023 35.3883 36.3228 35.3851 38.222V122.18C35.3883 124.079 36.1532 125.899 37.5123 127.242C38.8715 128.585 40.7139 129.341 42.636 129.344H118.364C120.286 129.341 122.129 128.585 123.488 127.242C124.847 125.899 125.612 124.079 125.615 122.18V38.2279C125.612 36.3287 124.847 34.5082 123.488 33.1653C122.129 31.8224 120.286 31.0666 118.364 31.0635H42.636V31.0576Z" fill="#262424"/>
<path d="M117.971 37.7068H44.0294C42.9086 37.7068 42 38.6079 42 39.7195V85.694C42 86.8057 42.9086 87.7068 44.0294 87.7068H117.971C119.091 87.7068 120 86.8057 120 85.694V39.7195C120 38.6079 119.091 37.7068 117.971 37.7068Z" fill="#262424"/>
<path d="M19 62.7068C19 64.8285 17.9991 66.8633 16.2175 68.3636C14.4359 69.8639 12.0196 70.7068 9.50001 70.7068C6.98045 70.7068 4.56408 69.8639 2.78249 68.3636C1.00089 66.8633 0 64.8285 0 62.7068H19Z" fill="#262424"/>
<path d="M38 62.7068C38 64.8285 36.9991 66.8633 35.2175 68.3636C33.4359 69.8639 31.0196 70.7068 28.5 70.7068C25.9804 70.7068 23.5641 69.8639 21.7825 68.3636C20.0009 66.8633 19 64.8285 19 62.7068H38Z" fill="#836FFF"/>
<path d="M57 62.7068C57 64.8285 55.9991 66.8633 54.2175 68.3636C52.4359 69.8639 50.0196 70.7068 47.5 70.7068C44.9804 70.7068 42.5641 69.8639 40.7825 68.3636C39.0009 66.8633 38 64.8285 38 62.7068H57Z" fill="#262424"/>
<path d="M75 62.7068C75 64.8285 74.0518 66.8633 72.3639 68.3636C70.6761 69.8639 68.387 70.7068 66 70.7068C63.6131 70.7068 61.3239 69.8639 59.6361 68.3636C57.9482 66.8633 57 64.8285 57 62.7068H75Z" fill="#836FFF"/>
<path d="M128 62.7068C128 64.8285 126.209 66.8633 123.021 68.3636C119.833 69.8639 115.509 70.7068 111 70.7068C106.491 70.7068 102.167 69.8639 98.9792 68.3636C95.7911 66.8633 94 64.8285 94 62.7068H128Z" fill="#836FFF"/>
<path d="M94 62.7068C94 64.8285 92.9991 66.8633 91.2175 68.3636C89.4359 69.8639 87.0196 70.7068 84.5 70.7068C81.9804 70.7068 79.5641 69.8639 77.7825 68.3636C76.0009 66.8633 75 64.8285 75 62.7068H94Z" fill="#262424"/>
<path d="M52 27.7068C43.1435 27.7068 34.6498 31.3943 28.3873 37.958C22.1249 44.5218 18.6066 53.4242 18.6066 62.7068H5.15756e-07C-0.000770289 58.1103 0.862451 53.5587 2.54035 49.3119C4.21825 45.0651 6.67795 41.2065 9.77897 37.9562C12.88 34.706 16.5615 32.128 20.6133 30.3693C24.6652 28.6107 29.0079 27.706 33.3934 27.7068H52Z" fill="#262424"/>
<path d="M121.789 28.2112C123 28.6526 124.098 29.3741 125 30.3211L93.8092 62.7068H75C75.0016 53.429 78.5503 44.5313 84.8664 37.9686C91.1825 31.4059 99.7494 27.715 108.685 27.7069H118.922C119.898 27.7027 120.868 27.8734 121.789 28.2112V28.2112Z" fill="#262424"/>
<path d="M109 27.7068C100.143 27.7084 91.6484 31.3966 85.3858 37.9602C79.1232 44.5238 75.6049 53.4253 75.6049 62.7068H57C57 53.4253 60.5182 44.5238 66.7808 37.9602C73.0434 31.3966 81.5376 27.7084 90.395 27.7068H109Z" fill="#836FFF"/>
<path d="M90 27.7068C81.1455 27.7084 72.6543 31.3966 66.3938 37.9602C60.1333 44.5238 56.6163 53.4253 56.6163 62.7068H38C37.9992 58.1108 38.8622 53.5597 40.5395 49.3133C42.2169 45.067 44.6758 41.2086 47.7758 37.9584C50.8758 34.7083 54.5563 32.1301 58.607 30.3711C62.6577 28.6121 66.9992 27.7068 71.3837 27.7068H90Z" fill="#262424"/>
<path d="M71 27.7068C66.6165 27.7068 62.2759 28.6121 58.2261 30.3711C54.1764 32.1301 50.4967 34.7083 47.3974 37.9584C44.2981 41.2086 41.8397 45.067 40.1628 49.3133C38.4858 53.5597 37.623 58.1108 37.6238 62.7068H19C19 53.4242 22.517 44.5218 28.7774 37.958C35.0377 31.3943 43.5286 27.7068 52.3821 27.7068H71V27.7068Z" fill="#836FFF"/>
<path d="M128 36.9825V62.7068H94C94.0015 54.5731 96.8346 46.7014 101.999 40.4807C107.164 34.2599 114.328 30.09 122.228 28.7068C123.913 29.3142 125.373 30.4354 126.406 31.9169C127.439 33.3983 127.996 35.1676 128 36.9825Z" fill="#836FFF"/>
<path d="M18 135.707C18 139.685 16.4197 143.5 13.6066 146.313C10.7936 149.126 6.97825 150.707 3 150.707C6.97825 150.707 10.7936 152.287 13.6066 155.1C16.4197 157.913 18 161.729 18 165.707C18 161.729 19.5804 157.913 22.3934 155.1C25.2064 152.287 29.0218 150.707 33 150.707C29.0218 150.707 25.2064 149.126 22.3934 146.313C19.5804 143.5 18 139.685 18 135.707Z" fill="#836FFF"/>
<path d="M183.524 105.341C179.443 113.663 163.613 137.165 163.613 137.165L174.873 146.468L170.14 157.403C170.14 157.403 157.741 152.306 149.821 148.292C146.14 146.427 143.426 144.795 143.375 144.019C143.323 143.363 144.085 140.377 145.268 136.134C148.498 124.575 154.932 103.758 157.08 95.8767C160.018 85.1043 164.407 78.0199 175.032 80.2087C187.108 82.6963 187.603 97.017 183.524 105.341Z" fill="#262424"/>
<path d="M152.329 142.99C152.33 144.005 152.106 145.007 151.672 145.925C151.238 146.842 150.606 147.651 149.821 148.294C146.14 146.429 143.426 144.797 143.375 144.021C143.323 143.363 144.085 140.377 145.268 136.134H145.466C146.367 136.134 147.259 136.311 148.091 136.655C148.924 136.999 149.68 137.504 150.318 138.141C150.955 138.777 151.461 139.533 151.806 140.365C152.151 141.198 152.329 142.089 152.329 142.99Z" fill="white"/>
<path d="M171.936 148.453C171.864 148.453 171.795 148.432 171.736 148.392L157.537 138.599C157.461 138.547 157.409 138.467 157.391 138.377C157.373 138.287 157.39 138.193 157.44 138.116L178.244 105.762C178.297 105.688 178.376 105.638 178.465 105.621C178.554 105.604 178.646 105.622 178.722 105.671C178.798 105.72 178.853 105.796 178.874 105.884C178.896 105.972 178.883 106.065 178.838 106.144L158.22 138.211L172.143 147.803C172.208 147.845 172.258 147.907 172.284 147.98C172.31 148.054 172.312 148.133 172.288 148.207C172.265 148.281 172.217 148.346 172.154 148.39C172.09 148.435 172.013 148.457 171.936 148.453V148.453Z" fill="white"/>
<path d="M178.543 106.308C178.462 106.308 178.383 106.28 178.32 106.228L176.534 104.773C175.909 104.266 175.421 103.611 175.112 102.868C174.803 102.125 174.685 101.317 174.766 100.516L175.744 90.8432C175.749 90.7968 175.762 90.7517 175.784 90.7106C175.807 90.6695 175.836 90.6331 175.873 90.6036C175.909 90.574 175.95 90.5519 175.995 90.5384C176.04 90.5249 176.087 90.5204 176.133 90.525C176.179 90.5296 176.224 90.5434 176.266 90.5654C176.307 90.5875 176.343 90.6174 176.373 90.6536C176.402 90.6897 176.424 90.7313 176.438 90.7759C176.451 90.8206 176.456 90.8675 176.451 90.9139L175.474 100.587C175.403 101.271 175.504 101.961 175.768 102.597C176.031 103.232 176.448 103.791 176.982 104.225L178.271 105.275L180.017 90.8362C180.029 90.7424 180.077 90.6569 180.151 90.5986C180.225 90.5402 180.32 90.5137 180.413 90.525C180.507 90.5363 180.593 90.5843 180.651 90.6586C180.709 90.7328 180.736 90.8272 180.724 90.921L178.902 105.997C178.891 106.084 178.849 106.164 178.782 106.222C178.716 106.279 178.631 106.31 178.543 106.308Z" fill="white"/>
<path d="M173.558 158.791L188.515 165.658L190.7 160.485L177.638 152.067L173.558 158.791Z" fill="white"/>
<path d="M188.515 166.013C188.465 166.013 188.415 166.002 188.369 165.981L173.411 159.118C173.366 159.097 173.326 159.067 173.293 159.03C173.26 158.992 173.236 158.948 173.221 158.901C173.206 158.853 173.202 158.803 173.208 158.754C173.214 158.704 173.23 158.657 173.256 158.614L177.335 151.896C177.359 151.856 177.391 151.821 177.43 151.793C177.468 151.765 177.511 151.746 177.557 151.735C177.603 151.725 177.651 151.723 177.697 151.732C177.744 151.74 177.788 151.757 177.828 151.783L190.892 160.179C190.962 160.224 191.013 160.292 191.038 160.372C191.063 160.451 191.058 160.537 191.026 160.614L188.839 165.787C188.814 165.853 188.769 165.909 188.712 165.949C188.654 165.99 188.586 166.012 188.515 166.013V166.013ZM174.067 158.637L188.331 165.179L190.26 160.616L177.754 152.555L174.067 158.637Z" fill="#262424"/>
<path d="M193.235 186.133L195.328 187.081L206.972 161.369C206.972 161.369 205.984 160.921 204.393 160.308C200.583 158.826 193.3 156.351 187.774 156.643L183.476 166.133C183.476 166.133 189.764 172.016 190.436 182.081C190.489 182.864 190.732 183.622 191.144 184.289C191.557 184.957 192.127 185.513 192.804 185.91C192.944 185.992 193.088 186.066 193.235 186.133V186.133Z" fill="#262424"/>
<path d="M193.234 186.133L195.327 187.081L206.971 161.369C206.971 161.369 205.983 160.921 204.392 160.308L192.799 185.912C192.94 185.993 193.085 186.067 193.234 186.133V186.133Z" fill="white"/>
<path d="M195.328 187.434C195.278 187.434 195.229 187.423 195.183 187.402L193.09 186.455C192.934 186.384 192.777 186.303 192.619 186.213C192.544 186.169 192.487 186.098 192.46 186.015C192.434 185.932 192.439 185.842 192.474 185.762L204.067 160.158C204.106 160.076 204.174 160.013 204.258 159.98C204.341 159.947 204.435 159.947 204.518 159.981C206.109 160.598 207.105 161.051 207.115 161.056C207.158 161.075 207.196 161.102 207.228 161.136C207.26 161.17 207.284 161.21 207.301 161.253C207.317 161.297 207.325 161.343 207.323 161.39C207.322 161.436 207.311 161.482 207.292 161.524L195.657 187.229C195.628 187.292 195.581 187.344 195.523 187.381C195.465 187.417 195.397 187.436 195.328 187.434V187.434ZM193.383 185.811L195.151 186.614L206.5 161.551C206.13 161.39 205.459 161.105 204.573 160.755L193.258 185.753L193.383 185.813V185.811Z" fill="#262424"/>
<path d="M183.082 151.579L176.698 162.983C176.545 163.255 176.294 163.459 175.997 163.554C175.7 163.649 175.377 163.628 175.095 163.496L167.722 160.022C167.569 159.949 167.433 159.846 167.321 159.718C167.21 159.591 167.126 159.442 167.074 159.281C167.023 159.119 167.005 158.949 167.022 158.781C167.039 158.612 167.09 158.449 167.172 158.301L174.188 145.832C174.271 145.683 174.385 145.553 174.521 145.451C174.658 145.348 174.814 145.275 174.98 145.236C175.146 145.196 175.318 145.192 175.486 145.222C175.654 145.253 175.814 145.318 175.956 145.413L182.695 149.953C182.951 150.127 183.133 150.39 183.205 150.691C183.277 150.992 183.233 151.309 183.082 151.579V151.579Z" fill="#836FFF"/>
<path d="M187.376 183.455L192.314 199.153L197.618 197.305L195.1 181.969L187.376 183.455Z" fill="white"/>
<path d="M192.315 199.506C192.24 199.506 192.167 199.482 192.106 199.438C192.045 199.393 192 199.331 191.978 199.259L187.04 183.561C187.025 183.513 187.02 183.463 187.026 183.414C187.032 183.364 187.048 183.317 187.074 183.274C187.099 183.231 187.133 183.194 187.174 183.166C187.215 183.137 187.261 183.117 187.31 183.108L195.033 181.625C195.079 181.616 195.127 181.616 195.173 181.626C195.219 181.636 195.263 181.655 195.302 181.682C195.34 181.709 195.373 181.744 195.398 181.784C195.424 181.823 195.44 181.868 195.448 181.915L197.966 197.25C197.979 197.332 197.963 197.417 197.92 197.488C197.878 197.56 197.811 197.614 197.732 197.641L192.428 199.489C192.392 199.501 192.354 199.507 192.315 199.506ZM187.833 183.727L192.543 198.698L197.221 197.068L194.812 182.394L187.833 183.727Z" fill="#262424"/>
<path d="M180.293 216.385L181.001 218.574L207.874 209.966C207.874 209.966 207.543 208.933 206.935 207.337C205.478 203.516 202.43 196.455 198.504 192.549L188.582 195.731C188.582 195.731 188.437 204.34 181.421 211.59C180.876 212.154 180.476 212.843 180.258 213.597C180.039 214.351 180.008 215.147 180.168 215.915C180.202 216.074 180.244 216.231 180.293 216.385V216.385Z" fill="#262424"/>
<path d="M180.293 216.385L181 218.574L207.873 209.966C207.873 209.966 207.543 208.933 206.934 207.337L180.167 215.91C180.201 216.07 180.243 216.229 180.293 216.385V216.385Z" fill="white"/>
<path d="M180.995 218.928C180.92 218.928 180.847 218.904 180.787 218.86C180.726 218.815 180.682 218.753 180.659 218.682L179.952 216.493C179.898 216.325 179.853 216.155 179.817 215.982C179.799 215.897 179.813 215.807 179.858 215.731C179.902 215.655 179.972 215.599 180.056 215.572L206.823 206.999C206.91 206.971 207.003 206.978 207.085 207.017C207.166 207.056 207.23 207.125 207.262 207.21C207.867 208.801 208.204 209.847 208.206 209.862C208.234 209.951 208.226 210.047 208.184 210.131C208.141 210.214 208.067 210.277 207.978 210.305L181.104 218.914C181.069 218.924 181.032 218.929 180.995 218.928V218.928ZM180.631 216.276L181.223 218.127L207.425 209.736C207.295 209.354 207.057 208.665 206.717 207.774L180.585 216.143C180.597 216.189 180.611 216.233 180.625 216.276H180.631Z" fill="#262424"/>
<path d="M207.728 96.9889C205.96 111.38 192.451 146.364 192.451 146.364L196.659 178.027L184.923 180.679L177.962 156.685L176.509 151.678C176.509 151.678 176.472 149.709 176.468 146.443C176.456 138.383 176.645 122.432 178.06 108.723C180.052 89.459 180.034 77.8645 189.573 74.1817C202.198 69.3038 209.5 82.5956 207.728 96.9889Z" fill="#262424"/>
<path d="M177.825 111.476H177.799C177.706 111.467 177.62 111.422 177.56 111.35C177.5 111.278 177.471 111.185 177.479 111.092C177.553 110.275 177.633 109.467 177.714 108.689C177.933 106.568 178.126 104.566 178.313 102.623C178.844 97.1975 179.286 92.5105 180.007 88.5502C180.024 88.4578 180.077 88.3759 180.154 88.3225C180.192 88.2961 180.236 88.2775 180.281 88.2677C180.326 88.2579 180.373 88.2572 180.419 88.2655C180.465 88.2739 180.509 88.2912 180.548 88.3164C180.587 88.3416 180.62 88.3743 180.647 88.4125C180.673 88.4508 180.692 88.4939 180.702 88.5393C180.711 88.5848 180.712 88.6317 180.704 88.6775C179.997 92.6095 179.539 97.2823 179.019 102.692C178.831 104.637 178.639 106.646 178.42 108.764C178.34 109.538 178.26 110.344 178.186 111.159C178.177 111.248 178.135 111.329 178.068 111.388C178.001 111.447 177.914 111.478 177.825 111.476Z" fill="white"/>
<path d="M199.979 99.1122C199.899 99.1121 199.821 99.0847 199.758 99.0344L198.837 98.2989C198.06 97.6809 197.47 96.8582 197.135 95.9233C196.8 94.9884 196.733 93.9785 196.94 93.0073L198.963 83.4035C198.97 83.3562 198.987 83.3109 199.013 83.2704C199.038 83.2298 199.072 83.1949 199.111 83.1677C199.151 83.1405 199.195 83.1216 199.242 83.1122C199.289 83.1027 199.338 83.1029 199.385 83.1128C199.432 83.1226 199.476 83.1418 199.515 83.1694C199.554 83.1969 199.588 83.2321 199.613 83.2728C199.638 83.3136 199.655 83.359 199.662 83.4064C199.669 83.4538 199.666 83.5022 199.654 83.5485L197.632 93.1523C197.45 93.9957 197.509 94.873 197.799 95.6852C198.09 96.4974 198.602 97.2122 199.278 97.7491L200.192 98.481C200.249 98.5262 200.291 98.5879 200.312 98.6577C200.332 98.7276 200.331 98.8022 200.308 98.8713C200.285 98.9404 200.241 99.0006 200.182 99.0438C200.123 99.0869 200.052 99.1108 199.979 99.1122Z" fill="white"/>
<path d="M192.674 175.058C192.588 175.059 192.506 175.029 192.441 174.974C192.376 174.919 192.333 174.842 192.32 174.758L188.114 146.647C188.105 146.602 188.105 146.555 188.114 146.51L202.728 86.0556C202.75 85.9644 202.808 85.8857 202.888 85.8368C202.968 85.7879 203.064 85.7728 203.155 85.7948C203.246 85.8169 203.325 85.8742 203.374 85.9543C203.423 86.0344 203.438 86.1306 203.416 86.2218L188.827 146.601L193.024 174.652C193.037 174.744 193.014 174.838 192.958 174.914C192.903 174.989 192.819 175.039 192.727 175.053L192.674 175.058Z" fill="white"/>
<path d="M181.599 157.957C180.299 158.149 179.017 157.654 177.962 156.685L176.508 151.678C176.508 151.678 176.471 149.709 176.468 146.443C177.198 145.225 178.278 144.391 179.569 144.2C182.353 143.79 185.067 146.535 185.628 150.335C186.188 154.134 184.383 157.546 181.599 157.957Z" fill="white"/>
<path d="M199.115 185.68L186.373 188.594C186.068 188.662 185.749 188.613 185.48 188.457C185.21 188.3 185.009 188.047 184.918 187.749L182.552 179.95C182.504 179.788 182.489 179.618 182.508 179.45C182.528 179.282 182.582 179.12 182.667 178.974C182.752 178.827 182.866 178.7 183.002 178.6C183.138 178.499 183.293 178.427 183.457 178.389L197.425 175.23C197.591 175.193 197.763 175.19 197.93 175.223C198.097 175.255 198.256 175.322 198.396 175.418C198.536 175.515 198.655 175.639 198.745 175.784C198.835 175.929 198.894 176.09 198.919 176.259L200.07 184.303C200.112 184.61 200.038 184.923 199.861 185.178C199.684 185.433 199.418 185.612 199.115 185.68V185.68Z" fill="#836FFF"/>
<path d="M160.606 52.8333C160.606 52.8333 150.573 64.8168 143.402 62.3646C136.406 59.9742 139.102 46.7974 141.696 33.7584C140.547 33.182 139.666 32.3157 139.532 31.4883C139.178 29.3119 142.361 26.5715 144.731 25.7175C147.44 24.7398 149.305 29.5276 147.369 32.8284C147.193 33.1327 146.968 33.4057 146.703 33.6364L147.698 48.3108L151.383 44.2002L160.606 52.8333Z" fill="white"/>
<path d="M145.472 63.0505C144.729 63.0542 143.991 62.9347 143.288 62.6969C140.016 61.5795 138.481 58.1443 138.596 52.195C138.697 47.0165 140.01 40.4325 141.274 34.0642L141.297 33.9457C140.123 33.2969 139.321 32.3916 139.176 31.543C138.783 29.1173 142.128 26.2744 144.603 25.3815C145.611 25.0173 146.623 25.3285 147.376 26.2372C148.603 27.7153 149.048 30.6572 147.666 33.0051C147.5 33.2905 147.296 33.5516 147.059 33.7813L147.987 47.4567L151.113 43.9702C151.145 43.9353 151.183 43.907 151.225 43.887C151.268 43.867 151.314 43.8556 151.361 43.8536C151.408 43.8516 151.455 43.8591 151.499 43.8755C151.543 43.8919 151.583 43.9169 151.617 43.949L160.839 52.5715C160.905 52.6333 160.946 52.7182 160.951 52.8086C160.957 52.8991 160.927 52.9883 160.869 53.0577C160.501 53.5086 152.422 63.0505 145.472 63.0505ZM145.445 25.9438C145.243 25.9456 145.043 25.9827 144.855 26.0534C142.632 26.8543 139.566 29.4674 139.885 31.4351C139.994 32.1088 140.769 32.899 141.858 33.4454C141.927 33.4802 141.983 33.5368 142.017 33.6064C142.05 33.6761 142.06 33.7549 142.045 33.8308L141.971 34.2074C139.469 46.7725 136.884 59.7638 143.52 62.0321C149.807 64.1767 158.62 54.5605 160.119 52.8615L151.409 44.7181L147.964 48.5582C147.918 48.6097 147.857 48.6464 147.79 48.6637C147.723 48.681 147.652 48.6782 147.587 48.6556C147.521 48.633 147.464 48.5916 147.421 48.5365C147.379 48.4815 147.354 48.4152 147.349 48.346L146.354 33.6717C146.35 33.6169 146.359 33.562 146.38 33.5114C146.402 33.4608 146.434 33.4158 146.476 33.3799C146.712 33.1745 146.912 32.9313 147.068 32.6604C148.276 30.6007 147.892 27.9646 146.844 26.7022C146.532 26.3239 146.066 25.9438 145.445 25.9438Z" fill="#262424"/>
<path d="M165.232 27.1689C161.418 27.8531 147.037 47.2038 147.037 47.2038C147.037 47.2038 150.798 54.6948 159.701 56.8306C159.701 56.8306 167.028 46.5762 169.521 38.5123C172.014 30.4485 169.268 26.4475 165.232 27.1689Z" fill="#836FFF"/>
<path d="M159.059 54.2988C159.013 54.2986 158.968 54.2896 158.926 54.2723C154.209 52.3717 149.34 47.0553 149.135 46.8308C149.072 46.7605 149.039 46.668 149.044 46.5736C149.05 46.4793 149.092 46.3909 149.162 46.3278C149.233 46.2647 149.325 46.2322 149.42 46.2373C149.514 46.2425 149.602 46.2849 149.665 46.3552C149.715 46.41 154.632 51.7777 159.197 53.6164C159.274 53.6468 159.338 53.7035 159.378 53.7765C159.417 53.8494 159.43 53.934 159.413 54.0154C159.397 54.0967 159.352 54.1697 159.288 54.2216C159.223 54.2734 159.142 54.3007 159.059 54.2988Z" fill="#262424"/>
<path d="M166.307 27.0893L175.547 28.2244L195.485 23.3606L204.724 59.9953L212.503 83.8243C212.503 83.8243 192.566 94.8478 181.21 94.3598C169.854 93.8718 157.381 87.065 157.381 87.065C157.381 87.065 163.215 66.4785 163.864 57.0763C163.864 57.0763 159.649 49.2971 158.677 45.5666C157.704 41.8362 166.307 27.0893 166.307 27.0893Z" fill="#836FFF"/>
<path d="M161.124 51.9776C161.057 51.9776 160.992 51.9585 160.935 51.9225C160.878 51.8865 160.833 51.8351 160.804 51.7743C159.537 49.0887 158.706 47.0272 158.352 45.657C157.534 42.5171 162.937 32.3723 165.299 28.1539C165.346 28.0721 165.423 28.0122 165.514 27.9875C165.605 27.9628 165.702 27.9753 165.784 28.0222C165.866 28.0691 165.926 28.1465 165.95 28.2375C165.975 28.3286 165.963 28.4257 165.916 28.5075C164.105 31.7394 158.26 42.5118 159.036 45.4802C159.39 46.8133 160.193 48.8271 161.441 51.4649C161.468 51.5189 161.481 51.5789 161.478 51.6393C161.476 51.6996 161.458 51.7583 161.426 51.8098C161.394 51.8612 161.35 51.9036 161.297 51.933C161.244 51.9624 161.185 51.9778 161.124 51.9776Z" fill="#262424"/>
<path d="M174.934 25.2809C170.457 26.6104 167.807 33.007 173.192 35.6183C173.192 35.6183 173.627 32.9522 174.444 31.6474C174.444 31.6474 174.989 34.0413 176.348 35.6183C176.348 35.6183 181.136 33.2245 181.788 29.4162C182.441 25.6079 178.415 24.243 174.934 25.2809Z" fill="white"/>
<path d="M176.349 35.9681C176.298 35.9684 176.247 35.9576 176.201 35.9365C176.155 35.9155 176.113 35.8846 176.08 35.8461C175.196 34.8189 174.646 33.4859 174.358 32.616C173.993 33.6079 173.72 34.6311 173.543 35.6729C173.534 35.7274 173.513 35.779 173.48 35.8237C173.448 35.8685 173.406 35.905 173.357 35.9304C173.308 35.9559 173.253 35.9695 173.198 35.9702C173.143 35.9709 173.089 35.9587 173.039 35.9345C170.838 34.8737 169.68 33.0173 169.857 30.8604C170.072 28.2225 172.166 25.7332 174.837 24.9394C177.183 24.2428 179.602 24.5946 180.998 25.8357C181.706 26.4563 182.464 27.5914 182.141 29.4725C181.465 33.4116 176.711 35.8373 176.509 35.931C176.46 35.9559 176.404 35.9686 176.349 35.9681V35.9681ZM174.441 31.2918H174.499C174.568 31.3034 174.633 31.3353 174.684 31.3834C174.735 31.4316 174.77 31.4939 174.786 31.5623C174.786 31.5835 175.279 33.6839 176.433 35.1619C177.401 34.6174 180.905 32.4498 181.437 29.3505C181.649 28.1129 181.333 27.0804 180.523 26.3608C179.322 25.3 177.116 24.9942 175.031 25.613C172.669 26.3202 170.744 28.592 170.555 30.917C170.413 32.6567 171.253 34.1206 172.929 35.0788C173.106 34.2337 173.504 32.4763 174.14 31.4562C174.172 31.4056 174.217 31.3639 174.269 31.3352C174.322 31.3064 174.381 31.2915 174.441 31.2918Z" fill="#262424"/>
<path d="M171.814 20.6434L172.805 28.999C172.805 28.999 174.518 31.0569 176.482 30.7139C178.446 30.371 179.854 27.8533 179.854 27.8533L177.813 18.7817L171.814 20.6434Z" fill="white"/>
<path d="M176.032 31.1062C174.125 31.1062 172.604 29.3082 172.535 29.2251C172.493 29.1747 172.465 29.1135 172.456 29.0483L171.465 20.6839C171.456 20.6018 171.475 20.5188 171.52 20.4494C171.564 20.3799 171.632 20.3284 171.711 20.3038L177.71 18.4421C177.756 18.4286 177.805 18.4247 177.853 18.4307C177.901 18.4367 177.947 18.4525 177.988 18.477C178.03 18.5015 178.066 18.5343 178.095 18.5733C178.123 18.6123 178.143 18.6567 178.154 18.7037L180.194 27.7753C180.213 27.8607 180.2 27.9502 180.157 28.0264C180.097 28.136 178.642 30.6943 176.538 31.062C176.371 31.0912 176.202 31.1059 176.032 31.1062V31.1062ZM173.145 28.8467C173.465 29.2003 174.887 30.6342 176.423 30.3654C177.959 30.0967 179.188 28.2704 179.48 27.7948L177.554 19.2341L172.203 20.8961L173.145 28.8467Z" fill="#262424"/>
<path d="M180.908 91.5345H180.731C172.625 91.3966 161.506 86.3207 161.395 86.2694C161.35 86.2515 161.31 86.2247 161.276 86.1908C161.243 86.1569 161.216 86.1164 161.199 86.072C161.181 86.0275 161.173 85.98 161.174 85.9322C161.175 85.8844 161.186 85.8374 161.206 85.7939C161.226 85.7505 161.255 85.7116 161.29 85.6795C161.326 85.6474 161.367 85.6229 161.412 85.6073C161.458 85.5918 161.506 85.5856 161.553 85.5891C161.601 85.5925 161.647 85.6057 161.69 85.6277C161.8 85.6789 172.786 90.6947 180.742 90.8291H180.91C188.963 90.8291 208.48 81.319 208.678 81.2236C208.761 81.1918 208.852 81.1921 208.934 81.2244C209.017 81.2568 209.084 81.3188 209.123 81.3983C209.162 81.4777 209.169 81.5689 209.144 81.6537C209.119 81.7385 209.063 81.8109 208.987 81.8565C208.174 82.2543 189.127 91.5345 180.908 91.5345Z" fill="#262424"/>
<path d="M181.236 2.18892C179.413 4.94876 185.115 8.76056 187.17 9.80191C189.224 10.8433 191.255 16.4584 195.569 15.8325C199.883 15.2067 198.283 25.7457 210.937 26.734C220.689 27.496 228.845 16.2463 223.576 11.7785C218.308 7.31081 207.797 10.8026 203.028 6.65134C199.995 4.01172 198.161 -1.561 191.689 0.415619C186.855 1.89366 182.675 0.0125157 181.236 2.18892Z" fill="#262424"/>
<path d="M181.915 7.35856C181.61 7.35824 181.313 7.26044 181.068 7.07944C180.823 6.89844 180.642 6.64374 180.552 6.35257L179.931 4.34943C179.827 4.00709 179.855 3.6382 180.008 3.31508C180.162 2.99196 180.431 2.73788 180.762 2.60265L181.892 2.15004C182.128 2.05517 182.384 2.02498 182.635 2.06259C182.886 2.1002 183.123 2.20425 183.32 2.36397C183.795 2.73331 184.179 3.20542 184.445 3.74478C184.692 4.36218 184.714 5.04701 184.507 5.67897C184.453 5.859 184.364 6.02641 184.244 6.17127C184.124 6.31613 183.977 6.4355 183.81 6.5223L182.587 7.1853C182.381 7.29752 182.15 7.35704 181.915 7.35856V7.35856ZM181.031 3.26034C180.863 3.32875 180.727 3.45741 180.65 3.621C180.572 3.7846 180.559 3.97128 180.612 4.14434L181.232 6.14748C181.264 6.24928 181.317 6.34285 181.389 6.42143C181.461 6.50002 181.55 6.56166 181.648 6.60192C181.747 6.64218 181.853 6.66004 181.96 6.65422C182.066 6.6484 182.17 6.61904 182.263 6.56827L183.487 5.90527C183.571 5.86228 183.645 5.8029 183.706 5.73063C183.767 5.65837 183.812 5.57467 183.84 5.48448C183.999 5.01377 183.989 4.5024 183.812 4.03826C183.592 3.59945 183.276 3.21576 182.887 2.91559C182.788 2.83541 182.668 2.78331 182.542 2.76466C182.415 2.74601 182.286 2.76149 182.168 2.80951L181.031 3.26034Z" fill="#262424"/>
<path d="M165.516 15.2987C165.491 19.2855 166.975 23.9795 171.789 24.1387C175.325 24.2607 179.495 20.2491 180.123 14.8991C180.751 9.54916 180.098 4.90109 173.62 4.82153C172.928 4.82401 172.237 4.87245 171.552 4.96651C167.756 5.56409 166.306 5.81161 165.576 13.1612C165.512 13.8224 165.519 14.5473 165.516 15.2987Z" fill="white"/>
<path d="M171.926 24.5011H171.776C166.857 24.3243 165.135 19.6373 165.161 15.3075V15.0087C165.161 14.3457 165.161 13.7198 165.222 13.1364C165.98 5.49511 167.594 5.24052 171.494 4.62703C171.588 4.61249 171.684 4.6358 171.76 4.69184C171.837 4.74787 171.888 4.83204 171.903 4.92582C171.917 5.0196 171.894 5.11531 171.838 5.1919C171.782 5.2685 171.698 5.31969 171.604 5.33422C167.891 5.9212 166.631 6.11745 165.925 13.216C165.87 13.7658 165.87 14.374 165.869 15.0193V15.3093C165.856 17.2541 166.247 23.61 171.8 23.7956C172.9 23.8345 174.178 23.3395 175.815 22.2416C175.892 22.2026 175.981 22.1931 176.064 22.2148C176.147 22.2364 176.22 22.2878 176.268 22.3592C176.316 22.4307 176.337 22.5172 176.326 22.6027C176.315 22.6881 176.273 22.7665 176.208 22.8232C174.488 23.9795 173.158 24.5011 171.926 24.5011Z" fill="#262424"/>
<path d="M178.29 15.5178C177.658 15.2025 177.123 14.7223 176.74 14.128C176.358 13.5336 176.144 12.8471 176.119 12.141C176.093 11.6618 176.109 11.0218 176.026 10.4331C172.974 13.0851 167.567 14.3457 165.221 14.7912C164.853 14.8678 164.471 14.8266 164.128 14.6733C163.785 14.52 163.499 14.2624 163.31 13.9372C161.012 9.74886 164.901 2.50892 170.002 3.13832C176.179 -0.328717 182.679 3.23026 183.181 8.22131C183.738 13.7534 179.86 16.3541 178.29 15.5178Z" fill="#262424"/>
<path d="M178.461 15.0265C178.461 15.0265 181.233 12.4929 183.922 13.5378C186.611 14.5827 185.193 20.9634 178.466 19.7347L178.461 15.0265Z" fill="white"/>
<path d="M180.076 20.2473C179.515 20.245 178.955 20.1924 178.404 20.09C178.311 20.0733 178.229 20.0207 178.176 19.9436C178.122 19.8665 178.102 19.7713 178.118 19.6789C178.135 19.5865 178.188 19.5045 178.265 19.451C178.342 19.3975 178.437 19.3767 178.529 19.3934C182.32 20.0811 184.236 18.299 184.717 16.5646C185.06 15.3482 184.668 14.2167 183.786 13.8737C181.33 12.919 178.717 15.2686 178.69 15.2881C178.62 15.3514 178.527 15.3842 178.433 15.3792C178.338 15.3742 178.25 15.3319 178.186 15.2616C178.123 15.1912 178.09 15.0986 178.095 15.0041C178.1 14.9096 178.143 14.821 178.213 14.7577C178.333 14.6481 181.18 12.0898 184.047 13.2018C185.285 13.6792 185.847 15.1696 185.403 16.7378C184.882 18.6119 183.062 20.2473 180.076 20.2473Z" fill="#262424"/>
<path d="M211.261 49.7429L213.08 65.4427C212.981 66.7316 211.588 68.1849 210.4 68.6976C203.328 71.7474 183.795 72.0568 183.795 72.0568C183.795 72.0568 181.696 74.8626 178.491 74.265C175.285 73.6675 172.849 77.3272 171.703 76.4096C170.558 75.492 169.336 72.2106 169.582 71.1251C169.828 70.0395 173.595 68.5756 173.712 68.5314L170.452 69.2386C170.312 69.2693 170.167 69.2688 170.027 69.2372C169.887 69.2056 169.756 69.1437 169.642 69.0558C169.529 68.968 169.436 68.8563 169.371 68.7288C169.306 68.6012 169.269 68.4608 169.264 68.3175C169.261 68.2727 169.261 68.2279 169.264 68.1831C169.283 67.9917 169.358 67.8103 169.48 67.6615C169.602 67.5127 169.766 67.4033 169.95 67.3469C171.293 66.9332 174.145 66.0916 175.117 66.0898C176.406 66.0898 178.415 66.4293 178.415 66.4293L176.136 64.6188C175.982 64.4966 175.871 64.3276 175.821 64.1373C175.771 63.9469 175.785 63.7455 175.859 63.5633C175.933 63.3811 176.065 63.228 176.234 63.1269C176.403 63.0258 176.6 62.9823 176.795 63.0029C176.92 63.0161 177.04 63.0552 177.149 63.1178L183.197 66.5654L200.142 59.7604L199.015 53.0933L211.261 49.7429Z" fill="white"/>
<path d="M172.13 76.9063C171.894 76.9086 171.665 76.8278 171.483 76.6782C170.196 75.651 168.965 72.2476 169.238 71.04C169.353 70.5291 170.012 69.9952 170.788 69.5266L170.526 69.5832C170.336 69.625 170.138 69.6244 169.948 69.5815C169.757 69.5386 169.579 69.4544 169.424 69.3348C169.27 69.2153 169.144 69.0633 169.055 68.8896C168.966 68.7159 168.916 68.5248 168.909 68.3297C168.905 68.2708 168.905 68.2118 168.909 68.1529C168.935 67.8929 169.038 67.6464 169.204 67.4442C169.369 67.2421 169.591 67.0932 169.841 67.0161C171.38 66.5405 174.114 65.7449 175.113 65.7431C175.799 65.7563 176.484 65.8089 177.164 65.9005L175.91 64.9051C175.658 64.708 175.49 64.4224 175.44 64.1061C175.39 63.7898 175.463 63.4665 175.643 63.2015C175.822 62.9366 176.096 62.7499 176.408 62.6792C176.721 62.6084 177.048 62.659 177.324 62.8206L183.222 66.1798L199.743 59.5445L198.662 53.1532C198.647 53.0666 198.665 52.9776 198.712 52.9034C198.759 52.8292 198.832 52.7752 198.917 52.7519L211.171 49.3927C211.22 49.3794 211.271 49.3768 211.322 49.3852C211.372 49.3936 211.42 49.4127 211.462 49.4412C211.504 49.4697 211.539 49.507 211.566 49.5505C211.592 49.594 211.609 49.6427 211.615 49.6932L213.434 65.3931C213.436 65.4154 213.436 65.4379 213.434 65.4602C213.324 66.887 211.843 68.4482 210.542 69.0121C203.749 71.94 186.012 72.359 183.969 72.3979C183.477 72.9848 181.424 75.1612 178.422 74.6025C176.766 74.2931 175.298 75.239 174.119 75.9975C173.38 76.4837 172.708 76.9063 172.13 76.9063ZM173.712 68.1688C173.795 68.1684 173.876 68.1971 173.94 68.2499C174.004 68.3027 174.047 68.3762 174.062 68.4577C174.077 68.5392 174.063 68.6234 174.023 68.6957C173.982 68.7679 173.917 68.8236 173.84 68.853C172.287 69.4506 170.063 70.598 169.929 71.1956C169.715 72.1433 170.892 75.2991 171.927 76.1248C172.234 76.3723 172.931 75.9232 173.735 75.4052C174.952 74.622 176.617 73.5488 178.551 73.9095C181.511 74.4611 183.493 71.8639 183.512 71.8374C183.545 71.7942 183.587 71.759 183.635 71.7345C183.683 71.71 183.736 71.6968 183.79 71.696C183.984 71.696 203.33 71.3512 210.26 68.3651C211.344 67.8983 212.617 66.5546 212.725 65.4408L210.957 50.1865L199.41 53.3442L200.498 59.709C200.511 59.7886 200.497 59.8705 200.457 59.9409C200.418 60.0114 200.355 60.0662 200.28 60.0961L183.336 66.9012C183.286 66.9211 183.233 66.9295 183.179 66.9258C183.126 66.9222 183.074 66.9065 183.028 66.8799L176.98 63.4324C176.858 63.3663 176.717 63.3477 176.583 63.3804C176.449 63.413 176.331 63.4946 176.254 63.609C176.177 63.7234 176.145 63.8626 176.165 63.9992C176.184 64.1359 176.254 64.2603 176.361 64.3482L178.64 66.1568C178.702 66.2056 178.745 66.2735 178.764 66.3498C178.783 66.4262 178.776 66.5066 178.743 66.5784C178.711 66.6501 178.656 66.7092 178.587 66.7462C178.518 66.7832 178.438 66.7961 178.36 66.7827C178.341 66.7827 176.368 66.4486 175.125 66.4486C174.473 66.4486 172.579 66.9135 170.06 67.6862C169.943 67.7218 169.839 67.7912 169.761 67.8855C169.683 67.9798 169.634 68.0949 169.621 68.2165C169.62 68.2478 169.62 68.279 169.621 68.3103C169.626 68.401 169.65 68.4896 169.692 68.57C169.735 68.6505 169.794 68.7207 169.866 68.7759C169.938 68.831 170.022 68.8699 170.11 68.8896C170.199 68.9093 170.291 68.9095 170.38 68.8902L173.64 68.183C173.664 68.1787 173.688 68.1769 173.712 68.1777V68.1688Z" fill="#262424"/>
<path d="M197.191 53.9312C197.191 53.9312 203.6 56.3127 213.245 50.4712C213.245 50.4712 204.834 21.6334 195.492 23.3607C187.253 24.883 191.758 37.2236 193.252 41.0266C194.746 44.8295 197.191 53.9312 197.191 53.9312Z" fill="#836FFF"/>
<path d="M197.191 54.2846C197.113 54.2845 197.038 54.2589 196.976 54.2116C196.914 54.1643 196.87 54.098 196.85 54.0229C196.825 53.9327 194.392 44.8965 192.923 41.1554C189.765 33.1164 189.479 27.4252 192.099 24.6972C192.13 24.6613 192.169 24.6321 192.212 24.6115C192.255 24.5909 192.302 24.5792 192.35 24.5772C192.397 24.5752 192.445 24.5829 192.49 24.5998C192.535 24.6167 192.575 24.6425 192.61 24.6757C192.644 24.7088 192.672 24.7485 192.69 24.7925C192.709 24.8365 192.718 24.8838 192.718 24.9316C192.718 24.9794 192.708 25.0267 192.689 25.0705C192.67 25.1144 192.643 25.154 192.608 25.1869C190.195 27.701 190.531 33.134 193.581 40.8973C195.066 44.6755 197.507 53.7489 197.532 53.8408C197.546 53.8931 197.547 53.9478 197.537 54.0008C197.526 54.0538 197.503 54.1037 197.47 54.1465C197.437 54.1894 197.395 54.2241 197.347 54.248C197.298 54.272 197.245 54.2845 197.191 54.2846Z" fill="#262424"/>
<path d="M200.942 52.4707C200.429 52.4765 199.915 52.4464 199.406 52.3806C199.312 52.3665 199.228 52.3158 199.172 52.2395C199.115 52.1632 199.091 52.0677 199.106 51.9739C199.12 51.8802 199.17 51.7958 199.247 51.7394C199.323 51.6831 199.418 51.6593 199.512 51.6734C199.567 51.6734 204.963 52.4389 210.686 48.8605C210.765 48.814 210.86 48.8003 210.949 48.8222C211.038 48.8442 211.116 48.9001 211.164 48.9781C211.213 49.0561 211.23 49.1501 211.21 49.24C211.191 49.33 211.137 49.4088 211.061 49.4598C208.034 51.3863 204.53 52.4291 200.942 52.4707V52.4707Z" fill="#262424"/>
<path d="M150.562 25.71C151.198 25.1263 151.24 24.1376 150.657 23.5017C150.073 22.8658 149.084 22.8235 148.448 23.4072L138.207 32.8081C137.571 33.3918 137.529 34.3804 138.113 35.0163C138.696 35.6522 139.685 35.6945 140.321 35.1108L150.562 25.71Z" fill="white"/>
<path d="M139.258 35.8799H139.173C138.794 35.864 138.428 35.736 138.122 35.5121C137.816 35.2882 137.583 34.9786 137.453 34.6223C137.323 34.2661 137.302 33.8792 137.392 33.5108C137.481 33.1424 137.679 32.8089 137.958 32.5526L148.2 23.1521C148.575 22.8084 149.072 22.6278 149.58 22.65C150.088 22.6722 150.567 22.8955 150.911 23.2706C151.254 23.6457 151.435 24.142 151.413 24.6503C151.39 25.1586 151.167 25.6372 150.792 25.9809L140.55 35.3814C140.197 35.7041 139.736 35.8821 139.258 35.8799V35.8799ZM149.496 23.3537C149.193 23.353 148.902 23.4667 148.679 23.6719L138.437 33.0724C138.32 33.1797 138.226 33.3091 138.159 33.4531C138.092 33.5971 138.054 33.7529 138.047 33.9115C138.04 34.0702 138.064 34.2287 138.119 34.3779C138.173 34.5271 138.257 34.6641 138.364 34.7811C138.471 34.8981 138.601 34.9929 138.745 35.0599C138.889 35.1269 139.044 35.1649 139.203 35.1717C139.362 35.1785 139.52 35.154 139.669 35.0996C139.819 35.0452 139.956 34.9619 140.073 34.8545L150.315 25.4576C150.491 25.2959 150.615 25.0856 150.671 24.8533C150.728 24.6211 150.714 24.3773 150.633 24.1527C150.551 23.9282 150.404 23.7329 150.211 23.5916C150.018 23.4504 149.788 23.3694 149.549 23.359H149.496V23.3537Z" fill="#262424"/>
<path d="M161.341 25.6757C164.936 22.3756 165.175 16.7857 161.875 13.1905C158.575 9.59533 152.985 9.35616 149.39 12.6563C145.794 15.9565 145.555 21.5463 148.855 25.1415C152.156 28.7367 157.745 28.9759 161.341 25.6757Z" fill="white"/>
<path d="M155.378 28.3625C155.243 28.3625 155.109 28.3625 154.974 28.3625C152.849 28.272 150.821 27.4474 149.236 26.0292C147.65 24.611 146.606 22.6869 146.28 20.5849C145.955 18.4828 146.368 16.3329 147.45 14.5014C148.532 12.6699 150.215 11.2703 152.213 10.5409C154.211 9.81161 156.401 9.79773 158.408 10.5017C160.415 11.2056 162.116 12.5838 163.221 14.4014C164.326 16.219 164.767 18.3636 164.468 20.4696C164.169 22.5756 163.149 24.5127 161.581 25.9509V25.9509C159.891 27.5073 157.675 28.3685 155.378 28.3625V28.3625ZM155.36 10.6825C153.979 10.6821 152.619 11.0187 151.398 11.6629C150.176 12.3072 149.131 13.2398 148.352 14.3797C147.572 15.5196 147.083 16.8324 146.926 18.2043C146.769 19.5761 146.949 20.9655 147.451 22.252C147.953 23.5385 148.761 24.6831 149.805 25.5865C150.849 26.49 152.098 27.125 153.443 27.4365C154.788 27.748 156.189 27.7266 157.524 27.374C158.859 27.0215 160.088 26.3485 161.104 25.4135L161.343 25.6734L161.104 25.4135C162.338 24.2782 163.208 22.8028 163.605 21.1735C164.001 19.5441 163.906 17.8339 163.331 16.2586C162.756 14.6834 161.727 13.3138 160.375 12.3226C159.022 11.3314 157.406 10.7632 155.731 10.6896C155.607 10.6896 155.484 10.6902 155.36 10.6914V10.6825Z" fill="#262424"/>
<path d="M159.704 23.8928C162.314 21.4966 162.488 17.4379 160.092 14.8274C157.696 12.217 153.637 12.0433 151.026 14.4396C148.416 16.8358 148.242 20.8945 150.639 23.5049C153.035 26.1154 157.093 26.2891 159.704 23.8928Z" fill="white"/>
<path d="M155.37 25.9385C153.792 25.9385 152.263 25.387 151.049 24.3794C149.835 23.3717 149.011 21.9713 148.72 20.4204C148.429 18.8695 148.689 17.2656 149.455 15.8862C150.222 14.5068 151.446 13.4387 152.917 12.8666C154.387 12.2945 156.012 12.2544 157.509 12.7533C159.006 13.2521 160.281 14.2585 161.115 15.5984C161.948 16.9383 162.287 18.5274 162.073 20.0908C161.859 21.6542 161.105 23.0936 159.942 24.1599C158.695 25.3058 157.063 25.9407 155.37 25.9385ZM155.361 13.1117C153.763 13.1466 152.243 13.8104 151.132 14.9589C150.021 16.1074 149.407 17.6479 149.424 19.2461C149.442 20.8442 150.089 22.371 151.225 23.495C152.362 24.6189 153.895 25.2493 155.494 25.2493C157.092 25.2493 158.626 24.6189 159.762 23.495C160.898 22.371 161.545 20.8442 161.563 19.2461C161.58 17.6479 160.967 16.1074 159.855 14.9589C158.744 13.8104 157.224 13.1466 155.626 13.1117C155.538 13.1117 155.449 13.1117 155.361 13.1117Z" fill="#262424"/>
<path d="M141.454 25.9049C139.531 27.2133 136.902 30.6255 138.79 32.3475C140.678 34.0696 144.304 30.6697 144.674 28.046C145.043 25.4223 142.984 24.8636 141.454 25.9049Z" fill="white"/>
<path d="M140.005 33.1696C139.466 33.1756 138.946 32.9743 138.551 32.6073C138.28 32.3606 138.069 32.0536 137.938 31.7109C137.806 31.3683 137.756 30.9995 137.793 30.6343C137.931 28.7001 139.9 26.5325 141.255 25.6114C142.188 24.9767 143.297 24.8794 144.083 25.3656C144.54 25.6503 145.27 26.3822 145.029 28.0937C144.757 30.0261 142.888 32.3068 141.032 32.9751C140.703 33.0991 140.356 33.1649 140.005 33.1696V33.1696ZM142.947 25.7634C142.482 25.7764 142.032 25.9272 141.654 26.1966V26.1966C140.222 27.1708 138.608 29.1651 138.5 30.6855C138.47 30.9444 138.502 31.2068 138.594 31.4505C138.686 31.6942 138.836 31.9121 139.03 32.0858C139.478 32.4942 140.07 32.5702 140.79 32.3121C142.404 31.7304 144.09 29.6742 144.326 27.9964C144.464 27.0222 144.244 26.3009 143.707 25.9668C143.478 25.829 143.214 25.7585 142.947 25.7634V25.7634Z" fill="#262424"/>
<path d="M144.274 23.9175C142.665 24.3772 142.96 30.0277 145.48 29.0111C147.349 28.2562 146.839 23.1838 144.274 23.9175Z" fill="white"/>
<path d="M144.903 29.4867C144.544 29.4861 144.197 29.3569 143.925 29.1225C143.006 28.3517 142.751 26.5165 143.041 25.1869C143.229 24.303 143.635 23.7337 144.187 23.5763C145.308 23.2563 146.28 23.8627 146.726 25.1675C147.256 26.7127 146.903 28.8273 145.623 29.3435C145.394 29.4377 145.15 29.4864 144.903 29.4867V29.4867ZM144.373 24.257C144.093 24.3365 143.851 24.7396 143.726 25.3355C143.49 26.4405 143.697 28.0087 144.38 28.5815C144.647 28.806 144.963 28.8379 145.349 28.6823C146.233 28.3287 146.459 26.589 146.056 25.392C145.867 24.844 145.398 23.9653 144.38 24.257H144.373Z" fill="#262424"/>
<path d="M148.006 28.2421C146.955 26.9373 141.865 29.4054 143.782 31.3325C145.202 32.7593 149.678 30.3195 148.006 28.2421Z" fill="white"/>
<path d="M144.984 32.1051C144.719 32.1177 144.454 32.0772 144.204 31.9862C143.955 31.8951 143.726 31.7552 143.531 31.5747C142.923 30.963 142.946 30.3371 143.073 29.934C143.427 28.7884 145.018 27.8389 146.353 27.5844C147.237 27.4076 147.923 27.5667 148.282 28.014C149.012 28.921 148.83 30.0542 147.808 30.9701C147.027 31.6651 146.029 32.0665 144.984 32.1051V32.1051ZM147.017 28.2297C146.839 28.2314 146.662 28.2497 146.487 28.2845C145.378 28.4966 144.012 29.2975 143.75 30.1497C143.648 30.4821 143.74 30.788 144.033 31.0832C144.71 31.7639 146.393 31.2936 147.336 30.4485C147.769 30.0613 148.396 29.2887 147.73 28.4631C147.606 28.3092 147.353 28.2297 147.017 28.2297Z" fill="#262424"/>
<path d="M132.53 78.9536C132.53 80.1549 132.052 81.3071 131.203 82.1565C130.353 83.006 129.201 83.4832 128 83.4832C129.201 83.4832 130.353 83.9604 131.203 84.8099C132.052 85.6594 132.53 86.8115 132.53 88.0128C132.53 86.8115 133.007 85.6594 133.856 84.8099C134.706 83.9604 135.858 83.4832 137.059 83.4832C135.858 83.4832 134.706 83.006 133.856 82.1565C133.007 81.3071 132.53 80.1549 132.53 78.9536Z" fill="#836FFF"/>
<path d="M224.121 98.4175C225.553 98.4175 226.715 97.2563 226.715 95.8239C226.715 94.3914 225.553 93.2302 224.121 93.2302C222.689 93.2302 221.527 94.3914 221.527 95.8239C221.527 97.2563 222.689 98.4175 224.121 98.4175Z" fill="#262424"/>
</svg>
