<?xml version="1.0" encoding="utf-8"?>
<!-- Generator: Adobe Illustrator 25.2.0, SVG Export Plug-In . SVG Version: 6.00 Build 0)  -->
<svg version="1.1" id="Layer_1" xmlns="http://www.w3.org/2000/svg" xmlns:xlink="http://www.w3.org/1999/xlink" x="0px" y="0px"
	 viewBox="0 0 251.5 167.3" style="enable-background:new 0 0 251.5 167.3;" xml:space="preserve">
<style type="text/css">
	.st0{fill:#FFFFFF;}
	.st1{fill:#25A9EE;}
	.st2{fill:#E5E5E5;}
</style>
<g>
	<path class="st0" d="M18.2,3.6h217c5.5,0,10,4.5,10,10v139c0,5.5-4.5,10-10,10h-217c-5.5,0-10-4.5-10-10v-139
		C8.2,8.1,12.7,3.6,18.2,3.6z"/>
</g>
<path d="M20.8,31.6V18.9h2.8v10.4h5.7v2.3H20.8z M35,31.7c-0.9,0-1.8-0.2-2.5-0.6c-0.7-0.4-1.3-0.9-1.6-1.6
	c-0.4-0.7-0.6-1.5-0.6-2.4c0-0.9,0.2-1.8,0.6-2.4c0.4-0.7,0.9-1.2,1.6-1.6c0.7-0.4,1.5-0.6,2.5-0.6c0.9,0,1.8,0.2,2.5,0.6
	c0.7,0.4,1.3,0.9,1.6,1.6c0.4,0.7,0.6,1.5,0.6,2.4c0,0.9-0.2,1.8-0.6,2.4c-0.4,0.7-0.9,1.2-1.6,1.6C36.8,31.6,36,31.7,35,31.7z
	 M35,29.7c1.3,0,2-0.8,2-2.5c0-0.9-0.2-1.5-0.5-1.9c-0.3-0.4-0.8-0.6-1.5-0.6c-1.3,0-2,0.8-2,2.5C33,28.8,33.7,29.7,35,29.7z
	 M47.8,24.8l-1.5,0.2c-0.8,0.1-1.3,0.3-1.6,0.7c-0.3,0.3-0.5,0.8-0.5,1.4v4.6h-2.7v-8.8h2.6v1.5c0.4-1,1.4-1.6,2.8-1.7l0.8,0
	L47.8,24.8z M56.5,27.7h-5.8c0.1,0.7,0.3,1.2,0.7,1.6c0.4,0.3,0.9,0.5,1.6,0.5c0.5,0,0.9-0.1,1.3-0.2c0.5-0.2,0.9-0.4,1.2-0.6
	l0.7,1.8c-0.4,0.3-1,0.6-1.6,0.8c-0.6,0.2-1.2,0.3-1.9,0.3c-1.5,0-2.7-0.4-3.5-1.2c-0.9-0.8-1.3-2-1.3-3.4c0-0.9,0.2-1.7,0.6-2.4
	c0.4-0.7,0.9-1.2,1.5-1.6c0.7-0.4,1.4-0.6,2.2-0.6c1.2,0,2.2,0.4,2.9,1.2c0.7,0.8,1.1,1.9,1.1,3.3V27.7z M52.6,24.4
	c-0.5,0-0.9,0.2-1.2,0.5c-0.3,0.3-0.5,0.8-0.6,1.4h3.5c0-0.6-0.2-1.1-0.5-1.4C53.5,24.6,53.1,24.4,52.6,24.4z M69.2,22.6
	c1,0,1.8,0.3,2.2,0.9c0.5,0.6,0.7,1.6,0.7,2.8v5.3h-2.7v-5.2c0-0.6-0.1-1-0.3-1.3c-0.2-0.3-0.5-0.4-0.9-0.4c-0.5,0-0.9,0.2-1.2,0.5
	c-0.3,0.4-0.4,0.9-0.4,1.5v4.9h-2.7v-5.2c0-0.6-0.1-1-0.3-1.3c-0.2-0.3-0.5-0.4-0.9-0.4c-0.5,0-0.9,0.2-1.2,0.5
	c-0.3,0.4-0.4,0.9-0.4,1.5v4.9h-2.7v-8.8h2.6V24c0.3-0.5,0.6-0.8,1.1-1c0.5-0.2,1-0.4,1.6-0.4c1.3,0,2.2,0.5,2.6,1.6
	c0.3-0.5,0.7-0.9,1.2-1.2C68,22.7,68.5,22.6,69.2,22.6z M79.4,31.6v-8.8h2.7v8.8H79.4z M79.3,18.5h2.9v2.5h-2.9V18.5z M89.8,22.6
	c0.8,0,1.4,0.2,2,0.6c0.6,0.4,1.1,0.9,1.4,1.6c0.3,0.7,0.5,1.5,0.5,2.4c0,0.9-0.2,1.7-0.5,2.4c-0.3,0.7-0.8,1.2-1.4,1.6
	c-0.6,0.4-1.3,0.6-2,0.6c-0.6,0-1.1-0.1-1.6-0.4c-0.5-0.2-0.9-0.6-1.1-1v4.5h-2.7V22.8H87V24c0.3-0.5,0.6-0.8,1.1-1.1
	C88.6,22.7,89.1,22.6,89.8,22.6z M89,29.7c0.6,0,1.1-0.2,1.5-0.6c0.3-0.4,0.5-1,0.5-1.8c0-0.8-0.2-1.4-0.5-1.9
	c-0.3-0.5-0.8-0.7-1.5-0.7c-0.6,0-1.1,0.2-1.5,0.7c-0.3,0.4-0.5,1.1-0.5,1.9c0,0.8,0.2,1.4,0.5,1.9C87.8,29.5,88.3,29.7,89,29.7z
	 M98.8,31.7c-0.8,0-1.6-0.1-2.2-0.3c-0.7-0.2-1.3-0.5-1.7-0.8l0.7-1.9c0.5,0.3,1,0.6,1.6,0.8c0.6,0.2,1.2,0.3,1.7,0.3
	c0.4,0,0.7-0.1,1-0.2c0.2-0.1,0.4-0.3,0.4-0.6c0-0.2-0.1-0.4-0.3-0.5c-0.2-0.1-0.5-0.2-0.9-0.3l-1.4-0.3c-0.9-0.2-1.5-0.5-1.9-0.9
	c-0.4-0.4-0.6-1-0.6-1.7c0-0.6,0.2-1,0.5-1.4c0.3-0.4,0.8-0.8,1.3-1c0.6-0.2,1.3-0.4,2-0.4c0.6,0,1.3,0.1,1.9,0.3
	c0.6,0.2,1.1,0.5,1.6,0.8l-0.7,1.8c-0.9-0.6-1.9-1-2.8-1c-0.4,0-0.8,0.1-1,0.2c-0.2,0.1-0.4,0.3-0.4,0.6c0,0.2,0.1,0.3,0.2,0.5
	c0.1,0.1,0.4,0.2,0.8,0.3l1.5,0.3c0.9,0.2,1.6,0.5,2,0.9c0.4,0.4,0.6,1,0.6,1.7c0,0.8-0.3,1.5-1,2C100.9,31.5,100,31.7,98.8,31.7z
	 M112.8,22.8v8.8h-2.6v-1.3c-0.3,0.5-0.6,0.8-1.1,1c-0.4,0.2-0.9,0.4-1.5,0.4c-1.1,0-2-0.3-2.5-0.9c-0.5-0.6-0.8-1.6-0.8-2.8v-5.3
	h2.7v5.3c0,0.5,0.1,0.9,0.3,1.2c0.2,0.2,0.6,0.4,1,0.4c0.5,0,1-0.2,1.3-0.5c0.3-0.4,0.5-0.8,0.5-1.4v-4.9H112.8z M125.9,22.6
	c1,0,1.8,0.3,2.2,0.9c0.5,0.6,0.7,1.6,0.7,2.8v5.3h-2.7v-5.2c0-0.6-0.1-1-0.3-1.3c-0.2-0.3-0.5-0.4-0.9-0.4c-0.5,0-0.9,0.2-1.2,0.5
	c-0.3,0.4-0.4,0.9-0.4,1.5v4.9h-2.7v-5.2c0-0.6-0.1-1-0.3-1.3c-0.2-0.3-0.5-0.4-0.9-0.4c-0.5,0-0.9,0.2-1.2,0.5
	c-0.3,0.4-0.4,0.9-0.4,1.5v4.9H115v-8.8h2.6V24c0.3-0.5,0.6-0.8,1.1-1c0.5-0.2,1-0.4,1.6-0.4c1.3,0,2.2,0.5,2.6,1.6
	c0.3-0.5,0.7-0.9,1.2-1.2C124.7,22.7,125.2,22.6,125.9,22.6z"/>
<path class="st1" d="M21.4,45.6v-7.1h1v6.2h3.4v0.9H21.4z M28.9,45.7c-0.5,0-0.9-0.1-1.3-0.3c-0.4-0.2-0.6-0.5-0.8-0.9
	c-0.2-0.4-0.3-0.8-0.3-1.3s0.1-1,0.3-1.3c0.2-0.4,0.5-0.7,0.8-0.9c0.4-0.2,0.8-0.3,1.3-0.3c0.5,0,0.9,0.1,1.3,0.3
	c0.4,0.2,0.6,0.5,0.8,0.9c0.2,0.4,0.3,0.8,0.3,1.3s-0.1,0.9-0.3,1.3c-0.2,0.4-0.5,0.7-0.8,0.9C29.8,45.6,29.4,45.7,28.9,45.7z
	 M28.9,44.9c0.4,0,0.8-0.2,1-0.4c0.2-0.3,0.4-0.7,0.4-1.3c0-0.6-0.1-1-0.4-1.3c-0.2-0.3-0.6-0.4-1-0.4s-0.8,0.1-1,0.4
	c-0.2,0.3-0.4,0.7-0.4,1.3c0,0.6,0.1,1,0.3,1.3C28.2,44.7,28.5,44.9,28.9,44.9z M35.5,41.5l-0.6,0.1c-0.5,0-0.8,0.2-1,0.4
	c-0.2,0.2-0.3,0.6-0.3,0.9v2.7h-1v-4.9h1v0.8c0.3-0.6,0.8-0.9,1.6-0.9l0.3,0L35.5,41.5z M40.3,43.3h-3.5c0.1,1,0.6,1.6,1.5,1.6
	c0.6,0,1.1-0.2,1.5-0.6l0.3,0.7c-0.2,0.2-0.5,0.4-0.8,0.5c-0.3,0.1-0.7,0.2-1,0.2c-0.8,0-1.4-0.2-1.8-0.7c-0.4-0.5-0.7-1.1-0.7-1.8
	c0-0.5,0.1-0.9,0.3-1.3c0.2-0.4,0.5-0.7,0.8-0.9c0.4-0.2,0.8-0.3,1.2-0.3c0.7,0,1.2,0.2,1.5,0.6c0.4,0.4,0.6,1,0.6,1.8V43.3z
	 M38.2,41.3c-0.4,0-0.7,0.1-0.9,0.4c-0.2,0.2-0.4,0.6-0.4,1h2.6c0-0.5-0.1-0.8-0.3-1C38.9,41.5,38.6,41.3,38.2,41.3z M47.1,40.6
	c1.1,0,1.6,0.7,1.6,2v3h-1v-3c0-0.4-0.1-0.7-0.2-0.9c-0.1-0.2-0.4-0.3-0.7-0.3c-0.4,0-0.7,0.1-0.9,0.4c-0.2,0.2-0.3,0.6-0.3,1v2.8
	h-1v-3c0-0.4-0.1-0.7-0.2-0.9c-0.1-0.2-0.4-0.3-0.7-0.3c-0.4,0-0.7,0.1-0.9,0.4c-0.2,0.2-0.3,0.6-0.3,1v2.8h-1v-4.9h1v0.7
	c0.2-0.3,0.4-0.5,0.6-0.6s0.6-0.2,0.9-0.2c0.8,0,1.2,0.3,1.5,0.9c0.2-0.3,0.4-0.5,0.7-0.7C46.4,40.7,46.7,40.6,47.1,40.6z
	 M52.8,45.6v-4.9h1v4.9H52.8z M52.8,38.5h1.2v1.1h-1.2V38.5z M57.9,40.6c0.4,0,0.8,0.1,1.1,0.3c0.3,0.2,0.6,0.5,0.8,0.9
	c0.2,0.4,0.3,0.8,0.3,1.3c0,0.5-0.1,0.9-0.3,1.3s-0.4,0.7-0.8,0.9c-0.3,0.2-0.7,0.3-1.1,0.3c-0.4,0-0.7-0.1-1-0.2
	c-0.3-0.2-0.5-0.4-0.6-0.7v2.6h-1v-6.7h1v0.8c0.1-0.3,0.4-0.5,0.6-0.7C57.2,40.7,57.6,40.6,57.9,40.6z M57.7,44.9
	c0.4,0,0.8-0.2,1-0.4c0.2-0.3,0.4-0.7,0.4-1.3c0-0.6-0.1-1-0.4-1.3c-0.2-0.3-0.6-0.5-1-0.5c-0.4,0-0.8,0.1-1,0.4
	c-0.2,0.3-0.4,0.7-0.4,1.3c0,0.5,0.1,1,0.4,1.3C56.9,44.7,57.2,44.9,57.7,44.9z M63,45.7c-0.8,0-1.5-0.2-2-0.6l0.3-0.7
	c0.5,0.4,1.1,0.6,1.8,0.6c0.3,0,0.6-0.1,0.8-0.2c0.2-0.1,0.3-0.3,0.3-0.5c0-0.2-0.1-0.3-0.2-0.4c-0.1-0.1-0.3-0.2-0.6-0.2l-0.8-0.2
	c-0.4-0.1-0.8-0.3-1-0.5c-0.2-0.2-0.3-0.5-0.3-0.9c0-0.4,0.2-0.8,0.5-1.1c0.4-0.3,0.8-0.4,1.4-0.4c0.3,0,0.7,0.1,1,0.2
	c0.3,0.1,0.6,0.3,0.8,0.5l-0.3,0.7c-0.5-0.4-1-0.6-1.5-0.6c-0.3,0-0.5,0.1-0.7,0.2c-0.2,0.1-0.3,0.3-0.3,0.5c0,0.2,0.1,0.3,0.2,0.4
	c0.1,0.1,0.3,0.2,0.5,0.2l0.8,0.2c0.5,0.1,0.8,0.3,1,0.5c0.2,0.2,0.3,0.5,0.3,0.9c0,0.4-0.2,0.8-0.5,1C64.1,45.5,63.6,45.7,63,45.7z
	 M70.4,40.7v4.9h-1v-0.8c-0.2,0.3-0.4,0.5-0.6,0.6c-0.3,0.2-0.6,0.2-0.9,0.2c-1.2,0-1.8-0.6-1.8-2v-3h1v3c0,0.4,0.1,0.7,0.2,0.9
	c0.2,0.2,0.4,0.3,0.7,0.3c0.4,0,0.7-0.1,0.9-0.4c0.2-0.2,0.4-0.6,0.4-1v-2.7H70.4z M77.5,40.6c1.1,0,1.6,0.7,1.6,2v3h-1v-3
	c0-0.4-0.1-0.7-0.2-0.9c-0.1-0.2-0.4-0.3-0.7-0.3c-0.4,0-0.7,0.1-0.9,0.4c-0.2,0.2-0.3,0.6-0.3,1v2.8h-1v-3c0-0.4-0.1-0.7-0.2-0.9
	c-0.1-0.2-0.4-0.3-0.7-0.3c-0.4,0-0.7,0.1-0.9,0.4c-0.2,0.2-0.3,0.6-0.3,1v2.8h-1v-4.9h1v0.7c0.2-0.3,0.4-0.5,0.6-0.6
	s0.6-0.2,0.9-0.2c0.8,0,1.2,0.3,1.5,0.9c0.2-0.3,0.4-0.5,0.7-0.7C76.8,40.7,77.1,40.6,77.5,40.6z"/>
<path class="st2" d="M42.8,143.7c-0.7,0-1.3-0.2-1.8-0.4c-0.5-0.3-0.9-0.7-1.2-1.3c-0.3-0.6-0.4-1.2-0.4-1.9s0.1-1.4,0.4-1.9
	c0.3-0.5,0.7-1,1.2-1.3c0.5-0.3,1.1-0.5,1.8-0.5c0.5,0,0.9,0.1,1.3,0.2c0.4,0.2,0.8,0.4,1.1,0.6l-0.4,0.9c-0.3-0.2-0.6-0.4-1-0.6
	c-0.3-0.1-0.6-0.2-1-0.2c-0.7,0-1.2,0.2-1.6,0.7c-0.4,0.4-0.6,1.1-0.6,1.9c0,0.8,0.2,1.5,0.6,1.9c0.4,0.4,0.9,0.7,1.6,0.7
	c0.4,0,0.7-0.1,1-0.2c0.3-0.1,0.6-0.3,1-0.6l0.4,0.9c-0.3,0.3-0.6,0.5-1.1,0.6C43.7,143.6,43.2,143.7,42.8,143.7z M46.4,136.6h3.1
	c0.8,0,1.3,0.2,1.8,0.6c0.4,0.4,0.6,0.9,0.6,1.6c0,0.7-0.2,1.2-0.6,1.6c-0.4,0.4-1,0.6-1.8,0.6h-1.8v2.7h-1.3V136.6z M49.3,139.9
	c0.9,0,1.3-0.4,1.3-1.2c0-0.4-0.1-0.7-0.3-0.9c-0.2-0.2-0.6-0.3-1-0.3h-1.6v2.3H49.3z M56,143.7c-1,0-1.7-0.2-2.2-0.8
	s-0.8-1.2-0.8-2.2v-4.2h1.3v4.3c0,0.6,0.1,1.1,0.4,1.4c0.3,0.3,0.7,0.5,1.3,0.5c0.5,0,1-0.2,1.2-0.5c0.3-0.3,0.4-0.8,0.4-1.4v-4.3
	h1.3v4.2c0,0.9-0.2,1.7-0.8,2.2C57.6,143.4,56.9,143.7,56,143.7z"/>
<path class="st2" d="M75.5,143.6h-1.4l-1.2-2.2c-0.1-0.2-0.3-0.4-0.4-0.4c-0.2-0.1-0.4-0.1-0.6-0.1h-1v2.8h-1.3v-7.1h3.1
	c0.8,0,1.4,0.2,1.8,0.5c0.4,0.3,0.6,0.9,0.6,1.5c0,0.5-0.2,1-0.5,1.3c-0.3,0.3-0.7,0.6-1.3,0.7c0.4,0.1,0.7,0.4,0.9,0.8L75.5,143.6z
	 M72.5,139.8c0.5,0,0.8-0.1,1.1-0.3c0.2-0.2,0.3-0.5,0.3-0.8c0-0.4-0.1-0.7-0.3-0.8c-0.2-0.2-0.6-0.3-1.1-0.3h-1.7v2.2H72.5z
	 M81.9,143.6l-0.7-1.7h-3.4l-0.7,1.7h-1.3l3.2-7.1H80l3.2,7.1H81.9z M78.2,141h2.6l-1.3-3L78.2,141z M89.8,136.6h1v7.1h-1.1v-4.7
	l-1.9,3.5H87l-1.9-3.5l0,4.6H84v-7.1h1l2.4,4.6L89.8,136.6z"/>
<path class="st2" d="M109.2,136.6h1.3v7.1h-1.3v-3.1h-3.6v3.1h-1.3v-7.1h1.3v3h3.6V136.6z M112.1,136.6h2.6c1.2,0,2,0.3,2.7,0.9
	c0.6,0.6,1,1.5,1,2.6s-0.3,2-1,2.6c-0.6,0.6-1.5,0.9-2.7,0.9h-2.6V136.6z M114.6,142.6c1.6,0,2.4-0.8,2.4-2.5s-0.8-2.5-2.4-2.5h-1.2
	v4.9H114.6z"/>
<path class="st2" d="M137.9,136.6h1.2v7.1h-1l-3.8-4.9v4.9h-1.2v-7.1h1l3.8,4.9V136.6z M140.7,143.6v-7.1h4.7v1H142v1.9h3.3v1H142
	v2.1h3.5v1H140.7z M148.3,143.6v-6H146v-1.1h5.9v1.1h-2.3v6H148.3z"/>
<path class="st2" d="M168.2,139.8v3.4c-0.3,0.2-0.7,0.3-1.2,0.4c-0.5,0.1-0.9,0.1-1.4,0.1c-0.7,0-1.4-0.1-1.9-0.4
	c-0.5-0.3-0.9-0.7-1.2-1.2c-0.3-0.6-0.4-1.2-0.4-1.9c0-0.7,0.1-1.4,0.4-1.9c0.3-0.6,0.7-1,1.2-1.2c0.5-0.3,1.1-0.4,1.9-0.4
	c0.5,0,1,0.1,1.4,0.2c0.4,0.1,0.8,0.3,1.1,0.6l-0.4,0.9c-0.3-0.2-0.7-0.4-1-0.5c-0.3-0.1-0.7-0.2-1-0.2c-0.7,0-1.3,0.2-1.6,0.7
	c-0.4,0.4-0.6,1.1-0.6,1.9c0,1.7,0.8,2.6,2.3,2.6c0.5,0,0.9-0.1,1.4-0.2v-1.8h-1.5v-0.9H168.2z M169.7,136.6h3.1
	c0.8,0,1.3,0.2,1.8,0.6c0.4,0.4,0.6,0.9,0.6,1.6c0,0.7-0.2,1.2-0.6,1.6c-0.4,0.4-1,0.6-1.8,0.6H171v2.7h-1.3V136.6z M172.6,139.9
	c0.9,0,1.3-0.4,1.3-1.2c0-0.4-0.1-0.7-0.3-0.9c-0.2-0.2-0.6-0.3-1-0.3H171v2.3H172.6z M179.2,143.7c-1,0-1.7-0.2-2.2-0.8
	s-0.8-1.2-0.8-2.2v-4.2h1.3v4.3c0,0.6,0.1,1.1,0.4,1.4c0.3,0.3,0.7,0.5,1.3,0.5c0.5,0,1-0.2,1.2-0.5c0.3-0.3,0.4-0.8,0.4-1.4v-4.3
	h1.3v4.2c0,0.9-0.2,1.7-0.8,2.2C180.9,143.4,180.2,143.7,179.2,143.7z"/>
<path class="st2" d="M199.2,139.8v3.4c-0.3,0.2-0.7,0.3-1.2,0.4c-0.5,0.1-0.9,0.1-1.4,0.1c-0.7,0-1.4-0.1-1.9-0.4
	c-0.5-0.3-0.9-0.7-1.2-1.2c-0.3-0.6-0.4-1.2-0.4-1.9c0-0.7,0.1-1.4,0.4-1.9c0.3-0.6,0.7-1,1.2-1.2c0.5-0.3,1.1-0.4,1.9-0.4
	c0.5,0,1,0.1,1.4,0.2c0.4,0.1,0.8,0.3,1.1,0.6l-0.4,0.9c-0.3-0.2-0.7-0.4-1-0.5c-0.3-0.1-0.7-0.2-1-0.2c-0.7,0-1.3,0.2-1.6,0.7
	c-0.4,0.4-0.6,1.1-0.6,1.9c0,1.7,0.8,2.6,2.3,2.6c0.5,0,0.9-0.1,1.4-0.2v-1.8h-1.5v-0.9H199.2z M200.7,136.6h3.1
	c0.8,0,1.3,0.2,1.8,0.6c0.4,0.4,0.6,0.9,0.6,1.6c0,0.7-0.2,1.2-0.6,1.6c-0.4,0.4-1,0.6-1.8,0.6H202v2.7h-1.3V136.6z M203.6,139.9
	c0.9,0,1.3-0.4,1.3-1.2c0-0.4-0.1-0.7-0.3-0.9c-0.2-0.2-0.6-0.3-1-0.3H202v2.3H203.6z M210.2,143.7c-1,0-1.7-0.2-2.2-0.8
	s-0.8-1.2-0.8-2.2v-4.2h1.3v4.3c0,0.6,0.1,1.1,0.4,1.4c0.3,0.3,0.7,0.5,1.3,0.5c0.5,0,1-0.2,1.2-0.5c0.3-0.3,0.4-0.8,0.4-1.4v-4.3
	h1.3v4.2c0,0.9-0.2,1.7-0.8,2.2C211.9,143.4,211.2,143.7,210.2,143.7z"/>
<path class="st1" d="M46.2,85.6h6c1.1,0,2,0.9,2,2v41c0,1.1-0.9,2-2,2h-6c-1.1,0-2-0.9-2-2v-41C44.2,86.5,45.1,85.6,46.2,85.6z"/>
<path class="st1" d="M77.2,60.6h6c1.1,0,2,0.9,2,2v66c0,1.1-0.9,2-2,2h-6c-1.1,0-2-0.9-2-2v-66C75.2,61.5,76.1,60.6,77.2,60.6z"/>
<path class="st1" d="M108.2,80.6h6c1.1,0,2,0.9,2,2v46c0,1.1-0.9,2-2,2h-6c-1.1,0-2-0.9-2-2v-46C106.2,81.5,107.1,80.6,108.2,80.6z"
	/>
<path class="st1" d="M170.2,113.6h6c1.1,0,2,0.9,2,2v13c0,1.1-0.9,2-2,2h-6c-1.1,0-2-0.9-2-2v-13
	C168.2,114.5,169.1,113.6,170.2,113.6z"/>
<path class="st1" d="M139.2,102.6h6c1.1,0,2,0.9,2,2v24c0,1.1-0.9,2-2,2h-6c-1.1,0-2-0.9-2-2v-24
	C137.2,103.5,138.1,102.6,139.2,102.6z"/>
<path class="st1" d="M200.2,70.6h6c1.1,0,2,0.9,2,2v56c0,1.1-0.9,2-2,2h-6c-1.1,0-2-0.9-2-2v-56C198.2,71.5,199.1,70.6,200.2,70.6z"
	/>
</svg>
