<svg width="230" height="183" viewBox="0 0 230 183" fill="none" xmlns="http://www.w3.org/2000/svg">
<rect x="0.75" y="0.75" width="228.5" height="181.5" rx="14.25" fill="#222222" stroke="#343434" stroke-width="1.5"/>
<rect x="19" y="18" width="40" height="40" rx="5" fill="url(#paint0_linear)"/>
<path d="M39.1519 25C39.4275 25.1482 39.5185 25.3757 39.5185 25.6889C39.5042 26.8484 39.5185 28.0066 39.5185 29.1855H42.395C42.395 29.1127 42.4067 29.0334 42.4067 28.9529C42.4067 28.4706 42.4067 27.9884 42.4067 27.5061C42.4067 27.1162 42.6095 26.8809 42.9267 26.8861C43.2439 26.8913 43.418 27.1318 43.418 27.5191C43.418 28.069 43.418 28.6175 43.418 29.2089C43.808 29.2089 44.1862 29.2089 44.5632 29.2089C45.2782 29.1925 45.9765 29.426 46.5377 29.8693C46.9158 30.151 47.2246 30.5153 47.4404 30.9346C47.6562 31.3538 47.7734 31.8168 47.7829 32.2883C47.7972 32.7094 47.7829 33.1306 47.7829 33.5816H49.2804C49.3818 33.5816 49.4844 33.5816 49.5858 33.5816C49.7226 33.5799 49.8546 33.6321 49.9532 33.727C50.0517 33.8219 50.1089 33.9518 50.1123 34.0886C50.1119 34.1562 50.0982 34.2231 50.0718 34.2854C50.0454 34.3477 50.0069 34.4041 49.9585 34.4514C49.9102 34.4986 49.8529 34.5358 49.79 34.5608C49.7272 34.5858 49.66 34.598 49.5923 34.5968C49.0932 34.6046 48.594 34.5968 48.0949 34.5968H47.8089V37.4903H48.091C49.2002 37.4903 50.309 37.4903 51.4173 37.4903C51.7761 37.4903 52.0101 37.7061 51.9997 38.0102C51.9893 38.3144 51.7618 38.5042 51.4095 38.5042C50.3099 38.5042 49.2102 38.5042 48.1105 38.5042H47.8115V41.3808C47.8869 41.3808 47.9675 41.3912 48.0481 41.3925C48.5473 41.3925 49.0464 41.3925 49.5455 41.3925C49.8848 41.3925 50.1188 41.6121 50.1123 41.9124C50.1099 41.9824 50.0933 42.0512 50.0636 42.1147C50.0339 42.1782 49.9917 42.235 49.9395 42.2817C49.8873 42.3285 49.8262 42.3642 49.7598 42.3867C49.6934 42.4093 49.6232 42.4181 49.5533 42.4128C48.9866 42.4206 48.4199 42.4193 47.8531 42.4232C47.8323 42.4286 47.8118 42.4355 47.792 42.444C47.792 42.834 47.792 43.2356 47.792 43.6386C47.7921 44.0888 47.694 44.5336 47.5046 44.9419C47.3151 45.3503 47.0388 45.7124 46.695 46.003C46.1493 46.4951 45.4435 46.7723 44.7088 46.7829C44.311 46.7907 43.9146 46.7829 43.4882 46.7829C43.4882 46.8895 43.4752 46.9779 43.4752 47.0676C43.4752 47.5577 43.4752 48.049 43.4752 48.5403C43.4752 48.8822 43.2556 49.1123 42.9553 49.1045C42.8851 49.1021 42.8162 49.0855 42.7526 49.0557C42.6891 49.0259 42.6322 48.9836 42.5854 48.9312C42.5387 48.8789 42.503 48.8176 42.4805 48.7511C42.4581 48.6846 42.4494 48.6142 42.4548 48.5442C42.4548 47.9775 42.447 47.4108 42.4444 46.844C42.4412 46.8299 42.4359 46.8164 42.4288 46.8037H39.5783C39.5783 46.8934 39.5666 46.9831 39.5666 47.0715C39.5666 48.1556 39.5666 49.2388 39.5666 50.3211C39.5724 50.4308 39.5623 50.5407 39.5367 50.6474C39.5014 50.7639 39.425 50.8636 39.3217 50.9279C39.2184 50.9922 39.0952 51.0168 38.9751 50.9971C38.8485 50.9746 38.7346 50.9059 38.6556 50.8043C38.5766 50.7028 38.5381 50.5755 38.5475 50.4472C38.5475 49.5256 38.5475 48.6027 38.5475 47.6811V46.8128H35.6592V47.2028C35.6592 47.6421 35.6592 48.0828 35.6592 48.5221C35.6592 48.8887 35.4525 49.1214 35.1393 49.1162C34.826 49.111 34.6349 48.8731 34.6336 48.5091C34.6336 47.9502 34.6336 47.3926 34.6336 46.7972C34.232 46.7972 33.8459 46.7972 33.4638 46.7972C32.8245 46.816 32.1954 46.6342 31.6648 46.2773C30.7549 45.6664 30.257 44.8124 30.2115 43.7127C30.1933 43.2915 30.2115 42.8704 30.2115 42.4128H29.1521C28.8922 42.4128 28.6439 42.4206 28.3904 42.4128C28.2581 42.4089 28.1323 42.3547 28.0386 42.2612C27.9449 42.1678 27.8903 42.0421 27.8861 41.9098C27.8859 41.8419 27.8993 41.7747 27.9255 41.7122C27.9517 41.6496 27.9901 41.5929 28.0386 41.5454C28.0871 41.4979 28.1445 41.4606 28.2076 41.4356C28.2707 41.4107 28.3382 41.3987 28.406 41.4002C28.9052 41.4002 29.4043 41.4002 29.9035 41.4002H30.1907V38.5094H29.9126C28.8389 38.5094 27.7639 38.5003 26.6889 38.5094C26.3757 38.5094 26.1482 38.4223 26 38.1467V37.8465C26.1469 37.5683 26.3744 37.4786 26.6876 37.4786C27.7626 37.4942 28.8376 37.4786 29.9126 37.4786H30.1907V34.6007H28.5841C28.1305 34.6007 27.8835 34.42 27.8861 34.0808C27.8887 33.7415 28.1357 33.579 28.5919 33.579H30.2076C30.2076 33.1358 30.1959 32.7224 30.2076 32.3104C30.2466 31.1886 30.7523 30.3229 31.6817 29.7107C32.208 29.3628 32.8292 29.1866 33.4599 29.2063C33.829 29.2063 34.1969 29.2063 34.579 29.2063V28.8879C34.579 28.3978 34.579 27.9065 34.579 27.4164C34.5749 27.3477 34.5847 27.2788 34.6079 27.214C34.6311 27.1492 34.6673 27.0898 34.7142 27.0394C34.7611 26.989 34.8177 26.9486 34.8807 26.9208C34.9437 26.8929 35.0116 26.8781 35.0805 26.8774C35.1493 26.8766 35.2176 26.8898 35.2812 26.9162C35.3448 26.9426 35.4024 26.9816 35.4504 27.0309C35.4984 27.0802 35.536 27.1388 35.5607 27.2031C35.5854 27.2673 35.5968 27.3359 35.5942 27.4047C35.5942 27.5061 35.5942 27.6088 35.5942 27.7102V29.1842H38.489C38.489 28.0053 38.4981 26.8445 38.489 25.6876C38.489 25.3757 38.5748 25.1469 38.8517 25H39.1519ZM31.2228 37.9985C31.2228 39.8261 31.2228 41.6537 31.2228 43.4813C31.2228 44.8553 32.1405 45.7756 33.5119 45.7769C37.167 45.7769 40.8222 45.7769 44.4774 45.7769C45.8488 45.7769 46.7652 44.854 46.7665 43.48C46.7665 39.8326 46.7665 36.1857 46.7665 32.5391C46.7665 31.1483 45.8566 30.2332 44.4631 30.2319H33.5275C32.1392 30.2319 31.228 31.1496 31.2267 32.5404C31.2258 34.3594 31.2258 36.1787 31.2267 37.9985H31.2228Z" fill="white"/>
<path d="M34.2759 37.9739C34.2759 37.0597 34.2759 36.1459 34.2759 35.2325C34.2759 34.0834 35.074 33.2827 36.2166 33.2827C38.0702 33.2827 39.9229 33.2827 41.7748 33.2827C42.92 33.2827 43.7246 34.0873 43.7246 35.2325C43.7246 37.0861 43.7246 38.9388 43.7246 40.7907C43.7246 41.9189 42.9174 42.7222 41.7904 42.73C41.6123 42.73 41.4342 42.7365 41.2574 42.73C41.1275 42.722 41.0057 42.6643 40.9172 42.5689C40.8286 42.4735 40.7802 42.3477 40.7819 42.2176C40.7835 42.0874 40.8352 41.9629 40.9261 41.8698C41.0171 41.7767 41.1404 41.7222 41.2704 41.7175C41.4563 41.7097 41.6435 41.7175 41.8294 41.7175C41.9442 41.7205 42.0585 41.7002 42.1654 41.6578C42.2722 41.6155 42.3693 41.552 42.4509 41.4711C42.5325 41.3902 42.5969 41.2936 42.6402 41.1872C42.6835 41.0807 42.7049 40.9666 42.7029 40.8518C42.7098 38.9574 42.7098 37.0627 42.7029 35.1675C42.7056 35.0545 42.6853 34.942 42.6432 34.8371C42.6012 34.7321 42.5383 34.6367 42.4583 34.5568C42.3784 34.4768 42.283 34.4139 42.178 34.3719C42.073 34.3298 41.9606 34.3095 41.8476 34.3122C39.9524 34.3061 38.0576 34.3061 36.1633 34.3122C36.0482 34.3089 35.9337 34.3293 35.8269 34.3721C35.72 34.4148 35.623 34.4791 35.542 34.5609C35.461 34.6426 35.3976 34.7402 35.3558 34.8474C35.3139 34.9547 35.2946 35.0694 35.2989 35.1844C35.2989 37.0718 35.2989 38.9583 35.2989 40.844C35.2959 40.9588 35.3162 41.0731 35.3585 41.1799C35.4009 41.2868 35.4644 41.3839 35.5453 41.4655C35.6262 41.5471 35.7228 41.6115 35.8292 41.6548C35.9356 41.6981 36.0497 41.7194 36.1646 41.7175C36.3674 41.724 36.5715 41.7097 36.7729 41.724C36.8924 41.7324 37.0046 41.7842 37.0884 41.8697C37.1722 41.9552 37.2218 42.0684 37.2279 42.188C37.2448 42.4415 37.0979 42.6924 36.8509 42.7157C36.2322 42.7742 35.6135 42.7898 35.0727 42.3934C34.827 42.2255 34.6263 41.9998 34.488 41.7363C34.3498 41.4727 34.2783 41.1793 34.2798 40.8817C34.2694 39.9029 34.2759 38.9384 34.2759 37.9739Z" fill="white"/>
<path d="M44.4813 32.0035C44.5489 32.0014 44.6162 32.0131 44.6791 32.0378C44.742 32.0625 44.7992 32.0998 44.8473 32.1473C44.8953 32.1949 44.9331 32.2517 44.9585 32.3144C44.9839 32.377 44.9962 32.4442 44.9948 32.5118C44.9892 32.6427 44.9336 32.7666 44.8393 32.8576C44.745 32.9487 44.6193 33 44.4883 33.0011C44.3572 33.0021 44.2308 32.9526 44.1351 32.863C44.0394 32.7734 43.9819 32.6504 43.9744 32.5196C43.9723 32.452 43.9839 32.3847 44.0085 32.3218C44.0331 32.2588 44.0702 32.2015 44.1176 32.1532C44.1649 32.105 44.2216 32.0669 44.2841 32.0412C44.3466 32.0154 44.4137 32.0026 44.4813 32.0035V32.0035Z" fill="white"/>
<path d="M33.5195 32.0036C33.5871 32.0033 33.6541 32.0168 33.7164 32.043C33.7787 32.0693 33.8351 32.1078 33.8822 32.1564C33.9293 32.2049 33.9661 32.2624 33.9904 32.3255C34.0148 32.3886 34.0261 32.4559 34.0239 32.5235C34.0156 32.6545 33.9572 32.7772 33.8608 32.8663C33.7644 32.9554 33.6375 33.0039 33.5062 33.0019C33.375 32.9999 33.2496 32.9475 33.156 32.8555C33.0624 32.7635 33.0078 32.6391 33.0035 32.5079C33.0024 32.4404 33.015 32.3733 33.0407 32.3109C33.0664 32.2484 33.1046 32.1918 33.1529 32.1446C33.2012 32.0974 33.2586 32.0605 33.3217 32.0363C33.3847 32.012 33.452 32.0009 33.5195 32.0036V32.0036Z" fill="white"/>
<path d="M39.5184 42.2022C39.5208 42.2701 39.5095 42.3377 39.4851 42.4011C39.4606 42.4644 39.4236 42.5221 39.3762 42.5707C39.3288 42.6193 39.272 42.6578 39.2093 42.6839C39.1466 42.7099 39.0793 42.7229 39.0114 42.7222C38.9447 42.7236 38.8783 42.7118 38.8161 42.6875C38.754 42.6632 38.6972 42.6269 38.649 42.5807C38.6008 42.5344 38.5623 42.4792 38.5354 42.418C38.5086 42.3569 38.4941 42.2911 38.4928 42.2243C38.4914 42.1576 38.5032 42.0912 38.5275 42.0291C38.5518 41.9669 38.5881 41.9101 38.6343 41.8619C38.6805 41.8138 38.7358 41.7752 38.7969 41.7484C38.8581 41.7216 38.9239 41.7071 38.9906 41.7057C39.0583 41.702 39.126 41.7121 39.1896 41.7353C39.2533 41.7586 39.3115 41.7945 39.3609 41.8409C39.4102 41.8874 39.4496 41.9433 39.4767 42.0054C39.5038 42.0675 39.5179 42.1345 39.5184 42.2022V42.2022Z" fill="white"/>
<path d="M33.5081 43.9948C33.4406 43.9971 33.3734 43.9856 33.3105 43.9609C33.2476 43.9362 33.1905 43.8989 33.1426 43.8513C33.0948 43.8036 33.0572 43.7467 33.0322 43.684C33.0072 43.6212 32.9953 43.554 32.9973 43.4865C32.9959 43.3541 33.0469 43.2265 33.1392 43.1316C33.2315 43.0366 33.3575 42.982 33.4899 42.9796C33.6261 42.9771 33.7578 43.0281 33.8567 43.1217C33.9556 43.2153 34.0139 43.3439 34.019 43.48C34.0202 43.5476 34.0078 43.6148 33.9826 43.6775C33.9575 43.7403 33.9199 43.7973 33.8723 43.8453C33.8247 43.8933 33.7679 43.9313 33.7054 43.9569C33.6428 43.9826 33.5757 43.9955 33.5081 43.9948V43.9948Z" fill="white"/>
<path d="M45.0002 43.4982C45.0005 43.5654 44.987 43.6321 44.9607 43.694C44.9343 43.7559 44.8957 43.8118 44.847 43.8582C44.7984 43.9047 44.7407 43.9408 44.6777 43.9642C44.6146 43.9877 44.5475 43.9981 44.4803 43.9947C44.3483 43.9923 44.2224 43.9386 44.1295 43.8449C44.0365 43.7512 43.9838 43.6249 43.9824 43.493C43.9824 43.3551 44.0372 43.2228 44.1347 43.1253C44.2322 43.0278 44.3645 42.973 44.5024 42.973C44.57 42.9733 44.6369 42.9873 44.6989 43.0141C44.761 43.0409 44.817 43.0801 44.8636 43.1292C44.9101 43.1782 44.9462 43.2362 44.9697 43.2997C44.9932 43.3631 45.0035 43.4306 45.0002 43.4982V43.4982Z" fill="white"/>
<path d="M75.1282 42.162C73.8802 42.162 72.7882 41.898 71.8522 41.37C70.9282 40.83 70.2142 40.068 69.7102 39.084C69.2182 38.0999 68.9722 36.9539 68.9722 35.6459C68.9722 34.3379 69.2182 33.1979 69.7102 32.2259C70.2142 31.2419 70.9282 30.4859 71.8522 29.9579C72.7882 29.4179 73.8802 29.1479 75.1282 29.1479C75.9802 29.1479 76.7842 29.2799 77.5402 29.5439C78.2962 29.8079 78.9322 30.1799 79.4482 30.6599L78.6742 32.3519C78.0982 31.8959 77.5282 31.5659 76.9642 31.3619C76.4002 31.1459 75.8002 31.0379 75.1642 31.0379C73.9402 31.0379 72.9922 31.4339 72.3202 32.2259C71.6602 33.0179 71.3302 34.1579 71.3302 35.6459C71.3302 37.1459 71.6602 38.2919 72.3202 39.084C72.9922 39.876 73.9402 40.2719 75.1642 40.2719C75.8002 40.2719 76.4002 40.17 76.9642 39.966C77.5282 39.7499 78.0982 39.414 78.6742 38.958L79.4482 40.65C78.9322 41.13 78.2962 41.502 77.5402 41.766C76.7842 42.03 75.9802 42.162 75.1282 42.162Z" fill="#5C5C5C"/>
<path d="M82.1074 29.3099H87.6514C89.0074 29.3099 90.0634 29.6519 90.8194 30.3359C91.5754 31.0079 91.9534 31.956 91.9534 33.18C91.9534 34.404 91.5754 35.3579 90.8194 36.0419C90.0634 36.7259 89.0074 37.0679 87.6514 37.0679H84.4294V42H82.1074V29.3099ZM87.3634 35.2859C88.9594 35.2859 89.7574 34.5899 89.7574 33.1979C89.7574 32.4899 89.5594 31.9679 89.1634 31.6319C88.7674 31.2839 88.1674 31.1099 87.3634 31.1099H84.4294V35.2859H87.3634Z" fill="#5C5C5C"/>
<path d="M99.7682 42.162C98.0282 42.162 96.7082 41.712 95.8082 40.812C94.9082 39.912 94.4582 38.598 94.4582 36.8699V29.3099H96.7262V36.9959C96.7262 38.0879 96.9842 38.9159 97.5002 39.4799C98.0162 40.0319 98.7722 40.308 99.7682 40.308C100.752 40.308 101.502 40.026 102.018 39.462C102.534 38.898 102.792 38.0759 102.792 36.9959V29.3099H105.06V36.8699C105.06 38.586 104.61 39.9 103.71 40.812C102.81 41.712 101.496 42.162 99.7682 42.162Z" fill="#5C5C5C"/>
<path d="M20.2178 164V154.13H26.4618V155.082H21.3518V158.512H26.1818V159.464H21.3518V163.048H26.4618V164H20.2178Z" fill="#5C5C5C"/>
<path d="M32.1462 160.486L34.9742 164H33.6022L31.4742 161.34L29.3602 164H27.9742L30.8022 160.486L28.1422 157.182H29.5142L31.4742 159.66L33.4342 157.182H34.8202L32.1462 160.486Z" fill="#5C5C5C"/>
<path d="M39.5916 164.098C38.9196 164.098 38.3363 163.953 37.8416 163.664C37.3469 163.375 36.9643 162.969 36.6936 162.446C36.4323 161.914 36.3016 161.293 36.3016 160.584C36.3016 159.875 36.4369 159.254 36.7076 158.722C36.9876 158.181 37.3749 157.761 37.8696 157.462C38.3736 157.163 38.9616 157.014 39.6336 157.014C40.0909 157.014 40.5389 157.098 40.9776 157.266C41.4163 157.425 41.7709 157.639 42.0416 157.91L41.6636 158.75C41.0196 158.227 40.3663 157.966 39.7036 157.966C39.0036 157.966 38.4576 158.195 38.0656 158.652C37.6736 159.109 37.4776 159.753 37.4776 160.584C37.4776 161.405 37.6736 162.04 38.0656 162.488C38.4576 162.936 39.0036 163.16 39.7036 163.16C40.3663 163.16 41.0196 162.899 41.6636 162.376L42.0416 163.216C41.7523 163.487 41.3883 163.701 40.9496 163.86C40.5109 164.019 40.0583 164.098 39.5916 164.098Z" fill="#5C5C5C"/>
<path d="M49.8188 160.766H44.8348C44.8721 161.559 45.0868 162.161 45.4788 162.572C45.8708 162.973 46.4261 163.174 47.1448 163.174C47.9381 163.174 48.6661 162.903 49.3288 162.362L49.7068 163.188C49.4081 163.468 49.0255 163.692 48.5588 163.86C48.0921 164.019 47.6161 164.098 47.1308 164.098C46.0668 164.098 45.2268 163.785 44.6108 163.16C44.0041 162.535 43.7008 161.671 43.7008 160.57C43.7008 159.87 43.8361 159.254 44.1068 158.722C44.3775 158.181 44.7555 157.761 45.2408 157.462C45.7355 157.163 46.2955 157.014 46.9208 157.014C47.8261 157.014 48.5355 157.313 49.0488 157.91C49.5621 158.498 49.8188 159.31 49.8188 160.346V160.766ZM46.9348 157.896C46.3375 157.896 45.8568 158.083 45.4928 158.456C45.1381 158.829 44.9281 159.357 44.8628 160.038H48.8248C48.8061 159.347 48.6335 158.82 48.3068 158.456C47.9801 158.083 47.5228 157.896 46.9348 157.896Z" fill="#5C5C5C"/>
<path d="M52.1896 164V154.13H53.3236V164H52.1896Z" fill="#5C5C5C"/>
<path d="M61.8555 160.766H56.8715C56.9089 161.559 57.1235 162.161 57.5155 162.572C57.9075 162.973 58.4629 163.174 59.1815 163.174C59.9749 163.174 60.7029 162.903 61.3655 162.362L61.7435 163.188C61.4449 163.468 61.0622 163.692 60.5955 163.86C60.1289 164.019 59.6529 164.098 59.1675 164.098C58.1035 164.098 57.2635 163.785 56.6475 163.16C56.0409 162.535 55.7375 161.671 55.7375 160.57C55.7375 159.87 55.8729 159.254 56.1435 158.722C56.4142 158.181 56.7922 157.761 57.2775 157.462C57.7722 157.163 58.3322 157.014 58.9575 157.014C59.8629 157.014 60.5722 157.313 61.0855 157.91C61.5989 158.498 61.8555 159.31 61.8555 160.346V160.766ZM58.9715 157.896C58.3742 157.896 57.8935 158.083 57.5295 158.456C57.1749 158.829 56.9649 159.357 56.8995 160.038H60.8615C60.8429 159.347 60.6702 158.82 60.3435 158.456C60.0169 158.083 59.5595 157.896 58.9715 157.896Z" fill="#5C5C5C"/>
<path d="M67.6563 157.014C69.2897 157.014 70.1063 157.915 70.1063 159.716V164H68.9723V159.786C68.9723 159.151 68.8463 158.689 68.5943 158.4C68.3517 158.111 67.9597 157.966 67.4183 157.966C66.793 157.966 66.2937 158.157 65.9203 158.54C65.547 158.923 65.3603 159.441 65.3603 160.094V164H64.2263V157.182H65.3463V158.302C65.5703 157.882 65.883 157.565 66.2843 157.35C66.6857 157.126 67.143 157.014 67.6563 157.014Z" fill="#5C5C5C"/>
<path d="M75.8794 163.188C76.0847 163.188 76.29 163.174 76.4954 163.146L76.4394 164.042C76.2247 164.079 75.9914 164.098 75.7394 164.098C74.918 164.098 74.2974 163.883 73.8774 163.454C73.4667 163.025 73.2614 162.427 73.2614 161.662V158.078H71.9314V157.182H73.2614V155.11H74.3954V157.182H76.3274V158.078H74.3954V161.578C74.3954 162.651 74.89 163.188 75.8794 163.188Z" fill="#5C5C5C"/>
<path d="M84.0532 160.766H79.0692C79.1065 161.559 79.3212 162.161 79.7132 162.572C80.1052 162.973 80.6605 163.174 81.3792 163.174C82.1725 163.174 82.9005 162.903 83.5632 162.362L83.9412 163.188C83.6425 163.468 83.2598 163.692 82.7932 163.86C82.3265 164.019 81.8505 164.098 81.3652 164.098C80.3012 164.098 79.4612 163.785 78.8452 163.16C78.2385 162.535 77.9352 161.671 77.9352 160.57C77.9352 159.87 78.0705 159.254 78.3412 158.722C78.6118 158.181 78.9898 157.761 79.4752 157.462C79.9698 157.163 80.5298 157.014 81.1552 157.014C82.0605 157.014 82.7698 157.313 83.2832 157.91C83.7965 158.498 84.0532 159.31 84.0532 160.346V160.766ZM81.1692 157.896C80.5718 157.896 80.0912 158.083 79.7272 158.456C79.3725 158.829 79.1625 159.357 79.0972 160.038H83.0592C83.0405 159.347 82.8678 158.82 82.5412 158.456C82.2145 158.083 81.7572 157.896 81.1692 157.896Z" fill="#5C5C5C"/>
<path d="M94.1634 157.014C94.7607 157.014 95.288 157.163 95.7454 157.462C96.2027 157.761 96.5574 158.181 96.8094 158.722C97.0614 159.254 97.1874 159.875 97.1874 160.584C97.1874 161.293 97.0614 161.914 96.8094 162.446C96.5574 162.969 96.2027 163.375 95.7454 163.664C95.2974 163.953 94.77 164.098 94.1634 164.098C93.6314 164.098 93.1647 163.981 92.7634 163.748C92.3714 163.515 92.0727 163.183 91.8674 162.754V166.52H90.7334V157.182H91.8674V158.358C92.0727 157.929 92.3714 157.597 92.7634 157.364C93.1647 157.131 93.6314 157.014 94.1634 157.014ZM93.9394 163.16C94.602 163.16 95.1154 162.936 95.4794 162.488C95.8434 162.04 96.0254 161.405 96.0254 160.584C96.0254 159.763 95.8434 159.123 95.4794 158.666C95.1154 158.199 94.602 157.966 93.9394 157.966C93.2767 157.966 92.7634 158.19 92.3994 158.638C92.0447 159.086 91.8674 159.725 91.8674 160.556C91.8674 161.387 92.0447 162.031 92.3994 162.488C92.7634 162.936 93.2767 163.16 93.9394 163.16Z" fill="#5C5C5C"/>
<path d="M105.294 160.766H100.31C100.347 161.559 100.562 162.161 100.954 162.572C101.346 162.973 101.901 163.174 102.62 163.174C103.413 163.174 104.141 162.903 104.804 162.362L105.182 163.188C104.883 163.468 104.5 163.692 104.034 163.86C103.567 164.019 103.091 164.098 102.606 164.098C101.542 164.098 100.702 163.785 100.086 163.16C99.4791 162.535 99.1758 161.671 99.1758 160.57C99.1758 159.87 99.3111 159.254 99.5818 158.722C99.8525 158.181 100.23 157.761 100.716 157.462C101.21 157.163 101.77 157.014 102.396 157.014C103.301 157.014 104.01 157.313 104.524 157.91C105.037 158.498 105.294 159.31 105.294 160.346V160.766ZM102.41 157.896C101.812 157.896 101.332 158.083 100.968 158.456C100.613 158.829 100.403 159.357 100.338 160.038H104.3C104.281 159.347 104.108 158.82 103.782 158.456C103.455 158.083 102.998 157.896 102.41 157.896Z" fill="#5C5C5C"/>
<path d="M111.529 157.994L110.787 158.064C110.087 158.129 109.578 158.349 109.261 158.722C108.953 159.095 108.799 159.557 108.799 160.108V164H107.665V157.182H108.771V158.372C109.153 157.579 109.905 157.135 111.025 157.042L111.431 157.014L111.529 157.994Z" fill="#5C5C5C"/>
<path d="M115.359 157.182H117.291V158.078H115.359V164H114.225V158.078H112.895V157.182H114.225V156.958C114.225 156.053 114.449 155.367 114.897 154.9C115.354 154.433 116.054 154.172 116.997 154.116L117.557 154.088L117.641 154.97L116.997 155.012C116.428 155.049 116.012 155.213 115.751 155.502C115.49 155.782 115.359 156.216 115.359 156.804V157.182Z" fill="#5C5C5C"/>
<path d="M121.9 164.098C121.256 164.098 120.687 163.953 120.192 163.664C119.707 163.375 119.329 162.964 119.058 162.432C118.797 161.891 118.666 161.265 118.666 160.556C118.666 159.847 118.797 159.226 119.058 158.694C119.329 158.153 119.707 157.737 120.192 157.448C120.687 157.159 121.256 157.014 121.9 157.014C122.544 157.014 123.114 157.159 123.608 157.448C124.103 157.737 124.481 158.153 124.742 158.694C125.013 159.226 125.148 159.847 125.148 160.556C125.148 161.265 125.013 161.891 124.742 162.432C124.481 162.964 124.103 163.375 123.608 163.664C123.114 163.953 122.544 164.098 121.9 164.098ZM121.9 163.16C122.572 163.16 123.086 162.941 123.44 162.502C123.804 162.054 123.986 161.405 123.986 160.556C123.986 159.725 123.804 159.086 123.44 158.638C123.076 158.181 122.563 157.952 121.9 157.952C121.238 157.952 120.724 158.181 120.36 158.638C119.996 159.086 119.814 159.725 119.814 160.556C119.814 161.396 119.992 162.04 120.346 162.488C120.71 162.936 121.228 163.16 121.9 163.16Z" fill="#5C5C5C"/>
<path d="M135.126 157.014C136.638 157.014 137.394 157.915 137.394 159.716V164H136.26V159.772C136.26 159.147 136.148 158.689 135.924 158.4C135.709 158.111 135.359 157.966 134.874 157.966C134.305 157.966 133.857 158.157 133.53 158.54C133.203 158.923 133.04 159.445 133.04 160.108V164H131.906V159.772C131.906 159.137 131.794 158.68 131.57 158.4C131.346 158.111 130.991 157.966 130.506 157.966C129.937 157.966 129.489 158.157 129.162 158.54C128.835 158.923 128.672 159.445 128.672 160.108V164H127.538V157.182H128.658V158.26C128.863 157.859 129.148 157.551 129.512 157.336C129.876 157.121 130.296 157.014 130.772 157.014C131.827 157.014 132.522 157.462 132.858 158.358C133.054 157.938 133.353 157.611 133.754 157.378C134.155 157.135 134.613 157.014 135.126 157.014Z" fill="#5C5C5C"/>
<path d="M142.932 157.014C143.8 157.014 144.444 157.238 144.864 157.686C145.293 158.125 145.508 158.797 145.508 159.702V164H144.402V162.838C144.225 163.239 143.954 163.552 143.59 163.776C143.226 163.991 142.806 164.098 142.33 164.098C141.891 164.098 141.485 164.009 141.112 163.832C140.748 163.655 140.459 163.407 140.244 163.09C140.029 162.773 139.922 162.423 139.922 162.04C139.922 161.527 140.053 161.13 140.314 160.85C140.575 160.561 141.005 160.355 141.602 160.234C142.199 160.103 143.03 160.038 144.094 160.038H144.402V159.576C144.402 159.007 144.285 158.596 144.052 158.344C143.819 158.083 143.441 157.952 142.918 157.952C142.134 157.952 141.355 158.195 140.58 158.68L140.202 157.854C140.557 157.602 140.981 157.401 141.476 157.252C141.98 157.093 142.465 157.014 142.932 157.014ZM142.484 163.202C143.044 163.202 143.501 163.015 143.856 162.642C144.22 162.259 144.402 161.769 144.402 161.172V160.766H144.15C143.329 160.766 142.703 160.803 142.274 160.878C141.845 160.943 141.537 161.06 141.35 161.228C141.173 161.387 141.084 161.625 141.084 161.942C141.084 162.306 141.215 162.609 141.476 162.852C141.747 163.085 142.083 163.202 142.484 163.202Z" fill="#5C5C5C"/>
<path d="M151.714 157.014C153.347 157.014 154.164 157.915 154.164 159.716V164H153.03V159.786C153.03 159.151 152.904 158.689 152.652 158.4C152.409 158.111 152.017 157.966 151.476 157.966C150.85 157.966 150.351 158.157 149.978 158.54C149.604 158.923 149.418 159.441 149.418 160.094V164H148.284V157.182H149.404V158.302C149.628 157.882 149.94 157.565 150.342 157.35C150.743 157.126 151.2 157.014 151.714 157.014Z" fill="#5C5C5C"/>
<path d="M159.825 164.098C159.153 164.098 158.569 163.953 158.075 163.664C157.58 163.375 157.197 162.969 156.927 162.446C156.665 161.914 156.535 161.293 156.535 160.584C156.535 159.875 156.67 159.254 156.941 158.722C157.221 158.181 157.608 157.761 158.103 157.462C158.607 157.163 159.195 157.014 159.867 157.014C160.324 157.014 160.772 157.098 161.211 157.266C161.649 157.425 162.004 157.639 162.275 157.91L161.897 158.75C161.253 158.227 160.599 157.966 159.937 157.966C159.237 157.966 158.691 158.195 158.299 158.652C157.907 159.109 157.711 159.753 157.711 160.584C157.711 161.405 157.907 162.04 158.299 162.488C158.691 162.936 159.237 163.16 159.937 163.16C160.599 163.16 161.253 162.899 161.897 162.376L162.275 163.216C161.985 163.487 161.621 163.701 161.183 163.86C160.744 164.019 160.291 164.098 159.825 164.098Z" fill="#5C5C5C"/>
<path d="M170.052 160.766H165.068C165.105 161.559 165.32 162.161 165.712 162.572C166.104 162.973 166.659 163.174 167.378 163.174C168.171 163.174 168.899 162.903 169.562 162.362L169.94 163.188C169.641 163.468 169.259 163.692 168.792 163.86C168.325 164.019 167.849 164.098 167.364 164.098C166.3 164.098 165.46 163.785 164.844 163.16C164.237 162.535 163.934 161.671 163.934 160.57C163.934 159.87 164.069 159.254 164.34 158.722C164.611 158.181 164.989 157.761 165.474 157.462C165.969 157.163 166.529 157.014 167.154 157.014C168.059 157.014 168.769 157.313 169.282 157.91C169.795 158.498 170.052 159.31 170.052 160.346V160.766ZM167.168 157.896C166.571 157.896 166.09 158.083 165.726 158.456C165.371 158.829 165.161 159.357 165.096 160.038H169.058C169.039 159.347 168.867 158.82 168.54 158.456C168.213 158.083 167.756 157.896 167.168 157.896Z" fill="#5C5C5C"/>
<path d="M177.58 94.04V96.42H175.66V99H172.62V96.42H166.72V94.12L173.16 84.9H175.66V94.04H177.58ZM169.56 94.04H172.62V89.64L169.56 94.04Z" fill="#35E156"/>
<path d="M185.452 89.88C186.319 89.88 187.092 90.0734 187.772 90.46C188.452 90.8334 188.979 91.36 189.352 92.04C189.726 92.72 189.912 93.5067 189.912 94.4C189.912 95.3467 189.686 96.18 189.232 96.9C188.792 97.62 188.159 98.18 187.332 98.58C186.519 98.9667 185.566 99.16 184.472 99.16C183.579 99.16 182.692 99.02 181.812 98.74C180.932 98.4467 180.219 98.06 179.672 97.58L180.652 95.3601C181.946 96.2667 183.232 96.72 184.512 96.72C185.326 96.72 185.939 96.5334 186.352 96.16C186.779 95.7867 186.992 95.2334 186.992 94.5C186.992 93.8067 186.772 93.26 186.332 92.86C185.906 92.46 185.319 92.26 184.572 92.26C184.106 92.26 183.639 92.3467 183.172 92.5201C182.719 92.6934 182.306 92.9334 181.932 93.24H180.152V84.9H189.232V87.28H183.192V90.42C183.832 90.06 184.586 89.88 185.452 89.88Z" fill="#35E156"/>
<path d="M194.925 90.98C193.805 90.98 192.951 90.6867 192.365 90.1C191.778 89.5 191.485 88.76 191.485 87.88C191.485 87 191.778 86.2667 192.365 85.68C192.951 85.0934 193.805 84.8 194.925 84.8C196.045 84.8 196.891 85.0934 197.465 85.68C198.051 86.2667 198.345 87 198.345 87.88C198.345 88.76 198.051 89.5 197.465 90.1C196.891 90.6867 196.045 90.98 194.925 90.98ZM194.925 89.04C195.245 89.04 195.491 88.94 195.665 88.74C195.851 88.5267 195.945 88.24 195.945 87.88C195.945 87.4934 195.851 87.2067 195.665 87.02C195.491 86.82 195.245 86.72 194.925 86.72C194.271 86.72 193.945 87.1067 193.945 87.88C193.945 88.2534 194.031 88.54 194.205 88.74C194.378 88.94 194.618 89.04 194.925 89.04Z" fill="#35E156"/>
<path d="M175.34 121.74C176.167 121.98 176.8 122.4 177.24 123C177.694 123.587 177.92 124.307 177.92 125.16C177.92 126.4 177.447 127.38 176.5 128.1C175.554 128.807 174.274 129.16 172.66 129.16C171.687 129.16 170.754 129.02 169.86 128.74C168.967 128.46 168.24 128.073 167.68 127.58L168.66 125.36C169.94 126.267 171.227 126.72 172.52 126.72C173.374 126.72 173.994 126.573 174.38 126.28C174.767 125.973 174.96 125.5 174.96 124.86C174.96 124.233 174.767 123.78 174.38 123.5C173.994 123.22 173.374 123.08 172.52 123.08H170.5V120.66H172.18C172.994 120.66 173.594 120.52 173.98 120.24C174.38 119.96 174.58 119.527 174.58 118.94C174.58 118.367 174.407 117.927 174.06 117.62C173.714 117.313 173.214 117.16 172.56 117.16C171.974 117.16 171.36 117.28 170.72 117.52C170.08 117.747 169.46 118.08 168.86 118.52L167.88 116.3C168.44 115.82 169.16 115.44 170.04 115.16C170.934 114.867 171.847 114.72 172.78 114.72C173.74 114.72 174.58 114.88 175.3 115.2C176.02 115.507 176.574 115.947 176.96 116.52C177.36 117.093 177.56 117.76 177.56 118.52C177.56 119.28 177.36 119.947 176.96 120.52C176.574 121.08 176.034 121.487 175.34 121.74Z" fill="#35E156"/>
<path d="M180.572 125.8H183.812V129H180.572V125.8Z" fill="#35E156"/>
<path d="M193.728 121.74C194.554 121.98 195.188 122.4 195.628 123C196.081 123.587 196.308 124.307 196.308 125.16C196.308 126.4 195.834 127.38 194.888 128.1C193.941 128.807 192.661 129.16 191.048 129.16C190.074 129.16 189.141 129.02 188.248 128.74C187.354 128.46 186.628 128.073 186.068 127.58L187.048 125.36C188.328 126.267 189.614 126.72 190.908 126.72C191.761 126.72 192.381 126.573 192.768 126.28C193.154 125.973 193.348 125.5 193.348 124.86C193.348 124.233 193.154 123.78 192.768 123.5C192.381 123.22 191.761 123.08 190.908 123.08H188.888V120.66H190.568C191.381 120.66 191.981 120.52 192.368 120.24C192.768 119.96 192.968 119.527 192.968 118.94C192.968 118.367 192.794 117.927 192.448 117.62C192.101 117.313 191.601 117.16 190.948 117.16C190.361 117.16 189.748 117.28 189.108 117.52C188.468 117.747 187.848 118.08 187.248 118.52L186.268 116.3C186.828 115.82 187.548 115.44 188.428 115.16C189.321 114.867 190.234 114.72 191.168 114.72C192.128 114.72 192.968 114.88 193.688 115.2C194.408 115.507 194.961 115.947 195.348 116.52C195.748 117.093 195.948 117.76 195.948 118.52C195.948 119.28 195.748 119.947 195.348 120.52C194.961 121.08 194.421 121.487 193.728 121.74Z" fill="#35E156"/>
<path d="M52.3601 120.24V129H22.5401V120.84L36.3401 106.5C38.9801 103.74 40.3001 101.2 40.3001 98.88C40.3001 96.08 38.6401 94.68 35.3201 94.68C33.7201 94.68 31.9801 95.02 30.1001 95.7C28.2601 96.34 26.4001 97.26 24.5201 98.46L21.1001 90.66C22.7801 89.3 24.9601 88.22 27.6401 87.42C30.3601 86.58 33.1201 86.16 35.9201 86.16C38.9601 86.16 41.6201 86.66 43.9001 87.66C46.2201 88.62 48.0001 90 49.2401 91.8C50.4801 93.6 51.1001 95.7 51.1001 98.1C51.1001 100.54 50.6001 102.78 49.6001 104.82C48.6401 106.82 46.9801 109.06 44.6201 111.54L36.1001 120.24H52.3601Z" fill="white"/>
<path d="M74.8353 129.54C69.5953 129.54 65.5953 127.68 62.8353 123.96C60.0753 120.24 58.6953 114.86 58.6953 107.82C58.6953 100.9 60.0753 95.58 62.8353 91.86C65.6353 88.14 69.6353 86.28 74.8353 86.28C80.0353 86.28 84.0153 88.14 86.7753 91.86C89.5753 95.58 90.9753 100.9 90.9753 107.82C90.9753 114.86 89.5953 120.24 86.8353 123.96C84.0753 127.68 80.0753 129.54 74.8353 129.54ZM74.8353 121.2C76.7553 121.2 78.1353 120.16 78.9753 118.08C79.8153 116 80.2353 112.58 80.2353 107.82C80.2353 103.14 79.8153 99.78 78.9753 97.74C78.1353 95.66 76.7553 94.62 74.8353 94.62C72.9153 94.62 71.5353 95.66 70.6953 97.74C69.8553 99.78 69.4353 103.14 69.4353 107.82C69.4353 112.58 69.8553 116 70.6953 118.08C71.5353 120.16 72.9153 121.2 74.8353 121.2Z" fill="white"/>
<path d="M114.652 130.92L107.932 126.96L132.412 84.78L139.132 88.74L114.652 130.92ZM107.632 111.84C104.112 111.84 101.352 110.72 99.3518 108.48C97.3518 106.24 96.3518 103.02 96.3518 98.82C96.3518 94.7 97.3518 91.54 99.3518 89.34C101.352 87.1 104.112 85.98 107.632 85.98C111.152 85.98 113.912 87.1 115.912 89.34C117.912 91.54 118.912 94.72 118.912 98.88C118.912 103.08 117.912 106.3 115.912 108.54C113.912 110.74 111.152 111.84 107.632 111.84ZM107.632 105.36C108.552 105.36 109.212 104.88 109.612 103.92C110.052 102.92 110.272 101.24 110.272 98.88C110.272 96.6 110.052 94.98 109.612 94.02C109.172 93.02 108.512 92.52 107.632 92.52C106.712 92.52 106.032 93.02 105.592 94.02C105.192 94.98 104.992 96.6 104.992 98.88C104.992 101.24 105.192 102.92 105.592 103.92C106.032 104.88 106.712 105.36 107.632 105.36ZM139.372 129.42C135.852 129.42 133.092 128.3 131.092 126.06C129.092 123.82 128.092 120.6 128.092 116.4C128.092 112.28 129.092 109.12 131.092 106.92C133.092 104.68 135.852 103.56 139.372 103.56C142.892 103.56 145.652 104.68 147.652 106.92C149.652 109.12 150.652 112.3 150.652 116.46C150.652 120.66 149.652 123.88 147.652 126.12C145.652 128.32 142.892 129.42 139.372 129.42ZM139.372 122.94C140.292 122.94 140.952 122.46 141.352 121.5C141.792 120.5 142.012 118.82 142.012 116.46C142.012 114.18 141.792 112.54 141.352 111.54C140.912 110.54 140.252 110.04 139.372 110.04C138.452 110.04 137.772 110.54 137.332 111.54C136.932 112.5 136.732 114.14 136.732 116.46C136.732 118.82 136.932 120.5 137.332 121.5C137.772 122.46 138.452 122.94 139.372 122.94Z" fill="white"/>
<defs>
<linearGradient id="paint0_linear" x1="19" y1="37.9993" x2="58.9967" y2="37.9993" gradientUnits="userSpaceOnUse">
<stop stop-color="#836FFF"/>
<stop offset="1" stop-color="#E486EC"/>
</linearGradient>
</defs>
</svg>
