<svg width="722" height="632" viewBox="0 0 722 632" fill="none" xmlns="http://www.w3.org/2000/svg">
<path d="M449.761 234.066H310.731V116.378L380.223 72.2286L449.761 116.378V234.066Z" fill="#25A9EE"/>
<path opacity="0.2" d="M449.761 234.066H310.731V116.378L380.223 72.2286L449.761 116.378V234.066Z" fill="black"/>
<path d="M441.909 225.082H318.537V66.6309H410.141L441.909 96.8314V225.082Z" fill="#EBEBEB"/>
<path d="M410.141 66.6309L441.909 96.8314H410.141V66.6309Z" fill="#DBDBDB"/>
<path d="M330.596 97.2906L399.186 97.2906V93.2278L330.596 93.2278V97.2906Z" fill="#DBDBDB"/>
<path d="M330.596 107.58L399.186 107.58V103.517L330.596 103.517V107.58Z" fill="#DBDBDB"/>
<path d="M330.596 117.824L399.186 117.824V113.761L330.596 113.761V117.824Z" fill="#DBDBDB"/>
<path d="M330.6 128.114H431.094V124.051L330.6 124.051V128.114Z" fill="#DBDBDB"/>
<path d="M330.6 138.359H431.094V134.296H330.6V138.359Z" fill="#DBDBDB"/>
<path d="M330.6 148.648H431.094V144.585H330.6V148.648Z" fill="#DBDBDB"/>
<path d="M330.6 158.892H431.094V154.83H330.6V158.892Z" fill="#DBDBDB"/>
<path d="M330.6 169.182H431.094V165.119H330.6V169.182Z" fill="#DBDBDB"/>
<path d="M330.6 179.427H431.094V175.364H330.6V179.427Z" fill="#DBDBDB"/>
<path d="M330.6 189.716H431.094V185.653H330.6V189.716Z" fill="#DBDBDB"/>
<path d="M330.6 199.96H431.094V195.897H330.6V199.96Z" fill="#DBDBDB"/>
<path d="M330.6 210.25H431.094V206.187H330.6V210.25Z" fill="#DBDBDB"/>
<path d="M449.761 145.857V234.066H310.731V145.857C316.687 149.242 322.553 152.809 328.465 156.239C334.376 159.761 340.242 163.282 346.109 166.893C352.607 170.866 359.15 174.883 365.648 178.946C365.693 178.901 365.783 178.856 365.873 178.811C365.828 178.856 365.783 178.901 365.693 178.946C370.566 181.971 375.44 185.041 380.268 188.065C385.097 184.995 389.97 181.926 394.844 178.946C394.799 178.901 394.753 178.856 394.663 178.811C394.708 178.856 394.799 178.901 394.889 178.901C401.387 174.838 407.885 170.821 414.428 166.848C420.294 163.282 426.16 159.715 432.027 156.194C437.938 152.809 443.804 149.242 449.761 145.857Z" fill="#25A9EE"/>
<g opacity="0.2">
<path opacity="0.2" d="M449.761 145.857C444.165 149.784 438.434 153.576 432.749 157.458C427.063 161.25 421.332 165.042 415.601 168.834C409.6 172.762 403.598 176.644 397.596 180.526C397.416 180.662 397.235 180.797 397.055 180.887C391.73 184.273 386.405 187.704 381.035 191.09L380.223 191.586L379.456 191.09C374.131 187.704 368.807 184.273 363.482 180.842C363.301 180.752 363.121 180.617 362.94 180.481C356.894 176.599 350.892 172.717 344.89 168.789C339.159 165.042 333.429 161.25 327.743 157.458C322.102 153.576 316.371 149.784 310.731 145.857C316.687 149.242 322.553 152.809 328.465 156.239C334.376 159.761 340.242 163.282 346.109 166.893C352.607 170.866 359.15 174.883 365.648 178.946C365.648 178.946 365.648 178.946 365.693 178.946C370.566 181.971 375.44 185.041 380.268 188.065C385.097 184.995 389.97 181.926 394.844 178.946C394.844 178.901 394.844 178.901 394.889 178.901C401.387 174.838 407.885 170.821 414.428 166.848C420.294 163.282 426.16 159.715 432.027 156.194C437.938 152.809 443.804 149.242 449.761 145.857Z" fill="black"/>
<path opacity="0.2" d="M365.828 178.856C365.783 178.901 365.738 178.946 365.648 178.991C364.926 179.623 364.204 180.255 363.437 180.842C359.962 183.777 356.397 186.621 352.742 189.329C348.32 192.715 343.762 195.965 339.25 199.17C334.692 202.33 330.089 205.445 325.396 208.47C320.703 211.494 315.965 214.429 311.047 217.137C315.243 213.435 319.666 210.005 324.088 206.619C328.555 203.233 333.068 199.983 337.58 196.778C342.183 193.618 346.786 190.458 351.479 187.478C355.224 185.086 359.015 182.693 362.895 180.481C363.798 179.939 364.7 179.443 365.603 178.946C365.693 178.946 365.738 178.901 365.828 178.856Z" fill="black"/>
<path opacity="0.2" d="M449.445 217.137C444.526 214.429 439.788 211.494 435.095 208.47C430.402 205.445 425.8 202.33 421.197 199.17C416.639 195.965 412.127 192.715 407.704 189.329C404.094 186.575 400.53 183.777 397.055 180.842C396.288 180.21 395.566 179.578 394.844 178.946C394.799 178.901 394.754 178.856 394.663 178.811C394.708 178.856 394.799 178.901 394.889 178.901C395.791 179.443 396.694 179.939 397.596 180.436C401.477 182.648 405.268 184.995 409.013 187.433C413.706 190.458 418.309 193.573 422.866 196.733C427.424 199.938 431.936 203.188 436.359 206.574C440.826 210.005 445.203 213.435 449.445 217.137Z" fill="black"/>
</g>
<path d="M331.985 563.112L352.381 566.814L352.968 577.603L329.322 577.377L331.985 563.112Z" fill="white"/>
<path d="M352.968 578.461C352.923 578.461 352.923 578.461 352.968 578.461L329.322 578.235C329.052 578.235 328.826 578.099 328.691 577.919C328.51 577.738 328.465 577.467 328.51 577.242L331.172 562.977C331.263 562.525 331.714 562.209 332.165 562.299L352.562 565.956C352.968 566.046 353.239 566.362 353.239 566.723L353.78 577.513C353.78 577.738 353.69 577.964 353.554 578.145C353.374 578.37 353.193 578.461 352.968 578.461ZM330.36 576.565L352.065 576.79L351.569 567.536L332.662 564.105L330.36 576.565Z" fill="#262424"/>
<path d="M404.546 598.323C403.282 599.994 401.387 601.483 399.086 602.476C394.393 604.598 388.03 604.688 382.479 600.4C374.267 594.08 349.493 579.815 349.493 579.815C352.607 567.626 346.966 563.789 346.966 563.789C350.802 558.507 356.623 552.503 360.774 548.531C363.617 545.777 365.648 543.971 365.648 543.971C383.337 559.229 404.546 598.323 404.546 598.323Z" fill="black"/>
<path d="M404.546 598.323C403.282 599.994 401.387 601.483 399.086 602.477C384.375 573.314 366.009 553.767 360.774 548.486C363.617 545.732 365.648 543.926 365.648 543.926C383.337 559.23 404.546 598.323 404.546 598.323Z" fill="white"/>
<path d="M399.086 603.334C398.77 603.334 398.499 603.154 398.318 602.883C383.743 573.946 365.422 554.399 360.143 549.118C359.962 548.937 359.917 548.757 359.917 548.531C359.917 548.305 360.007 548.079 360.188 547.944C363.031 545.19 365.061 543.385 365.106 543.339C365.422 543.069 365.919 543.069 366.234 543.339C383.833 558.553 405.087 597.556 405.313 597.962C405.448 598.233 405.448 598.594 405.268 598.865C403.914 600.716 401.883 602.251 399.492 603.289C399.311 603.334 399.176 603.334 399.086 603.334ZM361.948 548.531C367.904 554.58 385.322 573.63 399.447 601.393C401.071 600.58 402.47 599.497 403.508 598.233C401.026 593.764 381.848 559.455 365.648 545.055C364.971 545.732 363.617 546.951 361.948 548.531Z" fill="#262424"/>
<path d="M315.288 554.535C315.288 554.535 319.169 550.969 325.983 552.774C332.797 554.535 339.701 561.036 336.362 574.849C333.022 588.663 317.093 593.448 308.384 581.214C299.675 568.981 315.288 554.535 315.288 554.535Z" fill="#25A9EE"/>
<path d="M357.841 488.671L313.529 553.316C321.11 555.528 330.676 561.351 329.322 571.825C327.969 582.298 319.305 584.058 319.305 584.058C319.305 584.058 301.841 584.058 287.537 582.072C286.499 581.937 285.551 581.756 284.558 581.621C273.909 579.86 265.922 575.481 266.598 560.133C266.824 554.309 268.358 546.906 271.427 537.471C282.528 503.162 319.756 420.009 319.756 420.009C332.662 391.479 372.326 387.235 372.778 424.253C373.229 461.27 357.841 488.671 357.841 488.671Z" fill="black"/>
<path d="M319.214 445.605C317.545 445.605 315.83 445.154 313.98 444.206C313.528 443.98 313.393 443.438 313.574 443.032C313.799 442.581 314.341 442.445 314.747 442.626C317.545 444.07 320.072 444.206 322.238 443.077C328.51 439.827 330.36 427.367 330.405 427.232C330.496 426.735 330.902 426.419 331.398 426.51C331.894 426.6 332.21 427.006 332.12 427.503C332.03 428.045 330.089 441.001 323.05 444.657C321.877 445.289 320.568 445.605 319.214 445.605Z" fill="#262424"/>
<path d="M290.785 572.637C290.785 576.203 289.567 579.454 287.536 582.072C286.499 581.937 285.551 581.756 284.558 581.621C273.909 579.86 265.922 575.481 266.598 560.133C269.08 558.372 272.149 557.334 275.443 557.334C283.881 557.334 290.785 564.195 290.785 572.637Z" fill="white"/>
<path d="M324.223 564.873C324.178 564.873 324.133 564.873 324.043 564.873L302.202 560.855C301.931 560.81 301.661 560.629 301.57 560.358C301.435 560.088 301.48 559.772 301.616 559.546L351.524 481.088C351.794 480.681 352.336 480.546 352.742 480.817C353.148 481.088 353.284 481.629 353.013 482.036L303.827 559.41L324.358 563.202C324.855 563.293 325.171 563.744 325.081 564.241C324.99 564.602 324.629 564.873 324.223 564.873Z" fill="#262424"/>
<path d="M294.35 564.331C293.989 564.331 293.674 564.15 293.538 563.789C293.358 563.338 293.538 562.841 293.989 562.615L301.931 559.184L310.325 553.316C310.731 553.045 311.272 553.135 311.543 553.542C311.814 553.948 311.724 554.49 311.317 554.76L302.834 560.674C302.789 560.719 302.744 560.719 302.699 560.764L294.666 564.24C294.576 564.286 294.486 564.331 294.35 564.331Z" fill="#262424"/>
<path d="M492.449 558.824C483.56 561.261 469.796 534.04 466.141 521.897C462.441 509.708 463.208 496.481 463.569 494.63C463.795 493.231 466.683 488.897 469.887 486.053C469.887 486.053 469.932 486.008 469.977 486.008C470.925 485.15 471.872 484.428 472.775 483.931C481.619 479.237 489.787 489.258 494.164 510.656C498.451 532.099 501.294 556.341 492.449 558.824Z" fill="black"/>
<path d="M492.449 558.823C496.646 553.632 495.698 538.645 490.464 513.229C483.334 478.921 471.06 485.331 469.977 486.008C470.925 485.15 471.872 484.428 472.775 483.931C481.619 479.237 489.787 489.258 494.164 510.656C498.451 532.099 501.294 556.341 492.449 558.823Z" fill="black"/>
<path d="M492.449 559.681C492.088 559.681 491.817 559.501 491.682 559.185C491.547 558.869 491.592 558.553 491.772 558.282C495.653 553.497 494.976 539.231 489.606 513.365C485.635 494.314 480.175 488.265 476.294 486.55C473.181 485.195 470.789 486.414 470.383 486.685C470.022 486.911 469.526 486.821 469.255 486.459C468.984 486.098 469.029 485.647 469.345 485.331C470.383 484.383 471.376 483.661 472.323 483.164C475.211 481.629 478.054 481.494 480.762 482.803C486.854 485.647 491.863 495.488 494.931 510.475C501.068 540.902 500.301 557.424 492.63 559.591C492.585 559.681 492.54 559.681 492.449 559.681ZM473.993 484.293C474.896 484.338 475.933 484.563 476.971 485.06C483.153 487.769 487.982 497.203 491.276 513.094C495.924 535.62 497.097 549.298 494.751 556.205C498.677 550.878 498.225 535.123 493.307 510.882C490.373 496.436 485.68 487.001 480.085 484.383C478.099 483.435 476.069 483.435 473.993 484.293Z" fill="black"/>
<path d="M456.124 507.677L466.141 494.63C466.141 494.63 471.24 490.793 473.181 498.829L467.585 516.389L456.124 507.677Z" fill="white"/>
<path d="M467.585 517.202C467.405 517.202 467.224 517.157 467.089 517.021L455.582 508.309C455.401 508.173 455.266 507.993 455.266 507.767C455.266 507.541 455.311 507.315 455.447 507.135L465.464 494.089C465.51 494.043 465.555 493.953 465.645 493.908C465.735 493.818 467.901 492.238 470.248 493.05C472.008 493.682 473.316 495.533 474.038 498.558C474.083 498.693 474.083 498.874 474.038 499.009L468.443 516.57C468.352 516.841 468.172 517.021 467.901 517.111C467.766 517.202 467.675 517.202 467.585 517.202ZM457.297 507.496L467.179 514.945L472.323 498.738C471.737 496.481 470.834 495.082 469.661 494.675C468.398 494.224 467.089 494.991 466.728 495.217L457.297 507.496Z" fill="#262424"/>
<path d="M441.413 518.646C441.413 518.646 441.638 514.629 442.857 512.507C444.075 510.385 450.663 505.6 455.537 505.058C460.455 504.517 472.594 508.625 474.128 518.646C475.663 528.668 470.879 535.349 469.887 536.794C468.894 538.238 465.6 542.527 462.802 541.759C460.004 541.037 441.413 518.646 441.413 518.646Z" fill="#25A9EE"/>
<path d="M466.999 533.047C466.999 533.047 457.342 553.587 451.34 564.331C450.302 566.137 449.445 567.626 448.723 568.71C444.481 575.165 432.839 580.582 418.715 572.005C415.827 570.245 412.849 567.897 409.78 564.873C391.73 547.041 359.421 484.202 359.421 484.202C359.421 484.202 356.939 407.911 375.26 401.049C406.667 389.267 419.166 425.11 425.168 447.411C431.169 469.712 439.427 520.723 439.427 520.723C446.557 512.958 453.687 508.489 461.945 515.396C470.157 522.348 466.999 533.047 466.999 533.047Z" fill="black"/>
<path d="M359.195 472.51C359.15 472.51 359.06 472.51 359.014 472.465C358.744 472.42 352.246 470.84 351.118 466.913C350.08 463.346 350.712 441.271 350.757 440.323C350.757 439.827 351.163 439.466 351.614 439.466C351.614 439.466 351.614 439.466 351.659 439.466C352.156 439.466 352.517 439.872 352.517 440.369C352.336 446.689 352.02 463.662 352.832 466.416C353.554 468.854 357.841 470.343 359.466 470.75C359.917 470.84 360.233 471.337 360.097 471.788C359.962 472.239 359.601 472.51 359.195 472.51Z" fill="#262424"/>
<path d="M359.014 480.32C358.518 480.32 358.112 479.914 358.157 479.417L359.014 442.806C359.014 442.31 359.421 441.949 359.917 441.949C360.413 441.949 360.774 442.355 360.774 442.851L359.917 479.462C359.872 479.914 359.511 480.32 359.014 480.32Z" fill="#262424"/>
<path d="M412.307 449.939C410.592 449.939 409.013 449.533 407.569 448.765C401.477 445.425 400.214 436.351 400.168 435.99C400.123 435.493 400.439 435.087 400.936 434.997C401.432 434.951 401.838 435.267 401.928 435.764C401.928 435.854 403.102 444.341 408.426 447.23C411.089 448.675 414.383 448.494 418.309 446.643C418.76 446.418 419.256 446.643 419.482 447.05C419.708 447.501 419.482 447.998 419.076 448.223C416.639 449.352 414.383 449.939 412.307 449.939Z" fill="#262424"/>
<path d="M451.385 564.286C450.348 566.092 449.49 567.581 448.768 568.665C444.526 575.12 432.884 580.537 418.76 571.96C418.715 571.509 418.715 571.012 418.715 570.561C418.715 561.216 426.296 553.587 435.682 553.587C442.767 553.632 448.904 558.056 451.385 564.286Z" fill="white"/>
<path d="M440.51 546.816C440.465 546.816 440.42 546.816 440.375 546.816C440.014 546.77 439.743 546.5 439.653 546.184L413.616 449.081C413.48 448.63 413.751 448.133 414.248 447.998C414.699 447.862 415.195 448.133 415.331 448.63L440.871 543.881L458.064 518.285C458.335 517.879 458.876 517.789 459.282 518.06C459.688 518.33 459.779 518.872 459.508 519.278L441.232 546.454C441.052 546.68 440.781 546.816 440.51 546.816Z" fill="#262424"/>
<path d="M439.879 552.684H439.833C439.337 552.639 438.976 552.233 439.021 551.736C439.698 541.85 439.021 525.418 439.021 525.237C439.021 524.741 439.382 524.334 439.879 524.334C440.375 524.289 440.781 524.696 440.781 525.192C440.781 525.373 441.458 541.895 440.781 551.872C440.736 552.323 440.33 552.684 439.879 552.684Z" fill="#262424"/>
<path d="M315.288 289.411L301.931 315.052C301.931 315.052 275.623 290.539 273.187 285.845C270.75 281.15 267.952 239.031 267.952 239.031C267.952 239.031 258.927 234.427 254.55 230.409C250.128 226.391 246.292 215.286 246.292 215.286C245.796 212.713 252.429 204.271 253.648 204.362C254.866 204.452 262.402 214.474 262.673 214.79C262.582 214.474 259.108 204.046 258.747 202.511C258.386 200.976 259.785 199.531 261.138 200.479C262.492 201.427 270.254 216.37 270.615 216.776C270.976 217.182 278.286 220.974 278.286 220.974L280.993 218.672C280.813 211.765 283.656 211.585 284.242 212.939C284.829 214.293 285.37 224.225 285.009 225.985C284.648 227.701 281.941 234.021 281.941 234.021L292.816 271.76L315.288 289.411Z" fill="white"/>
<path d="M301.931 315.91C301.706 315.91 301.525 315.819 301.345 315.684C300.262 314.691 274.901 290.991 272.42 286.251C270.028 281.691 267.456 244.494 267.095 239.573C265.245 238.58 257.889 234.653 253.918 231.041C249.406 226.933 245.615 216.009 245.435 215.557C245.435 215.512 245.39 215.467 245.39 215.422C244.938 212.984 248.819 207.747 250.76 205.581C252.474 203.685 253.151 203.459 253.693 203.504C254.054 203.549 254.956 203.594 260.281 210.366C258.837 205.942 258.07 203.414 257.889 202.737C257.619 201.608 258.025 200.389 258.972 199.757C259.785 199.215 260.777 199.261 261.59 199.847C262.492 200.479 264.839 204.633 269.171 212.578C270.073 214.248 270.93 215.828 271.201 216.234C271.788 216.641 275.082 218.401 278.15 220.026L280.091 218.356C280.046 212.758 281.941 211.72 282.798 211.539C283.701 211.359 284.603 211.81 284.964 212.668C285.596 214.158 286.228 224.27 285.777 226.211C285.416 227.791 283.295 232.892 282.798 234.111L293.493 271.309L315.785 288.734C316.101 289.005 316.191 289.411 316.01 289.772L302.653 315.413C302.518 315.639 302.292 315.819 302.067 315.865C302.022 315.865 301.976 315.91 301.931 315.91ZM247.104 215.061C247.42 216.009 251.075 226.121 255.092 229.777C259.378 233.705 268.223 238.219 268.313 238.264C268.584 238.399 268.764 238.67 268.764 238.941C269.532 250.588 271.968 281.691 273.909 285.393C275.759 288.869 292.41 304.94 301.661 313.607L314.205 289.591L292.275 272.392C292.139 272.302 292.049 272.121 292.004 271.941L281.129 234.291C281.084 234.111 281.084 233.885 281.174 233.75C281.896 231.989 283.881 227.204 284.197 225.85C284.558 224.315 283.972 214.474 283.475 213.345C283.43 213.3 283.385 213.165 283.25 213.21C282.798 213.3 281.715 214.474 281.851 218.762C281.851 219.033 281.76 219.259 281.535 219.439L278.827 221.742C278.557 221.967 278.196 222.013 277.88 221.832C272.961 219.259 270.344 217.769 270.028 217.453C269.847 217.273 269.667 217.002 267.727 213.435C265.696 209.734 261.499 201.969 260.597 201.247C260.371 201.066 260.1 201.066 259.875 201.202C259.604 201.382 259.378 201.879 259.514 202.375C259.739 203.233 260.958 207.115 263.214 213.932C263.349 214.293 263.44 214.564 263.44 214.609C263.575 215.015 263.395 215.422 263.034 215.602C262.673 215.783 262.221 215.693 261.996 215.377C258.115 210.23 254.64 206.077 253.602 205.355C252.068 206.167 246.879 213.119 247.104 215.061Z" fill="#262424"/>
<path d="M311.047 284.174L295.343 312.75L327.246 344.846C327.246 344.846 345.116 309.906 345.116 309.409C345.116 308.913 311.047 284.174 311.047 284.174Z" fill="#25A9EE"/>
<path d="M301.931 315.91C301.796 315.91 301.661 315.865 301.525 315.819C301.074 315.594 300.939 315.052 301.164 314.646L313.799 290.404C314.025 289.952 314.566 289.817 314.972 290.043C315.424 290.268 315.559 290.81 315.333 291.216L302.698 315.458C302.563 315.774 302.247 315.91 301.931 315.91Z" fill="#262424"/>
<path d="M405.042 263.86C398.499 266.749 404.41 280.337 406.937 284.626C409.464 288.914 406.576 301.509 415.195 305.391C423.769 309.274 408.562 326.608 430.402 343.176C447.234 355.951 475.211 345.027 470.834 330.716C466.457 316.451 443.263 310.492 439.427 297.401C436.99 289.05 440.149 276.771 426.07 272.798C415.601 269.864 410.186 261.558 405.042 263.86Z" fill="#262424"/>
<path d="M342.138 307.017C342.138 307.017 324.765 340.016 324.088 347.374C323.411 354.733 334.963 369.088 334.963 369.088L314.566 420.415C314.566 420.415 336.136 449.487 359.33 451.338C382.57 453.189 425.168 429.444 425.168 429.444L411.991 375.769L426.522 344.846L419.166 307.017C419.166 307.017 397.461 316.948 382.57 318.618C367.724 320.289 342.138 307.017 342.138 307.017Z" fill="#25A9EE"/>
<path d="M326.344 340.874C326.209 340.874 326.118 340.829 325.983 340.784C325.532 340.603 325.351 340.061 325.532 339.61C329.413 330.897 339.972 309.184 340.062 309.003C340.288 308.552 340.784 308.371 341.235 308.597C341.687 308.822 341.867 309.319 341.641 309.77C341.551 309.996 330.992 331.665 327.111 340.332C327.021 340.693 326.705 340.874 326.344 340.874Z" fill="#262424"/>
<path d="M361.271 447.05C360.865 447.05 360.459 447.05 360.052 447.005C342.273 446.102 321.606 419.964 320.749 418.835C320.433 418.474 320.523 417.887 320.884 417.617C321.245 417.301 321.832 417.391 322.102 417.752C322.328 418.023 343.131 444.386 360.098 445.244C377.29 446.102 418.219 426.103 418.625 425.923C419.076 425.697 419.572 425.878 419.798 426.329C420.024 426.781 419.843 427.277 419.392 427.503C417.767 428.361 379.456 447.05 361.271 447.05Z" fill="#262424"/>
<path d="M377.11 312.253C367.543 311.486 361.406 318.709 360.729 326.518C360.052 334.328 368.626 337.894 368.626 337.894C368.626 337.894 371.965 329.633 374.989 329.001C378.012 328.324 381.216 339.023 381.216 339.023C381.216 339.023 391.595 336.676 393.49 326.564C395.385 316.361 385.593 312.93 377.11 312.253Z" fill="white"/>
<path d="M371.334 298.033L369.303 317.58C369.303 317.58 372.146 323.133 376.794 323.358C381.442 323.584 385.954 318.573 385.954 318.573V296.859L371.334 298.033Z" fill="white"/>
<path d="M377.11 324.261C376.974 324.261 376.884 324.261 376.749 324.261C371.649 324.035 368.671 318.257 368.536 317.986C368.446 317.851 368.446 317.67 368.446 317.535L370.476 297.943C370.521 297.537 370.837 297.221 371.243 297.175L385.864 296.002C386.089 296.002 386.315 296.047 386.496 296.227C386.676 296.408 386.766 296.634 386.766 296.859V318.573C386.766 318.799 386.676 318.979 386.541 319.115C386.36 319.386 381.938 324.261 377.11 324.261ZM370.16 317.445C370.702 318.393 373.229 322.41 376.839 322.591C380.494 322.771 384.194 319.25 385.097 318.302V297.807L372.056 298.846L370.16 317.445Z" fill="#262424"/>
<path d="M398.95 267.02L401.567 266.614C402.38 266.478 403.237 266.794 403.778 267.472C404.365 268.239 405.087 269.368 405.358 270.586C405.629 271.986 405.132 273.34 404.636 274.153C404.32 274.694 403.824 275.056 403.237 275.236L400.349 276.049C398.95 276.455 397.506 275.462 397.416 274.017L397.055 269.503C396.919 268.284 397.777 267.201 398.95 267.02Z" fill="white"/>
<path d="M399.672 277.042C399.04 277.042 398.409 276.861 397.867 276.455C397.1 275.913 396.604 275.055 396.513 274.062L396.152 269.548C396.017 267.878 397.19 266.388 398.815 266.117L401.432 265.711C402.56 265.53 403.733 265.982 404.455 266.885C405.087 267.697 405.899 268.961 406.17 270.361C406.486 272.031 405.899 273.566 405.358 274.559C404.952 275.281 404.275 275.823 403.417 276.049L400.529 276.861C400.259 276.997 399.988 277.042 399.672 277.042ZM399.085 267.878C398.363 268.013 397.822 268.69 397.867 269.413L398.228 273.927C398.273 274.378 398.499 274.739 398.86 275.01C399.221 275.236 399.672 275.326 400.078 275.236L402.966 274.423C403.327 274.333 403.643 274.062 403.824 273.746C404.23 273.024 404.681 271.895 404.455 270.767C404.23 269.683 403.553 268.645 403.056 268.013C402.741 267.607 402.199 267.426 401.703 267.471L399.085 267.878Z" fill="#262424"/>
<path d="M360.639 285.8C358.699 294.196 359.601 304.805 369.664 307.423C377.065 309.364 387.759 302.864 391.64 291.894C395.476 280.924 396.333 270.767 382.705 267.562C381.487 267.291 379.411 266.975 378.283 266.885C369.98 266.343 366.821 266.162 361.812 281.33C361.361 282.685 361 284.22 360.639 285.8Z" fill="white"/>
<path d="M372.056 308.597C371.153 308.597 370.296 308.506 369.484 308.281C359.105 305.572 357.706 294.783 359.827 285.619L359.962 285.032C360.278 283.633 360.594 282.323 361 281.105C363.527 273.43 365.693 269.503 368.355 267.562C371.063 265.575 374.131 265.801 378.373 266.072C378.87 266.117 379.231 266.523 379.185 267.02C379.14 267.517 378.734 267.878 378.238 267.833C370.16 267.291 367.453 267.11 362.625 281.691C362.264 282.82 361.948 284.084 361.632 285.438L361.496 286.07C360.549 290.133 358.383 303.631 369.89 306.655C372.191 307.242 375.079 306.836 379.005 305.301C379.456 305.121 379.953 305.346 380.133 305.798C380.314 306.249 380.088 306.746 379.637 306.926C376.613 308.055 374.177 308.597 372.056 308.597Z" fill="#262424"/>
<path d="M387.488 292.345C384.555 289.817 384.104 286.793 384.51 284.174C384.691 283.136 385.006 281.827 385.142 280.518C377.471 284.626 365.467 284.761 360.278 284.581C358.608 284.535 357.119 283.452 356.668 281.872C353.825 271.941 365.467 258.533 375.891 262.28C390.557 257.901 402.56 268.51 401.251 279.254C399.807 291.171 390.421 294.828 387.488 292.345Z" fill="#262424"/>
<path d="M388.075 291.397C388.075 291.397 395.115 287.379 400.304 290.855C405.493 294.331 399.447 307.107 385.864 301.329L388.075 291.397Z" fill="white"/>
<path d="M392.407 303.676C390.331 303.676 388.03 303.224 385.503 302.141C385.052 301.961 384.826 301.419 385.052 301.013C385.232 300.561 385.774 300.335 386.18 300.561C393.761 303.766 398.589 300.967 400.439 297.582C401.703 295.234 401.432 292.706 399.808 291.623C395.16 288.508 388.571 292.165 388.526 292.21C388.12 292.435 387.579 292.3 387.308 291.894C387.082 291.487 387.218 290.946 387.624 290.675C387.94 290.494 395.205 286.431 400.755 290.178C403.192 291.803 403.688 295.279 401.974 298.439C400.394 301.374 397.01 303.676 392.407 303.676Z" fill="#262424"/>
<path d="M441.864 292.526L453.957 279.479L482.431 231.222C482.431 231.222 480.446 223.638 480.446 220.523C480.446 217.408 486.493 206.438 489.065 205.58C491.637 204.723 491.14 207.522 490.734 208.921C490.328 210.32 488.794 213.706 488.794 213.706L489.696 218.537C489.696 218.537 499.714 214.293 501.068 212.849C502.422 211.404 505.49 201.743 506.393 200.66C507.295 199.576 508.829 202.646 508.829 202.646C508.829 202.646 512.485 206.754 514.019 209.914C515.508 213.074 510.68 229.371 509.597 230.138C508.514 230.906 495.472 237.406 495.472 237.406C495.472 237.406 481.529 284.626 477.829 289.998C474.173 295.325 452.784 317.264 452.784 317.264L441.864 292.526Z" fill="white"/>
<path d="M452.739 318.122C452.694 318.122 452.649 318.122 452.604 318.122C452.333 318.077 452.107 317.896 451.972 317.625L441.052 292.887C440.916 292.571 440.961 292.21 441.187 291.984L453.19 279.028L481.484 231.131C481.078 229.597 479.543 223.412 479.543 220.568C479.543 217.092 485.771 205.806 488.749 204.813C490.057 204.407 490.825 204.768 491.231 205.129C491.998 205.851 492.088 207.251 491.501 209.192C491.14 210.456 490.012 213.029 489.651 213.842L490.328 217.408C494.164 215.738 499.624 213.21 500.436 212.352C501.068 211.675 502.467 208.109 503.46 205.49C504.633 202.511 505.265 200.75 505.761 200.209C506.077 199.802 506.528 199.622 507.024 199.712C508.153 199.847 509.145 201.518 509.551 202.285C510.093 202.917 513.342 206.664 514.786 209.689C515.734 211.675 514.651 217.092 513.613 221.29C513.522 221.651 511.356 230.093 510.093 230.996C509.055 231.718 498.541 237 496.194 238.174C494.796 242.823 482.115 285.438 478.551 290.63C474.895 295.957 454.273 317.083 453.416 317.986C453.19 318.031 452.965 318.122 452.739 318.122ZM442.857 292.706L453.055 315.819C457.116 311.666 473.993 294.196 477.152 289.591C480.717 284.4 494.525 237.722 494.66 237.271C494.705 237.045 494.886 236.865 495.111 236.774C500.211 234.201 508.062 230.229 509.055 229.597C510.273 228.017 514.515 213.074 513.252 210.366C511.808 207.341 508.243 203.323 508.198 203.278C508.153 203.233 508.107 203.143 508.062 203.098C507.746 202.421 507.25 201.698 506.934 201.427C506.528 202.105 505.716 204.271 505.039 206.077C503.55 210.005 502.467 212.668 501.7 213.526C500.301 215.015 491.772 218.672 490.057 219.394C489.832 219.485 489.561 219.485 489.335 219.349C489.11 219.214 488.974 219.033 488.884 218.762L487.982 213.932C487.937 213.751 487.982 213.571 488.027 213.435C488.027 213.39 489.516 210.14 489.922 208.786C490.328 207.341 490.238 206.574 490.103 206.393C490.057 206.348 489.832 206.303 489.335 206.483C487.215 207.161 481.303 217.589 481.303 220.613C481.303 223.593 483.244 231.041 483.289 231.086C483.334 231.312 483.334 231.538 483.198 231.718L454.725 279.976C454.679 280.021 454.679 280.066 454.634 280.111L442.857 292.706Z" fill="#262424"/>
<path d="M411.766 310.131L442.586 288.011L458.109 316.09L426.522 344.846C416.459 341.28 404.681 329.362 411.766 310.131Z" fill="#25A9EE"/>
<path d="M423.724 344.53C423.588 344.53 423.453 344.485 423.318 344.44C414.112 339.835 405.132 328.55 410.186 311.937C410.322 311.486 410.818 311.215 411.269 311.35C411.72 311.486 411.991 311.982 411.856 312.434C407.118 327.963 415.06 338.346 424.085 342.86C424.536 343.086 424.671 343.582 424.491 344.034C424.356 344.35 424.04 344.53 423.724 344.53Z" fill="#262424"/>
<path d="M451.069 318.167C450.754 318.167 450.438 317.986 450.302 317.67L437.848 293.474C437.622 293.022 437.803 292.526 438.209 292.3C438.66 292.074 439.156 292.255 439.382 292.661L451.837 316.858C452.062 317.309 451.882 317.806 451.476 318.032C451.34 318.122 451.205 318.167 451.069 318.167Z" fill="#262424"/>
<path d="M520.968 360.466L515.463 365.973C514.109 367.328 511.988 367.328 510.635 365.973L497.052 352.385C495.698 351.031 495.698 348.909 497.052 347.555L502.557 342.048C503.911 340.693 506.032 340.693 507.386 342.048L520.968 355.636C522.322 356.945 522.322 359.112 520.968 360.466Z" fill="black"/>
<path d="M533.513 319.295L542.041 327.827C545.2 330.987 545.2 336.179 542.041 339.339L530.219 351.166C528.639 352.746 526.112 352.746 524.533 351.166L511.221 337.849C510.454 337.082 510.048 336.089 510.048 335.005V315.278C510.048 314.014 511.041 313.021 512.304 313.021C513.207 313.021 514.064 313.562 514.38 314.42L519.524 327.15L527.421 319.25C529.136 317.625 531.843 317.625 533.513 319.295Z" fill="black"/>
<path d="M225.992 255.968L181.617 268.202L189.374 296.361L233.749 284.127L225.992 255.968Z" fill="#25A9EE"/>
<path d="M225.942 255.96C224.633 258.172 223.234 260.294 221.925 262.506C220.572 264.673 219.173 266.794 217.819 268.961C216.375 271.173 214.931 273.43 213.487 275.597C213.442 275.687 213.397 275.733 213.352 275.823C212.043 277.764 210.78 279.705 209.471 281.646L209.29 281.917L208.975 281.782C206.854 280.789 204.733 279.75 202.657 278.757C202.567 278.712 202.522 278.712 202.431 278.667C200.04 277.538 197.648 276.365 195.257 275.191C193 274.062 190.699 272.934 188.443 271.76C186.186 270.586 183.885 269.413 181.629 268.194C183.93 269.142 186.232 270.18 188.533 271.128C190.834 272.121 193.136 273.159 195.437 274.198C198.009 275.326 200.536 276.545 203.108 277.719C205.004 278.622 206.944 279.525 208.839 280.382C210.012 278.622 211.186 276.861 212.404 275.146C213.983 272.798 215.563 270.496 217.187 268.194C218.631 266.117 220.075 264.086 221.519 262.009C223.008 260.023 224.452 257.946 225.942 255.96Z" fill="white"/>
<path d="M203.333 278.351L203.288 278.396C203.108 278.667 202.927 278.938 202.747 279.163C201.889 280.427 200.987 281.646 200.084 282.82C198.956 284.31 197.828 285.709 196.655 287.154C195.481 288.553 194.263 289.953 193.045 291.352C191.826 292.706 190.563 294.061 189.209 295.37C190.247 293.835 191.33 292.345 192.458 290.855C193.586 289.366 194.759 287.966 195.888 286.522C197.061 285.122 198.279 283.723 199.498 282.323C200.49 281.24 201.483 280.157 202.521 279.073C202.747 278.847 203.017 278.577 203.243 278.351C203.288 278.396 203.288 278.396 203.333 278.351Z" fill="white"/>
<path d="M233.341 283.226C231.536 282.82 229.777 282.278 228.017 281.736C226.257 281.195 224.497 280.608 222.782 279.976C221.067 279.344 219.308 278.712 217.593 278.035C216.194 277.493 214.795 276.906 213.441 276.274C213.125 276.139 212.855 276.003 212.584 275.868C212.539 275.868 212.539 275.823 212.539 275.823C212.584 275.823 212.584 275.823 212.629 275.823C212.99 275.913 213.306 276.003 213.622 276.094C215.066 276.455 216.465 276.861 217.864 277.312C219.623 277.854 221.383 278.441 223.098 279.073C224.813 279.705 226.573 280.337 228.287 281.014C230.002 281.691 231.672 282.414 233.341 283.226Z" fill="white"/>
<path d="M237.809 113.263C237.809 113.263 246.834 112.09 252.519 103.558L259.559 110.6C259.559 110.6 253.693 122.157 239.027 122.473L237.809 113.263Z" fill="#25A9EE"/>
<path d="M235.507 387.867C235.507 387.867 239.794 395.903 249.767 398.25L245.66 407.279C245.66 407.279 232.8 405.879 227.34 392.201L235.507 387.867Z" fill="black"/>
<path d="M490.057 412.245C490.057 412.245 485.771 404.209 475.798 401.862L479.904 392.833C479.904 392.833 492.765 394.233 498.225 407.911L490.057 412.245Z" fill="#25A9EE"/>
<path d="M535.273 193.256C535.273 193.256 539.56 201.292 549.532 203.639L545.426 212.668C545.426 212.668 532.565 211.268 527.105 197.59L535.273 193.256Z" fill="#25A9EE"/>
<path d="M290.334 37.5137C292.997 36.34 295.118 34.2183 296.291 31.5548L297.825 28.0337L299.359 31.5548C300.533 34.2183 302.653 36.34 305.316 37.5137L308.836 39.0486L305.316 40.5834C302.653 41.7571 300.533 43.8788 299.359 46.5423L297.825 50.0634L296.291 46.5423C295.118 43.8788 292.997 41.7571 290.334 40.5834L286.815 39.0486L290.334 37.5137Z" fill="black"/>
<path d="M201.573 187.253C203.83 186.259 205.635 184.454 206.627 182.197L207.936 179.217L209.245 182.197C210.237 184.454 212.042 186.259 214.299 187.253L217.277 188.562L214.299 189.871C212.042 190.864 210.237 192.67 209.245 194.927L207.936 197.906L206.627 194.927C205.635 192.67 203.83 190.864 201.573 189.871L198.595 188.562L201.573 187.253Z" fill="black"/>
<path d="M232.935 503.885C234.921 503.027 236.5 501.447 237.357 499.461L238.486 496.842L239.614 499.461C240.471 501.447 242.05 503.027 244.036 503.885L246.653 505.013L244.036 506.142C242.05 506.999 240.471 508.579 239.614 510.566L238.486 513.184L237.357 510.566C236.5 508.579 234.921 506.999 232.935 506.142L230.318 505.013L232.935 503.885Z" fill="#25A9EE"/>
<path d="M512.395 107.756C515.192 106.537 517.403 104.325 518.622 101.526L520.246 97.8246L521.871 101.526C523.089 104.325 525.3 106.537 528.098 107.756L531.798 109.381L528.098 111.006C525.3 112.225 523.089 114.437 521.871 117.236L520.246 120.938L518.622 117.236C517.403 114.437 515.192 112.225 512.395 111.006L508.694 109.381L512.395 107.756Z" fill="black"/>
<path d="M483.966 50.0182C488.277 50.0182 491.772 46.5217 491.772 42.2085C491.772 37.8953 488.277 34.3988 483.966 34.3988C479.654 34.3988 476.159 37.8953 476.159 42.2085C476.159 46.5217 479.654 50.0182 483.966 50.0182Z" fill="#25A9EE"/>
<path d="M520.246 477.657C523.561 477.657 526.248 474.969 526.248 471.653C526.248 468.337 523.561 465.649 520.246 465.649C516.932 465.649 514.245 468.337 514.245 471.653C514.245 474.969 516.932 477.657 520.246 477.657Z" fill="#25A9EE"/>
<path d="M547.998 446.824C547.321 446.147 546.599 445.515 545.922 444.837L546.644 444.025C547.366 444.702 548.043 445.379 548.765 446.011L547.998 446.824Z" fill="#263238"/>
<path d="M538.477 561.622L538.431 560.538C540.372 560.493 542.312 560.358 544.208 560.177L544.298 561.261C542.402 561.441 540.417 561.577 538.477 561.622ZM531.166 561.487C529.271 561.396 527.286 561.216 525.345 560.99L525.481 559.907C527.421 560.132 529.361 560.313 531.257 560.403L531.166 561.487ZM551.518 560.132L551.292 559.049C553.187 558.643 555.083 558.146 556.843 557.604L557.158 558.643C555.353 559.229 553.458 559.726 551.518 560.132ZM518.125 559.907C516.275 559.545 514.335 559.139 512.394 558.688L512.665 557.649C514.56 558.101 516.456 558.507 518.306 558.823L518.125 559.907ZM505.355 556.837C503.505 556.295 501.655 555.708 499.805 555.076L500.166 554.038C502.016 554.67 503.866 555.257 505.671 555.798L505.355 556.837ZM564.017 556.024L563.566 555.031C565.326 554.219 566.996 553.271 568.575 552.277L569.162 553.18C567.537 554.219 565.822 555.166 564.017 556.024ZM492.946 552.548C491.141 551.826 489.336 551.104 487.576 550.336L488.027 549.343C489.787 550.111 491.592 550.833 493.397 551.555L492.946 552.548ZM575.028 548.756L574.306 547.944C575.705 546.635 577.059 545.235 578.232 543.79L579.089 544.468C577.826 546.002 576.472 547.447 575.028 548.756ZM480.942 547.312C479.228 546.499 477.468 545.596 475.708 544.693L476.204 543.745C477.964 544.648 479.679 545.506 481.394 546.318L480.942 547.312ZM469.345 541.262C467.63 540.314 465.961 539.321 464.336 538.328L464.878 537.38C466.502 538.373 468.172 539.321 469.887 540.269L469.345 541.262ZM583.15 538.373L582.203 537.877C583.105 536.206 583.872 534.446 584.549 532.64L585.587 533.001C584.865 534.852 584.053 536.658 583.15 538.373ZM458.109 534.491C456.485 533.408 454.86 532.369 453.281 531.241L453.912 530.338C455.492 531.421 457.116 532.505 458.741 533.543L458.109 534.491ZM447.369 527.042C445.79 525.869 444.256 524.695 442.721 523.521L443.398 522.664C444.933 523.837 446.467 525.011 448.001 526.14L447.369 527.042ZM587.392 525.914L586.309 525.733C586.625 523.882 586.806 521.986 586.896 520.045L587.979 520.09C587.934 522.032 587.708 524.018 587.392 525.914ZM437.036 519.007C435.547 517.788 434.057 516.524 432.568 515.26L433.29 514.448C434.734 515.712 436.223 516.931 437.713 518.195L437.036 519.007ZM586.715 512.823C586.535 510.972 586.264 509.031 585.903 507.135L586.986 506.909C587.347 508.85 587.663 510.791 587.843 512.687L586.715 512.823ZM427.153 510.43C425.709 509.121 424.31 507.812 422.866 506.503L423.588 505.69C424.987 506.999 426.431 508.308 427.83 509.617L427.153 510.43ZM417.632 501.537C416.233 500.183 414.879 498.828 413.48 497.474L414.248 496.707C415.601 498.061 417 499.415 418.399 500.769L417.632 501.537ZM584.143 500.137C583.602 498.332 582.97 496.526 582.248 494.675L583.241 494.269C583.963 496.12 584.594 497.97 585.136 499.776L584.143 500.137ZM408.336 492.283C406.982 490.928 405.629 489.529 404.275 488.129L405.042 487.362C406.396 488.761 407.75 490.161 409.103 491.515L408.336 492.283ZM579.36 488.084C578.548 486.369 577.645 484.653 576.698 482.938L577.645 482.396C578.593 484.112 579.495 485.872 580.308 487.588L579.36 488.084ZM399.221 482.893C397.867 481.493 396.559 480.094 395.205 478.695L395.972 477.927C397.326 479.326 398.634 480.726 399.988 482.125L399.221 482.893ZM573.042 476.708C572.05 475.128 570.967 473.503 569.839 471.923L570.741 471.291C571.869 472.916 572.952 474.541 573.99 476.121L573.042 476.708ZM390.241 473.458L386.225 469.26L386.992 468.492L391.008 472.69L390.241 473.458ZM565.507 466.1C564.333 464.61 563.115 463.12 561.851 461.585L562.664 460.908C563.927 462.443 565.191 463.933 566.319 465.423L565.507 466.1ZM381.216 463.978C379.862 462.579 378.554 461.179 377.2 459.825L377.967 459.057C379.321 460.457 380.675 461.856 381.983 463.256L381.216 463.978ZM557.068 456.168C555.805 454.769 554.451 453.369 553.097 451.97L553.864 451.203C555.263 452.602 556.572 454.047 557.88 455.446L557.068 456.168ZM372.101 454.633C370.747 453.279 369.393 451.88 367.994 450.525L368.762 449.758C370.16 451.157 371.514 452.512 372.868 453.866L372.101 454.633ZM362.805 445.469C361.406 444.115 360.052 442.806 358.608 441.452L359.376 440.684C360.774 442.039 362.173 443.393 363.572 444.702L362.805 445.469ZM353.329 436.486C351.93 435.177 350.486 433.868 349.042 432.559L349.764 431.746C351.208 433.055 352.652 434.364 354.051 435.673L353.329 436.486ZM343.627 427.773C342.183 426.509 340.694 425.245 339.205 423.981L339.927 423.169C341.416 424.433 342.905 425.697 344.349 426.961L343.627 427.773ZM333.654 419.377C332.165 418.158 330.676 416.939 329.142 415.765L329.819 414.908C331.353 416.126 332.842 417.345 334.331 418.564L333.654 419.377ZM323.411 411.296C321.877 410.122 320.342 408.994 318.763 407.82L319.395 406.963C320.974 408.136 322.508 409.265 324.043 410.439L323.411 411.296ZM312.897 403.577C311.317 402.448 309.738 401.365 308.159 400.281L308.79 399.379C310.415 400.507 311.994 401.59 313.574 402.719L312.897 403.577ZM302.112 396.219C300.533 395.18 298.908 394.097 297.238 393.059L297.825 392.156C299.495 393.194 301.119 394.277 302.699 395.316L302.112 396.219ZM291.101 389.221C289.477 388.228 287.807 387.235 286.138 386.242L286.679 385.294C288.349 386.287 290.018 387.28 291.643 388.273L291.101 389.221ZM279.865 382.585C278.196 381.637 276.526 380.689 274.811 379.741L275.353 378.793C277.068 379.741 278.737 380.689 280.407 381.637L279.865 382.585ZM268.449 376.31C266.734 375.408 265.019 374.505 263.304 373.647L263.801 372.699C265.561 373.602 267.275 374.505 268.945 375.363L268.449 376.31ZM256.806 370.352C255.092 369.494 253.332 368.681 251.572 367.824L252.023 366.83C253.783 367.688 255.543 368.501 257.258 369.359L256.806 370.352ZM245.029 364.754C243.269 363.941 241.509 363.174 239.749 362.361L240.2 361.368C242.005 362.181 243.765 362.948 245.48 363.761L245.029 364.754ZM233.116 359.472C231.356 358.705 229.551 357.983 227.746 357.215L228.152 356.222C229.957 356.989 231.762 357.712 233.522 358.479L233.116 359.472Z" fill="#263238"/>
<path d="M220.661 354.371C219.759 354.01 218.856 353.649 217.954 353.288L218.36 352.295C219.262 352.656 220.165 353.017 221.067 353.378L220.661 354.371Z" fill="#263238"/>
<path d="M224.136 336.224L233.702 362.497L213.622 346.833L136.819 318.934L224.136 336.224Z" fill="#25A9EE"/>
<path opacity="0.1" d="M224.136 336.224L233.702 362.497L213.622 346.833L136.819 318.934L224.136 336.224Z" fill="black"/>
<path d="M211.004 352.927L233.702 362.497L213.622 346.832L211.004 352.927Z" fill="#263238"/>
<path d="M213.622 346.833L136.819 318.934L199.813 380.419L213.622 346.833Z" fill="#25A9EE"/>
<path d="M224.136 336.224L256.039 315.594L136.819 318.934L224.136 336.224Z" fill="#25A9EE"/>
</svg>
