<svg width="1997" height="433" viewBox="0 0 1997 433" fill="none" xmlns="http://www.w3.org/2000/svg">
<path d="M428.927 291.258C442.59 302.839 459.254 308.63 478.951 308.63C493.959 308.63 506.965 305.955 517.97 300.573C528.975 295.192 539.793 287.324 550.486 276.908L586.003 308.63C573.34 323.735 558.239 335.82 540.731 344.883C523.223 353.947 502.306 358.479 477.951 358.479C458.942 358.479 441.183 355.111 424.675 348.408C408.167 341.705 393.817 332.295 381.655 320.211C369.493 308.126 359.894 293.618 352.891 276.656C345.887 259.725 342.386 240.843 342.386 220.009C342.386 200.875 345.544 182.937 351.89 166.132C358.237 149.359 367.148 134.662 378.653 122.074C390.159 109.486 403.728 99.5097 419.423 92.1142C435.087 84.7501 452.439 81.0366 471.448 81.0366C492.458 81.0366 510.873 84.9075 526.724 92.6177C542.544 100.359 555.738 110.745 566.243 123.836C576.748 136.928 584.658 152.191 590.005 169.657C595.351 187.123 598.009 205.407 598.009 224.541C598.009 227.216 597.915 229.923 597.758 232.597C597.571 235.304 597.321 238.136 597.008 241.157H402.915C406.573 262.998 415.233 279.677 428.927 291.258ZM537.98 200.875C536.979 191.151 534.822 181.993 531.477 173.433C528.131 164.873 523.629 157.478 517.97 151.278C512.311 145.079 505.558 140.138 497.71 136.424C489.863 132.742 480.952 130.886 470.948 130.886C452.282 130.886 436.837 137.337 424.675 150.271C412.513 163.206 405.072 180.074 402.415 200.875H537.98Z" fill="#161616"/>
<path d="M857.6 433V308.126C847.939 321.91 835.902 333.649 821.426 343.373C806.951 353.097 789.067 357.975 767.776 357.975C752.143 357.975 737.011 354.954 722.347 348.912C707.715 342.869 694.74 333.9 683.422 321.973C672.105 310.077 662.975 295.538 655.972 278.418C649 261.298 645.498 241.661 645.498 219.506C645.498 197.351 648.906 177.713 655.722 160.593C662.537 143.474 671.604 128.966 682.922 117.039C694.24 105.111 707.278 96.1424 722.097 90.1001C736.917 84.0578 752.112 81.0366 767.744 81.0366C789.38 81.0366 807.326 85.7572 821.645 95.1353C835.965 104.545 847.939 115.465 857.569 127.864V86.6069H918.598V433H857.6ZM852.347 184.291C848.189 173.905 842.624 164.905 835.652 157.352C828.68 149.799 820.52 144.009 811.234 139.98C801.917 135.952 792.287 133.938 782.314 133.938C772.028 133.938 762.304 135.889 753.144 139.729C744.014 143.6 735.948 149.201 728.976 156.597C722.004 163.992 716.501 172.961 712.53 183.535C708.528 194.109 706.559 206.1 706.559 219.537C706.559 232.629 708.56 244.462 712.53 255.036C716.501 265.61 722.004 274.579 728.976 281.974C735.948 289.37 744.014 295.066 753.144 299.094C762.273 303.122 771.996 305.136 782.314 305.136C792.287 305.136 801.917 303.122 811.234 299.094C820.551 295.066 828.68 289.275 835.652 281.723C842.624 274.17 848.189 265.201 852.347 254.784C856.506 244.399 858.6 232.629 858.6 219.537C858.6 206.414 856.506 194.676 852.347 184.291Z" fill="#161616"/>
<path d="M1167.22 86.6072H1228.25V352.437H1167.22V310.738C1158.59 323.61 1147.77 334.687 1134.79 344.003C1121.82 353.318 1105.19 357.975 1084.93 357.975C1055.01 357.975 1031.87 348.755 1015.58 330.281C999.292 311.808 991.132 286.978 991.132 255.76V86.6072H1052.16V237.287C1052.16 258.057 1057.04 274.044 1066.79 285.248C1076.55 296.451 1090.34 302.084 1108.22 302.084C1125.73 302.084 1139.95 296.325 1150.86 284.744C1161.78 273.194 1167.22 257.05 1167.22 236.28V86.6072Z" fill="#161616"/>
<path d="M1376.29 291.258C1389.95 302.839 1406.62 308.63 1426.31 308.63C1441.32 308.63 1454.33 305.955 1465.33 300.573C1476.34 295.192 1487.16 287.324 1497.85 276.908L1533.37 308.63C1520.7 323.735 1505.6 335.82 1488.09 344.883C1470.58 353.947 1449.67 358.479 1425.31 358.479C1406.3 358.479 1388.55 355.111 1372.04 348.408C1355.53 341.705 1341.18 332.295 1329.02 320.211C1316.85 308.126 1307.26 293.618 1300.25 276.656C1293.25 259.725 1289.75 240.843 1289.75 220.009C1289.75 200.875 1292.91 182.937 1299.25 166.132C1305.57 149.359 1314.51 134.662 1326.02 122.074C1337.52 109.486 1351.09 99.5097 1366.79 92.1142C1382.45 84.7501 1399.8 81.0366 1418.81 81.0366C1439.82 81.0366 1458.24 84.9075 1474.09 92.6177C1489.91 100.359 1503.1 110.745 1513.61 123.836C1524.11 136.928 1532.02 152.191 1537.37 169.657C1542.71 187.123 1545.37 205.407 1545.37 224.541C1545.37 227.216 1545.28 229.923 1545.12 232.597C1544.93 235.304 1544.68 238.136 1544.37 241.157H1350.28C1353.94 262.998 1362.63 279.677 1376.29 291.258ZM1485.34 200.875C1484.34 191.151 1482.18 181.993 1478.84 173.433C1475.49 164.873 1470.99 157.478 1465.33 151.278C1459.67 145.079 1452.92 140.138 1445.07 136.424C1437.23 132.742 1428.31 130.886 1418.31 130.886C1399.64 130.886 1384.2 137.337 1372.04 150.271C1359.88 163.206 1352.43 180.074 1349.78 200.875H1485.34Z" fill="#161616"/>
<path d="M1787.45 310.644C1782.45 321.06 1775.54 329.683 1766.69 336.575C1757.85 343.467 1747.43 348.66 1735.43 352.184C1723.42 355.709 1710.57 357.471 1696.91 357.471C1677.9 357.471 1658.64 354.104 1639.13 347.401C1619.62 340.698 1601.52 330.785 1584.86 317.693L1611.87 276.404C1626.19 287.167 1640.79 295.286 1655.64 300.825C1670.46 306.364 1684.72 309.133 1698.41 309.133C1711.42 309.133 1721.48 306.521 1728.68 301.328C1735.83 296.136 1739.43 289.149 1739.43 280.432V279.425C1739.43 274.39 1737.84 270.047 1734.68 266.333C1731.52 262.651 1727.17 259.378 1721.67 256.515C1716.17 253.651 1709.82 251.133 1702.66 248.962C1695.5 246.79 1688.06 244.524 1680.4 242.164C1670.74 239.143 1660.99 235.776 1651.14 232.094C1641.29 228.412 1632.47 223.628 1624.63 217.743C1616.78 211.89 1610.37 204.652 1605.37 196.092C1600.36 187.532 1597.86 176.895 1597.86 164.118V163.111C1597.86 150.712 1600.27 139.445 1605.12 129.375C1609.93 119.304 1616.62 110.744 1625.13 103.695C1633.63 96.6457 1643.63 91.2957 1655.14 87.5822C1666.65 83.9002 1678.9 82.0435 1691.91 82.0435C1708.57 82.0435 1725.42 84.7184 1742.43 90.0998C1759.44 95.4813 1774.95 102.845 1788.95 112.255L1764.94 155.558C1752.28 147.848 1739.43 141.711 1726.42 137.179C1713.42 132.648 1701.41 130.382 1690.41 130.382C1678.71 130.382 1669.65 132.899 1663.14 137.935C1656.64 142.97 1653.39 149.358 1653.39 157.069V158.076C1653.39 162.796 1655.05 166.887 1658.39 170.412C1661.71 173.937 1666.15 177.115 1671.65 179.979C1677.15 182.843 1683.5 185.518 1690.66 188.035C1697.82 190.553 1705.23 192.976 1712.92 195.336C1722.58 198.358 1732.24 201.882 1741.93 205.91C1751.59 209.939 1760.35 214.911 1768.19 220.764C1776.01 226.649 1782.45 233.762 1787.45 242.164C1792.46 250.567 1794.96 260.795 1794.96 272.879V273.886C1794.96 287.985 1792.46 300.258 1787.45 310.644Z" fill="#161616"/>
<path d="M1925.02 269.26C1925.02 281.062 1927.86 289.559 1933.52 294.751C1939.18 299.975 1947.18 302.587 1957.53 302.587C1970.54 302.587 1983.04 299.566 1995.05 293.524V343.373C1987.36 347.747 1979.2 351.114 1970.54 353.443C1961.85 355.772 1951.87 356.968 1940.52 356.968C1929.52 356.968 1919.29 355.615 1909.88 352.94C1900.47 350.265 1892.31 345.89 1885.4 339.817C1878.52 333.743 1873.21 325.781 1869.52 315.836C1865.83 305.923 1863.99 293.555 1863.99 278.733V138.47H1830.47V86.6067H1863.99V13.5957H1925.02V86.6067H1996.05V138.47H1925.02V269.26V269.26Z" fill="#161616"/>
<path d="M77.037 69.9899H153.574C156.231 69.9899 158.764 70.0843 161.234 70.2417L231.299 13.784C211.696 4.62613 187.965 0 160.077 0H0V200.151L77.037 138.092V69.9899Z" fill="url(#paint0_linear)"/>
<path d="M217.073 226.555C239.396 218.152 257.499 204.997 271.349 187.028C285.168 169.058 292.109 145.833 292.109 117.29V116.283C292.109 85.316 283.761 60.1398 267.16 40.7227L205.568 90.3827C211.227 98.1559 214.072 108.132 214.072 120.342V121.35C214.072 136.455 208.975 148.54 198.814 157.603C188.653 166.667 174.052 171.198 155.043 171.198H105.301L0 256.042V352.467H77.037V239.646H137.566L212.602 352.436H302.646L217.073 226.555Z" fill="url(#paint1_linear)"/>
<defs>
<linearGradient id="paint0_linear" x1="0" y1="100.081" x2="231.298" y2="100.081" gradientUnits="userSpaceOnUse">
<stop stop-color="#836FFF"/>
<stop offset="1" stop-color="#E486EC"/>
</linearGradient>
<linearGradient id="paint1_linear" x1="0" y1="196.589" x2="302.621" y2="196.589" gradientUnits="userSpaceOnUse">
<stop stop-color="#836FFF"/>
<stop offset="1" stop-color="#E486EC"/>
</linearGradient>
</defs>
</svg>
