<?xml version="1.0" standalone="no"?>
<!DOCTYPE svg PUBLIC "-//W3C//DTD SVG 20010904//EN"
 "http://www.w3.org/TR/2001/REC-SVG-20010904/DTD/svg10.dtd">
<svg version="1.0" xmlns="http://www.w3.org/2000/svg"
 width="832.000000pt" height="832.000000pt" viewBox="0 0 832.000000 832.000000"
 preserveAspectRatio="xMidYMid meet">
<metadata>
Created by potrace 1.14, written by Peter Selinger 2001-2017
</metadata>
<g transform="translate(0.000000,832.000000) scale(0.100000,-0.100000)"
fill="#000000" stroke="none">
<path d="M809 8160 l-46 -5 0 -2262 c0 -1907 2 -2263 14 -2263 7 0 16 7 19 15
4 8 11 15 18 15 6 0 18 9 26 20 8 11 20 20 26 20 7 0 14 3 16 8 2 4 25 25 53
47 27 22 55 45 61 50 6 6 25 21 43 35 18 14 38 30 44 35 7 6 35 28 62 50 28
22 52 42 55 45 3 3 50 41 105 84 55 44 109 88 120 98 18 16 95 77 174 138 18
14 42 34 55 45 36 31 59 50 246 200 96 76 177 142 180 145 3 3 21 17 42 32 20
15 42 33 50 40 7 7 81 67 163 133 83 66 156 126 163 133 11 10 14 153 15 780
l2 767 935 1 c514 0 944 -3 956 -7 16 -6 33 4 75 41 30 27 58 49 62 50 4 0 18
11 31 25 13 14 28 25 35 25 6 0 11 4 11 8 0 5 19 22 43 39 23 17 56 44 74 60
17 15 77 64 134 108 56 44 107 85 113 90 10 10 94 77 124 100 7 6 21 17 30 25
9 9 40 33 67 55 28 22 55 44 61 50 6 5 28 24 49 40 152 119 261 208 263 216 2
5 8 9 13 9 9 0 37 21 68 51 9 8 72 60 141 115 69 54 130 103 136 109 6 5 25
21 42 34 18 13 32 27 32 30 0 3 -15 12 -32 20 -18 7 -52 22 -76 32 -49 22
-172 70 -187 73 -5 1 -14 4 -20 8 -8 4 -129 41 -215 64 -21 6 -140 33 -170 39
-14 3 -36 7 -50 10 -14 2 -36 7 -50 10 -35 7 -89 15 -135 20 -22 2 -40 5 -40
6 0 0 -13 2 -30 4 -16 1 -52 5 -80 9 -94 11 -160 17 -270 22 -92 4 -156 5
-335 2 -8 0 -105 1 -215 1 -110 1 -237 0 -283 -1 -45 -2 -82 -1 -82 2 0 4
-273 4 -365 -1 -16 0 -120 -1 -230 0 -110 1 -237 0 -283 -1 -45 -2 -82 -1 -82
2 0 4 -271 4 -365 -1 -16 0 -124 -1 -240 0 -115 0 -217 0 -225 0 -8 0 -121 0
-250 0 -129 0 -244 0 -255 0 -11 -1 -112 0 -225 0 -113 1 -237 1 -277 0 -39
-1 -75 0 -80 3 -4 2 -29 1 -54 -2z"/>
<path d="M6768 7192 c-25 -20 -63 -52 -85 -69 -21 -18 -103 -85 -183 -149
-175 -139 -205 -163 -233 -188 -12 -10 -38 -30 -57 -45 -19 -14 -42 -33 -51
-41 -10 -8 -24 -20 -31 -25 -68 -52 -105 -81 -113 -91 -5 -6 -30 -26 -55 -45
-25 -18 -50 -38 -56 -44 -6 -5 -28 -23 -50 -40 -60 -47 -217 -173 -234 -187
-14 -13 -56 -47 -119 -96 -81 -65 -77 -55 -44 -109 40 -65 88 -167 92 -196 0
-4 7 -23 15 -42 9 -20 15 -39 16 -43 0 -4 3 -20 6 -37 3 -16 7 -39 9 -50 2
-11 4 -20 5 -20 6 0 14 -144 14 -260 0 -190 -14 -278 -66 -430 -23 -67 -68
-158 -80 -163 -4 -2 -8 -9 -8 -15 0 -20 -110 -155 -173 -212 -153 -138 -379
-246 -587 -280 -19 -3 -47 -8 -63 -11 -41 -8 -90 -13 -205 -19 -57 -2 -106 -6
-110 -9 -4 -2 -15 -1 -25 3 -10 4 -44 4 -77 1 -32 -3 -70 -3 -83 1 -14 4 -28
5 -31 2 -4 -4 -236 -5 -311 -2 -5 1 -39 0 -75 -1 -36 -1 -69 -1 -75 0 -5 1
-14 1 -20 0 -8 -2 -112 -1 -150 1 -5 1 -39 0 -75 -1 -36 -1 -69 -1 -75 0 -5 1
-14 1 -20 0 -5 -1 -42 -2 -82 -2 l-72 1 -78 -62 c-43 -34 -84 -68 -91 -75 -8
-7 -30 -25 -50 -40 -21 -15 -39 -29 -42 -32 -3 -4 -39 -33 -80 -65 -41 -33
-77 -62 -80 -65 -4 -5 -551 -444 -575 -462 -24 -18 -112 -91 -138 -113 -15
-14 -30 -25 -33 -25 -3 0 -11 -6 -18 -12 -14 -14 -58 -50 -151 -124 -33 -27
-61 -52 -63 -56 -2 -4 -8 -8 -13 -8 -5 0 -17 -8 -27 -18 -11 -9 -28 -24 -38
-32 -64 -51 -320 -256 -324 -260 -3 -3 -27 -23 -55 -45 -27 -22 -55 -44 -62
-50 -7 -5 -18 -15 -25 -20 -172 -137 -214 -170 -218 -175 -3 -3 -39 -32 -80
-65 -41 -32 -77 -62 -80 -65 -3 -3 -18 -16 -35 -29 l-30 -23 -1 -1089 c-1
-744 2 -1092 10 -1096 5 -4 398 -7 873 -7 l863 -1 1 30 c0 17 1 591 1 1278 l1
1247 46 1 c25 1 50 1 55 0 5 -1 41 -2 80 -2 39 1 121 0 181 0 61 0 117 0 125
0 8 0 44 0 80 0 36 -1 70 -1 75 -1 57 2 214 3 221 1 5 -1 14 -1 19 0 12 2 290
2 302 0 4 -1 13 -1 18 1 6 1 44 1 85 0 60 -1 78 -5 93 -21 10 -10 14 -19 10
-19 -4 0 0 -5 10 -11 9 -5 17 -15 17 -20 0 -6 8 -21 18 -34 9 -12 23 -31 30
-41 7 -11 28 -41 46 -69 19 -27 42 -65 51 -82 10 -18 21 -33 26 -33 5 0 9 -4
9 -9 0 -6 43 -73 95 -150 52 -78 95 -145 95 -150 0 -5 4 -11 8 -13 11 -4 192
-276 192 -288 0 -5 4 -10 8 -12 11 -4 72 -97 72 -109 0 -5 3 -9 8 -9 4 0 25
-29 47 -65 22 -36 43 -65 47 -65 4 0 8 -4 8 -10 0 -5 46 -78 103 -162 56 -84
105 -161 109 -171 4 -9 12 -17 18 -17 5 0 10 -5 10 -11 0 -6 29 -54 65 -106
36 -52 65 -99 65 -103 0 -5 3 -10 8 -12 4 -2 61 -84 126 -183 65 -99 123 -182
127 -183 5 -2 9 -8 9 -14 0 -5 56 -94 125 -196 l125 -187 1013 2 c1118 1 1046
0 1032 11 -6 4 -40 50 -75 102 -94 140 -104 155 -112 158 -5 2 -8 8 -8 14 0 6
-15 31 -34 57 -35 48 -97 139 -261 381 -54 80 -135 198 -179 263 -45 65 -85
125 -91 135 -5 9 -13 19 -16 22 -3 3 -12 16 -19 29 -7 14 -17 30 -22 35 -16
19 -138 197 -138 202 0 3 -8 14 -18 25 -11 10 -25 32 -33 47 -8 15 -16 29 -20
32 -3 3 -63 91 -134 195 -70 105 -132 192 -137 193 -4 2 -8 8 -8 12 0 11 -171
264 -182 268 -4 2 -8 8 -8 13 0 5 -12 27 -27 48 -16 21 -35 49 -43 61 -8 12
-27 40 -42 61 -16 21 -28 43 -28 48 0 5 -4 11 -8 13 -5 2 -60 80 -123 173 -62
94 -117 172 -121 173 -5 2 -8 10 -8 18 0 8 -4 14 -10 14 -5 0 -10 7 -10 15 0
8 -5 15 -11 15 -13 0 -6 25 7 26 5 0 23 6 39 14 17 7 46 20 65 28 69 29 236
113 295 147 33 19 66 38 74 41 37 19 256 171 301 211 8 7 37 32 65 56 73 62
233 222 296 297 29 35 60 71 67 78 6 7 26 35 44 60 17 26 35 49 40 50 4 2 8 8
8 14 0 5 14 29 30 54 80 115 230 456 256 579 2 11 22 88 30 120 8 32 16 73 35
185 27 160 41 338 42 535 0 122 -9 321 -18 385 -3 19 -7 55 -10 80 -2 25 -6
54 -9 65 -2 11 -7 42 -10 69 -4 27 -9 53 -11 56 -3 4 -7 22 -9 41 -4 29 -13
66 -41 169 -2 8 -4 15 -5 15 -1 0 -3 8 -5 17 -4 23 -24 88 -35 113 -4 11 -18
47 -30 80 -68 183 -226 459 -322 566 -10 10 -18 23 -18 27 0 9 -43 53 -51 51
-2 0 -25 -17 -51 -37z"/>
</g>
</svg>
