<?xml version="1.0" encoding="utf-8"?>
<!-- Generator: Adobe Illustrator 25.2.0, SVG Export Plug-In . SVG Version: 6.00 Build 0)  -->
<svg version="1.1" id="Layer_1" xmlns="http://www.w3.org/2000/svg" xmlns:xlink="http://www.w3.org/1999/xlink" x="0px" y="0px"
	 viewBox="0 0 249.7 194" style="enable-background:new 0 0 249.7 194;" xml:space="preserve">
<style type="text/css">
	.st0{fill:#FFFFFF;}
	.st1{fill:#EB3838;}
	.st2{fill:#A6A6A6;}
	.st3{fill:#FF8989;}
	.st4{fill:#EEA9A9;}
	.st5{fill:#2085B9;}
	.st6{fill:#25A9EE;}
</style>
<g>
	<path class="st0" d="M15.4,3.8h219.3c5.5,0,10,4.5,10,10V179c0,5.5-4.5,10-10,10H15.4c-5.5,0-10-4.5-10-10V13.8
		C5.4,8.3,9.9,3.8,15.4,3.8z"/>
</g>
<path d="M26.8,29V16.3h2.8v10.4h5.7V29H26.8z M41,29.1c-0.9,0-1.8-0.2-2.5-0.6c-0.7-0.4-1.3-0.9-1.6-1.6c-0.4-0.7-0.6-1.5-0.6-2.4
	c0-0.9,0.2-1.7,0.6-2.4c0.4-0.7,0.9-1.2,1.6-1.6s1.5-0.6,2.5-0.6s1.8,0.2,2.5,0.6s1.3,0.9,1.6,1.6c0.4,0.7,0.6,1.5,0.6,2.4
	c0,0.9-0.2,1.8-0.6,2.4c-0.4,0.7-0.9,1.2-1.6,1.6C42.8,28.9,41.9,29.1,41,29.1z M41,27c1.3,0,2-0.8,2-2.5c0-0.9-0.2-1.5-0.5-1.9
	C42.1,22.2,41.6,22,41,22c-1.3,0-2,0.8-2,2.5C39,26.2,39.7,27,41,27z M53.7,22.1l-1.5,0.2c-0.8,0.1-1.3,0.3-1.6,0.6
	c-0.3,0.3-0.5,0.8-0.5,1.4V29h-2.7v-8.8H50v1.5c0.4-1,1.4-1.6,2.8-1.7l0.8-0.1L53.7,22.1z M62.5,25.1h-5.8c0.1,0.7,0.3,1.2,0.7,1.5
	c0.4,0.3,0.9,0.5,1.6,0.5c0.5,0,0.9-0.1,1.3-0.2c0.5-0.2,0.9-0.4,1.2-0.6l0.7,1.8c-0.4,0.3-1,0.6-1.6,0.8c-0.6,0.2-1.2,0.3-1.9,0.3
	c-1.5,0-2.7-0.4-3.5-1.2c-0.9-0.8-1.3-1.9-1.3-3.4c0-0.9,0.2-1.7,0.6-2.4c0.4-0.7,0.9-1.2,1.5-1.6c0.7-0.4,1.4-0.6,2.2-0.6
	c1.2,0,2.2,0.4,2.9,1.2c0.7,0.8,1.1,1.9,1.1,3.3V25.1z M58.6,21.8c-0.5,0-0.9,0.2-1.2,0.5c-0.3,0.3-0.5,0.8-0.6,1.4h3.5
	c0-0.6-0.2-1.1-0.5-1.4C59.5,21.9,59.1,21.8,58.6,21.8z M75.1,19.9c1,0,1.8,0.3,2.2,0.9s0.7,1.5,0.7,2.8V29h-2.7v-5.2
	c0-0.6-0.1-1-0.3-1.3c-0.2-0.3-0.5-0.4-0.9-0.4c-0.5,0-0.9,0.2-1.2,0.5c-0.3,0.4-0.4,0.9-0.4,1.5V29h-2.7v-5.2c0-0.6-0.1-1-0.3-1.3
	C69.4,22.2,69,22,68.6,22c-0.5,0-0.9,0.2-1.2,0.5c-0.3,0.4-0.4,0.9-0.4,1.5V29h-2.7v-8.8h2.6v1.2c0.3-0.5,0.6-0.8,1.1-1
	c0.5-0.2,1-0.4,1.6-0.4c1.3,0,2.2,0.5,2.6,1.6c0.3-0.5,0.7-0.9,1.2-1.2C73.9,20.1,74.5,19.9,75.1,19.9z M85.4,29v-8.8h2.7V29H85.4z
	 M85.3,15.9h2.9v2.5h-2.9V15.9z M95.7,19.9c0.8,0,1.4,0.2,2,0.6c0.6,0.4,1.1,0.9,1.4,1.6c0.3,0.7,0.5,1.5,0.5,2.4s-0.2,1.7-0.5,2.4
	c-0.3,0.7-0.8,1.2-1.4,1.6c-0.6,0.4-1.3,0.6-2,0.6c-0.6,0-1.1-0.1-1.6-0.4c-0.5-0.3-0.9-0.6-1.1-1v4.5h-2.7V20.1H93v1.2
	c0.3-0.5,0.6-0.8,1.1-1.1C94.6,20,95.1,19.9,95.7,19.9z M95,27c0.6,0,1.1-0.2,1.5-0.6c0.3-0.4,0.5-1.1,0.5-1.9
	c0-0.8-0.2-1.4-0.5-1.9C96.1,22.2,95.6,22,95,22s-1.1,0.2-1.5,0.7c-0.3,0.4-0.5,1.1-0.5,1.9c0,0.8,0.2,1.4,0.5,1.9
	C93.8,26.8,94.3,27,95,27z M104.8,29.1c-0.8,0-1.6-0.1-2.2-0.3c-0.7-0.2-1.3-0.5-1.7-0.8l0.7-1.9c0.5,0.3,1,0.6,1.6,0.8
	c0.6,0.2,1.2,0.3,1.7,0.3c0.4,0,0.7-0.1,1-0.2c0.2-0.1,0.4-0.3,0.4-0.6c0-0.2-0.1-0.4-0.3-0.5c-0.2-0.1-0.5-0.2-0.9-0.3l-1.4-0.3
	c-0.9-0.2-1.5-0.5-1.9-0.9c-0.4-0.4-0.6-1-0.6-1.7c0-0.6,0.2-1,0.5-1.5c0.3-0.4,0.8-0.8,1.3-1c0.6-0.2,1.3-0.4,2-0.4
	c0.6,0,1.3,0.1,1.9,0.3c0.6,0.2,1.1,0.5,1.6,0.8l-0.7,1.8c-0.9-0.6-1.9-1-2.8-1c-0.4,0-0.8,0.1-1,0.2c-0.2,0.1-0.4,0.3-0.4,0.6
	c0,0.2,0.1,0.3,0.2,0.4s0.4,0.2,0.8,0.3l1.5,0.3c0.9,0.2,1.6,0.5,2,0.9c0.4,0.4,0.6,1,0.6,1.7c0,0.9-0.3,1.5-1,2
	C106.9,28.9,106,29.1,104.8,29.1z M118.8,20.1V29h-2.6v-1.3c-0.3,0.5-0.6,0.8-1.1,1c-0.4,0.2-0.9,0.4-1.5,0.4
	c-1.1,0-1.9-0.3-2.5-0.9c-0.5-0.6-0.8-1.6-0.8-2.8v-5.3h2.7v5.3c0,0.5,0.1,0.9,0.3,1.2c0.2,0.3,0.6,0.4,1,0.4c0.5,0,1-0.2,1.3-0.5
	c0.3-0.4,0.5-0.8,0.5-1.4v-4.9H118.8z M131.8,19.9c1,0,1.8,0.3,2.2,0.9s0.7,1.5,0.7,2.8V29h-2.7v-5.2c0-0.6-0.1-1-0.3-1.3
	c-0.2-0.3-0.5-0.4-0.9-0.4c-0.5,0-0.9,0.2-1.2,0.5c-0.3,0.4-0.4,0.9-0.4,1.5V29h-2.7v-5.2c0-0.6-0.1-1-0.3-1.3
	c-0.2-0.3-0.5-0.4-0.9-0.4c-0.5,0-0.9,0.2-1.2,0.5c-0.3,0.4-0.4,0.9-0.4,1.5V29H121v-8.8h2.6v1.2c0.3-0.5,0.6-0.8,1.1-1
	c0.5-0.2,1-0.4,1.6-0.4c1.3,0,2.2,0.5,2.6,1.6c0.3-0.5,0.7-0.9,1.2-1.2C130.6,20.1,131.2,19.9,131.8,19.9z"/>
<path class="st1" d="M203.3,60.7v0.9h-2v2h-0.9v-2h-2v-0.9h2v-2h0.9v2H203.3z M207.9,62.9h1.5v1h-4.3v-1h1.5v-4.5l-1.2,0.7l-0.5-0.9
	l2.1-1.3h0.9V62.9z M213.4,59.4c0.4,0,0.8,0.1,1.2,0.3c0.3,0.2,0.6,0.5,0.8,0.8c0.2,0.3,0.3,0.7,0.3,1.2c0,0.5-0.1,0.9-0.3,1.2
	c-0.2,0.4-0.5,0.6-0.9,0.8c-0.4,0.2-0.8,0.3-1.4,0.3c-0.4,0-0.9-0.1-1.3-0.2c-0.4-0.2-0.8-0.4-1.1-0.6l0.4-0.9
	c0.6,0.5,1.3,0.7,2,0.7c0.4,0,0.8-0.1,1-0.3c0.2-0.2,0.4-0.5,0.4-0.9c0-0.4-0.1-0.7-0.4-0.9c-0.2-0.2-0.6-0.3-1-0.3
	c-0.3,0-0.5,0.1-0.8,0.2c-0.2,0.1-0.5,0.2-0.6,0.4h-0.8v-4.1h4.4v1h-3.2v1.9C212.5,59.6,212.9,59.4,213.4,59.4z M219.2,64.2
	l-0.8-0.5l4.1-7.1l0.8,0.5L219.2,64.2z M218.3,61.1c-0.6,0-1-0.2-1.3-0.6c-0.3-0.4-0.5-0.9-0.5-1.6c0-0.7,0.2-1.2,0.5-1.6
	c0.3-0.4,0.8-0.6,1.3-0.6c0.6,0,1,0.2,1.3,0.6c0.3,0.4,0.5,0.9,0.5,1.6c0,0.7-0.2,1.2-0.5,1.6C219.3,60.9,218.9,61.1,218.3,61.1z
	 M218.3,60.3c0.3,0,0.4-0.1,0.5-0.3c0.1-0.2,0.2-0.6,0.2-1c0-0.5-0.1-0.8-0.2-1c-0.1-0.2-0.3-0.3-0.5-0.3c-0.2,0-0.4,0.1-0.6,0.3
	c-0.1,0.2-0.2,0.5-0.2,1c0,0.5,0.1,0.8,0.2,1C217.9,60.2,218.1,60.3,218.3,60.3z M223.4,64c-0.6,0-1-0.2-1.3-0.6
	c-0.3-0.4-0.5-0.9-0.5-1.6c0-0.7,0.2-1.2,0.5-1.6c0.3-0.4,0.8-0.5,1.3-0.5c0.6,0,1,0.2,1.3,0.5c0.3,0.4,0.5,0.9,0.5,1.6
	c0,0.7-0.2,1.2-0.5,1.6C224.4,63.8,223.9,64,223.4,64z M223.4,63.2c0.2,0,0.4-0.1,0.5-0.3c0.1-0.2,0.2-0.6,0.2-1
	c0-0.5-0.1-0.8-0.2-1c-0.1-0.2-0.3-0.3-0.5-0.3c-0.2,0-0.4,0.1-0.6,0.3s-0.2,0.6-0.2,1c0,0.5,0.1,0.8,0.2,1
	C222.9,63.1,223.1,63.2,223.4,63.2z"/>
<path d="M63.6,61v-7h1.3v6h3.3V61H63.6z M71.4,61c-0.5,0-0.9-0.1-1.3-0.3c-0.4-0.2-0.7-0.5-0.9-0.9c-0.2-0.4-0.3-0.8-0.3-1.3
	s0.1-1,0.3-1.3c0.2-0.4,0.5-0.7,0.9-0.9c0.4-0.2,0.8-0.3,1.3-0.3s0.9,0.1,1.3,0.3c0.4,0.2,0.7,0.5,0.9,0.9c0.2,0.4,0.3,0.8,0.3,1.3
	s-0.1,1-0.3,1.3c-0.2,0.4-0.5,0.7-0.9,0.9C72.3,60.9,71.9,61,71.4,61z M71.4,60.1c0.4,0,0.7-0.1,0.9-0.4c0.2-0.3,0.3-0.7,0.3-1.2
	c0-0.5-0.1-0.9-0.3-1.2c-0.2-0.3-0.5-0.4-0.9-0.4s-0.7,0.1-0.9,0.4c-0.2,0.3-0.3,0.7-0.3,1.2c0,0.5,0.1,0.9,0.3,1.2
	C70.6,59.9,71,60.1,71.4,60.1z M78.2,57l-0.7,0.1c-0.8,0.1-1.2,0.5-1.2,1.3V61H75v-4.9h1.2v0.9c0.3-0.6,0.8-0.9,1.6-1l0.4,0L78.2,57
	z M83.1,58.7h-3.3c0,0.5,0.2,0.8,0.4,1c0.2,0.2,0.6,0.3,1,0.3c0.5,0,1-0.2,1.5-0.5l0.4,0.9c-0.2,0.2-0.5,0.3-0.9,0.5
	c-0.3,0.1-0.7,0.2-1,0.2c-0.8,0-1.4-0.2-1.9-0.7c-0.5-0.5-0.7-1.1-0.7-1.9c0-0.5,0.1-0.9,0.3-1.3c0.2-0.4,0.5-0.7,0.8-0.9
	c0.4-0.2,0.8-0.3,1.2-0.3c0.7,0,1.2,0.2,1.6,0.6c0.4,0.4,0.6,1,0.6,1.8V58.7z M81,56.8c-0.3,0-0.6,0.1-0.8,0.3
	c-0.2,0.2-0.3,0.5-0.4,0.9H82c0-0.4-0.1-0.7-0.3-0.9C81.6,56.9,81.3,56.8,81,56.8z M90,55.9c0.6,0,1,0.2,1.2,0.5
	c0.3,0.3,0.4,0.8,0.4,1.5v3h-1.2v-3c0-0.4-0.1-0.6-0.2-0.8c-0.1-0.2-0.3-0.3-0.6-0.3c-0.3,0-0.6,0.1-0.8,0.3c-0.2,0.2-0.3,0.5-0.3,1
	V61h-1.2v-3c0-0.4-0.1-0.6-0.2-0.8c-0.1-0.2-0.3-0.3-0.6-0.3c-0.3,0-0.6,0.1-0.8,0.3c-0.2,0.2-0.3,0.5-0.3,1V61h-1.2v-4.9h1.2v0.7
	c0.1-0.3,0.3-0.5,0.6-0.6c0.3-0.1,0.6-0.2,0.9-0.2c0.7,0,1.2,0.3,1.5,0.9c0.2-0.3,0.4-0.5,0.7-0.7C89.4,56,89.7,55.9,90,55.9z
	 M95.9,61v-4.9h1.2V61H95.9z M95.8,53.8h1.4V55h-1.4V53.8z M101.3,55.9c0.4,0,0.8,0.1,1.1,0.3c0.3,0.2,0.6,0.5,0.8,0.9
	c0.2,0.4,0.3,0.8,0.3,1.3s-0.1,1-0.3,1.3c-0.2,0.4-0.4,0.7-0.8,0.9c-0.3,0.2-0.7,0.3-1.1,0.3c-0.3,0-0.7-0.1-0.9-0.2
	c-0.3-0.1-0.5-0.3-0.6-0.6v2.6h-1.2v-6.7h1.2v0.7c0.1-0.3,0.4-0.5,0.6-0.6C100.7,56,101,55.9,101.3,55.9z M101,60.1
	c0.4,0,0.7-0.1,0.9-0.4c0.2-0.3,0.3-0.7,0.3-1.1c0-0.5-0.1-0.9-0.3-1.2c-0.2-0.3-0.5-0.4-0.9-0.4c-0.4,0-0.7,0.1-0.9,0.4
	c-0.2,0.3-0.3,0.7-0.3,1.2c0,0.5,0.1,0.9,0.3,1.2C100.3,59.9,100.6,60.1,101,60.1z M106.4,61c-0.4,0-0.8-0.1-1.2-0.2
	c-0.4-0.1-0.7-0.3-0.9-0.5l0.3-0.9c0.5,0.4,1.1,0.6,1.8,0.6c0.3,0,0.5,0,0.7-0.1c0.2-0.1,0.2-0.2,0.2-0.4c0-0.1-0.1-0.3-0.2-0.3
	c-0.1-0.1-0.3-0.2-0.6-0.2l-0.8-0.2c-0.5-0.1-0.8-0.3-1-0.5s-0.3-0.5-0.3-0.9c0-0.3,0.1-0.6,0.2-0.8c0.2-0.2,0.4-0.4,0.7-0.5
	c0.3-0.1,0.7-0.2,1.1-0.2c0.3,0,0.7,0.1,1,0.2c0.3,0.1,0.6,0.3,0.9,0.4l-0.3,0.9c-0.5-0.4-1-0.5-1.5-0.5c-0.3,0-0.5,0-0.6,0.1
	c-0.2,0.1-0.2,0.2-0.2,0.4c0,0.1,0,0.2,0.1,0.3c0.1,0.1,0.3,0.2,0.5,0.2l0.8,0.2c0.5,0.1,0.8,0.3,1.1,0.5c0.2,0.2,0.3,0.5,0.3,0.9
	c0,0.5-0.2,0.8-0.5,1.1C107.5,60.9,107,61,106.4,61z M114.1,56.1V61h-1.2v-0.8c-0.2,0.3-0.4,0.5-0.6,0.6c-0.3,0.1-0.6,0.2-0.9,0.2
	c-1.2,0-1.8-0.7-1.8-2v-2.9h1.3v3c0,0.3,0.1,0.6,0.2,0.8c0.1,0.2,0.4,0.2,0.7,0.2c0.3,0,0.6-0.1,0.8-0.3c0.2-0.2,0.3-0.5,0.3-0.9
	v-2.7H114.1z M121.3,55.9c0.6,0,1,0.2,1.2,0.5c0.3,0.3,0.4,0.8,0.4,1.5v3h-1.2v-3c0-0.4-0.1-0.6-0.2-0.8c-0.1-0.2-0.3-0.3-0.6-0.3
	c-0.3,0-0.6,0.1-0.8,0.3c-0.2,0.2-0.3,0.5-0.3,1V61h-1.2v-3c0-0.4-0.1-0.6-0.2-0.8c-0.1-0.2-0.3-0.3-0.6-0.3c-0.3,0-0.6,0.1-0.8,0.3
	c-0.2,0.2-0.3,0.5-0.3,1V61h-1.2v-4.9h1.2v0.7c0.1-0.3,0.4-0.5,0.6-0.6c0.3-0.1,0.6-0.2,0.9-0.2c0.7,0,1.2,0.3,1.5,0.9
	c0.2-0.3,0.4-0.5,0.7-0.7C120.6,56,120.9,55.9,121.3,55.9z"/>
<path class="st2" d="M63.7,74v-7.1h0.8v6.4H68V74H63.7z M71.1,74c-0.5,0-0.9-0.1-1.2-0.3c-0.3-0.2-0.6-0.5-0.8-0.9
	c-0.2-0.4-0.3-0.8-0.3-1.3s0.1-1,0.3-1.3c0.2-0.4,0.5-0.7,0.8-0.9c0.4-0.2,0.8-0.3,1.2-0.3s0.9,0.1,1.2,0.3c0.4,0.2,0.6,0.5,0.8,0.9
	c0.2,0.4,0.3,0.8,0.3,1.3s-0.1,1-0.3,1.3c-0.2,0.4-0.5,0.7-0.8,0.9C71.9,73.9,71.5,74,71.1,74z M71.1,73.4c0.5,0,0.8-0.2,1.1-0.5
	c0.3-0.3,0.4-0.8,0.4-1.4c0-0.6-0.1-1.1-0.4-1.4c-0.3-0.3-0.6-0.5-1.1-0.5c-0.5,0-0.8,0.2-1.1,0.5c-0.3,0.3-0.4,0.8-0.4,1.4
	c0,0.6,0.1,1.1,0.4,1.4C70.2,73.2,70.6,73.4,71.1,73.4z M77.5,69.7l-0.5,0.1c-0.5,0-0.9,0.2-1.1,0.5c-0.2,0.3-0.3,0.6-0.3,1V74h-0.8
	v-4.9h0.8v0.9c0.3-0.6,0.8-0.9,1.6-1l0.3,0L77.5,69.7z M82.3,71.6h-3.6c0,0.6,0.2,1,0.5,1.3c0.3,0.3,0.7,0.4,1.2,0.4
	c0.6,0,1.1-0.2,1.6-0.6l0.3,0.6c-0.2,0.2-0.5,0.4-0.8,0.5c-0.3,0.1-0.7,0.2-1,0.2c-0.8,0-1.4-0.2-1.8-0.7c-0.4-0.4-0.7-1.1-0.7-1.8
	c0-0.5,0.1-0.9,0.3-1.3c0.2-0.4,0.5-0.7,0.8-0.9c0.4-0.2,0.8-0.3,1.2-0.3c0.6,0,1.2,0.2,1.5,0.6c0.4,0.4,0.6,1,0.6,1.7V71.6z
	 M80.2,69.6c-0.4,0-0.8,0.1-1,0.4c-0.3,0.3-0.4,0.6-0.4,1.1h2.8c0-0.5-0.1-0.9-0.4-1.1C81,69.7,80.7,69.6,80.2,69.6z M89,69
	c1.1,0,1.6,0.6,1.6,1.9V74h-0.8v-3c0-0.4-0.1-0.8-0.2-1c-0.2-0.2-0.4-0.3-0.8-0.3c-0.4,0-0.7,0.1-1,0.4c-0.2,0.3-0.3,0.6-0.3,1.1V74
	h-0.8v-3c0-0.5-0.1-0.8-0.2-1c-0.2-0.2-0.4-0.3-0.8-0.3c-0.4,0-0.7,0.1-1,0.4c-0.2,0.3-0.3,0.6-0.3,1.1V74h-0.8v-4.9h0.8v0.8
	c0.1-0.3,0.4-0.5,0.6-0.7c0.3-0.2,0.6-0.2,0.9-0.2c0.8,0,1.2,0.3,1.5,1c0.1-0.3,0.4-0.5,0.6-0.7C88.3,69.1,88.6,69,89,69z M94.9,74
	v-4.9h0.8V74H94.9z M94.8,67h1v0.9h-1V67z M99.8,69c0.4,0,0.8,0.1,1.1,0.3c0.3,0.2,0.6,0.5,0.8,0.9c0.2,0.4,0.3,0.8,0.3,1.3
	c0,0.5-0.1,1-0.3,1.3c-0.2,0.4-0.4,0.7-0.8,0.9c-0.3,0.2-0.7,0.3-1.1,0.3c-0.4,0-0.7-0.1-1-0.2c-0.3-0.2-0.5-0.4-0.6-0.7v2.7h-0.8
	v-6.7h0.8v0.8c0.1-0.3,0.4-0.5,0.6-0.7C99,69,99.4,69,99.8,69z M99.6,73.4c0.5,0,0.8-0.2,1.1-0.5c0.3-0.3,0.4-0.8,0.4-1.4
	s-0.1-1-0.4-1.4c-0.3-0.3-0.6-0.5-1.1-0.5c-0.5,0-0.8,0.2-1.1,0.5c-0.3,0.3-0.4,0.8-0.4,1.4s0.1,1.1,0.4,1.4
	C98.8,73.2,99.1,73.4,99.6,73.4z M104.9,74c-0.8,0-1.5-0.2-2-0.6l0.3-0.6c0.3,0.2,0.5,0.4,0.8,0.5c0.3,0.1,0.6,0.1,0.9,0.1
	c0.4,0,0.6-0.1,0.8-0.2c0.2-0.1,0.3-0.3,0.3-0.5c0-0.2-0.1-0.3-0.2-0.5c-0.1-0.1-0.3-0.2-0.6-0.3l-0.8-0.2c-0.4-0.1-0.7-0.3-1-0.5
	s-0.3-0.5-0.3-0.8c0-0.4,0.2-0.8,0.5-1c0.3-0.3,0.8-0.4,1.4-0.4c0.3,0,0.7,0.1,1,0.2c0.3,0.1,0.6,0.3,0.8,0.5l-0.3,0.6
	c-0.4-0.4-0.9-0.6-1.5-0.6c-0.3,0-0.6,0.1-0.8,0.2c-0.2,0.1-0.3,0.3-0.3,0.5c0,0.2,0.1,0.3,0.2,0.5c0.1,0.1,0.3,0.2,0.6,0.3l0.8,0.2
	c0.5,0.1,0.8,0.3,1,0.5c0.2,0.2,0.3,0.5,0.3,0.8c0,0.4-0.2,0.8-0.5,1C105.9,73.9,105.5,74,104.9,74z M112.2,69.1V74h-0.8v-0.8
	c-0.2,0.3-0.4,0.5-0.7,0.7c-0.3,0.2-0.6,0.2-0.9,0.2c-0.6,0-1-0.2-1.3-0.5c-0.3-0.3-0.4-0.8-0.4-1.4v-3h0.8v3c0,0.4,0.1,0.8,0.3,1
	c0.2,0.2,0.4,0.3,0.8,0.3c0.4,0,0.8-0.1,1-0.4c0.3-0.3,0.4-0.6,0.4-1.1v-2.8H112.2z M119.3,69c1.1,0,1.6,0.6,1.6,1.9V74h-0.8v-3
	c0-0.4-0.1-0.8-0.2-1c-0.2-0.2-0.4-0.3-0.8-0.3c-0.4,0-0.7,0.1-1,0.4c-0.2,0.3-0.4,0.6-0.4,1.1V74H117v-3c0-0.5-0.1-0.8-0.2-1
	c-0.2-0.2-0.4-0.3-0.8-0.3c-0.4,0-0.7,0.1-1,0.4c-0.2,0.3-0.4,0.6-0.4,1.1V74h-0.8v-4.9h0.8v0.8c0.1-0.3,0.3-0.5,0.6-0.7
	c0.3-0.2,0.6-0.2,0.9-0.2c0.8,0,1.2,0.3,1.5,1c0.1-0.3,0.4-0.5,0.6-0.7C118.6,69.1,118.9,69,119.3,69z"/>
<path class="st3" d="M26.7,52h22c2.8,0,5,2.2,5,5v18c0,2.8-2.2,5-5,5h-22c-2.8,0-5-2.2-5-5V57C21.7,54.2,23.9,52,26.7,52z"/>
<path class="st4" d="M46.3,58.6c0-0.8-0.7-1.5-1.5-1.5H31.3c-0.8,0-1.5,0.7-1.5,1.5c0,0.8,0.7,1.5,1.5,1.5h12v12
	c0,0.8,0.7,1.5,1.5,1.5c0.8,0,1.5-0.7,1.5-1.5V58.6z M31.7,73.9l14.2-14.2l-2.1-2.1L29.5,71.8L31.7,73.9z"/>
<path class="st1" d="M203.3,145.7v0.9h-2v2h-0.9v-2h-2v-0.9h2v-2h0.9v2H203.3z M207.9,147.9h1.5v1h-4.3v-1h1.5v-4.5l-1.2,0.7
	l-0.5-0.9l2.1-1.3h0.9V147.9z M213.4,144.4c0.4,0,0.8,0.1,1.2,0.3c0.3,0.2,0.6,0.4,0.8,0.8c0.2,0.3,0.3,0.7,0.3,1.2
	c0,0.5-0.1,0.9-0.3,1.2c-0.2,0.4-0.5,0.6-0.9,0.8c-0.4,0.2-0.8,0.3-1.4,0.3c-0.4,0-0.9-0.1-1.3-0.2c-0.4-0.2-0.8-0.4-1.1-0.6
	l0.4-0.9c0.6,0.5,1.3,0.7,2,0.7c0.4,0,0.8-0.1,1-0.3c0.2-0.2,0.4-0.5,0.4-0.9c0-0.4-0.1-0.7-0.4-0.9c-0.2-0.2-0.6-0.4-1-0.4
	c-0.3,0-0.5,0.1-0.8,0.2c-0.2,0.1-0.5,0.2-0.6,0.4h-0.8v-4.2h4.4v1h-3.2v1.9C212.5,144.6,212.9,144.4,213.4,144.4z M219.2,149.2
	l-0.8-0.5l4.1-7.1l0.8,0.5L219.2,149.2z M218.3,146.1c-0.6,0-1-0.2-1.3-0.6c-0.3-0.4-0.5-0.9-0.5-1.6c0-0.7,0.2-1.2,0.5-1.6
	c0.3-0.4,0.8-0.5,1.3-0.5c0.6,0,1,0.2,1.3,0.5c0.3,0.4,0.5,0.9,0.5,1.6c0,0.7-0.2,1.2-0.5,1.6C219.3,145.9,218.9,146.1,218.3,146.1z
	 M218.3,145.3c0.3,0,0.4-0.1,0.5-0.3c0.1-0.2,0.2-0.6,0.2-1c0-0.5-0.1-0.8-0.2-1c-0.1-0.2-0.3-0.3-0.5-0.3c-0.2,0-0.4,0.1-0.6,0.3
	c-0.1,0.2-0.2,0.5-0.2,1c0,0.5,0.1,0.8,0.2,1C217.9,145.2,218.1,145.3,218.3,145.3z M223.4,149c-0.6,0-1-0.2-1.3-0.6
	c-0.3-0.4-0.5-0.9-0.5-1.6c0-0.7,0.2-1.2,0.5-1.6c0.3-0.4,0.8-0.6,1.3-0.6c0.6,0,1,0.2,1.3,0.6c0.3,0.4,0.5,0.9,0.5,1.6
	c0,0.7-0.2,1.2-0.5,1.6C224.4,148.8,223.9,149,223.4,149z M223.4,148.2c0.2,0,0.4-0.1,0.5-0.3c0.1-0.2,0.2-0.6,0.2-1
	c0-0.5-0.1-0.8-0.2-1c-0.1-0.2-0.3-0.3-0.5-0.3c-0.2,0-0.4,0.1-0.6,0.3s-0.2,0.6-0.2,1c0,0.5,0.1,0.8,0.2,1
	C222.9,148.1,223.1,148.2,223.4,148.2z"/>
<path d="M63.6,149v-7.1h1.3v6h3.3v1.1H63.6z M71.4,149c-0.5,0-0.9-0.1-1.3-0.3c-0.4-0.2-0.7-0.5-0.9-0.9c-0.2-0.4-0.3-0.8-0.3-1.4
	s0.1-1,0.3-1.3c0.2-0.4,0.5-0.7,0.9-0.9c0.4-0.2,0.8-0.3,1.3-0.3s0.9,0.1,1.3,0.3c0.4,0.2,0.7,0.5,0.9,0.9c0.2,0.4,0.3,0.8,0.3,1.3
	s-0.1,1-0.3,1.4c-0.2,0.4-0.5,0.7-0.9,0.9C72.3,148.9,71.9,149,71.4,149z M71.4,148.1c0.4,0,0.7-0.1,0.9-0.4
	c0.2-0.3,0.3-0.7,0.3-1.2c0-0.5-0.1-0.9-0.3-1.2c-0.2-0.3-0.5-0.4-0.9-0.4s-0.7,0.1-0.9,0.4c-0.2,0.3-0.3,0.7-0.3,1.2
	c0,0.5,0.1,0.9,0.3,1.2C70.6,147.9,71,148.1,71.4,148.1z M78.2,145l-0.7,0.1c-0.8,0.1-1.2,0.5-1.2,1.3v2.6H75v-4.9h1.2v0.9
	c0.3-0.6,0.8-0.9,1.6-1l0.4,0L78.2,145z M83.1,146.7h-3.3c0,0.5,0.2,0.8,0.4,1c0.2,0.2,0.6,0.3,1,0.3c0.5,0,1-0.2,1.5-0.5l0.4,0.9
	c-0.2,0.2-0.5,0.3-0.9,0.4c-0.3,0.1-0.7,0.2-1,0.2c-0.8,0-1.4-0.2-1.9-0.7c-0.5-0.5-0.7-1.1-0.7-1.9c0-0.5,0.1-0.9,0.3-1.3
	c0.2-0.4,0.5-0.7,0.8-0.9c0.4-0.2,0.8-0.3,1.2-0.3c0.7,0,1.2,0.2,1.6,0.6c0.4,0.4,0.6,1,0.6,1.8V146.7z M81,144.8
	c-0.3,0-0.6,0.1-0.8,0.3c-0.2,0.2-0.3,0.5-0.4,0.9H82c0-0.4-0.1-0.7-0.3-0.9C81.6,144.9,81.3,144.8,81,144.8z M90,143.9
	c0.6,0,1,0.2,1.2,0.5c0.3,0.3,0.4,0.8,0.4,1.5v3h-1.2V146c0-0.4-0.1-0.6-0.2-0.8c-0.1-0.2-0.3-0.3-0.6-0.3c-0.3,0-0.6,0.1-0.8,0.3
	c-0.2,0.2-0.3,0.5-0.3,0.9v2.7h-1.2V146c0-0.4-0.1-0.6-0.2-0.8c-0.1-0.2-0.3-0.3-0.6-0.3c-0.3,0-0.6,0.1-0.8,0.3
	c-0.2,0.2-0.3,0.5-0.3,0.9v2.7h-1.2v-4.9h1.2v0.7c0.1-0.3,0.3-0.5,0.6-0.6c0.3-0.1,0.6-0.2,0.9-0.2c0.7,0,1.2,0.3,1.5,0.9
	c0.2-0.3,0.4-0.5,0.7-0.7C89.4,144,89.7,143.9,90,143.9z M95.9,149v-4.9h1.2v4.9H95.9z M95.8,141.8h1.4v1.2h-1.4V141.8z
	 M101.3,143.9c0.4,0,0.8,0.1,1.1,0.3c0.3,0.2,0.6,0.5,0.8,0.9c0.2,0.4,0.3,0.8,0.3,1.3s-0.1,0.9-0.3,1.3c-0.2,0.4-0.4,0.7-0.8,0.9
	c-0.3,0.2-0.7,0.3-1.1,0.3c-0.3,0-0.7-0.1-0.9-0.2c-0.3-0.1-0.5-0.4-0.6-0.6v2.6h-1.2v-6.7h1.2v0.7c0.1-0.3,0.4-0.5,0.6-0.6
	C100.7,144,101,143.9,101.3,143.9z M101,148.1c0.4,0,0.7-0.1,0.9-0.4c0.2-0.3,0.3-0.7,0.3-1.2c0-0.5-0.1-0.9-0.3-1.2
	s-0.5-0.4-0.9-0.4c-0.4,0-0.7,0.1-0.9,0.4c-0.2,0.3-0.3,0.7-0.3,1.2c0,0.5,0.1,0.9,0.3,1.2C100.3,147.9,100.6,148.1,101,148.1z
	 M106.4,149c-0.4,0-0.8-0.1-1.2-0.2c-0.4-0.1-0.7-0.3-0.9-0.5l0.3-0.9c0.5,0.4,1.1,0.6,1.8,0.6c0.3,0,0.5,0,0.7-0.1
	c0.2-0.1,0.2-0.2,0.2-0.4c0-0.1-0.1-0.3-0.2-0.3c-0.1-0.1-0.3-0.2-0.6-0.2l-0.8-0.2c-0.5-0.1-0.8-0.3-1-0.5s-0.3-0.5-0.3-0.9
	c0-0.3,0.1-0.6,0.2-0.8c0.2-0.2,0.4-0.4,0.7-0.5c0.3-0.1,0.7-0.2,1.1-0.2c0.3,0,0.7,0.1,1,0.2c0.3,0.1,0.6,0.3,0.9,0.5l-0.3,0.8
	c-0.5-0.4-1-0.6-1.5-0.6c-0.3,0-0.5,0.1-0.6,0.2c-0.2,0.1-0.2,0.2-0.2,0.4c0,0.1,0,0.2,0.1,0.3c0.1,0.1,0.3,0.2,0.5,0.2l0.8,0.2
	c0.5,0.1,0.8,0.3,1.1,0.5c0.2,0.2,0.3,0.5,0.3,0.9c0,0.5-0.2,0.8-0.5,1.1C107.5,148.9,107,149,106.4,149z M114.1,144.1v4.9h-1.2
	v-0.8c-0.2,0.3-0.4,0.5-0.6,0.6c-0.3,0.1-0.6,0.2-0.9,0.2c-1.2,0-1.8-0.7-1.8-2v-2.9h1.3v3c0,0.3,0.1,0.6,0.2,0.8
	c0.1,0.2,0.4,0.2,0.7,0.2c0.3,0,0.6-0.1,0.8-0.3c0.2-0.2,0.3-0.5,0.3-0.9v-2.7H114.1z M121.3,143.9c0.6,0,1,0.2,1.2,0.5
	c0.3,0.3,0.4,0.8,0.4,1.5v3h-1.2V146c0-0.4-0.1-0.6-0.2-0.8c-0.1-0.2-0.3-0.3-0.6-0.3c-0.3,0-0.6,0.1-0.8,0.3
	c-0.2,0.2-0.3,0.5-0.3,0.9v2.7h-1.2V146c0-0.4-0.1-0.6-0.2-0.8c-0.1-0.2-0.3-0.3-0.6-0.3c-0.3,0-0.6,0.1-0.8,0.3
	c-0.2,0.2-0.3,0.5-0.3,0.9v2.7h-1.2v-4.9h1.2v0.7c0.1-0.3,0.4-0.5,0.6-0.6c0.3-0.1,0.6-0.2,0.9-0.2c0.7,0,1.2,0.3,1.5,0.9
	c0.2-0.3,0.4-0.5,0.7-0.7C120.6,144,120.9,143.9,121.3,143.9z"/>
<path class="st2" d="M63.7,162v-7.1h0.8v6.4H68v0.7H63.7z M71.1,162c-0.5,0-0.9-0.1-1.2-0.3c-0.3-0.2-0.6-0.5-0.8-0.9
	c-0.2-0.4-0.3-0.8-0.3-1.3c0-0.5,0.1-0.9,0.3-1.3c0.2-0.4,0.5-0.7,0.8-0.9c0.4-0.2,0.8-0.3,1.2-0.3s0.9,0.1,1.2,0.3
	c0.4,0.2,0.6,0.5,0.8,0.9c0.2,0.4,0.3,0.8,0.3,1.3c0,0.5-0.1,1-0.3,1.3c-0.2,0.4-0.5,0.7-0.8,0.9C71.9,161.9,71.5,162,71.1,162z
	 M71.1,161.4c0.5,0,0.8-0.2,1.1-0.5c0.3-0.3,0.4-0.8,0.4-1.4c0-0.6-0.1-1-0.4-1.4c-0.3-0.3-0.6-0.5-1.1-0.5c-0.5,0-0.8,0.2-1.1,0.5
	c-0.3,0.3-0.4,0.8-0.4,1.4c0,0.6,0.1,1.1,0.4,1.4C70.2,161.2,70.6,161.4,71.1,161.4z M77.5,157.7l-0.5,0c-0.5,0-0.9,0.2-1.1,0.5
	c-0.2,0.3-0.3,0.6-0.3,1v2.8h-0.8v-4.9h0.8v0.8c0.3-0.6,0.8-0.9,1.6-0.9l0.3,0L77.5,157.7z M82.3,159.6h-3.6c0,0.6,0.2,1,0.5,1.3
	c0.3,0.3,0.7,0.4,1.2,0.4c0.6,0,1.1-0.2,1.6-0.6l0.3,0.6c-0.2,0.2-0.5,0.4-0.8,0.5c-0.3,0.1-0.7,0.2-1,0.2c-0.8,0-1.4-0.2-1.8-0.7
	c-0.4-0.4-0.7-1.1-0.7-1.8c0-0.5,0.1-0.9,0.3-1.3c0.2-0.4,0.5-0.7,0.8-0.9c0.4-0.2,0.8-0.3,1.2-0.3c0.6,0,1.2,0.2,1.5,0.6
	c0.4,0.4,0.6,1,0.6,1.7V159.6z M80.2,157.6c-0.4,0-0.8,0.1-1,0.4c-0.3,0.3-0.4,0.6-0.4,1.1h2.8c0-0.5-0.1-0.9-0.4-1.1
	C81,157.7,80.7,157.6,80.2,157.6z M89,157c1.1,0,1.6,0.6,1.6,1.9v3.1h-0.8v-3c0-0.4-0.1-0.8-0.2-1c-0.2-0.2-0.4-0.3-0.8-0.3
	c-0.4,0-0.7,0.1-1,0.4c-0.2,0.3-0.3,0.6-0.3,1.1v2.8h-0.8v-3c0-0.5-0.1-0.8-0.2-1c-0.2-0.2-0.4-0.3-0.8-0.3c-0.4,0-0.7,0.1-1,0.4
	c-0.2,0.3-0.3,0.6-0.3,1.1v2.8h-0.8v-4.9h0.8v0.8c0.1-0.3,0.4-0.5,0.6-0.7c0.3-0.2,0.6-0.2,0.9-0.2c0.8,0,1.2,0.3,1.5,1
	c0.1-0.3,0.4-0.5,0.6-0.7C88.3,157.1,88.6,157,89,157z M94.9,162v-4.9h0.8v4.9H94.9z M94.8,155h1v0.9h-1V155z M99.8,157
	c0.4,0,0.8,0.1,1.1,0.3c0.3,0.2,0.6,0.5,0.8,0.9c0.2,0.4,0.3,0.8,0.3,1.3s-0.1,0.9-0.3,1.3c-0.2,0.4-0.4,0.7-0.8,0.9
	c-0.3,0.2-0.7,0.3-1.1,0.3c-0.4,0-0.7-0.1-1-0.2c-0.3-0.2-0.5-0.4-0.6-0.7v2.7h-0.8v-6.7h0.8v0.8c0.1-0.3,0.4-0.5,0.6-0.7
	C99,157,99.4,157,99.8,157z M99.6,161.4c0.5,0,0.8-0.2,1.1-0.5c0.3-0.3,0.4-0.8,0.4-1.4c0-0.6-0.1-1-0.4-1.4
	c-0.3-0.3-0.6-0.5-1.1-0.5c-0.5,0-0.8,0.2-1.1,0.5c-0.3,0.3-0.4,0.8-0.4,1.4c0,0.6,0.1,1.1,0.4,1.4
	C98.8,161.2,99.1,161.4,99.6,161.4z M104.9,162c-0.8,0-1.5-0.2-2-0.6l0.3-0.6c0.3,0.2,0.5,0.4,0.8,0.4c0.3,0.1,0.6,0.1,0.9,0.1
	c0.4,0,0.6-0.1,0.8-0.2c0.2-0.1,0.3-0.3,0.3-0.5c0-0.2-0.1-0.3-0.2-0.5c-0.1-0.1-0.3-0.2-0.6-0.3l-0.8-0.2c-0.4-0.1-0.7-0.3-1-0.5
	c-0.2-0.2-0.3-0.5-0.3-0.8c0-0.4,0.2-0.8,0.5-1.1c0.3-0.3,0.8-0.4,1.4-0.4c0.3,0,0.7,0.1,1,0.2c0.3,0.1,0.6,0.3,0.8,0.5l-0.3,0.6
	c-0.4-0.4-0.9-0.6-1.5-0.6c-0.3,0-0.6,0.1-0.8,0.2c-0.2,0.1-0.3,0.3-0.3,0.5c0,0.2,0.1,0.3,0.2,0.5c0.1,0.1,0.3,0.2,0.6,0.3l0.8,0.2
	c0.5,0.1,0.8,0.3,1,0.5c0.2,0.2,0.3,0.5,0.3,0.8c0,0.4-0.2,0.8-0.5,1C105.9,161.9,105.5,162,104.9,162z M112.2,157.1v4.9h-0.8v-0.8
	c-0.2,0.3-0.4,0.5-0.7,0.7c-0.3,0.2-0.6,0.2-0.9,0.2c-0.6,0-1-0.2-1.3-0.5c-0.3-0.3-0.4-0.8-0.4-1.4v-3h0.8v3c0,0.4,0.1,0.8,0.3,1
	c0.2,0.2,0.4,0.3,0.8,0.3c0.4,0,0.8-0.1,1-0.4c0.3-0.3,0.4-0.6,0.4-1.1v-2.8H112.2z M119.3,157c1.1,0,1.6,0.6,1.6,1.9v3.1h-0.8v-3
	c0-0.4-0.1-0.8-0.2-1c-0.2-0.2-0.4-0.3-0.8-0.3c-0.4,0-0.7,0.1-1,0.4c-0.2,0.3-0.4,0.6-0.4,1.1v2.8H117v-3c0-0.5-0.1-0.8-0.2-1
	c-0.2-0.2-0.4-0.3-0.8-0.3c-0.4,0-0.7,0.1-1,0.4c-0.2,0.3-0.4,0.6-0.4,1.1v2.8h-0.8v-4.9h0.8v0.8c0.1-0.3,0.3-0.5,0.6-0.7
	c0.3-0.2,0.6-0.2,0.9-0.2c0.8,0,1.2,0.3,1.5,1c0.1-0.3,0.4-0.5,0.6-0.7C118.6,157.1,118.9,157,119.3,157z"/>
<path class="st3" d="M26.7,138h24c2.8,0,5,2.2,5,5v20c0,2.8-2.2,5-5,5h-24c-2.8,0-5-2.2-5-5v-20C21.7,140.2,23.9,138,26.7,138z"/>
<path class="st4" d="M47.6,145.5c0-0.8-0.7-1.5-1.5-1.5H32.6c-0.8,0-1.5,0.7-1.5,1.5s0.7,1.5,1.5,1.5h12v12c0,0.8,0.7,1.5,1.5,1.5
	s1.5-0.7,1.5-1.5V145.5z M32.1,161.5l15-15l-2.1-2.1l-15,15L32.1,161.5z"/>
<path class="st5" d="M203.3,102.7v0.9h-2v2h-0.9v-2h-2v-0.9h2v-2h0.9v2H203.3z M207.9,104.9h1.5v1h-4.3v-1h1.5v-4.5l-1.2,0.7
	l-0.5-0.9l2.1-1.3h0.9V104.9z M213.4,101.4c0.4,0,0.8,0.1,1.2,0.3c0.3,0.2,0.6,0.5,0.8,0.8c0.2,0.3,0.3,0.7,0.3,1.2
	c0,0.5-0.1,0.9-0.3,1.2c-0.2,0.4-0.5,0.6-0.9,0.8c-0.4,0.2-0.8,0.3-1.4,0.3c-0.4,0-0.9-0.1-1.3-0.2c-0.4-0.2-0.8-0.4-1.1-0.6
	l0.4-0.9c0.6,0.5,1.3,0.7,2,0.7c0.4,0,0.8-0.1,1-0.3c0.2-0.2,0.4-0.5,0.4-0.9c0-0.4-0.1-0.7-0.4-0.9c-0.2-0.2-0.6-0.3-1-0.3
	c-0.3,0-0.5,0.1-0.8,0.2c-0.2,0.1-0.5,0.2-0.6,0.4h-0.8v-4.2h4.4v1h-3.2v1.9C212.5,101.6,212.9,101.4,213.4,101.4z M219.2,106.2
	l-0.8-0.5l4.1-7.1l0.8,0.5L219.2,106.2z M218.3,103.1c-0.6,0-1-0.2-1.3-0.6c-0.3-0.4-0.5-0.9-0.5-1.6c0-0.7,0.2-1.2,0.5-1.6
	c0.3-0.4,0.8-0.6,1.3-0.6c0.6,0,1,0.2,1.3,0.6c0.3,0.4,0.5,0.9,0.5,1.6c0,0.7-0.2,1.2-0.5,1.6C219.3,102.9,218.9,103.1,218.3,103.1z
	 M218.3,102.3c0.3,0,0.4-0.1,0.5-0.3c0.1-0.2,0.2-0.6,0.2-1c0-0.5-0.1-0.8-0.2-1c-0.1-0.2-0.3-0.3-0.5-0.3c-0.2,0-0.4,0.1-0.6,0.3
	c-0.1,0.2-0.2,0.5-0.2,1c0,0.5,0.1,0.8,0.2,1C217.9,102.2,218.1,102.3,218.3,102.3z M223.4,106c-0.6,0-1-0.2-1.3-0.6
	c-0.3-0.4-0.5-0.9-0.5-1.6c0-0.7,0.2-1.2,0.5-1.6c0.3-0.4,0.8-0.5,1.3-0.5c0.6,0,1,0.2,1.3,0.5c0.3,0.4,0.5,0.9,0.5,1.6
	c0,0.7-0.2,1.2-0.5,1.6C224.4,105.8,223.9,106,223.4,106z M223.4,105.2c0.2,0,0.4-0.1,0.5-0.3c0.1-0.2,0.2-0.6,0.2-1
	c0-0.5-0.1-0.8-0.2-1c-0.1-0.2-0.3-0.3-0.5-0.3c-0.2,0-0.4,0.1-0.6,0.3s-0.2,0.6-0.2,1c0,0.5,0.1,0.8,0.2,1
	C222.9,105.1,223.1,105.2,223.4,105.2z"/>
<path d="M63.6,103v-7.1h1.3v6h3.3v1.1H63.6z M71.4,103c-0.5,0-0.9-0.1-1.3-0.3c-0.4-0.2-0.7-0.5-0.9-0.9c-0.2-0.4-0.3-0.8-0.3-1.3
	s0.1-1,0.3-1.3c0.2-0.4,0.5-0.7,0.9-0.9c0.4-0.2,0.8-0.3,1.3-0.3s0.9,0.1,1.3,0.3c0.4,0.2,0.7,0.5,0.9,0.9c0.2,0.4,0.3,0.8,0.3,1.3
	s-0.1,1-0.3,1.3c-0.2,0.4-0.5,0.7-0.9,0.9C72.3,102.9,71.9,103,71.4,103z M71.4,102.1c0.4,0,0.7-0.1,0.9-0.4
	c0.2-0.3,0.3-0.7,0.3-1.2c0-0.5-0.1-0.9-0.3-1.2c-0.2-0.3-0.5-0.4-0.9-0.4s-0.7,0.1-0.9,0.4c-0.2,0.3-0.3,0.7-0.3,1.2
	c0,0.5,0.1,0.9,0.3,1.2C70.6,101.9,71,102.1,71.4,102.1z M78.2,99l-0.7,0.1c-0.8,0.1-1.2,0.5-1.2,1.3v2.6H75v-4.9h1.2v0.9
	c0.3-0.6,0.8-0.9,1.6-1l0.4,0L78.2,99z M83.1,100.7h-3.3c0,0.5,0.2,0.8,0.4,1c0.2,0.2,0.6,0.3,1,0.3c0.5,0,1-0.2,1.5-0.5l0.4,0.9
	c-0.2,0.2-0.5,0.3-0.9,0.5c-0.3,0.1-0.7,0.2-1,0.2c-0.8,0-1.4-0.2-1.9-0.7c-0.5-0.5-0.7-1.1-0.7-1.9c0-0.5,0.1-0.9,0.3-1.3
	c0.2-0.4,0.5-0.7,0.8-0.9c0.4-0.2,0.8-0.3,1.2-0.3c0.7,0,1.2,0.2,1.6,0.7c0.4,0.4,0.6,1,0.6,1.8V100.7z M81,98.8
	c-0.3,0-0.6,0.1-0.8,0.3c-0.2,0.2-0.3,0.5-0.4,0.9H82c0-0.4-0.1-0.7-0.3-0.9C81.6,98.9,81.3,98.8,81,98.8z M90,97.9
	c0.6,0,1,0.2,1.2,0.5c0.3,0.3,0.4,0.8,0.4,1.5v3h-1.2V100c0-0.4-0.1-0.6-0.2-0.8c-0.1-0.2-0.3-0.3-0.6-0.3c-0.3,0-0.6,0.1-0.8,0.3
	c-0.2,0.2-0.3,0.5-0.3,0.9v2.7h-1.2V100c0-0.4-0.1-0.6-0.2-0.8c-0.1-0.2-0.3-0.3-0.6-0.3c-0.3,0-0.6,0.1-0.8,0.3
	c-0.2,0.2-0.3,0.5-0.3,0.9v2.7h-1.2v-4.9h1.2v0.7c0.1-0.3,0.3-0.5,0.6-0.6c0.3-0.1,0.6-0.2,0.9-0.2c0.7,0,1.2,0.3,1.5,0.9
	c0.2-0.3,0.4-0.5,0.7-0.7C89.4,98,89.7,97.9,90,97.9z M95.9,103v-4.9h1.2v4.9H95.9z M95.8,95.8h1.4V97h-1.4V95.8z M101.3,97.9
	c0.4,0,0.8,0.1,1.1,0.3c0.3,0.2,0.6,0.5,0.8,0.9c0.2,0.4,0.3,0.8,0.3,1.3c0,0.5-0.1,1-0.3,1.3c-0.2,0.4-0.4,0.7-0.8,0.9
	c-0.3,0.2-0.7,0.3-1.1,0.3c-0.3,0-0.7-0.1-0.9-0.2c-0.3-0.1-0.5-0.3-0.6-0.6v2.6h-1.2v-6.7h1.2v0.7c0.1-0.3,0.4-0.5,0.6-0.6
	C100.7,98,101,97.9,101.3,97.9z M101,102.1c0.4,0,0.7-0.1,0.9-0.4c0.2-0.3,0.3-0.7,0.3-1.2c0-0.5-0.1-0.9-0.3-1.2
	c-0.2-0.3-0.5-0.4-0.9-0.4c-0.4,0-0.7,0.1-0.9,0.4c-0.2,0.3-0.3,0.7-0.3,1.2c0,0.5,0.1,0.9,0.3,1.2
	C100.3,101.9,100.6,102.1,101,102.1z M106.4,103c-0.4,0-0.8-0.1-1.2-0.2c-0.4-0.1-0.7-0.3-0.9-0.5l0.3-0.9c0.5,0.4,1.1,0.6,1.8,0.6
	c0.3,0,0.5,0,0.7-0.1c0.2-0.1,0.2-0.2,0.2-0.4c0-0.1-0.1-0.3-0.2-0.3c-0.1-0.1-0.3-0.2-0.6-0.2l-0.8-0.2c-0.5-0.1-0.8-0.3-1-0.5
	s-0.3-0.5-0.3-0.9c0-0.3,0.1-0.6,0.2-0.8c0.2-0.2,0.4-0.4,0.7-0.5c0.3-0.1,0.7-0.2,1.1-0.2c0.3,0,0.7,0.1,1,0.2
	c0.3,0.1,0.6,0.3,0.9,0.4l-0.3,0.8c-0.5-0.4-1-0.5-1.5-0.5c-0.3,0-0.5,0-0.6,0.2c-0.2,0.1-0.2,0.2-0.2,0.4c0,0.1,0,0.2,0.1,0.3
	c0.1,0.1,0.3,0.2,0.5,0.2l0.8,0.2c0.5,0.1,0.8,0.3,1.1,0.5c0.2,0.2,0.3,0.5,0.3,0.9c0,0.5-0.2,0.8-0.5,1.1
	C107.5,102.9,107,103,106.4,103z M114.1,98.1v4.9h-1.2v-0.8c-0.2,0.3-0.4,0.5-0.6,0.6c-0.3,0.1-0.6,0.2-0.9,0.2
	c-1.2,0-1.8-0.7-1.8-2v-2.9h1.3v3c0,0.3,0.1,0.6,0.2,0.8c0.1,0.2,0.4,0.2,0.7,0.2c0.3,0,0.6-0.1,0.8-0.3c0.2-0.2,0.3-0.5,0.3-0.9
	v-2.7H114.1z M121.3,97.9c0.6,0,1,0.2,1.2,0.5c0.3,0.3,0.4,0.8,0.4,1.5v3h-1.2V100c0-0.4-0.1-0.6-0.2-0.8c-0.1-0.2-0.3-0.3-0.6-0.3
	c-0.3,0-0.6,0.1-0.8,0.3c-0.2,0.2-0.3,0.5-0.3,0.9v2.7h-1.2V100c0-0.4-0.1-0.6-0.2-0.8c-0.1-0.2-0.3-0.3-0.6-0.3
	c-0.3,0-0.6,0.1-0.8,0.3c-0.2,0.2-0.3,0.5-0.3,0.9v2.7h-1.2v-4.9h1.2v0.7c0.1-0.3,0.4-0.5,0.6-0.6c0.3-0.1,0.6-0.2,0.9-0.2
	c0.7,0,1.2,0.3,1.5,0.9c0.2-0.3,0.4-0.5,0.7-0.7C120.6,98,120.9,97.9,121.3,97.9z"/>
<path class="st2" d="M63.7,116v-7.1h0.8v6.4H68v0.7H63.7z M71.1,116c-0.5,0-0.9-0.1-1.2-0.3c-0.3-0.2-0.6-0.5-0.8-0.9
	c-0.2-0.4-0.3-0.8-0.3-1.3c0-0.5,0.1-1,0.3-1.3c0.2-0.4,0.5-0.7,0.8-0.9c0.4-0.2,0.8-0.3,1.2-0.3s0.9,0.1,1.2,0.3
	c0.4,0.2,0.6,0.5,0.8,0.9c0.2,0.4,0.3,0.8,0.3,1.3c0,0.5-0.1,1-0.3,1.3c-0.2,0.4-0.5,0.7-0.8,0.9C71.9,115.9,71.5,116,71.1,116z
	 M71.1,115.4c0.5,0,0.8-0.2,1.1-0.5c0.3-0.3,0.4-0.8,0.4-1.4c0-0.6-0.1-1.1-0.4-1.4c-0.3-0.3-0.6-0.5-1.1-0.5
	c-0.5,0-0.8,0.2-1.1,0.5c-0.3,0.3-0.4,0.8-0.4,1.4c0,0.6,0.1,1.1,0.4,1.4C70.2,115.2,70.6,115.4,71.1,115.4z M77.5,111.7l-0.5,0.1
	c-0.5,0-0.9,0.2-1.1,0.5c-0.2,0.3-0.3,0.6-0.3,1v2.8h-0.8v-4.9h0.8v0.9c0.3-0.6,0.8-0.9,1.6-1l0.3,0L77.5,111.7z M82.3,113.6h-3.6
	c0,0.6,0.2,1,0.5,1.3c0.3,0.3,0.7,0.4,1.2,0.4c0.6,0,1.1-0.2,1.6-0.6l0.3,0.6c-0.2,0.2-0.5,0.4-0.8,0.5c-0.3,0.1-0.7,0.2-1,0.2
	c-0.8,0-1.4-0.2-1.8-0.7c-0.4-0.4-0.7-1.1-0.7-1.8c0-0.5,0.1-0.9,0.3-1.3c0.2-0.4,0.5-0.7,0.8-0.9c0.4-0.2,0.8-0.3,1.2-0.3
	c0.6,0,1.2,0.2,1.5,0.6c0.4,0.4,0.6,1,0.6,1.7V113.6z M80.2,111.6c-0.4,0-0.8,0.1-1,0.4c-0.3,0.3-0.4,0.6-0.4,1.1h2.8
	c0-0.5-0.1-0.9-0.4-1.1C81,111.7,80.7,111.6,80.2,111.6z M89,111c1.1,0,1.6,0.6,1.6,1.9v3.1h-0.8v-3c0-0.4-0.1-0.8-0.2-1
	c-0.2-0.2-0.4-0.3-0.8-0.3c-0.4,0-0.7,0.1-1,0.4c-0.2,0.3-0.3,0.6-0.3,1.1v2.8h-0.8v-3c0-0.5-0.1-0.8-0.2-1
	c-0.2-0.2-0.4-0.3-0.8-0.3c-0.4,0-0.7,0.1-1,0.4c-0.2,0.3-0.3,0.6-0.3,1.1v2.8h-0.8v-4.9h0.8v0.8c0.1-0.3,0.4-0.5,0.6-0.7
	c0.3-0.2,0.6-0.2,0.9-0.2c0.8,0,1.2,0.3,1.5,1c0.1-0.3,0.4-0.5,0.6-0.7C88.3,111.1,88.6,111,89,111z M94.9,116v-4.9h0.8v4.9H94.9z
	 M94.8,109h1v0.9h-1V109z M99.8,111c0.4,0,0.8,0.1,1.1,0.3c0.3,0.2,0.6,0.5,0.8,0.9c0.2,0.4,0.3,0.8,0.3,1.3c0,0.5-0.1,1-0.3,1.3
	c-0.2,0.4-0.4,0.7-0.8,0.9c-0.3,0.2-0.7,0.3-1.1,0.3c-0.4,0-0.7-0.1-1-0.2c-0.3-0.2-0.5-0.4-0.6-0.7v2.7h-0.8v-6.7h0.8v0.8
	c0.1-0.3,0.4-0.5,0.6-0.7C99,111,99.4,111,99.8,111z M99.6,115.4c0.5,0,0.8-0.2,1.1-0.5c0.3-0.3,0.4-0.8,0.4-1.4
	c0-0.6-0.1-1-0.4-1.4c-0.3-0.3-0.6-0.5-1.1-0.5c-0.5,0-0.8,0.2-1.1,0.5c-0.3,0.3-0.4,0.8-0.4,1.4s0.1,1.1,0.4,1.4
	C98.8,115.2,99.1,115.4,99.6,115.4z M104.9,116c-0.8,0-1.5-0.2-2-0.6l0.3-0.6c0.3,0.2,0.5,0.4,0.8,0.5c0.3,0.1,0.6,0.1,0.9,0.1
	c0.4,0,0.6-0.1,0.8-0.2c0.2-0.1,0.3-0.3,0.3-0.5c0-0.2-0.1-0.3-0.2-0.5c-0.1-0.1-0.3-0.2-0.6-0.3l-0.8-0.2c-0.4-0.1-0.7-0.3-1-0.5
	c-0.2-0.2-0.3-0.5-0.3-0.8c0-0.4,0.2-0.8,0.5-1c0.3-0.3,0.8-0.4,1.4-0.4c0.3,0,0.7,0.1,1,0.2c0.3,0.1,0.6,0.3,0.8,0.5l-0.3,0.6
	c-0.4-0.4-0.9-0.6-1.5-0.6c-0.3,0-0.6,0.1-0.8,0.2c-0.2,0.1-0.3,0.3-0.3,0.5c0,0.2,0.1,0.3,0.2,0.5c0.1,0.1,0.3,0.2,0.6,0.3l0.8,0.2
	c0.5,0.1,0.8,0.3,1,0.5c0.2,0.2,0.3,0.5,0.3,0.8c0,0.4-0.2,0.8-0.5,1C105.9,115.9,105.5,116,104.9,116z M112.2,111.1v4.9h-0.8v-0.8
	c-0.2,0.3-0.4,0.5-0.7,0.7c-0.3,0.2-0.6,0.2-0.9,0.2c-0.6,0-1-0.2-1.3-0.5c-0.3-0.3-0.4-0.8-0.4-1.4v-3h0.8v3c0,0.4,0.1,0.8,0.3,1
	c0.2,0.2,0.4,0.3,0.8,0.3c0.4,0,0.8-0.1,1-0.4c0.3-0.3,0.4-0.6,0.4-1.1v-2.8H112.2z M119.3,111c1.1,0,1.6,0.6,1.6,1.9v3.1h-0.8v-3
	c0-0.4-0.1-0.8-0.2-1c-0.2-0.2-0.4-0.3-0.8-0.3c-0.4,0-0.7,0.1-1,0.4c-0.2,0.3-0.4,0.6-0.4,1.1v2.8H117v-3c0-0.5-0.1-0.8-0.2-1
	c-0.2-0.2-0.4-0.3-0.8-0.3c-0.4,0-0.7,0.1-1,0.4c-0.2,0.3-0.4,0.6-0.4,1.1v2.8h-0.8v-4.9h0.8v0.8c0.1-0.3,0.3-0.5,0.6-0.7
	c0.3-0.2,0.6-0.2,0.9-0.2c0.8,0,1.2,0.3,1.5,1c0.1-0.3,0.4-0.5,0.6-0.7C118.6,111.1,118.9,111,119.3,111z"/>
<path class="st6" d="M26.7,95h23c2.8,0,5,2.2,5,5v19c0,2.8-2.2,5-5,5h-23c-2.8,0-5-2.2-5-5v-19C21.7,97.2,23.9,95,26.7,95z"/>
<path class="st5" d="M46.8,102.2c0-0.8-0.7-1.5-1.5-1.5H31.8c-0.8,0-1.5,0.7-1.5,1.5s0.7,1.5,1.5,1.5h12v12c0,0.8,0.7,1.5,1.5,1.5
	s1.5-0.7,1.5-1.5V102.2z M31.8,117.8l14.5-14.5l-2.1-2.1l-14.5,14.5L31.8,117.8z"/>
</svg>
