<?xml version="1.0" encoding="utf-8"?>
<!-- Generator: Adobe Illustrator 25.2.0, SVG Export Plug-In . SVG Version: 6.00 Build 0)  -->
<svg version="1.1" id="Layer_1" xmlns="http://www.w3.org/2000/svg" xmlns:xlink="http://www.w3.org/1999/xlink" x="0px" y="0px"
	 viewBox="0 0 389 456" style="enable-background:new 0 0 389 456;" xml:space="preserve">
<style type="text/css">
	.st0{fill:#FFFFFF;}
	.st1{fill:#262424;}
	.st2{fill:#25A9EE;}
</style>
<g>
	<path class="st0" d="M375.5,180.8c-0.1,0-0.3-0.1-0.4-0.2c-0.1-0.1-0.2-0.3-0.2-0.5v-4c0-0.2,0.1-0.4,0.2-0.5
		c0.1-0.1,0.2-0.2,0.4-0.2c0.1,0,0.3,0.1,0.4,0.2c0.1,0.1,0.2,0.3,0.2,0.5v4c0,0.1,0,0.2,0,0.3c0,0.1-0.1,0.2-0.1,0.2
		c0,0.1-0.1,0.1-0.2,0.2C375.7,180.8,375.6,180.8,375.5,180.8L375.5,180.8z"/>
</g>
<g>
	<path class="st0" d="M381.9,182.9h-4c-0.2,0-0.4-0.1-0.5-0.2c-0.1-0.1-0.2-0.2-0.2-0.4c0-0.1,0.1-0.3,0.2-0.4
		c0.1-0.1,0.3-0.2,0.5-0.2h4c0.2,0,0.4,0.1,0.5,0.2c0.1,0.1,0.2,0.2,0.2,0.4c0,0.1-0.1,0.3-0.2,0.4
		C382.2,182.9,382,182.9,381.9,182.9z"/>
</g>
<g>
	<path class="st0" d="M375.5,189.4c-0.1,0-0.3-0.1-0.4-0.2c-0.1-0.1-0.2-0.3-0.2-0.5v-4.4c0-0.2,0.1-0.4,0.2-0.5
		c0.1-0.1,0.2-0.2,0.4-0.2c0.1,0,0.3,0.1,0.4,0.2c0.1,0.1,0.2,0.3,0.2,0.5v4.4c0,0.2-0.1,0.4-0.2,0.5
		C375.8,189.3,375.7,189.4,375.5,189.4z"/>
</g>
<g>
	<path class="st0" d="M373.2,182.9h-4c-0.2,0-0.4-0.1-0.5-0.2c-0.1-0.1-0.2-0.2-0.2-0.4c0-0.1,0.1-0.3,0.2-0.4
		c0.1-0.1,0.3-0.2,0.5-0.2h4c0.2,0,0.4,0.1,0.5,0.2c0.1,0.1,0.2,0.2,0.2,0.4c0,0.1-0.1,0.3-0.2,0.4
		C373.6,182.9,373.4,182.9,373.2,182.9z"/>
</g>
<g>
	<path class="st0" d="M387.8,29.8L385.3,47l-15.5,104.2c-0.4,2.4-1.6,4.6-3.4,6.1c-1.8,1.6-4.2,2.4-6.6,2.4H190.3
		c-1.4,0-2.9-0.3-4.2-0.9c-1.3-0.6-2.5-1.5-3.4-2.6c-0.9-1.1-1.6-2.4-2-3.8c-0.4-1.4-0.5-2.9-0.3-4.3l15.1-101.2l3-20.2
		c0.4-2.4,1.6-4.6,3.4-6.1c1.8-1.6,4.2-2.4,6.6-2.4h169.5c1.4,0,2.9,0.3,4.2,0.9c1.3,0.6,2.5,1.5,3.4,2.6c0.9,1.1,1.6,2.4,2,3.8
		C387.9,27,388,28.4,387.8,29.8L387.8,29.8z"/>
</g>
<g>
	<path class="st1" d="M360.1,160.3H190.5c-1.6,0-3.1-0.3-4.5-1c-1.4-0.6-2.7-1.6-3.7-2.8c-1-1.2-1.8-2.6-2.2-4
		c-0.4-1.5-0.5-3.1-0.3-4.6l18.1-121c0.4-2.5,1.7-4.9,3.6-6.6c2-1.7,4.5-2.6,7-2.6h169.6c1.6,0,3.1,0.3,4.5,1
		c1.4,0.6,2.7,1.6,3.7,2.8c1,1.2,1.8,2.6,2.2,4c0.4,1.5,0.5,3.1,0.3,4.6l-18.1,121c-0.4,2.5-1.7,4.9-3.6,6.6
		C365.2,159.4,362.7,160.3,360.1,160.3L360.1,160.3z M208.6,19.2c-2.2,0-4.4,0.8-6.1,2.2c-1.7,1.5-2.8,3.5-3.1,5.7l-18.1,121
		c-0.2,1.3-0.1,2.7,0.3,4c0.4,1.3,1,2.5,1.9,3.5c0.9,1,2,1.8,3.2,2.4c1.2,0.6,2.5,0.8,3.9,0.8h169.6c2.2,0,4.4-0.8,6.1-2.3
		c1.7-1.5,2.8-3.5,3.1-5.7l18.1-121c0.2-1.3,0.1-2.7-0.3-4c-0.4-1.3-1-2.5-1.9-3.5c-0.9-1-2-1.8-3.2-2.4c-1.2-0.6-2.5-0.8-3.9-0.8
		L208.6,19.2L208.6,19.2z"/>
</g>
<g>
	<path class="st2" d="M387.4,28.1c0,0.5,0,0.9-0.1,1.4l-2.6,17.2v0.1H195.8l3-20c0.3-2.2,1.4-4.2,3.1-5.7c1.7-1.5,3.9-2.3,6.1-2.3
		H378c2.5,0,4.9,1,6.6,2.7C386.4,23.3,387.4,25.7,387.4,28.1L387.4,28.1z"/>
</g>
<g>
	<path class="st0" d="M218.7,37.1c2.2,0,4-1.9,4-4.3s-1.8-4.3-4-4.3c-2.2,0-4,1.9-4,4.3S216.5,37.1,218.7,37.1z"/>
</g>
<g>
	<path class="st0" d="M238.9,37.1c2.4,0,4.3-1.9,4.3-4.3s-1.9-4.3-4.3-4.3s-4.3,1.9-4.3,4.3S236.5,37.1,238.9,37.1z"/>
</g>
<g>
	<path class="st0" d="M259.1,37.1c2.2,0,4-1.9,4-4.3s-1.8-4.3-4-4.3c-2.2,0-4,1.9-4,4.3S256.8,37.1,259.1,37.1z"/>
</g>
<g>
	<path class="st2" d="M259.8,141.7c-2.5,9.6-5.1,20.2-9.2,29.2c-5.3,8.5-16.9,21.7-24.9,20.3c-10.4-1.9-3.6-27.6-2-33.7
		c0.1-0.3,8.8-20.7,13.9-34.8s14.5-15.7,14.5-15.7S265.3,119.9,259.8,141.7z"/>
</g>
<g>
	<path class="st2" d="M318,110.7c0,0-24.2-13.8-65.9-3.8c0,0-11.4,10.7-10.9,37.7c0.5,27.9-1.9,73-1.9,73l86.8,2.8
		C326,220.5,331,171,318,110.7z"/>
</g>
<g>
	<path class="st1" d="M322.2,215.1l-77.3-1.8c-0.2,0-0.4-0.1-0.5-0.2c-0.1-0.1-0.2-0.3-0.2-0.5c0-0.2,0.1-0.4,0.2-0.5
		c0.1-0.1,0.3-0.2,0.5-0.2l77.3,1.8c0.2,0,0.4,0.1,0.5,0.2c0.1,0.1,0.2,0.3,0.2,0.5c0,0.2-0.1,0.4-0.2,0.5
		C322.6,215.1,322.4,215.1,322.2,215.1z"/>
</g>
<g>
	<path class="st1" d="M241,175.4c-0.1,0-0.2,0-0.3-0.1c-0.1,0-0.2-0.1-0.2-0.2c-0.1-0.1-0.1-0.1-0.2-0.2c0-0.1-0.1-0.2,0-0.3
		l0.8-41.6c0,0,0,0,0-0.1c1.6-13.3,6.2-21,8.8-24.5c0.1-0.2,0.3-0.3,0.5-0.3c0.2,0,0.4,0,0.5,0.1c0.2,0.1,0.3,0.3,0.3,0.5
		c0,0.2,0,0.4-0.1,0.5c-2.5,3.3-6.9,10.8-8.5,23.7l-0.8,41.5c0,0.2-0.1,0.4-0.2,0.5C241.4,175.3,241.2,175.4,241,175.4L241,175.4z"
		/>
</g>
<g>
	<path class="st0" d="M295.6,106.9c-1.1,2.6-2.7,4.9-4.8,6.7c-2.1,1.9-4.5,3.2-7.2,4c-0.9-4.9-3.4-11.1-3.4-11.1
		c-2.7,3.8-4.2,8.8-4.5,11c-8.9-2.4-9.9-11-9.9-11c1.1-8.5,8.4-15,14.7-14.7C294.4,92.4,295.6,106.9,295.6,106.9z"/>
</g>
<g>
	<path class="st1" d="M283.6,118.4c-0.2,0-0.3-0.1-0.5-0.2c-0.1-0.1-0.2-0.3-0.3-0.4c-0.6-3.4-2.1-7.6-2.8-9.6
		c-1.8,2.9-3,6.2-3.6,9.6c0,0.1-0.1,0.2-0.1,0.3c-0.1,0.1-0.1,0.2-0.2,0.2c-0.1,0.1-0.2,0.1-0.3,0.1c-0.1,0-0.2,0-0.3,0
		c-9.2-2.5-10.4-11.5-10.4-11.6c0-0.1,0-0.1,0-0.2c1.2-9.3,9.1-15.6,15.5-15.4c14.4,0.5,15.7,15.5,15.7,15.7c0,0.1,0,0.2-0.1,0.4
		c-1.1,2.7-2.8,5-5,7s-4.7,3.4-7.5,4.2C283.7,118.4,283.6,118.4,283.6,118.4z M280.2,105.9L280.2,105.9c0.2,0,0.3,0.1,0.4,0.1
		c0.1,0.1,0.2,0.2,0.2,0.3c0.1,0.2,2.2,5.6,3.2,10.4c2.4-0.8,4.5-2.1,6.4-3.8c1.8-1.7,3.3-3.8,4.3-6.1c-0.2-1.7-1.9-13.7-14.3-14.2
		h-0.3c-5.7,0-12.6,5.9-13.7,14c0.1,0.9,1.3,7.6,8.6,10c0.5-2.5,1.9-6.9,4.5-10.5c0.1-0.1,0.2-0.2,0.3-0.2
		C280,105.9,280.1,105.9,280.2,105.9L280.2,105.9z"/>
</g>
<g>
	<path class="st0" d="M288.7,74.7l-0.2,8.6l-0.4,14.6c-4.9,3.4-9.7,3.8-14.3,0.3l0.7-6.8l1-10.3L288.7,74.7z"/>
</g>
<g>
	<path class="st1" d="M280.4,101.4c-2.5,0-4.8-0.9-7.1-2.6c-0.1-0.1-0.2-0.2-0.2-0.3c-0.1-0.1-0.1-0.2-0.1-0.4l1.7-17.1
		c0-0.1,0.1-0.2,0.1-0.3c0.1-0.1,0.2-0.2,0.3-0.2l13.3-6.4c0.1-0.1,0.2-0.1,0.4-0.1s0.2,0,0.4,0.1c0.1,0.1,0.2,0.2,0.2,0.3
		c0.1,0.1,0.1,0.2,0.1,0.4l-0.6,23.2c0,0.1,0,0.2-0.1,0.3c-0.1,0.1-0.1,0.2-0.2,0.3C285.7,100.4,283,101.4,280.4,101.4z M274.5,97.9
		c4,2.9,8.2,2.7,12.9-0.4l0.6-21.6l-11.8,5.7L274.5,97.9z"/>
</g>
<g>
	<path class="st0" d="M264.1,76.3c0.5,7.1,2.2,15.5,10.7,14.5c10.1-1.2,16.8-8.1,17.3-17.6s-3.8-15.1-15.3-14.4
		c-1,0.1-1.9,0.2-2.9,0.4c-6.6,1.5-10.1,6.9-10,13.3C264,73.7,264,74.9,264.1,76.3z"/>
</g>
<g>
	<path class="st1" d="M273.5,91.6c-2,0.1-3.9-0.6-5.4-1.8c-3.6-3-4.4-9.1-4.7-13.5c-0.1-1.3-0.1-2.6-0.2-3.8
		c-0.2-7.1,3.8-12.5,10.5-14c0.2,0,0.4,0,0.5,0.1s0.3,0.3,0.3,0.5c0,0.2,0,0.4-0.1,0.5c-0.1,0.2-0.3,0.3-0.5,0.3
		c-6,1.4-9.6,6.2-9.4,12.6c0,1.2,0.1,2.4,0.2,3.7c0.3,4.1,1,9.8,4.2,12.4c1.5,1.2,3.3,1.7,5.7,1.4c3.6-0.4,7.1-1.7,10-3.9
		c0.1-0.1,0.2-0.1,0.3-0.1c0.1,0,0.2,0,0.3,0c0.1,0,0.2,0,0.3,0.1c0.1,0,0.2,0.1,0.2,0.2c0.1,0.1,0.1,0.2,0.1,0.3s0,0.2,0,0.3
		c0,0.1,0,0.2-0.1,0.3c0,0.1-0.1,0.2-0.2,0.2c-3.1,2.3-6.9,3.8-10.8,4.2C274.4,91.6,274,91.6,273.5,91.6L273.5,91.6z"/>
</g>
<g>
	<path class="st1" d="M295,75.1c-1,1.4-2.1,2.6-3.4,3.8l-5.1,0.1l-1-3.6c0,0-3.2-0.3-3.8-2.4c0-0.1,0-0.1,0-0.2
		c-0.1-0.7-0.7-3.9,0-8.8c0,0-7.8,3.1-12.1,3.4c-1.5,0.1-3.2-0.5-4.9-1.4c-3.2-1.7-5.9-7.2-5.2-10.8v-0.1c1.1-5.3,3.7-1.5,3.7-1.5
		s0.9-4.3,3.6-4.5c2.7-0.2,4.3,3.8,4.3,3.8c5.2-1,10.5-1.1,15.7-0.1c10.3,1.9,7.5,9,7.5,9S301.9,64.6,295,75.1z"/>
</g>
<g>
	<path class="st0" d="M287.7,78.5c-0.3-4,2.6-7.6,6.6-7.9c0.9-0.1,1.7,0,2.5,0.3c4.9,1.5,3.2,13-8.9,11.7L287.7,78.5z"/>
</g>
<g>
	<path class="st1" d="M289.8,83.3c-0.6,0-1.3,0-1.9-0.1c-0.2,0-0.4-0.1-0.5-0.3c-0.1-0.1-0.2-0.3-0.2-0.5c0-0.2,0.1-0.4,0.3-0.5
		c0.2-0.1,0.3-0.2,0.5-0.2c6.7,0.7,9.9-2.6,10.5-5.7c0.4-2.2-0.4-4.1-1.9-4.5c-0.7-0.2-1.5-0.3-2.2-0.2c-1.7,0.2-3.3,1-4.5,2.4
		c-1.1,1.3-1.7,3.1-1.5,4.8c0,0.1,0,0.2,0,0.3c0,0.1-0.1,0.2-0.1,0.2c-0.1,0.1-0.1,0.1-0.2,0.2c-0.1,0-0.2,0.1-0.3,0.1
		c-0.1,0-0.2,0-0.3,0c-0.1,0-0.2-0.1-0.2-0.1c-0.1-0.1-0.1-0.1-0.2-0.2c0-0.1-0.1-0.2-0.1-0.3c-0.3-4.5,2.9-8.4,7.3-8.7
		c0.9-0.1,1.9,0,2.8,0.3c2.3,0.7,3.5,3.3,2.9,6.2C299.2,80,295.8,83.3,289.8,83.3z"/>
</g>
<g>
	<path class="st0" d="M215.6,122.6c0,0-3.9-26.2-4-27.8c-0.1-1.6,2.8-6.3,9.1-6.7c6.4-0.5,7.8,1.7,7.8,3.7c0,2,1,9.6,1,9.6
		s-0.2-9.6-0.1-11.1c0.1-1.4,3.7-2.3,4,0.1s1.2,19.6,1.2,19.6s8.3-2.5,10.5-2.6c2.2-0.1,1.9,3.4,0.8,4c-1.1,0.6-19.5,13.7-19.5,13.7
		L215.6,122.6z"/>
</g>
<g>
	<path class="st1" d="M226.4,125.9c-0.1,0-0.1,0-0.2,0l-10.7-2.5c-0.1,0-0.3-0.1-0.4-0.2c-0.1-0.1-0.2-0.2-0.2-0.4
		c-0.2-1.1-3.9-26.3-4-27.8c-0.1-1,0.6-2.3,1.6-3.6c1.1-1.3,3.7-3.6,8.2-3.9c3.5-0.3,6,0.2,7.4,1.5c0.3,0.3,0.5,0.6,0.7,0.9
		c0.4-1,1.6-1.5,2.8-1.6c0.3,0,0.6,0,0.9,0.1c0.3,0.1,0.6,0.2,0.8,0.4c0.2,0.2,0.4,0.4,0.6,0.7s0.2,0.6,0.2,0.9
		c0.2,2.1,0.9,15.1,1.2,18.7c2.2-0.7,7.9-2.3,9.7-2.4c0.5,0,1,0.1,1.5,0.4c0.4,0.3,0.7,0.8,0.8,1.3c0.4,1.2,0,3.1-1,3.6
		c-0.8,0.4-12.1,8.4-19.5,13.7C226.7,125.8,226.5,125.9,226.4,125.9z M216.3,122l9.9,2.3c2.8-2,18.3-13,19.3-13.6
		c0.3-0.1,0.6-1.1,0.4-2c-0.2-0.6-0.5-0.7-0.8-0.6c-1.7,0.1-8,1.9-10.3,2.6c-0.1,0-0.2,0-0.3,0c-0.1,0-0.2-0.1-0.3-0.1
		c-0.1-0.1-0.2-0.1-0.2-0.2c-0.1-0.1-0.1-0.2-0.1-0.3c0-0.2-1-17.2-1.2-19.6c0-0.2-0.1-0.9-1-0.9c-0.8,0-1.4,0.5-1.4,0.7
		c-0.1,1.1,0,7.7,0.1,11c0,0.2,0,0.4-0.2,0.5c-0.1,0.1-0.3,0.2-0.5,0.2c-0.2,0-0.4,0-0.5-0.2c-0.1-0.1-0.2-0.3-0.2-0.5
		c0-0.3-1-7.6-1-9.7c0-0.3,0-0.7-0.2-1c-0.1-0.3-0.3-0.6-0.6-0.9c-1-1-3.2-1.4-6.3-1.1c-4,0.3-6.2,2.3-7.2,3.4
		c-1,1.1-1.3,2.2-1.3,2.5C212.5,96,214.9,112.9,216.3,122L216.3,122z"/>
</g>
<g>
	<path class="st2" d="M214.5,120.6l14.1,3.9c0,0,1.4,26,2.5,36.8c1.1,10.8,1.3,28.3-5.4,29.9c-6.7,1.6-23.6-7.6-20.7-24.2
		C209.4,140.7,214.5,120.6,214.5,120.6z"/>
</g>
<g>
	<path class="st1" d="M229.9,187c-0.1,0-0.2,0-0.3-0.1c-0.1-0.1-0.2-0.1-0.3-0.2c-0.1-0.1-0.1-0.2-0.1-0.3c0-0.1,0-0.2,0-0.3
		c2.6-7.3,1.5-20.8,1.2-24.8l-1.2-15.1c0-0.1,0-0.2,0-0.3c0-0.1,0.1-0.2,0.1-0.2c0.1-0.1,0.1-0.1,0.2-0.2c0.1,0,0.2-0.1,0.3-0.1
		c0.1,0,0.2,0,0.3,0c0.1,0,0.2,0.1,0.2,0.1c0.1,0.1,0.1,0.1,0.2,0.2c0,0.1,0.1,0.2,0.1,0.3l1.2,15.1c0.5,5.1,1.4,18-1.2,25.4
		c-0.1,0.1-0.1,0.3-0.3,0.3C230.2,187,230,187,229.9,187z"/>
</g>
<g>
	<path class="st1" d="M226.8,132.9c-0.1,0-0.1,0-0.2,0l-12.4-3.2c-0.1,0-0.2-0.1-0.3-0.1c-0.1-0.1-0.1-0.1-0.2-0.2
		c0-0.1-0.1-0.2-0.1-0.3c0-0.1,0-0.2,0-0.3c0-0.1,0.1-0.2,0.1-0.3c0.1-0.1,0.1-0.1,0.2-0.2c0.1,0,0.2-0.1,0.3-0.1c0.1,0,0.2,0,0.3,0
		l12.4,3.2c0.2,0,0.4,0.1,0.5,0.3c0.1,0.2,0.2,0.3,0.1,0.5s-0.1,0.4-0.3,0.5C227.2,132.9,227,132.9,226.8,132.9z"/>
</g>
<g>
	<path class="st0" d="M217.9,127.4c1.1,0,2-0.9,2-2c0-1.1-0.9-2-2-2c-1.1,0-2,0.9-2,2C216,126.5,216.8,127.4,217.9,127.4z"/>
</g>
<g>
	<path class="st1" d="M217.9,128.1c-0.5,0-1.1-0.2-1.5-0.5c-0.4-0.3-0.8-0.7-1-1.2c-0.2-0.5-0.3-1-0.2-1.6c0.1-0.5,0.4-1,0.7-1.4
		c0.4-0.4,0.9-0.6,1.4-0.7c0.5-0.1,1.1-0.1,1.6,0.2c0.5,0.2,0.9,0.6,1.2,1c0.3,0.4,0.5,1,0.5,1.5c0,0.7-0.3,1.4-0.8,1.9
		C219.4,127.8,218.7,128.1,217.9,128.1L217.9,128.1z M217.9,124.1c-0.2,0-0.5,0.1-0.7,0.2c-0.2,0.1-0.4,0.3-0.5,0.6
		c-0.1,0.2-0.1,0.5-0.1,0.7c0,0.2,0.2,0.5,0.3,0.6c0.2,0.2,0.4,0.3,0.6,0.3c0.2,0,0.5,0,0.7-0.1c0.2-0.1,0.4-0.3,0.6-0.5
		c0.1-0.2,0.2-0.5,0.2-0.7c0-0.2,0-0.3-0.1-0.5c-0.1-0.2-0.2-0.3-0.3-0.4c-0.1-0.1-0.3-0.2-0.4-0.3
		C218.3,124.2,218.1,124.1,217.9,124.1L217.9,124.1z"/>
</g>
<g>
	<path class="st2" d="M318,110.7c0,0,24.6,12.3,22.5,109.7h-31.8c0,0,0.4-64.7-1.9-80.1C303.8,121.1,312,111.2,318,110.7z"/>
</g>
<g>
	<path class="st1" d="M308.6,208.3c-0.2,0-0.4-0.1-0.5-0.2c-0.1-0.1-0.2-0.3-0.2-0.5c0-20.4-0.3-56.3-1.9-67.2
		c-2.5-16.5,3-26,8.4-29.2c0.1,0,0.2-0.1,0.3-0.1c0.1,0,0.2,0,0.3,0c0.1,0,0.2,0.1,0.3,0.1c0.1,0.1,0.1,0.1,0.2,0.2
		c0,0.1,0.1,0.2,0.1,0.3c0,0.1,0,0.2,0,0.3s-0.1,0.2-0.1,0.3c-0.1,0.1-0.1,0.1-0.2,0.2c-5.4,3.2-9.9,13-7.7,27.7
		c1.7,11,1.9,47,2,67.4c0,0.2-0.1,0.4-0.2,0.5C309,208.3,308.8,208.4,308.6,208.3L308.6,208.3z"/>
</g>
<g>
	<path d="M340.3,149.6c10.3,0,18.6-8.3,18.6-18.6c0-10.3-8.3-18.6-18.6-18.6c-10.3,0-18.6,8.3-18.6,18.6
		C321.7,141.3,330.1,149.6,340.3,149.6z"/>
</g>
<g>
	<path class="st0" d="M344.7,135.9c0,0-4.9,4.9-10.9,6.1c-0.4,0.1-0.8,0-1.2-0.1c-0.4-0.1-0.7-0.4-1-0.7l-2-2
		c-0.9-0.9-1.1-2.3-0.3-3.1l2.3-2.3c0.8-0.8,2.2-0.6,3.1,0.3l1.1,1.1c0.6-0.1,1.3-0.3,1.9-0.5c1.3-0.6,2.6-1.4,3.6-2.4
		c1-1,1.8-2.2,2.4-3.6c0.3-0.6,0.5-1.2,0.5-1.9l-1.1-1.1c-0.9-0.9-1.1-2.3-0.3-3.1l2.3-2.3c0.8-0.8,2.2-0.6,3.1,0.3l2,2
		c0.3,0.3,0.5,0.6,0.7,1s0.2,0.8,0.1,1.2C349.6,131,344.7,135.9,344.7,135.9z"/>
</g>
<g>
	<path class="st0" d="M93.1,25v32.9c0,2.9,1.2,5.7,3.2,7.8c2.1,2.1,4.9,3.2,7.8,3.2h46.6l8.7,8.7c0.2,0.2,0.4,0.3,0.6,0.3
		c0.2,0,0.5,0,0.7-0.1c0.2-0.1,0.4-0.3,0.6-0.5c0.1-0.2,0.2-0.4,0.2-0.7V69h9.2c1.5,0,2.9-0.3,4.2-0.8c1.3-0.6,2.6-1.4,3.6-2.4
		c1-1,1.8-2.2,2.4-3.6c0.6-1.3,0.8-2.8,0.8-4.2V25c0-1.5-0.3-2.9-0.8-4.2c-0.6-1.3-1.4-2.6-2.4-3.6c-1-1-2.2-1.8-3.6-2.4
		c-1.3-0.6-2.8-0.8-4.2-0.8h-66.6c-1.5,0-2.9,0.3-4.2,0.8c-1.3,0.6-2.6,1.4-3.6,2.4c-1,1-1.8,2.2-2.4,3.6
		C93.4,22.2,93.1,23.6,93.1,25L93.1,25z"/>
</g>
<g>
	<path class="st2" d="M172.7,11.2v33.2c0,3-1.2,5.8-3.2,7.9c-2.1,2.1-4.9,3.3-7.8,3.3H115l-8.7,8.7c-0.2,0.2-0.4,0.3-0.6,0.3
		c-0.2,0-0.5,0-0.7-0.1c-0.2-0.1-0.4-0.3-0.6-0.5c-0.1-0.2-0.2-0.4-0.2-0.7v-7.9H95c-2.9,0-5.7-1.2-7.8-3.3
		c-2.1-2.1-3.2-4.9-3.2-7.9V11.2c0-1.5,0.3-2.9,0.8-4.3c0.6-1.4,1.4-2.6,2.4-3.6c1-1,2.2-1.9,3.6-2.4C92.1,0.3,93.5,0,95,0h66.6
		c1.5,0,2.9,0.3,4.2,0.8c1.3,0.6,2.6,1.4,3.6,2.4c1,1,1.8,2.3,2.4,3.6C172.4,8.2,172.7,9.7,172.7,11.2L172.7,11.2z"/>
</g>
<g>
	<path class="st0" d="M157.9,16.1H99.3c-1.9,0-3.5,1.6-3.5,3.5c0,1.9,1.6,3.5,3.5,3.5h58.7c1.9,0,3.5-1.6,3.5-3.5
		C161.4,17.7,159.8,16.1,157.9,16.1z"/>
</g>
<g>
	<path class="st0" d="M120.3,31.7H99.2c-1.9,0-3.4,1.6-3.4,3.5c0,1.9,1.5,3.5,3.4,3.5h21.1c1.9,0,3.4-1.6,3.4-3.5
		C123.7,33.3,122.2,31.7,120.3,31.7z"/>
</g>
<g>
	<path class="st0" d="M74.9,404l-2.2,19.4h11.5l4.1-19.9L74.9,404z"/>
</g>
<g>
	<path class="st1" d="M84.1,424H72.8c-0.1,0-0.2,0-0.3-0.1c-0.1,0-0.2-0.1-0.2-0.2c-0.1-0.1-0.1-0.2-0.2-0.3c0-0.1,0-0.2,0-0.3
		l2.2-19.1c0-0.2,0.1-0.3,0.2-0.4s0.3-0.2,0.5-0.2l13-0.5c0.1,0,0.2,0,0.3,0.1c0.1,0,0.2,0.1,0.3,0.2c0.1,0.1,0.1,0.2,0.2,0.3
		c0,0.1,0,0.2,0,0.3l-4,19.5c0,0.2-0.1,0.3-0.3,0.4C84.4,423.9,84.2,424,84.1,424z M73.6,422.5h9.8l3.7-18.1l-11.5,0.4L73.6,422.5z"
		/>
</g>
<g>
	<path class="st0" d="M102.8,198.3c6.5,35.9,6.2,75.7,3.8,109.3c-0.7,9.3-1.5,18-2.4,26.2c-3.4,30.7-7.5,57.4-7.5,57.4H74.6
		c-3.2-50.6-21-140.8-21-140.8C40.9,235.2,36,211.4,36,211.4C40.7,167.3,98.2,172.7,102.8,198.3z"/>
</g>
<g>
	<path class="st1" d="M85.8,383.1c-0.1,0-0.2,0-0.3-0.1c-0.1,0-0.2-0.1-0.2-0.2c-0.1-0.1-0.1-0.2-0.2-0.2c0-0.1-0.1-0.2,0-0.3
		c1.6-71.1-19.2-180.8-19.4-181.9c0-0.2,0-0.4,0.1-0.5c0.1-0.2,0.3-0.3,0.5-0.3c0.2,0,0.4,0,0.5,0.1c0.2,0.1,0.3,0.3,0.3,0.5
		c0.2,1.1,21.1,110.9,19.5,182.2c0,0.1,0,0.2-0.1,0.3c0,0.1-0.1,0.2-0.2,0.2c-0.1,0.1-0.2,0.1-0.2,0.2
		C86,383.1,85.9,383.1,85.8,383.1z"/>
</g>
<g>
	<path class="st1" d="M71.2,230.8c-0.1,0-0.3,0-0.4-0.1c-0.1-0.1-0.2-0.2-0.3-0.3s-0.1-0.3,0-0.4c0-0.1,0.1-0.3,0.2-0.4l3.8-3.8
		c0.9-0.9,1.6-2.1,2.1-3.3c0.4-1.2,0.6-2.6,0.4-3.8l-2.8-21.4c0-0.2,0-0.4,0.2-0.5c0.1-0.2,0.3-0.3,0.5-0.3c0.2,0,0.4,0,0.6,0.1
		c0.2,0.1,0.3,0.3,0.3,0.5l2.8,21.4c0.2,1.5,0.1,3-0.4,4.5c-0.5,1.4-1.3,2.8-2.4,3.9l-3.8,3.8c-0.1,0.1-0.2,0.1-0.2,0.2
		C71.4,230.8,71.3,230.8,71.2,230.8L71.2,230.8z"/>
</g>
<g>
	<path class="st2" d="M106.5,307.9c-0.7,9.3-1.5,18.1-2.4,26.2c-6.1-0.5-11-6.1-11-13.1c0-7.3,5.3-13.2,11.8-13.2
		C105.4,307.8,106,307.8,106.5,307.9z"/>
</g>
<g>
	<path class="st2" d="M72.2,387.4h27.3c0.4,0,0.8,0.1,1.2,0.3c0.4,0.2,0.7,0.4,1,0.7c0.3,0.3,0.5,0.7,0.6,1.1
		c0.1,0.4,0.1,0.8,0.1,1.2l-2.7,15.9c-0.1,0.7-0.4,1.3-0.9,1.7c-0.5,0.4-1.1,0.7-1.8,0.7H72.2c-0.7,0-1.4-0.3-2-0.8
		c-0.5-0.5-0.8-1.2-0.8-2v-15.9c0-0.4,0.1-0.7,0.2-1.1c0.1-0.3,0.3-0.7,0.6-0.9c0.3-0.3,0.6-0.5,0.9-0.6
		C71.5,387.5,71.8,387.4,72.2,387.4L72.2,387.4z"/>
</g>
<g>
	<path class="st0" d="M32.8,404l-2.2,19.4h11.1l3.9-19.9L32.8,404z"/>
</g>
<g>
	<path class="st1" d="M42.1,424H30.9c-0.1,0-0.2,0-0.3-0.1c-0.1,0-0.2-0.1-0.2-0.2c-0.1-0.1-0.1-0.2-0.2-0.3c0-0.1,0-0.2,0-0.3
		l2.2-19.1c0-0.2,0.1-0.3,0.2-0.4c0.1-0.1,0.3-0.2,0.5-0.2l13-0.5c0.1,0,0.2,0,0.3,0.1c0.1,0,0.2,0.1,0.3,0.2
		c0.1,0.1,0.1,0.2,0.2,0.3c0,0.1,0,0.2,0,0.3l-4,19.5c0,0.2-0.1,0.3-0.3,0.4C42.4,423.9,42.3,424,42.1,424z M31.7,422.5h9.8
		l3.7-18.1l-11.5,0.4L31.7,422.5z"/>
</g>
<g>
	<path class="st0" d="M102.2,209.2c-1.5,36.4-10.5,75.1-20.2,107.4c-2.7,8.9-5.4,17.3-8.1,25c-10,29.2-18.8,48.8-18.8,48.8
		l-22.8,0.7c8-50.1,10.3-141.8,10.3-141.8c-9.2-17.5-8.7-41.8-8.7-41.8C48.1,165.5,103.3,183.3,102.2,209.2z"/>
</g>
<g>
	<path class="st0" d="M81.8,316.5c-2.7,8.9-5.4,17.4-8.1,25.1c-5.8-1.8-9.2-8.4-7.7-15.2c1.6-7.1,8-11.8,14.2-10.4
		C80.8,316.2,81.3,316.3,81.8,316.5L81.8,316.5z"/>
</g>
<g>
	<path class="st1" d="M71.8,348.1c-0.1,0-0.2,0-0.3-0.1s-0.2-0.1-0.3-0.2c-0.1-0.1-0.1-0.2-0.1-0.3c0-0.1,0-0.2,0-0.3
		c0.6-1.8,1.3-3.6,1.9-5.5c2.9-8.3,5.6-16.7,8.1-25c12.1-40.3,19-76.4,20.3-107.3c0.1-2.4-0.3-4.9-1.2-7.2c-0.1-0.2-0.1-0.4,0-0.6
		c0.1-0.2,0.2-0.3,0.4-0.4c0.2-0.1,0.4-0.1,0.6,0c0.2,0.1,0.3,0.2,0.4,0.4c1,2.5,1.4,5.1,1.3,7.7c-1.3,31.1-8.1,67.3-20.3,107.7
		c-2.5,8.3-5.2,16.7-8.1,25c-0.6,1.9-1.3,3.7-1.9,5.5c0,0.1-0.1,0.3-0.3,0.4C72,348.1,71.9,348.1,71.8,348.1z"/>
</g>
<g>
	<path class="st1" d="M45.4,385.8c-0.1,0-0.2,0-0.3-0.1c-0.1,0-0.2-0.1-0.3-0.2c-0.1-0.1-0.1-0.2-0.1-0.3c0-0.1,0-0.2,0-0.3
		c17.1-69,20.6-180.8,20.6-181.9c0-0.1,0-0.2,0.1-0.3c0-0.1,0.1-0.2,0.2-0.2s0.2-0.1,0.2-0.1c0.1,0,0.2,0,0.3,0c0.1,0,0.2,0,0.3,0.1
		s0.2,0.1,0.2,0.2s0.1,0.1,0.1,0.2c0,0.1,0,0.2,0,0.3c0,1.1-3.5,113-20.6,182.2c0,0.2-0.1,0.3-0.3,0.4
		C45.7,385.7,45.6,385.8,45.4,385.8z"/>
</g>
<g>
	<path class="st1" d="M64.3,234c-0.2,0-0.3,0-0.5-0.1c-0.1-0.1-0.2-0.2-0.3-0.4c0-0.2,0-0.3,0-0.5c0.1-0.2,0.2-0.3,0.3-0.4l4.5-2.9
		c1.1-0.7,2.1-1.7,2.7-2.8c0.7-1.1,1.1-2.4,1.2-3.7l2-21.4c0-0.2,0.1-0.4,0.3-0.5c0.2-0.1,0.3-0.2,0.5-0.2c0.2,0,0.4,0.1,0.5,0.3
		c0.1,0.1,0.2,0.3,0.2,0.5l-2,21.4c-0.1,1.5-0.6,3-1.4,4.3c-0.8,1.3-1.9,2.4-3.2,3.2l-4.5,2.9C64.6,234,64.4,234,64.3,234L64.3,234z
		"/>
</g>
<g>
	<path class="st2" d="M30.2,387.4h27.3c0.4,0,0.8,0.1,1.2,0.3c0.4,0.2,0.7,0.4,1,0.7c0.3,0.3,0.5,0.7,0.6,1.1
		c0.1,0.4,0.1,0.8,0.1,1.2l-2.7,15.5c-0.1,0.6-0.4,1.2-1,1.6c-0.5,0.4-1.1,0.6-1.8,0.6H30.2c-0.7,0-1.4-0.3-2-0.8
		c-0.5-0.5-0.8-1.2-0.8-1.9v-15.5c0-0.4,0.1-0.7,0.2-1.1c0.1-0.3,0.3-0.6,0.6-0.9c0.3-0.3,0.6-0.5,0.9-0.6
		C29.5,387.5,29.9,387.4,30.2,387.4L30.2,387.4z"/>
</g>
<g>
	<path class="st0" d="M77.2,455H23.9c0-1.8,0.1-3.5,0.2-5.2l0,0c0.6-10.1,2.1-20.1,4.5-29.9H46c6.6,12.7,18.9,19.1,25.7,21.7
		c1.3,0.5,2.5,1.4,3.3,2.5c0.8,1.1,1.4,2.5,1.5,3.9l0,0l0.2,1.8l0,0L77.2,455z"/>
	<path d="M78,455.7H23.1l0-0.8c0-1.8,0.1-3.5,0.2-5.2c0.6-10.1,2.1-20.2,4.6-30l0.1-0.6h18.4l0.2,0.4c6.5,12.5,18.6,18.7,25.3,21.4
		c1.4,0.6,2.7,1.5,3.6,2.8c0.9,1.2,1.5,2.7,1.6,4.2L78,455.7z M24.7,454.2h51.7l-0.6-6.2c-0.1-1.3-0.6-2.5-1.3-3.5
		c-0.8-1-1.8-1.8-3-2.3c-6.8-2.7-19.2-9-25.9-21.7H29.3c-2.3,9.5-3.8,19.3-4.4,29.2C24.8,451.2,24.7,452.7,24.7,454.2z"/>
</g>
<g>
	<path class="st0" d="M109.3,121.4l4,3.2l15-19.9c0,0-3.4-8.5-3.4-9.6c0-1.1,4.9-10.8,6.5-12.2c1.6-1.3,2.6-0.1,2.6,1.2
		c0,1.3-1.8,8.2-1.8,8.2s13.6-12.3,16.2-13.5c2.6-1.2,3.5,0.5,2,2.3c-1.4,1.8-6.5,6.4-6.5,6.4s9.6-5.2,11-5.1
		c1.4,0.1,6.8,5.1,4.9,9.1c-1.9,4.1-22.2,16.2-22.2,16.2s-7.9,39-12.3,43.1c-4.4,4.1-29.1-11.7-29.1-11.7L109.3,121.4z"/>
</g>
<g>
	<path class="st1" d="M122.9,152.3c-3,0-7.7-1.7-14.3-5.1s-12.9-7.4-13-7.4c-0.1-0.1-0.2-0.1-0.2-0.2c-0.1-0.1-0.1-0.2-0.1-0.3
		c0-0.1,0-0.2,0-0.3s0.1-0.2,0.1-0.3l13-18c0.1-0.1,0.1-0.1,0.2-0.2c0.1-0.1,0.2-0.1,0.3-0.1c0.1,0,0.2,0,0.3,0
		c0.1,0,0.2,0.1,0.3,0.1l3.4,2.8l14.3-19c-0.9-2.4-3.3-8.5-3.3-9.5c0-1.4,5-11.3,6.7-12.7c1.2-1,2.1-0.8,2.5-0.6
		c0.4,0.2,0.8,0.6,1,1c0.2,0.4,0.3,0.9,0.3,1.4c0,0.9-0.7,3.9-1.2,6.1c3.8-3.4,12.5-11.1,14.6-12.1c2.1-1,3.1-0.2,3.4,0.2
		c0.6,0.8,0.4,2-0.5,3.2c-0.9,1-1.8,2-2.7,2.9c2.8-1.4,5.9-2.8,6.8-2.7c1.2,0.1,3.6,2,4.9,4.4c1.2,2.1,1.4,4.1,0.6,5.8
		c-1.9,4-19.2,14.6-22.2,16.4c-1.1,5.3-8.1,39.2-12.5,43.3C125,152,124.1,152.3,122.9,152.3z M97,138.9c9.4,6,24.8,14,27.6,11.4
		c3.5-3.2,10-32,12.2-42.8c0-0.1,0.1-0.2,0.1-0.3s0.1-0.2,0.2-0.2c5.6-3.4,20.5-12.8,22-16c0.7-1.6,0.1-3.3-0.5-4.4
		c-1.2-2.1-3.3-3.7-3.8-3.7c-0.9,0-6.1,2.5-10.6,5c-0.1,0.1-0.2,0.1-0.3,0.1c-0.1,0-0.2,0-0.3,0c-0.1,0-0.2-0.1-0.3-0.1
		c-0.1-0.1-0.1-0.1-0.2-0.2c-0.1-0.2-0.2-0.4-0.1-0.5c0-0.2,0.1-0.4,0.3-0.5c0.1,0,5-4.6,6.4-6.3c0.5-0.7,0.6-1.2,0.5-1.4
		s-0.7-0.2-1.7,0.2c-2.1,1-12.3,10-16,13.4c-0.1,0.1-0.3,0.2-0.4,0.2c-0.2,0-0.3,0-0.5-0.1c-0.1-0.1-0.2-0.2-0.3-0.4
		c-0.1-0.1-0.1-0.3,0-0.5c0.7-2.6,1.8-7.2,1.8-8.1c0-0.2,0-0.4-0.1-0.6c-0.1-0.2-0.2-0.3-0.4-0.4c-0.2-0.1-0.6,0-1,0.4
		c-1.4,1.2-6.1,10.5-6.2,11.6c0,0.6,1.7,5.3,3.3,9.4c0,0.1,0.1,0.2,0,0.4c0,0.1-0.1,0.2-0.1,0.3l-15,19.9c-0.1,0.1-0.1,0.1-0.2,0.2
		c-0.1,0-0.2,0.1-0.3,0.1c-0.1,0-0.2,0-0.3,0c-0.1,0-0.2-0.1-0.3-0.1l-3.4-2.8L97,138.9z"/>
</g>
<g>
	<path class="st2" d="M79.5,93.7c8.1,2.3,32.4,26.9,32.4,26.9l-14.1,25.2c0,0-27.4-17-34.9-28.3S58.5,87.7,79.5,93.7z"/>
</g>
<g>
	<path class="st1" d="M91.7,142.6c-0.1,0-0.3,0-0.4-0.1c-0.1-0.1-0.2-0.2-0.3-0.3c-0.1-0.1-0.1-0.2-0.1-0.4c0-0.1,0-0.2,0.1-0.4
		l13.6-23.3c0-0.1,0.1-0.2,0.2-0.2c0.1-0.1,0.2-0.1,0.3-0.1c0.1,0,0.2,0,0.3,0c0.1,0,0.2,0,0.3,0.1c0.1,0,0.2,0.1,0.2,0.2
		c0.1,0.1,0.1,0.2,0.1,0.2c0,0.1,0,0.2,0,0.3c0,0.1,0,0.2-0.1,0.3l-13.6,23.3c-0.1,0.1-0.2,0.2-0.3,0.3
		C91.9,142.5,91.8,142.6,91.7,142.6z"/>
</g>
<g>
	<path class="st2" d="M56.8,88.9c-10.9,0.9-19.2,6.7-19.2,6.7l-1.2,31.8l8.5,32c0,0-10.9,36.5-14.8,53.1h76.4c0,0-4.6-35.8-13-62.3
		c0,0,5.3-19.5,4.6-26.9c-0.7-7.5-18.6-30-18.6-30S66.8,88,56.8,88.9z"/>
</g>
<g>
	<path class="st0" d="M61.3,85.3c6.9,1.1,10.8,6.1,11.3,9.8c0.4,3.7-2.3,6.9-4.8,7.4c0,0-2.6-7.3-4.5-7.5c-2-0.2-3.4,7.8-3.4,7.8
		s-9.3-0.9-11.7-9C46.4,88.3,53.3,83.9,61.3,85.3z"/>
</g>
<g>
	<path class="st1" d="M59.6,103.3L59.6,103.3c-0.2,0-9.9-1.1-12.5-9.6c-0.3-1.1-0.4-2.2-0.1-3.3c0.2-1.1,0.8-2.1,1.5-2.9
		c2.6-2.9,7.6-4.2,12.7-3.4c7.1,1.2,11.4,6.3,12,10.5c0.5,4.2-2.5,7.7-5.4,8.3c-0.2,0-0.4,0-0.5-0.1c-0.2-0.1-0.3-0.2-0.3-0.4
		c-1.3-3.7-3.1-7-3.9-7.1c-0.7,0.1-2,3.7-2.6,7.3c0,0.2-0.1,0.3-0.3,0.4C59.9,103.2,59.8,103.3,59.6,103.3L59.6,103.3z M58.1,85.4
		c-3.6,0-6.7,1.1-8.5,3.2c-0.6,0.6-1,1.4-1.2,2.2c-0.2,0.8-0.2,1.7,0.1,2.5c1.9,6.3,8.4,8,10.5,8.4c0.6-3.3,1.9-8,4.1-7.8
		c2,0.2,4.1,5.1,4.9,7.4c1.9-0.7,4-3.3,3.6-6.5c-0.4-3.7-4.4-8.2-10.7-9.3C60,85.5,59,85.4,58.1,85.4L58.1,85.4z"/>
</g>
<g>
	<path class="st0" d="M65.6,89.6c0,0-0.2,2.3-3.2,3.5c-1.5,0-3-0.3-4.4-0.9s-2.7-1.5-3.7-2.5l0.8-14.8l2.8,0.6l6.8,1.4l0.7,10.7
		L65.6,89.6z"/>
</g>
<g>
	<path class="st1" d="M62.6,93.6c-1.6,0-3.2-0.4-4.7-1C56.4,92,55.1,91,54,89.9c-0.1-0.1-0.1-0.2-0.2-0.2c0-0.1,0-0.2,0-0.3l0.8-15
		c0-0.1,0-0.2,0.1-0.3c0-0.1,0.1-0.2,0.2-0.2c0.1-0.1,0.2-0.1,0.3-0.1c0.1,0,0.2,0,0.3,0l9.7,2c0.2,0,0.3,0.1,0.4,0.2
		c0.1,0.1,0.2,0.3,0.2,0.4l0.9,12.9c0,0,0,0.1,0,0.1c0,0.1-0.3,2.8-3.7,4.1c-0.1,0-0.1,0-0.2,0H62.6L62.6,93.6z M55.3,89.1
		c2,1.9,4.6,3,7.3,3l0,0c2.2-0.9,2.6-2.5,2.6-2.8l-0.8-12.3L56,75.3L55.3,89.1z"/>
</g>
<g>
	<path class="st1" d="M65.6,87.2C57.7,86.4,57,76.3,57,76.3c0.4-0.3,0.8-0.7,1.3-0.9l6.6,1.4L65.6,87.2z"/>
</g>
<g>
	<path class="st1" d="M101.5,208.2H37.8c-0.2,0-0.4-0.1-0.5-0.2c-0.1-0.2-0.2-0.4-0.2-0.6c0-0.2,0.1-0.4,0.2-0.6
		c0.1-0.2,0.3-0.2,0.5-0.2h63.7c0.2,0,0.4,0.1,0.5,0.2c0.1,0.2,0.2,0.4,0.2,0.6c0,0.2-0.1,0.4-0.2,0.6
		C101.9,208.1,101.7,208.2,101.5,208.2z"/>
</g>
<g>
	<path class="st1" d="M95.8,139.9c-0.1,0-0.2,0-0.3-0.1c-0.1,0-0.2-0.1-0.3-0.2c-0.1-0.1-0.1-0.2-0.1-0.3c0-0.1,0-0.2,0-0.3
		c1.5-7.2,2.1-12.5,1.8-15.4c-0.4-3.8-5.8-13.1-15-25.6c-0.1-0.1-0.1-0.2-0.1-0.3c0-0.1,0-0.2,0-0.3c0-0.1,0-0.2,0.1-0.3
		c0-0.1,0.1-0.2,0.2-0.2c0.1-0.1,0.2-0.1,0.3-0.1c0.1,0,0.2,0,0.3,0c0.1,0,0.2,0,0.3,0.1c0.1,0,0.2,0.1,0.2,0.2
		c5.5,7.4,14.8,20.8,15.3,26.3c0.3,3.1-0.3,8.4-1.9,15.8c0,0.2-0.1,0.3-0.2,0.4C96.2,139.8,96,139.9,95.8,139.9L95.8,139.9z"/>
</g>
<g>
	<path class="st0" d="M17.2,146.9c0,0-4.1,17.4-3,21.9c1.1,4.5,25.4,20.7,45.4,28.6c0,0,3.3,4.3,7,5.1c3.7,0.8,8.1-0.7,8.1-0.7
		s6.6,3.6,8.6,3.1s5.8-6.9,5.9-9s-5.3-4.5-5.3-4.5s6.5,0.8,7.6-0.5s-6-4.9-8.8-5.6c-2.8-0.7-14.7,3.6-14.7,3.6l-30-29.3l3.4-9.2
		c0,0,3.5-10.8-8.5-13C20.8,135.3,17.2,146.9,17.2,146.9z"/>
</g>
<g>
	<path class="st1" d="M82.6,205.5c-2.3,0-6.8-2.3-8.2-3.1c-1.1,0.3-4.8,1.3-8.2,0.6c-3.5-0.8-6.6-4.3-7.3-5.2
		c-20.3-8-44.6-24.1-45.8-28.9c-1.1-4.6,2.8-21.4,3-22.1v-0.1c0-0.1,4-12.2,16.5-9.9c3.9,0.7,6.6,2.4,8.2,4.9c2.4,4,0.9,8.7,0.9,8.9
		l-3.3,8.7L67.8,188c2.4-0.8,11.9-4.1,14.7-3.4c2.4,0.6,8.8,3.5,9.4,5.5c0.1,0.2,0.1,0.4,0.1,0.6c0,0.2-0.1,0.4-0.3,0.6
		c-0.7,0.9-2.9,1-4.9,1c1.4,1,2.8,2.2,2.7,3.5c-0.1,2.3-4,9-6.4,9.6C83,205.5,82.8,205.5,82.6,205.5L82.6,205.5z M74.4,201
		c0.1,0,0.3,0,0.4,0.1c2.6,1.4,6.9,3.3,8,3c1.6-0.4,5.2-6.4,5.3-8.3c0.1-1-2.8-2.9-4.9-3.8c-0.2-0.1-0.3-0.2-0.4-0.3
		c-0.1-0.2-0.1-0.3-0.1-0.5c0-0.2,0.2-0.3,0.3-0.4c0.2-0.1,0.3-0.1,0.5-0.1c3.1,0.4,6.1,0.3,6.8-0.2c-0.6-1.1-5.6-3.8-8.3-4.5
		c-1.9-0.5-9.8,1.9-14.3,3.6c-0.1,0-0.3,0.1-0.4,0c-0.1,0-0.3-0.1-0.4-0.2L37,160.2c-0.1-0.1-0.2-0.2-0.2-0.4c0-0.1,0-0.3,0-0.4
		l3.4-9.1c0,0,1.3-4.3-0.7-7.7c-1.3-2.2-3.7-3.6-7.2-4.2c-11-2-14.6,8.2-14.8,8.9c-0.2,0.8-4,17.2-3,21.4c1,4,24.5,19.9,45.1,28
		c0.1,0,0.2,0.1,0.3,0.2c0,0,3.2,4.1,6.6,4.8c3.4,0.7,7.6-0.7,7.7-0.7C74.3,201,74.4,201,74.4,201L74.4,201z"/>
</g>
<g>
	<path class="st2" d="M37.6,95.8c-5.6,3.5-24.1,51.7-24.1,51.7l28.9,8c0,0,9.1-31.6,10-37.2C55.7,97.3,37.6,95.8,37.6,95.8z"/>
</g>
<g>
	<path class="st1" d="M45,146.3c-0.1,0-0.2,0-0.3-0.1c-0.1-0.1-0.2-0.1-0.3-0.2c-0.1-0.1-0.1-0.2-0.1-0.3c0-0.1,0-0.2,0-0.3l1.4-5.1
		c3.3-12.1,5.3-19.8,5.7-22.1c2.3-14.4-5.6-19.3-10.6-21c-0.1,0-0.2-0.1-0.2-0.1c-0.1-0.1-0.1-0.1-0.2-0.2c0-0.1-0.1-0.2-0.1-0.3
		c0-0.1,0-0.2,0-0.3c0-0.1,0.1-0.2,0.1-0.2c0.1-0.1,0.1-0.1,0.2-0.2c0.1,0,0.2-0.1,0.3-0.1c0.1,0,0.2,0,0.3,0
		c5.4,1.8,14,7.2,11.5,22.6c-0.4,2.5-2.3,10-5.7,22.3l-1.4,5.1c0,0.2-0.1,0.3-0.3,0.4C45.3,146.3,45.2,146.3,45,146.3z"/>
</g>
<g>
	<path class="st1" d="M40.1,149.6c-0.1,0-0.1,0-0.2,0l-22.7-6.6c-0.1,0-0.2-0.1-0.3-0.1c-0.1-0.1-0.1-0.1-0.2-0.2
		c0-0.1-0.1-0.2-0.1-0.3c0-0.1,0-0.2,0-0.3c0-0.1,0.1-0.2,0.1-0.3c0.1-0.1,0.1-0.1,0.2-0.2c0.1,0,0.2-0.1,0.3-0.1c0.1,0,0.2,0,0.3,0
		l22.7,6.6c0.2,0,0.4,0.1,0.5,0.3c0.1,0.2,0.2,0.3,0.1,0.5c0,0.2-0.1,0.4-0.3,0.5C40.5,149.5,40.3,149.6,40.1,149.6z"/>
</g>
<g>
	<path class="st0" d="M30,99.6L30,99.6c-5.5,5-13.4,6-19.7,4.4c-3.1-0.8-5.8-2.2-7.5-4c-1.7-1.8-2.5-4-1.9-6.3
		c0.5-2.5,1.9-4.8,3.8-6.9c1.9-2.2,4.2-4.1,6.5-6.2c0.1-0.1,0.2-0.2,0.3-0.2c2.2-1.9,4.5-3.9,6.4-5.9c1.9-2.1,3.4-4.5,4-7.1
		c0.3-1.6,0.4-3.4,0.4-5.1l0,0c0-1.8,0.1-3.5,0.4-5.2c0.3-1.6,0.9-3.2,1.9-4.5c1-1.3,2.6-2.5,5-3.4c3.5-1.3,6.2-3.4,8.4-5.1
		c0.2-0.2,0.4-0.3,0.6-0.5c1.2-0.9,2.1-1.6,3-2c0.9-0.4,1.6-0.5,2.4-0.2c0.9,0.3,1.5,1.1,1.8,2.1c0.3,1.1,0.3,2.6,0.1,4.1
		c-0.4,3.1-1.7,6.4-2.4,8c-0.5,1-0.6,2.3-0.6,3.7c0,0.5,0,1,0,1.5c0,1,0,1.9-0.1,2.9c-0.2,3-1,5.8-3.7,7.3c-0.9,0.5-1.5,1.2-1.8,2
		c-0.3,0.8-0.4,1.7-0.4,2.7c0,0.9,0.2,2,0.3,3.1c0,0.1,0,0.1,0,0.2c0.1,1,0.3,2.1,0.4,3.3c0.2,2.5,0.1,5.2-0.9,8.1
		C35.6,93.2,33.7,96.3,30,99.6z"/>
	<path d="M16,105.5c-2.1,0-4.1-0.3-5.9-0.7c-3.3-0.8-6-2.3-7.8-4.2c-1.9-2.1-2.7-4.5-2.1-7c0.5-2.4,1.8-4.8,4-7.2
		c1.8-2.1,4-4,6.6-6.2l0.3-0.2c2.2-1.9,4.5-3.8,6.3-5.8c2.1-2.4,3.3-4.5,3.8-6.8c0.3-1.6,0.4-3.3,0.4-5c0-1.8,0.1-3.6,0.4-5.3
		c0.4-1.9,1-3.5,2.1-4.8c1.2-1.6,3-2.8,5.4-3.6c3.4-1.3,6.1-3.3,8.2-5l0.6-0.5c1.3-1,2.2-1.7,3.2-2.1c1.1-0.5,2-0.6,2.9-0.3
		c1.1,0.4,1.9,1.3,2.3,2.7c0.3,1.2,0.3,2.6,0.1,4.4c-0.5,3.4-1.8,6.8-2.5,8.3c-0.4,0.9-0.5,2.1-0.6,3.4c0,0.5,0,0.9,0,1.4
		c0,1,0,2-0.1,3c-0.2,2.7-0.9,6.1-4.1,7.9c-0.7,0.4-1.2,0.9-1.5,1.6c-0.3,0.6-0.4,1.4-0.3,2.4c0,0.9,0.2,1.8,0.3,3l0,0.2
		c0.2,1.1,0.3,2.2,0.4,3.3c0.2,2,0.2,5-0.9,8.4c-1.2,3.4-3.4,6.6-6.9,9.7l0,0C26.2,104.1,20.8,105.5,16,105.5z M43.2,41.9
		c-0.4,0-0.7,0.1-1.2,0.3c-0.8,0.4-1.7,1-2.9,1.9l-0.6,0.5c-2.2,1.7-4.9,3.9-8.6,5.2c-2.1,0.8-3.6,1.8-4.7,3.2
		c-0.9,1.1-1.4,2.4-1.8,4.2c-0.3,1.6-0.4,3.4-0.4,5.1c0,1.8-0.1,3.6-0.4,5.3c-0.5,2.5-1.9,4.9-4.1,7.5c-1.9,2.1-4.2,4.1-6.4,6
		l-0.3,0.2c-2.6,2.2-4.7,4-6.5,6.1c-2,2.3-3.2,4.4-3.6,6.6c-0.5,2.1,0.1,4,1.8,5.7c1.6,1.7,4.1,3,7.1,3.8c5.4,1.4,13.2,1,19-4.2h0
		c3.2-2.9,5.3-5.9,6.4-9c1.1-3.1,1-5.9,0.8-7.8c-0.1-1.1-0.2-2.2-0.4-3.2l0-0.2c-0.2-1.2-0.3-2.2-0.3-3.2c0-1.2,0.1-2.1,0.4-3
		c0.4-1,1.1-1.8,2.2-2.4c2-1.1,3-3.1,3.3-6.7c0.1-1,0.1-1.9,0.1-2.9c0-0.6,0-1,0-1.5c0-1.4,0.2-2.8,0.7-4c0.6-1.3,1.9-4.6,2.4-7.8
		c0.2-1.6,0.2-2.9-0.1-3.8c-0.2-0.9-0.7-1.4-1.3-1.6C43.6,41.9,43.4,41.9,43.2,41.9z"/>
</g>
<g>
	<path class="st0" d="M70.5,66.6c0,0,2.9-4.3,5.9-2.8c3.1,1.5,2,11.7-5.5,10.3L70.5,66.6z"/>
</g>
<g>
	<path class="st1" d="M72.5,74.8c-0.5,0-1-0.1-1.5-0.1c-0.2,0-0.3-0.1-0.4-0.2c-0.1-0.1-0.2-0.3-0.2-0.4l-0.4-7.6
		c0-0.2,0-0.3,0.1-0.4c0.1-0.2,3.3-4.8,7-3.1c2.1,1,2.5,4.5,1.6,7.2C77.7,73.1,75.4,74.8,72.5,74.8z M71.8,73.3
		c3.7,0.4,5.1-2.4,5.5-3.7c0.8-2.5,0.2-4.9-0.9-5.4c-2.2-1-4.4,1.7-5,2.4L71.8,73.3z"/>
</g>
<g>
	<path class="st0" d="M49.1,46.8l-1.7-0.8c-0.3-0.1-0.6-0.2-0.9-0.2c-0.3,0-0.6,0.1-0.8,0.3c-0.7,0.5-1.3,1.2-1.7,1.9
		c-0.4,0.9-0.5,1.8-0.2,2.7c0,0.2,0.1,0.4,0.3,0.6c0.1,0.2,0.3,0.3,0.5,0.5l1.8,1.2c0.2,0.1,0.4,0.2,0.7,0.3s0.5,0,0.7-0.1
		c0.2-0.1,0.4-0.2,0.6-0.4c0.2-0.2,0.3-0.4,0.4-0.6l1.2-3.2c0.2-0.4,0.2-0.9,0-1.3C49.8,47.3,49.5,46.9,49.1,46.8L49.1,46.8z"/>
</g>
<g>
	<path class="st1" d="M46.9,53.8c-0.5,0-0.9-0.1-1.3-0.3l-1.9-1.1c-0.3-0.2-0.5-0.4-0.7-0.6c-0.2-0.3-0.3-0.5-0.4-0.8
		c-0.3-1-0.2-2.1,0.3-3.1c0.5-0.8,1.2-1.6,2-2.1c0.4-0.2,0.8-0.4,1.2-0.4c0.4,0,0.9,0,1.3,0.2l1.8,0.8c0.6,0.3,1,0.7,1.2,1.3
		c0.2,0.6,0.2,1.2,0,1.7l-1.2,3c-0.2,0.5-0.5,0.8-0.9,1.1C47.9,53.7,47.4,53.8,46.9,53.8L46.9,53.8z M46.3,46.6
		c-0.2,0-0.4,0.1-0.6,0.2c-0.6,0.4-1.2,1-1.5,1.6c-0.3,0.7-0.4,1.4-0.2,2.1c0,0.1,0.1,0.2,0.2,0.3c0.1,0.1,0.2,0.2,0.3,0.3l1.9,1.1
		c0.1,0.1,0.3,0.1,0.4,0.1c0.1,0,0.3,0,0.4,0c0.1,0,0.3-0.1,0.4-0.2c0.1-0.1,0.2-0.2,0.2-0.4l1.2-3.1c0.1-0.2,0.1-0.5,0-0.7
		c-0.1-0.2-0.3-0.4-0.5-0.5l-1.8-0.8C46.6,46.6,46.5,46.6,46.3,46.6L46.3,46.6z"/>
</g>
<g>
	<path class="st0" d="M72.5,68.2c-0.4,6.4-3.2,13.8-11,13.6c-5.7-0.1-12-7-12.5-15.7c-0.5-8.7,1-16,11.5-15.5
		c1.1,0.1,2.2,0.2,3.3,0.4c6,1.3,8.4,1.9,8.8,13.7C72.7,65.8,72.6,67,72.5,68.2z"/>
</g>
<g>
	<path class="st1" d="M61.9,82.3h-0.4c-5.7-0.2-12.5-6.9-13-16.4c-0.2-4.6-0.1-10.3,3.1-13.6c2-2,5-3,8.9-2.8
		c1.1,0.1,2.3,0.2,3.4,0.5c6.5,1.5,8.8,2.6,9.2,14.5c0,1,0,2-0.1,3l0,0.5C72.7,75,69.5,82.3,61.9,82.3z M59.5,51
		c-3,0-5.3,0.8-6.8,2.4c-2.2,2.3-3.1,6.2-2.7,12.5c0.5,8.4,6.5,14.9,11.6,15c8.7,0.2,9.9-9.9,10.1-13l0-0.5c0.1-1,0.1-2,0.1-2.9
		c-0.4-11.4-2.4-11.8-8.1-13.1c-1-0.2-2.1-0.4-3.1-0.4C60.2,51,59.8,51,59.5,51L59.5,51z"/>
</g>
<g>
	<path class="st0" d="M51.3,64.6L51.3,64.6c0.9-0.4,1.7-0.9,2.3-1.7c0.6-0.8,1-1.7,1.1-2.7l0,0l0,0c0-0.2,0.1-0.4,0.1-0.7
		c0.1-0.6,0.2-1.4,0.3-2l0.3-1.3l0.9,1c2.1,2.2,5.2,4,8.2,5.4c3,1.4,6,2.3,7.8,2.8l0,0v0c0.4,0.1,0.9,0.1,1.3,0
		c0.4-0.1,0.8-0.4,1-0.8c1.9-2.8,1.8-7,0.1-10.6c-1.7-3.6-4.7-6.2-8.4-6.1l-0.2,0l-0.2-0.1c-8.9-6.1-18.9-1.6-20.3,5.5
		c-1.1,3.8-0.4,7.5,2.1,9.6C49,63.9,50.3,64.4,51.3,64.6z M51.3,64.6L51.3,64.6 M51.3,64.6L51.3,64.6 M51.3,64.6
		c-0.4,0.2-1,0.1-1.8-0.2 M51.3,64.6l-1.8-0.2 M49.5,64.3c-0.7-0.4-1.6-1-2.3-2 M49.5,64.3l-2.3-2"/>
	<path d="M73.1,66.2c-0.3,0-0.6,0-0.8-0.1c-1.9-0.6-4.9-1.5-7.9-2.9c-3.7-1.7-6.6-3.5-8.5-5.5v0c-0.1,0.6-0.2,1.4-0.3,1.9
		c0,0.3-0.1,0.5-0.1,0.7c-0.1,1.1-0.6,2.1-1.3,3c-0.7,0.9-1.6,1.5-2.6,1.9l0,0c0,0-0.1,0-0.1,0l-0.1,0l0,0c-0.6,0.2-1.4,0.1-2.2-0.3
		l0,0l0,0c0,0,0,0,0,0c-0.8-0.4-1.6-1.1-2.3-1.9c-2.3-2.3-3-6.2-1.9-10.1c0.7-3.4,3.3-6.4,7-7.9c4.6-1.9,9.9-1.2,14.5,2
		c3.6-0.1,7.2,2.4,9.1,6.5c1.9,4,1.8,8.5-0.2,11.4c-0.4,0.5-0.8,0.9-1.4,1C73.7,66.1,73.4,66.2,73.1,66.2z M55.1,54.6l1.9,2
		c1.8,1.9,4.5,3.6,8,5.2c3,1.3,5.8,2.3,7.7,2.8c0.3,0.1,0.6,0.1,0.8,0c0.3-0.1,0.5-0.3,0.7-0.5c1.7-2.5,1.7-6.3,0-9.9
		c-1.7-3.6-4.6-5.7-7.7-5.7l-0.5,0l-0.4-0.3c-4.1-2.8-8.9-3.5-13.1-1.8c-3.2,1.3-5.5,3.9-6.1,6.9c-1,3.3-0.4,6.5,1.3,8.4l0,0
		l1.3,1.1c0.6,0.4,1.4,0.7,2.2,0.9c0.7-0.3,1.3-0.8,1.8-1.4c0.5-0.7,0.9-1.5,1-2.3c0-0.2,0.1-0.4,0.1-0.7c0.1-0.6,0.2-1.4,0.3-2.1
		L55.1,54.6z"/>
</g>
<g>
	<path class="st0" d="M51.7,66.1c0,0-4.3-4.3-8.8-2.9c-4.5,1.4-1.9,11.7,9.2,10.4L51.7,66.1z"/>
</g>
<g>
	<path class="st1" d="M50.6,74.8c-5.9,0-9.4-3.4-10.1-6.8c-0.6-2.5,0.4-4.6,2.5-5.3c4.9-1.5,9.4,2.9,9.6,3.1
		c0.1,0.1,0.1,0.2,0.2,0.2c0,0.1,0.1,0.2,0.1,0.3c0,0.1,0,0.2-0.1,0.3s-0.1,0.2-0.2,0.2c-0.1,0.1-0.2,0.1-0.2,0.2
		c-0.1,0-0.2,0.1-0.3,0.1c-0.1,0-0.2,0-0.3-0.1c-0.1,0-0.2-0.1-0.2-0.2c-0.1-0.1-4.1-4-8.1-2.8c-1.5,0.5-1.8,2.1-1.5,3.6
		c0.7,3.2,4.3,6.2,10.5,5.5c0.2,0,0.4,0,0.5,0.2c0.2,0.1,0.3,0.3,0.3,0.5c0,0.2,0,0.4-0.2,0.5c-0.1,0.2-0.3,0.3-0.5,0.3
		C52,74.7,51.3,74.8,50.6,74.8L50.6,74.8z"/>
</g>
<g>
	<path class="st0" d="M387.8,216.5l-2.6,17.1l-15.5,103.8c-0.4,2.4-1.6,4.6-3.4,6.1c-1.8,1.6-4.2,2.4-6.6,2.4H190.3
		c-1.4,0-2.9-0.3-4.2-0.9c-1.3-0.6-2.5-1.5-3.4-2.6c-0.9-1.1-1.6-2.4-2-3.8c-0.4-1.4-0.5-2.8-0.3-4.3l15.1-100.8l3-20.1
		c0.4-2.4,1.6-4.6,3.4-6.1c1.8-1.6,4.2-2.4,6.6-2.4h169.5c1.4,0,2.9,0.3,4.2,0.9c1.3,0.6,2.5,1.5,3.4,2.6c0.9,1.1,1.6,2.4,2,3.8
		C387.9,213.6,388,215.1,387.8,216.5L387.8,216.5z"/>
</g>
<g>
	<path class="st1" d="M360.1,347H190.5c-1.6,0-3.1-0.3-4.5-1c-1.4-0.6-2.7-1.6-3.7-2.8c-1-1.2-1.8-2.6-2.2-4.1
		c-0.4-1.5-0.5-3.1-0.3-4.6l18.1-121.5c0.4-2.6,1.7-4.9,3.6-6.6c2-1.7,4.4-2.6,7-2.6h169.6c1.6,0,3.1,0.3,4.5,1
		c1.4,0.6,2.7,1.6,3.7,2.8c1,1.2,1.8,2.6,2.2,4.1c0.4,1.5,0.5,3.1,0.3,4.6l-18.1,121.5c-0.4,2.6-1.7,4.9-3.7,6.6
		S362.7,347,360.1,347L360.1,347z M208.6,205.4c-2.2,0-4.4,0.8-6.1,2.3c-1.7,1.5-2.8,3.5-3.1,5.7l-18.1,121.5
		c-0.2,1.3-0.1,2.7,0.3,4c0.4,1.3,1,2.5,1.9,3.5c0.9,1,2,1.8,3.2,2.4c1.2,0.6,2.5,0.8,3.9,0.8h169.6c2.2,0,4.4-0.8,6.1-2.3
		c1.7-1.5,2.8-3.5,3.1-5.7l18.1-121.5c0.2-1.3,0.1-2.7-0.3-4c-0.4-1.3-1-2.5-1.9-3.5c-0.9-1-2-1.8-3.2-2.4c-1.2-0.6-2.5-0.9-3.9-0.9
		H208.6L208.6,205.4z"/>
</g>
<g>
	<path class="st2" d="M387.4,214.8c0,0.5,0,0.9-0.1,1.4l-2.6,17.2v0.1H195.8l3-20c0.3-2.2,1.4-4.2,3.1-5.7c1.7-1.5,3.9-2.3,6.1-2.3
		H378c2.5,0,4.9,1,6.6,2.7C386.4,210,387.4,212.4,387.4,214.8L387.4,214.8z"/>
</g>
<g>
	<path class="st0" d="M218.7,223.3c2.2,0,4-1.8,4-4c0-2.2-1.8-4-4-4c-2.2,0-4,1.8-4,4C214.7,221.5,216.5,223.3,218.7,223.3z"/>
</g>
<g>
	<path class="st0" d="M238.9,223.3c2.4,0,4.3-1.8,4.3-4c0-2.2-1.9-4-4.3-4s-4.3,1.8-4.3,4C234.6,221.5,236.5,223.3,238.9,223.3z"/>
</g>
<g>
	<path class="st0" d="M259.1,223.3c2.2,0,4-1.8,4-4c0-2.2-1.8-4-4-4c-2.2,0-4,1.8-4,4C255,221.5,256.8,223.3,259.1,223.3z"/>
</g>
<g>
	<path class="st1" d="M278.4,294.4c-19.1-0.8-20.6-9.8-16.8-23.3c-2.9-4.4-6.1-9.8-3.2-20c2.7-9.5,20-20.1,33.2-8
		c0.3,0.1,10,2.9,10.2,21C301.9,282.5,299.9,295.4,278.4,294.4z"/>
</g>
<g>
	<path class="st2" d="M258.6,328.6c-2.5,9.6-5.1,20.2-9.2,29.2c-5.2,8.5-16.9,21.7-24.9,20.3c-10.4-1.9-3.6-27.6-2-33.7
		c0.1-0.3,10.5-18.2,15.6-32.3c5.1-14.1,17.4-18.2,17.4-18.2S264.2,306.7,258.6,328.6z"/>
</g>
<g>
	<path class="st2" d="M316.8,297.5c0,0-19.6-13.8-61.3-3.8c0,0-15.5,20.4-16.1,41.2c-0.2,5.3,2.9,15,2.8,21.1
		c-0.2,16.2-1.6,32.4-4.1,48.4l86.8,2.8C324.9,407.3,329.9,357.8,316.8,297.5z"/>
</g>
<g>
	<path class="st1" d="M242.1,362.8L242.1,362.8c-0.1,0-0.2,0-0.3-0.1c-0.1,0-0.2-0.1-0.2-0.2c-0.1-0.1-0.1-0.2-0.2-0.2
		c0-0.1-0.1-0.2,0-0.3c0.1-2,0.1-4,0.1-5.9c0-3-0.7-7-1.4-10.9c-0.7-3.9-1.4-7.6-1.3-10.2c0.5-16.5,10.3-32.8,14.4-39
		c0.1-0.2,0.3-0.3,0.5-0.3c0.2,0,0.4,0,0.5,0.1c0.2,0.1,0.3,0.3,0.3,0.5s0,0.4-0.1,0.5c-4.1,6.1-13.7,22.1-14.2,38.2
		c-0.1,2.5,0.6,6.1,1.3,9.9c0.7,3.9,1.5,8,1.5,11.2c0,1.9-0.1,4-0.1,6c0,0.2-0.1,0.4-0.2,0.5C242.4,362.7,242.3,362.8,242.1,362.8z"
		/>
</g>
<g>
	<path class="st1" d="M321.1,402l-77.3-1.8c-0.1,0-0.2,0-0.3-0.1c-0.1,0-0.2-0.1-0.2-0.2c-0.1-0.1-0.1-0.1-0.2-0.2
		c0-0.1-0.1-0.2,0-0.3c0-0.1,0-0.2,0.1-0.3c0-0.1,0.1-0.2,0.2-0.2c0.1-0.1,0.2-0.1,0.2-0.2c0.1,0,0.2-0.1,0.3,0l77.3,1.8
		c0.2,0,0.4,0.1,0.5,0.2c0.1,0.1,0.2,0.3,0.2,0.5c0,0.2-0.1,0.4-0.2,0.5C321.5,401.9,321.3,402,321.1,402z"/>
</g>
<g>
	<path class="st0" d="M294.4,293.7c-1.1,2.6-2.7,4.8-4.8,6.7c-2.1,1.9-4.5,3.2-7.2,4c-0.9-4.9-3.4-11.1-3.4-11.1
		c-2.7,3.8-4.2,8.8-4.5,11c-8.9-2.4-9.9-11-9.9-11c1.1-8.5,8.4-15,14.7-14.7C293.3,279.2,294.4,293.7,294.4,293.7z"/>
</g>
<g>
	<path class="st1" d="M282.4,305.2c-0.2,0-0.3-0.1-0.5-0.2c-0.1-0.1-0.2-0.3-0.3-0.4c-0.6-3.4-2.1-7.6-2.8-9.6
		c-1.8,2.9-3,6.2-3.6,9.6c0,0.1-0.1,0.2-0.1,0.3c-0.1,0.1-0.1,0.2-0.2,0.2c-0.1,0.1-0.2,0.1-0.3,0.1c-0.1,0-0.2,0-0.3,0
		c-9.2-2.5-10.4-11.5-10.4-11.6c0-0.1,0-0.1,0-0.2c1.2-9.3,9.1-15.6,15.5-15.4c14.4,0.5,15.7,15.5,15.7,15.7c0,0.1,0,0.2-0.1,0.3
		c-1.1,2.7-2.8,5-5,7c-2.2,1.9-4.7,3.4-7.5,4.2C282.6,305.2,282.5,305.2,282.4,305.2z M279.1,292.7L279.1,292.7
		c0.2,0,0.3,0.1,0.4,0.1c0.1,0.1,0.2,0.2,0.2,0.3c0.1,0.2,2.2,5.6,3.2,10.4c2.4-0.8,4.5-2.1,6.4-3.8c1.8-1.7,3.3-3.8,4.3-6.1
		c-0.2-1.7-1.9-13.7-14.3-14.2c-5.7-0.2-12.9,5.8-14,14c0.1,0.9,1.3,7.6,8.6,10c0.5-2.5,1.9-6.9,4.5-10.5c0.1-0.1,0.1-0.2,0.2-0.2
		C278.9,292.7,279,292.7,279.1,292.7L279.1,292.7z"/>
</g>
<g>
	<path class="st0" d="M287.5,261.5l-0.2,8.6l-0.4,14.6c-4.9,3.4-9.7,3.8-14.3,0.3l0.7-6.8l1-10.3L287.5,261.5z"/>
</g>
<g>
	<path class="st1" d="M279.3,288.2c-2.5,0-4.8-0.9-7.1-2.6c-0.1-0.1-0.2-0.2-0.2-0.3c-0.1-0.1-0.1-0.2-0.1-0.4l1.7-17.1
		c0-0.1,0.1-0.2,0.1-0.3c0.1-0.1,0.2-0.2,0.3-0.2l13.3-6.4c0.1-0.1,0.2-0.1,0.4-0.1c0.1,0,0.2,0,0.4,0.1s0.2,0.2,0.2,0.3
		c0.1,0.1,0.1,0.2,0.1,0.4l-0.6,23.2c0,0.1,0,0.2-0.1,0.3c-0.1,0.1-0.1,0.2-0.2,0.3C284.6,287.2,281.9,288.2,279.3,288.2z
		 M273.3,284.7c4,2.9,8.2,2.7,12.9-0.4l0.6-21.6l-11.8,5.7L273.3,284.7z"/>
</g>
<g>
	<path class="st0" d="M263,263.1c0.5,7.1,2.2,15.5,10.7,14.5c10.1-1.2,16.8-8.1,17.3-17.6c0.4-9.5-3.8-15.1-15.3-14.4
		c-1,0.1-1.9,0.2-2.9,0.4c-6.6,1.5-10.1,6.9-10,13.3C262.8,260.5,262.9,261.8,263,263.1z"/>
</g>
<g>
	<path class="st1" d="M272.3,278.4c-2,0.1-3.9-0.6-5.4-1.8c-3.6-3-4.4-9.1-4.7-13.5c-0.1-1.3-0.1-2.6-0.2-3.8
		c-0.2-7.1,3.8-12.5,10.5-14c0.2,0,0.4,0,0.5,0.1c0.2,0.1,0.3,0.3,0.3,0.5c0,0.2,0,0.4-0.1,0.5c-0.1,0.2-0.3,0.3-0.5,0.3
		c-6,1.4-9.6,6.2-9.4,12.6c0,1.2,0.1,2.4,0.2,3.7c0.3,4.1,1,9.8,4.2,12.4c1.5,1.2,3.3,1.7,5.7,1.4c3.6-0.4,7.1-1.7,10-3.9
		c0.1-0.1,0.2-0.1,0.3-0.1c0.1,0,0.2,0,0.3,0c0.1,0,0.2,0,0.3,0.1c0.1,0,0.2,0.1,0.2,0.2c0.1,0.1,0.1,0.2,0.1,0.3c0,0.1,0,0.2,0,0.3
		c0,0.1,0,0.2-0.1,0.3c0,0.1-0.1,0.2-0.2,0.2c-3.1,2.3-6.9,3.8-10.8,4.2C273.3,278.4,272.8,278.4,272.3,278.4L272.3,278.4z"/>
</g>
<g>
	<path class="st1" d="M264.6,248.3c0,0,0.8,15.7,21.9,15.9c0,0,12.5-3.8,8.3-15.9C290.6,236.2,270,233.4,264.6,248.3z"/>
</g>
<g>
	<path class="st0" d="M214.5,309.5c0,0-3.9-26.2-4-27.8c-0.1-1.6,2.8-6.2,9.1-6.7c6.4-0.5,7.8,1.7,7.8,3.7c0,2,1,9.6,1,9.6
		s-0.2-9.6-0.1-11.1c0.1-1.4,3.7-2.3,4,0.1c0.2,2.4,1.2,19.6,1.2,19.6s8.3-2.5,10.5-2.6c2.2-0.1,1.9,3.4,0.8,4
		c-1.1,0.6-19.5,13.7-19.5,13.7L214.5,309.5z"/>
</g>
<g>
	<path class="st1" d="M225.2,312.7c-0.1,0-0.1,0-0.2,0l-10.7-2.5c-0.1,0-0.3-0.1-0.4-0.2c-0.1-0.1-0.2-0.2-0.2-0.4
		c-0.2-1.1-3.9-26.3-4-27.8c-0.1-1,0.6-2.3,1.6-3.6c1.1-1.3,3.7-3.6,8.2-3.9c3.5-0.3,6,0.2,7.4,1.5c0.3,0.3,0.5,0.6,0.7,0.9
		c0.4-1,1.6-1.5,2.8-1.6h0c1.4,0,2.4,0.8,2.5,2.2c0.2,2.1,0.9,15.1,1.2,18.7c2.2-0.7,7.9-2.3,9.7-2.4c0.5,0,1,0.1,1.5,0.4
		c0.4,0.3,0.7,0.8,0.8,1.3c0.4,1.2,0,3.1-1,3.6c-0.8,0.4-12.1,8.4-19.5,13.7C225.5,312.6,225.4,312.7,225.2,312.7z M215.1,308.8
		l9.9,2.3c2.8-2,18.3-13,19.3-13.6c0.3-0.1,0.6-1.1,0.4-2c-0.2-0.6-0.5-0.7-0.8-0.6c-1.7,0.1-8,1.9-10.3,2.6c-0.1,0-0.2,0-0.3,0
		c-0.1,0-0.2-0.1-0.3-0.1c-0.1-0.1-0.2-0.1-0.2-0.2c-0.1-0.1-0.1-0.2-0.1-0.3c0-0.2-1-17.2-1.2-19.6c0-0.2-0.1-0.9-1-0.9
		c-0.8,0-1.4,0.5-1.4,0.7c-0.1,1.1,0,7.7,0.1,11c0,0.2,0,0.4-0.2,0.5c-0.1,0.1-0.3,0.2-0.5,0.2c-0.2,0-0.4,0-0.5-0.2
		c-0.1-0.1-0.2-0.3-0.2-0.5c0-0.3-1-7.6-1-9.7c0-0.3,0-0.7-0.2-1c-0.1-0.3-0.3-0.6-0.6-0.9c-1-1-3.2-1.4-6.3-1.1
		c-4,0.3-6.2,2.3-7.2,3.4c-1,1.1-1.3,2.2-1.3,2.5C211.3,282.8,213.8,299.7,215.1,308.8L215.1,308.8z"/>
</g>
<g>
	<path class="st2" d="M213.3,307.4l14.1,3.9c0,0,1.4,26,2.5,36.8c1.1,10.8,1.3,28.3-5.4,29.9c-6.7,1.6-23.6-7.6-20.7-24.2
		C208.3,327.5,213.3,307.4,213.3,307.4z"/>
</g>
<g>
	<path class="st1" d="M228.7,373.8c-0.1,0-0.2,0-0.3-0.1c-0.1-0.1-0.2-0.1-0.3-0.2c-0.1-0.1-0.1-0.2-0.1-0.3c0-0.1,0-0.2,0-0.3
		c2.6-7.3,1.5-20.8,1.2-24.8L228,333c0-0.2,0-0.4,0.2-0.5c0.1-0.1,0.3-0.2,0.5-0.3c0.2,0,0.4,0,0.5,0.2c0.1,0.1,0.2,0.3,0.3,0.5
		l1.2,15.1c0.5,5.1,1.4,18-1.2,25.4c-0.1,0.1-0.1,0.3-0.3,0.3C229,373.8,228.9,373.8,228.7,373.8L228.7,373.8z"/>
</g>
<g>
	<path class="st1" d="M225.7,319.7c-0.1,0-0.1,0-0.2,0l-12.4-3.2c-0.1,0-0.2-0.1-0.3-0.1c-0.1-0.1-0.1-0.1-0.2-0.2
		c0-0.1-0.1-0.2-0.1-0.3c0-0.1,0-0.2,0-0.3c0-0.1,0.1-0.2,0.1-0.3c0.1-0.1,0.1-0.1,0.2-0.2c0.1,0,0.2-0.1,0.3-0.1c0.1,0,0.2,0,0.3,0
		l12.4,3.2c0.2,0,0.4,0.1,0.5,0.3c0.1,0.2,0.2,0.3,0.1,0.5s-0.1,0.4-0.3,0.5C226.1,319.7,225.9,319.8,225.7,319.7L225.7,319.7z"/>
</g>
<g>
	<path class="st0" d="M216.8,314.2c1.1,0,2-0.9,2-2c0-1.1-0.9-2-2-2s-2,0.9-2,2C214.8,313.3,215.7,314.2,216.8,314.2z"/>
</g>
<g>
	<path class="st1" d="M216.8,314.9c-0.5,0-1.1-0.2-1.5-0.5c-0.4-0.3-0.8-0.7-1-1.2c-0.2-0.5-0.3-1-0.2-1.6c0.1-0.5,0.4-1,0.7-1.4
		c0.4-0.4,0.9-0.6,1.4-0.7c0.5-0.1,1.1-0.1,1.6,0.2c0.5,0.2,0.9,0.6,1.2,1s0.5,1,0.5,1.5c0,0.7-0.3,1.4-0.8,1.9
		S217.5,314.9,216.8,314.9L216.8,314.9z M216.8,311c-0.2,0-0.5,0.1-0.7,0.2c-0.2,0.1-0.4,0.3-0.5,0.6c-0.1,0.2-0.1,0.5-0.1,0.7
		c0,0.2,0.2,0.5,0.3,0.6c0.2,0.2,0.4,0.3,0.6,0.3c0.2,0,0.5,0,0.7-0.1c0.2-0.1,0.4-0.3,0.6-0.5c0.1-0.2,0.2-0.5,0.2-0.7
		c0-0.2,0-0.3-0.1-0.5c-0.1-0.2-0.2-0.3-0.3-0.4c-0.1-0.1-0.3-0.2-0.4-0.3C217.2,311,217,310.9,216.8,311L216.8,311z"/>
</g>
<g>
	<path class="st2" d="M316.8,297.5c0,0,24.6,12.3,22.5,109.7h-31.8c0,0,0.4-64.7-1.9-80.1C302.6,307.9,310.8,298,316.8,297.5z"/>
</g>
<g>
	<path class="st1" d="M307.5,395.2c-0.2,0-0.4-0.1-0.5-0.2c-0.1-0.1-0.2-0.3-0.2-0.5c0-20.4-0.3-56.3-1.9-67.2
		c-2.5-16.5,3-26,8.4-29.2c0.1,0,0.2-0.1,0.3-0.1c0.1,0,0.2,0,0.3,0c0.1,0,0.2,0.1,0.3,0.1c0.1,0.1,0.1,0.1,0.2,0.2
		c0,0.1,0.1,0.2,0.1,0.3c0,0.1,0,0.2,0,0.3c0,0.1-0.1,0.2-0.1,0.3c-0.1,0.1-0.1,0.1-0.2,0.2c-5.4,3.2-9.9,13-7.7,27.7
		c1.7,11,1.9,47,2,67.4c0,0.2-0.1,0.4-0.2,0.5C307.9,395.1,307.7,395.2,307.5,395.2L307.5,395.2z"/>
</g>
<g>
	<path class="st0" d="M286.5,265.3c-0.3-4,2.6-7.6,6.6-7.9c0.9-0.1,1.7,0,2.5,0.3c4.9,1.5,3.2,13-8.9,11.7L286.5,265.3z"/>
</g>
<g>
	<path class="st1" d="M288.6,270.2c-0.6,0-1.3,0-1.9-0.1c-0.2,0-0.4-0.1-0.5-0.3c-0.1-0.1-0.2-0.3-0.2-0.5c0-0.2,0.1-0.4,0.3-0.5
		c0.2-0.1,0.3-0.2,0.5-0.2c6.7,0.7,9.9-2.6,10.5-5.7c0.4-2.2-0.4-4.1-1.9-4.5c-0.7-0.2-1.5-0.3-2.2-0.2c-1.7,0.2-3.3,1-4.5,2.4
		c-1.1,1.3-1.7,3.1-1.5,4.8c0,0.2,0,0.4-0.2,0.5c-0.1,0.1-0.3,0.2-0.5,0.2c-0.2,0-0.4,0-0.5-0.2c-0.1-0.1-0.2-0.3-0.2-0.5
		c-0.3-4.5,2.9-8.4,7.3-8.7c0.9-0.1,1.9,0,2.8,0.3c2.3,0.7,3.5,3.3,2.9,6.2C298.1,266.8,294.7,270.2,288.6,270.2z"/>
</g>
<g>
	<path d="M340.3,335.7c10.3,0,18.6-8.2,18.6-18.3s-8.3-18.3-18.6-18.3c-10.3,0-18.6,8.2-18.6,18.3S330.1,335.7,340.3,335.7z"/>
</g>
<g>
	<path class="st0" d="M344.7,322.1c0,0-4.9,4.9-10.9,6.1c-0.4,0.1-0.8,0-1.2-0.1c-0.4-0.1-0.7-0.4-1-0.7l-2-2
		c-0.9-0.9-1.1-2.3-0.3-3.1l2.3-2.3c0.8-0.8,2.2-0.6,3.1,0.3l1.1,1.1c0.6-0.1,1.3-0.3,1.9-0.5c1.3-0.5,2.6-1.4,3.6-2.4
		c1-1,1.8-2.2,2.4-3.6c0.3-0.6,0.5-1.2,0.5-1.9L343,312c-0.9-0.9-1.1-2.3-0.3-3.1l2.3-2.3c0.8-0.8,2.2-0.6,3.1,0.3l2,2
		c0.3,0.3,0.5,0.6,0.7,1c0.1,0.4,0.2,0.8,0.1,1.2C349.6,317.2,344.7,322.1,344.7,322.1z"/>
</g>
<g>
	<path class="st2" d="M123.2,201.6v21.8c0,1.9,0.8,3.8,2.1,5.2c1.4,1.4,3.2,2.1,5.2,2.1h30.8l5.7,5.8c0.1,0.1,0.3,0.2,0.4,0.2
		s0.3,0,0.5,0c0.1-0.1,0.3-0.2,0.4-0.3c0.1-0.1,0.1-0.3,0.1-0.5v-5.2h6.1c1.9,0,3.8-0.8,5.2-2.1c1.4-1.4,2.1-3.2,2.1-5.2v-21.8
		c0-1.9-0.8-3.8-2.1-5.2c-1.4-1.4-3.2-2.1-5.2-2.1h-44c-1.9,0-3.8,0.8-5.2,2.2C124,197.8,123.2,199.6,123.2,201.6z"/>
</g>
<g>
	<path class="st0" d="M133.6,209.8H172c1.3,0,2.3-1.1,2.3-2.4c0-1.3-1-2.4-2.3-2.4h-38.5c-1.3,0-2.3,1.1-2.3,2.4
		C131.3,208.8,132.3,209.8,133.6,209.8z"/>
</g>
<g>
	<path class="st0" d="M157.8,220.1H172c1.3,0,2.3-1,2.3-2.2c0-1.2-1-2.2-2.3-2.2h-14.2c-1.3,0-2.3,1-2.3,2.2
		C155.5,219.1,156.5,220.1,157.8,220.1z"/>
</g>
<g>
	<path class="st0" d="M119.2,455H65.9c0-1.8,0.1-3.5,0.2-5.2l0,0c0.6-10.1,2.1-20.1,4.5-29.9H88c6.6,12.7,18.9,19.1,25.7,21.7
		c1.3,0.5,2.5,1.4,3.3,2.5c0.8,1.1,1.4,2.5,1.5,3.9l0,0l0.2,1.8v0L119.2,455z"/>
	<path d="M120,455.7H65.1l0-0.8c0-1.8,0.1-3.5,0.2-5.2c0.6-10.1,2.1-20.2,4.6-30l0.1-0.6h18.4l0.2,0.4c6.5,12.5,18.6,18.7,25.3,21.4
		c1.4,0.6,2.7,1.5,3.6,2.8c0.9,1.2,1.5,2.7,1.6,4.2L120,455.7z M66.6,454.2h51.7l-0.6-6.2c-0.1-1.3-0.6-2.5-1.3-3.5
		c-0.8-1-1.8-1.8-3-2.3c-6.8-2.7-19.2-9-25.9-21.7H71.2c-2.3,9.5-3.8,19.3-4.4,29.2C66.7,451.2,66.7,452.7,66.6,454.2z"/>
</g>
<g>
	<path class="st0" d="M293.2,416.4c-0.1,0-0.3-0.1-0.4-0.2c-0.1-0.1-0.2-0.3-0.2-0.5v-5c0-0.2,0.1-0.4,0.2-0.5
		c0.1-0.1,0.2-0.2,0.4-0.2c0.1,0,0.3,0.1,0.4,0.2c0.1,0.1,0.2,0.3,0.2,0.5v5c0,0.2-0.1,0.4-0.2,0.5
		C293.5,416.4,293.4,416.4,293.2,416.4z"/>
</g>
<g>
	<path class="st0" d="M300.6,419.1h-5c-0.2,0-0.4-0.1-0.5-0.2c-0.1-0.2-0.2-0.4-0.2-0.6s0.1-0.4,0.2-0.6c0.1-0.2,0.3-0.2,0.5-0.2h5
		c0.2,0,0.4,0.1,0.5,0.2c0.1,0.2,0.2,0.4,0.2,0.6s-0.1,0.4-0.2,0.6C300.9,419,300.8,419.1,300.6,419.1z"/>
</g>
<g>
	<path class="st0" d="M293.2,426.1c-0.1,0-0.3-0.1-0.4-0.2c-0.1-0.1-0.2-0.3-0.2-0.5v-4.6c0-0.2,0.1-0.4,0.2-0.5
		c0.1-0.1,0.2-0.2,0.4-0.2c0.1,0,0.3,0.1,0.4,0.2c0.1,0.1,0.2,0.3,0.2,0.5v4.6c0,0.2-0.1,0.4-0.2,0.5
		C293.5,426.1,293.4,426.1,293.2,426.1z"/>
</g>
<g>
	<path class="st0" d="M290.9,419.1h-5c-0.2,0-0.4-0.1-0.5-0.2c-0.1-0.2-0.2-0.4-0.2-0.6s0.1-0.4,0.2-0.6c0.1-0.2,0.3-0.2,0.5-0.2h5
		c0.2,0,0.4,0.1,0.5,0.2c0.1,0.2,0.2,0.4,0.2,0.6s-0.1,0.4-0.2,0.6C291.3,419,291.1,419.1,290.9,419.1z"/>
</g>
<g>
	<path class="st2" d="M340.3,435.8c3.4,0,6.2-2.8,6.2-6.2c0-3.4-2.8-6.2-6.2-6.2c-3.4,0-6.2,2.8-6.2,6.2
		C334.1,433,336.9,435.8,340.3,435.8z"/>
</g>
<g>
	<path class="st2" d="M152.5,377.2c2.8,0,5.1-2.3,5.1-5.1s-2.3-5.1-5.1-5.1s-5.1,2.3-5.1,5.1S149.7,377.2,152.5,377.2z"/>
</g>
</svg>
