
<svg width="181" height="47" viewBox="0 0 181 47" fill="none" xmlns="http://www.w3.org/2000/svg">
<g clip-path="url(#clip0)">
<path d="M59.1811 38.3943C59.1963 38.4271 59.2209 38.4547 59.2517 38.4736C59.2975 38.5033 59.3468 38.5271 59.3986 38.5444C59.4607 38.5643 59.5398 38.5869 59.6358 38.6096C59.7314 38.6339 59.8257 38.6632 59.9182 38.6974C59.9912 38.7269 60.0589 38.768 60.1188 38.8192C60.1711 38.8629 60.2126 38.9182 60.2402 38.9807C60.2699 39.0504 60.2844 39.1258 60.2826 39.2016C60.2843 39.2893 60.2669 39.3763 60.2317 39.4566C60.1975 39.53 60.1473 39.5949 60.0849 39.6463C60.019 39.7019 59.9419 39.7425 59.8589 39.7653C59.7671 39.7916 59.672 39.8049 59.5765 39.805C59.4251 39.8058 59.2748 39.779 59.1331 39.7257C58.9881 39.6712 58.8549 39.5894 58.7405 39.4849L58.9523 39.2299C59.0416 39.3087 59.1414 39.3744 59.2489 39.4254C59.3556 39.4723 59.4712 39.4955 59.5878 39.4934C59.6788 39.4975 59.7687 39.4727 59.8448 39.4226C59.8754 39.4022 59.9003 39.3744 59.9171 39.3416C59.9339 39.3089 59.9421 39.2724 59.9408 39.2356C59.9414 39.2027 59.9357 39.17 59.9239 39.1393C59.9076 39.1071 59.8833 39.0798 59.8533 39.06C59.8114 39.0311 59.7658 39.0082 59.7177 38.992C59.6584 38.9722 59.5821 38.9495 59.4889 38.9268C59.3932 38.904 59.2989 38.8756 59.2065 38.8419C59.1314 38.8151 59.0609 38.7769 58.9975 38.7286C58.9427 38.6829 58.8984 38.6259 58.8676 38.5614C58.8374 38.4859 58.8229 38.4049 58.8252 38.3235C58.8244 38.2405 58.8417 38.1583 58.876 38.0827C58.9096 38.0112 58.9577 37.9475 59.0173 37.8957C59.0804 37.8424 59.1533 37.8019 59.2319 37.7768C59.3235 37.7491 59.4187 37.7357 59.5143 37.7371C59.6497 37.7348 59.7844 37.7559 59.9126 37.7994C60.0314 37.846 60.1428 37.91 60.243 37.9892L60.0538 38.2555C59.9665 38.1928 59.8716 38.1414 59.7714 38.1025C59.682 38.065 59.5858 38.0466 59.4889 38.0487C59.4031 38.0431 59.318 38.0682 59.2489 38.1195C59.2225 38.1395 59.2009 38.1651 59.1858 38.1945C59.1706 38.2239 59.1623 38.2564 59.1613 38.2895C59.1596 38.3255 59.1664 38.3614 59.1811 38.3943Z" fill="#53A5F2"/>
<path d="M66.7869 39.1705C66.7367 39.2941 66.6628 39.4067 66.5694 39.5019C66.4707 39.6021 66.3527 39.6812 66.2226 39.7342C66.0925 39.7873 65.9529 39.8133 65.8125 39.8107C65.6662 39.8133 65.5209 39.7853 65.386 39.7285C65.2631 39.6778 65.1516 39.6026 65.0584 39.5076C64.965 39.413 64.8919 39.3002 64.8437 39.1761C64.7383 38.9184 64.7383 38.6294 64.8437 38.3716C64.8929 38.2474 64.9669 38.1346 65.0612 38.0402C65.1586 37.9414 65.2748 37.8631 65.4029 37.8101C65.5309 37.7571 65.6683 37.7303 65.8069 37.7315C65.9522 37.7291 66.0965 37.7571 66.2305 37.8136C66.3534 37.8643 66.4649 37.9395 66.5581 38.0346C66.6515 38.1297 66.7254 38.2423 66.7756 38.366C66.8772 38.6245 66.8772 38.912 66.7756 39.1705H66.7869ZM66.4423 38.4963C66.412 38.4113 66.3649 38.3333 66.3039 38.2668C66.2426 38.2016 66.1686 38.1495 66.0865 38.1139C65.9981 38.0726 65.9015 38.0522 65.804 38.0544C65.7069 38.0522 65.6104 38.0716 65.5216 38.111C65.4399 38.146 65.3667 38.1982 65.3069 38.264C65.2463 38.3296 65.1993 38.4067 65.1685 38.4906C65.1337 38.5809 65.1164 38.6771 65.1177 38.7739C65.1166 38.8707 65.1339 38.9668 65.1685 39.0572C65.2005 39.142 65.2485 39.2199 65.3098 39.2866C65.3703 39.3516 65.4433 39.4036 65.5244 39.4396C65.6128 39.4807 65.7094 39.501 65.8069 39.4991C65.904 39.5007 66.0003 39.4814 66.0893 39.4424C66.1697 39.4067 66.2418 39.3546 66.3011 39.2894C66.3621 39.2241 66.4092 39.147 66.4395 39.0628C66.4742 38.9725 66.4914 38.8764 66.4903 38.7796C66.4925 38.6829 66.4762 38.5868 66.4423 38.4963Z" fill="#53A5F2"/>
<path d="M71.4555 37.7654H71.8029V39.465H72.8592V39.7851H71.447L71.4555 37.7654Z" fill="#53A5F2"/>
<path d="M79.005 38.9069C79.0064 39.0407 78.9854 39.1738 78.9429 39.3007C78.9057 39.4067 78.8459 39.5034 78.7678 39.5839C78.6882 39.6614 78.5914 39.7187 78.4854 39.7511C78.2552 39.8274 78.0066 39.8274 77.7764 39.7511C77.6739 39.7158 77.5808 39.6574 77.5044 39.5803C77.428 39.5031 77.3703 39.4094 77.3359 39.3063C77.2944 39.1832 77.2743 39.0539 77.2765 38.9239V37.7654H77.6268V38.8984C77.6148 39.0533 77.6634 39.2067 77.7623 39.3262C77.8104 39.3759 77.8686 39.4148 77.9329 39.4402C77.9972 39.4656 78.0661 39.4769 78.1351 39.4735C78.2037 39.4769 78.2722 39.4662 78.3363 39.4418C78.4005 39.4174 78.4589 39.38 78.508 39.3318C78.606 39.2152 78.6547 39.0647 78.6435 38.9126V37.754H78.9937L79.005 38.9069Z" fill="#53A5F2"/>
<path d="M84.0436 39.6577C83.9439 39.5987 83.8558 39.5219 83.7837 39.4311C83.7104 39.3405 83.6531 39.238 83.6143 39.128C83.5742 39.0114 83.5542 38.8888 83.555 38.7654C83.554 38.6267 83.5799 38.4892 83.6312 38.3603C83.679 38.2347 83.7514 38.1198 83.844 38.0226C83.9366 37.9253 84.0477 37.8475 84.1707 37.7938C84.3026 37.737 84.4451 37.709 84.5887 37.7117C84.673 37.71 84.7573 37.7176 84.84 37.7343C84.9115 37.7483 84.9815 37.7691 85.049 37.7966C85.1108 37.8244 85.1694 37.8586 85.2241 37.8986C85.2772 37.9362 85.3272 37.9779 85.3738 38.0232L85.1479 38.2867C85.0729 38.2136 84.9872 38.1524 84.8937 38.1054C84.806 38.0626 84.7102 38.0392 84.6128 38.0368C84.5153 38.0343 84.4185 38.0529 84.3288 38.0912C84.2497 38.1277 84.1786 38.1797 84.1198 38.2442C84.0598 38.3103 84.0129 38.3872 83.9814 38.4708C83.9486 38.5616 83.9323 38.6575 83.9334 38.7541C83.9333 38.8506 83.9495 38.9463 83.9814 39.0374C84.0135 39.1207 84.0604 39.1974 84.1198 39.264C84.1785 39.3292 84.2496 39.3822 84.3288 39.4198C84.4122 39.4575 84.5028 39.4768 84.5943 39.4764C84.7039 39.4787 84.8124 39.4544 84.9106 39.4056C85.0055 39.3534 85.0929 39.2886 85.1705 39.213L85.3964 39.4424C85.3508 39.4931 85.3007 39.5396 85.2467 39.5812C85.1942 39.623 85.1374 39.6591 85.0773 39.6889C85.0151 39.7202 84.9497 39.7449 84.8824 39.7625C84.8055 39.7808 84.7269 39.7912 84.648 39.7937L84.4474 40.2526L84.1452 40.1251L84.3712 39.7909C84.2551 39.7661 84.1442 39.721 84.0436 39.6577Z" fill="#53A5F2"/>
<path d="M91.8472 39.1704C91.797 39.2941 91.7231 39.4067 91.6297 39.5019C91.531 39.6021 91.413 39.6811 91.2829 39.7342C91.1528 39.7873 91.0132 39.8133 90.8728 39.8106C90.7265 39.8132 90.5812 39.7853 90.4463 39.7285C90.3234 39.6777 90.2119 39.6026 90.1187 39.5075C90.0253 39.413 89.9522 39.3002 89.904 39.1761C89.7986 38.9184 89.7986 38.6294 89.904 38.3716C89.9532 38.2474 90.0272 38.1346 90.1215 38.0402C90.3229 37.8411 90.5943 37.7295 90.877 37.7295C91.1598 37.7295 91.4312 37.8411 91.6326 38.0402C91.7718 38.1892 91.8659 38.3748 91.904 38.5755C91.942 38.7761 91.9223 38.9834 91.8472 39.1733V39.1704ZM91.5083 38.4963C91.4779 38.4112 91.4309 38.3332 91.3699 38.2668C91.3085 38.2015 91.2345 38.1495 91.1524 38.1138C91.0641 38.0726 90.9674 38.0522 90.87 38.0544C90.7728 38.0525 90.6765 38.0718 90.5875 38.111C90.5059 38.146 90.4327 38.1981 90.3729 38.264C90.3123 38.3296 90.2652 38.4066 90.2345 38.4906C90.1996 38.5809 90.1824 38.677 90.1837 38.7739C90.1826 38.8707 90.1998 38.9668 90.2345 39.0571C90.2665 39.142 90.3144 39.2199 90.3757 39.2866C90.4363 39.3516 90.5093 39.4036 90.5904 39.4395C90.6788 39.4806 90.7754 39.501 90.8728 39.499C90.9699 39.5007 91.0662 39.4813 91.1552 39.4424C91.2356 39.4066 91.3078 39.3545 91.3671 39.2894C91.428 39.2241 91.4751 39.147 91.5055 39.0628C91.5401 38.9724 91.5574 38.8763 91.5563 38.7795C91.5585 38.6829 91.5422 38.5867 91.5083 38.4963ZM91.3021 37.5048C91.2789 37.5357 91.2485 37.5605 91.2135 37.5768C91.1785 37.5931 91.1401 37.6005 91.1016 37.5983C91.0614 37.5982 91.0215 37.5925 90.983 37.5813L90.8728 37.5416L90.7739 37.502C90.7473 37.4899 90.7185 37.4831 90.6892 37.4822C90.6715 37.4807 90.6536 37.4832 90.637 37.4896C90.6204 37.496 90.6054 37.506 90.5932 37.519C90.5664 37.5509 90.5453 37.5874 90.5311 37.6266L90.339 37.57C90.3604 37.4733 90.4007 37.3818 90.4576 37.3009C90.4819 37.2706 90.513 37.2466 90.5483 37.2308C90.5837 37.215 90.6223 37.208 90.661 37.2102C90.7002 37.2101 90.7392 37.2158 90.7768 37.2272L90.8869 37.2697L90.9858 37.3065C91.0137 37.3174 91.0434 37.3231 91.0733 37.3235C91.0904 37.3249 91.1076 37.3226 91.1236 37.3168C91.1397 37.3109 91.1544 37.3016 91.1665 37.2895C91.1937 37.2578 91.2148 37.2213 91.2287 37.1819L91.4207 37.2414C91.3977 37.3368 91.3554 37.4265 91.2965 37.5048H91.3021Z" fill="#53A5F2"/>
<path d="M98.0042 38.0826H96.8745V38.601H97.8828V38.9211H96.8745V39.4565H98.0042V39.7766H96.5073V37.7654H98.0042V38.0826Z" fill="#53A5F2"/>
<path d="M102.899 38.3943C102.914 38.4271 102.939 38.4547 102.969 38.4736C103.015 38.5033 103.065 38.5271 103.116 38.5444C103.178 38.5643 103.258 38.5869 103.354 38.6096C103.449 38.6339 103.543 38.6632 103.636 38.6974C103.709 38.7269 103.777 38.768 103.837 38.8192C103.889 38.8629 103.93 38.9182 103.958 38.9807C103.988 39.0504 104.002 39.1258 104 39.2016C104.002 39.2893 103.985 39.3763 103.95 39.4566C103.915 39.53 103.865 39.5949 103.803 39.6463C103.737 39.7019 103.66 39.7425 103.577 39.7653C103.485 39.7916 103.39 39.8049 103.294 39.805C103.143 39.8058 102.993 39.779 102.851 39.7257C102.706 39.6712 102.573 39.5894 102.458 39.4849L102.67 39.2299C102.759 39.3087 102.859 39.3744 102.967 39.4254C103.073 39.4723 103.189 39.4955 103.306 39.4934C103.397 39.4975 103.486 39.4727 103.563 39.4226C103.593 39.4022 103.618 39.3744 103.635 39.3416C103.652 39.3089 103.66 39.2724 103.659 39.2356C103.659 39.2027 103.653 39.17 103.642 39.1393C103.625 39.1071 103.601 39.0798 103.571 39.06C103.529 39.0311 103.484 39.0082 103.435 38.992C103.376 38.9722 103.3 38.9495 103.207 38.9268C103.111 38.904 103.017 38.8756 102.924 38.8419C102.849 38.8151 102.779 38.7769 102.715 38.7286C102.66 38.6829 102.616 38.6259 102.585 38.5614C102.555 38.4859 102.541 38.4049 102.543 38.3235C102.542 38.2405 102.559 38.1583 102.594 38.0827C102.627 38.0112 102.675 37.9475 102.735 37.8957C102.798 37.8424 102.871 37.8019 102.95 37.7768C103.041 37.7491 103.137 37.7357 103.232 37.7371C103.367 37.7348 103.502 37.7559 103.63 37.7994C103.749 37.846 103.861 37.91 103.961 37.9892L103.772 38.2555C103.684 38.1928 103.589 38.1414 103.489 38.1025C103.4 38.065 103.304 38.0466 103.207 38.0487C103.121 38.0431 103.036 38.0682 102.967 38.1195C102.94 38.1395 102.919 38.1651 102.904 38.1945C102.888 38.2239 102.88 38.2564 102.879 38.2895C102.877 38.3255 102.884 38.3614 102.899 38.3943Z" fill="#53A5F2"/>
<path d="M113.959 37.7654V39.7766H113.609V37.7654H113.959Z" fill="#53A5F2"/>
<path d="M120.051 37.7654H120.401V39.7766H120.105L119 38.3602V39.7766H118.653V37.7654H118.978L120.051 39.1562V37.7654Z" fill="#53A5F2"/>
<path d="M125.92 39.7766H125.564V38.0911H124.929V37.7654H126.556V38.0911H125.92V39.7766Z" fill="#53A5F2"/>
<path d="M132.568 38.0826H131.439V38.601H132.447V38.9211H131.439V39.4565H132.588V39.7766H131.091V37.7654H132.574L132.568 38.0826Z" fill="#53A5F2"/>
<path d="M137.161 37.7654H137.511V39.465H138.564V39.7851H137.152L137.161 37.7654Z" fill="#53A5F2"/>
<path d="M143.459 37.7654V39.7766H143.109V37.7654H143.459Z" fill="#53A5F2"/>
<path d="M149.777 39.618C149.716 39.6587 149.65 39.6929 149.582 39.72C149.51 39.7494 149.435 39.7722 149.359 39.788C149.275 39.8028 149.19 39.8104 149.105 39.8107C148.959 39.8131 148.814 39.7861 148.678 39.7313C148.555 39.6827 148.443 39.6083 148.351 39.5132C148.259 39.4189 148.187 39.3072 148.139 39.1846C148.09 39.0534 148.065 38.9142 148.065 38.7739C148.065 38.6361 148.09 38.4995 148.142 38.3717C148.19 38.2476 148.263 38.1348 148.356 38.0402C148.449 37.9434 148.561 37.8664 148.684 37.8136C148.815 37.7571 148.957 37.7291 149.099 37.7315C149.18 37.7309 149.26 37.7366 149.339 37.7485C149.407 37.7613 149.474 37.7793 149.54 37.8023C149.6 37.8249 149.658 37.8533 149.712 37.8873C149.768 37.9215 149.821 37.9604 149.87 38.0034L149.647 38.2697C149.61 38.2379 149.572 38.2086 149.531 38.1819C149.491 38.1548 149.449 38.1321 149.404 38.1139C149.357 38.0964 149.309 38.0822 149.26 38.0714C149.203 38.0596 149.144 38.0539 149.085 38.0544C148.996 38.0546 148.909 38.0739 148.828 38.111C148.75 38.1477 148.68 38.1997 148.622 38.264C148.502 38.4047 148.436 38.5833 148.435 38.7682C148.435 38.8647 148.452 38.9605 148.483 39.0515C148.515 39.136 148.562 39.2138 148.622 39.2809C148.683 39.3447 148.756 39.3957 148.836 39.4311C148.926 39.4695 149.022 39.4888 149.119 39.4877C149.21 39.4886 149.301 39.4742 149.387 39.4452C149.465 39.42 149.538 39.3827 149.605 39.3348V38.9552H149.091V38.6464H149.938V39.4962C149.888 39.5411 149.834 39.5818 149.777 39.618Z" fill="#53A5F2"/>
<path d="M156.041 38.0826H154.912V38.601H155.903V38.9211H154.898V39.4565H156.047V39.7766H154.547V37.7654H156.033L156.041 38.0826Z" fill="#53A5F2"/>
<path d="M162.032 37.7654H162.382V39.7766H162.085L160.984 38.3602V39.7766H160.634V37.7654H160.959L162.032 39.1562V37.7654Z" fill="#53A5F2"/>
<path d="M167.901 39.7766H167.545V38.0911H166.918V37.7654H168.545V38.0911H167.909L167.901 39.7766Z" fill="#53A5F2"/>
<path d="M174.544 38.0826H173.414V38.601H174.422V38.9211H173.414V39.4565H174.563V39.7766H173.066V37.7654H174.544V38.0826Z" fill="#53A5F2"/>
<path d="M179.458 38.3943C179.473 38.4278 179.499 38.4556 179.531 38.4736C179.576 38.504 179.624 38.5278 179.675 38.5444C179.737 38.5643 179.817 38.5869 179.913 38.6096C180.008 38.6339 180.102 38.6632 180.195 38.6974C180.268 38.7269 180.336 38.768 180.395 38.8192C180.448 38.8636 180.49 38.9187 180.52 38.9807C180.547 39.051 180.561 39.1261 180.559 39.2016C180.561 39.2893 180.544 39.3763 180.508 39.4566C180.474 39.53 180.424 39.5949 180.362 39.6464C180.296 39.7019 180.219 39.7425 180.136 39.7653C180.044 39.7916 179.949 39.805 179.853 39.805C179.701 39.8061 179.55 39.7792 179.407 39.7257C179.262 39.6712 179.129 39.5895 179.014 39.4849L179.226 39.2299C179.316 39.3087 179.415 39.3744 179.523 39.4254C179.63 39.4723 179.745 39.4955 179.862 39.4934C179.953 39.4975 180.043 39.4727 180.119 39.4226C180.149 39.4022 180.174 39.3744 180.191 39.3417C180.208 39.3089 180.216 39.2724 180.215 39.2356C180.215 39.2027 180.21 39.17 180.198 39.1393C180.182 39.1071 180.157 39.0798 180.127 39.06C180.085 39.0311 180.04 39.0083 179.992 38.992C179.932 38.9722 179.856 38.9495 179.763 38.9268C179.667 38.9045 179.573 38.8762 179.48 38.8419C179.404 38.8158 179.333 38.7775 179.269 38.7286C179.214 38.6829 179.169 38.6259 179.139 38.5614C179.108 38.4859 179.094 38.4049 179.096 38.3235C179.095 38.2405 179.113 38.1583 179.147 38.0827C179.181 38.0112 179.229 37.9475 179.288 37.8957C179.351 37.8424 179.424 37.8019 179.503 37.7768C179.595 37.7493 179.69 37.7359 179.785 37.7371C179.921 37.7348 180.055 37.7559 180.184 37.7994C180.303 37.846 180.414 37.91 180.514 37.9892L180.325 38.2555C180.237 38.1932 180.142 38.1419 180.042 38.1025C179.953 38.0657 179.857 38.0474 179.76 38.0487C179.674 38.0432 179.589 38.0682 179.52 38.1195C179.494 38.1395 179.472 38.1651 179.457 38.1945C179.442 38.2239 179.433 38.2564 179.432 38.2895C179.432 38.326 179.441 38.3619 179.458 38.3943Z" fill="#53A5F2"/>
<path d="M78.3752 31.678C77.7004 32.2124 76.9681 32.6694 76.1919 33.0405C75.3632 33.428 74.4907 33.7134 73.5936 33.8903C72.5515 34.0921 71.4916 34.187 70.4303 34.1736C68.7432 34.1893 67.0704 33.8617 65.5132 33.2105C64.0469 32.6023 62.7168 31.7061 61.6012 30.5745C60.4856 29.443 59.607 28.099 59.0172 26.6216C58.394 25.0768 58.0792 23.4243 58.0908 21.7579V21.6871C58.0623 18.4018 59.3221 15.2369 61.5986 12.8746C62.7226 11.7198 64.0675 10.8045 65.5527 10.1835C67.1636 9.51457 68.8931 9.18018 70.6365 9.20059C71.6694 9.19454 72.7004 9.28941 73.715 9.48386C74.5868 9.65232 75.4387 9.91149 76.2569 10.2572C76.9979 10.5681 77.7018 10.9615 78.3554 11.4299C78.9914 11.8855 79.5893 12.3923 80.1432 12.9454L76.7596 16.8432C75.8977 16.0482 74.9312 15.3754 73.8873 14.8433C72.8648 14.3508 71.7424 14.1026 70.6082 14.1181C69.6628 14.108 68.7261 14.2998 67.8603 14.6807C66.9944 15.0617 66.2194 15.6231 65.5866 16.3276C64.9612 17.0295 64.4717 17.8422 64.1433 18.7241C63.7948 19.6558 63.6196 20.6438 63.6265 21.6389V21.7069C63.6176 22.7091 63.7908 23.7045 64.1377 24.6444C64.4574 25.5296 64.936 26.3485 65.5499 27.0607C66.1825 27.7769 66.9621 28.3475 67.8352 28.7333C68.7083 29.1191 69.6543 29.3109 70.6082 29.2957C71.8163 29.3337 73.0152 29.073 74.0991 28.5365C75.1307 27.9736 76.0848 27.2785 76.9376 26.4687L80.307 29.8679C79.7096 30.5193 79.0638 31.1244 78.3752 31.678Z" fill="white"/>
<path d="M98.3235 24.1571V33.7883H93.0251V24.2619L83.7754 9.6311H89.9663L95.7082 19.3246L101.555 9.6311H107.573L98.3235 24.1571Z" fill="white"/>
<path d="M131.82 31.678C131.145 32.2118 130.412 32.6688 129.637 33.0405C128.808 33.428 127.935 33.7133 127.038 33.8903C125.996 34.0921 124.936 34.187 123.875 34.1736C122.188 34.1896 120.515 33.862 118.958 33.2104C117.491 32.6038 116.16 31.7081 115.044 30.5764C113.928 29.4446 113.05 28.0998 112.462 26.6216C111.838 25.077 111.522 23.4245 111.533 21.7579V21.6871C111.512 18.4101 112.768 15.2547 115.035 12.8944C116.16 11.7405 117.504 10.8253 118.989 10.2033C120.6 9.53407 122.329 9.19967 124.073 9.22039C125.106 9.21434 126.137 9.30921 127.151 9.50366C128.018 9.6685 128.865 9.92291 129.679 10.2628C130.42 10.5744 131.124 10.9677 131.778 11.4356C132.414 11.8911 133.011 12.3979 133.565 12.951L130.202 16.8432C129.34 16.0482 128.373 15.3753 127.329 14.8433C126.305 14.3499 125.181 14.1017 124.045 14.1181C123.099 14.108 122.162 14.2997 121.297 14.6807C120.431 15.0616 119.656 15.623 119.023 16.3276C118.396 17.0288 117.907 17.8417 117.58 18.7241C117.231 19.6558 117.056 20.6438 117.063 21.6389V21.7069C117.057 22.7096 117.233 23.705 117.582 24.6444C117.905 25.5312 118.389 26.3504 119.009 27.0607C119.639 27.7754 120.415 28.3455 121.284 28.7322C122.154 29.1188 123.096 29.313 124.047 29.3013C125.255 29.3394 126.454 29.0787 127.538 28.5422C128.565 27.9791 129.515 27.2839 130.363 26.4743L133.735 29.8735C133.143 30.5224 132.502 31.1256 131.82 31.678Z" fill="white"/>
<path d="M139.694 33.7798V9.6311H144.993V28.984H156.993V33.7769L139.694 33.7798Z" fill="white"/>
<path d="M162.704 33.7798V9.6311H180.828V14.3617H167.932V19.2622H179.28V23.9843H167.932V29.0549H181V33.7798H162.704Z" fill="white"/>
<path fill-rule="evenodd" clip-rule="evenodd" d="M34.9653 36.7173C44.3788 36.7173 51.9367 29.3212 51.7249 19.8968C51.7249 10.6368 44.3816 3.27176 34.9653 3.27176H29.8504V0L18.2029 6.54352L29.8504 13.3136V9.84927H34.9653C40.4868 9.84927 45.1894 14.3334 45.1894 19.8968C45.1894 25.6217 40.484 29.9415 34.9625 29.9415C33.0244 29.934 31.1291 29.3698 29.5008 28.3155C27.8726 27.2613 26.5796 25.7612 25.7749 23.9929L20.2392 27.259C22.911 32.7912 28.4298 36.7173 34.9653 36.7173Z" fill="#53A5F2"/>
<path fill-rule="evenodd" clip-rule="evenodd" d="M16.5477 10.0844C7.34326 10.0844 0 17.6448 0 26.8737C0 36.3321 7.34326 43.6942 16.5477 43.6942H21.6626V47L33.3101 40.2242L21.6626 33.6467V36.9524H16.5477C13.9599 36.8457 11.5134 35.7396 9.72003 33.8654C7.92662 31.9912 6.92519 29.4941 6.92519 26.8964C6.92519 24.2987 7.92662 21.8016 9.72003 19.9274C11.5134 18.0532 13.9599 16.947 16.5477 16.8403C20.8492 16.8403 24.3175 19.3274 25.7522 22.9929L31.6664 19.5229C28.8082 13.9793 23.0974 10.0844 16.5477 10.0844Z" fill="#53A5F2"/>
</g>
<defs>
<clipPath id="clip0">
<rect width="181" height="47" fill="white"/>
</clipPath>
</defs>
</svg>
