<?xml version="1.0" encoding="utf-8"?>
<!-- Generator: Adobe Illustrator 25.2.0, SVG Export Plug-In . SVG Version: 6.00 Build 0)  -->
<svg version="1.1" xmlns="http://www.w3.org/2000/svg" xmlns:xlink="http://www.w3.org/1999/xlink" x="0px" y="0px"
	 viewBox="0 0 456.5 448.7" style="enable-background:new 0 0 456.5 448.7;" xml:space="preserve">
<style type="text/css">
	.st0{fill-rule:evenodd;clip-rule:evenodd;fill:#FFFFFF;stroke:#FFFFFF;stroke-width:26;stroke-miterlimit:10;}
	.st1{fill-rule:evenodd;clip-rule:evenodd;fill:#231F20;}
</style>
<g id="Layer_1">
	<g>
		<g>
			<path d="M258.9,351c0,12,0,24-0.1,36c0,1.1,0.4,1.5,1.5,1.5c5.2,0,10.5,0,15.7,0c1.3,0,1.6-0.5,1.5-1.7c0-5.1-0.1-10.2,0-15.3
				c0-1.4-0.4-1.9-1.8-1.8c-1.9,0.1-3.9,0-5.8,0c-1.2,0-1.8-0.3-1.8-1.7c0.1-2-0.1-4.1,0.1-6.2c0-0.5,0.7-1.4,1.1-1.4
				c5.7-0.1,11.4-0.1,17.3-0.1c0,9.4,0,18.6,0,28.1c-2.3,0-4.6,0.1-6.9,0c-1.8-0.1-2.3,0.4-2.3,2.3c0.1,11,0,21.9,0.1,32.9
				c0,1.9-0.4,2.5-2.4,2.4c-2.4-0.1-4.8,0.2-7.2,0.3c0.1-3,0.2-5.9,0.2-8.9c0-0.3-0.7-0.8-1.1-0.8c-5.4,0-10.8,0-16.2,0
				c-1,0-1.4,0.4-1.4,1.4c0.1,2,0.1,4.1,0,6.2c-0.1,1.6,0.5,1.8,2,1.8c5-0.1,9.9,0,14.9,0c0.6,0,1.1,0.2,1.7,0.4
				c0.1,2.7,0.2,5.3,0.1,8c0,0.3-1.1,0.8-1.6,0.8c-6.5,0.1-13.1,0.1-19.6,0.1c-4.7,0-9.3,0-14,0c-0.6,0-1.2,0-1.9,0c0-3.1,0-6,0-9.2
				c2.4,0,4.8-0.1,7.1,0c1.7,0.1,2.1-0.5,2.1-2.1c-0.1-4.6,0-9.2,0-13.8c0-3,0-3-2.9-2.9c-1.7,0-3.4,0-5,0c-1,0-1.4-0.3-1.4-1.4
				c0.1-2.1,0-4.2,0-6.3c0-1.1-0.3-1.6-1.5-1.6c-5.2,0-10.5,0-15.7,0c-1.2,0-1.7,0.5-1.6,1.7c0,2.1,0,4.1,0,6.2
				c0,1.1,0.4,1.5,1.6,1.5c2.5-0.1,5,0,7.6,0c0,9.4,0,18.6,0,28.1c-2.7,0-5.4,0.1-8.1-0.1c-0.4,0-1-0.8-1-1.3
				c-0.1-2.1,0-4.2-0.1-6.3c0-0.5-0.7-1.4-1.1-1.4c-5.6-0.1-11.2,0-16.8,0c-0.1,0-0.3,0.2-0.4,0.3l0,0c-0.1-1.7-0.3-3.4-0.4-5.1
				c-0.1-1.4,0-2.9,0-4.5c-3.1,0-6.1,0-9.5,0c0-3.4,0-6.5,0-9.6l0,0.1c3.1,0,6.3,0,9.8,0c0-3.3,0-6.4,0-9.4l-0.1,0.1
				c2.5,0,5.1,0,7.6,0.1c1.3,0,1.7-0.4,1.7-1.7c-0.1-5.1-0.1-10.2,0-15.3c0-1.6-0.6-1.8-2-1.8c-5.7,0-11.4,0-17.1,0
				c0,0,0.1,0.1,0.1,0.1c0.1-5.8,0.1-11.7,0.1-17.5c0-0.4-0.9-1.1-1.5-1.1c-8.3-0.1-16.7,0-25-0.1c-1.3,0-1.6,0.6-1.6,1.7
				c0,1.9-0.1,3.9,0,5.8c0.1,1.6-0.6,1.9-1.9,1.9c-4.5-0.1-9,0-13.4,0c-1,0-2.1,0-3.2,0c0,9.2,0,18.1,0.1,27c0,0.4,1,1.1,1.5,1.1
				c5.7,0.1,11.3,0,17,0l-0.1-0.1c0.1,2.7,0.1,5.5,0.2,8.2c0,1.4-0.9,1.2-1.8,1.2c-5,0-10.1,0-15.1,0c-1.4,0-1.8,0.3-1.8,1.7
				c0.1,5,0,9.9,0,14.9c0,0.7-0.1,1.3-0.1,2.4c-3.2,0-6.3,0-9.4,0l0,0.1c0-22,0-43.9,0-65.9l-0.1,0.1c8.9,0,17.8,0,26.7,0.1
				c1.4,0,1.4-0.8,1.4-1.8c0-4.9,0-9.7-0.1-14.6c0-1.8,0.4-2.7,2.4-2.4c1.5,0.2,3,0,4.5,0c2.6,0,2.6,0,2.6-2.5c0-2.2,0-4.4,0-6.8
				c2.9,0,5.5-0.1,8.1,0.1c0.5,0,1.3,0.8,1.3,1.3c0.1,2.5,0.1,5.1,0.1,8c-1.9,0-3.7,0-5.5,0c-4,0-4,0-4,4.1c0,1.7,0,3.4,0,5.2
				c6.3,0,12.3,0,18.5,0c0-9.2,0-18.5,0-27.9c-9.2,0-18.4,0-28,0c0-3.2,0-6.3,0-9.4l-0.1,0c3.1,0,6.3,0,9.6,0c0-6.5,0-12.5,0-18.7
				c9.4,0,18.6,0,27.8,0c0.1,2.4,0.3,4.7,0.2,7.1c-0.1,1.7,0.4,2.3,2.2,2.3c14.2-0.1,28.5-0.1,42.7,0c1.5,0,2.1-0.5,2-2
				c-0.1-4.9-0.1-9.8,0-14.7c0-1.7-0.6-2.1-2.2-2.1c-2.3,0.1-4.7,0-7.1,0c0-3.2,0-6.2,0-9.3c2.5,0,4.9-0.1,7.3,0
				c1.5,0.1,2-0.5,1.9-1.9c-0.1-2.4,0-4.8,0-7.3c2.3,0,4.6-0.1,6.9,0c1.8,0.1,2.6-0.3,2.4-2.3c-0.2-1.7,0.1-3.4-0.1-5
				c-0.1-1.6,0.4-2.1,2.1-2.1c8.1,0.1,16.2,0,24.3,0c0.5,0,1.1,0.1,1.7,0.1c0,5.9,0,11.6-0.1,17.3c0,0.4-0.8,1.2-1.3,1.2
				c-2.2,0.1-4.4,0-6.5,0.1c-1.1,0-1.4-0.5-1.4-1.5c0.1-1.9-0.1-3.9,0-5.8c0.1-1.5-0.4-2.1-2-2.1c-4.9,0.1-9.8,0.1-14.8,0
				c-1.6,0-2.1,0.4-2.1,2.1c0.1,8,0.1,16.1,0,24.1c0,1.6,0.6,2,2.1,1.9c8.1-0.1,16.2,0,24.3-0.1c1.4,0,1.8,0.4,1.8,1.8
				c-0.1,2.5,0,5.1-0.1,7.7l0.1-0.1c-2.5,0-5.1,0-7.6-0.1c-1.3,0-1.8,0.3-1.7,1.7c0.1,2.6,0,5.2-0.1,7.8c0,0,0-0.1,0-0.1
				c-3.1,0-6.2,0-9.4,0c0-2.7,0-5.3,0-8c0-0.9-0.2-1.4-1.2-1.4c-2.3,0-4.6-0.1-6.9,0.1c-0.5,0-1.2,0.7-1.2,1.1
				c-0.1,2.6-0.1,5.2-0.1,8.2c3.3,0,6.4,0,9.4,0c0,3,0,6.1,0,9.4c-2.7,0-5.3,0.1-7.8,0c-1.3,0-1.8,0.4-1.7,1.7
				c0.1,1.9,0.1,3.7,0,5.6c-0.1,1.6,0.5,2.1,2.1,2.1c7.9-0.1,15.8,0,23.7-0.1c1.9,0,2.4,0.5,2.4,2.4c-0.1,4.8-0.1,9.6,0,14.4
				c0,1.5-0.3,2-1.9,2C270.1,351,264.5,351.1,258.9,351c-0.1-2.6-0.1-5.2,0-7.8c0-1.2-0.4-1.6-1.6-1.6c-2.1,0.1-4.2,0.1-6.3,0
				c-1.1,0-1.5,0.4-1.5,1.5c0.1,2.1,0.1,4.2,0,6.3c0,1.2,0.5,1.6,1.7,1.6C253.7,351,256.3,351,258.9,351z M240.2,332.4
				c0-2.6,0-5.2,0-7.8c0-1.2-0.4-1.6-1.6-1.6c-2.6,0.1-5.2,0-7.8,0.1c0-2.7,0.1-5.4,0-8c0-0.5-0.7-1.4-1.1-1.4
				c-2.4-0.1-4.7-0.1-7.1,0c-0.4,0-1.1,0.7-1.1,1.1c0,2.8,0.1,5.6,0.1,8.4c-6.2,0-12.5,0-18.7-0.1c0-2.7,0-5.3-0.1-8
				c0-0.5-0.7-1.4-1.1-1.4c-2.3-0.1-4.7-0.1-7.1,0c-0.4,0-1.1,0.5-1.1,0.9c-0.1,2.8-0.1,5.6-0.1,8.5c3.4,0,6.5,0,9.6,0
				c-0.1,2.4-0.2,4.8-0.1,7.3c0.1,1.8-0.5,2.3-2.2,2.2c-2.4-0.1-4.8,0-7.3,0c0,2.8,0,5.4,0,7.9c0,1.1,0.5,1.4,1.5,1.4c2,0,4,0.1,6,0
				c1.5-0.1,2.1,0.4,2,2c-0.1,2.5,0,5,0.1,7.5c-3.1,0-6.2,0-9.5,0c0,2.9-0.1,5.6,0.1,8.3c0,0.4,0.9,0.9,1.4,1c2.1,0.1,4.2,0,6.3,0.1
				c1.3,0.1,1.7-0.5,1.7-1.8c-0.1-2.5,0-5.1,0-7.7c2.5,0,5.1,0,7.6,0c1.3,0,1.7-0.5,1.7-1.7c-0.1-1.9,0-3.8,0-5.8
				c-0.1-1.4,0.3-2,1.9-2c2.5,0.1,5.1,0,7.6,0c0,2.7-0.1,5.5-0.1,8.2c0,1.1,0.6,1.2,1.4,1.2c5.3,0,10.6,0,15.9,0
				c1.2,0,1.5-0.4,1.5-1.5c-0.1-2.6,0-5.2,0-7.8c2.6,0,5.2,0,7.8-0.1c0.5,0,1.4-0.6,1.4-1c0.1-2.7,0.1-5.4,0.1-8.3
				C246.2,332.4,243.2,332.4,240.2,332.4z M226,360.4c-4,0-8.1,0-12.1,0c-1.2,0-1.8,0.4-1.8,1.7c0,8.2,0,16.4,0,24.6
				c0,1.4,0.5,1.8,1.9,1.8c8.1-0.1,16.2-0.1,24.3,0c1.6,0,2-0.6,2-2.1c-0.1-8-0.1-15.9,0-23.9c0-1.8-0.6-2.2-2.3-2.2
				C234,360.5,230,360.5,226,360.4z M258.9,407.2c2.5,0,5.1-0.1,7.6,0c1.3,0,1.8-0.3,1.8-1.7c-0.1-2-0.1-4,0-6
				c0.1-1.3-0.5-1.7-1.8-1.7c-5.1,0-10.2,0.1-15.3,0c-1.4,0-1.8,0.6-1.8,1.9c0.1,1.9,0.1,3.7,0,5.6c-0.1,1.3,0.3,1.9,1.8,1.9
				C253.8,407.1,256.3,407.2,258.9,407.2z"/>
			<path d="M342.9,407.1c0,3.1,0,6.2,0,9.5c-3,0-6,0-9.1,0c0,2.6-0.1,4.9,0,7.3c0.1,1.6-0.3,2.2-2.1,2.1c-8.1-0.1-16.2,0-24.3-0.1
				c-1.5,0-1.9,0.5-1.9,1.9c0.1,2,0.1,4,0,6c0,0.5-0.5,1.3-0.9,1.3c-2.7,0.1-5.4,0.1-8.3,0.1c0-6.2,0-12.2,0-18.6
				c2.2,0,4.5-0.1,6.8,0c1.8,0.1,2.6-0.4,2.4-2.4c-0.2-1.7-0.1-3.4,0-5c0.1-1.6-0.3-2.2-2.1-2.1c-2.5,0.1-5,0-7.5-0.1
				c0,0,0.1,0.1,0.1,0.1c0-4.6,0.1-9.3,0.1-13.9c0-1.4,0-2.8,0-4.7c6.2,0,12.4,0,18.6,0l0-0.1c0,2.6,0.1,5.2,0,7.8
				c0,1.2,0.4,1.7,1.6,1.7c2-0.1,4.1-0.1,6.1,0c1.4,0.1,1.8-0.6,1.8-1.9c0-2.5,0.1-5.1,0.2-7.6c0,0-0.1,0.1-0.1,0.1
				c2.4,0,4.8,0,7.2,0.1c1.6,0.1,2-0.5,2-2c-0.1-5,0-10-0.1-15.1c0-1.3,0.4-1.7,1.7-1.7c2.5,0.1,5,0,7.4,0c0,2.7,0,5.3,0.2,8
				c0,0.5,0.6,1.3,1,1.3c2.7,0.1,5.4,0.1,8.4,0.1c0-2.7-0.1-5.2,0-7.7c0-1.2-0.5-1.6-1.6-1.6c-2.7,0.1-5.3,0-8,0
				c0.1-2.5,0.2-5.1,0.1-7.6c0-1.3,0.5-1.7,1.7-1.7c2.1,0.1,4.2,0.1,6.3,0c0.5,0,1.3-0.5,1.3-0.8c0.1-2.8,0.1-5.6,0.1-8.5
				c-9.4,0-18.6,0-27.9,0c0-0.8-0.1-1.4-0.1-2c0-2,0.1-4,0-6c0-0.5-0.7-1.3-1-1.3c-6,0-11.9,0-17.9,0.1c0.1-2.8,0.2-5.6,0.1-8.3
				c0-0.4-0.8-1-1.3-1c-2.2-0.1-4.3,0-6.5-0.1c-1.2,0-1.5,0.5-1.4,1.6c0.1,2,0.1,4.1,0,6.1c-0.1,1.4,0.5,1.7,1.7,1.6
				c2.5-0.1,5,0,7.4,0.1c0,3.1,0,6.2,0,9.3l0-0.1c-3,0-5.9,0-9.2,0c0-2.6-0.1-5.1,0-7.7c0-1.3-0.4-1.8-1.7-1.7c-2.5,0.1-5.1,0-7.7,0
				c0-9.5,0-18.7,0-28l-0.1,0c0.7,0,1.4-0.1,2-0.1c4.9,0,9.8,0,14.7,0c1.5,0,2.2-0.3,2-2c-0.2-1.8-0.1-3.6,0-5.4
				c0.1-1.6-0.6-2.1-2.1-2c-1.9,0.1-3.7,0-5.6,0c-1.3,0.1-1.7-0.5-1.7-1.7c0.1-1.9-0.1-3.7,0-5.6c0.1-1.6-0.4-2.1-2-2
				c-2.5,0.1-4.9,0-7.4,0c0-3.3,0-6.3,0-9.5c3.1,0,6.2,0,9.3,0c0-0.8,0-1.4,0-2.1c0-5,0-9.9,0-14.9c0-0.9,0-1.6,1.2-1.6
				c2.7,0.1,5.3,0.1,8,0.2l-0.1,0c0,2.5,0.1,5,0.1,7.5c0,1.3,0.4,1.8,1.7,1.7c1.9-0.1,3.7,0.1,5.6,0c1.5-0.1,2.1,0.4,2,2
				c-0.1,7.9,0,15.8,0,23.7c0,2.4,0,2.4,2.3,2.4c4.8,0,9.6-0.1,14.4,0c1.6,0,2.2-0.6,2.1-2.2c-0.1-1.6-0.1-3.2,0-4.9
				c0.2-2-0.6-2.5-2.4-2.4c-2.2,0.1-4.4,0-6.8,0c0-3.2,0-6.2,0-9.5c2.8,0,5.5-0.1,8.2,0.1c0.4,0,0.9,0.9,1,1.4
				c0.1,2.1,0.1,4.2,0,6.3c0,1.3,0.4,1.8,1.7,1.7c2.5-0.1,5,0,7.5,0l0,0c0,3.1,0,6.3,0,9.4l0.1-0.1c-2.5,0-5.1,0-7.6-0.1
				c-1.1,0-1.6,0.3-1.6,1.4c0,2.2,0,4.3,0,6.5c0,1,0.3,1.4,1.4,1.4c2.6,0,5.2,0.1,7.8,0.1l-0.1,0c0,3.1,0,6.1,0,9.4
				c-3.1,0-6,0-9.1,0c0,2.8-0.1,5.5,0.1,8.1c0,0.4,0.9,1.1,1.5,1.1c2,0.1,4.1,0.1,6.2,0c1.2-0.1,1.6,0.3,1.5,1.5
				c-0.1,2.1,0,4.1,0,6.2c-0.1,1.3,0.5,1.7,1.7,1.7c11.4,0,22.8,0,34.2,0c1.3,0,1.6-0.4,1.6-1.6c0-4.2,0-8.3,0-12.5
				c0-1.5,0-2.9,0-4.6c3.4,0,6.5,0,9.6,0c0,9.2,0,18.4,0,27.6c0,0.1,0.1,0.2,0.2,0.4c6,0,12,0,18.3,0c0-2.9,0-5.6-0.1-8.4
				c0-0.3-0.8-0.8-1.3-0.8c-2-0.1-4.1-0.1-6.2,0c-1.3,0.1-1.8-0.3-1.8-1.8c0.1-4.7,0-9.3,0-14c0-0.9,0-1.8,0-2.9c-3.3,0-6.2,0-9.2,0
				c0-3.1,0-6.2,0-9.3l-0.1,0.1c6.2,0,12.5,0,18.7,0l-0.1,0c0,3,0,6.1,0,9.3c9.3,0,18.5,0,27.9,0c0,3,0.1,5.7-0.1,8.5
				c0,0.3-1.1,0.8-1.7,0.9c-5.2,0.1-10.3,0-15.5,0.1c-0.4,0-0.7,0-1.3,0c0,6.2,0,12.3,0,18.6c-3.2,0-6.2,0-9.5,0
				c0,2.6-0.1,4.9,0,7.2c0.1,1.8-0.6,2.4-2.3,2.3c-1.9-0.1-3.7,0-5.6,0c-1,0-1.4,0.4-1.4,1.5c0,8.4,0,16.8,0,25.2
				c0,1.2,0.5,1.5,1.6,1.4c2.1,0,4.2,0,6.3,0c1.1,0,1.4,0.4,1.4,1.4c0,2.1,0,4.1,0,6.2c0,1.3,0.3,1.8,1.7,1.7c2.1-0.1,4.2,0,6.3-0.1
				c0.5,0,1.3-0.6,1.3-1c0.1-2.7,0.1-5.3,0.1-8.3c-2.6,0-5.1-0.1-7.6,0c-1.4,0.1-1.9-0.4-1.9-1.8c0-8.3,0-16.6,0-24.8
				c0-1.3,0.6-1.5,1.7-1.5c5,0,10.1-0.1,15.1,0c1.6,0,2.1-0.5,2-2c-0.1-2,0-4,0-6c0-1,0.4-1.4,1.4-1.4c2.2,0.1,4.4,0,6.5,0
				c0.9,0,1.4,0.2,1.4,1.2c0,5.4,0,10.7,0,16.1c0,1.4-0.9,1.4-1.9,1.4c-4.9,0-9.8,0-14.7-0.1c-1.7,0-2.2,0.5-2.1,2.1
				c0.1,2.3,0,4.7,0,7.3c2.5,0,4.9,0.1,7.2,0c1.6-0.1,2.1,0.5,2.1,2.1c-0.1,8.7,0,17.3,0,26c0,0,0.1-0.1,0.1-0.1
				c-2.5,0-5.1,0.1-7.6,0.1c-1.4,0-1.8,0.4-1.8,1.8c0,5.8,0,11.6-0.1,17.3c0,0,0.1-0.1,0.1-0.1c-3,0-6.1,0.1-9.1,0.1c0,0,0,0,0,0
				c-0.1-0.9-0.3-1.8-0.3-2.7c0-4.7,0-9.4,0-14.2c0-0.7-0.1-1.3-0.1-2.4c-6.2,0-12.4,0-18.5,0l0,0.1c0-3,0-6,0-9.3
				c-6.2,0-12,0-17.8,0.1c-0.4,0-1,0.8-1,1.2c0,2.7,0.1,5.3,0.1,8c0,0,0.1-0.1,0.1-0.1c-3.1,0-6.2,0-9.4,0c0,6.5,0,12.6,0,18.8
				c0.5,0,0.9,0.1,1.4,0.1c8.2,0,16.4,0,24.6,0c1.5,0,2.1,0.4,2,2c-0.1,2.3,0,4.7,0,7.2c-12.6,0-24.9,0-37.5,0c0-0.8,0-1.5,0-2.2
				c0-7.9,0-15.8,0-23.7c0-0.7-0.2-1.5-0.3-2.2c2.8,0.1,5.6,0.2,8.4,0.1c0.5,0,1.3-0.8,1.3-1.3c0.1-2.2,0.1-4.4,0-6.5
				c0-0.5-0.5-1.3-0.8-1.3c-2.8-0.1-5.5-0.1-8.5-0.1c0,1.1,0,1.9,0,2.7c-0.1,2.2-0.2,4.3-0.3,6.5C349.1,407.1,346,407.1,342.9,407.1
				c-0.1-3.1-0.1-6.3-0.1-9.5c2.9,0.1,5.7,0.2,8.6,0.1c0.4,0,1-0.8,1-1.3c0.1-2.2,0-4.4,0-6.5c0-1-0.3-1.4-1.4-1.4
				c-2.1,0.1-4.2,0.1-6.3,0c-1.3,0-1.7,0.5-1.7,1.8c0,2.5-0.1,5-0.2,7.4c-6.1,0-12.2,0-18.6,0c0.2,3.5,0.3,6.5,0.5,9.5
				c-2.8,0-5.6-0.1-8.4,0c-0.5,0-1.3,0.8-1.3,1.2c-0.1,2.4-0.1,4.7,0,7.1c0,0.4,0.6,1.1,0.9,1.1c2.8,0.1,5.6,0,8.4,0
				c0.1-3.3,0.3-6.4,0.4-9.5C330.8,407.1,336.8,407.1,342.9,407.1z M389.9,360.7c-0.4-0.1-0.8-0.2-1.2-0.2c-8.5,0-16.9,0-25.4,0
				c-1.4,0-1.4,0.8-1.4,1.8c0,8.2,0.1,16.3,0,24.5c0,1.6,0.6,1.9,2,1.9c8.1,0,16.2-0.1,24.3,0c1.5,0,1.9-0.4,1.9-1.9
				c-0.1-8.1,0-16.2,0-24.3C390,361.8,389.9,361.3,389.9,360.7z M324.4,323c0-2.8,0-5.6-0.1-8.3c0-0.4-0.7-1-1.2-1
				c-2.4-0.1-4.7-0.1-7.1,0c-0.4,0-1.1,0.6-1.1,0.9c-0.1,2.8,0,5.6,0,8.4C318.2,323,321.1,323,324.4,323z"/>
			<path d="M25.1,192c-0.1-2.5-0.2-5.1-0.1-7.6c0-1.2-0.4-1.8-1.7-1.8c-2,0.1-4,0-6,0c-1.2,0-1.7-0.3-1.7-1.6c0.1-2.1,0.1-4.2,0-6.3
				c0-1.1,0.4-1.4,1.4-1.4c2.1,0,4.1-0.1,6.2,0c1.3,0,1.8-0.4,1.8-1.7c-0.1-2.1-0.1-4.2-0.1-6.3c0-1.1-0.4-1.4-1.5-1.4
				c-2,0.1-4-0.1-6,0c-1.5,0.1-1.9-0.4-1.9-1.9c0.1-6.6,0-13.2,0-19.8c0-7.7,0-15.3,0-23c0-0.7,0-1.3,0-2.2c2.5,0,4.7,0,6.9,0
				c2.4,0,2.4,0,2.4-2.5c0-2.2,0.1-4.5,0.1-6.7c6.1,0,12.3,0,18.6,0c0-3.1,0-5.8,0-8.6c0-0.3-0.7-0.9-1.1-0.9
				c-5.5-0.1-11-0.1-16.4,0c-0.4,0-1.2,0.8-1.2,1.2c-0.1,2.8,0.1,5.6,0.1,8.4c-3,0-6.1,0-9.2,0c-0.1-0.7-0.2-1.1-0.2-1.6
				c0-5.2,0-10.5,0-15.7c0-1.1,0.2-1.7,1.5-1.7c14.3,0,28.6,0.1,42.9,0c1.9,0,2.4,0.6,2.3,2.3c-0.1,2.2,0,4.5,0,7
				c-2.5,0-4.9,0.1-7.3,0c-1.5-0.1-2.1,0.3-2,1.9c0.1,2.4,0,4.8,0,7.5c3.1,0,6.1,0,9.3,0c0,2.7,0.1,5.1,0,7.5
				c-0.1,1.5,0.5,2,1.9,1.9c2.5-0.1,5,0,7.5,0.1c0,3.1,0,6.2,0,9.4c-2.7,0-5.4-0.1-8.2-0.1c-1.1,0-1.3,0.7-1.3,1.6
				c0,2.1,0.1,4.2,0,6.3c-0.1,1.3,0.5,1.6,1.6,1.6c2.6-0.1,5.2,0,7.8,0c0,2.7,0,5.3,0,8c0,0.9,0.2,1.4,1.2,1.4
				c2.3,0,4.6,0.1,6.9-0.1c0.5,0,1.2-0.8,1.2-1.3c0.1-2.7,0-5.3,0-8c2.5,0,5.1-0.1,7.6,0.1c1.4,0.1,1.8-0.5,1.8-1.8
				c-0.1-1.9-0.1-3.9,0-5.8c0.1-1.5-0.5-2-2-1.9c-2,0.1-4,0-6,0c-1,0-1.5-0.3-1.4-1.4c0.1-2.1,0-4.2,0-6.3c0-0.9-0.1-1.6-1.3-1.6
				c-2.7,0.1-5.5,0.1-8.2,0.1c0-3.1,0-6.2,0-9.4c6.4,0,12.6,0,18.8,0l0-0.1c0,2.5,0.1,5.1,0,7.6c0,1.2,0.4,1.7,1.6,1.7
				c2.1-0.1,4.1-0.1,6.2,0c1.3,0.1,1.6-0.5,1.6-1.7c-0.1-2.5,0-5.1,0-7.7l-0.1,0.1c3.1,0,6.2,0,9.5,0c0,0.8,0,1.5,0,2.2
				c0,4.7-0.1,9.5,0,14.2c0,1.7-0.4,2.3-2.2,2.2c-2.4-0.1-4.8,0-7.3,0c0,2.9,0.1,5.5,0,8c0,1.2,0.4,1.5,1.5,1.5
				c2.6-0.1,5.2,0,7.8-0.1c0,6.2,0,12.4,0,18.7c2.8,0,5.2-0.1,7.5,0c1.5,0.1,2-0.4,1.9-1.9c-0.1-4.8,0-9.7-0.1-14.5
				c0-1.6,0.3-2.4,2.1-2.3c1.9,0.2,3.9,0.1,5.8,0c0.5,0,1.3-0.5,1.3-0.8c0.1-2.8,0.1-5.7,0.1-8.5c-3.4,0-6.4,0-9.4,0
				c0.1-2.6,0.2-5.2,0.1-7.8c0-1.2,0.4-1.7,1.6-1.6c2,0.1,4,0,6,0c1.3,0,1.8-0.4,1.7-1.7c-0.1-5,0-10,0-14.9c0-0.7,0-1.3,0-2
				c0.6-0.1,0.9-0.2,1.2-0.2c11.6,0,23.3,0,34.9,0c1.3,0,1.5,0.5,1.4,1.5c0,2.6,0,5.2,0,8c3.4,0,6.5,0,9.6,0l-0.1-0.1
				c0,3.1,0,6.3,0,9.4l0,0c-5.6,0-11.2,0-16.8-0.1c-0.8,0-1.6-0.2-2.4-0.3l0.1,0.1c0-3,0-5.9,0-8.9c-6.3,0-12.3,0-18.4,0
				c0,9.4,0,18.6,0,28c6.2,0,12.3,0,18.4,0c0,0-0.1,0-0.1,0c0,3.1,0,6.2,0,9.3c-2.3,0-4.6,0.1-6.9,0c-1.9-0.1-2.4,0.6-2.3,2.4
				c0.1,1.7,0,3.3,0,5c0.1,1.5-0.5,2.1-2,2c-2.5-0.1-5.1,0-7.6,0.1c0.1-2.8,0.2-5.7,0.2-8.5c0-0.3-0.7-0.8-1.1-0.9
				c-2.3-0.1-4.6,0-6.9,0c-1.1,0-1.5,0.5-1.5,1.6c0.1,2,0.1,4,0,6c-0.1,1.5,0.5,1.8,1.8,1.8c2.5-0.1,5,0,7.4,0
				c0.1,1.1,0.2,2.2,0.2,3.3c0,4.5,0.1,9,0,13.4c0,1.6,0.5,2,2,2c7.7-0.1,15.3,0,23,0c0.9,0,1.8,0,2.9,0c0-3.2,0-6.2,0-9.4
				c-2.6,0-5.2,0-7.7,0c-1.2,0-1.6-0.4-1.6-1.6c0.1-2.1,0-4.1,0-6.2c0-3.7-0.1-7.3-0.2-11c0.4,0,0.9,0.1,1.3,0.1
				c14.3,0,28.6,0,42.9,0c3.3,0,2.9-0.3,2.9,2.9c0,5.3,0,10.6,0,15.8c0,0,0.1-0.1,0.1-0.1c-3.1,0-6.2,0-9.5,0c0,2.8,0,5.3,0,7.8
				c0,1.2-0.3,1.7-1.6,1.6c-2.7-0.1-5.3,0-8-0.1c0-3.1,0-6.1,0-9.2c-3,0-5.9,0-8.9,0c0,3.2,0,6.2,0,9.2c-3.1,0-6.3,0-9.6,0
				c0,3.3,0,6.2,0,9.3c-0.9,0-1.6,0-2.2,0c-8,0-15.9,0-23.9,0c-1.5,0-1.9,0.4-1.9,1.9c0.1,8.1,0,16.3,0,24.4c0,0.6,0.1,1.2,0.1,1.8
				c0.6,0,0.9,0,1.3,0c5.2,0,10.3,0,15.5,0c0.6,0,1.6,0.6,1.6,0.9c0.1,2.7-0.1,5.4-0.1,8.2c-2.5,0.1-5.1,0.1-7.6,0.1
				c-0.9,0-1.4,0.2-1.4,1.2c0,2.4,0,4.8,0.1,7.2c0,0.4,0.6,1,0.9,1c2.7,0,5.4-0.1,8.1-0.2c0,2.6,0.1,5.2,0.1,7.8
				c0,0.9,0.1,1.8,1.4,1.7c2.6,0,5.2,0,7.9,0c0-3.2,0-6.2,0-9.5c-3.2,0-6.3,0-9.4,0c0-3.2-0.1-6.3-0.1-9.5c0.9,0.1,1.7,0.2,2.6,0.2
				c4.7,0,9.4,0,14.2,0c2.4,0,2.4,0,2.4,2.5c0,8.5,0,17,0.1,25.5l0.1-0.1c-6.4,0-12.7,0-19.1,0l0.1,0c0-3,0-5.9,0-9.2
				c-2.5,0-4.8-0.1-7.2,0c-1.5,0.1-2.1-0.3-2-2c0.1-1.9-0.1-3.7,0.1-5.6c0.1-1.4-0.5-1.8-1.8-1.8c-5,0-10.1,0-15.1,0
				c-0.5,0-1.1,0-1.9,0c0-0.9,0-1.5,0-2.2c0-7.9,0-15.8,0-23.7c0-1.6-0.3-2.3-2.1-2.2c-4.7,0.1-9.3,0-14,0c-0.7,0-1.5,0-2.5,0
				c0-1.3,0-2.4,0-3.5c0-4.4-0.1-8.7,0-13.1c0.1-1.9-0.6-2.3-2.4-2.3c-4.8,0.1-9.6,0-14.4,0.1c-1.7,0-2.2-0.6-2.1-2.2
				c0.1-1.7,0.1-3.4,0-5c-0.1-1.6,0.4-2.3,2.1-2.2c1.9,0.1,3.9,0,5.8,0.1c1.1,0,1.5-0.4,1.5-1.5c-0.1-2.5,0-5.1,0-7.9
				c3.2,0,6.2,0,9.4,0c0-3,0.1-5.7-0.1-8.4c0-0.4-0.9-1-1.4-1c-2.2-0.1-4.4-0.1-6.5,0c-1.1,0-1.5-0.4-1.5-1.5c0.1-2.1,0-4.1,0-6.2
				c0-1.2-0.3-1.7-1.6-1.7c-2.1,0.1-4.1,0.1-6.2,0c-1.2,0-1.6,0.5-1.6,1.7c0.1,1.9-0.1,3.9,0,5.8c0.1,1.5-0.5,1.9-1.9,1.9
				c-8.7-0.1-17.4,0-26.1,0c0,0,0,0.1,0,0.1c0-2.6-0.1-5.2-0.1-7.8c0-1.1-0.3-1.6-1.5-1.5c-2.6,0-5.2,0-7.8,0l0,0.1
				c0-8.7,0-17.4,0-26.1c0-1.4-0.3-2-1.8-2c-8.3,0.1-16.5,0.1-24.8,0c-1.2,0-1.5,0.4-1.5,1.5c0.1,2,0.1,4,0,6
				c-0.1,1.6,0.6,1.9,2,1.9c2.4-0.1,4.8,0,7.4,0c0,3,0,5.8-0.1,8.5c0,0.3-0.8,0.9-1.2,0.9c-2.1,0.1-4.2,0.1-6.3,0
				c-1.3-0.1-1.8,0.4-1.7,1.7c0.1,2,0.1,4,0,6c-0.1,1.3,0.5,1.7,1.8,1.7c1.8-0.1,3.6,0.1,5.4-0.1c1.7-0.1,2.2,0.5,2.2,2.2
				c-0.1,8,0,15.9-0.1,23.9c0,1.5,0.5,2.1,2,2c2.5-0.1,5,0,7.5-0.1l-0.1-0.1c0,2.5-0.1,5.1,0,7.6c0.1,1.5-0.5,1.9-1.8,1.8
				c-1.4-0.1-2.9,0-4.3,0c-3.9,0-3.3-0.3-3.3,3.4c0,1.9,0,3.8,0,5.9C31,192,28,192,25.1,192L25.1,192z M123.2,163.9
				c-4.7,0-4.7,0-4.7,4.8c0,0.1,0,0.1,0,0.2c0,4.4,0,4.4,4.5,4.4c4.9,0,4.9,0,4.8-4.9C127.8,163.9,127.8,163.9,123.2,163.9z"/>
			<path d="M71.7,332.4c-2.4,0-4.9,0.1-7.3,0c-1.6-0.1-2.1,0.4-2.1,2.1c0.1,8,0,15.9,0.1,23.9c0,1.7-0.6,2.1-2.1,2.1
				c-4.9-0.1-9.8-0.1-14.8,0c-1.4,0-1.9-0.4-1.8-1.8c0.1-2.5,0-4.9,0-7.6c-6.4,0-12.5,0-18.6,0l0.1,0c0-2.7-0.1-5.5-0.1-8.2
				c0-1.5,1.1-1.3,2-1.3c7.9,0,15.8-0.1,23.7,0c1.8,0,2.5-0.4,2.4-2.4c-0.1-4.8-0.1-9.7,0-14.6c0-1.4-0.4-1.9-1.8-1.8
				c-2.4,0.1-4.8,0-7.6,0c0,2.6-0.1,5.2,0,7.7c0,1.3-0.5,1.7-1.7,1.7c-5-0.1-10.1-0.1-15.1,0c-1.5,0-2-0.5-1.9-1.9
				c0.1-2.5,0.1-5,0.1-7.5l-0.1,0.1c3,0,6,0,9.4,0c0-3.3,0-6.4,0-9.4l0,0.1c0.8-0.1,1.6-0.1,2.4-0.1c7.7,0,15.4,0,23.1,0
				c0.7,0,1.5,0,2.4,0c0-2.9,0.1-5.6-0.1-8.3c0-0.4-0.9-0.9-1.4-1c-1.9-0.1-3.7-0.1-5.6,0c-1.6,0.1-2.3-0.3-2.2-2.2
				c0.1-5.5,0-10.9,0-16.4l0,0.1c0.5-0.1,1.1-0.3,1.6-0.3c5.2,0,10.4,0,15.6,0c0.6,0,1.2,0.3,1.7,0.4l0,0c0,2.9,0,5.8,0,8.9
				c0.4,0,0.8,0.2,1.3,0.2c5.1,0,10.2,0,15.3,0c1.5,0,1.9-0.4,1.9-1.9c-0.1-8.1,0-16.2,0-24.3c0-1.4,0.4-2,1.9-2
				c2.4,0.1,4.8,0,7.5,0c0,6.3,0,12.3,0,18.5c3.2,0,6.3,0,9.5,0c0-2.5,0.1-5,0-7.4c-0.1-1.5,0.4-1.9,1.9-1.9c4.9,0.1,9.8,0,14.7,0.1
				c1.6,0,2.1-0.5,2-2c-0.1-1.9-0.1-3.9,0-5.8c0-1.1-0.4-1.6-1.5-1.5c-2,0.1-4-0.1-6,0c-1.4,0.1-1.9-0.4-1.8-1.8
				c0-2.5-0.1-5-0.1-7.4c3.1,0,6.2,0,9.4,0c0-3-0.1-5.5,0-8.1c0-1.3-0.5-1.6-1.7-1.6c-1.9,0.1-3.9,0.1-5.8,0
				c-1.4-0.1-1.9,0.5-1.9,1.8c0,2.6,0,5.2-0.1,7.8c-2.2-0.1-4.5-0.2-6.7-0.2c-2.5,0-2.5,0-2.5-2.5c0-1.4,0-2.7,0-4.1
				c0-2.8,0-2.9-3-2.9c-10.8,0-21.5,0-32.3,0c-0.6,0-1.2,0-2,0c0,3.1,0,6.1,0,9.4c2.3,0,4.7,0.1,7.1,0c1.6-0.1,2.3,0.4,2.2,2.1
				c-0.1,1.9-0.1,3.9,0,5.8c0,1.1-0.3,1.6-1.5,1.6c-5.3,0-10.6,0-15.9,0c-1.3,0-1.5-0.7-1.5-1.8c0-5,0-10.1,0-15.1
				c0-1.6-0.5-2.1-2-2c-1.8,0.1-3.6-0.1-5.4,0c-1.5,0.1-1.9-0.4-1.9-1.9c0.1-11,0-22,0-33c0-2.4,0-2.4-2.5-2.4c-1.7,0-3.4,0-5,0
				c-0.6,0-1.1,0.3-1.7,0.4c0,0,0,0.1,0,0.1c0-6.3,0-12.6,0-19.2c2.8,0,5.5,0,8.3,0.1c0.3,0,0.8,0.8,0.8,1.3c0.1,2.2,0.1,4.3,0,6.5
				c0,1.1,0.4,1.6,1.5,1.6c2.2-0.1,4.3-0.1,6.5,0c1,0,1.3-0.4,1.3-1.3c0-2.2,0-4.4,0-6.5c0-1.2,0.4-1.7,1.6-1.6c2.6,0.1,5.2,0,7.8,0
				l-0.1-0.1c0,3.1,0,6.2,0,9.5c3,0,5.7,0.1,8.4-0.1c0.4,0,1-1,1-1.6c0.1-2.6,0-5.2,0-7.8L81,192c2.4,0,4.9,0.1,7.3-0.1
				c1.8-0.1,2.3,0.6,2.1,2.2c-0.1,1.6,0,3.2,0,4.8c0,2.4,0,2.4,2.5,2.4c2.2,0,4.3,0,6.7,0c0,6.2,0,12.3,0,18.6c1.6,0,3,0,4.5,0
				c4.2,0,8.5,0,12.7,0c1.3,0,1.7,0.5,1.7,1.7c-0.1,2-0.1,4,0,6c0.1,1.4-0.4,1.9-1.8,1.8c-2.4-0.1-4.8,0-7.6,0
				c0,2.9-0.1,5.8,0.1,8.6c0,0.3,1.2,0.7,1.8,0.7c7.8,0,15.7,0,23.5,0c0.8,0,1.6,0,2.7,0c0,2.5,0.1,4.9,0,7.3c-0.1,1.5,0.3,2.1,2,2
				c5.5-0.1,11.1-0.1,16.6-0.2c0,0-0.1,0-0.1,0c0,2.6,0,5.2,0.2,7.8c0.1,1.3-0.4,1.8-1.7,1.7c-2.5-0.1-4.9,0-7.6,0
				c0,2.6-0.1,5,0,7.3c0.1,1.6-0.4,2.3-2.1,2.1c-1.9-0.1-3.9,0-5.8,0c-1.2,0-1.5,0.3-1.5,1.5c0.1,1.9-0.1,3.9,0,5.8
				c0.1,1.5-0.3,2.2-2,2.1c-1.9-0.1-3.7,0.1-5.6-0.1c-1.6-0.1-2,0.5-2,2.1c0.1,2.3,0,4.7,0,7.3c-2.6,0-5,0.1-7.5,0
				c-1.4,0-1.9,0.4-1.9,1.8c0.1,2,0,4.1,0,6.2c0,1.1-0.4,1.6-1.5,1.5c-2.1-0.1-4.2-0.1-6.3,0c-0.5,0-1.4,0.5-1.4,0.7
				c-0.1,2.8-0.1,5.6-0.1,8.5c2.7,0,5.1,0,7.5,0c1.4,0,1.8,0.5,1.8,1.9c-0.1,4.9,0,9.7,0,14.6c0,0.7,0.1,1.5,0.1,2.4
				c3.2,0,6.2,0,9.1,0l-0.1-0.1c0,2.5,0,5.1,0.1,7.6c0.1,1.5-0.6,1.7-1.9,1.7c-4.8-0.1-9.7,0-14.5-0.1c-1.6,0-2.3,0.3-2.2,2.1
				c0.1,4.8,0,9.7,0.1,14.5c0,1.7-0.5,2.2-2.1,2.1c-2.3-0.1-4.7,0-7.4,0c0,9.5,0,18.8,0,28.1c0,0,0.1-0.1,0.1-0.1
				c-2.2,0-4.5,0-6.7,0c-2.6,0-2.6,0-2.6-2.5c0-7.7-0.1-15.4,0-23.2c0-1.8-0.3-2.6-2.3-2.4c-2.3,0.2-4.7,0-7.1,0l0.1,0.1
				c0-2.6,0-5.2,0.1-7.8c0-1.2-0.5-1.6-1.7-1.6c-2.5,0-5.1,0-7.8,0C71.6,338.4,71.6,335.4,71.7,332.4c3.1,0,6.2,0,9.3,0
				c0,2.6,0.1,5.2,0.1,7.8c0,1,0.4,1.5,1.4,1.4c5.3,0,10.6,0,15.9-0.1c0.5,0,1.3-0.8,1.3-1.2c0.1-2.3,0.1-4.6,0-6.9
				c0-0.4-0.8-1.1-1.2-1.1c-5.8,0-11.7,0-17.5,0c0.1-2.8,0.1-5.6,0.1-8.4c0-0.4-0.6-1-0.9-1c-2.8-0.1-5.5,0-8.5,0
				C71.7,326.3,71.7,329.4,71.7,332.4z M62.3,224.6c0,4,0,8.1,0,12.1c0,1.5,0.4,2.1,2,2.1c8.1-0.1,16.3-0.1,24.4,0
				c1.3,0,1.7-0.4,1.7-1.7c0-8.2-0.1-16.4,0-24.6c0-1.4-0.5-1.8-1.9-1.8c-8.1,0-16.3,0.1-24.4,0c-1.5,0-1.9,0.6-1.9,2
				C62.4,216.7,62.3,220.6,62.3,224.6z M108.9,323c0.1-0.4,0.3-0.5,0.3-0.7c0-5.5,0-11.1,0-16.6c0-1.3-0.8-1.5-1.8-1.5
				c-5.1,0-10.2,0-15.3,0c-1.3,0-1.7,0.5-1.7,1.8c0,5.2,0.1,10.3,0,15.5c0,1.3,0.5,1.6,1.6,1.6c2.7-0.1,5.3,0,8,0
				C103,323,106,323,108.9,323z M71.7,313.6c2.9,0,5.6,0.1,8.2-0.1c0.4,0,1.1-0.8,1.2-1.2c0.1-2.2,0.1-4.5,0-6.7
				c0-0.5-0.8-1.3-1.3-1.3c-2.3-0.1-4.6-0.1-6.9,0c-0.4,0-1.1,0.7-1.2,1.1C71.7,308.1,71.7,310.7,71.7,313.6z"/>
			<path d="M390,191.9c2.5,0,5,0.1,7.4,0c1.4,0,1.9,0.4,1.8,1.8c-0.1,2,0,4-0.1,6c0,1.2,0.3,1.8,1.7,1.8c2.6-0.1,5.2-0.1,7.8-0.2
				c0,0,0,0,0,0c0,2.4-0.1,4.7-0.1,7.1c0,2.4,0,2.4,2.5,2.4c6.6,0,13.2,0,19.8,0c1.5,0,3-0.1,4.5,0.1c0.5,0,1.2,0.7,1.2,1.1
				c0.1,2.6,0.1,5.2,0.1,8c-6.2,0-12.3,0-18.6,0c0,1.4,0,2.5,0,3.7c0,4.4-0.1,8.8,0,13.3c0,1.6-0.5,2-2,1.9
				c-1.9-0.1-3.7,0.1-5.6-0.1c-1.6-0.1-1.9,0.6-1.9,1.9c0.1,1.9,0.1,3.7,0,5.6c-0.1,1.4,0.4,1.8,1.8,1.8c7.9-0.1,15.8,0,23.7,0
				c2.5,0,2.5,0,2.6,2.5c0,2.2,0,4.4,0,6.7c-12.6,0-24.9,0-37.4,0c0-2.5-0.1-4.8,0-7.2c0.1-1.6-0.3-2.3-2.1-2.2
				c-2.3,0.1-4.6,0-7.1,0c0,3.2,0,6.2,0,9.3c-6.4,0-12.5,0-18.9,0c0-2.5-0.1-4.9,0-7.3c0.1-1.5-0.4-2.2-2-2.1
				c-1.8,0.1-3.6,0.1-5.4,0c-1.4-0.1-2,0.4-1.9,1.9c0.1,2.4,0,4.8,0,7.4c-3.2,0-6.1,0-9.4,0c0-12.3,0-24.7,0-37.3
				c-3.4,0-6.6,0-9.7,0c0.1-2.8,0.2-5.6,0.2-8.3c0-0.3-0.8-0.9-1.2-1c-2.2-0.1-4.5-0.1-6.7,0c-0.4,0-1.2,0.5-1.2,0.8
				c-0.1,2.8-0.1,5.5-0.1,8.4c3.2,0,6.1,0,9,0c0.1,2.8,0.2,5.6,0.1,8.4c0,0.4-0.9,1-1.4,1.1c-2.5,0.1-5,0.1-7.7,0.1
				c0,2.9,0,5.7,0.1,8.6c0,0.3,0.9,0.8,1.4,0.8c2.1,0.1,4.2,0.1,6.3,0c1,0,1.5,0.3,1.5,1.4c0,2.1-0.1,4.2,0,6.3
				c0,1.2-0.4,1.6-1.6,1.6c-4.9-0.1-9.8,0-14.7-0.1c-1.8,0-2.4,0.6-2.3,2.3c0.1,2.3,0,4.6,0,7.3c-3.3,0-6.4,0-9.5,0l0,0
				c0-2.7,0.1-5.4,0-8c0-1.2,0.4-1.7,1.6-1.6c2.2,0.1,4.4,0.1,6.5,0c0.4,0,1.2-0.6,1.2-0.9c0.1-2.7,0.1-5.4,0.1-8.4
				c-2.6,0-5-0.1-7.4,0c-1.5,0.1-2.1-0.4-2-2c0.1-2.4,0-4.8,0-7.4c-2.5,0-4.8-0.1-7.1,0c-1.9,0.1-2.3-0.6-2.3-2.3
				c0.1-2.4,0-4.8-0.1-7.3c1,0,2.1,0.1,3.1,0.1c5.1,0,10.2,0.1,15.3,0.1c0.1,0.6,0.4,1.1,0.4,1.7c0,2.1,0.1,4.2,0,6.3
				c0,0.9,0.3,1.4,1.3,1.4c2.3,0,4.6,0,6.9-0.1c0.4,0,1.1-0.5,1.1-0.8c0.1-2.8,0.1-5.6,0.1-8.4c-3.5,0-6.6,0-9.7,0
				c0.1-0.5,0.4-1,0.4-1.6c0-8.4,0-16.8,0-25.2c0-1.3-0.5-1.5-1.7-1.5c-5,0-9.9,0-14.9,0c-0.7,0-1.3-0.1-2.3-0.1c0-3.2,0-6.2,0-9.2
				c2.7,0,5.3,0,8,0.1c1,0,1.5-0.4,1.4-1.4c-0.1-2.7-0.1-5.3-0.1-8c2.7,0,5.3,0,8,0.1c1.1,0,1.6-0.3,1.6-1.5c-0.1-2.2-0.1-4.3,0-6.5
				c0-1.2-0.5-1.5-1.6-1.4c-2.7,0.1-5.3,0-8,0c0-6.2,0-12.5,0.1-18.7l-0.1,0.1c2.5,0,5,0.1,7.5-0.1c1.6-0.1,2.2,0.4,2.1,2.1
				c-0.1,4.5-0.1,9,0,13.4c0,3.6-0.7,3.2,3.1,3.2c1.8,0,3.6,0,5.4,0c0.2,0,0.4,0.1,0.8,0.2c0,2.7,0.1,5.4-0.1,8.1c0,0.4-1,1-1.6,1
				c-2.5,0.1-5,0-7.7,0c0,2.9-0.1,5.6,0.1,8.3c0,0.4,1.1,0.9,1.8,0.9c4.9,0.1,9.7,0.1,14.6,0c1.7,0,2.4,0.4,2.2,2.2
				c-0.1,1.9-0.1,3.9,0,5.8c0,1.1-0.4,1.4-1.4,1.4c-2.2,0-4.4,0-6.5,0c-1,0-1.3,0.3-1.3,1.3c0,2.2,0,4.5,0,6.7
				c0,0.9,0.1,1.4,1.2,1.4c5.7,0,11.4,0,17.5,0c0-0.9,0-1.7,0-2.4c0-7.9,0-15.8,0-23.7c0-1.4-0.3-2-1.9-1.9c-2,0.1-4,0-6,0
				c-1.2,0-1.7-0.4-1.6-1.7c0.1-2.5,0-5,0-7.7c3.2,0,6.2,0,9.2,0l0-0.1c0.1,2.2,0.2,4.3,0.2,6.5c0,3,0,3,2.9,3c2.2,0,4.5,0,6.7,0
				l-0.1-0.1c0,2.6,0,5.2-0.1,7.8c0,1.2,0.5,1.6,1.7,1.6c5.1,0,10.2-0.1,15.3,0c1.5,0,1.7-0.6,1.7-1.9c-0.1-5,0-9.9,0-14.9
				c0-0.6,0.1-1.2,0.1-1.9c3.3,0,6.4,0,9.5,0l-0.1-0.1c0,2.7-0.1,5.3,0,8c0,0.5,0.7,1.3,1.1,1.4c2.3,0.1,4.6,0.1,6.9,0
				c0.4,0,1.1-0.7,1.1-1c0-2.8-0.1-5.6-0.2-8.3c0,0-0.1,0.1-0.1,0.1c3.3,0,6.6,0,9.9,0.1c0,0-0.1-0.1-0.1-0.1
				c-0.1,2.4-0.3,4.7-0.1,7.1c0.1,2-0.6,2.5-2.4,2.3c-2.2-0.1-4.4,0-6.9,0c0,2.6-0.1,5.1,0,7.5c0.1,1.4-0.5,1.9-1.9,1.8
				c-2-0.1-4,0-6,0c-1.1,0-1.5,0.4-1.5,1.5C390,186.7,390,189.3,390,191.9c-3.1,0.1-6.2,0.1-9.5,0.1c0,2.9,0,5.6,0,8.3
				c0,0.4,0.6,1.1,0.9,1.1c2.8,0.1,5.6,0.1,8.6,0.1C390,198.1,390,195,390,191.9z M389.9,211.1c-0.4-0.2-0.5-0.3-0.6-0.3
				c-8.7,0-17.4-0.1-26.1-0.1c-1.1,0-1.3,0.6-1.3,1.6c0,8.3,0,16.7,0,25c0,1.2,0.5,1.5,1.5,1.5c8.3,0,16.7,0,25,0
				c1.2,0,1.6-0.5,1.6-1.7c-0.1-5.3,0-10.6,0-15.9C389.9,217.9,389.9,214.5,389.9,211.1z M399.2,224.8c0,4.1,0,8.2,0,12.3
				c0,1.2,0.3,1.7,1.6,1.7c2.1-0.1,4.2-0.1,6.3,0c1.2,0,1.5-0.5,1.5-1.6c0-8.3,0-16.7,0-25c0-1.1-0.4-1.6-1.5-1.5c-2,0-4,0.1-6,0
				c-1.5-0.1-1.9,0.6-1.9,2C399.3,216.7,399.2,220.8,399.2,224.8z"/>
			<path d="M240.2,23.4c7.9,0,15.7,0.1,23.6,0.1c4.4,0,4.4,0,4.5,4.4c0,1.6-0.1,3.2-0.1,4.8c0,0,0,0,0,0c-2.5,0-5.1,0.2-7.6,0.1
				c-1.4,0-1.8,0.5-1.8,1.8c0.1,4.8,0,9.7,0,14.5c0,0.7,0,1.5,0,2.5c-2.6,0-4.9,0.1-7.2,0c-1.6-0.1-2.3,0.3-2.2,2.1
				c0.1,1.9,0.1,3.9,0,5.8c0,1,0.3,1.5,1.4,1.5c5.8-0.1,11.6-0.1,17.3-0.1c0,0,0-0.1,0-0.1c0,5.8,0,11.6,0.1,17.4
				c0,1.3-0.6,1.7-1.8,1.6c-2.5-0.1-4.9,0-7.6,0c0,6.3,0,12.4,0,18.6c-2.7,0-5.3,0-7.8,0c-1.2,0-1.7,0.4-1.6,1.6
				c0.1,2.2,0,4.4,0,6.5c0,0.9,0.2,1.4,1.3,1.4c8.5,0,17.1,0,25.6-0.1c0.4,0,1.2-0.7,1.2-1.1c0.1-2.7,0.1-5.3,0.1-8.2
				c-0.7,0-1.3-0.1-1.9-0.1c-1.9,0-3.9-0.1-5.8,0c-1.2,0.1-1.6-0.4-1.6-1.6c0.1-1.9,0.1-3.7,0-5.6c-0.1-1.6,0.4-2.2,2.1-2.1
				c2.3,0.1,4.7,0,7.2,0c0-9.7,0-19,0-28.3l0,0c3,0,6.1,0,9.2,0c0,9.5,0,18.8,0,28.3c-2.5,0-4.9,0.1-7.3,0c-1.5-0.1-2,0.5-1.9,1.9
				c0.1,1.9,0.1,3.9,0,5.8c-0.1,1.2,0.4,1.7,1.6,1.6c2.5-0.1,5,0,7.6,0c0,6.3,0,12.4,0,18.8c-2.5,0-4.9,0.1-7.3,0
				c-1.5-0.1-2,0.5-1.9,1.9c0.1,1.6,0,3.2,0,4.9c0,2.6,0,2.6-2.7,2.6c-2.2,0-4.5,0.1-6.7,0.1l0,0c0-2.7,0.1-5.3,0-8
				c0-0.5-0.6-1.4-1-1.4c-2.7-0.1-5.4-0.1-8.4-0.1c0,3.1,0,6.1,0,9.1c0,0,0.1-0.1,0.1-0.1c-2.5,0.1-5.1,0.3-7.6,0.3
				c-1.4,0-1.9,0.4-1.9,1.8c0.1,2,0,4.1,0,6.2c0,1.1-0.3,1.5-1.5,1.5c-2.6-0.1-5.2,0-7.8,0c0-5.7,0-11.3,0-17c0-1.4-0.4-1.9-1.8-1.8
				c-1.9,0.1-3.9-0.1-5.8,0.1c-1.4,0.1-1.8-0.4-1.8-1.8c0.1-5,0-10,0-14.9c0-0.6,0-1.3,0-2c-2.8,0-5.3,0.1-7.8,0
				c-1.4-0.1-1.7,0.5-1.7,1.7c0,5.6,0,11.2,0,16.8c0,3.2,0.1,6.5,0.2,9.7c-2.5-0.1-5.1-0.2-7.6-0.1c-1.4,0-1.9-0.4-1.8-1.8
				c0.1-1.9-0.1-3.7,0-5.6c0.1-1.5-0.4-2-1.9-2c-5,0.1-10.1,0.1-15.1,0c-1.5,0-1.8,0.6-1.8,2c0.1,5,0,10.1,0,15.1
				c0,0.5-0.1,1.1-0.1,1.7c-12.6,0-25.1,0-37.5,0c0,0,0.1,0,0.1,0c0-2.5,0-5.1,0.1-7.6c0.1-1.5-0.5-1.9-1.9-1.9
				c-2.4,0.1-4.8,0-7.3,0c0-2.7,0.1-5.1,0-7.5c-0.1-1.4,0.4-1.8,1.8-1.8c2.5,0,4.9-0.2,7.4-0.3c0,0-0.1-0.1-0.1-0.1
				c0,2.7,0.1,5.3,0.1,8c0,1.3,0.5,1.7,1.8,1.7c5-0.1,9.9,0,14.9,0c0.7,0,1.4-0.1,2.3-0.2c0-3.2,0-6.1,0-9.1c0,0,0,0,0,0
				c2.5,0,5.1,0,7.6-0.1c0.5,0,1.4-0.6,1.4-0.9c0.1-2.7,0.1-5.4,0.1-8.3c-3.2,0-6.2,0-9.1,0l0.1,0.1c0-2.7-0.1-5.5-0.1-8.2
				c0-0.4,0.4-1.2,0.7-1.2c2.8-0.1,5.5-0.1,8.5-0.1c0,2.7,0.1,5.1,0,7.5c-0.1,1.4,0.3,2,1.9,1.9c8.3-0.1,16.6,0,24.8,0
				c0.4,0,0.8-0.1,1.5-0.2c0-2.6-0.1-5.1,0-7.5c0.1-1.4-0.5-1.8-1.8-1.8c-2.5,0.1-4.9,0-7.5,0c0-0.7,0-1.1,0-1.5
				c0-11.3,0-22.5,0-33.8c0-1.7-0.5-2.1-2.1-2.1c-2.6,0-5.2-0.2-7.8-0.3l0,0c0.1-0.5,0.3-1,0.3-1.6c0-1.6,0-3.2,0-4.8
				c0-2.6,0-2.6,2.7-2.6c1.6,0,3.2-0.1,4.8,0c1.6,0.1,2-0.5,2-2c-0.1-5.6,0-11.3,0-16.9l0,0.1c3.1,0,6.2,0,9.4,0l-0.1-0.1
				c0,2.7,0,5.5-0.1,8.2c0,1,0.4,1.4,1.4,1.4c2.5-0.1,5.1,0,7.9,0c0,2.6,0.1,4.9,0,7.3c-0.1,1.5,0.4,2.1,2,2c1.9-0.1,3.9-0.1,5.8,0
				c1.5,0.1,1.8-0.5,1.7-1.8c-0.1-4.8,0-9.7,0-14.5c0-0.7,0-1.5,0-2.5c2.5,0,4.9-0.1,7.2,0c1.8,0.1,2.2-0.6,2.2-2.2
				C240.1,28.2,240.2,25.8,240.2,23.4L240.2,23.4z M226,89C226,89,226,89.1,226,89c3.9,0.1,7.8,0,11.7,0.1c1.8,0,2.5-0.3,2.5-2.3
				c-0.1-8-0.1-15.9,0-23.9c0-1.4-0.4-2-1.9-2c-8.1,0.1-16.2,0.1-24.2,0c-1.6,0-2,0.6-2,2.1c0.1,8.1,0,16.3,0,24.4
				c0,1.2,0.4,1.6,1.6,1.6C217.8,89,221.9,89,226,89z M258.9,70.3c-2.9,0-5.6-0.1-8.2,0.1c-0.4,0-1.1,0.8-1.1,1.2
				c-0.1,2.3-0.1,4.6,0,6.9c0,0.4,0.7,1.2,1.2,1.2c2.3,0.1,4.6,0.1,6.9,0c0.5,0,1.2-0.8,1.2-1.3C258.9,75.8,258.9,73.2,258.9,70.3z"
				/>
			<path d="M436.6,14.2c0,1,0,1.6,0,2.3c0,20.3,0,40.6,0,60.9c0,2-0.6,2.4-2.4,2.4c-20.3-0.1-40.6-0.1-60.9,0
				c-1.8,0-2.3-0.5-2.3-2.3c0.1-20.4,0.1-40.7,0-61.1c0-1.9,0.7-2.2,2.3-2.2c16.9,0.1,33.7,0,50.6,0
				C428.1,14.2,432.2,14.2,436.6,14.2z M380.5,70.1c0.4,0.1,0.5,0.2,0.7,0.2c14.9,0,29.7,0,44.6,0c1.5,0,1.5-0.8,1.5-1.9
				c0-14.3,0-28.5,0-42.8c0-1.8-0.6-2.2-2.3-2.2c-14.2,0.1-28.4,0.1-42.6,0c-1.6,0-2.1,0.4-2.1,2.1c0.1,11.9,0,23.8,0,35.7
				C380.5,64.2,380.5,67.1,380.5,70.1z"/>
			<path d="M15.7,14.2c1.2,0,2.1,0,3.1,0c20,0,40,0,59.9,0c1.9,0,2.4,0.6,2.4,2.4c-0.1,20.4-0.1,40.7,0,61.1c0,1.5-0.3,2.1-1.9,2.1
				c-20.6,0-41.2,0-61.8,0c-1.4,0-1.8-0.4-1.8-1.8c0-20.7,0-41.4,0-62.2C15.6,15.4,15.7,14.9,15.7,14.2z M71.6,23.6
				c-0.8,0-1.5,0-2.3,0c-14.1,0-28.1,0-42.2,0c-1.8,0-2.2,0.5-2.2,2.2c0.1,14.2,0.1,28.4,0,42.6c0,1.7,0.5,2.1,2.1,2
				c14.2-0.1,28.4,0,42.6,0c0.7,0,1.3,0,2,0C71.6,54.6,71.6,39.2,71.6,23.6z"/>
			<path d="M15.7,435.1c0-0.7-0.1-1.2-0.1-1.6c0-20.5,0-41.1,0-61.6c0-1.7,0.5-2.1,2.1-2.1c20.5,0,41,0,61.4,0c1.6,0,2,0.5,2,2.1
				c0,20.5,0,41,0,61.4c0,1.3-0.1,2-1.8,2c-20.8,0-41.6,0-62.4,0C16.6,435.2,16.3,435.1,15.7,435.1z M71.6,379.3
				c-0.4-0.1-0.6-0.2-0.7-0.2c-14.8,0-29.6,0-44.4,0c-1.3,0-1.5,0.6-1.5,1.7c0,14.4,0,28.9,0,43.3c0,1.5,0.4,1.9,1.9,1.9
				c14.3-0.1,28.6,0,43-0.1c0.6,0,1.2-0.1,1.8-0.1C71.6,410.2,71.6,394.8,71.6,379.3z"/>
			<path d="M352.3,163.9c0-0.1,0.1-0.2,0.1-0.3c0-9.1,0-18.3,0-27.7c-9.3,0-18.5,0-27.9,0c0-6.4,0-12.5,0-18.8c2.5,0,4.9-0.1,7.3,0
				c1.4,0,2-0.5,1.9-1.9c-0.1-2.4,0-4.7,0-7.3c-6.3,0-12.4,0-18.9,0c0-3.3,0-6.3,0-9.3l0,0.1c0.5-0.1,1.1-0.3,1.6-0.3
				c5.2,0,10.3,0,15.5,0c1.5,0,2,0.5,1.9,1.9c-0.1,2.5,0,4.9,0,7.6c3.2,0,6.1,0,9.2,0c0,2.9,0,5.7-0.1,8.5c0,0.3-1,0.8-1.5,0.8
				c-2.4,0.1-4.8,0-7.6,0c0,2.9,0,5.7,0.1,8.5c0,0.3,0.8,0.8,1.2,0.8c5.3,0,10.7,0,16,0c1.5,0,1.3-1,1.3-1.9c0-7.7,0-15.4,0-23.1
				c0-3.8-0.1-3.1,3.1-3c2.2,0,4.4,0.2,6.6,0.3l0,0c0,3,0,5.9,0,9.1c9.1,0,18.3,0,27.8,0c0,3.3,0,6.4,0,9.5l0-0.1
				c-5.7,0-11.4,0-17.1-0.1c-1.4,0-1.8,0.5-1.8,1.9c0.1,5-0.1,10.1,0,15.1c0,1.6-0.5,1.9-1.9,1.9c-2.6-0.1-5.2,0.1-7.8,0.1
				c0.1-3,0.3-5.9,0.3-8.9c0-0.2-0.6-0.7-0.9-0.7c-2.7-0.1-5.4,0-8.2,0c0,3.2,0,6.2,0,9.4c1.6,0,3,0,4.4,0c1.5,0,3,0,4.5,0.1
				c0.1,0.7,0.4,1.4,0.4,2.1c0,7.8,0,15.7,0,23.5c0,0.7,0.1,1.4,0.1,2.4c3.1,0,6.1,0,9.2,0c0,2.8,0,5.3,0,7.9c0,1.1-0.5,1.5-1.6,1.5
				c-2.5-0.1-5.1-0.1-7.6-0.1c0,0,0.1,0.1,0.1,0.1c0-2-0.1-4-0.1-5.9c-0.1-3.9,0.5-3.4-3.5-3.4C356.3,163.9,354.3,163.9,352.3,163.9
				L352.3,163.9z"/>
			<path d="M155.8,313.7c-2.6,0-5.2,0-7.8-0.1c-1.1,0-1.3,0.6-1.3,1.5c0,2.5,0,5.1,0,7.9c-6.4,0-12.7,0-18.9,0c0,0,0.1,0.1,0.1,0.1
				c0-12.4,0-24.9,0-37.4c0.9,0,1.6-0.1,2.4-0.1c8,0,15.9,0,23.9,0c1.4,0,2-0.4,1.9-1.9c-0.1-1.9,0-3.9,0-5.8c0-1.3,0.5-1.7,1.8-1.7
				c2.5,0.1,4.9,0,7.5,0c0-3.1,0-6.1,0-9.3c-2.7,0-5.2,0-7.7,0c-0.9,0-1.6-0.2-1.6-1.3c0-2.3,0-4.6,0.1-6.9c0-0.4,0.7-1.1,1-1.2
				c2.7-0.1,5.4-0.1,8.3-0.1c0,2.7,0,5.3,0,7.8c0,1.2,0.4,1.7,1.6,1.6c1.9-0.1,3.9-0.1,5.8,0c1.6,0.1,2.1-0.3,2.1-2.1
				c-0.1-5.7,0-11.3,0.1-17c0,0-0.1,0.1-0.1,0.1c3,0,6,0,9-0.1c0.1,6.6,0.1,13.2,0.2,19.7c0,2.9-0.1,5.8-0.2,8.7
				c-2.4-0.1-4.8-0.1-7.2-0.2c-1.4-0.1-1.9,0.4-1.8,1.8c0.1,2.4,0,4.8,0,7.4c-0.8,0-1.4,0.1-2.1,0.1c-4.9,0-9.8,0.1-14.7,0
				c-1.5,0-2.2,0.4-2,2c0.1,1.8,0,3.6,0.1,5.4c0.1,1.6-0.3,2.2-2.1,2.2c-2.7-0.1-5.5,0-8.2,0c-2.7,0-5.4,0-8.4,0
				c0,2.6,0.1,5.1,0,7.5c-0.1,1.5,0.5,1.9,1.9,1.9c5-0.1,10,0,14.9,0c0.9,0,1.8-0.1,1.8,1.2C155.8,308.3,155.8,311,155.8,313.7
				C155.7,313.7,155.8,313.7,155.8,313.7z"/>
			<path d="M268.2,135.9c3,0,6.1,0,9.4,0c0,2.6,0.1,5,0,7.4c0,1.4,0.4,2,1.9,2c2.5-0.1,5,0,7.5,0l0-0.1c0,2.6,0.1,5.2,0,7.8
				c0,1.2,0.4,1.6,1.6,1.6c2.6,0,5.2,0,7.8,0l0,0c0.1,2.5,0,5.1,0.2,7.6c0.1,1.4-0.4,1.8-1.8,1.8c-5.1-0.1-10.2,0-15.3-0.1
				c-1.4,0-1.8,0.5-1.8,1.8c0.1,4.8,0,9.7,0.1,14.5c0,1.8-0.4,2.6-2.4,2.4c-2.3-0.2-4.7,0-7.1,0c0-1.1,0.1-2.2,0.1-3.4
				c0-7.6,0-15.2,0-22.8c0-1,0.1-2-1.5-2c-5.3,0.1-10.6,0-15.9,0c-1,0-1.5,0.4-1.4,1.4c0,2,0.1,4,0,6c-0.1,1.5,0.4,2.1,2,2
				c2.4-0.1,4.8,0,7.4,0c0,2.9,0.1,5.6-0.1,8.4c0,0.4-0.9,0.9-1.4,1c-2.4,0.1-4.9,0.1-7.3,0.1c-5.8,0-11.7,0-17.5,0
				c-0.8,0-1.8,0.2-1.8-1c0-2.7,0-5.4,0-8.3c2.6,0,4.9-0.1,7.3,0c1.5,0.1,2.1-0.3,2.1-1.9c-0.1-5.6,0-11.2-0.1-16.8
				c8.7,0,17.4,0,26,0c1.5,0,2.2-0.3,2.1-2C268.2,140.8,268.2,138.3,268.2,135.9L268.2,135.9z"/>
			<path d="M315,89.3c0-6.2,0-12.4,0-18.9c2.4,0,4.6,0,6.8,0c2.7,0,2.7,0,2.7-2.8c0-4.6,0-9.2,0-13.8c0-0.6,0-1.2,0-2.1
				c2.1,0,4,0,5.9,0c3.6,0,7.2-0.1,10.8,0c1.5,0,1.9-0.4,1.9-1.9c-0.1-7.9,0-15.8,0-23.7c0-2.5,0-2.5,2.6-2.5c1.7,0,3.5-0.1,5.2,0
				c1.3,0.1,1.6-0.5,1.6-1.7c-0.1-2.5,0-5,0-7.6c2.9,0,5.6,0,8.4,0.1c0.4,0,1,0.7,1,1.1c0.1,2.2,0,4.5,0.1,6.7
				c0,1.1-0.5,1.4-1.5,1.4c-2.1,0-4.2,0-6.3,0c-0.9,0-1.6,0.1-1.6,1.3c0,5.7,0,11.3,0,17c0,0.1,0.1,0.2,0.3,0.5c2.4,0,4.8,0.1,7.3,0
				c1.4-0.1,1.9,0.3,1.8,1.8c-0.1,5-0.1,10.1,0,15.1c0,1.5-0.6,1.8-1.9,1.8c-8,0-16.1,0-24.1-0.1c-1.8,0-2.3,0.5-2.2,2.2
				c0.1,1.9-0.1,3.7,0,5.6c0.1,1.4-0.5,1.7-1.7,1.7c-2.5-0.1-5,0-7.6,0c0,2.9,0,5.7,0,8.5c0,0.3,0.7,0.9,1.1,0.9
				c2.3,0.1,4.6,0,6.9,0.1c1.1,0,1.3-0.7,1.3-1.6c0-2.1,0-4.2,0-6.3c0-1.1,0.4-1.6,1.5-1.5c2.1,0.1,4.1,0,6.2,0
				c1.2,0,1.7,0.3,1.6,1.6c-0.1,2.1-0.1,4.2,0,6.3c0,1.1-0.4,1.6-1.5,1.5c-2.1-0.1-4.2,0-6.3,0c-1.1,0-1.4,0.4-1.4,1.4
				c0.1,2.1-0.1,4.1,0,6.2c0.1,1.3-0.4,1.8-1.7,1.7c-5.2,0-10.5,0-15.7,0C315.9,89.1,315.4,89.2,315,89.3
				C314.9,89.2,315,89.3,315,89.3z"/>
			<path d="M99.7,60.8c0-2.9,0-5.8,0-9.1c-2.3,0-4.5,0-6.7,0c-2.6,0-2.6,0-2.6-2.5c0-2.2,0-4.3,0-6.8c2.6,0,5-0.1,7.4,0
				c1.5,0.1,2.1-0.4,2-2c-0.1-1.9-0.1-3.9,0-5.8c0.1-1.3-0.3-1.8-1.7-1.7c-2,0.1-4.1,0-6.2,0c-1.1,0-1.6-0.3-1.5-1.5
				c0.1-2.1,0.1-4.1,0-6.2c0-1.2,0.5-1.7,1.6-1.7c2,0,4,0,6,0c1.3,0,1.8-0.4,1.7-1.7c-0.1-2.4,0-4.8,0-7.4c9.3,0,18.5,0,27.9,0
				c0,9.2,0,18.4,0,27.9c-2.5,0-4.9,0.1-7.3,0c-1.5-0.1-2,0.5-1.9,1.9c0.1,1.7-0.1,3.5,0.1,5.2c0.2,1.9-0.6,2.4-2.4,2.3
				c-1.9-0.1-3.7,0-5.6,0c-1.1,0-1.4,0.4-1.4,1.4c0,2.1,0.1,4.2,0,6.3c0,0.5-0.7,1.4-1.1,1.4C105.2,60.9,102.4,60.8,99.7,60.8
				C99.7,60.7,99.7,60.8,99.7,60.8z M113.8,32.9c4.7,0,4.7,0,4.7-4.8c0-4.5,0-4.5-4.5-4.5c-4.8,0-4.8,0-4.8,4.7
				C109.2,32.8,109.2,32.8,113.8,32.9z"/>
			<path d="M99.7,388.5c0-3.1,0-6.3,0.1-9.4c0,0-0.1,0.1-0.1,0.1c2.7,0,5.4-0.1,8,0c1.1,0,1.5-0.4,1.5-1.5c-0.1-2.1,0-4.2,0-6.3
				c0-1.1,0.4-1.5,1.5-1.5c2.1,0.1,4.1,0,6.2,0c1.2,0,1.7,0.5,1.7,1.7c0,8.2-0.1,16.4,0,24.7c0,1.4-0.5,1.9-1.9,1.8
				c-1.8-0.1-3.6,0.1-5.4-0.1c-1.7-0.1-2.2,0.6-2.1,2.1c0.1,1.9,0,3.7,0,5.6c0.1,1.3-0.4,1.6-1.6,1.6c-2.1-0.1-4.2,0-6.3,0
				c-1,0-1.5,0.2-1.5,1.3c0,2.6,0,5.2,0,8.1c2.6,0,5.2,0.1,7.7,0c1.4-0.1,1.8,0.4,1.8,1.8c-0.1,5-0.1,10.1,0,15.1
				c0,1.3-0.4,1.7-1.7,1.7c-5.2-0.1-10.3,0-15.5,0c-1.2,0-1.6-0.3-1.6-1.6c0-14.4,0-28.9,0-43.3c0-1.4,0.5-1.8,1.9-1.8
				C94.7,388.6,97.2,388.5,99.7,388.5c0.1,2.6,0.1,5.2,0,7.8c0,1.2,0.4,1.7,1.6,1.6c2.1-0.1,4.2-0.1,6.3,0c1.2,0,1.6-0.4,1.5-1.5
				c0-2.1-0.1-4.2,0-6.3c0-1.1-0.4-1.5-1.5-1.5C105,388.6,102.3,388.5,99.7,388.5z"/>
			<path d="M183.8,407.1c-2.6,0-5.2,0-7.8,0.1c-1,0-1.3-0.4-1.3-1.3c0-2-0.1-4,0-5.9c0.1-1.7-0.6-2.1-2.1-2.1c-4.8,0.1-9.5,0-14.3,0
				c-0.9,0-1.7-0.1-2.6-0.1c0,0,0.1,0.1,0.1,0.1c0-2.6,0.1-5.2,0.1-7.8c0-1-0.4-1.4-1.5-1.4c-2.1,0-4.1,0-6.2,0
				c-1.2,0-1.7-0.3-1.7-1.6c0.1-2.2,0.1-4.4,0-6.5c0-1.1,0.4-1.4,1.4-1.4c2.1,0.1,4.1,0,6.2,0c1.3,0.1,1.8-0.3,1.7-1.7
				c-0.1-2,0-4.1,0-6.2c0-1.1,0.4-1.6,1.6-1.6c5.2,0,10.5,0,15.7,0c1.3,0,1.7,0.5,1.7,1.8c0,2.5,0.1,5.1,0.1,7.6c-3.1,0-6.3,0-9.5,0
				c0,3.2,0,6.2,0,9.2c3.2,0,6.2,0,9.4,0c0-3.2,0-6.2,0-9.3c3,0,6,0,8.9,0l-0.1-0.1c0.1,2.1,0.2,4.2,0.2,6.3
				c0.1,3.5-0.7,3.2,3.3,3.2c2,0,4,0,6.2,0c0,3.3,0,6.3,0,9.2l0.1-0.1c-2.6,0-5.3,0.1-7.9,0.1c-1.3,0-1.7,0.4-1.7,1.7
				C184,402.1,183.8,404.6,183.8,407.1L183.8,407.1z"/>
			<path d="M342.9,295.1c0-2.7,0.1-5.3,0.1-8c0-1.1,0.4-1.6,1.5-1.5c2.5,0,5.1,0,7.8,0c0-3.1,0-6.1,0-9.3c-2.5,0-4.9-0.1-7.3,0
				c-1.5,0.1-2.1-0.5-2-2c0.1-1.9-0.1-3.7,0-5.6c0.1-1.3-0.5-1.7-1.8-1.7c-2.1,0.1-4.1,0.1-6.2,0c-0.5,0-1.3-0.8-1.3-1.2
				c-0.1-2.6-0.1-5.2-0.1-7.9c0.5-0.1,0.9-0.2,1.3-0.2c5.2,0,10.5,0,15.7,0c1.3,0,1.7,0.4,1.7,1.7c-0.1,2,0.1,4,0,6
				c-0.1,1.6,0.7,1.8,2,1.8c8,0,15.9,0,23.9-0.1c1.8,0,2.3,0.5,2.2,2.2c-0.1,2.3,0,4.6,0,7.1c-1.3,0-2.5,0-3.7,0
				c-4.4,0-8.8,0-13.3,0c-1.3,0-1.7,0.4-1.7,1.7c0.1,5,0,10.1,0,15.1c0,1.5-0.5,2-2,2C354.2,294.9,348.5,295,342.9,295.1
				C342.9,295,342.9,295.1,342.9,295.1z"/>
			<path d="M90.4,107.9c0-2.5-0.1-5.1,0-7.6c0.1-1.4-0.4-2-1.9-1.9c-4.8,0.1-9.7,0-14.5,0c-0.7,0-1.3,0-2.3,0c0-2.9-0.1-5.7,0.1-8.4
				c0-0.3,1.1-0.8,1.7-0.8c7.3-0.1,14.5,0,21.8,0c4.4,0,4.4,0,4.4-4.5c0-1.5,0-3,0-4.8c-2.5,0-4.9-0.1-7.3,0
				c-1.5,0.1-2.1-0.3-2.1-1.9c0.1-4.9,0.1-9.8,0-14.7c0-1.7,0.6-2.3,2.3-2.2c2.4,0.1,4.7-0.1,7.1-0.1c0,0-0.1-0.1-0.1-0.1
				c0,5.7,0.1,11.4,0,17.1c0,1.6,0.5,2,2,2c2.6-0.1,5.2,0.1,7.8,0.1c0,0-0.1-0.1-0.1-0.1c-0.1,2.7-0.2,5.5-0.2,8.2
				c0,0.4,0.8,1,1.3,1c2.1,0.1,4.2,0,6.3,0.1c0.5,0,1.5,0.7,1.5,1.1c0.1,2.6,0.1,5.3,0.1,8.2c-6.3,0-12.5,0-18.8,0
				c0,3.3,0,6.4,0,9.5l0.1-0.1C96.6,107.8,93.5,107.8,90.4,107.9L90.4,107.9z"/>
			<path d="M183.8,32.7c-6.1,0-12.2,0-18.3,0.1l0,0c-0.1-2.4-0.3-4.8-0.2-7.2c0-1.6-0.5-2.1-2.1-2.1c-4.6,0.1-9.2,0-13.8,0
				c-2.8,0-2.8,0-2.8,2.9c0,4.7,0,9.3,0,14c0,1.5-0.4,2-1.9,1.9c-2.4-0.1-4.8,0-7.4,0c0-9.4,0-18.6,0-28c9.2,0,18.4,0,27.8,0
				c0,3,0,6,0,9.2c3,0,5.8,0.1,8.6-0.1c0.3,0,0.9-0.9,0.9-1.4c0.1-2.5,0-5.1,0-7.7c3.1,0,6,0,8.9,0c0.1,0.2,0.2,0.3,0.2,0.4
				C183.8,20.7,183.8,26.8,183.8,32.7C183.8,32.8,183.8,32.7,183.8,32.7z"/>
			<path d="M342.9,304.4c1,0,2-0.1,3-0.1c10.9,0,21.8,0,32.6,0c1.5,0,2.1-0.4,2-2c-0.1-2.4,0-4.7,0-7.4c-2.5,0-4.9-0.1-7.3,0
				c-1.7,0.1-2.1-0.6-2.1-2.2c0.1-2.3,0-4.7,0-7.1c0.6-0.1,1-0.2,1.4-0.2c5.4,0,10.8,0,16.2,0c0.4,0,0.8,0.1,1.3,0.2l-0.1-0.1
				c0,9.4,0,18.7,0,28.1l0.1-0.1c-0.7,0-1.5-0.1-2.2-0.1c-13.6,0-27.2,0-40.8,0c-1.4,0-2.7,0.1-4.1,0.1l0.1,0
				C342.9,310.6,342.9,307.5,342.9,304.4L342.9,304.4z"/>
			<path d="M127.8,60.8c0-2.4,0.1-4.9,0-7.3c-0.1-1.6,0.5-1.9,1.9-1.9c10.4,0,20.9,0,31.3,0c1.4,0,2.7,0,4.2,0c0-2.7,0.1-5.2,0-7.8
				c0-1.2,0.4-1.6,1.6-1.6c5.1,0,10.2,0,15.3,0c1.4,0,1.9-0.4,1.8-1.8c-0.1-2.6-0.1-5.2-0.2-7.8c0,0,0,0,0,0c3.1,0,6.2,0,9.4,0
				l0-0.1c0.1,0.5,0.2,1.1,0.2,1.6c0,5,0,9.9,0,14.9c0,2.4,0,2.4-2.5,2.4c-7.9,0-15.8,0-23.7,0c-1.4,0-2.1,0.3-1.9,1.9
				c0.1,1.6,0,3.2,0,4.8c0,2.6,0,2.6-2.5,2.6c-10.9,0-21.9,0-32.8,0C129.2,60.9,128.5,60.8,127.8,60.8
				C127.7,60.8,127.8,60.8,127.8,60.8z"/>
			<path d="M408.7,285.7c0.6-0.1,1.2-0.2,1.8-0.2c8.1,0,16.2,0,24.3,0c1.5,0,2,0.4,1.9,1.9c-0.1,1.8-0.1,3.6,0,5.4
				c0.1,1.7-0.4,2.3-2.2,2.2c-4.7-0.1-9.5,0-14.2,0c-0.7,0-1.3,0-2.2,0c0,3.1,0,6.1,0,9.3c0.8,0,1.6,0,2.4,0c4.7,0,9.5,0,14.2,0
				c1.6,0,2.1,0.5,2,2.1c-0.1,1.9-0.1,3.7,0,5.6c0.1,1.3-0.4,1.7-1.7,1.7c-8.3-0.1-16.7,0-25,0c-0.4,0-0.9,0.1-1.3,0.1
				c0,0,0.1,0,0.1,0c-0.1-2.4-0.2-4.8-0.1-7.3c0.1-1.7-0.4-2.4-2.2-2.2c-1.9,0.1-3.9,0.1-5.8,0c-0.5,0-1.4-0.6-1.4-1
				c-0.1-2.7-0.1-5.4-0.1-8.3c2.8,0,5.3-0.1,7.9,0c1.2,0,1.5-0.4,1.5-1.5C408.6,290.9,408.6,288.3,408.7,285.7
				C408.7,285.7,408.7,285.7,408.7,285.7z"/>
			<path d="M286.9,145.3c0-3,0-6.1,0-9.4c2.7,0,5.2-0.1,7.7,0c1.4,0.1,1.8-0.5,1.8-1.8c-0.1-5.1,0-10.2-0.1-15.3
				c0-1.3,0.3-1.8,1.7-1.7c1.9,0.1,3.9,0.1,5.8,0c1.5-0.1,2,0.6,1.9,2c-0.1,1.9,0,3.7-0.1,5.6c-0.1,1.4,0.5,1.8,1.9,1.8
				c2.4-0.1,4.8,0,7.4,0c0,6.4,0,12.6,0,18.8c0,0,0.1-0.1,0.1-0.1c-2.5,0-5.1,0-7.6,0c-1.2,0-1.7,0.4-1.7,1.6c0.1,2-0.1,4,0,6
				c0.1,1.4-0.5,1.8-1.8,1.8c-2.5-0.1-5.1,0-7.6,0l0,0c0-2.5,0-5.1,0.1-7.6c0.1-1.5-0.6-1.8-1.9-1.8
				C292,145.2,289.4,145.2,286.9,145.3L286.9,145.3z"/>
			<path d="M333.8,42.2c-3.2,0-6.2,0-9.3,0c0-1.1,0-2.2,0-3.2c0-4.5-0.1-9,0-13.4c0-1.5-0.3-2-2-2c-11.1,0.1-22.3,0-33.4,0.1
				c-1.7,0-2.3-0.5-2.2-2.2c0.2-2.3,0-4.6,0-7c12.5,0,24.8,0,37.5,0c0,2.4,0.1,4.8,0,7.2c0,1.4,0.2,2.1,1.8,2c2-0.1,4,0,6,0
				c0.9,0,1.6,0.2,1.6,1.3C333.8,30.6,333.8,36.3,333.8,42.2z"/>
			<path d="M296.3,51.9c-3,0-6,0-9.2,0c0-3.4,0-6.4,0-9.6c2.5,0,5-0.1,7.4,0c1.5,0.1,2-0.5,1.9-1.9c-0.1-2.1-0.1-4.2,0.1-6.3
				c0-0.4,0.7-1.1,1.1-1.1c5.3-0.1,10.7,0,16-0.1c1.1,0,1.4,0.5,1.4,1.5c0,8.4,0,16.8,0,25.2c0,1-0.3,1.5-1.4,1.4
				c-5.3,0-10.6,0-15.9,0c-1.1,0-1.4-0.5-1.4-1.5C296.4,57,296.3,54.4,296.3,51.9c2.6-0.1,5.2-0.2,7.8-0.2c1.2,0,1.7-0.4,1.6-1.7
				c-0.1-2.1,0-4.2-0.1-6.3c0-0.5-0.5-1.3-0.8-1.3c-2.8-0.1-5.5-0.1-8.5-0.1C296.3,45.7,296.3,48.8,296.3,51.9z"/>
			<path d="M25,323c-3,0-6.1,0-9.3,0c0-0.7-0.1-1.3-0.1-1.9c0-8,0-16,0-24.1c0-1.6,0.3-2.2,2-2.1c8.6,0.1,17.1,0,25.9,0
				c0,3.1,0,6,0,9.3c-2.3,0-4.6,0.1-6.9,0c-1.9-0.1-2.5,0.5-2.4,2.4c0.2,2.3,0.1,4.7,0.1,7.1c0,0,0-0.1,0-0.1c-2.6,0-5.2,0-7.8-0.1
				c-1.4-0.1-1.7,0.5-1.7,1.7C25,317.9,25,320.5,25,323C25,323.1,25,323,25,323z"/>
			<path d="M193.7,426.3c-0.1,1.6-0.3,3.1-0.3,4.7c-0.1,1.3,0,2.6,0,4c-9.4,0-18.5,0-28,0c0-2.9,0-5.9,0-9.1c-2.7,0-5.2-0.1-7.6,0
				c-1.4,0.1-1.9-0.3-1.9-1.8c0.1-2.1,0-4.1,0.1-6.2c0-0.5,0.6-1.4,0.9-1.4c5.9-0.1,11.8-0.1,17.9-0.1c0,2.6,0.1,5,0,7.5
				c-0.1,1.4,0.4,2,1.9,1.9c4.9-0.1,9.7-0.1,14.6,0C192,426,192.8,426.2,193.7,426.3C193.7,426.4,193.7,426.3,193.7,426.3z"/>
			<path d="M43.8,211.1c0,5.5-0.1,10.9-0.1,16.4c0,1.6-0.5,2-2,1.9c-5-0.1-10.1,0-15.1,0c-0.5,0-1.1-0.2-1.6-0.2l0,0
				c0-2.4-0.1-4.9,0-7.3c0-1.5-0.4-2.1-2-2c-2.3,0.1-4.7,0-7.3,0c0-2.9,0-5.7,0.1-8.5c0-0.3,0.8-0.8,1.2-0.8c8.5,0,17,0,25.6,0
				C42.9,210.7,43.4,211,43.8,211.1C43.8,211.2,43.8,211.1,43.8,211.1z"/>
			<path d="M53,173.2c-3.1,0-6.3,0-9.4,0c0,0,0.1,0.1,0.1,0.1c0-8.7,0-17.5,0-26.2c0-1.4,0.3-1.9,1.8-1.8c2.5,0.1,5.1,0,7.6,0.1
				c0,0,0-0.1,0-0.1c0,2.5,0.1,5.1,0,7.6c0,1.3,0.5,1.7,1.7,1.7c2.5-0.1,5.1,0,7.6,0.1c0,0,0-0.1,0-0.1c0,3.1,0,6.3,0,9.4l0.1-0.1
				c-2.6,0-5.2,0.1-7.8,0c-1.2,0-1.6,0.4-1.6,1.6C53.1,168.1,53,170.7,53,173.2L53,173.2z"/>
			<path d="M390,117.2c2.4,0,4.7-0.2,7.1-0.1c1.6,0.1,2.4-0.4,2.2-2.1c-0.2-1.9,0-3.8,0-5.8c0-0.9,0.1-1.4,1.2-1.4
				c5.9,0.1,11.8,0.1,17.7,0.1l-0.1-0.1c0,5.5-0.1,10.9,0,16.4c0,1.7-0.4,2.3-2.1,2.2c-2.4-0.1-4.8,0-7.2,0c0,0,0,0.1,0,0.1
				c0-2.5-0.2-5.1-0.1-7.6c0-1.5-0.5-2-1.9-1.9c-1.8,0.1-3.7,0.1-5.6,0c-1.5-0.1-1.9,0.4-1.9,1.9c0,2.5-0.2,5-0.3,7.6l0.1-0.1
				c-3,0-6,0-9,0.1C390,123.5,390,120.3,390,117.2L390,117.2z"/>
			<path d="M352.5,70.4c2.9,0,5.5,0,8.2,0c1,0,1.3,0.5,1.3,1.4c0,5.3,0,10.6,0,15.9c0,1-0.4,1.5-1.4,1.4c-2.1,0-4.1,0.1-6.2,0
				c-1.6-0.1-1.9,0.5-1.9,1.9c0.1,2.4,0,4.8,0,7.4c-3.1,0-6.1,0-9.4,0c0-2.8-0.1-5.5,0.1-8.2c0-0.3,0.9-0.9,1.4-0.9
				c1.9-0.1,3.9-0.2,5.8,0c1.9,0.2,2.2-0.6,2.2-2.2C352.4,81.4,352.5,76,352.5,70.4z"/>
			<path d="M109.5,79.9c-0.2-3.1-0.3-6.2-0.5-9.5c3.3,0,6.3,0,9.5,0c0-2.7,0.1-5.2,0-7.7c-0.1-1.4,0.5-1.8,1.8-1.8
				c2.5,0.1,5-0.1,7.4-0.1c0,0-0.1,0-0.1,0c0,2.6,0.1,5.2,0,7.8c0,1.3,0.3,1.8,1.7,1.7c2.5-0.1,5.1,0,7.8,0c0,3,0,5.8-0.1,8.5
				c0,0.3-0.8,0.8-1.3,0.9c-2.1,0.1-4.2,0-6.3,0.1c-1.4,0.1-1.8-0.5-1.8-1.9c0.1-2.5,0-4.9,0-7.6c-3,0-5.6-0.1-8.3,0.1
				c-0.4,0-0.9,0.9-1,1.4c-0.1,2.1-0.1,4.2,0,6.3c0,1.2-0.5,1.6-1.6,1.6C114.4,79.7,111.9,79.8,109.5,79.9L109.5,79.9z"/>
			<path d="M418.1,108c0-5.9,0-11.8-0.1-17.7c0-1.1,0.5-1.2,1.4-1.2c2.2,0,4.4,0.1,6.5,0c1.1,0,1.4,0.5,1.4,1.5c0,1.9,0.1,3.7,0,5.6
				c-0.2,1.9,0.6,2.4,2.3,2.3c1.8-0.1,3.6,0,5.4,0c1.2,0,1.7,0.3,1.7,1.6c-0.1,2.5,0,5.1,0,8C430.3,107.9,424.2,107.9,418.1,108
				C418,107.9,418.1,108,418.1,108z"/>
			<path d="M408.8,164c-0.1-2.7-0.2-5.5-0.1-8.2c0-0.4,0.9-1.2,1.3-1.2c8.4-0.1,16.9-0.1,25.4,0c0.4,0,1.2,0.8,1.2,1.3
				c0.2,1.9,0,3.9,0.1,5.8c0.1,1.7-0.4,2.3-2.2,2.3C425.9,163.9,417.3,163.9,408.8,164C408.7,163.9,408.8,164,408.8,164z"/>
			<path d="M408.8,135.8c8.5,0,17,0.1,25.6,0c1.9,0,2.5,0.5,2.4,2.4c-0.2,1.8-0.1,3.6,0,5.4c0,1.1-0.3,1.6-1.5,1.6
				c-8.3,0-16.7,0-25-0.1c-0.5,0-1.5-0.7-1.5-1C408.6,141.4,408.7,138.6,408.8,135.8L408.8,135.8z"/>
			<path d="M25,229.2c0,2.6,0,5.2,0,7.8c0,1.4,0.4,1.8,1.8,1.8c5-0.1,9.9,0,14.9,0c0.6,0,1.2,0.1,2,0.1c0,2.8,0,5.5-0.1,8.1
				c0,0.4-0.7,1-1.1,1c-5.5,0.1-10.9,0.1-16.4,0c-0.4,0-1.1-0.9-1.1-1.4c-0.1-2-0.1-4.1,0-6.2c0-1.3-0.4-1.8-1.7-1.7
				c-2,0.1-4,0-6,0.1c-1.2,0.1-1.7-0.2-1.7-1.5c0.1-2.5,0-5.1,0-8.1C18.9,229.3,21.9,229.3,25,229.2C25,229.3,25,229.2,25,229.2z"/>
			<path d="M390,145.2c0,3.1,0,6.3,0,9.4l0.1-0.1c-5.7,0-11.3,0-17,0c-1.4,0-2-0.4-1.9-1.9c0.1-1.9,0.1-3.7,0-5.6
				c-0.1-1.3,0.4-1.9,1.8-1.9C378.6,145.3,384.3,145.2,390,145.2L390,145.2z"/>
			<path d="M390,407.1c0,3.1,0,6.2,0,9.3c-0.5,0.1-0.9,0.2-1.2,0.2c-5.3,0-10.5,0-15.8,0c-1.3,0-1.9-0.3-1.8-1.8
				c0.2-2.6,0.2-5.2,0.2-7.8c0,0-0.1,0.1-0.1,0.1C377.5,407.1,383.8,407.1,390,407.1L390,407.1z"/>
			<path d="M305.5,89.3c-2.5-0.1-5.1-0.1-7.6-0.3c-0.5,0-1.5-0.7-1.5-1c-0.1-5.8-0.1-11.6-0.1-17.6c2.8,0,5.5,0,8.1,0
				c0.4,0,1.1,0.6,1.1,0.9C305.6,77.3,305.5,83.3,305.5,89.3C305.4,89.3,305.5,89.3,305.5,89.3z"/>
			<path d="M314.9,388.5c0-3,0-6.1,0-9.3c-3.1,0-6,0-9.3,0c0-3.3,0-6.4,0-9.4l-0.1,0.1c3.1,0,6.3,0,9.4-0.1c0,2.5,0.1,5.1,0,7.6
				c-0.1,1.4,0.5,1.8,1.8,1.8c2-0.1,4.1,0,6.1,0c1.3-0.1,1.6,0.4,1.6,1.6c0,2.6,0.1,5.2,0.2,7.8c0,0,0.1-0.1,0.1-0.1
				C321.4,388.4,318.1,388.4,314.9,388.5L314.9,388.5z"/>
			<path d="M390,285.7c0-2.7,0-5.5-0.1-8.2c0-1.1,0.4-1.4,1.4-1.4c5.2,0,10.4,0,15.7,0c1.1,0,1.5,0.4,1.5,1.5c0,2.7,0.1,5.3,0.1,8
				c0,0,0,0,0,0C402.5,285.7,396.2,285.7,390,285.7L390,285.7z"/>
			<path d="M62.3,163.9c5.7,0,11.4,0,17.1,0c1.3,0,1.8,0.4,1.7,1.7c-0.1,2-0.1,4.1,0,6.1c0,1.1-0.4,1.6-1.5,1.6
				c-5.8-0.1-11.5-0.1-17.3-0.1l0.1,0.1C62.4,170.1,62.4,167,62.3,163.9L62.3,163.9z"/>
			<path d="M418,182.6c0,6.1,0,12.3,0,18.6c-3.2,0-6.3,0-9.4,0c0,0,0,0,0,0c0-5.8-0.1-11.5-0.1-17.3c0-1.1,0.5-1.4,1.5-1.4
				C412.7,182.7,415.4,182.6,418,182.6L418,182.6z"/>
			<path d="M127.8,360.3c-2.6,0-5.2,0.1-7.8,0.1c-1,0-1.5-0.4-1.5-1.4c0-5.3,0-10.7,0.1-16c0-0.5,0.8-1.3,1.3-1.3
				c2.2-0.1,4.5,0,6.7-0.1c1.2,0,1.2,0.7,1.2,1.6C127.8,349,127.8,354.7,127.8,360.3C127.7,360.4,127.8,360.3,127.8,360.3z"/>
			<path d="M418,182.6c0-2.6,0-5.2-0.1-7.8c0-1.1,0.2-1.6,1.4-1.6c5.2,0.1,10.4,0.1,15.6,0c1.3,0,1.6,0.5,1.6,1.7c-0.1,2-0.1,4,0,6
				c0,1.3-0.4,1.8-1.7,1.7C429.3,182.6,423.6,182.6,418,182.6C418,182.6,418,182.6,418,182.6z"/>
			<path d="M212.2,32.8c0-5.7,0-11.4-0.1-17.2c0-0.9,0.2-1.4,1.3-1.4c2.6,0,5.2,0,8.1,0c0,1.1,0,2,0,2.9c0,4.7,0,9.4,0,14.2
				c0,0.9-0.1,1.6-1.3,1.5C217.5,32.8,214.8,32.8,212.2,32.8C212.1,32.7,212.2,32.8,212.2,32.8z"/>
			<path d="M165.5,32.8c-0.1,2.3-0.2,4.7-0.2,7c0,0.7,0,1.5,0,2.4c-3.1,0-6.1,0-9.4,0c0-2.8-0.1-5.6,0.1-8.3c0-0.3,0.9-0.9,1.4-0.9
				C160.1,32.8,162.8,32.8,165.5,32.8C165.6,32.8,165.5,32.8,165.5,32.8z"/>
			<path d="M268.2,32.8c2.5,0,5,0.1,7.4,0.1c1.4,0,2,0.3,1.9,1.8c-0.1,2.4,0,4.8,0,7.5c-3,0-6,0-9.3,0
				C268.2,39,268.2,35.9,268.2,32.8C268.2,32.7,268.2,32.8,268.2,32.8z"/>
			<path d="M15.7,257.3c0-3.1,0-6,0-9.2c2.8,0,5.5,0,8.2,0c0.3,0,0.9,0.7,1,1c0.1,2.7,0,5.3,0,8.2C21.8,257.3,18.8,257.3,15.7,257.3
				z"/>
			<path d="M314.9,257.7c0,2.6,0,5.1,0.1,7.7c0,1.2-0.4,1.7-1.6,1.6c-2.6-0.1-5.2,0-7.8,0.1c0,0,0.1,0,0.1,0c0-2.7,0-5.3,0.1-8
				c0-0.5,0.7-1.5,1.1-1.5C309.5,257.5,312.2,257.6,314.9,257.7L314.9,257.7z"/>
			<path d="M34.5,267.2c0-3.1,0-6.3,0-9.6c3,0,6,0,9.2,0c0,2.8,0.1,5.6-0.1,8.3c0,0.3-0.9,0.9-1.4,0.9C39.7,267,37.1,267,34.5,267.2
				C34.5,267.1,34.5,267.2,34.5,267.2z"/>
			<path d="M389.9,98.2c-3.2,0-6.2,0-9.4,0c0-2.7,0-5.4,0-8.1c0-0.4,0.6-1,1-1c2.5-0.1,5-0.1,7.4,0c0.3,0,0.9,0.7,0.9,1
				C390,92.8,389.9,95.5,389.9,98.2z"/>
			<path d="M408.8,135.8c-3.3,0-6.6,0.1-9.9,0.1l0.1,0.1c0-3.1,0-6.3,0-9.4c0,0-0.1,0.1-0.1,0.1c3.3,0,6.5,0,9.8,0c0,0,0-0.1,0-0.1
				C408.7,129.6,408.7,132.7,408.8,135.8C408.8,135.8,408.8,135.8,408.8,135.8z"/>
			<path d="M53,285.8c-3,0-6,0-9.2,0c0-3.4,0-6.3,0-9.5c2.8,0,5.6-0.1,8.3,0.1c0.3,0,0.8,1,0.8,1.5C53,280.5,53,283.1,53,285.8
				C52.9,285.8,53,285.8,53,285.8z"/>
			<path d="M427.3,407.1c2.5,0,5.1,0.1,7.6,0c1.2,0,1.7,0.2,1.7,1.5c-0.1,2.5,0,5.1,0,7.9c-2.9,0-5.8,0-8.6-0.1
				c-0.2,0-0.7-0.9-0.7-1.4C427.3,412.4,427.4,409.7,427.3,407.1C427.4,407.1,427.3,407.1,427.3,407.1z"/>
			<path d="M296.4,107.8c0-2.9,0-5.7,0.1-8.5c0-0.3,0.8-0.9,1.2-0.9c2.2-0.1,4.5,0,6.7,0c1,0,1.3,0.4,1.3,1.4c0,2.2,0.1,4.5-0.1,6.7
				c0,0.5-0.6,1.3-1,1.3C301.9,107.9,299.3,107.8,296.4,107.8z"/>
			<path d="M268.2,126.5c0,3.1,0,6.3,0,9.4c0,0,0.1-0.1,0.1-0.1c-3.1,0-6.1,0-9.3,0c0-3.4,0-6.6,0-9.7l-0.1,0.1
				c0.7,0.1,1.5,0.2,2.2,0.2C263.4,126.5,265.8,126.5,268.2,126.5L268.2,126.5z"/>
			<path d="M25,192c0,2.6-0.1,5.2-0.1,7.8c0,1.2-0.4,1.7-1.6,1.6c-2.5-0.1-4.9,0-7.5,0c0-3.2,0-6.2,0-9.4C18.9,192,22,192,25,192
				C25.1,192,25,192,25,192z"/>
			<path d="M71.7,192c0-2.6,0-5.2,0-7.8c0-1.1,0.4-1.5,1.5-1.5c2.1,0.1,4.1,0.1,6.2,0c1.2,0,1.8,0.4,1.8,1.7
				c-0.1,2.5-0.1,5.1-0.1,7.6c0,0,0.1-0.1,0.1-0.1C77.9,191.9,74.8,191.9,71.7,192L71.7,192z"/>
			<path d="M71.9,285.9c-0.1-2.9-0.2-5.8-0.2-8.7c0-0.3,0.6-0.9,1-1c2.4-0.1,4.7,0,7.1,0c1.1,0,1.3,0.6,1.3,1.6c0,2.1-0.1,4.1,0,6.2
				c0,1.2-0.4,1.7-1.6,1.6c-2-0.1-4,0-6,0C73,285.6,72.4,285.8,71.9,285.9C71.9,285.9,71.9,285.9,71.9,285.9z"/>
			<path d="M286.9,313.7c-3.1,0-6.3,0-9.4,0c0,0,0.1,0.1,0.1,0.1c0-3.1,0-6.3,0-9.4l-0.1,0.1c2.6,0,5.2,0,7.8-0.1
				c1.3,0,1.6,0.5,1.6,1.6C286.8,308.5,286.9,311.1,286.9,313.7C286.9,313.7,286.9,313.7,286.9,313.7z"/>
			<path d="M277.5,313.7c0,2.7,0,5.3,0,8c0,0.9-0.2,1.4-1.2,1.4c-2.6,0-5.2,0-8.1,0c0-3.2,0-6.3,0-9.4c0,0,0,0.1,0,0.1
				C271.3,313.7,274.4,313.7,277.5,313.7L277.5,313.7z"/>
			<path d="M81,351.1c0,2.7,0.1,5.3,0,8c0,0.5-0.8,1.3-1.2,1.3c-2.6,0.1-5.2,0.1-8,0.1c0-3.1,0-6.1,0-9.4
				C74.9,351.1,78,351.1,81,351.1C81.1,351.1,81,351.1,81,351.1z"/>
			<path d="M305.6,360.4c0-3.1,0-6.3,0-9.4c0,0,0,0.1,0,0.1c2.6,0,5.2,0,7.8,0c1.2,0,1.7,0.3,1.6,1.6c-0.1,2.6,0,5.2,0,7.8
				C311.8,360.4,308.7,360.4,305.6,360.4L305.6,360.4z"/>
			<path d="M296.2,407c0.1,2.8,0.2,5.6,0.1,8.4c0,0.4-0.7,1.1-1,1.1c-2.7,0.1-5.4,0.1-8.3,0.1c0-3.2,0-6.1,0-9.5
				C290.1,407.1,293.1,407.1,296.2,407C296.2,407.1,296.2,407,296.2,407z"/>
			<path d="M193.1,32.8c0.1-2.5,0.2-4.9,0.2-7.4c0-1.3,0.4-1.9,1.8-1.9c2.1,0.1,4.2,0.1,6.3,0c1,0,1.4,0.4,1.4,1.4
				c0,2.6,0,5.2,0,7.8c0,0,0-0.1,0-0.1C199.6,32.8,196.3,32.8,193.1,32.8L193.1,32.8z"/>
			<path d="M25,351.1c0,2.5-0.1,5.1-0.1,7.6c0,1.3-0.4,1.8-1.7,1.8c-2.1-0.1-4.2,0-6.3-0.1c-0.4,0-1.2-0.6-1.2-0.9
				c-0.1-2.7-0.1-5.4-0.1-8.4C18.9,351.1,22,351.1,25,351.1C25.1,351.1,25,351.1,25,351.1z"/>
			<path d="M62.3,173.2c0,2.6-0.1,5.2,0,7.8c0,1.1-0.3,1.6-1.5,1.6c-2.1-0.1-4.2,0-6.3,0c-1.1,0-1.5-0.5-1.5-1.6
				c0.1-2.6,0-5.2,0-7.8c0,0,0,0.1,0,0.1C56.1,173.3,59.3,173.3,62.3,173.2L62.3,173.2z"/>
			<path d="M305.6,369.7c-2.6,0-5.2,0-7.8,0.1c-1,0-1.5-0.3-1.4-1.4c0.1-2.2,0.1-4.3,0-6.5c0-1.1,0.4-1.4,1.4-1.4c2.6,0,5.2,0,7.8,0
				c0,0-0.1,0-0.1,0C305.5,363.5,305.5,366.6,305.6,369.7L305.6,369.7z"/>
			<path d="M240.3,23.4c-2.7,0.1-5.5,0.2-8.2,0.1c-0.4,0-1.2-0.7-1.2-1.2c-0.1-2.6-0.1-5.2-0.1-7.9c3.1,0,6,0,9.4,0
				C240.2,17.4,240.2,20.4,240.3,23.4C240.2,23.4,240.3,23.4,240.3,23.4z"/>
			<path d="M34.5,267.1c-0.1,2.4-0.2,4.8-0.2,7.2c0,1.3-0.3,1.9-1.8,1.9c-1.9-0.1-3.9-0.1-5.8,0c-1.2,0-1.9-0.3-1.8-1.7
				c0.1-2-0.1-4.1,0.1-6.1c0-0.5,0.7-1.4,1.1-1.4C28.9,266.9,31.7,267.1,34.5,267.1C34.5,267.2,34.5,267.1,34.5,267.1z"/>
			<path d="M399.3,98.4c0-2.9-0.1-5.5,0.1-8.1c0-0.4,0.7-1.2,1.2-1.2c2.3-0.1,4.6-0.1,6.9,0c0.4,0,1.1,0.8,1.1,1.2
				c0.1,2.3,0.1,4.6,0,6.9c0,0.4-0.7,1.1-1,1.1C404.8,98.4,402.1,98.4,399.3,98.4z"/>
			<path d="M398.9,135.9c0.1,2.8,0.3,5.5,0.2,8.3c0,0.3-1,0.9-1.6,1c-2.5,0.1-5.1,0.1-7.6,0.1c0,0,0.1,0,0.1,0c0-3.1,0-6.3-0.1-9.4
				C393,135.9,396,135.9,398.9,135.9C399,135.9,398.9,135.9,398.9,135.9z"/>
			<path d="M390,154.6c2.6,0,5.2-0.1,7.8,0c0.5,0,1.3,0.5,1.3,0.8c0,2.8-0.1,5.7-0.2,8.5c0,0,0.1-0.1,0.1-0.1c-3,0-6,0-9,0l0.1,0.1
				C390,160.8,390,157.7,390,154.6L390,154.6z"/>
			<path d="M418,266.9c0,2.9,0,5.6,0,8.3c0,0.3-0.7,0.9-1.1,0.9c-2.4,0.1-4.7,0-7.1,0c-1,0-1.3-0.5-1.3-1.4c0-2.2,0-4.3,0.1-6.5
				c0-0.5,0.6-1.3,1-1.3C412.4,266.9,415.1,266.9,418,266.9z"/>
			<path d="M314.9,98.6c-2.5-0.1-4.9-0.2-7.4-0.2c-1.5,0-1.9-0.6-1.9-2c0-2.4-0.1-4.8-0.1-7.2c0,0-0.1,0.1-0.1,0.1
				c3.2,0,6.3,0,9.5-0.1c0,0,0,0,0,0C314.9,92.4,314.8,95.5,314.9,98.6C314.8,98.6,314.9,98.6,314.9,98.6z"/>
			<path d="M127.7,426.2c0,2.5,0,5.1,0.1,7.6c0,1-0.3,1.5-1.4,1.4c-2.2-0.1-4.3-0.1-6.5,0c-1,0-1.4-0.4-1.4-1.4c0-2.2,0-4.3,0.1-6.5
				c0-0.4,0.6-1.2,0.9-1.3C122.2,426,125,426.2,127.7,426.2C127.8,426.2,127.7,426.2,127.7,426.2z"/>
			<path d="M417.9,426.3c2.8-0.1,5.6-0.2,8.4-0.3c0.3,0,1,0.6,1,1c0.1,2.4,0.1,4.7,0,7.1c0,0.4-0.7,1-1.1,1c-2.6,0.1-5.2,0-8.2,0
				C418,432.1,418,429.2,417.9,426.3C418,426.2,417.9,426.3,417.9,426.3z"/>
			<path d="M408.8,426.3c-0.1,2-0.2,3.9-0.3,5.9c0,0.9,0,1.8,0,3c-2.9,0-5.6,0-8.4-0.1c-0.3,0-0.9-0.8-0.9-1.2
				c-0.1-2.2-0.1-4.4,0-6.5c0-0.5,0.6-1.3,0.9-1.3C403.1,426.1,406,426.2,408.8,426.3C408.9,426.4,408.8,426.3,408.8,426.3z"/>
			<path d="M362.2,98.7c-0.1-2.9-0.2-5.8-0.3-8.7c0-0.3,0.7-0.9,1-0.9c2.4-0.1,4.7-0.1,7.1-0.1c0.4,0,1,0.7,1,1.1
				c0.1,2.6,0,5.2,0,8.2c-1.8,0-3.5,0-5.2,0C364.7,98.4,363.4,98.6,362.2,98.7C362.1,98.7,362.2,98.7,362.2,98.7z"/>
			<path d="M268.2,60.8c0-2.5,0.1-5,0-7.4c0-1.3,0.3-1.8,1.7-1.7c2,0.1,4.1,0.1,6.1,0c1.1,0,1.5,0.4,1.5,1.5c-0.1,2.5,0,5.1-0.1,7.6
				c0,0,0,0,0,0C274.4,60.8,271.3,60.8,268.2,60.8L268.2,60.8z"/>
			<path d="M240.2,191.9c0,2.6,0,5.2-0.1,7.8c0,1.2,0.4,1.7,1.6,1.7c1.9-0.1,3.7,0,5.6,0c0.7,0,1.3,0.1,2.1,0.1
				c0,5.5,0.1,10.8-0.1,16.2c-0.1,2,0.6,2.4,2.4,2.3c8.6-0.1,17.2-0.1,25.7-0.1c0,3.1,0,6.2,0,9.4l0,0c-1.4,0.1-2.8,0.2-4.3,0.2
				c-7,0-13.9,0-20.9,0c-0.9,0-1.7,0-2.9,0c0,2.9,0,5.7,0.1,8.5c0,0.3,0.9,0.8,1.3,0.8c1.9,0.1,3.9,0,5.8,0c0.7,0,1.3,0.1,2.2,0.1
				c0,2.8,0.1,5.5-0.1,8.2c0,0.4-1,1-1.5,1c-5,0.1-10,0.1-14.9,0c-1.7,0-2.3,0.4-2.2,2.2c0.1,5.6,0.1,11.2,0.1,16.8
				c-3,0-6.1,0-9.3,0c0-3.3,0-6.2,0-9.5c-3.2,0-6.2,0-9.5,0c0-2.6-0.1-4.9,0-7.2c0.1-1.8-0.5-2.4-2.3-2.3c-4.8,0.1-9.7,0.1-14.5,0
				c-1.3,0-1.9,0.3-1.9,1.8c0.1,2.5,0,4.9,0,7.7c2.5,0,4.9,0.1,7.2,0c1.6-0.1,2.2,0.4,2.1,2.1c-0.1,1.9-0.1,3.7,0,5.6
				c0,1.2-0.3,1.8-1.7,1.8c-2-0.1-4.1-0.1-6.2,0c-1.2,0-1.5-0.5-1.5-1.6c0.1-1.9-0.1-3.9,0-5.8c0.1-1.6-0.3-2.2-2.1-2.1
				c-2.4,0.2-4.8,0-7.4,0c0-2.6-0.1-5,0-7.4c0.1-1.5-0.4-2.1-2-2c-2.5,0.1-5.1,0-7.6-0.1c0.1-0.9,0.2-1.7,0.2-2.6
				c0-7.8,0.1-15.7,0-23.5c0-1.5,0.4-2,1.9-1.9c2.4,0.1,4.8,0,7.5,0c0,2.3,0,4.4,0,6.6c0,3.5,0.1,7,0,10.5c0,1.4,0.5,1.8,1.8,1.8
				c2-0.1,4.1,0,6.2-0.1c0.5,0,1.4-0.7,1.4-1.1c0.1-5.8,0.1-11.6,0.1-17.6c-3.2,0-6.2,0-9.3,0c0-3.2,0-6.1,0-9.3c2.6,0,5-0.1,7.5,0
				c1.3,0,1.9-0.3,1.8-1.8c-0.1-2,0-4.1,0-6.2c0-1,0.3-1.4,1.4-1.4c2.1,0.1,4.1,0,6.2,0c1.2,0,1.8-0.3,1.8-1.7
				c0-2.6,0.1-5.2,0.1-7.8c0,0-0.1,0.1-0.1,0.1c3.1,0,6.2,0,9.4,0c0,0-0.1-0.1-0.1-0.1c0,2.7-0.1,5.3,0,8c0,0.5,0.5,1.3,0.8,1.3
				c2.8,0.1,5.7,0.1,8.6,0.1c0-3.3,0-6.4,0-9.4l0,0.1C234,191.9,237.1,191.9,240.2,191.9z M226.2,210.8
				C226.2,210.7,226.2,210.7,226.2,210.8c-4,0-8.1,0-12.1-0.1c-1.4,0-2,0.4-2,1.9c0.1,8.1,0.1,16.3,0,24.4c0,1.4,0.4,1.8,1.8,1.8
				c8.1,0,16.3,0,24.4,0c1.3,0,1.9-0.4,1.9-1.8c-0.1-8.2,0-16.4,0-24.6c0-1.3-0.4-1.7-1.7-1.7C234.4,210.8,230.3,210.8,226.2,210.8z
				"/>
			<path d="M305.6,173.2c0,3.1,0,6.3,0,9.4c-2.6,0-5.2,0-7.8,0.1c-0.5,0-1.3,0.7-1.3,1c-0.1,5.8-0.1,11.7-0.1,17.7
				c6.3,0,12.3,0,18.5,0c0,3.1,0,6.1,0,9.3c-2.4,0-4.8,0.1-7.2,0c-1.6-0.1-2.1,0.4-2,2c0.1,2.4,0,4.9,0,7.3c-3,0-6,0-9.2,0
				c0-2.1,0-4.2,0-6.2c0-3.2,0.5-3-3.1-3.1c-2.1,0-4.2-0.1-6.3-0.1c0-12.3,0-24.7,0-37.4C293.2,173.2,299.4,173.2,305.6,173.2z"/>
			<path d="M287,257.5c0-3.2,0-6.1,0-9.4c2.4,0,4.9-0.1,7.2,0c1.7,0.1,2.2-0.5,2.2-2.2c-0.1-5.4,0-10.8,0-16.4c2.8,0,5.5,0,8.3,0
				c1.3,0,1,1,1,1.8c0,6.9,0,13.8,0,20.7c0,1.4,0.1,2.9-0.1,4.3c0,0.4-0.6,1.2-1,1.2C298.8,257.5,292.9,257.5,287,257.5z"/>
			<path d="M277.5,229.3c3,0,6.1,0,9.4,0c0,3.1,0,5.9,0,8.6c0,0.3-0.7,0.9-1.1,0.9c-2.3,0.1-4.6,0-6.9,0c-1.3,0-1.3-0.8-1.3-1.8
				C277.6,234.4,277.6,231.8,277.5,229.3C277.6,229.2,277.5,229.3,277.5,229.3z"/>
			<path d="M277.5,220c0-2.2,0-4.3,0-6.5c0-2.8,0-2.8,2.7-2.8c2.2,0,4.4-0.1,6.7-0.1c0,3,0,6.1,0,9.4C283.7,220,280.6,220,277.5,220
				z"/>
			<path d="M277.6,238.8c0,2.9,0,5.3,0,7.8c0,1-0.3,1.5-1.4,1.4c-2.2,0-4.5,0-6.7-0.1c-0.4,0-1.1-0.7-1.1-1.2
				c-0.1-2.2-0.1-4.5,0-6.7c0-0.5,0.6-1.2,0.9-1.3C271.9,238.8,274.6,238.8,277.6,238.8z"/>
			<path d="M193.1,295.1c0.1-2.8,0.2-5.7,0.2-8.5c0-0.3-0.9-0.9-1.4-0.9c-1.9-0.1-3.9,0-5.8-0.1c-0.7,0-1.3-0.1-2.3-0.1
				c0-3.1,0-6.1,0-9c2.7,0,5.5-0.1,8.2-0.2c1.1,0,1.4,0.4,1.4,1.5c-0.1,2.5,0,5.1,0,7.6c3.3,0,6.4,0,9.5,0l-0.1-0.1
				c0,2.7,0,5.4,0.1,8.1c0,1.4-0.5,1.7-1.8,1.6C198.4,295,195.7,295,193.1,295.1z"/>
			<path d="M202.8,285.3c0-2.5,0-5.1,0-7.6c0-1,0.3-1.5,1.4-1.4c2.1,0.1,4.2,0.1,6.3,0c1.2,0,1.6,0.6,1.6,1.7c0,2.1,0,4.1,0,6.2
				c0,1.2,0.4,1.5,1.6,1.5c2.5-0.1,5,0,7.6,0c0,3.2,0,6.2,0,9.4c-2.8,0-5.5,0.1-8.2-0.1c-0.3,0-0.9-0.9-0.9-1.4
				c-0.1-2.5,0-5.1,0-7.8C208.9,285.5,205.8,285.4,202.8,285.3C202.7,285.2,202.8,285.3,202.8,285.3z"/>
			<path d="M230.8,374.5c0,4.6,0,4.6-4.5,4.6c-5,0-5,0-4.9-4.9c0-4.4,0-4.4,4.5-4.4c0.1,0,0.1,0,0.2,0
				C230.8,369.8,230.8,369.8,230.8,374.5z"/>
			<path d="M240.2,332.4c0,3.1,0,6.3,0,9.4c-6.2,0-12.5,0-18.7,0c0-6.2,0-12.5,0-18.7c3.1,0,6.3,0,9.4,0c0,2.6,0,5.2,0,7.8
				c0,1.2,0.4,1.6,1.6,1.6C235,332.3,237.6,332.4,240.2,332.4z"/>
			<path d="M314.9,369.8c0-3.1,0-6.3,0-9.4c5.5,0,11,0.1,16.6,0c1.8,0,2.5,0.5,2.4,2.3c-0.1,1.8-0.1,3.6-0.1,5.4
				c0.1,1.3-0.5,1.7-1.8,1.7C326.3,369.7,320.6,369.8,314.9,369.8z"/>
			<path d="M371.2,379c0-2.8-0.1-5.4,0.1-8c0-0.4,0.8-1.1,1.2-1.2c2.3-0.1,4.6-0.1,6.9,0c0.4,0,1,0.7,1,1.1c0.1,2.7,0,5.3,0,8.1
				C377.4,379,374.4,379,371.2,379z"/>
			<path d="M165.4,210.6c0-3,0-6,0-9.1c9.2,0,18.4,0,27.8,0c0,3,0,6,0,9.1C183.9,210.6,174.7,210.6,165.4,210.6z"/>
			<path d="M268.2,182.6c0,3.1-0.1,6.3-0.1,9.4l0.1-0.1c-9.3,0-18.7,0-28,0c0-2.5,0.1-5,0-7.5c-0.1-1.5,0.5-1.9,2-1.9
				C250.8,182.6,259.5,182.6,268.2,182.6z"/>
			<path d="M212.2,191.9c-6.2,0-12.4,0-18.9,0c0-2.8,0-5.6,0.1-8.3c0-0.3,0.8-0.9,1.2-1c5.3-0.1,10.7,0,16-0.1
				c1.3,0,1.4,0.7,1.4,1.7C212.1,186.8,212.1,189.4,212.2,191.9C212.2,191.9,212.2,191.9,212.2,191.9z"/>
			<path d="M174.8,173.2c3,0,6,0,9,0c0,6.2,0,12.4,0,18.6c-3,0-5.9,0-9,0C174.8,185.6,174.8,179.4,174.8,173.2z"/>
			<path d="M240.2,135.9c0,3.1,0,6.3,0,9.4c-2.6,0-5.2-0.1-7.8,0c-1.2,0-1.6-0.4-1.6-1.6c0.1-2.6,0-5.2,0-7.8
				C234,135.9,237.1,135.9,240.2,135.9z"/>
			<path d="M221.5,126.5c3,0,6.1,0,9.4,0c0,3.2,0,6.3,0,9.4c-3.1,0-6.2,0-9.3,0l0.1,0C221.6,132.8,221.5,129.7,221.5,126.5z"/>
			<path d="M221.5,135.9c-0.1,2.5-0.2,5.1-0.1,7.6c0,1.3-0.4,1.7-1.7,1.7c-2-0.1-4.1-0.1-6.2,0c-1,0-1.5-0.4-1.4-1.4
				c0-2.1,0-4.2,0-6.3c0-1.1,0.3-1.6,1.5-1.5C216.2,136,218.9,135.9,221.5,135.9C221.6,136,221.5,135.9,221.5,135.9z"/>
			<path d="M221.5,192c0-2.6-0.1-5.2-0.1-7.8c0-1,0.3-1.5,1.4-1.5c2.2,0,4.5,0,6.7,0c1.1,0,1.4,0.5,1.3,1.5c0,2.6,0,5.2,0,7.8
				c0,0,0-0.1,0-0.1C227.7,191.9,224.6,191.9,221.5,192L221.5,192z"/>
			<path d="M202.8,163.9c2.5,0,5.1,0,7.6,0c1.2,0,1.7,0.3,1.7,1.6c-0.1,2.1-0.1,4.2,0,6.3c0,1.2-0.5,1.5-1.6,1.5c-2.1,0-4.2,0-6.3,0
				c-1,0-1.4-0.4-1.4-1.4C202.8,169.2,202.8,166.5,202.8,163.9C202.9,163.9,202.8,163.9,202.8,163.9z"/>
			<path d="M192.9,60.6c0.1,0.7,0.4,1.3,0.4,2c0,11.4,0,22.9,0,34.3c0,0.8,0,1.5-1.1,1.4c-2.7,0-5.3,0-8.2,0c0-1,0-1.9,0-2.8
				c0-10.9,0-21.8,0-32.7c0-1.7,0.6-2,2-2C188.3,61,190.6,60.8,192.9,60.6C193,60.7,192.9,60.6,192.9,60.6z"/>
			<path d="M165.4,79.7c0-3.2,0-6.2,0-9.3c3.1,0,6.1,0,9.3,0c0,2.8,0,5.5,0,8.3c0,0.4-0.6,1-0.9,1C171,79.8,168.3,79.7,165.4,79.7z"
				/>
			<path d="M174.7,98.2c-3.1,0-6.1,0-9.4,0c0-2.8,0-5.5,0.1-8.3c0-0.3,0.7-0.8,1.1-0.8c2.3-0.1,4.6-0.1,6.9-0.1
				c0.8,0,1.4,0.2,1.4,1.3C174.7,92.9,174.7,95.5,174.7,98.2z"/>
			<path d="M118.4,126.5c0,3,0,6.1,0,9.4c-3.2,0-6.3,0-9.4,0c0-3.1,0-6.1,0-9.4C112.4,126.5,115.4,126.5,118.4,126.5z"/>
			<path d="M146.6,70.5c3.2,0,6.2,0,9.2,0c0,2.8,0.1,5.4-0.1,8.1c0,0.4-0.8,1.1-1.2,1.1c-2.3,0.1-4.6,0.1-6.9,0
				c-0.4,0-1-0.7-1.1-1.1C146.6,76,146.6,73.3,146.6,70.5z"/>
			<path d="M71.7,135.9c0-3.1,0-6.3,0-9.4c2.6,0,5.3,0,7.9-0.1c1.1,0,1.5,0.4,1.5,1.5c-0.1,2.6,0,5.3-0.1,7.9
				C77.9,135.9,74.8,135.9,71.7,135.9z"/>
			<path d="M71.8,229.5c0-3.3,0-6.2,0-9.3c3,0,6,0,9.3,0c0,2.9,0,5.7,0,8.6c0,0.2-0.7,0.7-1.1,0.7C77.3,229.5,74.6,229.5,71.8,229.5
				z"/>
			<path d="M314.9,163.9c0,3.1,0,6.3,0,9.4c-3.1,0-6.3,0-9.4,0c0-2.4,0.2-4.8,0.1-7.3c-0.1-1.6,0.3-2.2,2-2.1
				C310.1,164,312.5,163.9,314.9,163.9z"/>
			<path d="M268.1,192c2.7,0,5.3-0.1,8,0c0.5,0,1.3,0.6,1.4,0.9c0.1,2.7,0.1,5.4,0.1,8.4c-2.9,0-5.7,0-8.5-0.1
				c-0.3,0-0.7-0.9-0.8-1.4C268.2,197.3,268.2,194.6,268.1,192C268.2,191.9,268.1,192,268.1,192z"/>
			<path d="M390,126.5c0,3.1,0,6.3,0,9.4c-3.1,0-6.2,0-9.5,0c0-3,0-5.8,0.1-8.6c0-0.3,0.8-0.8,1.3-0.9
				C384.5,126.4,387.3,126.5,390,126.5z"/>
			<path d="M380.4,220c0,3.2,0,6.2,0,9.4c-2.8,0-5.5,0-8.2,0c-0.4,0-1-0.6-1-1c-0.1-2.5-0.1-5,0-7.5c0-0.3,0.7-0.9,1-0.9
				C374.9,220,377.6,220,380.4,220z"/>
			<path d="M230.8,70.4c0,3,0,5.7-0.1,8.3c0,0.4-0.7,1-1.1,1c-2.4,0.1-4.7,0.1-7.1,0c-0.4,0-1.1-0.8-1.1-1.2c-0.1-2.3-0.1-4.6,0-6.9
				c0-0.4,0.6-1.2,1-1.2C225.2,70.3,227.9,70.4,230.8,70.4z"/>
			<path d="M390.1,33c9.3,0,18.4,0,27.7,0c0,0.7,0.1,1.3,0.1,1.9c0,8,0,15.9,0.1,23.9c0,1.8-0.6,2.3-2.3,2.2c-8-0.1-16,0-24.1,0
				c-1.1,0-1.7-0.1-1.7-1.5c0.1-8.6,0-17.2,0-25.7C390,33.5,390,33.4,390.1,33z"/>
			<path d="M62.3,47c0,4.1,0,8.2,0,12.3c0,1.2-0.3,1.7-1.6,1.7c-8.3,0-16.7,0-25,0c-1.1,0-1.5-0.4-1.5-1.6c0-8.3,0-16.6,0-24.8
				c0-1.3,0.4-1.7,1.7-1.7c8.3,0,16.6,0,24.8,0c1.3,0,1.6,0.5,1.5,1.7C62.3,38.6,62.3,42.8,62.3,47z"/>
			<path d="M62.2,388.5c0,9.5,0,18.7,0,28c-0.7,0-1.3,0.1-1.9,0.1c-8,0-15.9,0-23.9,0c-1.7,0-2.2-0.5-2.2-2.2c0.1-7.7,0-15.4,0-23.1
				c0-2.8,0-2.8,2.9-2.8c7.5,0,14.9,0,22.4,0C60.4,388.5,61.2,388.5,62.2,388.5z"/>
			<path d="M230.8,220c0,3.2,0,6.2,0,9.5c-2.8,0-5.6,0-8.4,0c-0.3,0-0.9-0.7-0.9-1c-0.1-2.4-0.1-4.9,0-7.3c0-0.4,0.7-1,1.1-1
				C225.2,219.9,227.9,220,230.8,220z"/>
		</g>
	</g>
</g>
<g id="Layer_2">
	<g>
		<path class="st0" d="M218.4,249.3H209c-10.1,0-18.4-8.3-18.4-18.4c0-10.1,8.3-18.4,18.4-18.4c7.9,0,14.3,4.6,16.9,11.3l10.9-6.3
			c-5.2-10.1-15.7-17.2-27.7-17.2c-16.9,0-30.4,13.8-30.4,30.7c0,17.3,13.5,30.8,30.4,30.8h9.4v6.1l21.4-12.4l-21.4-12V249.3z"/>
		<path class="st0" d="M242.8,187.7h-9.4v-6l-21.4,12l21.4,12.4v-6.3h9.4c10.1,0,18.8,8.2,18.8,18.4c0,10.5-8.6,18.4-18.8,18.4
			c-7.5,0-13.9-4.5-16.9-10.9l-10.2,6c4.9,10.1,15,17.3,27,17.3c17.3,0,31.2-13.5,30.8-30.8C273.6,201.2,260.1,187.7,242.8,187.7z"
			/>
	</g>
</g>
<g id="Layer_3">
	<g>
		<path class="st1" d="M218.4,249.3H209c-10.1,0-18.4-8.3-18.4-18.4c0-10.1,8.3-18.4,18.4-18.4c7.9,0,14.3,4.6,16.9,11.3l10.9-6.3
			c-5.2-10.1-15.7-17.2-27.7-17.2c-16.9,0-30.4,13.8-30.4,30.7c0,17.3,13.5,30.8,30.4,30.8h9.4v6.1l21.4-12.4l-21.4-12V249.3z"/>
		<path class="st1" d="M242.8,187.7h-9.4v-6l-21.4,12l21.4,12.4v-6.3h9.4c10.1,0,18.8,8.2,18.8,18.4c0,10.5-8.6,18.4-18.8,18.4
			c-7.5,0-13.9-4.5-16.9-10.9l-10.2,6c4.9,10.1,15,17.3,27,17.3c17.3,0,31.2-13.5,30.8-30.8C273.6,201.2,260.1,187.7,242.8,187.7z"
			/>
	</g>
</g>
</svg>
