<?xml version="1.0" standalone="no"?>
<!DOCTYPE svg PUBLIC "-//W3C//DTD SVG 20010904//EN"
 "http://www.w3.org/TR/2001/REC-SVG-20010904/DTD/svg10.dtd">
<svg version="1.0" xmlns="http://www.w3.org/2000/svg"
 width="668.000000pt" height="668.000000pt" viewBox="0 0 668.000000 668.000000"
 preserveAspectRatio="xMidYMid meet">
<metadata>
Created by potrace 1.14, written by Peter Selinger 2001-2017
</metadata>
<g transform="translate(0.000000,668.000000) scale(0.100000,-0.100000)"
fill="#000000" stroke="none">
<path d="M3720 6301 c-74 -43 -160 -91 -190 -108 -108 -60 -185 -105 -197
-115 -7 -6 -13 -7 -13 -3 0 5 -8 1 -17 -7 -10 -8 -43 -29 -73 -45 -45 -25
-393 -221 -540 -305 -19 -11 -99 -56 -177 -100 -79 -44 -143 -83 -143 -87 0
-4 15 -15 33 -24 17 -9 39 -21 47 -27 53 -34 152 -90 160 -90 6 0 10 -4 10
-10 0 -5 4 -10 9 -10 8 0 215 -118 281 -160 18 -11 159 -93 218 -127 24 -14
65 -38 90 -53 26 -16 63 -37 82 -47 19 -10 43 -24 53 -33 10 -8 21 -15 25 -15
4 0 18 -8 32 -16 50 -32 183 -109 187 -109 2 0 24 -13 48 -30 24 -16 46 -30
49 -30 4 0 40 -21 82 -46 42 -25 78 -44 80 -41 2 2 4 102 4 221 l0 216 28 1
c127 4 702 0 757 -5 109 -11 115 -12 205 -36 95 -25 230 -80 303 -122 26 -15
51 -28 56 -28 4 0 16 -8 27 -17 10 -10 36 -29 56 -43 21 -14 38 -28 38 -32 0
-5 6 -8 13 -8 7 0 20 -8 28 -17 9 -10 41 -43 72 -73 85 -82 134 -141 188 -225
38 -58 110 -195 104 -195 -3 0 2 -14 10 -30 54 -104 89 -288 89 -470 0 -122
-7 -188 -29 -285 -9 -38 -18 -78 -20 -87 -2 -9 -9 -27 -16 -40 -7 -13 -12 -24
-11 -25 3 -5 -2 -20 -16 -56 -63 -150 -162 -296 -284 -417 -111 -110 -101
-101 -198 -166 -137 -92 -321 -169 -475 -199 -86 -16 -132 -20 -260 -19 -158
0 -174 1 -265 22 -36 7 -75 16 -86 18 -37 7 -156 54 -229 91 -226 113 -438
314 -555 528 -59 107 -59 108 -77 94 -15 -13 -41 -29 -78 -49 -11 -5 -38 -21
-60 -35 -22 -14 -69 -42 -105 -62 -36 -20 -67 -40 -70 -43 -3 -4 -12 -9 -20
-13 -8 -4 -36 -19 -61 -34 -25 -16 -103 -62 -172 -103 l-126 -74 46 -86 c42
-76 115 -199 135 -225 204 -261 304 -365 485 -501 164 -124 380 -239 568 -302
108 -37 230 -69 295 -78 8 -1 29 -4 45 -7 92 -17 158 -21 320 -22 244 0 350
13 578 70 181 46 429 152 587 251 64 41 214 150 265 194 70 60 275 273 275
287 0 3 14 22 30 42 177 211 340 580 395 891 26 149 33 252 29 455 -3 221 -5
239 -25 350 -6 33 -13 72 -15 87 -8 61 -78 291 -114 373 -63 144 -75 170 -82
173 -4 2 -8 9 -8 15 0 7 -10 28 -22 47 -12 19 -22 37 -23 40 0 6 -90 145 -105
163 -5 7 -36 46 -69 88 -65 84 -177 201 -261 274 -30 26 -68 59 -84 72 -92 81
-416 268 -498 288 -16 4 -28 11 -28 16 0 5 -3 8 -7 7 -5 0 -15 1 -23 4 -21 8
-113 39 -125 43 -5 1 -13 3 -17 4 -4 1 -22 7 -40 12 -65 20 -185 47 -238 54
-14 2 -61 9 -105 16 -52 7 -227 12 -500 13 l-420 2 -2 199 c-2 110 -4 205 -5
211 -2 6 -64 -23 -138 -65z"/>
<path d="M1978 5055 c-1 -2 -30 -6 -63 -9 -33 -3 -75 -8 -92 -11 -70 -11 -89
-14 -113 -19 -14 -3 -34 -8 -45 -10 -132 -27 -378 -119 -509 -190 -111 -60
-271 -161 -296 -186 -3 -3 -27 -23 -55 -45 -87 -69 -139 -119 -270 -259 -21
-22 -56 -65 -79 -95 -22 -31 -44 -57 -49 -59 -4 -2 -7 -10 -7 -17 0 -7 -3 -15
-7 -17 -10 -4 -53 -65 -53 -73 0 -4 -13 -25 -29 -48 -74 -109 -193 -384 -236
-549 -10 -36 -16 -64 -21 -88 -2 -14 -9 -45 -14 -70 -46 -217 -48 -607 -5
-819 3 -16 33 -151 40 -183 2 -9 9 -26 15 -37 6 -12 9 -21 6 -21 -19 0 128
-352 175 -421 10 -14 16 -29 12 -33 -3 -3 -2 -6 3 -6 5 0 18 -17 29 -38 11
-20 28 -46 37 -56 10 -11 18 -23 18 -28 0 -16 150 -205 222 -279 99 -103 228
-215 277 -243 9 -5 20 -15 24 -23 4 -7 14 -13 22 -13 7 0 15 -4 17 -8 7 -18
309 -189 348 -197 3 -1 23 -9 45 -19 47 -20 211 -76 240 -82 11 -2 47 -10 80
-19 56 -14 87 -20 158 -31 15 -2 39 -6 55 -9 62 -12 247 -18 589 -18 l363 -1
2 -212 3 -212 95 56 c52 30 111 65 132 76 20 12 62 36 95 55 32 19 74 43 93
54 28 15 204 117 290 167 8 5 71 41 140 81 69 39 127 75 128 80 2 5 11 9 21 9
9 0 21 4 27 9 15 15 285 171 295 171 5 0 9 4 9 9 0 5 6 11 13 13 30 8 157 84
154 93 -2 5 -19 18 -38 28 -41 23 -119 67 -157 87 -15 8 -47 27 -72 41 -25 15
-65 38 -90 51 -25 14 -61 34 -80 45 -19 11 -66 37 -105 58 -38 22 -71 43 -73
47 -2 4 -10 8 -17 8 -7 0 -43 18 -79 40 -36 22 -68 40 -70 40 -2 0 -39 20 -80
45 -42 25 -78 45 -80 45 -2 0 -42 23 -90 50 -48 27 -91 50 -96 50 -6 0 -10 5
-10 10 0 6 -5 10 -10 10 -6 0 -86 43 -178 95 l-167 95 -5 -213 -5 -212 -340 1
c-373 1 -436 4 -540 29 -38 9 -77 18 -85 20 -104 25 -286 113 -398 192 -104
75 -312 288 -312 321 0 6 -4 12 -8 14 -40 16 -184 350 -197 453 -2 17 -6 41
-9 55 -25 118 -22 319 9 470 3 14 7 34 9 46 2 11 18 63 36 114 121 362 411
662 765 792 177 66 302 87 477 83 70 -2 131 -5 135 -8 4 -3 24 -8 43 -11 74
-12 172 -36 185 -46 6 -4 24 -10 40 -14 40 -10 193 -87 252 -127 146 -100 252
-205 350 -349 42 -62 113 -197 113 -215 0 -8 4 -15 8 -15 15 0 62 25 62 33 0
4 6 7 14 7 7 0 19 7 26 15 7 8 16 13 20 10 5 -3 10 -2 12 3 1 4 77 51 168 103
91 53 216 126 279 162 62 37 118 67 122 67 5 0 9 4 9 9 0 5 11 12 25 15 14 4
25 13 25 22 0 19 -109 199 -178 294 -99 135 -268 317 -369 397 -19 15 -47 38
-62 51 -31 27 -230 161 -282 190 -89 49 -168 88 -264 127 -49 21 -242 84 -273
90 -12 2 -30 6 -40 9 -20 6 -181 36 -232 43 -42 5 -417 13 -422 8z"/>
</g>
</svg>
